<svg xmlns="http://www.w3.org/2000/svg" xmlns:xlink="http://www.w3.org/1999/xlink" width="54.496" height="55.912" viewBox="0 0 54.496 55.912">
  <defs>
    <clipPath id="clip-path">
      <rect id="Rectangle_406219" data-name="Rectangle 406219" width="54.496" height="55.912" fill="#12263f"/>
    </clipPath>
  </defs>
  <g id="Group_1113646" data-name="Group 1113646" clip-path="url(#clip-path)">
    <path id="Path_905660" data-name="Path 905660" d="M8.079,33.185q0-10.135,0-20.272c0-1.2.256-1.46,1.437-1.469.921-.007,1.841-.013,2.762,0,.492.007.71-.206.7-.717-.015-.926-.022-1.853.009-2.779a3.5,3.5,0,0,1,.222-.991.916.916,0,0,1,1-.637c1.009.016,2.018-.01,3.028.007.516.008.741-.206.733-.743-.016-1.036-.011-2.071,0-3.106.01-.878.273-1.162,1.133-1.246.264-.025.531-.025.8-.025q12.244,0,24.487-.009a2.015,2.015,0,0,1,1.666.7c1.586,1.733,3.263,3.38,4.895,5.069a1.091,1.091,0,0,1,.248.513,3.211,3.211,0,0,1,.02.652c0,11.77-.014,23.541.021,35.311,0,1.278-.569,1.563-1.562,1.56-.885,0-1.77.011-2.656,0-.49-.007-.713.2-.7.715.015.871.006,1.744,0,2.616a3.581,3.581,0,0,1-.054.7c-.19.916-.386,1.078-1.3,1.084s-1.841,0-2.762,0c-.794,0-.869.084-.872.918,0,.98.006,1.961-.006,2.943-.01.835-.2,1.055-1,1.2a4.569,4.569,0,0,1-.792.058q-14.846,0-29.693,0a2.435,2.435,0,0,1-.883-.119,1.409,1.409,0,0,1-.892-1.5c.021-6.811.012-13.622.012-20.434M19.55,23.139v2.833q0,8.2,0,16.4c0,.948.055,1.005.945,1.007,1.009,0,2.018,0,3.027,0q12.587,0,25.173,0c.876,0,.936-.064.938-.961,0-1.307,0-2.615,0-3.923q0-14.683,0-29.365c0-.9-.062-.967-.929-.97-.938,0-1.877.013-2.815-.008-1.026-.023-1.357-.379-1.361-1.408,0-1.054-.007-2.107,0-3.16,0-.451-.194-.678-.642-.661-.141.005-.283,0-.425,0H20.623a1.379,1.379,0,0,0-.576.028,1.017,1.017,0,0,0-.464.476,1.968,1.968,0,0,0-.033.7q0,9.507,0,19.015M44.762,45H19.538c-1.433,0-1.571-.143-1.571-1.63q0-17.058,0-34.116c0-.236-.006-.472,0-.708a.523.523,0,0,0-.592-.6c-.62,0-1.239,0-1.859-.007-.962-.008-.953-.009-.953.991q-.006,19.565-.025,39.13c0,.368.111.473.459.46.743-.029,1.487-.026,2.231-.025q13.547.008,27.093.023c.26,0,.453-.01.45-.36-.01-1.048,0-2.1,0-3.16M9.661,33.3q0,9.647,0,19.293c0,.859.07.925.914.932h28c.177,0,.354-.009.531,0,.453.017.642-.219.638-.666,0-.618,0-1.235,0-1.853-.006-.791-.087-.872-.855-.881-.177,0-.354,0-.532,0H14.767c-.248,0-.5-.006-.743-.009a.773.773,0,0,1-.813-.575,5.508,5.508,0,0,1-.224-1.377q-.018-16.814-.009-33.628c0-.218,0-.436,0-.654-.012-.709-.1-.8-.816-.811-.5-.007-.992,0-1.487,0-.973,0-1.012.041-1.012,1.05q0,9.592,0,19.185M47.322,6.522c.247,0,.5.02.742,0,.423-.042.569-.3.3-.611a19.941,19.941,0,0,0-1.648-1.687c-.275-.251-.542-.139-.583.274-.026.269-.018.543-.018.815,0,1.225,0,1.225,1.208,1.213" transform="translate(-2.34 -0.325)" fill="#12263f"/>
    <path id="Path_905665" data-name="Path 905665" d="M41.311,50.285q4.356,0,8.712,0a3.681,3.681,0,0,1,.74.045c.35.073.619.233.6.69s-.177.778-.64.857a3.777,3.777,0,0,1-.636.029q-8.658,0-17.317-.007a2.766,2.766,0,0,1-1.128-.212.82.82,0,0,1-.4-.657,1.059,1.059,0,0,1,.52-.656,1.861,1.861,0,0,1,.833-.087q4.356-.008,8.712,0" transform="translate(-9.064 -13.659)" fill="#12263f"/>
    <path id="Path_905666" data-name="Path 905666" d="M41.353,42.5q4.3,0,8.6,0a4.712,4.712,0,0,1,.689.024c.362.054.708.154.724.634a.873.873,0,0,1-.706.938,2.662,2.662,0,0,1-.476.025q-8.783,0-17.567-.007a1.875,1.875,0,0,1-.918-.185.922.922,0,0,1-.444-.68,1.143,1.143,0,0,1,.564-.674A1.672,1.672,0,0,1,32.6,42.5q4.378-.005,8.757,0" transform="translate(-9.065 -11.543)" fill="#12263f"/>
    <path id="Path_905667" data-name="Path 905667" d="M41.312,34.719q4.326,0,8.654,0a2.584,2.584,0,0,1,.686.039c.4.111.721.34.682.832a.782.782,0,0,1-.729.733,2.728,2.728,0,0,1-.476.019q-8.681,0-17.361-.009a2.84,2.84,0,0,1-1.117-.248c-.193-.086-.44-.4-.412-.574a1.107,1.107,0,0,1,.486-.685,1.735,1.735,0,0,1,.828-.1q4.38-.009,8.759,0" transform="translate(-9.061 -9.43)" fill="#12263f"/>
    <path id="Path_905668" data-name="Path 905668" d="M41.26,26.935c2.921,0,5.843-.009,8.764.013a1.9,1.9,0,0,1,.973.3.783.783,0,0,1,.3.666,1.39,1.39,0,0,1-.615.6,1.214,1.214,0,0,1-.574.047q-8.684,0-17.369-.008a4.431,4.431,0,0,1-1.076-.216c-.331-.086-.58-.333-.449-.672a1.386,1.386,0,0,1,.6-.658,1.738,1.738,0,0,1,.783-.067q4.329-.005,8.658,0" transform="translate(-9.045 -7.314)" fill="#12263f"/>
    <path id="Path_905669" data-name="Path 905669" d="M41.423,20.78c-2.884,0-5.769.009-8.652-.011a2.881,2.881,0,0,1-1.118-.247.776.776,0,0,1-.414-.575,1.046,1.046,0,0,1,.435-.666,1.338,1.338,0,0,1,.718-.12q8.838-.009,17.677.007a1.591,1.591,0,0,1,.875.28c.2.139.434.535.368.669a1.667,1.667,0,0,1-.713.629,1.419,1.419,0,0,1-.628.033q-4.273,0-8.547,0" transform="translate(-9.062 -5.204)" fill="#12263f"/>
    <path id="Path_905670" data-name="Path 905670" d="M38.811,12.994c-2.036,0-4.072.009-6.108-.009a4.446,4.446,0,0,1-1.028-.2c-.333-.084-.579-.332-.46-.669a1.55,1.55,0,0,1,.587-.677,1.185,1.185,0,0,1,.623-.068c4.09,0,8.179.009,12.269-.015a1.667,1.667,0,0,1,1.286.63c.233.247,0,.838-.378.94a2.922,2.922,0,0,1-.737.064q-3.027.007-6.055,0" transform="translate(-9.047 -3.085)" fill="#12263f"/>
  </g>
</svg>
