<svg xmlns="http://www.w3.org/2000/svg" xmlns:xlink="http://www.w3.org/1999/xlink" width="143" height="104" viewBox="0 0 143 104">
  <defs>
    <clipPath id="clip-path">
      <rect id="Rectangle_407509" data-name="Rectangle 407509" width="99" height="99" transform="translate(-0.117 -0.175)" fill="none"/>
    </clipPath>
  </defs>
  <g id="Group_1115705" data-name="Group 1115705" transform="translate(-227.34 -1736.81)">
    <g id="Group_1115698" data-name="Group 1115698" transform="translate(227.34 1744.911)">
      <rect id="Rectangle_407484" data-name="Rectangle 407484" width="143" height="96" rx="48" transform="translate(0 -0.101)" fill="#f9f7f4"/>
    </g>
    <g id="Group_1115704" data-name="Group 1115704" transform="translate(257.457 1736.985)">
      <g id="Group_1115703" data-name="Group 1115703" transform="translate(0 0)" clip-path="url(#clip-path)">
        <g id="Group_1115702" data-name="Group 1115702">
          <g id="Group_1115701" data-name="Group 1115701" clip-path="url(#clip-path)">
            <g id="Group_1115700" data-name="Group 1115700">
              <g id="Group_1115699" data-name="Group 1115699" clip-path="url(#clip-path)">
                <path id="Path_910052" data-name="Path 910052" d="M0,0H0ZM25.527,29.224c-2.82,0-5.538.085-8.248-.022A5.115,5.115,0,0,0,11.8,34.667c.1,10.937.042,21.875.027,32.813a4.794,4.794,0,0,1-.276,1.578c-2.1,5.851-4.163,11.712-6.348,17.529a4.584,4.584,0,0,0,4.471,6.5c19.281-.128,38.564-.061,57.846-.061,2.43,0,4.861,0,7.291,0a3.793,3.793,0,0,0,3.419-1.935,4.809,4.809,0,0,0,.313-4.329q-3.162-8.718-6.294-17.447a5.745,5.745,0,0,1-.332-1.857c-.029-4.061.044-8.125-.047-12.184a3.752,3.752,0,0,1,1.388-3.305,9.9,9.9,0,0,0,2.793-2.98c1-2.131,2.35-3.514,4.719-3.806a4.8,4.8,0,0,0,.728-.229c2.77-.814,3.083-1.2,3.315-4.113,0-.055.055-.106.125-.233,1.489,0,3.018.019,4.546,0a4.1,4.1,0,0,0,4.258-4.985c-.2-1.456-.344-2.919-.509-4.38-.646-5.715-1.273-11.433-1.944-17.145A3.8,3.8,0,0,0,87.6,10.689q-8.393-.076-16.786,0a3.814,3.814,0,0,0-3.664,3.434c-.412,3.49-.783,6.986-1.18,10.478-.175,1.541-.369,3.08-.545,4.547H57.737A17.546,17.546,0,0,0,31.78,7.691a17.819,17.819,0,0,0-6.253,21.533" transform="translate(0 0.655)" fill="#fefefe"/>
                <path id="Path_910053" data-name="Path 910053" d="M39.529,42.9A17.548,17.548,0,0,1,65.845,21.634a17.743,17.743,0,0,1,5.894,21.192h7.687c.177-1.468.37-3.006.545-4.547.4-3.492.768-6.988,1.18-10.478a3.814,3.814,0,0,1,3.664-3.434q8.393-.084,16.786,0a3.8,3.8,0,0,1,3.691,3.406c.672,5.712,1.3,11.43,1.944,17.145.165,1.46.313,2.923.509,4.38a4.1,4.1,0,0,1-4.258,4.986c-1.528.023-3.057,0-4.546,0-.07.127-.121.178-.125.233-.232,2.912-.545,3.3-3.315,4.113a4.791,4.791,0,0,1-.728.229c-2.369.292-3.72,1.674-4.719,3.806a9.89,9.89,0,0,1-2.793,2.98,3.753,3.753,0,0,0-1.388,3.306c.091,4.059.018,8.123.047,12.184a5.746,5.746,0,0,0,.332,1.857q3.12,8.733,6.294,17.447a4.809,4.809,0,0,1-.313,4.329,3.792,3.792,0,0,1-3.419,1.935c-2.43.007-4.861,0-7.291,0-19.282,0-38.565-.067-57.846.061a4.584,4.584,0,0,1-4.471-6.5c2.185-5.817,4.253-11.679,6.348-17.529a4.79,4.79,0,0,0,.276-1.579c.016-10.938.073-21.876-.027-32.813a5.115,5.115,0,0,1,5.477-5.465c2.71.107,5.427.022,8.248.022m2.3,18.918a4.018,4.018,0,0,0-.948,2.914c-.026,3.607-.011,7.215-.007,10.822,0,.246.039.492.064.782h5.48c0-.391,0-.732,0-1.073,0-1.309-.017-2.618.01-3.927a1.334,1.334,0,1,1,2.667-.068c.027.317.009.638.01.957,0,1.36,0,2.721,0,4.094h4.926V71.583A53.277,53.277,0,0,1,54.1,65.85a4.908,4.908,0,0,0-2.487-5.228A21.873,21.873,0,0,1,48.743,58a8.609,8.609,0,0,0-4.41,1.417,21.608,21.608,0,0,0-2.5,2.4M40.158,89.8l.685-.709c.318-.023.637-.067.955-.067,8.919,0,17.837.007,26.756-.016a1.663,1.663,0,0,1,1.8,1.343c.678,2.161,1.432,4.3,2.093,6.464a.92.92,0,0,0,1.078.765c4.123-.039,8.247-.042,12.371-.056.877,0,1.755,0,2.728,0-1.583-4.393-3.135-8.645-4.636-12.914A1.262,1.262,0,0,0,82.568,83.6c-10.837.032-21.673.021-32.51.024-.446,0-.892.038-1.339.058a1.8,1.8,0,0,0-.283-.045c-6.555,0-13.111,0-19.666-.021-.573,0-.767.255-.934.722Q25.61,90.557,23.358,96.77c-.1.285-.166.583-.265.935H34.322c.922.008,1.845.049,2.763,0a.9.9,0,0,0,.656-.486c.83-2.466,1.618-4.946,2.417-7.423m64.522-43.346q-1.016-9.037-2.027-18.075a1.336,1.336,0,0,0-1.516-1.347q-7.909.012-15.817,0a1.332,1.332,0,0,0-1.525,1.338c-.151,1.491-.327,2.98-.492,4.47q-.975,8.459-1.945,16.918c-.139,1.226.369,1.837,1.6,1.841q10.254.028,20.508,0c1.269,0,1.773-.648,1.62-1.92-.13-1.076-.272-2.151-.409-3.226M56.8,73.314v3h9.959c0-2.741.014-5.392-.02-8.043a1.361,1.361,0,0,0-.446-.866c-.78-.707-1.623-1.345-2.418-2.037a1.378,1.378,0,0,1-.308-2.016,1.362,1.362,0,0,1,2.045-.009c3.059,2.879,6.788,4.749,10.306,6.936a2.156,2.156,0,0,0,2.975-.211c2.566-2.675,5.073-5.406,7.391-7.887l-2.855-3.137c-1.765,1.91-3.506,3.827-5.286,5.706-.782.825-1.364.821-2.258.12-.98-.769-1.9-1.626-2.939-2.305-2.29-1.5-4.594-2.987-6.98-4.325a6.341,6.341,0,0,0-4.01-.64,1.97,1.97,0,0,1-1.024,1.961c-1.25.887-2.468,1.82-3.67,2.771a1.276,1.276,0,0,0-.5.821c-.015,3.386.016,6.771.036,10.157M55.853,100.2q0,.158,0,.316-16.493,0-32.985,0c-.28,0-.773,0-.806.109a7.1,7.1,0,0,0-.457,2.257,1.241,1.241,0,0,0,1.421,1.133c.8-.011,1.6,0,2.4,0H88.331c1.316,0,1.878-.525,1.868-1.729-.012-1.472-.554-2.087-1.841-2.087H55.853M83.169,69.9l-.223-.2a12.327,12.327,0,0,1-1.259,1.409,2.135,2.135,0,0,0-.8,1.918c.062,1.34.02,2.686.016,4.029,0,1.587-.421,2.015-1.969,2.016q-23.071,0-46.142,0c-1.533,0-1.943-.405-1.943-1.913q0-13.672,0-27.344c0-1.866.516-2.375,2.4-2.376,2.486,0,4.971,0,7.51,0l-.612-1.871c-2.917,0-5.854,0-8.792,0-2.119,0-2.82.7-2.82,2.812q0,15.734,0,31.469c0,.338.028.676.043,1.027H83.169ZM38.2,76.338c0-3.809.033-7.547-.011-11.284a7.734,7.734,0,0,1,3.315-6.866A3.769,3.769,0,0,0,43.3,54.236c-.117-1.35-.024-2.718-.024-4.054h-9.7V76.338ZM58.949,51.352c-.628-.547-1.134-.255-1.7.025a3.839,3.839,0,0,1-4.54-.942,3.869,3.869,0,1,1,6.766-2.688c.008.275,0,.55,0,.832a4.359,4.359,0,0,1,.814.236c.86.46,1.349.09,1.687-.7.327-.759.722-1.493.989-2.273.774-2.265.408-4.62.458-6.941,0-.173-.245-.429-.436-.517a9.861,9.861,0,0,1-5.135-4.577,1.009,1.009,0,0,0-.15.073,17.5,17.5,0,0,1-9.4,4.382c-.19.021-.466.457-.474.707a40.088,40.088,0,0,0,0,4.216c.282,3.854,1.908,6.937,5.484,8.7a5.417,5.417,0,0,0,5.636-.535m10.9,46.154c-.427-1.316-.824-2.556-1.232-3.792-.659-2-.662-2-2.773-2-7.511,0-15.022.01-22.533-.016a1.032,1.032,0,0,0-1.2.876c-.332,1.2-.773,2.365-1.155,3.549-.139.433-.238.879-.371,1.381Zm.128-58.069A14.8,14.8,0,0,0,46.139,24.469C41.175,28.6,39.914,35.3,41.38,39.448l1.86-.985c0-.694.039-1.43-.007-2.16a9.489,9.489,0,0,1,1.3-5.794c2.7-4.276,6.511-6.861,11.685-6.417a12.937,12.937,0,0,1,11.305,8.24,7.093,7.093,0,0,1-.1,5.97l2.549,1.136m8.24,10.726H67.757a4.713,4.713,0,0,0-.318,1.116c-.037,1.372-.045,2.747.008,4.118a1.162,1.162,0,0,0,.543.742c1.428.9,2.924,1.691,4.318,2.636,1.575,1.069,3.067,2.261,4.755,3.518.4-.615,1.081-1.19,1.1-1.786.1-3.411.051-6.826.051-10.345M65.366,36.281c.3-3.4-1.459-5.673-3.926-7.458-3.308-2.394-6.907-3.01-10.583-.882C48.007,29.59,46,31.912,45.89,35.487c.365.047.646.1.928.115a5.5,5.5,0,0,0,.86,0,13.931,13.931,0,0,0,9.589-5.175c.438-.521.945-.917,1.541-.621a2.027,2.027,0,0,1,.995,1.217,6.656,6.656,0,0,0,5.562,5.263m4.1,40.05h8.694V73.417c-3.587.334-5.7-2.677-8.694-3.736ZM55.426,60.343c1.2-.9,2.325-1.731,3.432-2.588a.96.96,0,0,0,.39-.584c.042-.931.018-1.865.018-2.9a8.579,8.579,0,0,1-7.284.019c0,.986-.029,1.847.017,2.7a1.244,1.244,0,0,0,.365.793c.979.86,2,1.675,3.062,2.554m32.984-.376c1.807-2.516,2.109-2.732,4.624-3.4a17.225,17.225,0,0,0,2.1-.628,4.289,4.289,0,0,0,.967-.781l-.164-.242c-2.255,0-4.517-.116-6.761.041a5.152,5.152,0,0,0-3.456,2.185l2.688,2.829M49.228,55.217c.241-2.505-.279-3.817-2.374-5.876-.172-.169-.526-.152-.841-.233v6.582l3.214-.474m21.283-7.832h8.45c.04-.6.077-1.155.118-1.769H71.085l-.574,1.769M45.077,41.28c-1.723-.289-2.139.051-2.141,1.7q0,.861,0,1.723c0,1.59.538,1.991,2.141,1.61Zm21.1,5.1c1.807.2,2.136-.082,2.138-1.758q0-.815,0-1.63c0-1.662-.4-1.989-2.137-1.717ZM64.695,54.97V52.445c-3.292-.43-2.694-.7-2.721,2.136,0,.054.049.108.1.209l2.622.18m16.253,3.344c1.1-1.3,2.816-1.958,2.162-3.961L80.947,54Zm-26.5-10.287a1.112,1.112,0,0,0,1.161,1.028,1.138,1.138,0,0,0,1.179-1.213A1.12,1.12,0,0,0,55.629,46.7a1.191,1.191,0,0,0-1.183,1.332" transform="translate(-14.002 -13.019)" fill="#030303"/>
                <path id="Path_910054" data-name="Path 910054" d="M112.606,272.917c.446-.02.892-.058,1.338-.058,10.837,0,21.673.008,32.51-.024a1.262,1.262,0,0,1,1.422,1.007c1.5,4.27,3.053,8.521,4.637,12.915-.973,0-1.85,0-2.728,0-4.123.013-8.247.016-12.37.055a.92.92,0,0,1-1.079-.765c-.661-2.166-1.415-4.3-2.093-6.464a1.663,1.663,0,0,0-1.8-1.343c-8.919.024-17.837.013-26.756.017-.318,0-.637.044-.955.067a39.013,39.013,0,0,1,3.161-2.615c1.513-1.018,3.139-1.87,4.716-2.793" transform="translate(-77.888 -202.256)" fill="#798ac3"/>
                <path id="Path_910055" data-name="Path 910055" d="M166.892,186.9c-.019-3.386-.051-6.771-.036-10.157a1.276,1.276,0,0,1,.5-.821c1.2-.951,2.42-1.884,3.67-2.771a1.97,1.97,0,0,0,1.024-1.961,6.343,6.343,0,0,1,4.01.64c2.385,1.338,4.69,2.826,6.98,4.325,1.038.679,1.959,1.537,2.939,2.306.894.7,1.475.7,2.257-.12,1.781-1.879,3.521-3.8,5.286-5.706l2.855,3.137c-2.317,2.481-4.825,5.213-7.391,7.887a2.156,2.156,0,0,1-2.975.21c-3.518-2.188-7.248-4.058-10.306-6.936a1.362,1.362,0,0,0-2.046.009,1.378,1.378,0,0,0,.308,2.016c.795.692,1.638,1.329,2.418,2.037a1.361,1.361,0,0,1,.445.866c.034,2.651.02,5.3.02,8.043H174.18c-.937-.408-1.867-.832-2.812-1.219-1.486-.608-2.983-1.19-4.476-1.784" transform="translate(-124.09 -126.602)" fill="#ea2024"/>
                <path id="Path_910056" data-name="Path 910056" d="M270.4,57.916c.165-1.49.34-2.979.492-4.47a1.332,1.332,0,0,1,1.525-1.338q7.909.012,15.817,0a1.336,1.336,0,0,1,1.516,1.347q1,9.039,2.027,18.075c-1.076-.064-2.167-.037-3.227-.207A24.446,24.446,0,0,1,270.4,57.916m16.141,1.3a8.79,8.79,0,0,0-.315-1.543,1.074,1.074,0,0,0-1.471-.7,2.22,2.22,0,0,0-.981,1.2c-.149.412.057.943.051,1.42a3.461,3.461,0,0,1-4.257,3.343c-1.966-.453-2.9-1.937-2.692-4.293.091-1.044-.257-1.61-1.06-1.724-.86-.122-1.449.354-1.6,1.381a6.068,6.068,0,0,0,2.408,6.176,5.821,5.821,0,0,0,6.494.56,6.161,6.161,0,0,0,3.423-5.819" transform="translate(-201.101 -38.098)" fill="#6fbd43"/>
                <path id="Path_910057" data-name="Path 910057" d="M63.909,337.612H96.414c1.287,0,1.829.615,1.841,2.087.01,1.2-.552,1.729-1.868,1.729H33.479c-.8,0-1.6-.009-2.4,0a1.241,1.241,0,0,1-1.42-1.133,7.1,7.1,0,0,1,.457-2.257c.033-.108.526-.109.806-.109q16.492-.007,32.985,0v-.316" transform="translate(-22.057 -250.431)" fill="#5468ae"/>
                <path id="Path_910058" data-name="Path 910058" d="M111.34,148.767v10.972H56.751c-.015-.351-.043-.689-.043-1.027q0-15.734,0-31.469c0-2.107.7-2.808,2.82-2.811,2.938-.005,5.875,0,8.792,0l.612,1.871c-2.538,0-5.024,0-7.51,0-1.884,0-2.4.51-2.4,2.376q0,13.672,0,27.343c0,1.509.41,1.913,1.943,1.914q23.071,0,46.142,0c1.549,0,1.965-.429,1.969-2.015,0-1.343.046-2.688-.016-4.029a2.135,2.135,0,0,1,.8-1.918,12.3,12.3,0,0,0,1.259-1.409l.223.2" transform="translate(-42.172 -91.884)" fill="#576daf"/>
                <path id="Path_910059" data-name="Path 910059" d="M264.693,74.771a24.447,24.447,0,0,0,18.15,13.407c1.06.169,2.15.143,3.227.207.137,1.075.28,2.15.409,3.226.153,1.272-.351,1.917-1.62,1.92q-10.254.026-20.508,0c-1.235,0-1.742-.615-1.6-1.841q.96-8.461,1.945-16.918" transform="translate(-195.392 -54.953)" fill="#42b048"/>
                <path id="Path_910060" data-name="Path 910060" d="M61.1,272.963c-1.577.923-3.2,1.774-4.716,2.793a39.012,39.012,0,0,0-3.161,2.615l-.685.71a4.273,4.273,0,0,0-.856.541,16.677,16.677,0,0,0-2.223,2.453c-1.013,1.577-1.847,3.27-2.756,4.915H35.475c.1-.351.162-.65.265-.935q2.238-6.218,4.478-12.435c.167-.467.361-.724.934-.722,6.555.024,13.11.017,19.666.021a1.772,1.772,0,0,1,.283.045" transform="translate(-26.383 -202.302)" fill="#5a70b5"/>
                <path id="Path_910061" data-name="Path 910061" d="M81,168.607H76.37V142.451h9.7c0,1.336-.093,2.7.024,4.054a3.769,3.769,0,0,1-1.789,3.952,7.734,7.734,0,0,0-3.315,6.866c.043,3.737.011,7.475.011,11.284" transform="translate(-56.797 -105.288)" fill="#e6e8f2"/>
                <path id="Path_910062" data-name="Path 910062" d="M142.948,96.12a5.418,5.418,0,0,1-5.636.535c-3.576-1.76-5.2-4.843-5.484-8.7a40.156,40.156,0,0,1,0-4.216c.008-.25.285-.686.474-.707a17.5,17.5,0,0,0,9.4-4.382.983.983,0,0,1,.15-.073,9.861,9.861,0,0,0,5.135,4.576c.191.089.44.344.437.517-.051,2.32.316,4.676-.458,6.941-.266.779-.662,1.513-.988,2.273-.338.786-.827,1.156-1.687.7a4.353,4.353,0,0,0-.814-.236c0-.282.007-.557,0-.832a3.869,3.869,0,1,0-2.225,3.629c.565-.28,1.072-.573,1.7-.025" transform="translate(-98 -57.787)" fill="#f5b2af"/>
                <path id="Path_910063" data-name="Path 910063" d="M132.965,310.252H103.7c.134-.5.232-.948.371-1.381.381-1.185.822-2.352,1.155-3.549a1.032,1.032,0,0,1,1.205-.876c7.511.026,15.022.016,22.533.016,2.111,0,2.114,0,2.773,2,.408,1.236.8,2.476,1.232,3.792" transform="translate(-77.121 -225.765)" fill="#4759a6"/>
                <path id="Path_910064" data-name="Path 910064" d="M133.756,47.186l-2.549-1.136a7.093,7.093,0,0,0,.1-5.97A12.937,12.937,0,0,0,120,31.84c-5.174-.445-8.989,2.14-11.685,6.417a9.49,9.49,0,0,0-1.3,5.794c.046.73.007,1.466.007,2.16l-1.86.985c-1.466-4.144-.2-10.85,4.759-14.979a14.8,14.8,0,0,1,23.835,14.969" transform="translate(-77.784 -20.767)" fill="#f9f9f9"/>
                <path id="Path_910065" data-name="Path 910065" d="M219.194,142.379c0,3.519.054,6.934-.051,10.345-.018.6-.7,1.172-1.1,1.786-1.688-1.257-3.18-2.449-4.755-3.518-1.394-.945-2.89-1.739-4.318-2.636a1.162,1.162,0,0,1-.543-.742c-.053-1.371-.046-2.746-.008-4.118a4.724,4.724,0,0,1,.318-1.116Z" transform="translate(-154.982 -105.234)" fill="#e4e6f1"/>
                <path id="Path_910066" data-name="Path 910066" d="M118,197.611v4.736h-4.927c0-1.373,0-2.734,0-4.094,0-.319.018-.64-.009-.957a1.334,1.334,0,1,0-2.667.068c-.028,1.308-.009,2.618-.01,3.927,0,.341,0,.681,0,1.073h-5.48c-.025-.29-.063-.536-.064-.782,0-3.608-.018-7.215.007-10.822a4.018,4.018,0,0,1,.948-2.914c.283.322.581.633.845.97.741.943,1.468,1.9,2.2,2.846a1.509,1.509,0,0,0-.727,1.856c.3.8.993.864,1.727.852.884-.014,1.77.015,2.655.025a20.766,20.766,0,0,0,1.912,1.372c1.17.662,2.39,1.236,3.589,1.847" transform="translate(-77.968 -139.047)" fill="#a31d21"/>
                <path id="Path_910067" data-name="Path 910067" d="M143.9,60.236a6.656,6.656,0,0,1-5.562-5.263,2.026,2.026,0,0,0-.995-1.217c-.6-.3-1.1.1-1.541.621a13.932,13.932,0,0,1-9.589,5.175,5.5,5.5,0,0,1-.86,0c-.283-.017-.563-.068-.928-.115.109-3.575,2.117-5.9,4.966-7.546,3.676-2.127,7.275-1.511,10.583.882,2.467,1.785,4.225,4.056,3.926,7.458" transform="translate(-92.538 -36.974)" fill="#72cad9"/>
                <path id="Path_910068" data-name="Path 910068" d="M120.8,186.533c-1.2-.611-2.419-1.185-3.589-1.847a20.769,20.769,0,0,1-1.912-1.372l1.523-.032c1.022-.022,1.639-.51,1.66-1.316.022-.838-.617-1.363-1.693-1.37-1.715-.011-3.43-.011-5.145-.016-.733-.949-1.46-1.9-2.2-2.846-.264-.337-.563-.647-.845-.97a21.606,21.606,0,0,1,2.5-2.4,8.609,8.609,0,0,1,4.41-1.417,21.874,21.874,0,0,0,2.868,2.624,4.908,4.908,0,0,1,2.487,5.228,53.275,53.275,0,0,0-.063,5.733" transform="translate(-80.763 -127.969)" fill="#eb2024"/>
                <path id="Path_910069" data-name="Path 910069" d="M216.432,225.181V218.53c2.99,1.059,5.107,4.07,8.694,3.736v2.915Z" transform="translate(-160.963 -161.869)" fill="#e2e4ef"/>
                <path id="Path_910070" data-name="Path 910070" d="M151.615,164.479c-1.064-.88-2.082-1.694-3.062-2.554a1.243,1.243,0,0,1-.365-.793c-.046-.857-.017-1.718-.017-2.7a8.579,8.579,0,0,0,7.284-.019c0,1.034.023,1.968-.018,2.9a.959.959,0,0,1-.39.583c-1.107.857-2.234,1.689-3.432,2.589" transform="translate(-110.19 -117.156)" fill="#f5b2af"/>
                <path id="Path_910071" data-name="Path 910071" d="M282.534,165.837l-2.688-2.829a5.152,5.152,0,0,1,3.456-2.185c2.244-.157,4.506-.041,6.761-.041l.164.242a4.289,4.289,0,0,1-.967.781,17.225,17.225,0,0,1-2.1.628c-2.515.673-2.817.888-4.624,3.4" transform="translate(-208.125 -118.889)" fill="#f4b1ae"/>
                <path id="Path_910072" data-name="Path 910072" d="M79.286,304.929c.909-1.644,1.743-3.337,2.756-4.915a16.693,16.693,0,0,1,2.223-2.453,4.267,4.267,0,0,1,.856-.541c-.8,2.476-1.586,4.957-2.416,7.423a.9.9,0,0,1-.656.487c-.919.049-1.842.007-2.763,0" transform="translate(-58.966 -220.243)" fill="#7889c2"/>
                <path id="Path_910073" data-name="Path 910073" d="M128.121,144.37l-3.214.473v-6.582c.314.081.669.064.841.233,2.1,2.059,2.615,3.371,2.374,5.876" transform="translate(-92.895 -102.172)" fill="#72cad9"/>
                <path id="Path_910074" data-name="Path 910074" d="M220.492,126.4l.574-1.769h7.994c-.041.614-.078,1.168-.118,1.769Z" transform="translate(-163.982 -92.038)" fill="#566bac"/>
                <path id="Path_910075" data-name="Path 910075" d="M167.008,232.709c1.493.593,2.99,1.176,4.476,1.784.945.387,1.875.811,2.812,1.219h-7.288Z" transform="translate(-124.206 -172.414)" fill="#a41d21"/>
                <path id="Path_910076" data-name="Path 910076" d="M115.036,107.446c0,1.672,0,3.352,0,5.033-1.6.382-2.137-.02-2.14-1.61q0-.862,0-1.724c0-1.649.419-1.989,2.141-1.7" transform="translate(-83.96 -79.185)" fill="#f9e33a"/>
                <path id="Path_910077" data-name="Path 910077" d="M203.585,112.55v-5.1c1.74-.272,2.135.055,2.137,1.717q0,.815,0,1.63c0,1.675-.331,1.953-2.137,1.757" transform="translate(-151.408 -79.191)" fill="#f9e33a"/>
                <path id="Path_910078" data-name="Path 910078" d="M189.826,153.033l-2.622-.18c-.05-.1-.1-.156-.1-.209.027-2.831-.572-2.565,2.721-2.136Z" transform="translate(-139.132 -111.081)" fill="#70c7d6"/>
                <path id="Path_910079" data-name="Path 910079" d="M261.213,161.661v-4.315l2.162.353c.654,2-1.064,2.662-2.162,3.961" transform="translate(-194.267 -116.365)" fill="#596eb1"/>
                <path id="Path_910080" data-name="Path 910080" d="M157.809,130.173a1.191,1.191,0,0,1,1.183-1.332,1.12,1.12,0,0,1,1.157,1.146,1.138,1.138,0,0,1-1.179,1.213,1.112,1.112,0,0,1-1.161-1.028" transform="translate(-117.364 -95.164)" fill="#f3de38"/>
                <path id="Path_910081" data-name="Path 910081" d="M297.34,73.038a6.161,6.161,0,0,1-3.424,5.819,5.821,5.821,0,0,1-6.494-.56,6.068,6.068,0,0,1-2.408-6.176c.151-1.027.741-1.5,1.6-1.381.8.114,1.151.68,1.06,1.724-.205,2.356.726,3.84,2.692,4.293a3.461,3.461,0,0,0,4.257-3.343c.006-.477-.2-1.007-.051-1.42a2.22,2.22,0,0,1,.981-1.2,1.074,1.074,0,0,1,1.471.7,8.8,8.8,0,0,1,.315,1.543" transform="translate(-211.899 -51.921)" fill="#020301"/>
                <path id="Path_910082" data-name="Path 910082" d="M118.066,202.73c1.715,0,3.43,0,5.145.016,1.076.007,1.715.531,1.693,1.37-.021.806-.638,1.294-1.66,1.316l-1.523.032c-.885-.01-1.77-.039-2.655-.025-.735.012-1.427-.055-1.727-.852a1.509,1.509,0,0,1,.727-1.856" transform="translate(-87.188 -150.118)" fill="#030000"/>
              </g>
            </g>
          </g>
        </g>
      </g>
    </g>
  </g>
</svg>
