<svg xmlns="http://www.w3.org/2000/svg" width="457" height="393.449" viewBox="0 0 457 393.449">
  <g id="Group_1114810" data-name="Group 1114810" transform="translate(-915.34 -912.985)">
    <rect id="Rectangle_406493" data-name="Rectangle 406493" width="374.979" height="393.449" transform="translate(915.34 912.985)" fill="#fff"/>
    <g id="_2895125" data-name="2895125" transform="translate(947.319 1000.369)">
      <g id="Background_Complete" data-name="Background Complete" transform="translate(323.825 206.632)">
        <g id="Group_1112696" data-name="Group 1112696" transform="translate(0 56.124)">
          <path id="Path_903684" data-name="Path 903684" d="M362.07,284.21v30.558h93.97V284.21Z" transform="translate(-358.129 -275.663)" fill="#ebebeb"/>
          <path id="Path_903685" data-name="Path 903685" d="M358.28,275.99v8.547h101.2V275.99H358.28Z" transform="translate(-358.28 -275.99)" fill="#e0e0e0"/>
          <path id="Path_903686" data-name="Path 903686" d="M407.015,315.094h47.318V284.537h3.286V275.99H405.05v7.756Z" transform="translate(-356.422 -275.99)" fill="#e0e0e0"/>
          <rect id="Rectangle_404658" data-name="Rectangle 404658" width="19.058" height="4.596" transform="translate(17.083 13.475)" fill="#e0e0e0"/>
          <rect id="Rectangle_404659" data-name="Rectangle 404659" width="24.475" height="9.711" transform="translate(14.629 23.82)" fill="#f5f5f5"/>
        </g>
        <g id="Group_1112705" data-name="Group 1112705" transform="translate(22.198)">
          <g id="Group_1112699" data-name="Group 1112699">
            <g id="Group_1112697" data-name="Group 1112697" transform="translate(4.814 10.907)">
              <path id="Path_903687" data-name="Path 903687" d="M384.406,243.989,384.26,232.5l40.258,3.452,1.248,11.354Z" transform="translate(-384.26 -232.5)" fill="#ebebeb"/>
              <rect id="Rectangle_404660" data-name="Rectangle 404660" width="2.069" height="25.265" transform="translate(8.66 7.28) rotate(-85.11)" fill="#e0e0e0"/>
            </g>
            <g id="Group_1112698" data-name="Group 1112698">
              <path id="Path_903688" data-name="Path 903688" d="M379.78,233.489l-.01-11.479,40.206,3.868,1.029,10.272Z" transform="translate(-379.624 -222.01)" fill="#e0e0e0"/>
              <path id="Path_903689" data-name="Path 903689" d="M379.771,223.51l-.021,7.746,39.187,2.9-.655-7.164Z" transform="translate(-379.625 -221.95)" fill="#fff"/>
              <path id="Path_903690" data-name="Path 903690" d="M415.941,229.87s-.509.021-1.424-.042c-1.019-.083-2.308-.177-3.857-.3-3.254-.281-7.736-.707-12.685-1.206s-9.43-.988-12.674-1.362c-1.539-.187-2.828-.354-3.837-.478a6.878,6.878,0,0,1-1.4-.25,6.653,6.653,0,0,1,1.414.042c1.019.083,2.308.177,3.847.3,3.254.281,7.736.707,12.7,1.206s9.441.988,12.674,1.362c1.539.187,2.828.354,3.837.478a6.874,6.874,0,0,1,1.4.25Z" transform="translate(-379.613 -221.843)" fill="#f5f5f5"/>
              <path id="Path_903691" data-name="Path 903691" d="M415.875,230.758a12.656,12.656,0,0,1-1.435,0c-1.019-.052-2.329-.114-3.889-.187-3.286-.177-7.808-.468-12.82-.811s-9.534-.7-12.809-.967c-1.56-.146-2.859-.26-3.878-.354a6.447,6.447,0,0,1-1.414-.208,6.349,6.349,0,0,1,1.435,0c1.019.052,2.329.114,3.889.187,3.286.177,7.808.468,12.82.811s9.524.7,12.8.967c1.56.146,2.859.26,3.878.353a6.448,6.448,0,0,1,1.414.208Z" transform="translate(-379.63 -221.764)" fill="#f5f5f5"/>
            </g>
          </g>
          <g id="Group_1112702" data-name="Group 1112702" transform="translate(5.271 21.491)">
            <path id="Path_903692" data-name="Path 903692" d="M384.846,254.169,384.7,242.68l40.248,3.41,1.144,10.262Z" transform="translate(-384.7 -242.68)" fill="#e0e0e0"/>
            <path id="Path_903693" data-name="Path 903693" d="M389.132,254.393a29.78,29.78,0,0,1-.489-5.656,28.934,28.934,0,0,1,.052-5.677,29.78,29.78,0,0,1,.489,5.656A28.885,28.885,0,0,1,389.132,254.393Z" transform="translate(-384.547 -242.665)" fill="#f5f5f5"/>
            <path id="Path_903694" data-name="Path 903694" d="M390.567,243.18a30.62,30.62,0,0,1,.4,5.646,29.739,29.739,0,0,1-.146,5.656,30.613,30.613,0,0,1-.4-5.646A29.736,29.736,0,0,1,390.567,243.18Z" transform="translate(-384.474 -242.66)" fill="#f5f5f5"/>
            <g id="Group_1112700" data-name="Group 1112700" transform="translate(9.753 5.555)">
              <path id="Path_903695" data-name="Path 903695" d="M394.09,248.04c7.018.769,15.263,1.216,22.4,1.851" transform="translate(-394.079 -248.022)" fill="#fff"/>
              <path id="Path_903696" data-name="Path 903696" d="M416.486,249.9a21,21,0,0,1-3.3-.083c-2.027-.114-4.835-.291-7.933-.52s-5.9-.489-7.923-.728a18.362,18.362,0,0,1-3.254-.52,22.9,22.9,0,0,1,3.3.135c2.194.156,4.908.353,7.923.572,3.1.229,5.9.468,7.923.676A18.385,18.385,0,0,1,416.486,249.9Z" transform="translate(-394.08 -248.022)" fill="#f5f5f5"/>
            </g>
            <path id="Path_903697" data-name="Path 903697" d="M418.484,255.9a24.86,24.86,0,0,1-.52-5.126,24.428,24.428,0,0,1,.021-5.157,24.861,24.861,0,0,1,.52,5.126A24.434,24.434,0,0,1,418.484,255.9Z" transform="translate(-383.383 -242.563)" fill="#f5f5f5"/>
            <path id="Path_903698" data-name="Path 903698" d="M420.881,256.024a25.181,25.181,0,0,1-.78-5.126,25.262,25.262,0,0,1-.239-5.178,25.181,25.181,0,0,1,.78,5.126A25.265,25.265,0,0,1,420.881,256.024Z" transform="translate(-383.306 -242.559)" fill="#f5f5f5"/>
            <g id="Group_1112701" data-name="Group 1112701" transform="translate(15.731 8.05)">
              <path id="Path_903699" data-name="Path 903699" d="M399.83,250.52c4.44.3,7.819.53,11.354.6" transform="translate(-399.83 -250.418)" fill="#fff"/>
              <path id="Path_903700" data-name="Path 903700" d="M411.184,251.127a59.872,59.872,0,0,1-11.354-.6,59.873,59.873,0,0,1,11.354.6Z" transform="translate(-399.83 -250.422)" fill="#f5f5f5"/>
            </g>
          </g>
          <g id="Group_1112703" data-name="Group 1112703" transform="translate(7.361 43.949)">
            <path id="Path_903701" data-name="Path 903701" d="M387.469,275.748l-.759-11.468,40.383,1.279,1.684,10.179Z" transform="translate(-386.71 -264.28)" fill="#ebebeb"/>
            <path id="Path_903702" data-name="Path 903702" d="M389,274.241l39.3-.561-1.1-7.133-38.938-.717Z" transform="translate(-386.648 -264.218)" fill="#fff"/>
          </g>
          <g id="Group_1112704" data-name="Group 1112704" transform="translate(8.848 32.699)">
            <path id="Path_903703" data-name="Path 903703" d="M388.5,264.939l-.364-11.479,40.31,2.631,1.341,10.221Z" transform="translate(-388.14 -253.46)" fill="#f5f5f5"/>
            <rect id="Rectangle_404661" data-name="Rectangle 404661" width="2.069" height="25.265" transform="translate(8.758 7.076) rotate(-86.28)" fill="#e0e0e0"/>
          </g>
          <path id="Path_903704" data-name="Path 903704" d="M427.6,269.348s-.551.073-1.539.114c-1.092.031-2.506.062-4.2.1-3.545.062-8.453.114-13.87.135s-10.324,0-13.87-.021c-1.695-.031-3.109-.052-4.2-.073a7.841,7.841,0,0,1-1.539-.1,8.374,8.374,0,0,1,1.539-.114c1.092-.031,2.506-.062,4.2-.1,3.545-.062,8.453-.114,13.87-.135s10.324,0,13.87.021c1.695.031,3.109.052,4.2.073A7.961,7.961,0,0,1,427.6,269.348Z" transform="translate(-379.282 -220.138)" fill="#ebebeb"/>
          <path id="Path_903705" data-name="Path 903705" d="M428.059,271.505s-.551.062-1.56.083c-1.1,0-2.527.021-4.232.031-3.577,0-8.515-.042-13.964-.114s-10.387-.177-13.964-.27c-1.705-.062-3.13-.1-4.232-.146a8.9,8.9,0,0,1-1.549-.125,9.663,9.663,0,0,1,1.549-.083c1.1,0,2.527-.021,4.232-.031,3.577,0,8.515.042,13.974.114s10.4.177,13.964.27c1.705.062,3.13.1,4.232.146A8.891,8.891,0,0,1,428.059,271.505Z" transform="translate(-379.275 -220.07)" fill="#ebebeb"/>
        </g>
      </g>
      <g id="Floor" transform="translate(0 301.59)">
        <path id="Path_903706" data-name="Path 903706" d="M428.568,313.61c0,.146-92.67.27-206.964.27s-206.984-.125-206.984-.27,92.651-.27,206.984-.27S428.568,313.465,428.568,313.61Z" transform="translate(-14.62 -313.34)" fill="#263238"/>
      </g>
      <g id="Plant" transform="translate(6.229 172.695)">
        <g id="Group_1112708" data-name="Group 1112708">
          <g id="Group_1112707" data-name="Group 1112707">
            <path id="Path_903707" data-name="Path 903707" d="M48.222,189.443c-5.5.884-7.964,7.642-7.486,13.194s2.766,10.979,2.152,16.521c-.78,7.039-6.093,12.976-6.706,20.025-.728,8.318,5.147,15.689,6.9,23.851.853,3.972.738,8.172,2.215,11.946a15.423,15.423,0,0,0,16.542,9.264,15.433,15.433,0,0,0,12.31-14.421c.125-6.384-3.816-12.394-3.338-18.767.354-4.71,3.109-9.17,2.527-13.849-.707-5.573-5.864-9.524-7.684-14.837s-.073-11.167-.7-16.75c-1.133-10.013-6.675-16.989-16.729-16.189" transform="translate(-19.995 -189.37)" fill="#aa69e8"/>
            <path id="Path_903708" data-name="Path 903708" d="M20.745,236.07c-.936,9.274,3.171,20.191,7.933,28.208a44.193,44.193,0,0,0,20.774,18.029c.967.405,2.183.749,2.994.083a3.016,3.016,0,0,0,.759-2.381,45.947,45.947,0,0,0-8.91-27.376,45.937,45.937,0,0,0-23.55-16.563" transform="translate(-20.611 -187.515)" fill="#aa69e8"/>
            <g id="Group_1112706" data-name="Group 1112706" transform="translate(0 48.555)" opacity="0.1">
              <path id="Path_903709" data-name="Path 903709" d="M20.745,236.07c-.936,9.274,3.171,20.191,7.933,28.208a44.193,44.193,0,0,0,20.774,18.029c.967.405,2.183.749,2.994.083a3.016,3.016,0,0,0,.759-2.381,45.947,45.947,0,0,0-8.91-27.376,45.937,45.937,0,0,0-23.55-16.563" transform="translate(-20.611 -236.07)"/>
            </g>
            <path id="Path_903710" data-name="Path 903710" d="M60.7,301.069s-.1-.177-.26-.52c-.177-.405-.4-.9-.665-1.518-.561-1.32-1.393-3.233-2.454-5.573a198.116,198.116,0,0,0-9.212-17.831A197.591,197.591,0,0,0,37.09,258.845c-1.518-2.079-2.776-3.733-3.649-4.876-.405-.541-.738-.977-1-1.32a2.482,2.482,0,0,1-.322-.489,2.7,2.7,0,0,1,.405.416c.281.333.645.749,1.081,1.258.936,1.1,2.235,2.724,3.795,4.783a170.142,170.142,0,0,1,11.177,16.74,170.346,170.346,0,0,1,9.1,17.946c1.019,2.371,1.8,4.294,2.3,5.646.229.634.416,1.144.572,1.56a2.406,2.406,0,0,1,.166.551Z" transform="translate(-20.154 -186.876)" fill="#263238"/>
            <path id="Path_903711" data-name="Path 903711" d="M53.87,214.13s.052.3.1.894q.062.951.187,2.558c.146,2.267.354,5.469.6,9.4.5,7.943,1.206,18.9,2.059,31.015s1.695,23.071,2.308,30.994c.3,3.93.541,7.122.717,9.389.073,1.071.135,1.924.177,2.558a5.29,5.29,0,0,1,.021.894,5.543,5.543,0,0,1-.135-.884c-.062-.624-.156-1.476-.27-2.547-.218-2.267-.52-5.459-.884-9.378-.707-7.923-1.612-18.881-2.464-30.994S54.8,234.945,54.39,227c-.187-3.941-.333-7.143-.437-9.41-.042-1.071-.062-1.934-.083-2.558-.01-.582-.01-.894,0-.894Z" transform="translate(-19.29 -188.386)" fill="#263238"/>
          </g>
          <path id="Path_903712" data-name="Path 903712" d="M45.66,286.47H68.9v17.062a11.151,11.151,0,0,1-11.156,11.156h0a11.15,11.15,0,0,1-11.135-10.564L45.66,286.47Z" transform="translate(-19.616 -185.513)" fill="#455a64"/>
        </g>
      </g>
      <g id="Coffee" transform="translate(281.888 102.291)">
        <g id="Group_1112709" data-name="Group 1112709">
          <path id="Path_903713" data-name="Path 903713" d="M337.82,151.583a6.753,6.753,0,0,0-4.492-1.3c0-.863-.031-1.4-.031-1.4H308.77s-.769,16.189,11.624,16.76c5.552.26,8.723-2.235,10.543-5.365a12.034,12.034,0,0,0,2.786.343,6.471,6.471,0,0,0,3.868-1.092,4.864,4.864,0,0,0,1.84-4.149,4.744,4.744,0,0,0-1.6-3.805Zm-1.674,6.02c-1.05.79-2.922.665-4.148.447a21.685,21.685,0,0,0,1.2-5.323,4.678,4.678,0,0,1,3.067.707,2.429,2.429,0,0,1,.749,1.965,2.565,2.565,0,0,1-.873,2.215Z" transform="translate(-308.761 -121.036)" fill="#ca67e8"/>
          <path id="Path_903714" data-name="Path 903714" d="M325.973,148.478a.922.922,0,0,0,.2-.613,1.916,1.916,0,0,0-1.009-1.476,5.916,5.916,0,0,0-1.3-.447,3.962,3.962,0,0,1-1.57-.707,2.383,2.383,0,0,1-.811-1.83,4.21,4.21,0,0,1,.624-2.142c.842-1.362,2.36-2.225,3.421-3.577a5.96,5.96,0,0,0,.884-5.188,5.746,5.746,0,0,0-1.445-2.516,9.976,9.976,0,0,0-2.62-1.664,7.464,7.464,0,0,1-2.776-1.986,4.091,4.091,0,0,1-.728-1.653,2.81,2.81,0,0,1,.229-1.851,2.394,2.394,0,0,1,.676-.728l.281.468a5.226,5.226,0,0,0-2.36,5.386,4.565,4.565,0,0,0,1.341,2.579,11.186,11.186,0,0,1,2.131,2.183,2.878,2.878,0,0,1,.364,1.518,3.5,3.5,0,0,1-.426,1.435,5.922,5.922,0,0,1-1.892,2.027c-1.508.957-3.057,1.435-4.211,2.308a4.41,4.41,0,0,0-1.84,3.213,5.121,5.121,0,0,0,2.069,4.741s-.052-.021-.156-.073a3.758,3.758,0,0,1-.416-.27,4.5,4.5,0,0,1-1.216-1.466,5.4,5.4,0,0,1-.593-2.963,4.856,4.856,0,0,1,.509-1.851,4.982,4.982,0,0,1,1.4-1.643c1.2-.936,2.776-1.456,4.18-2.371a5.528,5.528,0,0,0,1.726-1.872,2.521,2.521,0,0,0,.052-2.485,10.636,10.636,0,0,0-2.048-2.059,5.051,5.051,0,0,1-1.508-2.859,5.74,5.74,0,0,1,2.62-5.947l.281.468a1.744,1.744,0,0,0-.5.53,2.925,2.925,0,0,0,.457,2.922,7.141,7.141,0,0,0,2.579,1.83,10.08,10.08,0,0,1,2.745,1.768,6.266,6.266,0,0,1,1.56,2.755,6.431,6.431,0,0,1-1.009,5.594c-1.164,1.424-2.672,2.256-3.452,3.493-.78,1.2-.842,2.8.052,3.535.884.717,2.038.717,2.786,1.2a1.977,1.977,0,0,1,1.009,1.664.907.907,0,0,1-.177.489l-.125.125Z" transform="translate(-308.6 -122.1)" fill="#263238"/>
        </g>
      </g>
      <g id="Tasks" transform="translate(47.245)">
        <g id="Group_1112713" data-name="Group 1112713">
          <g id="Group_1112710" data-name="Group 1112710">
            <rect id="Rectangle_404662" data-name="Rectangle 404662" width="126.358" height="35.423" rx="3.23" fill="#455a64"/>
            <path id="Path_903715" data-name="Path 903715" d="M86.194,47.208a7.7,7.7,0,1,1-1.185-10.824A7.7,7.7,0,0,1,86.194,47.208Z" transform="translate(-59.566 -23.586)" fill="#fff"/>
            <path id="Path_903716" data-name="Path 903716" d="M84.391,39.58a34.95,34.95,0,0,1-4.159,4.44c-.354.333-.686.665-1.019.977l-.187.187L78.849,45a23.383,23.383,0,0,1-3.109-3.483,23.383,23.383,0,0,1,3.483,3.109h-.374c.322-.322.665-.655,1.009-1a33.946,33.946,0,0,1,4.533-4.045Z" transform="translate(-59.437 -23.392)" fill="#e8505b"/>
            <path id="Path_903717" data-name="Path 903717" d="M172.471,38.56c0,.146-16.064.27-35.871.27s-35.881-.125-35.881-.27,16.064-.27,35.881-.27S172.471,38.415,172.471,38.56Z" transform="translate(-58.445 -23.443)" fill="#fff"/>
            <path id="Path_903718" data-name="Path 903718" d="M143.015,45.3c0,.146-9.285.27-20.743.27s-20.743-.125-20.743-.27,9.285-.27,20.743-.27S143.015,45.155,143.015,45.3Z" transform="translate(-58.413 -23.175)" fill="#fff"/>
          </g>
          <g id="Group_1112711" data-name="Group 1112711" transform="translate(0 40.518)">
            <rect id="Rectangle_404663" data-name="Rectangle 404663" width="126.358" height="35.423" rx="3.23" fill="#455a64"/>
            <path id="Path_903719" data-name="Path 903719" d="M86.194,86.178a7.7,7.7,0,1,1-1.185-10.824A7.7,7.7,0,0,1,86.194,86.178Z" transform="translate(-59.566 -62.556)" fill="#fff"/>
            <path id="Path_903720" data-name="Path 903720" d="M84.391,78.56A34.95,34.95,0,0,1,80.232,83c-.354.333-.686.665-1.019.977l-.187.187-.177-.187a23.383,23.383,0,0,1-3.109-3.483A23.383,23.383,0,0,1,79.223,83.6h-.374c.322-.322.665-.655,1.009-1A33.948,33.948,0,0,1,84.391,78.56Z" transform="translate(-59.437 -62.361)" fill="#e8505b"/>
            <path id="Path_903721" data-name="Path 903721" d="M172.471,77.53c0,.146-16.064.27-35.871.27s-35.881-.125-35.881-.27,16.064-.27,35.881-.27S172.471,77.385,172.471,77.53Z" transform="translate(-58.445 -62.413)" fill="#fff"/>
            <path id="Path_903722" data-name="Path 903722" d="M143.015,84.27c0,.146-9.285.27-20.743.27s-20.743-.125-20.743-.27,9.285-.27,20.743-.27S143.015,84.125,143.015,84.27Z" transform="translate(-58.413 -62.145)" fill="#fff"/>
          </g>
          <g id="Group_1112712" data-name="Group 1112712" transform="translate(0 81.047)">
            <rect id="Rectangle_404664" data-name="Rectangle 404664" width="126.358" height="35.423" rx="3.23" fill="#455a64"/>
            <path id="Path_903723" data-name="Path 903723" d="M86.194,125.158a7.7,7.7,0,1,1-1.185-10.824A7.7,7.7,0,0,1,86.194,125.158Z" transform="translate(-59.566 -101.536)" fill="#fff"/>
            <path id="Path_903724" data-name="Path 903724" d="M84.391,117.53a34.949,34.949,0,0,1-4.159,4.44c-.354.333-.686.665-1.019.977l-.187.187-.177-.187a23.383,23.383,0,0,1-3.109-3.483,23.383,23.383,0,0,1,3.483,3.109h-.374c.322-.322.665-.655,1.009-1A33.946,33.946,0,0,1,84.391,117.53Z" transform="translate(-59.437 -101.342)" fill="#e8505b"/>
            <path id="Path_903725" data-name="Path 903725" d="M172.471,116.51c0,.146-16.064.27-35.871.27s-35.881-.125-35.881-.27,16.064-.27,35.881-.27S172.471,116.365,172.471,116.51Z" transform="translate(-58.445 -101.393)" fill="#fff"/>
            <path id="Path_903726" data-name="Path 903726" d="M143.015,123.25c0,.146-9.285.27-20.743.27s-20.743-.125-20.743-.27,9.285-.27,20.743-.27S143.015,123.1,143.015,123.25Z" transform="translate(-58.413 -101.125)" fill="#fff"/>
          </g>
        </g>
      </g>
      <g id="Character" transform="translate(60.986 40.731)">
        <g id="Group_1112737" data-name="Group 1112737">
          <g id="Group_1112716" data-name="Group 1112716" transform="translate(118.388 80.74)">
            <g id="Group_1112714" data-name="Group 1112714" transform="translate(13.22 93.521)">
              <path id="Path_903727" data-name="Path 903727" d="M250.691,230.97l-2,85.913H244.91l.239-85.694Z" transform="translate(-205.224 -230.013)" fill="#263238"/>
              <path id="Path_903728" data-name="Path 903728" d="M263.63,230.05l18.424,86.869h4.221L270.939,230.05Z" transform="translate(-204.48 -230.05)" fill="#263238"/>
              <path id="Path_903729" data-name="Path 903729" d="M231.35,230.983,210.961,316.9H206.74l18.507-86.266Z" transform="translate(-206.74 -230.027)" fill="#263238"/>
            </g>
            <g id="Group_1112715" data-name="Group 1112715">
              <path id="Path_903730" data-name="Path 903730" d="M290.319,140.131s23.363-1.331,21.023,25.692-3.67,54.388-12.352,63.735-96.1,9.68-103.442,2.007,14.015-7.34,18.018-7.34,28.7,2.339,36.7-18.684,6.01-66.74,40.04-65.409Z" transform="translate(-194.025 -140.103)" fill="#263238"/>
              <path id="Path_903731" data-name="Path 903731" d="M291.812,140.14S309.664,143.8,308,162.484s-6.342,51.383-15.014,59.732-42.67,10.158-61.063,9.014c-21.356-1.331-34.841-5.4-34.841-5.4s-3.9,2.506-2.714,4.117,11.593,8.11,62.072,7.029,46.964-8.526,49.065-16.667,6.488-51.508,5.885-61.042-5.417-17.447-19.568-19.121Z" transform="translate(-194.02 -140.101)" fill="#455a64"/>
            </g>
          </g>
          <g id="Group_1112734" data-name="Group 1112734" transform="translate(82.735)">
            <g id="Group_1112721" data-name="Group 1112721" transform="translate(56.595)">
              <path id="Path_903732" data-name="Path 903732" d="M240.815,63.949a13.56,13.56,0,0,1,15.627,5.178c2.256,3.483,2.776,7.881,5.084,11.333,1.632,2.443,4.045,4.242,6.041,6.415s3.629,5.022,3.13,7.912c-.468,2.724-2.776,5.126-2.308,7.85.437,2.547,3.161,4.211,3.681,6.748.624,2.984-2.256,5.781-5.271,6.249s-6.01-.7-8.848-1.82-5.854-2.256-8.858-1.705c-3.493.634-6.155,3.369-9.212,5.167a19.033,19.033,0,0,1-20.742-1.237c-2.3-1.757-4.294-4.492-3.733-7.32.52-2.641,3.067-4.471,3.805-7.06,1.1-3.847-2.1-7.777-1.612-11.759.655-5.355,7.247-7.8,9.649-12.612,1.154-2.319,1.258-5.022,2.277-7.4s3.66-4.5,6.041-3.483" transform="translate(-214.121 -63.185)" fill="#263238"/>
              <g id="Group_1112720" data-name="Group 1112720" transform="translate(0 0.003)">
                <g id="Group_1112719" data-name="Group 1112719" transform="translate(16.71 1.156)">
                  <path id="Path_903733" data-name="Path 903733" d="M237.976,112.543c.354-1.9-.26-9.909-.26-9.909s-7.1-.894-7.4-8.141.416-23.924.416-23.924L243.8,64.3l11.406,13,.218,35.132L238,112.543Z" transform="translate(-230.239 -64.3)" fill="#ffbe9d"/>
                  <g id="Group_1112717" data-name="Group 1112717" transform="translate(0.816 16.342)">
                    <path id="Path_903734" data-name="Path 903734" d="M231.6,82.665a.9.9,0,1,0,.915-.915A.91.91,0,0,0,231.6,82.665Z" transform="translate(-231 -79.948)" fill="#263238"/>
                    <path id="Path_903735" data-name="Path 903735" d="M231.041,81.112c.114.125.79-.447,1.768-.489s1.695.457,1.8.322c.052-.062-.062-.281-.385-.509a2.3,2.3,0,0,0-1.445-.416,2.421,2.421,0,0,0-1.4.541c-.291.26-.4.489-.333.541Z" transform="translate(-231.023 -80.017)" fill="#263238"/>
                  </g>
                  <g id="Group_1112718" data-name="Group 1112718" transform="translate(11.587 16.529)">
                    <path id="Path_903736" data-name="Path 903736" d="M241.77,82.665a.9.9,0,1,0,.915-.915A.91.91,0,0,0,241.77,82.665Z" transform="translate(-241.368 -80.135)" fill="#263238"/>
                    <path id="Path_903737" data-name="Path 903737" d="M241.4,81.292c.114.125.79-.447,1.768-.489s1.695.457,1.8.322c.052-.062-.062-.281-.385-.509a2.3,2.3,0,0,0-1.445-.416,2.421,2.421,0,0,0-1.4.541c-.291.26-.4.489-.333.541Z" transform="translate(-241.383 -80.197)" fill="#263238"/>
                  </g>
                  <path id="Path_903738" data-name="Path 903738" d="M237.985,89.622a5.882,5.882,0,0,0-1.58-.239c-.25-.021-.489-.062-.53-.239a1.447,1.447,0,0,1,.156-.79c.218-.655.457-1.341.707-2.059a37.854,37.854,0,0,0,1.57-5.365,36.256,36.256,0,0,0-1.965,5.23c-.239.717-.457,1.4-.676,2.069a1.607,1.607,0,0,0-.114,1.05.617.617,0,0,0,.416.374,1.6,1.6,0,0,0,.426.042,5.583,5.583,0,0,0,1.6-.062Z" transform="translate(-230.03 -63.639)" fill="#263238"/>
                  <path id="Path_903739" data-name="Path 903739" d="M237.42,101.288a17.287,17.287,0,0,0,9.4-3.078s-2.2,5.282-9.274,4.856Z" transform="translate(-229.954 -62.953)" fill="#eb996e"/>
                  <path id="Path_903740" data-name="Path 903740" d="M238.221,91.808a1.917,1.917,0,0,1,1.123-1.393,1.518,1.518,0,0,1,1.258.021,1.081,1.081,0,0,1,.582,1.071,1.249,1.249,0,0,1-1.009.936,3.583,3.583,0,0,1-1.445-.094,1.071,1.071,0,0,1-.374-.135.355.355,0,0,1-.156-.343" transform="translate(-229.923 -63.268)" fill="#eb996e"/>
                  <path id="Path_903741" data-name="Path 903741" d="M240.657,89.26c.062,0,.187.27.146.738a2.564,2.564,0,0,1-.8,1.632,2.625,2.625,0,0,1-1.674.707c-.468,0-.738-.125-.728-.187,0-.146,1.133-.052,2.038-.9s.873-1.986,1.019-1.975Z" transform="translate(-229.946 -63.308)" fill="#263238"/>
                </g>
                <path id="Path_903742" data-name="Path 903742" d="M230.144,69.8a8.706,8.706,0,0,0,8.609,7.621c-.655-1.445-1.31-2.88-1.975-4.325,1.747,2.038,3.566,4.117,5.958,5.334s5.542,1.352,7.58-.4c.665,1.778.655,3.733,1.258,5.531s2.038,9.181,3.909,8.9c1.716-.26,2.942-7.715,3.379-9.4a15.329,15.329,0,0,0-3.4-13.444,18.427,18.427,0,0,0-15.18-6.394,12.747,12.747,0,0,0-7.049,2.485,9.716,9.716,0,0,0-3.462,5.542" transform="translate(-213.547 -63.188)" fill="#263238"/>
                <path id="Path_903743" data-name="Path 903743" d="M221.032,102.334a3.208,3.208,0,0,1-.489-.114,7.211,7.211,0,0,1-1.341-.561,9.619,9.619,0,0,1-3.785-3.712,8.956,8.956,0,0,1-.665-7.736,10.077,10.077,0,0,1,2.651-3.889,9.486,9.486,0,0,1,4.492-2.277,3.8,3.8,0,0,0,2.1-1,3.481,3.481,0,0,0,.8-2.079c.125-1.528-.478-3.015-.645-4.512a6.579,6.579,0,0,1,.853-4.18,6.716,6.716,0,0,1,2.693-2.558c1.009-.53,1.955-.873,2.766-1.227a10.824,10.824,0,0,0,1.986-1.04,7.071,7.071,0,0,0,1.362-1.331,1.639,1.639,0,0,1-.229.447,5,5,0,0,1-1.009,1.05,9.55,9.55,0,0,1-1.986,1.144c-.811.374-1.747.749-2.7,1.279a6.289,6.289,0,0,0-2.485,2.443,6.146,6.146,0,0,0-.749,3.9c.166,1.424.8,2.911.676,4.616a4,4,0,0,1-.925,2.4,4.287,4.287,0,0,1-2.371,1.154,9.345,9.345,0,0,0-6.81,5.812,8.633,8.633,0,0,0,.541,7.372,9.71,9.71,0,0,0,3.556,3.712c1.071.624,1.747.8,1.726.853Z" transform="translate(-214.167 -63.071)" fill="#263238"/>
                <path id="Path_903744" data-name="Path 903744" d="M266.532,111.713s.613-.416,1.695-1.185a9.948,9.948,0,0,0,3.556-4.149,5.8,5.8,0,0,0,.2-3.681,3.906,3.906,0,0,0-1.029-1.747,9.363,9.363,0,0,0-1.861-1.248,5.019,5.019,0,0,1-2.641-4.211c-.073-1.882,1.092-3.441,1.508-5.115a6.934,6.934,0,0,0-.79-4.928,12.607,12.607,0,0,0-3.088-3.691c-2.381-2-4.866-3.462-6.581-5.167a11.045,11.045,0,0,1-3.057-4.752,6.683,6.683,0,0,1-.25-1.528,1.826,1.826,0,0,1,.031-.541,11.486,11.486,0,0,0,.426,2.007,11.318,11.318,0,0,0,3.119,4.533c1.705,1.632,4.18,3.046,6.633,5.063a13.126,13.126,0,0,1,3.234,3.826,7.442,7.442,0,0,1,.842,5.3c-.478,1.82-1.591,3.327-1.508,4.97a4.514,4.514,0,0,0,2.36,3.8,9.7,9.7,0,0,1,1.934,1.331,4.361,4.361,0,0,1,1.133,1.955,6.234,6.234,0,0,1-.27,3.951,8.243,8.243,0,0,1-1.872,2.662,12.489,12.489,0,0,1-1.923,1.518c-.561.364-1.009.624-1.32.79a2.314,2.314,0,0,1-.489.229Z" transform="translate(-212.577 -62.926)" fill="#263238"/>
                <path id="Path_903745" data-name="Path 903745" d="M229.906,78.2a6.055,6.055,0,0,0,2.017-3.244,17.715,17.715,0,0,0,.468-3.857c.021-.374-.042-.863-.4-.957s-.645.27-.811.582a12.455,12.455,0,0,0-1.279,7.85c.073-.073.156-.146.229-.218" transform="translate(-213.548 -62.912)" fill="#263238"/>
              </g>
            </g>
            <g id="Group_1112725" data-name="Group 1112725" transform="translate(43.032 246.168)">
              <g id="Group_1112723" data-name="Group 1112723" transform="translate(0.059)">
                <path id="Path_903746" data-name="Path 903746" d="M212.9,309.025l-.187-9.347,17.509-.468.426,13.672-1.081.1c-4.824.4-24.558,1.684-27.813.79-3.629-1,11.156-4.741,11.156-4.741Z" transform="translate(-201.179 -299.21)" fill="#b370e8"/>
                <g id="Group_1112722" data-name="Group 1112722" transform="translate(23.104 8.517)" opacity="0.5">
                  <path id="Path_903747" data-name="Path 903747" d="M223.41,312.588a6.1,6.1,0,0,1,2.131-3.795,5.859,5.859,0,0,1,4.055-1.383l.135,4.9-6.332.281Z" transform="translate(-223.4 -307.402)" fill="#fff"/>
                </g>
              </g>
              <g id="Group_1112724" data-name="Group 1112724" transform="translate(0 11.894)" opacity="0.4">
                <path id="Path_903748" data-name="Path 903748" d="M205.684,310.66s-5.178,1.643-4.5,2.485,20.659.291,29.455-.728l-.042-.4-23.311.842s-.593-2.194-1.612-2.215Z" transform="translate(-201.121 -310.65)" fill="#fff"/>
              </g>
              <path id="Path_903749" data-name="Path 903749" d="M230.875,311.96s-.1.021-.3.042c-.26.021-.541.052-.863.073-.863.062-1.923.135-3.182.229-2.682.166-6.394.354-10.5.478s-7.819.135-10.512.125c-1.258-.021-2.319-.031-3.182-.042-.322,0-.6-.021-.863-.031a1.707,1.707,0,0,1-.3-.021s.1-.01.3-.021c.26,0,.541,0,.863-.01.863,0,1.934-.01,3.182-.021,2.693-.021,6.4-.062,10.512-.187s7.808-.281,10.5-.416L229.71,312c.322-.01.6-.021.863-.031h.3Z" transform="translate(-201.12 -298.703)" fill="#263238"/>
              <path id="Path_903750" data-name="Path 903750" d="M207.137,313.153a6.961,6.961,0,0,0-.634-1.508,6.887,6.887,0,0,0-1.123-1.185,2.82,2.82,0,0,1,1.757,2.693Z" transform="translate(-200.952 -298.763)" fill="#263238"/>
              <path id="Path_903751" data-name="Path 903751" d="M212.007,310.445a3.744,3.744,0,0,1-.572-.655c-.27-.4-.447-.738-.4-.78s.3.26.572.655S212.059,310.4,212.007,310.445Z" transform="translate(-200.728 -298.821)" fill="#263238"/>
              <path id="Path_903752" data-name="Path 903752" d="M213.353,309.667a2.636,2.636,0,0,1-.624-.4c-.312-.26-.53-.509-.489-.561s.322.135.624.4S213.394,309.615,213.353,309.667Z" transform="translate(-200.68 -298.833)" fill="#263238"/>
              <path id="Path_903753" data-name="Path 903753" d="M214.2,308.023a2.012,2.012,0,0,1-.915.146c-.509.021-.915-.01-.915-.073a2.011,2.011,0,0,1,.915-.146C213.794,307.929,214.2,307.961,214.2,308.023Z" transform="translate(-200.675 -298.863)" fill="#263238"/>
              <path id="Path_903754" data-name="Path 903754" d="M214.479,306.891a2.593,2.593,0,0,1-1.009.322,1.718,1.718,0,0,1-1.061-.114,5.3,5.3,0,0,1,1.029-.1,6.912,6.912,0,0,1,1.029-.114Z" transform="translate(-200.673 -298.906)" fill="#263238"/>
              <path id="Path_903755" data-name="Path 903755" d="M211.487,309a3.875,3.875,0,0,1-1.123.021,6.9,6.9,0,0,1-1.206-.229,3.6,3.6,0,0,1-.7-.26.643.643,0,0,1-.291-.343.444.444,0,0,1,.156-.458,2.075,2.075,0,0,1,2.568.53,2.012,2.012,0,0,1,.385.738.669.669,0,0,1,.042.3,3.551,3.551,0,0,0-.541-.946,1.994,1.994,0,0,0-.977-.6,1.771,1.771,0,0,0-1.341.125c-.177.135-.1.343.1.457a3.192,3.192,0,0,0,.645.25,7.932,7.932,0,0,0,1.164.27c.676.1,1.1.094,1.1.125Z" transform="translate(-200.842 -298.881)" fill="#263238"/>
              <path id="Path_903756" data-name="Path 903756" d="M211.086,309.085a1.3,1.3,0,0,1-.156-.78,1.882,1.882,0,0,1,.281-.832,1.13,1.13,0,0,1,.925-.6.46.46,0,0,1,.364.509,1.233,1.233,0,0,1-.177.509,3.556,3.556,0,0,1-.509.7c-.343.354-.613.489-.634.468s.218-.208.52-.572a4.9,4.9,0,0,0,.457-.686c.146-.239.239-.676-.042-.717-.281-.021-.561.27-.728.5a1.981,1.981,0,0,0-.3.738,4.957,4.957,0,0,0,0,.759Z" transform="translate(-200.732 -298.906)" fill="#263238"/>
              <path id="Path_903757" data-name="Path 903757" d="M229.5,307.364a6.936,6.936,0,0,0-1.289.083,5.6,5.6,0,0,0-2.786,1.237,5.658,5.658,0,0,0-1.695,2.537c-.25.759-.26,1.258-.3,1.258a1.03,1.03,0,0,1,0-.354,4.11,4.11,0,0,1,.166-.946,5.328,5.328,0,0,1,4.616-3.889,4.218,4.218,0,0,1,.967,0c.229.031.343.052.343.073Z" transform="translate(-200.236 -298.89)" fill="#263238"/>
              <path id="Path_903758" data-name="Path 903758" d="M227.331,300.4a30.546,30.546,0,0,1,.25,3.587,31.874,31.874,0,0,1,.042,3.6,30.55,30.55,0,0,1-.25-3.587A31.887,31.887,0,0,1,227.331,300.4Z" transform="translate(-200.082 -299.163)" fill="#263238"/>
              <path id="Path_903759" data-name="Path 903759" d="M221.435,310.8a14.419,14.419,0,0,1-5.115.187c0-.062,1.154-.021,2.558-.073s2.547-.177,2.558-.114Z" transform="translate(-200.518 -298.75)" fill="#263238"/>
              <path id="Path_903760" data-name="Path 903760" d="M224.558,310.71s-.083.25-.2.509-.166.5-.229.5-.094-.27.031-.582S224.517,310.669,224.558,310.71Z" transform="translate(-200.209 -298.753)" fill="#263238"/>
              <path id="Path_903761" data-name="Path 903761" d="M225.765,309.13a1.1,1.1,0,0,1-.239.416c-.177.187-.354.312-.4.27s.062-.229.239-.416S225.723,309.089,225.765,309.13Z" transform="translate(-200.168 -298.816)" fill="#263238"/>
              <path id="Path_903762" data-name="Path 903762" d="M227.538,308.373c-.01.062-.239.062-.5.166s-.437.239-.478.2.094-.281.405-.4.593-.021.572.042Z" transform="translate(-200.111 -298.849)" fill="#263238"/>
              <path id="Path_903763" data-name="Path 903763" d="M228.78,308c.021.052-.073.146-.218.208s-.281.062-.3.01.073-.146.218-.208S228.759,307.949,228.78,308Z" transform="translate(-200.044 -298.862)" fill="#263238"/>
            </g>
            <g id="Group_1112729" data-name="Group 1112729" transform="translate(0 197.401)">
              <g id="Group_1112727" data-name="Group 1112727" transform="translate(0.075)">
                <path id="Path_903764" data-name="Path 903764" d="M172.256,260.862l4.055-8.422,15.825,7.507-5.812,12.383-1.009-.406c-4.481-1.83-22.666-9.607-25.161-11.874-2.786-2.527,12.092.811,12.092.811Z" transform="translate(-159.806 -252.44)" fill="#b370e8"/>
                <g id="Group_1112726" data-name="Group 1112726" transform="translate(20.851 14.488)" opacity="0.5">
                  <path id="Path_903765" data-name="Path 903765" d="M179.86,268.938a6.032,6.032,0,0,1,3.618-2.412,5.9,5.9,0,0,1,4.242.6l-2.09,4.429-5.77-2.61Z" transform="translate(-179.86 -266.374)" fill="#fff"/>
                </g>
              </g>
              <g id="Group_1112728" data-name="Group 1112728" transform="translate(0 6.688)" opacity="0.4">
                <path id="Path_903766" data-name="Path 903766" d="M164.876,259.213s-5.355-.873-5.136.177,18.3,9.607,26.6,12.685l.146-.364-21.169-9.794S165.781,259.691,164.876,259.213Z" transform="translate(-159.734 -258.872)" fill="#fff"/>
              </g>
              <path id="Path_903767" data-name="Path 903767" d="M186.727,271.8s-.1-.031-.291-.1c-.239-.094-.509-.208-.8-.322-.8-.333-1.778-.749-2.932-1.237-2.475-1.06-5.864-2.579-9.576-4.325s-7.039-3.421-9.43-4.648c-1.113-.582-2.059-1.081-2.818-1.476-.281-.156-.53-.291-.759-.416a2.169,2.169,0,0,1-.26-.156,1.756,1.756,0,0,1,.281.125c.229.114.489.239.78.385.78.385,1.726.863,2.849,1.424,2.412,1.2,5.739,2.838,9.451,4.6s7.091,3.286,9.545,4.388c1.144.509,2.121.946,2.911,1.3.291.135.551.25.79.364.177.083.27.135.27.135Z" transform="translate(-159.729 -252.175)" fill="#263238"/>
              <path id="Path_903768" data-name="Path 903768" d="M165,262.152a7.268,7.268,0,0,0,.114-1.632,8.189,8.189,0,0,0-.457-1.57,2.84,2.84,0,0,1,.343,3.192Z" transform="translate(-159.538 -252.182)" fill="#263238"/>
              <path id="Path_903769" data-name="Path 903769" d="M170.57,261.946a1.77,1.77,0,0,1-.208-.842c-.062-.478-.062-.863,0-.873a1.77,1.77,0,0,1,.208.842C170.632,261.55,170.632,261.935,170.57,261.946Z" transform="translate(-159.313 -252.131)" fill="#263238"/>
              <path id="Path_903770" data-name="Path 903770" d="M172.122,261.862c-.052.021-.229-.26-.385-.634s-.239-.7-.187-.717.229.26.385.634S172.174,261.841,172.122,261.862Z" transform="translate(-159.265 -252.119)" fill="#263238"/>
              <path id="Path_903771" data-name="Path 903771" d="M173.624,260.769a2.09,2.09,0,0,1-.873-.281,2.126,2.126,0,0,1-.79-.478,2.09,2.09,0,0,1,.873.281A2.125,2.125,0,0,1,173.624,260.769Z" transform="translate(-159.248 -252.14)" fill="#263238"/>
              <path id="Path_903772" data-name="Path 903772" d="M174.384,259.889a1.779,1.779,0,0,1-1.05-.166c-.561-.208-.925-.53-.894-.582a5.734,5.734,0,0,1,.967.374,6.322,6.322,0,0,1,.977.364Z" transform="translate(-159.229 -252.174)" fill="#263238"/>
              <path id="Path_903773" data-name="Path 903773" d="M170.779,260.408a4.145,4.145,0,0,1-1.019-.489,6.794,6.794,0,0,1-.967-.749,3.26,3.26,0,0,1-.5-.551.6.6,0,0,1-.1-.437.448.448,0,0,1,.343-.333,2.072,2.072,0,0,1,2.048,1.643,2.029,2.029,0,0,1,.01.832.675.675,0,0,1-.1.291,3.075,3.075,0,0,0-.052-1.092,1.956,1.956,0,0,0-.6-.977,1.708,1.708,0,0,0-1.248-.489c-.218.042-.25.26-.114.457a3.565,3.565,0,0,0,.457.52,8.776,8.776,0,0,0,.915.769c.561.4.946.582.936.613Z" transform="translate(-159.398 -252.225)" fill="#263238"/>
              <path id="Path_903774" data-name="Path 903774" d="M170.4,260.3a1.206,1.206,0,0,1,.218-.759,2,2,0,0,1,.634-.613,1.108,1.108,0,0,1,1.092-.114.451.451,0,0,1,.094.613,1.449,1.449,0,0,1-.385.374,2.946,2.946,0,0,1-.769.385,1.764,1.764,0,0,1-.78.135c0-.031.291-.083.717-.281a3.962,3.962,0,0,0,.717-.405c.239-.146.52-.489.291-.655-.239-.146-.624-.01-.873.114a1.906,1.906,0,0,0-.6.53,5.178,5.178,0,0,0-.343.676Z" transform="translate(-159.31 -252.191)" fill="#263238"/>
              <path id="Path_903775" data-name="Path 903775" d="M187.655,267.049a6.63,6.63,0,0,0-1.185-.509,5.576,5.576,0,0,0-3.046-.156,5.643,5.643,0,0,0-2.662,1.5c-.561.561-.8,1.009-.832.988a1.4,1.4,0,0,1,.146-.322,4.768,4.768,0,0,1,.572-.769,5.34,5.34,0,0,1,5.874-1.383,4.336,4.336,0,0,1,.863.437,1.359,1.359,0,0,1,.281.218Z" transform="translate(-158.931 -251.9)" fill="#263238"/>
              <path id="Path_903776" data-name="Path 903776" d="M188.9,259.93a30.655,30.655,0,0,1-1.4,3.317,33.24,33.24,0,0,1-1.591,3.234,61.9,61.9,0,0,1,2.994-6.54Z" transform="translate(-158.694 -252.142)" fill="#263238"/>
              <path id="Path_903777" data-name="Path 903777" d="M178.828,266.522a14.335,14.335,0,0,1-4.648-2.142c.031-.052,1.04.5,2.319,1.092s2.35,1,2.329,1.061Z" transform="translate(-159.16 -251.966)" fill="#263238"/>
              <path id="Path_903778" data-name="Path 903778" d="M181.662,267.851c.021.052-.187.177-.405.364s-.374.374-.426.343.042-.291.291-.5.53-.26.541-.208Z" transform="translate(-158.896 -251.829)" fill="#263238"/>
              <path id="Path_903779" data-name="Path 903779" d="M183.454,266.981c.021.052-.156.177-.405.26s-.457.114-.478.062.156-.166.406-.26S183.433,266.929,183.454,266.981Z" transform="translate(-158.827 -251.863)" fill="#263238"/>
              <path id="Path_903780" data-name="Path 903780" d="M185.37,267.122s-.25-.052-.52-.083-.5.021-.52-.042.208-.208.551-.177.53.25.489.291Z" transform="translate(-158.757 -251.869)" fill="#263238"/>
              <path id="Path_903781" data-name="Path 903781" d="M186.641,267.355c0,.062-.135.094-.291.083s-.281-.073-.27-.125.135-.094.291-.083S186.652,267.3,186.641,267.355Z" transform="translate(-158.687 -251.853)" fill="#263238"/>
            </g>
            <g id="Group_1112731" data-name="Group 1112731" transform="translate(41.043 12.451)">
              <path id="Path_903782" data-name="Path 903782" d="M286,144.2l-3.722-18.673C279.529,110.245,258.1,109.2,258.1,109.2l-16.812-.27s-12.466-1.674-20.16,7c-7.964,8.973-17.748,19.588-17.748,19.588l7.476,18.788,17.686-14.6a18.11,18.11,0,0,0-2.371,8.495c0,4.98,5.2,7.278,5.2,7.278l1.591,15.149-5.282,24.465,54.908-2.2a54.445,54.445,0,0,0-8.1-23.072l1.019-25.6h10.48Z" transform="translate(-199.043 -73.824)" fill="#b370e8"/>
              <path id="Path_903783" data-name="Path 903783" d="M260.17,122.72a11.74,11.74,0,0,1,.291,1.2c.177.884.385,1.975.645,3.275.561,2.89,1.289,6.654,2.09,10.813.8,4.232,1.5,8.068,1.934,10.855.218,1.393.385,2.527.478,3.306a6.371,6.371,0,0,1,.083,1.227,5.331,5.331,0,0,1-.291-1.2c-.177-.884-.385-1.975-.645-3.275-.561-2.89-1.289-6.654-2.09-10.813-.8-4.232-1.5-8.058-1.934-10.844-.218-1.393-.385-2.527-.478-3.306a6.371,6.371,0,0,1-.083-1.227Z" transform="translate(-196.788 -73.271)" fill="#263238"/>
              <path id="Path_903784" data-name="Path 903784" d="M283.875,141.919a94.528,94.528,0,0,1-10.148.3,92.3,92.3,0,0,1-10.148-.239,91.386,91.386,0,0,1,10.148-.3A92.288,92.288,0,0,1,283.875,141.919Z" transform="translate(-196.652 -72.518)" fill="#263238"/>
              <path id="Path_903785" data-name="Path 903785" d="M288.533,158.825c-1.081-8.973-2.527-16.615-2.527-16.615H266.563s2.412,11.375,1.871,14.015c-.468,2.3-38.148,3.826-47.963,3.972-.582-.437-1.435.3-2.194-.364a8.037,8.037,0,0,1-1.674-2.059,12.248,12.248,0,0,1-1.341-3.046,1,1,0,0,0-1.861-.426c-.4.842.052,3.639,1.913,6.342s-3.026,1.3-4.814.821-7.4-1.695-7.975-1.248c-.853.655-.312,1.716,1.487,2.152,1.82.437,7.1,2.131,6.821,3.088s-9.368-1.622-9.368-1.622-1.861-.873-2.225.229c-.665,1.975,9.181,3.972,10.127,4.138.655.114.374,1.164-.322,1.009-.717-.166-9-2.776-9.7-.769-.541,1.539,8.089,1.726,9.513,3.244s-6.529-.821-6.987.665c-.166.551,3.14.811,7.9,1.476a120.92,120.92,0,0,0,14.712.52c11.031.6,50.042,1.414,58.37.821,9.711-.686,6.062-13.277,5.687-16.365Z" transform="translate(-199.209 -72.496)" fill="#ffbe9d"/>
              <path id="Path_903786" data-name="Path 903786" d="M225.7,144.014a13.783,13.783,0,0,1,.655-2.527c.229-.769.509-1.684.863-2.693.177-.509.374-1.029.593-1.57.125-.291.281-.541.354-.78a2.527,2.527,0,0,0,.1-.8,12.364,12.364,0,0,0-.26-1.726c-.1-.561-.208-1.113-.3-1.643-.177-1-.333-1.923-.489-2.786a12.652,12.652,0,0,1-.312-2.589,12.373,12.373,0,0,1,.686,2.516c.187.853.385,1.768.6,2.766.1.53.218,1.071.333,1.632a11.58,11.58,0,0,1,.281,1.809,3.183,3.183,0,0,1-.125.988c-.114.322-.27.582-.374.821-.229.53-.426,1.04-.613,1.539-.343.946-.676,1.83-.967,2.641a11.852,11.852,0,0,1-1.019,2.4Z" transform="translate(-198.157 -73.105)" fill="#263238"/>
              <path id="Path_903787" data-name="Path 903787" d="M247.521,75.16c1.508,1.934,3.1,4.148,2.8,6.571-.26,2.121-1.955,4.013-1.674,6.134.333,2.443,3.161,4.034,3.306,6.5.114,2.038-1.643,3.618-2.88,5.24a11.244,11.244,0,0,0-2.267,8.3,9.738,9.738,0,0,0,4.752,7.07,8.559,8.559,0,0,0,8.422-.083,12.021,12.021,0,0,0,4.658-6.519c1.154-3.348,1.476-7.3-.52-10.231-.811-1.185-1.986-2.2-2.246-3.618-.333-1.788.936-3.483,1.144-5.292.27-2.423-1.4-4.637-3.265-6.218s-4.034-2.87-5.407-4.876" transform="translate(-197.322 -75.16)" fill="#263238"/>
              <g id="Group_1112730" data-name="Group 1112730" transform="translate(64.017 54.502)" opacity="0.3">
                <path id="Path_903788" data-name="Path 903788" d="M260.78,127.59c.686,10.418,1.092,20.015,1.289,30.443a7.81,7.81,0,0,0,3.92-1.237c.541-4.45-2.828-17.987-5.209-29.216Z" transform="translate(-260.78 -127.58)"/>
              </g>
              <path id="Path_903789" data-name="Path 903789" d="M236.413,123.162a4.2,4.2,0,0,1,.239-2.36,4.322,4.322,0,0,1,1.04-2.131,7.379,7.379,0,0,1-.52,2.277A7.116,7.116,0,0,1,236.413,123.162Z" transform="translate(-197.734 -73.432)" fill="#fafafa"/>
              <path id="Path_903790" data-name="Path 903790" d="M225.869,123.053c-.083.125-.821-.239-1.549-.925s-1.133-1.4-1.009-1.5.686.447,1.383,1.1,1.258,1.2,1.175,1.32Z" transform="translate(-198.252 -73.354)" fill="#fafafa"/>
              <path id="Path_903791" data-name="Path 903791" d="M215.679,131.262a.675.675,0,0,1-.146-.281l.239-.021a6.837,6.837,0,0,1,0,2.568,4.749,4.749,0,0,1-1.081,2.651,21.353,21.353,0,0,1,.551-2.745c.187-1.071.229-2.017.291-2.464l.239-.021c-.021.2-.042.3-.094.3Z" transform="translate(-198.595 -72.944)" fill="#fafafa"/>
              <path id="Path_903792" data-name="Path 903792" d="M215.357,141.7a5.346,5.346,0,0,1-2.277-.593c-1.206-.468-2.142-.957-2.079-1.1a5.345,5.345,0,0,1,2.277.593C214.483,141.062,215.419,141.551,215.357,141.7Z" transform="translate(-198.741 -72.586)" fill="#fafafa"/>
              <path id="Path_903793" data-name="Path 903793" d="M223.753,136.025c-.146-.021-.114-.936.218-2.007s.832-1.84.957-1.778-.125.9-.447,1.934-.582,1.872-.738,1.851Z" transform="translate(-198.237 -72.893)" fill="#fafafa"/>
              <path id="Path_903794" data-name="Path 903794" d="M232.915,113.128c0,.146-.78.312-1.757.354s-1.768-.042-1.778-.187.78-.312,1.757-.354S232.9,112.982,232.915,113.128Z" transform="translate(-198.01 -73.66)" fill="#fafafa"/>
              <path id="Path_903795" data-name="Path 903795" d="M234.7,132.8c-.094.114-.936-.52-1.5-1.664s-.551-2.194-.405-2.2.374.925.894,1.965,1.123,1.788,1.019,1.9Z" transform="translate(-197.878 -73.024)" fill="#fafafa"/>
              <path id="Path_903796" data-name="Path 903796" d="M252.526,128.46c.1.1-.561.936-1.549,1.778s-1.9,1.372-2,1.258.676-.832,1.643-1.664,1.788-1.476,1.892-1.372Z" transform="translate(-197.232 -73.043)" fill="#fafafa"/>
              <path id="Path_903797" data-name="Path 903797" d="M243.711,125.7c.094.125-.489.7-1.289,1.289s-1.528.977-1.612.863.489-.7,1.289-1.289S243.628,125.586,243.711,125.7Z" transform="translate(-197.557 -73.153)" fill="#fafafa"/>
              <path id="Path_903798" data-name="Path 903798" d="M248.054,118.643a4.239,4.239,0,0,1-2.215-1.227c-1.071-.915-1.664-1.913-1.549-2s.873.717,1.9,1.591,1.934,1.508,1.861,1.643Z" transform="translate(-197.419 -73.561)" fill="#fafafa"/>
              <path id="Path_903799" data-name="Path 903799" d="M258.134,115.721c.094.114-.5.717-1.32,1.341s-1.56,1.029-1.653.9.5-.717,1.32-1.341,1.56-1.029,1.643-.9Z" transform="translate(-196.987 -73.55)" fill="#fafafa"/>
              <path id="Path_903800" data-name="Path 903800" d="M266.462,119.888a6.737,6.737,0,0,1,.333-2.215c.239-1.2.4-2.183.551-2.173a3.755,3.755,0,0,1-.021,2.277c-.25,1.248-.728,2.163-.863,2.111Z" transform="translate(-196.539 -73.557)" fill="#fafafa"/>
              <path id="Path_903801" data-name="Path 903801" d="M268.1,129.485c-.1.114-1.05-.593-2.111-1.56s-1.84-1.851-1.747-1.965,1.04.593,2.111,1.56S268.191,129.371,268.1,129.485Z" transform="translate(-196.626 -73.142)" fill="#fafafa"/>
              <path id="Path_903802" data-name="Path 903802" d="M274.781,125.453c-.135-.062.135-1,.6-2.111s.967-1.955,1.1-1.892-.135,1-.6,2.111S274.916,125.515,274.781,125.453Z" transform="translate(-196.208 -73.321)" fill="#fafafa"/>
              <path id="Path_903803" data-name="Path 903803" d="M275.141,137.045a6.341,6.341,0,0,1,1.019-2.412,6.55,6.55,0,0,1,1.487-2.152,12.8,12.8,0,0,1-2.506,4.564Z" transform="translate(-196.193 -72.883)" fill="#fafafa"/>
              <path id="Path_903804" data-name="Path 903804" d="M268.506,138.781c-.114.094-.832-.655-1.6-1.674s-1.279-1.9-1.164-2,.832.655,1.6,1.674S268.621,138.687,268.506,138.781Z" transform="translate(-196.567 -72.779)" fill="#fafafa"/>
              <path id="Path_903805" data-name="Path 903805" d="M255.681,143.8a7.483,7.483,0,0,1,1.424-2.984,7.654,7.654,0,0,1,2.2-2.475,15.5,15.5,0,0,1-1.747,2.766,14.722,14.722,0,0,1-1.882,2.682Z" transform="translate(-196.966 -72.65)" fill="#fafafa"/>
              <path id="Path_903806" data-name="Path 903806" d="M246.634,142.863a7.5,7.5,0,0,1-1.466-2.4,7.391,7.391,0,0,1-.977-2.641,7.5,7.5,0,0,1,1.466,2.4A7.39,7.39,0,0,1,246.634,142.863Z" transform="translate(-197.423 -72.671)" fill="#fafafa"/>
              <path id="Path_903807" data-name="Path 903807" d="M235.21,139.99a9.416,9.416,0,0,1-2.173,2.267,9.583,9.583,0,0,1-2.537,1.861,9.417,9.417,0,0,1,2.173-2.267A9.583,9.583,0,0,1,235.21,139.99Z" transform="translate(-197.966 -72.585)" fill="#fafafa"/>
              <path id="Path_903808" data-name="Path 903808" d="M239.556,152.648c-.125.094-.988-.873-2.1-2s-2.079-2-1.986-2.121a6.011,6.011,0,0,1,2.371,1.736,5.893,5.893,0,0,1,1.716,2.381Z" transform="translate(-197.769 -72.246)" fill="#fafafa"/>
              <path id="Path_903809" data-name="Path 903809" d="M247.461,153.053a5.2,5.2,0,0,1,.925-2.651,5.129,5.129,0,0,1,1.83-2.131,13.739,13.739,0,0,1-1.362,2.4,12.559,12.559,0,0,1-1.4,2.371Z" transform="translate(-197.293 -72.256)" fill="#fafafa"/>
              <path id="Path_903810" data-name="Path 903810" d="M258.944,154.3a9.491,9.491,0,0,1-2.579-1.8c-1.32-1.1-2.319-2.09-2.225-2.215a18.084,18.084,0,0,1,4.8,4.013Z" transform="translate(-197.027 -72.176)" fill="#fafafa"/>
              <path id="Path_903811" data-name="Path 903811" d="M257.918,124.52c-.062.135-1.1-.26-2.194-1.071s-1.778-1.684-1.674-1.788.936.572,2,1.352,1.944,1.372,1.882,1.508Z" transform="translate(-197.031 -73.313)" fill="#fafafa"/>
              <path id="Path_903812" data-name="Path 903812" d="M241.563,175.661c.062.146-.79.6-1.726,1.289s-1.632,1.352-1.747,1.258.426-.957,1.424-1.695,2-.988,2.038-.853Z" transform="translate(-197.665 -71.169)" fill="#fafafa"/>
              <path id="Path_903813" data-name="Path 903813" d="M253.587,180.778c-.146.052-.634-.946-1.113-2.235a5.935,5.935,0,0,1-.6-2.423,11.485,11.485,0,0,1,1.716,4.658Z" transform="translate(-197.118 -71.149)" fill="#fafafa"/>
              <path id="Path_903814" data-name="Path 903814" d="M265.856,176.28c.1.1-.541.957-1.445,1.9s-1.726,1.632-1.84,1.528.541-.957,1.445-1.9S265.742,176.176,265.856,176.28Z" transform="translate(-196.692 -71.143)" fill="#fafafa"/>
              <path id="Path_903815" data-name="Path 903815" d="M274.923,182.914c-.1.114-.946-.551-2.194-.79-1.237-.27-2.277.01-2.329-.135a2.727,2.727,0,0,1,2.433-.4c1.414.281,2.2,1.237,2.09,1.32Z" transform="translate(-196.381 -70.935)" fill="#fafafa"/>
            </g>
            <g id="Group_1112733" data-name="Group 1112733" transform="translate(6.983 117.601)">
              <g id="Group_1112732" data-name="Group 1112732">
                <path id="Path_903816" data-name="Path 903816" d="M284.22,187.777s-71.8-15.045-78.759-11.749-39.01,82.533-39.01,82.533l25.806,11.1,27.781-67.333s50.271,18.362,59.056,16.542,5.126-31.1,5.126-31.1Z" transform="translate(-166.45 -175.556)" fill="#455a64"/>
                <path id="Path_903817" data-name="Path 903817" d="M250.618,191.37c-1.1.364-42.629,17.436-45.561,22.926s4.263,96.622,4.263,96.622h23.623l-1.466-80.995,46.1-11.687-26.97-26.877Z" transform="translate(-164.944 -174.928)" fill="#455a64"/>
                <path id="Path_903818" data-name="Path 903818" d="M277.475,218.146a6.243,6.243,0,0,1-.676-.083c-.5-.083-1.133-.2-1.934-.343-1.674-.312-4.1-.78-7.081-1.414-5.958-1.258-14.171-3.161-23.113-5.729-4.471-1.289-8.692-2.641-12.508-3.951-3.795-1.352-7.205-2.62-10.013-3.816-1.414-.572-2.672-1.144-3.774-1.643s-2.048-.936-2.807-1.32c-.717-.364-1.3-.655-1.757-.884a2.9,2.9,0,0,1-.593-.343,2.926,2.926,0,0,1,.645.239c.457.208,1.061.468,1.8.79.769.354,1.726.769,2.849,1.237s2.381,1.019,3.795,1.56c2.818,1.154,6.228,2.381,10.023,3.7,3.816,1.279,8.037,2.61,12.5,3.909,8.931,2.558,17.114,4.523,23.051,5.874,2.922.655,5.313,1.2,7.039,1.591.79.177,1.424.333,1.913.447a3.532,3.532,0,0,1,.655.187Z" transform="translate(-164.592 -174.64)" fill="#263238"/>
                <path id="Path_903819" data-name="Path 903819" d="M205.093,234.64a13.067,13.067,0,0,1-.218-1.362c-.1-.988-.239-2.246-.4-3.733-.146-1.612-.322-3.493-.52-5.552a24.9,24.9,0,0,1,0-6.873,10.661,10.661,0,0,1,3.452-5.937,18.206,18.206,0,0,1,4.72-3.036c1.456-.665,2.672-1.092,3.5-1.383a6.092,6.092,0,0,1,1.331-.385c.042.094-1.83.749-4.668,2.111a18.972,18.972,0,0,0-4.554,3.057,10.423,10.423,0,0,0-3.254,5.677,26.031,26.031,0,0,0-.021,6.727c.146,2.059.281,3.941.4,5.563.094,1.5.166,2.755.218,3.753a5.929,5.929,0,0,1,0,1.383Z" transform="translate(-164.97 -174.332)" fill="#263238"/>
                <path id="Path_903820" data-name="Path 903820" d="M224.97,226.031a8.853,8.853,0,0,1,2.9.977,8.652,8.652,0,0,1,2.682,1.476,17.53,17.53,0,0,1-5.583-2.464Z" transform="translate(-164.125 -173.552)" fill="#263238"/>
                <path id="Path_903821" data-name="Path 903821" d="M226.981,223.63c.146-.062.8,1.248,1.882,2.662a30.423,30.423,0,0,1,2.048,2.537,6.1,6.1,0,0,1-2.485-2.215,6.013,6.013,0,0,1-1.445-2.994Z" transform="translate(-164.046 -173.647)" fill="#263238"/>
              </g>
              <path id="Path_903822" data-name="Path 903822" d="M235.907,227.23a.849.849,0,0,1-.364.374,2.746,2.746,0,0,1-1.372.322,16,16,0,0,0-1.965.052,1.377,1.377,0,0,0-1.175,1.508,38.729,38.729,0,0,1-.291,6.3,36.461,36.461,0,0,1-.25-6.332,2.169,2.169,0,0,1,.447-1.341,1.854,1.854,0,0,1,1.185-.624,11.375,11.375,0,0,1,2.048.062,3.424,3.424,0,0,0,1.726-.312Z" transform="translate(-163.906 -173.503)" fill="#263238"/>
            </g>
            <path id="Path_903823" data-name="Path 903823" d="M230.25,175.645l48.95,3.93-2.09-5.469-46.382-.676Z" transform="translate(-156.932 -58.46)" opacity="0.3"/>
          </g>
          <g id="Group_1112736" data-name="Group 1112736" transform="translate(0 60.569)">
            <path id="Path_903824" data-name="Path 903824" d="M368.673,165.23H80.16v7.743H95.59L87.636,320.031l4.4.23L100,172.973H352.942l6.789,147.173h4.4L357.34,172.973h11.333Z" transform="translate(-80.16 -119.7)" fill="#263238"/>
            <g id="Group_1112735" data-name="Group 1112735" transform="translate(84.155)">
              <path id="Path_903825" data-name="Path 903825" d="M161.1,121.471l15.991,46.746h72.448l-.53-2.4-29.3-.915-13.5-43.461Z" transform="translate(-161.1 -121.44)" fill="#263238"/>
              <path id="Path_903826" data-name="Path 903826" d="M192.181,142.7c.478,1.913-.343,3.795-1.83,4.19s-3.088-.832-3.566-2.745.343-3.795,1.83-4.19S191.7,140.785,192.181,142.7Z" transform="translate(-160.085 -120.707)" fill="#fff"/>
            </g>
          </g>
        </g>
      </g>
    </g>
  </g>
</svg>
