<svg xmlns="http://www.w3.org/2000/svg" width="457" height="417" viewBox="0 0 457 417">
  <g id="Group_1114807" data-name="Group 1114807" transform="translate(-228 -585)">
    <rect id="Rectangle_406776" data-name="Rectangle 406776" width="457" height="417" transform="translate(228 585)" fill="#fff"/>
    <g id="_9412376" data-name="9412376" transform="translate(261.07 696.147)">
      <g id="Background_Complete" data-name="Background Complete" transform="translate(24.766 -109.148)">
        <g id="Group_1112577" data-name="Group 1112577" transform="translate(189.698)">
          <path id="Path_903304" data-name="Path 903304" d="M357.234,99.942,284.959,84.18a3.549,3.549,0,0,1-2.656-4.205l9.435-46.106a3.439,3.439,0,0,1,4.072-2.743L368.092,46.9A3.554,3.554,0,0,1,370.74,51.1l-9.427,46.114a3.443,3.443,0,0,1-4.072,2.735Z" transform="translate(-282.229 -31.049)" fill="#ebebeb"/>
          <path id="Path_903305" data-name="Path 903305" d="M295.591,76.628l-.929,4.541-.45-.1.848-4.114-1.04-.229.089-.427Z" transform="translate(-285.322 -41.826)" fill="#fff"/>
          <path id="Path_903306" data-name="Path 903306" d="M300,82l-.089.427-3.076-.67.066-.328,2.2-1.447c.6-.4.752-.678.819-.99.111-.526-.184-.922-.856-1.074a1.51,1.51,0,0,0-1.306.244l-.258-.35a1.966,1.966,0,0,1,1.689-.312c.885.2,1.357.785,1.2,1.562a1.913,1.913,0,0,1-1.011,1.265l-1.8,1.188,2.412.5Z" transform="translate(-286.062 -42.095)" fill="#fff"/>
          <path id="Path_903307" data-name="Path 903307" d="M306.254,82.592l-.878-.19-.243,1.188-.45-.1.243-1.188-2.486-.541.1-.35,2.936-2.491.5.114-2.84,2.438,1.9.419.214-1.051.443.1-.214,1.051.878.19-.1.427Z" transform="translate(-287.531 -42.45)" fill="#fff"/>
          <path id="Path_903308" data-name="Path 903308" d="M315.361,84.524l-.878-.19-.243,1.188-.457-.1.243-1.188-2.486-.541.074-.335,2.936-2.5.5.114-2.84,2.43,1.9.419.214-1.044.443.091-.214,1.051.878.19-.066.411Z" transform="translate(-289.919 -42.912)" fill="#fff"/>
          <path id="Path_903309" data-name="Path 903309" d="M320.767,85.4c-.155.769-.8,1.257-1.874,1.021a2.317,2.317,0,0,1-1.453-.929l.3-.32a1.937,1.937,0,0,0,1.239.815c.745.16,1.21-.114,1.335-.678s-.162-1.021-1.276-1.265l-.937-.206.686-2.225,2.4.526-.089.427-2.006-.434-.443,1.409.561.122c1.32.282,1.711.929,1.549,1.729Z" transform="translate(-291.467 -43.091)" fill="#fff"/>
          <path id="Path_903310" data-name="Path 903310" d="M326.7,86.676a1.4,1.4,0,0,1-1.785,1.067c-1.158-.251-1.623-1.227-1.335-2.659.31-1.539,1.291-2.164,2.479-1.92a2.007,2.007,0,0,1,.988.472l-.258.335a1.588,1.588,0,0,0-.811-.4c-.944-.206-1.682.289-1.933,1.516-.022.1-.037.236-.059.373a1.4,1.4,0,0,1,1.5-.48,1.42,1.42,0,0,1,1.2,1.7Zm-.457-.084a1.011,1.011,0,0,0-.907-1.219,1.028,1.028,0,0,0-1.306.678c0,.023-.015.046-.015.061a1.061,1.061,0,0,0,.959,1.219.966.966,0,0,0,1.239-.632.587.587,0,0,0,.03-.122h0Z" transform="translate(-293.056 -43.449)" fill="#fff"/>
          <path id="Path_903311" data-name="Path 903311" d="M334.767,88.363c-.155.762-.8,1.227-1.866.99a2.322,2.322,0,0,1-1.461-.922l.3-.32a1.963,1.963,0,0,0,1.247.823c.723.16,1.21-.114,1.313-.663s-.184-.983-1-1.166l-.31-.069.074-.343,1.534-1.31-2.242-.488.081-.427,2.818.617-.066.328-1.571,1.348c.929.267,1.3.884,1.143,1.607Z" transform="translate(-295.14 -43.772)" fill="#fff"/>
          <path id="Path_903312" data-name="Path 903312" d="M340.82,89.658a1.4,1.4,0,0,1-1.785,1.067c-1.165-.251-1.63-1.227-1.335-2.651.317-1.539,1.291-2.164,2.478-1.92a2.008,2.008,0,0,1,.988.472l-.258.335a1.588,1.588,0,0,0-.811-.4c-.944-.206-1.682.289-1.933,1.516a3.009,3.009,0,0,0-.059.373,1.414,1.414,0,0,1,1.5-.48,1.437,1.437,0,0,1,1.2,1.691Zm-.45-.091a1.009,1.009,0,0,0-.9-1.211,1.027,1.027,0,0,0-1.313.678.248.248,0,0,1-.022.069,1.071,1.071,0,0,0,.959,1.227.978.978,0,0,0,1.232-.663c.007-.023.015-.046.022-.076l.022-.015Z" transform="translate(-296.759 -44.161)" fill="#fff"/>
          <path id="Path_903313" data-name="Path 903313" d="M347.052,87.521l-.066.328-2.7,3.794-.487-.107,2.648-3.718-2.257-.5-.177.853-.443-.1.258-1.288,3.224.716Z" transform="translate(-298.322 -44.325)" fill="#fff"/>
          <path id="Path_903314" data-name="Path 903314" d="M355.544,89.336l-.066.328-2.692,3.8-.487-.107,2.648-3.718-2.257-.488-.17.853-.45-.1.258-1.257,3.216.693Z" transform="translate(-300.552 -44.768)" fill="#fff"/>
          <path id="Path_903315" data-name="Path 903315" d="M360.5,93.9c-.162.8-.922,1.158-1.97.929s-1.593-.868-1.424-1.668a1.13,1.13,0,0,1,1.07-.945,1.037,1.037,0,0,1-.48-1.143c.148-.739.848-1.067,1.778-.868s1.453.8,1.306,1.554a1.039,1.039,0,0,1-.907.846,1.174,1.174,0,0,1,.627,1.3Zm-.457-.107c.111-.556-.28-1.013-1.055-1.181s-1.306.084-1.424.64.273,1.013,1.047,1.181,1.313-.076,1.424-.64h0Zm-.988-1.547c.686.145,1.158-.076,1.254-.571s-.266-.914-.907-1.059-1.151.076-1.247.579S358.378,92.1,359.057,92.244Z" transform="translate(-301.866 -45.124)" fill="#fff"/>
          <path id="Path_903316" data-name="Path 903316" d="M366.554,94.08c-.317,1.539-1.3,2.164-2.486,1.92a2.008,2.008,0,0,1-.988-.472l.258-.335a1.649,1.649,0,0,0,.811.4c.944.206,1.682-.29,1.933-1.516.022-.1.037-.236.059-.373a1.408,1.408,0,0,1-1.5.48,1.389,1.389,0,0,1-1.195-1.684,1.411,1.411,0,0,1,1.785-1.067c1.165.236,1.623,1.211,1.335,2.644Zm-.443-1.028a1.071,1.071,0,0,0-.959-1.227.987.987,0,0,0-1.247.64.653.653,0,0,0-.03.114,1,1,0,0,0,.9,1.211,1.021,1.021,0,0,0,1.306-.67l.022-.069h0Z" transform="translate(-303.44 -45.421)" fill="#fff"/>
          <path id="Path_903317" data-name="Path 903317" d="M373.876,93.165l-.922,4.533-.45-.1.848-4.122-1.033-.221.081-.427,1.483.335Z" transform="translate(-305.865 -45.763)" fill="#fff"/>
          <path id="Path_903318" data-name="Path 903318" d="M378.277,98.537l-.081.427-3.076-.686.066-.328,2.2-1.447c.6-.4.752-.678.819-.99.111-.526-.184-.922-.856-1.067a1.47,1.47,0,0,0-1.3.244l-.258-.358a1.967,1.967,0,0,1,1.689-.3c.885.19,1.357.785,1.2,1.539a1.913,1.913,0,0,1-1.011,1.265l-1.8,1.188,2.412.526Z" transform="translate(-306.599 -46.031)" fill="#fff"/>
          <path id="Path_903319" data-name="Path 903319" d="M383.8,98.708c-.155.754-.811,1.219-1.866.99a2.333,2.333,0,0,1-1.461-.929l.3-.32a1.963,1.963,0,0,0,1.247.823c.723.16,1.21-.114,1.313-.663s-.184-.983-1-1.166l-.31-.069.066-.35,1.534-1.3-2.242-.5.081-.427,2.818.609-.066.328L382.624,97.1c.944.259,1.3.868,1.158,1.6Z" transform="translate(-308.003 -46.232)" fill="#fff"/>
          <path id="Path_905793" data-name="Path 905793" d="M.238.013,2.247,0,2.009,35.952,0,35.965Z" transform="translate(40.723 51.993) rotate(-78.07)" fill="#fff"/>
          <path id="Path_905794" data-name="Path 905794" d="M.122.013,2.131,0,2.009,18.438,0,18.45Z" transform="translate(57.06 59.536) rotate(-78.07)" fill="#fff"/>
          <g id="Group_1112576" data-name="Group 1112576" transform="translate(7.683 19.211)" opacity="0.5">
            <path id="Path_905795" data-name="Path 905795" d="M1.593.056,10.153,0a1.457,1.457,0,0,1,1.492,1.448l-.082,12.109a1.5,1.5,0,0,1-1.511,1.468l-8.56.056A1.457,1.457,0,0,1,0,13.633L.082,1.524A1.5,1.5,0,0,1,1.593.056Z" transform="translate(0 11.384) rotate(-77.84)" fill="#fafafa"/>
          </g>
          <path id="Path_903320" data-name="Path 903320" d="M294.5,65.236l.148-.731,7.59,1.653a1.627,1.627,0,0,0,1.925-1.287,1.68,1.68,0,0,0-1.247-1.988l-7.59-1.661.148-.731,7.59,1.653a2.43,2.43,0,0,1,1.733,2.925,2.347,2.347,0,0,1-2.7,1.813l-7.59-1.661Z" transform="translate(-285.448 -38.061)" fill="#e0e0e0"/>
          <path id="Path_905796" data-name="Path 905796" d="M.035,0,.781,0,.746,5.333,0,5.338Z" transform="translate(18.976 27.285) rotate(-78.02)" fill="#e0e0e0"/>
          <path id="Path_905797" data-name="Path 905797" d="M.257.022,3.688,0,3.431,38.8,0,38.818Z" transform="matrix(0.207, -0.978, 0.978, 0.207, 13.6, 13.564)" fill="#fff"/>
          <path id="Path_905798" data-name="Path 905798" d="M1,.039,7.129,0a.93.93,0,0,1,.952.925L8.042,6.871a.96.96,0,0,1-.965.937L.953,7.847A.93.93,0,0,1,0,6.923L.039.976A.96.96,0,0,1,1,.039Z" transform="matrix(0.207, -0.978, 0.978, 0.207, 70.583, 28.142)" fill="#fff"/>
        </g>
        <g id="Group_1112579" data-name="Group 1112579" transform="translate(237.683 231.031)">
          <g id="Group_1112578" data-name="Group 1112578">
            <path id="Path_903321" data-name="Path 903321" d="M385.483,365.91a20.083,20.083,0,0,1-27.9,7.786,21.485,21.485,0,0,1-7.605-28.8,20.083,20.083,0,0,1,27.9-7.786A21.485,21.485,0,0,1,385.483,365.91Z" transform="translate(-347.28 -334.305)" fill="#f5f5f5"/>
            <path id="Path_903322" data-name="Path 903322" d="M382.986,364.983a15.311,15.311,0,0,1-21.259,5.935,16.368,16.368,0,0,1-5.8-21.941,15.306,15.306,0,0,1,21.259-5.935,16.375,16.375,0,0,1,5.8,21.948Z" transform="translate(-349.01 -335.877)" fill="#ebebeb"/>
            <path id="Path_903323" data-name="Path 903323" d="M383.881,364.366a9.945,9.945,0,0,1,.575-1.889,17.658,17.658,0,0,0,.819-5.2,17.106,17.106,0,0,0-.384-3.6,16.848,16.848,0,0,0-1.379-3.885,14.839,14.839,0,0,0-1.136-1.9,15.524,15.524,0,0,0-1.446-1.79,15.156,15.156,0,0,0-5.982-3.923,14.251,14.251,0,0,0-2.265-.609,15.164,15.164,0,0,0-2.242-.244,13.5,13.5,0,0,0-2.161.091,15.3,15.3,0,0,0-3.887.983,15.579,15.579,0,0,0-3.106,1.684,16.979,16.979,0,0,0-3.725,3.611c-.752.99-1.114,1.6-1.195,1.547a4.949,4.949,0,0,1,.819-1.828,14.67,14.67,0,0,1,3.614-4.038,15.768,15.768,0,0,1,3.216-1.92,15.593,15.593,0,0,1,6.454-1.31,14.6,14.6,0,0,1,2.419.229,14.992,14.992,0,0,1,2.442.64,16.233,16.233,0,0,1,2.383,1.067,16.9,16.9,0,0,1,2.183,1.448,16.011,16.011,0,0,1,1.881,1.737,15.555,15.555,0,0,1,1.534,1.943,16.191,16.191,0,0,1,1.188,2.072,16.771,16.771,0,0,1,1.372,4.19,17.047,17.047,0,0,1,.258,3.832,15.458,15.458,0,0,1-1.225,5.356,4.743,4.743,0,0,1-1.011,1.722Z" transform="translate(-349.662 -335.694)" fill="#e0e0e0"/>
          </g>
          <path id="Path_903324" data-name="Path 903324" d="M368.5,368.081l-1.313,2.453-2.117-1.211,1.284-2.385a11.738,11.738,0,0,1-4.345-4.777l2.6-2a10.056,10.056,0,0,0,3.283,3.908l1.962-3.657c-2.036-1.935-4.234-4.251-2.552-7.39,1.247-2.324,3.946-3.383,7.509-1.859l1.306-2.43,2.124,1.211-1.284,2.392a11.2,11.2,0,0,1,3.592,3.8l-2.508,2.087a10.073,10.073,0,0,0-2.633-2.994l-2,3.725c2.051,1.912,4.2,4.205,2.545,7.3-1.224,2.278-3.895,3.329-7.443,1.836Zm3.069-10.894,1.667-3.108c-1.261-.381-2.051,0-2.442.724-.413.769,0,1.547.775,2.385Zm.819,7.367c.413-.769.022-1.531-.716-2.385l-1.623,3.024C371.238,365.559,372.013,365.254,372.389,364.553Z" transform="translate(-351.145 -337.741)" fill="#e0e0e0"/>
        </g>
        <g id="Group_1112581" data-name="Group 1112581" transform="translate(296.739 139.542)">
          <g id="Group_1112580" data-name="Group 1112580">
            <path id="Path_903325" data-name="Path 903325" d="M465.543,245.82a20.083,20.083,0,0,1-27.9,7.786,21.485,21.485,0,0,1-7.605-28.8,20.083,20.083,0,0,1,27.9-7.786,21.485,21.485,0,0,1,7.605,28.8Z" transform="translate(-427.34 -214.215)" fill="#f5f5f5"/>
            <path id="Path_903326" data-name="Path 903326" d="M463.046,244.893a15.311,15.311,0,0,1-21.259,5.935,16.368,16.368,0,0,1-5.8-21.941,15.313,15.313,0,0,1,21.259-5.935,16.375,16.375,0,0,1,5.8,21.948Z" transform="translate(-429.07 -215.787)" fill="#ebebeb"/>
            <path id="Path_903327" data-name="Path 903327" d="M463.931,244.278a9.944,9.944,0,0,1,.575-1.889,17.66,17.66,0,0,0,.819-5.2,17.1,17.1,0,0,0-.384-3.6,16.845,16.845,0,0,0-1.379-3.885,14.829,14.829,0,0,0-1.136-1.9,15.29,15.29,0,0,0-3.194-3.383,17.206,17.206,0,0,0-2.029-1.341,16.22,16.22,0,0,0-2.206-.99,14.245,14.245,0,0,0-2.265-.609,15.162,15.162,0,0,0-2.242-.244,13.5,13.5,0,0,0-2.161.091,15.3,15.3,0,0,0-3.887.983,15.577,15.577,0,0,0-3.105,1.684,16.976,16.976,0,0,0-3.725,3.611c-.752.99-1.114,1.6-1.2,1.547a4.9,4.9,0,0,1,.819-1.821,14.67,14.67,0,0,1,3.614-4.038,15.768,15.768,0,0,1,3.216-1.92,15.592,15.592,0,0,1,6.454-1.31,14.592,14.592,0,0,1,2.419.229,15,15,0,0,1,2.442.64,16.227,16.227,0,0,1,2.383,1.067,16.9,16.9,0,0,1,2.183,1.447,16.017,16.017,0,0,1,1.881,1.737,15.562,15.562,0,0,1,1.534,1.943,16.2,16.2,0,0,1,1.188,2.072,16.771,16.771,0,0,1,1.372,4.19,17.04,17.04,0,0,1,.258,3.832,15.456,15.456,0,0,1-1.225,5.356,4.742,4.742,0,0,1-1.011,1.722Z" transform="translate(-429.719 -215.607)" fill="#e0e0e0"/>
          </g>
          <path id="Path_903328" data-name="Path 903328" d="M448.561,247.991l-1.313,2.453-2.117-1.211,1.284-2.385a11.739,11.739,0,0,1-4.345-4.777l2.6-2a10.056,10.056,0,0,0,3.283,3.908l1.962-3.657c-2.036-1.935-4.234-4.251-2.552-7.39,1.247-2.324,3.946-3.383,7.509-1.859l1.306-2.43,2.124,1.211-1.284,2.392a11.2,11.2,0,0,1,3.592,3.8l-2.508,2.087a10.176,10.176,0,0,0-2.633-2.994l-2,3.725c2.051,1.912,4.2,4.205,2.545,7.3-1.224,2.278-3.895,3.329-7.443,1.836ZM451.63,237.1l1.667-3.108c-1.261-.381-2.051,0-2.442.724C450.442,235.481,450.855,236.258,451.63,237.1Zm.819,7.367c.413-.769.022-1.531-.716-2.385L450.11,245.1C451.3,245.469,452.073,245.164,452.449,244.463Z" transform="translate(-431.205 -217.651)" fill="#e0e0e0"/>
        </g>
        <g id="Group_1112583" data-name="Group 1112583" transform="translate(90.465 0.424)">
          <g id="Group_1112582" data-name="Group 1112582">
            <path id="Path_903329" data-name="Path 903329" d="M192.521,68.688a23.558,23.558,0,0,1-32.729,9.134,25.2,25.2,0,0,1-8.918-33.787A23.558,23.558,0,0,1,183.6,34.9,25.2,25.2,0,0,1,192.521,68.688Z" transform="translate(-147.704 -31.606)" fill="#f5f5f5"/>
            <path id="Path_903330" data-name="Path 903330" d="M189.591,67.6a17.965,17.965,0,0,1-24.947,6.963,19.21,19.21,0,0,1-6.8-25.742,17.959,17.959,0,0,1,24.947-6.963,19.21,19.21,0,0,1,6.8,25.742Z" transform="translate(-149.731 -33.45)" fill="#ebebeb"/>
            <path id="Path_903331" data-name="Path 903331" d="M190.625,66.875a11.923,11.923,0,0,1,.671-2.217,20.813,20.813,0,0,0,.959-6.11,19.876,19.876,0,0,0-.45-4.221,19.23,19.23,0,0,0-1.623-4.556,16.914,16.914,0,0,0-1.335-2.232,17.253,17.253,0,0,0-1.7-2.1,17.016,17.016,0,0,0-2.058-1.874A20.056,20.056,0,0,0,182.71,42a19.619,19.619,0,0,0-2.589-1.166,17.825,17.825,0,0,0-2.656-.716,17.469,17.469,0,0,0-5.171-.175,17.689,17.689,0,0,0-4.566,1.158,18.77,18.77,0,0,0-3.644,1.973,19.556,19.556,0,0,0-4.367,4.236c-.885,1.166-1.306,1.874-1.4,1.821a5.566,5.566,0,0,1,.959-2.141,17.328,17.328,0,0,1,4.234-4.739A18.822,18.822,0,0,1,167.286,40a18.236,18.236,0,0,1,4.846-1.371,16.815,16.815,0,0,1,2.722-.168,17.279,17.279,0,0,1,2.84.267,18.73,18.73,0,0,1,2.869.747,19.075,19.075,0,0,1,2.8,1.249,19.939,19.939,0,0,1,2.567,1.7,19.1,19.1,0,0,1,2.206,2.042,17.334,17.334,0,0,1,1.8,2.286,18.648,18.648,0,0,1,1.394,2.43,19.473,19.473,0,0,1,1.91,9.409,17.939,17.939,0,0,1-1.438,6.278,5.717,5.717,0,0,1-1.18,2.019Z" transform="translate(-150.485 -33.237)" fill="#e0e0e0"/>
          </g>
          <path id="Path_903332" data-name="Path 903332" d="M172.593,71.233l-1.542,2.88-2.486-1.425,1.5-2.8a13.708,13.708,0,0,1-5.09-5.6l3.046-2.354a11.8,11.8,0,0,0,3.851,4.586l2.3-4.289c-2.39-2.27-4.964-4.99-2.995-8.662,1.461-2.727,4.632-3.969,8.815-2.179l1.527-2.857,2.486,1.425-1.5,2.8a13.047,13.047,0,0,1,4.212,4.457l-2.936,2.453a11.888,11.888,0,0,0-3.091-3.512l-2.346,4.373c2.4,2.247,4.927,4.937,2.987,8.563-1.431,2.674-4.566,3.9-8.734,2.156ZM176.2,58.449l1.955-3.649c-1.483-.449-2.4,0-2.862.846-.479.9,0,1.813.907,2.8Zm.959,8.647c.479-.9.022-1.8-.841-2.8l-1.9,3.55c1.394.427,2.3.076,2.744-.747Z" transform="translate(-152.236 -35.637)" fill="#e0e0e0"/>
        </g>
        <g id="Group_1112585" data-name="Group 1112585" transform="translate(0 81.202)">
          <g id="Group_1112584" data-name="Group 1112584">
            <path id="Path_903333" data-name="Path 903333" d="M69.881,174.718a23.558,23.558,0,0,1-32.729,9.134,25.2,25.2,0,0,1-8.918-33.787,23.558,23.558,0,0,1,32.729-9.134,25.2,25.2,0,0,1,8.918,33.787Z" transform="translate(-25.064 -137.636)" fill="#f5f5f5"/>
            <path id="Path_903334" data-name="Path 903334" d="M66.951,173.638A17.965,17.965,0,0,1,42,180.6a19.21,19.21,0,0,1-6.8-25.742A17.959,17.959,0,0,1,60.15,147.9,19.21,19.21,0,0,1,66.951,173.638Z" transform="translate(-27.091 -139.482)" fill="#ebebeb"/>
            <path id="Path_903335" data-name="Path 903335" d="M67.985,172.905a11.921,11.921,0,0,1,.671-2.217,20.812,20.812,0,0,0,.959-6.11,19.875,19.875,0,0,0-.45-4.221,19.231,19.231,0,0,0-1.623-4.556,16.917,16.917,0,0,0-1.335-2.232,17.257,17.257,0,0,0-1.7-2.1,17.017,17.017,0,0,0-2.058-1.874,20.055,20.055,0,0,0-2.383-1.569,19.617,19.617,0,0,0-2.589-1.166,17.826,17.826,0,0,0-2.656-.716,17.47,17.47,0,0,0-5.171-.175,17.688,17.688,0,0,0-4.566,1.158,18.769,18.769,0,0,0-3.644,1.973,19.555,19.555,0,0,0-4.367,4.236c-.885,1.166-1.306,1.874-1.4,1.821a5.566,5.566,0,0,1,.959-2.141,17.328,17.328,0,0,1,4.234-4.739,18.822,18.822,0,0,1,3.777-2.255,18.236,18.236,0,0,1,4.846-1.371,16.816,16.816,0,0,1,2.722-.168,17.28,17.28,0,0,1,2.84.267,18.733,18.733,0,0,1,2.869.747,19.077,19.077,0,0,1,2.8,1.249,19.941,19.941,0,0,1,2.567,1.7,19.106,19.106,0,0,1,2.206,2.042,17.334,17.334,0,0,1,1.8,2.286,18.643,18.643,0,0,1,1.394,2.43,19.473,19.473,0,0,1,1.911,9.409,17.939,17.939,0,0,1-1.438,6.278,5.717,5.717,0,0,1-1.18,2.019Z" transform="translate(-27.845 -139.267)" fill="#e0e0e0"/>
          </g>
          <path id="Path_903336" data-name="Path 903336" d="M49.953,177.273l-1.542,2.88-2.486-1.425,1.5-2.8a13.708,13.708,0,0,1-5.09-5.6l3.046-2.354a11.8,11.8,0,0,0,3.851,4.586l2.3-4.289c-2.39-2.27-4.964-4.99-2.995-8.662,1.461-2.727,4.632-3.969,8.808-2.179l1.527-2.857,2.486,1.425-1.5,2.8a13.047,13.047,0,0,1,4.212,4.457l-2.943,2.453a11.889,11.889,0,0,0-3.091-3.512l-2.346,4.373c2.4,2.247,4.927,4.937,2.987,8.563-1.431,2.674-4.566,3.9-8.734,2.156Zm3.607-12.784,1.955-3.649c-1.483-.449-2.4,0-2.862.846C52.173,162.585,52.652,163.5,53.56,164.489Zm.959,8.639c.479-.9.022-1.8-.841-2.8l-1.9,3.55c1.394.427,2.3.076,2.744-.747Z" transform="translate(-29.596 -141.669)" fill="#e0e0e0"/>
        </g>
        <g id="Group_1112587" data-name="Group 1112587" transform="translate(6.505 241.972)">
          <g id="Group_1112586" data-name="Group 1112586">
            <path id="Path_903337" data-name="Path 903337" d="M65.99,375.227a16.888,16.888,0,0,1-23.45,6.544,18.053,18.053,0,0,1-6.388-24.2,16.888,16.888,0,0,1,23.45-6.544A18.053,18.053,0,0,1,65.99,375.227Z" transform="translate(-33.882 -348.666)" fill="#f5f5f5"/>
            <path id="Path_903338" data-name="Path 903338" d="M63.9,374.443a12.87,12.87,0,0,1-17.866,4.99,13.76,13.76,0,0,1-4.868-18.444A12.87,12.87,0,0,1,59.031,356,13.76,13.76,0,0,1,63.9,374.443Z" transform="translate(-35.338 -349.986)" fill="#ebebeb"/>
            <path id="Path_903339" data-name="Path 903339" d="M64.634,373.915a8.356,8.356,0,0,1,.479-1.592,14.87,14.87,0,0,0,.686-4.373,13.985,13.985,0,0,0-.325-3.024,13.661,13.661,0,0,0-1.165-3.261,13.173,13.173,0,0,0-.952-1.6,12.067,12.067,0,0,0-1.217-1.5,12.676,12.676,0,0,0-1.475-1.341,14.849,14.849,0,0,0-1.7-1.128,13.82,13.82,0,0,0-1.851-.83,12.616,12.616,0,0,0-3.792-.716,11.993,11.993,0,0,0-1.822.076,12.75,12.75,0,0,0-3.268.83,13.023,13.023,0,0,0-2.611,1.417,14.144,14.144,0,0,0-3.128,3.032c-.634.83-.937,1.341-1,1.3a3.983,3.983,0,0,1,.686-1.531,12.452,12.452,0,0,1,3.032-3.4,13.572,13.572,0,0,1,2.707-1.615,13.084,13.084,0,0,1,3.474-.983,12.657,12.657,0,0,1,1.955-.122,13.4,13.4,0,0,1,2.036.19,13.641,13.641,0,0,1,2.058.533,15.108,15.108,0,0,1,2.006.891,14.671,14.671,0,0,1,1.837,1.219,13.383,13.383,0,0,1,1.579,1.463,12.719,12.719,0,0,1,1.291,1.638,13.252,13.252,0,0,1,1,1.737,13.918,13.918,0,0,1,1.365,6.742,12.715,12.715,0,0,1-1.033,4.495,4.079,4.079,0,0,1-.848,1.447Z" transform="translate(-35.875 -349.831)" fill="#e0e0e0"/>
          </g>
          <path id="Path_903340" data-name="Path 903340" d="M51.716,377.045,50.61,379.11l-1.785-1.021,1.077-2a9.9,9.9,0,0,1-3.651-4.015l2.183-1.684a8.4,8.4,0,0,0,2.759,3.284l1.652-3.078c-1.711-1.63-3.555-3.573-2.147-6.209,1.047-1.95,3.319-2.842,6.314-1.562l1.1-2.042L59.9,361.8l-1.077,2A9.419,9.419,0,0,1,61.837,367l-2.1,1.752a8.555,8.555,0,0,0-2.213-2.522l-1.682,3.131c1.719,1.607,3.533,3.535,2.139,6.133-1.025,1.912-3.268,2.8-6.255,1.547Zm2.589-9.157,1.4-2.613c-1.062-.32-1.726,0-2.051.609C53.309,366.532,53.656,367.187,54.305,367.888Zm.686,6.194c.347-.648.015-1.288-.6-2l-1.365,2.545c1,.3,1.652.053,1.962-.533Z" transform="translate(-37.127 -351.551)" fill="#e0e0e0"/>
        </g>
      </g>
      <g id="Table" transform="translate(23.93 302.062)">
        <path id="Path_903341" data-name="Path 903341" d="M23.93,468.9c0-.107,74.333-.2,166.015-.2s166.03.091,166.03.2-74.318.2-166.03.2S23.93,469,23.93,468.9Z" transform="translate(-23.93 -468.7)" fill="#263238"/>
      </g>
      <g id="Coins" transform="translate(45.334 73.712)">
        <g id="Group_1112592" data-name="Group 1112592" transform="translate(0 33.596)">
          <path id="Path_905799" data-name="Path 905799" d="M29.557,0c16.168-.155,29.15,12.493,28.995,28.25S45.165,56.907,29,57.061-.153,44.568,0,28.812,13.388.156,29.557,0Z" transform="translate(0 55.537) rotate(-71.53)" fill="#69a7ff"/>
          <g id="Group_1112588" data-name="Group 1112588" transform="translate(7.918 12.005)" opacity="0.1">
            <path id="Path_903342" data-name="Path 903342" d="M76.869,228.82C63.621,237.5,59.7,255.644,68.113,269.327v.008s17.35-10.27,17.1-19.945-8.35-20.57-8.35-20.57Z" transform="translate(-63.68 -228.82)" fill="#fff"/>
          </g>
          <path id="Path_905803" data-name="Path 905803" d="M21.585,0c11.908-.012,21.552,9.947,21.54,22.245S33.448,44.523,21.54,44.535-.012,34.588,0,22.29,9.676.012,21.585,0Z" transform="translate(12.577 12.81) rotate(-1.81)" fill="#69a7ff"/>
          <g id="Group_1112589" data-name="Group 1112589" transform="translate(12.577 11.448)" opacity="0.2">
            <path id="Path_905804" data-name="Path 905804" d="M21.585,0c11.908-.012,21.552,9.947,21.54,22.245S33.448,44.523,21.54,44.535-.012,34.588,0,22.29,9.676.012,21.585,0Z" transform="translate(0 1.362) rotate(-1.81)"/>
          </g>
          <path id="Path_903343" data-name="Path 903343" d="M113.472,242.878a22.454,22.454,0,0,1-6.558,30.4,20.926,20.926,0,0,1-29.44-6.773,22.454,22.454,0,0,1,6.558-30.4.022.022,0,0,0,.015-.008,20.93,20.93,0,0,1,29.425,6.78Z" transform="translate(-58.507 -217.731)" fill="#69a7ff"/>
          <g id="Group_1112590" data-name="Group 1112590" transform="translate(15.634 14.935)" opacity="0.2">
            <path id="Path_903344" data-name="Path 903344" d="M113.472,242.878a22.454,22.454,0,0,1-6.558,30.4,20.926,20.926,0,0,1-29.44-6.773,22.454,22.454,0,0,1,6.558-30.4.022.022,0,0,0,.015-.008,20.93,20.93,0,0,1,29.425,6.78Z" transform="translate(-74.141 -232.665)" fill="#fff"/>
          </g>
          <path id="Path_903345" data-name="Path 903345" d="M99.325,255.679,96.4,250.925h0a11.207,11.207,0,0,1,2.862-.945,9.445,9.445,0,0,1,1.608,0l-.037-.19-.339-2.179-.1-.5-1.365-.35-.288.434a10.067,10.067,0,0,0-3.924,1.188l-1.615-2.621-1.188-.137.4.655L91.344,247l1.63,2.666c-3.342,2.689-3.74,5.927-2.272,8.3,2.014,3.276,5.252,2.346,8.181,1.318l2.9,4.716a10.013,10.013,0,0,1-5.673,1.173l.435,3.055a11.5,11.5,0,0,0,6.794-1.7l1.217,1.973-.878.6,1.269.038,1.866-1.249-1.623-2.644c3.356-2.72,3.784-5.935,2.316-8.327-1.977-3.245-5.245-2.263-8.173-1.242Zm-2.169.739c-1.571.465-2.869.594-3.57-.541s-.457-2.346,1-3.642Zm6.484,6.293-2.567-4.175c1.615-.5,2.958-.609,3.666.533.62,1.021.413,2.285-1.1,3.634h0Z" transform="translate(-62.639 -220.818)" fill="#69a7ff"/>
          <g id="Group_1112591" data-name="Group 1112591" transform="translate(27.253 24.812)" opacity="0.3">
            <path id="Path_903346" data-name="Path 903346" d="M99.325,255.679,96.4,250.925h0a11.207,11.207,0,0,1,2.862-.945,9.445,9.445,0,0,1,1.608,0l-.037-.19-.339-2.179-.1-.5-1.365-.35-.288.434a10.067,10.067,0,0,0-3.924,1.188l-1.615-2.621-1.188-.137.4.655L91.344,247l1.63,2.666c-3.342,2.689-3.74,5.927-2.272,8.3,2.014,3.276,5.252,2.346,8.181,1.318l2.9,4.716a10.013,10.013,0,0,1-5.673,1.173l.435,3.055a11.5,11.5,0,0,0,6.794-1.7l1.217,1.973-.878.6,1.269.038,1.866-1.249-1.623-2.644c3.356-2.72,3.784-5.935,2.316-8.327-1.977-3.245-5.245-2.263-8.173-1.242Zm-2.169.739c-1.571.465-2.869.594-3.57-.541s-.457-2.346,1-3.642Zm6.484,6.293-2.567-4.175c1.615-.5,2.958-.609,3.666.533.62,1.021.413,2.285-1.1,3.634h0Z" transform="translate(-89.892 -245.63)"/>
          </g>
          <path id="Path_903347" data-name="Path 903347" d="M103.638,265.138l1.63,2.644-1.866,1.249-1.608-2.621a11.5,11.5,0,0,1-6.8,1.714l-.435-3.055a10.139,10.139,0,0,0,5.673-1.173l-2.9-4.716c-2.928,1.021-6.167,1.95-8.173-1.326-1.483-2.407-1.092-5.607,2.265-8.289l-1.63-2.666,1.866-1.249,1.608,2.621a11.368,11.368,0,0,1,5.51-1.6l.524,3a11.09,11.09,0,0,0-4.485,1.143l2.928,4.769c2.928-1.028,6.2-2.011,8.2,1.272,1.483,2.369,1.055,5.569-2.309,8.3Zm-8.07-8.86-2.582-4.205c-1.461,1.326-1.63,2.621-.959,3.634s1.962,1.044,3.533.571h0Zm7.6,2.666c-.716-1.158-2.051-1.044-3.666-.549l2.567,4.175c1.5-1.348,1.719-2.613,1.1-3.626Z" transform="translate(-62.231 -220.823)" fill="#69a7ff"/>
          <path id="Path_903348" data-name="Path 903348" d="M92.161,261.386a1.826,1.826,0,0,1-.87-.2,3.4,3.4,0,0,1-1.6-1.448,3.508,3.508,0,0,1-.42-2.164,1.781,1.781,0,0,1,.251-.907,6.255,6.255,0,0,0-.1.884,3.69,3.69,0,0,0,.465,2.034A3.6,3.6,0,0,0,91.372,261a6.981,6.981,0,0,0,.8.389Z" transform="translate(-62.469 -223.448)" fill="#fff"/>
          <path id="Path_903349" data-name="Path 903349" d="M92.368,249.377c-.059.015-.3-.289-.568-.739s-.435-.769-.384-.83.3.289.568.739S92.42,249.347,92.368,249.377Z" transform="translate(-63.037 -221.335)" fill="#fff"/>
        </g>
        <g id="Group_1112597" data-name="Group 1112597" transform="translate(211.646 0)">
          <path id="Path_905800" data-name="Path 905800" d="M24.413,0A23.352,23.352,0,0,1,48.1,24a25.09,25.09,0,0,1-24.41,24.713A23.352,23.352,0,0,1,0,24.716,25.09,25.09,0,0,1,24.413,0Z" transform="translate(0 26.615) rotate(-33.59)" fill="#8aafff"/>
          <g id="Group_1112593" data-name="Group 1112593" transform="translate(9.942 8.969)" opacity="0.1">
            <path id="Path_903350" data-name="Path 903350" d="M378.606,114.008c-13.02-1.844-25.021,7.565-26.806,21.011v.008s16.472,3.124,21.377-3.207S378.606,114.008,378.606,114.008Z" transform="translate(-351.8 -113.777)" fill="#fff"/>
          </g>
          <path id="Path_905801" data-name="Path 905801" d="M18.714,0C29.009-.04,37.322,8.016,37.281,17.994s-8.419,18.1-18.714,18.14S-.04,28.118,0,18.14,8.419.04,18.714,0Z" transform="translate(13.583 47.448) rotate(-82.87)" fill="#8aafff"/>
          <g id="Group_1112594" data-name="Group 1112594" transform="translate(13.583 10.455)" opacity="0.2">
            <path id="Path_905802" data-name="Path 905802" d="M18.714,0C29.009-.04,37.322,8.016,37.281,17.994s-8.419,18.1-18.714,18.14S-.04,28.118,0,18.14,8.419.04,18.714,0Z" transform="translate(0 36.993) rotate(-82.87)"/>
          </g>
          <path id="Path_903351" data-name="Path 903351" d="M395.524,143.384a17.975,17.975,0,0,1-20.108,15.785c-9.774-1.379-16.612-10.673-15.284-20.768a17.975,17.975,0,0,1,20.108-15.785h.015c9.767,1.387,16.6,10.681,15.262,20.768Z" transform="translate(-344 -106.873)" fill="#8aafff"/>
          <g id="Group_1112595" data-name="Group 1112595" transform="translate(15.966 15.574)" opacity="0.2">
            <path id="Path_903352" data-name="Path 903352" d="M395.524,143.384a17.975,17.975,0,0,1-20.108,15.785c-9.774-1.379-16.612-10.673-15.284-20.768a17.975,17.975,0,0,1,20.108-15.785h.015c9.767,1.387,16.6,10.681,15.262,20.768Z" transform="translate(-359.967 -122.447)" fill="#fff"/>
          </g>
          <path id="Path_903353" data-name="Path 903353" d="M382.46,141.4l.62-4.67h0a9.367,9.367,0,0,1,2.324.99,7.778,7.778,0,0,1,1.025.9l.074-.145.922-1.585.2-.373-.686-.99-.413.122a8.609,8.609,0,0,0-3.135-1.432l.339-2.575-.686-.754-.088.64-1.062-.145-.354,2.621c-3.548-.152-5.5,1.706-5.791,4.038-.428,3.223,2.132,4.434,4.544,5.409l-.62,4.632a8.587,8.587,0,0,1-4.241-2.415l-1.32,2.194a9.771,9.771,0,0,0,5.237,2.7l-.258,1.943-.878-.107.8.731,1.852.244.347-2.6c3.57.13,5.525-1.684,5.842-4.03.435-3.184-2.169-4.373-4.573-5.356Zm-1.77-.747c-1.247-.579-2.147-1.219-2-2.339s.937-1.752,2.545-1.775l-.538,4.114Zm.848,7.649.546-4.1c1.291.587,2.213,1.257,2.058,2.392-.14,1-.937,1.691-2.6,1.714h0Z" transform="translate(-347.711 -108.884)" fill="#8aafff"/>
          <g id="Group_1112596" data-name="Group 1112596" transform="translate(26.399 22.006)" opacity="0.3">
            <path id="Path_903354" data-name="Path 903354" d="M382.46,141.4l.62-4.67h0a9.367,9.367,0,0,1,2.324.99,7.778,7.778,0,0,1,1.025.9l.074-.145.922-1.585.2-.373-.686-.99-.413.122a8.609,8.609,0,0,0-3.135-1.432l.339-2.575-.686-.754-.088.64-1.062-.145-.354,2.621c-3.548-.152-5.5,1.706-5.791,4.038-.428,3.223,2.132,4.434,4.544,5.409l-.62,4.632a8.587,8.587,0,0,1-4.241-2.415l-1.32,2.194a9.771,9.771,0,0,0,5.237,2.7l-.258,1.943-.878-.107.8.731,1.852.244.347-2.6c3.57.13,5.525-1.684,5.842-4.03.435-3.184-2.169-4.373-4.573-5.356Zm-1.77-.747c-1.247-.579-2.147-1.219-2-2.339s.937-1.752,2.545-1.775l-.538,4.114Zm.848,7.649.546-4.1c1.291.587,2.213,1.257,2.058,2.392-.14,1-.937,1.691-2.6,1.714h0Z" transform="translate(-374.11 -130.89)"/>
          </g>
          <path id="Path_903355" data-name="Path 903355" d="M380.289,150.012l-.339,2.6-1.852-.244.347-2.575a9.716,9.716,0,0,1-5.245-2.7l1.32-2.194a8.651,8.651,0,0,0,4.242,2.415l.62-4.632c-2.4-.983-4.964-2.194-4.529-5.417.31-2.369,2.235-4.19,5.791-4.038L381,130.6l1.852.244-.347,2.575a9.557,9.557,0,0,1,4.359,2.057l-1.232,2.209a9.439,9.439,0,0,0-3.467-1.775l-.62,4.685c2.412.975,5.016,2.171,4.581,5.394-.3,2.346-2.242,4.152-5.82,4.015Zm-.516-10.17.553-4.129c-1.63.03-2.412.769-2.515,1.79s.708,1.767,1.962,2.339h0Zm3.46,5.95c.148-1.143-.767-1.813-2.058-2.392l-.546,4.1c1.667-.023,2.471-.708,2.6-1.707Z" transform="translate(-347.472 -108.815)" fill="#8aafff"/>
          <path id="Path_903356" data-name="Path 903356" d="M376.911,140.737a1.515,1.515,0,0,1-.45-.609,3.034,3.034,0,0,1-.266-1.821,2.92,2.92,0,0,1,.863-1.615,1.428,1.428,0,0,1,.634-.442,4.372,4.372,0,0,0-.524.5,3.1,3.1,0,0,0-.767,1.562,3.219,3.219,0,0,0,.214,1.729c.148.457.325.678.3.7Z" transform="translate(-348.247 -110.16)" fill="#fff"/>
          <path id="Path_903357" data-name="Path 903357" d="M383.879,133.089a1.814,1.814,0,0,1,.022-.792c.066-.434.125-.731.184-.747s.037.35-.022.792A1.883,1.883,0,0,1,383.879,133.089Z" transform="translate(-350.266 -109.041)" fill="#fff"/>
        </g>
      </g>
      <g id="Documents" transform="translate(260.051 249.808)">
        <g id="Group_1112600" data-name="Group 1112600" transform="translate(3.644 24.226)">
          <rect id="Rectangle_404605" data-name="Rectangle 404605" width="27.426" height="10.666" transform="translate(84.992 12.486) rotate(180)" fill="#ebebeb"/>
          <rect id="Rectangle_404606" data-name="Rectangle 404606" width="86.135" height="2.232" transform="translate(86.135 2.232) rotate(180)" fill="#455a64"/>
          <rect id="Rectangle_404607" data-name="Rectangle 404607" width="85.737" height="2.232" transform="translate(85.737 14.254) rotate(180)" fill="#455a64"/>
          <path id="Path_903358" data-name="Path 903358" d="M406.536,432.6l-.125,13.3H348.97V432.6Z" transform="translate(-348.97 -432.074)" fill="#455a64"/>
          <g id="Group_1112598" data-name="Group 1112598" transform="translate(43.123 3.375)">
            <path id="Path_903359" data-name="Path 903359" d="M408.09,440.276a3.112,3.112,0,1,0,3.105-3.306A3.207,3.207,0,0,0,408.09,440.276Z" transform="translate(-407.603 -436.49)" fill="#263238"/>
            <path id="Path_903360" data-name="Path 903360" d="M407.43,440.126a3.59,3.59,0,1,1,3.585,3.786A3.694,3.694,0,0,1,407.43,440.126Zm.966,0a2.63,2.63,0,1,0,2.626-2.834A2.741,2.741,0,0,0,408.4,440.126Z" transform="translate(-407.43 -436.34)" fill="#e0e0e0"/>
          </g>
          <path id="Path_903361" data-name="Path 903361" d="M429.8,444.8c0,.137,5.636.244,12.584.244s12.584-.114,12.584-.244-5.636-.251-12.584-.251S429.8,444.664,429.8,444.8Z" transform="translate(-370.176 -434.921)" fill="#263238"/>
          <path id="Path_903362" data-name="Path 903362" d="M429.8,442.361c0,.137,5.636.244,12.584.244s12.584-.114,12.584-.244-5.636-.251-12.584-.251S429.8,442.224,429.8,442.361Z" transform="translate(-370.176 -434.339)" fill="#263238"/>
          <path id="Path_903363" data-name="Path 903363" d="M429.8,439.921c0,.137,5.636.251,12.584.251s12.584-.114,12.584-.251-5.636-.251-12.584-.251S429.8,439.784,429.8,439.921Z" transform="translate(-370.176 -433.758)" fill="#263238"/>
          <path id="Path_903364" data-name="Path 903364" d="M429.8,437.481c0,.137,5.636.251,12.584.251s12.584-.114,12.584-.251-5.636-.251-12.584-.251S429.8,437.344,429.8,437.481Z" transform="translate(-370.176 -433.177)" fill="#263238"/>
          <g id="Group_1112599" data-name="Group 1112599" transform="translate(6.366 3.36)">
            <rect id="Rectangle_404608" data-name="Rectangle 404608" width="25.884" height="7.116" transform="translate(25.884 7.116) rotate(180)" fill="#fff"/>
            <path id="Path_903365" data-name="Path 903365" d="M387.141,442.938a16.138,16.138,0,0,0,0-5.668,16.136,16.136,0,0,0,0,5.668Z" transform="translate(-365.284 -436.546)" fill="#e0e0e0"/>
            <path id="Path_903366" data-name="Path 903366" d="M382.5,442.938a16.138,16.138,0,0,0,0-5.668,16.138,16.138,0,0,0,0,5.668Z" transform="translate(-364.067 -436.546)" fill="#e0e0e0"/>
            <path id="Path_903367" data-name="Path 903367" d="M377.861,442.938a16.136,16.136,0,0,0,0-5.668,16.138,16.138,0,0,0,0,5.668Z" transform="translate(-362.85 -436.546)" fill="#e0e0e0"/>
            <path id="Path_903368" data-name="Path 903368" d="M373.221,442.938a16.138,16.138,0,0,0,0-5.668,16.138,16.138,0,0,0,0,5.668Z" transform="translate(-361.632 -436.546)" fill="#e0e0e0"/>
            <path id="Path_903369" data-name="Path 903369" d="M368.581,442.938a16.138,16.138,0,0,0,0-5.668,16.138,16.138,0,0,0,0,5.668Z" transform="translate(-360.415 -436.546)" fill="#e0e0e0"/>
            <path id="Path_903370" data-name="Path 903370" d="M363.941,442.938a16.138,16.138,0,0,0,0-5.668,16.138,16.138,0,0,0,0,5.668Z" transform="translate(-359.198 -436.546)" fill="#e0e0e0"/>
          </g>
          <path id="Path_903371" data-name="Path 903371" d="M426.391,446.164a99.547,99.547,0,0,0,0-14.124,99.559,99.559,0,0,0,0,14.124Z" transform="translate(-369.216 -431.941)" fill="#263238"/>
        </g>
        <g id="Group_1112603" data-name="Group 1112603" transform="translate(0 38.084)">
          <rect id="Rectangle_404609" data-name="Rectangle 404609" width="27.426" height="10.666" transform="translate(84.992 12.494) rotate(180)" fill="#ebebeb"/>
          <rect id="Rectangle_404610" data-name="Rectangle 404610" width="86.135" height="2.232" transform="translate(86.135 2.232) rotate(180)" fill="#ff725e"/>
          <rect id="Rectangle_404611" data-name="Rectangle 404611" width="85.737" height="2.232" transform="translate(85.737 14.262) rotate(180)" fill="#ff725e"/>
          <path id="Path_903372" data-name="Path 903372" d="M401.6,450.8l-.133,13.3H344.03V450.8Z" transform="translate(-344.03 -450.267)" fill="#ff725e"/>
          <g id="Group_1112601" data-name="Group 1112601" transform="translate(43.123 3.383)">
            <path id="Path_903373" data-name="Path 903373" d="M403.15,458.476a3.112,3.112,0,1,0,3.106-3.306A3.207,3.207,0,0,0,403.15,458.476Z" transform="translate(-402.663 -454.69)" fill="#263238"/>
            <path id="Path_903374" data-name="Path 903374" d="M402.49,458.326a3.59,3.59,0,1,1,3.585,3.786A3.694,3.694,0,0,1,402.49,458.326Zm.966,0a2.634,2.634,0,1,0,2.626-2.834A2.741,2.741,0,0,0,403.456,458.326Z" transform="translate(-402.49 -454.54)" fill="#e0e0e0"/>
          </g>
          <path id="Path_903375" data-name="Path 903375" d="M424.86,462.994c0,.137,5.636.251,12.584.251s12.584-.114,12.584-.251-5.636-.244-12.584-.244S424.86,462.864,424.86,462.994Z" transform="translate(-365.236 -453.113)" fill="#263238"/>
          <path id="Path_903376" data-name="Path 903376" d="M424.86,460.561c0,.137,5.636.251,12.584.251s12.584-.114,12.584-.251-5.636-.251-12.584-.251S424.86,460.424,424.86,460.561Z" transform="translate(-365.236 -452.532)" fill="#263238"/>
          <path id="Path_903377" data-name="Path 903377" d="M424.86,458.121c0,.137,5.636.251,12.584.251s12.584-.114,12.584-.251-5.636-.251-12.584-.251S424.86,457.984,424.86,458.121Z" transform="translate(-365.236 -451.951)" fill="#263238"/>
          <path id="Path_903378" data-name="Path 903378" d="M424.86,455.681c0,.137,5.636.251,12.584.251s12.584-.114,12.584-.251-5.636-.251-12.584-.251S424.86,455.544,424.86,455.681Z" transform="translate(-365.236 -451.369)" fill="#263238"/>
          <g id="Group_1112602" data-name="Group 1112602" transform="translate(6.366 3.367)">
            <rect id="Rectangle_404612" data-name="Rectangle 404612" width="25.884" height="7.116" transform="translate(25.884 7.116) rotate(180)" fill="#fff"/>
            <path id="Path_903379" data-name="Path 903379" d="M382.2,461.138a16.138,16.138,0,0,0,0-5.668,16.138,16.138,0,0,0,0,5.668Z" transform="translate(-360.344 -454.746)" fill="#e0e0e0"/>
            <path id="Path_903380" data-name="Path 903380" d="M377.561,461.138a16.134,16.134,0,0,0,0-5.668,16.138,16.138,0,0,0,0,5.668Z" transform="translate(-359.127 -454.746)" fill="#e0e0e0"/>
            <path id="Path_903381" data-name="Path 903381" d="M372.921,461.138a16.138,16.138,0,0,0,0-5.668,16.142,16.142,0,0,0,0,5.668Z" transform="translate(-357.91 -454.746)" fill="#e0e0e0"/>
            <path id="Path_903382" data-name="Path 903382" d="M368.281,461.138a16.136,16.136,0,0,0,0-5.668,16.138,16.138,0,0,0,0,5.668Z" transform="translate(-356.692 -454.746)" fill="#e0e0e0"/>
            <path id="Path_903383" data-name="Path 903383" d="M363.641,461.138a16.138,16.138,0,0,0,0-5.668,16.138,16.138,0,0,0,0,5.668Z" transform="translate(-355.475 -454.746)" fill="#e0e0e0"/>
            <path id="Path_903384" data-name="Path 903384" d="M359,461.138a16.138,16.138,0,0,0,0-5.668,16.138,16.138,0,0,0,0,5.668Z" transform="translate(-354.258 -454.746)" fill="#e0e0e0"/>
          </g>
          <path id="Path_903385" data-name="Path 903385" d="M421.451,464.364a99.572,99.572,0,0,0,0-14.124,99.547,99.547,0,0,0,0,14.124Z" transform="translate(-364.276 -450.133)" fill="#263238"/>
        </g>
        <g id="Group_1112605" data-name="Group 1112605" transform="translate(0.671)">
          <path id="Path_903386" data-name="Path 903386" d="M350.834,403.584V400.11l73.617.152H428.7v3.367h-4.249v20.806H344.94V403.584Z" transform="translate(-344.94 -400.11)" fill="#ebebeb"/>
          <path id="Path_903387" data-name="Path 903387" d="M430.82,404.649c0,.107-17.416.175-38.9.145s-38.9-.145-38.9-.251,17.416-.175,38.9-.145S430.82,404.543,430.82,404.649Z" transform="translate(-347.06 -401.129)" fill="#263238"/>
          <path id="Path_903388" data-name="Path 903388" d="M424.454,410.778c0,.107-17.8.183-39.752.175s-39.752-.114-39.752-.229,17.8-.183,39.759-.175,39.752.114,39.752.229Z" transform="translate(-344.943 -402.596)" fill="#263238"/>
          <path id="Path_903389" data-name="Path 903389" d="M424.454,416.988c0,.107-17.8.183-39.752.175s-39.752-.114-39.752-.229,17.8-.183,39.759-.175,39.752.114,39.752.229Z" transform="translate(-344.943 -404.075)" fill="#263238"/>
          <path id="Path_903390" data-name="Path 903390" d="M424.454,423.208c0,.107-17.8.183-39.752.175s-39.752-.114-39.752-.229,17.8-.183,39.759-.175,39.752.114,39.752.229Z" transform="translate(-344.943 -405.557)" fill="#263238"/>
          <path id="Path_903391" data-name="Path 903391" d="M424.454,429.428c0,.107-17.8.183-39.752.175s-39.752-.114-39.752-.229,17.8-.183,39.759-.175,39.752.114,39.752.229Z" transform="translate(-344.943 -407.038)" fill="#263238"/>
          <g id="Group_1112604" data-name="Group 1112604" opacity="0.3">
            <path id="Path_903392" data-name="Path 903392" d="M368.884,424.435V400.11h-18.05v3.474H344.94v20.851Z" transform="translate(-344.94 -400.11)"/>
          </g>
        </g>
      </g>
      <g id="Screen_2" data-name="Screen 2" transform="translate(218.706 -19.549)">
        <g id="Group_1112613" data-name="Group 1112613">
          <rect id="Rectangle_404613" data-name="Rectangle 404613" width="78.568" height="112.919" rx="5.62" transform="translate(113.104 0.145) rotate(90)" fill="#fff"/>
          <path id="Path_903393" data-name="Path 903393" d="M301.52,180.14H414.779v45.908a4.856,4.856,0,0,1-4.773,4.929H305.8a4.345,4.345,0,0,1-4.271-4.411V180.14h0Z" transform="translate(-301.52 -152.051)" fill="#e0e0e0"/>
          <path id="Path_903394" data-name="Path 903394" d="M429.38,204.5h18.78v28.409a3.816,3.816,0,0,1-3.747,3.87H429.38V204.5h0Z" transform="translate(-335.064 -157.852)" fill="#ff725e"/>
          <rect id="Rectangle_404614" data-name="Rectangle 404614" width="56.069" height="13.987" transform="translate(20.964 64.947)" fill="#f5f5f5"/>
          <path id="Path_903395" data-name="Path 903395" d="M370.825,213.05v.617l-2.478,5.721h-.929l2.427-5.554h-2.8v1.135H366.2v-1.92h4.632Z" transform="translate(-318.489 -159.889)" fill="#263238"/>
          <path id="Path_903396" data-name="Path 903396" d="M395.626,217.567c0,1.15-.944,1.867-2.449,1.867s-2.427-.716-2.427-1.867a1.569,1.569,0,0,1,1.077-1.531,1.431,1.431,0,0,1-.856-1.364c0-1.059.885-1.722,2.213-1.722s2.228.663,2.228,1.722a1.436,1.436,0,0,1-.87,1.364A1.573,1.573,0,0,1,395.626,217.567Zm-.878-.023c0-.7-.6-1.135-1.571-1.135s-1.549.434-1.549,1.135.575,1.158,1.549,1.158S394.748,218.26,394.748,217.544Zm-2.906-2.834c0,.625.5,1.013,1.342,1.013s1.365-.389,1.365-1.013-.546-1.021-1.365-1.021S391.842,214.078,391.842,214.71Z" transform="translate(-324.93 -159.865)" fill="#263238"/>
          <path id="Path_903397" data-name="Path 903397" d="M316.653,235.307c0,2.164-1.18,3.322-2.9,3.322a2.852,2.852,0,0,1-1.527-.373l.332-.709a2.074,2.074,0,0,0,1.18.3c1.247,0,2.036-.808,2.036-2.392v-.229a2.035,2.035,0,0,1-1.77.83,1.915,1.915,0,0,1-2.095-1.92,2.038,2.038,0,0,1,2.169-2c1.645,0,2.574,1.143,2.574,3.162Zm-1.077-1.2c0-.655-.509-1.219-1.461-1.219a1.224,1.224,0,0,0-1.35,1.234c0,.754.531,1.219,1.394,1.219a1.282,1.282,0,0,0,1.424-1.234Z" transform="translate(-304.246 -164.433)" fill="#263238"/>
          <path id="Path_903398" data-name="Path 903398" d="M395.5,195.327h-1.165v1.554h-.848v-1.554H390.08v-.632l3.135-4.144h.944l-3.01,4h2.36v-1.379h.826v1.379H395.5v.777Z" transform="translate(-324.754 -154.53)" fill="#263238"/>
          <path id="Path_903399" data-name="Path 903399" d="M316.6,215.862c0,1.1-.752,1.973-2.324,1.973a3.425,3.425,0,0,1-2.25-.769l.406-.716a2.726,2.726,0,0,0,1.844.678c.929,0,1.453-.442,1.453-1.135s-.435-1.158-1.859-1.158H312.48l.325-3.314h3.46v.785h-2.729l-.17,1.737h.686c1.829,0,2.552.785,2.552,1.912Z" transform="translate(-304.277 -159.5)" fill="#263238"/>
          <path id="Path_903400" data-name="Path 903400" d="M344.15,215.78a2.017,2.017,0,0,1-2.176,2c-1.645,0-2.574-1.143-2.574-3.162,0-2.164,1.18-3.322,2.9-3.322a2.852,2.852,0,0,1,1.527.373l-.332.709a2.111,2.111,0,0,0-1.173-.3c-1.247,0-2.043.808-2.043,2.392,0,.069,0,.145.007.229a2.022,2.022,0,0,1,1.763-.83,1.921,1.921,0,0,1,2.1,1.92Zm-.848.031a1.235,1.235,0,0,0-1.4-1.219,1.273,1.273,0,0,0-1.409,1.234c0,.655.509,1.219,1.453,1.219A1.23,1.23,0,0,0,343.3,215.81Z" transform="translate(-311.458 -159.472)" fill="#263238"/>
          <path id="Path_903401" data-name="Path 903401" d="M315.7,190.05v6.338h-.87v-5.554H313.44v-.785h2.25Z" transform="translate(-304.647 -154.411)" fill="#263238"/>
          <path id="Path_903402" data-name="Path 903402" d="M344.65,196.12v.785h-4.411v-.617l2.5-2.491c.649-.655.775-1.051.775-1.447,0-.655-.45-1.051-1.306-1.051a1.92,1.92,0,0,0-1.571.686l-.6-.533a2.779,2.779,0,0,1,2.242-.96c1.284,0,2.1.678,2.1,1.767a2.591,2.591,0,0,1-1.011,1.988l-1.874,1.866h3.15Z" transform="translate(-311.626 -154.516)" fill="#263238"/>
          <path id="Path_903403" data-name="Path 903403" d="M369.793,194.972c0,1.067-.76,1.935-2.324,1.935a3.4,3.4,0,0,1-2.25-.769l.406-.716a2.732,2.732,0,0,0,1.852.678c.922,0,1.446-.434,1.446-1.12s-.465-1.1-1.52-1.1h-.494v-.632l1.542-1.958h-2.958V190.5h4.05v.617l-1.608,2.049a1.786,1.786,0,0,1,1.852,1.813Z" transform="translate(-318.232 -154.518)" fill="#263238"/>
          <path id="Path_903404" data-name="Path 903404" d="M365.25,237.738c0-2.065,1.07-3.238,2.508-3.238s2.5,1.181,2.5,3.238-1.07,3.245-2.5,3.245S365.25,239.8,365.25,237.738Zm4.131,0c0-1.623-.664-2.438-1.623-2.438s-1.63.815-1.63,2.438.664,2.438,1.63,2.438S369.381,239.36,369.381,237.738Z" transform="translate(-318.24 -164.997)" fill="#263238"/>
          <path id="Path_903405" data-name="Path 903405" d="M418.4,238.372a1.958,1.958,0,0,1,.148-.655l.413-1.257h.553l-.325,1.348a.605.605,0,1,1-.789.564Z" transform="translate(-332.184 -165.464)" fill="#263238"/>
          <g id="Group_1112606" data-name="Group 1112606" transform="translate(100.719 59.919)">
            <rect id="Rectangle_404615" data-name="Rectangle 404615" width="5.99" height="0.648" fill="#263238"/>
            <rect id="Rectangle_404616" data-name="Rectangle 404616" width="5.99" height="0.648" transform="translate(0 1.966)" fill="#263238"/>
          </g>
          <g id="Group_1112609" data-name="Group 1112609" transform="translate(101.936 36.637)">
            <g id="Group_1112607" data-name="Group 1112607" transform="translate(0 2.065)">
              <rect id="Rectangle_404617" data-name="Rectangle 404617" width="4.485" height="0.488" transform="translate(0.229 0.244)" fill="#263238"/>
              <path id="Path_903406" data-name="Path 903406" d="M444.652,195.038H439.71v-.968h4.942Zm-4.478-.48h0Z" transform="translate(-439.71 -194.07)" fill="#263238"/>
            </g>
            <g id="Group_1112608" data-name="Group 1112608" transform="translate(2.006)">
              <rect id="Rectangle_404618" data-name="Rectangle 404618" width="4.632" height="0.472" transform="translate(0.236 4.868) rotate(-90)" fill="#263238"/>
              <path id="Path_903407" data-name="Path 903407" d="M443.359,196.464h-.929v-5.1h.929Zm-.472-.48h.007v-4.152Z" transform="translate(-442.43 -191.36)" fill="#263238"/>
            </g>
          </g>
          <path id="Path_903408" data-name="Path 903408" d="M419.543,215.5l-.664-.678-1.416,1.463-1.416-1.463-.656.678,1.416,1.463-1.416,1.47.656.678,1.416-1.463,1.416,1.463.664-.678-1.416-1.47Z" transform="translate(-331.394 -160.31)" fill="#263238"/>
          <g id="Group_1112610" data-name="Group 1112610" transform="translate(83.93 38.702)">
            <rect id="Rectangle_404619" data-name="Rectangle 404619" width="4.485" height="0.488" transform="translate(0.229 0.244)" fill="#263238"/>
            <path id="Path_903409" data-name="Path 903409" d="M420.242,195.038H415.3v-.968h4.942Zm-4.485-.48h0Z" transform="translate(-415.3 -194.07)" fill="#263238"/>
          </g>
          <g id="Group_1112611" data-name="Group 1112611" transform="translate(68.668 9.744)">
            <path id="Path_903410" data-name="Path 903410" d="M398.261,156.17v11.885h-.841v-11.1h-2.81v-.777h3.651Z" transform="translate(-394.61 -156.086)" fill="#263238"/>
            <path id="Path_903411" data-name="Path 903411" d="M411.284,156.17v.609l-4.95,11.268h-.922l4.9-11.1h-6.462v2.278h-.819V156.17h8.247Z" transform="translate(-396.819 -156.086)" fill="#263238"/>
            <path id="Path_903412" data-name="Path 903412" d="M423.395,164.717c0,1.966-1.379,3.428-4.028,3.428a5.457,5.457,0,0,1-4.057-1.592l.428-.663a4.825,4.825,0,0,0,3.629,1.463c2.073,0,3.172-1.021,3.172-2.628s-1.055-2.628-3.349-2.628h-.723v-.625l3.4-4.495h-6.13V156.2h7.214v.609l-3.452,4.563c2.611.069,3.895,1.425,3.895,3.36Z" transform="translate(-400.041 -156.093)" fill="#263238"/>
            <path id="Path_903413" data-name="Path 903413" d="M437.292,164.768c0,2.072-1.66,3.344-4.374,3.344s-4.337-1.272-4.337-3.344a2.957,2.957,0,0,1,2.449-2.956,2.7,2.7,0,0,1-2.036-2.682c0-1.9,1.542-3.07,3.924-3.07s3.961,1.173,3.961,3.07a2.708,2.708,0,0,1-2.073,2.682,2.981,2.981,0,0,1,2.478,2.956Zm-.834,0c0-1.577-1.313-2.583-3.533-2.583s-3.5,1-3.5,2.583,1.283,2.6,3.5,2.6S436.458,166.368,436.458,164.768Zm-3.533-3.291c1.955,0,3.12-.9,3.12-2.308s-1.217-2.362-3.12-2.362-3.091.9-3.091,2.339,1.136,2.324,3.091,2.324Z" transform="translate(-403.522 -156.06)" fill="#263238"/>
          </g>
          <g id="Group_1112612" data-name="Group 1112612" transform="translate(4.984 4.493)">
            <path id="Path_903414" data-name="Path 903414" d="M311.879,150.586a1.868,1.868,0,0,1-2.228,2.3,1.848,1.848,0,0,1-1.32-1.364,1.868,1.868,0,0,1,2.228-2.3A1.848,1.848,0,0,1,311.879,150.586Z" transform="translate(-308.277 -149.167)" fill="#e0e0e0"/>
            <path id="Path_903415" data-name="Path 903415" d="M320.229,150.586a1.836,1.836,0,1,1-1.32-1.364A1.865,1.865,0,0,1,320.229,150.586Z" transform="translate(-310.468 -149.167)" fill="#e0e0e0"/>
            <path id="Path_903416" data-name="Path 903416" d="M327.9,150.586a1.836,1.836,0,1,1-1.32-1.364A1.865,1.865,0,0,1,327.9,150.586Z" transform="translate(-312.48 -149.167)" fill="#e0e0e0"/>
          </g>
          <path id="Path_903417" data-name="Path 903417" d="M301.645,217.808s.007.084.022.259a3.8,3.8,0,0,0,.111.754,4.423,4.423,0,0,0,1.475,2.446,3.722,3.722,0,0,0,1.837.83,7.208,7.208,0,0,0,1.165.046h1.276c1.77,0,3.814-.008,6.108-.015,9.2-.015,22.5-.03,38.933-.053,16.442-.008,36.012-.023,57.743-.038a3.829,3.829,0,0,0,3.445-1.76,4.429,4.429,0,0,0,.708-2.011c.052-.716.015-1.5.022-2.255v-68.2a4.269,4.269,0,0,0-2.338-3.885,3.857,3.857,0,0,0-1.084-.312,11.432,11.432,0,0,0-1.151-.03H380.322c-11.825,0-23.236,0-34.109-.008s-21.193-.008-30.863-.015h-8.867a6.511,6.511,0,0,0-1.689.107,3.99,3.99,0,0,0-2.552,2.1,4.6,4.6,0,0,0-.457,1.691c-.03.587-.007,1.2-.015,1.8V159.7c-.022,17.949-.037,32.469-.052,42.51-.015,5.013-.022,8.913-.03,11.557,0,1.318-.015,2.324-.015,3.009s-.015,1.021-.015,1.021-.007-.35-.015-1.021c0-.686-.007-1.691-.015-3.009,0-2.651-.015-6.544-.029-11.557-.015-10.041-.03-24.569-.052-42.51V149.258c0-.6-.015-1.2.015-1.821a4.715,4.715,0,0,1,.487-1.79,4.245,4.245,0,0,1,2.707-2.24,6.742,6.742,0,0,1,1.741-.114h8.867c9.663,0,19.99-.008,30.863-.015s22.277,0,34.109-.008h29.595c.391,0,.774-.008,1.18.03a4.178,4.178,0,0,1,1.165.335,4.6,4.6,0,0,1,2.53,4.2v68.2c-.015.769.022,1.5-.03,2.286a4.778,4.778,0,0,1-.767,2.156,4.089,4.089,0,0,1-3.674,1.882c-21.731-.015-41.308-.023-57.743-.038s-29.735-.038-38.933-.053c-2.294,0-4.337-.008-6.108-.015h-1.276a6.558,6.558,0,0,1-1.173-.053,3.77,3.77,0,0,1-1.859-.861,4.454,4.454,0,0,1-1.468-2.491,4.968,4.968,0,0,1-.1-.762v-.259Z" transform="translate(-301.527 -143.269)" fill="#263238"/>
          <path id="Path_903418" data-name="Path 903418" d="M329.872,231.309c-.1,0-.192-11.29-.192-25.224s.089-25.224.192-25.224.192,11.29.192,25.224S329.975,231.309,329.872,231.309Z" transform="translate(-308.908 -152.222)" fill="#263238"/>
          <path id="Path_903419" data-name="Path 903419" d="M355.752,217.169c-.1,0-.192-8.129-.192-18.155s.088-18.155.192-18.155.192,8.129.192,18.155S355.855,217.169,355.752,217.169Z" transform="translate(-315.697 -152.222)" fill="#263238"/>
          <path id="Path_903420" data-name="Path 903420" d="M381.482,217.169c-.1,0-.192-8.129-.192-18.155s.089-18.155.192-18.155.192,8.129.192,18.155S381.585,217.169,381.482,217.169Z" transform="translate(-322.448 -152.222)" fill="#263238"/>
          <path id="Path_903421" data-name="Path 903421" d="M405.882,231.278c-.1,0-.192-11.29-.192-25.209s.089-25.209.192-25.209.192,11.283.192,25.209S405.985,231.278,405.882,231.278Z" transform="translate(-328.849 -152.222)" fill="#263238"/>
          <path id="Path_903422" data-name="Path 903422" d="M429.312,231.278c-.1,0-.192-11.29-.192-25.209s.089-25.209.192-25.209.192,11.283.192,25.209S429.415,231.278,429.312,231.278Z" transform="translate(-334.996 -152.222)" fill="#263238"/>
          <path id="Path_903423" data-name="Path 903423" d="M302.08,204.838c0-.107,25.169-.2,56.216-.2s56.216.091,56.216.2-25.169.2-56.216.2S302.08,204.945,302.08,204.838Z" transform="translate(-301.667 -157.886)" fill="#263238"/>
          <path id="Path_903424" data-name="Path 903424" d="M302.08,228.658c0-.107,21.023-.2,46.951-.2s46.959.091,46.959.2-21.023.2-46.959.2S302.08,228.765,302.08,228.658Z" transform="translate(-301.667 -163.559)" fill="#263238"/>
        </g>
      </g>
      <g id="Screen1" transform="translate(54.673 -27.325)">
        <g id="Group_1112623" data-name="Group 1112623">
          <g id="Group_1112614" data-name="Group 1112614">
            <rect id="Rectangle_404620" data-name="Rectangle 404620" width="132.201" height="86.11" rx="5.28" transform="translate(0.369 0.381)" fill="#fff"/>
            <path id="Path_903425" data-name="Path 903425" d="M194.793,158.172H70.374a4.34,4.34,0,0,1-4.264-4.4V75.7a4.342,4.342,0,0,1,4.264-4.4H194.793a4.342,4.342,0,0,1,4.264,4.4v78.073A4.336,4.336,0,0,1,194.793,158.172ZM70.374,72.062A3.59,3.59,0,0,0,66.848,75.7v78.073a3.583,3.583,0,0,0,3.526,3.634H194.793a3.588,3.588,0,0,0,3.526-3.634V75.7a3.59,3.59,0,0,0-3.526-3.642H70.374Z" transform="translate(-66.11 -71.3)" fill="#263238"/>
          </g>
          <g id="Group_1112621" data-name="Group 1112621" transform="translate(7.79 19.594)">
            <g id="Group_1112620" data-name="Group 1112620">
              <g id="Group_1112615" data-name="Group 1112615">
                <path id="Path_903426" data-name="Path 903426" d="M194.672,149.19h-118V97.02h118Zm-117.736-.251H194.406V97.264H76.936Z" transform="translate(-76.67 -97.02)" fill="#ebebeb"/>
                <rect id="Rectangle_404621" data-name="Rectangle 404621" width="117.736" height="0.251" transform="translate(0.133 43.265)" fill="#ebebeb"/>
                <rect id="Rectangle_404622" data-name="Rectangle 404622" width="117.736" height="0.251" transform="translate(0.133 34.61)" fill="#ebebeb"/>
                <rect id="Rectangle_404623" data-name="Rectangle 404623" width="117.736" height="0.251" transform="translate(0.133 25.956)" fill="#ebebeb"/>
                <rect id="Rectangle_404624" data-name="Rectangle 404624" width="117.736" height="0.251" transform="translate(0.133 17.301)" fill="#ebebeb"/>
                <rect id="Rectangle_404625" data-name="Rectangle 404625" width="117.736" height="0.251" transform="translate(0.133 8.647)" fill="#ebebeb"/>
              </g>
              <g id="Group_1112616" data-name="Group 1112616" transform="translate(11.293 8.281)">
                <rect id="Rectangle_404626" data-name="Rectangle 404626" width="3.88" height="35.098" transform="translate(0 8.487)" fill="#ff725e"/>
                <rect id="Rectangle_404627" data-name="Rectangle 404627" width="4.795" height="43.585" transform="translate(6.137)" fill="#455a64"/>
              </g>
              <g id="Group_1112617" data-name="Group 1112617" transform="translate(38.439 21.392)">
                <rect id="Rectangle_404628" data-name="Rectangle 404628" width="3.88" height="9.957" transform="translate(0 20.509)" fill="#ff725e"/>
                <rect id="Rectangle_404629" data-name="Rectangle 404629" width="3.88" height="30.466" transform="translate(6.137)" fill="#455a64"/>
              </g>
              <g id="Group_1112618" data-name="Group 1112618" transform="translate(63.762 1.767)">
                <rect id="Rectangle_404630" data-name="Rectangle 404630" width="3.88" height="50.091" fill="#ff725e"/>
                <rect id="Rectangle_404631" data-name="Rectangle 404631" width="3.88" height="11.946" transform="translate(7.052 38.153)" fill="#455a64"/>
              </g>
              <g id="Group_1112619" data-name="Group 1112619" transform="translate(89.078 6.841)">
                <rect id="Rectangle_404632" data-name="Rectangle 404632" width="3.88" height="45.017" fill="#ff725e"/>
                <rect id="Rectangle_404633" data-name="Rectangle 404633" width="3.88" height="25.88" transform="translate(6.145 19.137)" fill="#455a64"/>
                <rect id="Rectangle_404634" data-name="Rectangle 404634" width="3.88" height="3.497" transform="translate(18.987 41.52)" fill="#ff725e"/>
              </g>
            </g>
            <rect id="Rectangle_404635" data-name="Rectangle 404635" width="9.117" height="1.653" rx="0.827" transform="translate(11.397 56.178)" fill="#e0e0e0"/>
            <rect id="Rectangle_404636" data-name="Rectangle 404636" width="9.117" height="1.653" rx="0.827" transform="translate(37.819 56.178)" fill="#e0e0e0"/>
            <rect id="Rectangle_404637" data-name="Rectangle 404637" width="9.117" height="1.653" rx="0.827" transform="translate(61.144 56.178)" fill="#e0e0e0"/>
            <rect id="Rectangle_404638" data-name="Rectangle 404638" width="9.117" height="1.653" rx="0.827" transform="translate(85.162 56.178)" fill="#e0e0e0"/>
            <rect id="Rectangle_404639" data-name="Rectangle 404639" width="9.117" height="1.653" rx="0.827" transform="translate(105.521 56.178)" fill="#e0e0e0"/>
          </g>
          <g id="Group_1112622" data-name="Group 1112622" transform="translate(7.79 8.053)">
            <path id="Path_903427" data-name="Path 903427" d="M80.284,83.736a1.808,1.808,0,1,1-1.807-1.866A1.841,1.841,0,0,1,80.284,83.736Z" transform="translate(-76.67 -81.87)" fill="#e0e0e0"/>
            <path id="Path_903428" data-name="Path 903428" d="M87.1,83.736A1.808,1.808,0,1,1,85.3,81.87,1.841,1.841,0,0,1,87.1,83.736Z" transform="translate(-78.459 -81.87)" fill="#e0e0e0"/>
            <path id="Path_903429" data-name="Path 903429" d="M93.934,83.736a1.808,1.808,0,1,1-1.807-1.866A1.841,1.841,0,0,1,93.934,83.736Z" transform="translate(-80.251 -81.87)" fill="#e0e0e0"/>
          </g>
        </g>
      </g>
      <g id="Character" transform="translate(28.964 32.719)">
        <path id="Path_903430" data-name="Path 903430" d="M128.35,304.255c-.657.739,4.655,9.63,6.794,15.229s12.776,31.647,21.827,31.814,15.955-4.076,21.871-12.738,15.786-54.525,15.786-54.525L178.51,267.39l-18.581,54.182s-15.011-19.229-18.028-21.339-13.543,4.007-13.543,4.007Z" transform="translate(-56.344 -151.411)" fill="#ae7461"/>
        <g id="Group_1112642" data-name="Group 1112642">
          <path id="Path_903431" data-name="Path 903431" d="M298.184,412.464l-4.072-31.3-84.675,2.461s-7.369,45.443-6.993,64.337h48.943l.406-6.331,2.611.587s.6,2.537,1.3,5.744l47.475.091-4.994-35.593Z" transform="translate(-75.794 -178.508)" fill="#263238"/>
          <g id="Group_1112625" data-name="Group 1112625" transform="translate(110.253 81.612)">
            <path id="Path_903432" data-name="Path 903432" d="M204.887,295.373l-24.667-8.685s13.528-55.248,32.412-55.248Z" transform="translate(-180.22 -224.462)" fill="#3e7dad"/>
            <path id="Path_903433" data-name="Path 903433" d="M292.176,309.8l-2.928-82.72c-4.618-2.179-24.394-4.8-24.394-4.8l-25.729,3.741L217.7,229.815l-5.746,56.5-2.419,78.141c27.536,10.5,61.136,6.963,90.687-.8L292.184,309.8Z" transform="translate(-187.909 -222.28)" fill="#3e7dad"/>
            <g id="Group_1112624" data-name="Group 1112624" transform="translate(55.383 40.164)" opacity="0.3">
              <path id="Path_903434" data-name="Path 903434" d="M255.3,275.008s14.377,31.578,27.116,43.3S305.7,332.595,305.7,332.595l-1.527-10.247L255.3,275Z" transform="translate(-255.3 -275)"/>
            </g>
            <path id="Path_903435" data-name="Path 903435" d="M213.207,260.22c.1,0-.148,8.639-.561,19.282s-.841,19.274-.944,19.267.148-8.639.561-19.282S213.1,260.212,213.207,260.22Z" transform="translate(-188.473 -231.316)" fill="#263238"/>
            <path id="Path_903436" data-name="Path 903436" d="M310.77,226.69s22.793,2.1,25.825,26.649c1.4,11.351,4,29.27,4,29.27l-22.388,2.019-3.091-2.362c-1.719-5.3-4.7-16.227-4.278-16.616.568-.526-.066-38.953-.066-38.953Z" transform="translate(-214.47 -223.33)" fill="#3e7dad"/>
            <path id="Path_903437" data-name="Path 903437" d="M244.23,362.717s.339-.312,1-.808,1.615-1.2,2.818-2.049c2.4-1.691,5.8-3.939,9.656-6.217s7.458-4.152,10.091-5.432c1.32-.64,2.39-1.143,3.142-1.47a7.1,7.1,0,0,1,1.18-.472,8.835,8.835,0,0,1-1.114.617c-.789.4-1.829.937-3.083,1.577-2.6,1.341-6.167,3.253-10.017,5.523s-7.258,4.472-9.693,6.1c-1.18.792-2.147,1.447-2.884,1.943a7.921,7.921,0,0,1-1.077.678Z" transform="translate(-197.013 -251.809)" fill="#263238"/>
            <path id="Path_903438" data-name="Path 903438" d="M261.57,360.416a8.72,8.72,0,0,1,1.719-1.15,33.394,33.394,0,0,1,9.228-3.619,8.941,8.941,0,0,1,2.029-.32,14.653,14.653,0,0,1-1.962.594c-1.217.343-2.877.861-4.669,1.562s-3.371,1.455-4.5,2.034a14.662,14.662,0,0,1-1.844.907Z" transform="translate(-201.562 -253.964)" fill="#263238"/>
            <path id="Path_903439" data-name="Path 903439" d="M314.983,288.158c-.1,0,.184-7.435.657-16.6s.937-16.585,1.04-16.578-.184,7.436-.657,16.6S315.086,288.166,314.983,288.158Z" transform="translate(-215.57 -230.068)" fill="#263238"/>
          </g>
          <g id="Group_1112627" data-name="Group 1112627" transform="translate(127.09)">
            <g id="Group_1112626" data-name="Group 1112626">
              <path id="Path_903440" data-name="Path 903440" d="M213.612,156.843a6.594,6.594,0,0,1-7.834-2.438A4.218,4.218,0,0,1,205,151.83a2.347,2.347,0,0,1,1.483-2.087,5.458,5.458,0,0,1-3.091-2.925,4.465,4.465,0,0,1,.42-4.228,3.406,3.406,0,0,1,3.836-1.257A4.387,4.387,0,0,1,208.979,137l6.484-.137L213.6,156.843Z" transform="translate(-203.045 -120.324)" fill="#263238"/>
              <path id="Path_903441" data-name="Path 903441" d="M238.693,203.949l-1.129-4.541s-13.351,1.173-16.649-12.067c-1.593-6.4-3.828-19.846-5.717-32.035-2.029-13.111,6.027-25.636,18.515-28.774l1.239-.312c13.573-2.56,23.265,7.908,25.368,21.994l6.956,51.6-20.477,15.9-8.107-11.763Z" transform="translate(-206.152 -117.697)" fill="#ae7461"/>
              <path id="Path_903442" data-name="Path 903442" d="M245.63,219.938a35.8,35.8,0,0,0,15.9-7.908s-1.947,9.249-15.063,11.283l-.841-3.383Z" transform="translate(-214.217 -138.227)" fill="#6f4439"/>
              <path id="Path_903443" data-name="Path 903443" d="M224.357,180.835a1.887,1.887,0,0,0,2.22,1.47,1.862,1.862,0,0,0,1.49-2.186,1.887,1.887,0,0,0-2.22-1.47A1.861,1.861,0,0,0,224.357,180.835Z" transform="translate(-208.627 -130.268)" fill="#263238"/>
              <path id="Path_903444" data-name="Path 903444" d="M221.11,171.178c.288.19,1.424-1.227,3.408-1.714,1.97-.518,3.666.168,3.821-.137.081-.137-.258-.526-1-.838a5.03,5.03,0,0,0-3.135-.2,4.933,4.933,0,0,0-2.633,1.676c-.494.632-.6,1.135-.457,1.219Z" transform="translate(-207.769 -127.771)" fill="#263238"/>
              <path id="Path_903445" data-name="Path 903445" d="M247.177,175.715a1.887,1.887,0,0,0,2.22,1.47,1.862,1.862,0,0,0,1.49-2.186,1.887,1.887,0,0,0-2.22-1.47A1.861,1.861,0,0,0,247.177,175.715Z" transform="translate(-214.613 -129.049)" fill="#263238"/>
              <path id="Path_903446" data-name="Path 903446" d="M247.578,165.258c.288.19,1.431-1.227,3.408-1.714,1.97-.518,3.666.168,3.821-.137.081-.137-.258-.526-1-.838a5.069,5.069,0,0,0-5.776,1.478c-.494.632-.59,1.135-.457,1.219Z" transform="translate(-214.712 -126.361)" fill="#263238"/>
              <path id="Path_903447" data-name="Path 903447" d="M240.783,183.063a12.644,12.644,0,0,0-3.349.213c-.516.076-1.018.091-1.188-.244a2.808,2.808,0,0,1-.029-1.63q.266-2.068.553-4.342c.738-6.171,1.143-11.2.9-11.229s-1.033,4.952-1.77,11.123c-.17,1.516-.332,2.971-.487,4.35a3.188,3.188,0,0,0,.221,2.11,1.285,1.285,0,0,0,1.011.556,3.379,3.379,0,0,0,.885-.091A12.788,12.788,0,0,0,240.783,183.063Z" transform="translate(-211.517 -127.223)" fill="#263238"/>
              <path id="Path_903448" data-name="Path 903448" d="M245.2,160.893c.428.419,2.132-.747,4.4-1.569,2.25-.868,4.286-1.1,4.352-1.7.022-.282-.509-.617-1.446-.754a7.529,7.529,0,0,0-3.614.449,7.693,7.693,0,0,0-3.054,2.042c-.627.724-.834,1.333-.642,1.531Z" transform="translate(-214.085 -125.075)" fill="#263238"/>
              <path id="Path_903449" data-name="Path 903449" d="M220.192,163.15c.457.373,1.7-.449,3.334-.884,1.615-.5,3.1-.449,3.3-1.013.081-.274-.243-.678-.952-.968a4.592,4.592,0,0,0-2.9-.076,4.724,4.724,0,0,0-2.449,1.607c-.465.625-.546,1.15-.339,1.333Z" transform="translate(-207.516 -125.838)" fill="#263238"/>
              <path id="Path_903450" data-name="Path 903450" d="M214.828,148.343s1.431-9.172,4.854-12.09c4.146-3.535,7.428,1.288,11.6-1.135s8.129-5.805,13.558-3.383c5.938,2.651,4.234,6,5.938,11.808,6.9,23.579,12.717,29.277,11.264,17.713-.162-1.265,2.921-3.078,2.183-8.418-.959-6.917-2.641-15.183-5.237-19.61-2.183-3.733-5.075-5.965-9.8-8.03-7.465-3.268-16.162-1.188-21.908.907s-15.454,11.953-12.459,22.238Z" transform="translate(-205.987 -117.141)" fill="#263238"/>
              <path id="Path_903451" data-name="Path 903451" d="M277.794,171.441a3.706,3.706,0,0,1,2.951-4.426c2.456-.366,5.459.366,6.506,5.523,1.866,9.15-7.421,9.2-7.487,8.936-.044-.175-1.224-6.2-1.97-10.041Z" transform="translate(-222.637 -127.487)" fill="#ae7461"/>
              <path id="Path_903452" data-name="Path 903452" d="M281.9,178.572a3.123,3.123,0,0,0,.465.145,1.508,1.508,0,0,0,1.158-.229c.863-.556,1.343-2.263,1.047-3.923a5.455,5.455,0,0,0-.9-2.186,1.828,1.828,0,0,0-1.409-.975.8.8,0,0,0-.819.632c-.066.282.03.449-.015.48-.022.03-.221-.114-.229-.5a1.069,1.069,0,0,1,.229-.648,1.183,1.183,0,0,1,.8-.419,2.216,2.216,0,0,1,1.9,1.067,5.55,5.55,0,0,1,1.055,2.438c.317,1.859-.243,3.779-1.446,4.442a1.656,1.656,0,0,1-1.461.069c-.317-.168-.406-.358-.384-.381Z" transform="translate(-223.549 -128.439)" fill="#6f4439"/>
              <path id="Path_903453" data-name="Path 903453" d="M230.744,149.93l-.059.023a1.245,1.245,0,0,0-.155.053l.214-.076Z" transform="translate(-210.256 -123.437)" fill="#3e7dad"/>
              <path id="Path_903454" data-name="Path 903454" d="M203.926,129.854a7.782,7.782,0,0,1,4.146-5.836,14.006,14.006,0,0,1,7.089-1.417c-.922-3.268,2.073-6.582,5.318-7.184s6.5.686,9.553,1.95a8.489,8.489,0,0,1,12.415,1.067,7.765,7.765,0,0,1,7.664-1.539,8.14,8.14,0,0,1,5.119,6.087,6.149,6.149,0,0,1,5.407,3.192,6.569,6.569,0,0,1-.192,6.43,4.451,4.451,0,0,1-.376,8.388l-7.62-4.457a6.682,6.682,0,0,1-8.66-4.434,7.4,7.4,0,0,1-8.313-.122,5.774,5.774,0,0,1-3,4.335,5.431,5.431,0,0,1-5.156-.175,6.867,6.867,0,0,1-3.032,6.445,6.417,6.417,0,0,1-6.941-.145,5.967,5.967,0,0,1-7.952,1.265,6.431,6.431,0,0,1-1.763-8.106c-2.375-.541-3.932-3.245-3.688-5.744Z" transform="translate(-203.274 -115.154)" fill="#263238"/>
              <path id="Path_903455" data-name="Path 903455" d="M258.98,137.331a2.023,2.023,0,0,0,.325.716,4.515,4.515,0,0,0,4.809,1.859,4.9,4.9,0,0,0,3.157-2.613l-.516.1A5.484,5.484,0,0,0,276,134.81a5.747,5.747,0,0,0,.059-2.758,2.046,2.046,0,0,0-.384-.922,7.609,7.609,0,0,1-.118,3.543,5.336,5.336,0,0,1-2.206,2.925,5.137,5.137,0,0,1-4.3.434,5.035,5.035,0,0,1-1.844-1.12l-.325-.312-.192.411a4.373,4.373,0,0,1-2.722,2.339,4.032,4.032,0,0,1-2.877-.236,6.605,6.605,0,0,1-2.11-1.775Z" transform="translate(-217.72 -118.959)" fill="#455a64"/>
            </g>
            <path id="Path_903456" data-name="Path 903456" d="M250.926,193.465a8.3,8.3,0,0,0-2.154.861,9.077,9.077,0,0,0-1.638,1.684c-.044-.015,0-.3.221-.709a3.812,3.812,0,0,1,1.2-1.3,3.622,3.622,0,0,1,1.645-.6c.45-.038.723.03.723.084Z" transform="translate(-214.608 -133.786)" fill="#263238"/>
          </g>
          <g id="Group_1112632" data-name="Group 1112632" transform="translate(113.017 54.078)">
            <g id="Group_1112630" data-name="Group 1112630">
              <path id="Path_903457" data-name="Path 903457" d="M235.39,258.965l-1.689,2.278c-1.2.7-2.228.16-2.8-1.394L217,233.2l4.123-2.209,15.66,25.765A2.442,2.442,0,0,1,235.39,258.965Z" transform="translate(-192.633 -196.82)" fill="#455a64"/>
              <g id="Group_1112628" data-name="Group 1112628">
                <path id="Path_903458" data-name="Path 903458" d="M191.744,220.811a18.335,18.335,0,0,1-6.7-8.944,18.9,18.9,0,0,1,.627-14.147,18.035,18.035,0,0,1,10.128-9.546,17.784,17.784,0,0,1,22.941,11.1h0a18.9,18.9,0,0,1-.627,14.147,18.036,18.036,0,0,1-10.128,9.546A17.454,17.454,0,0,1,191.744,220.811Zm19.614-29.46A16.268,16.268,0,0,0,196.2,189.34a16.826,16.826,0,0,0-9.449,8.906,17.648,17.648,0,0,0-.583,13.195,16.967,16.967,0,0,0,8.623,9.759,16.107,16.107,0,0,0,12.776.6,16.826,16.826,0,0,0,9.449-8.906A17.648,17.648,0,0,0,217.6,199.7a17.073,17.073,0,0,0-6.248-8.342Z" transform="translate(-183.966 -186.359)" fill="#263238"/>
                <path id="Path_903459" data-name="Path 903459" d="M192.864,219.881a18.335,18.335,0,0,1-6.7-8.944,18.9,18.9,0,0,1,.627-14.147,18.035,18.035,0,0,1,10.128-9.546,17.784,17.784,0,0,1,22.941,11.1h0a18.9,18.9,0,0,1-.627,14.147,18.033,18.033,0,0,1-10.128,9.546,17.454,17.454,0,0,1-16.243-2.156Zm19.614-29.46a16.268,16.268,0,0,0-15.159-2.011,16.826,16.826,0,0,0-9.449,8.906,17.648,17.648,0,0,0-.583,13.195,16.967,16.967,0,0,0,8.623,9.759,16.107,16.107,0,0,0,12.776.6,16.826,16.826,0,0,0,9.449-8.906,17.648,17.648,0,0,0,.583-13.195,17.073,17.073,0,0,0-6.248-8.342Z" transform="translate(-184.26 -186.138)" fill="#455a64"/>
              </g>
              <path id="Path_903460" data-name="Path 903460" d="M202.5,229.188c.015-.046.8.343,2.161.663q.254.057.531.114c.184.038.384.053.583.091.406.069.841.091,1.3.122a14.551,14.551,0,0,0,2.973-.213,14.824,14.824,0,0,0,2.862-.861c.42-.19.826-.366,1.18-.571.177-.1.361-.19.516-.29s.317-.206.465-.3c1.165-.785,1.778-1.425,1.807-1.387a3.654,3.654,0,0,1-.428.442,4.245,4.245,0,0,1-.546.48,9.317,9.317,0,0,1-.76.579c-.148.1-.3.206-.465.312s-.339.2-.524.3a12.57,12.57,0,0,1-1.188.6,14.672,14.672,0,0,1-2.9.891,13.914,13.914,0,0,1-3.017.2c-.465-.038-.907-.061-1.313-.137-.207-.038-.406-.061-.59-.1s-.369-.091-.538-.13a7.849,7.849,0,0,1-.907-.274,5.875,5.875,0,0,1-.671-.259,3.253,3.253,0,0,1-.553-.267Z" transform="translate(-188.823 -195.765)" fill="#fff"/>
              <g id="Group_1112629" data-name="Group 1112629" transform="translate(23.135 34.537)">
                <path id="Path_903461" data-name="Path 903461" d="M260.268,261.053c-4.278-4.236-24.542-25.224-25.036-25.521-.62-.373-10.239-4.914-12.245-3.916s-7.657,7.146-7.657,7.146.133,4.152,4.832,1.615c3.585-1.935,4.138-2.24,4.2-2.27h0L229,239.676s-5.975,1.966-7.31,3.162-3.681,6.034-2.574,7.291a4.615,4.615,0,0,0,2.493,1.486s-2.678,3.276,1.365,5.767c0,0,.369,2.994,2.353,4.327s5.9,1.28,5.9,1.28a1.915,1.915,0,0,0,.708-2.88,5.981,5.981,0,0,0-3.629-2.415l3.216-1.562a14.106,14.106,0,0,1,3.747,2.743s6.44,7.154,9.405,5.325l4.19,5.15c3.194-2.011,11.411-8.3,11.411-8.3Z" transform="translate(-215.33 -231.472)" fill="#ae7461"/>
                <path id="Path_903462" data-name="Path 903462" d="M233.509,256.045a3.077,3.077,0,0,0-.457-.015,6.948,6.948,0,0,0-1.232.183,7.967,7.967,0,0,0-3.622,1.958,8.425,8.425,0,0,0-2.213,3.542,7.407,7.407,0,0,0-.288,1.249,1.761,1.761,0,0,0-.03.472c.044,0,.111-.663.465-1.668a8.79,8.79,0,0,1,2.213-3.428,8.423,8.423,0,0,1,3.5-1.966c1-.274,1.652-.282,1.652-.328Z" transform="translate(-218.04 -237.321)" fill="#6f4439"/>
                <path id="Path_903463" data-name="Path 903463" d="M233.643,249.1s-.177-.015-.487-.008a4.293,4.293,0,0,0-.568.046c-.221.03-.479.053-.752.114a10.847,10.847,0,0,0-1.9.549,12.714,12.714,0,0,0-2.161,1.12,13.2,13.2,0,0,0-1.9,1.562,11.773,11.773,0,0,0-1.284,1.554c-.17.229-.3.465-.413.655s-.207.373-.28.518a2.115,2.115,0,0,0-.2.465c.037.023.347-.625,1.018-1.539a12.406,12.406,0,0,1,3.172-3.017,15.508,15.508,0,0,1,2.213-1.272,9.575,9.575,0,0,1,1.763-.434c1.084-.244,1.778-.267,1.778-.312Z" transform="translate(-217.525 -235.668)" fill="#6f4439"/>
                <path id="Path_903464" data-name="Path 903464" d="M237.632,241.124a1.689,1.689,0,0,0-.627-.206,3.457,3.457,0,0,0-1.593.145,2.981,2.981,0,0,0-1.372.846c-.3.3-.413.533-.391.549a5.609,5.609,0,0,1,1.829-1.173,5.277,5.277,0,0,1,2.154-.16Z" transform="translate(-220.135 -233.713)" fill="#6f4439"/>
              </g>
            </g>
            <g id="Group_1112631" data-name="Group 1112631" transform="translate(10.217 9.736)" opacity="0.1">
              <path id="Path_903465" data-name="Path 903465" d="M218.769,200.6c-.369-.724-.878-1.486-1.652-1.646a2.019,2.019,0,0,0-2.043,1.135,6.343,6.343,0,0,0-.6,2.468,25.467,25.467,0,0,1-1.247,6.377,8.466,8.466,0,0,1-4.05,4.792,13.1,13.1,0,0,1-5.016.838,9.705,9.705,0,0,0-4.927,1.181.154.154,0,0,0-.044.03,3.211,3.211,0,0,0,.457,5.531,14.778,14.778,0,0,0,15.727-2.232,15.938,15.938,0,0,0,3.393-18.467Z" transform="translate(-197.817 -198.918)"/>
            </g>
            <path id="Path_903466" data-name="Path 903466" d="M324.521,290.553l-20.957,1.821h0c-4.832-3.3-38.52-30.275-39.5-30.984L255.3,271.766c18.382,23.015,31.262,39.821,46.737,51.629a15.083,15.083,0,0,0,23.332-7.961C326.948,310.224,324.521,290.553,324.521,290.553Z" transform="translate(-202.681 -204.06)" fill="#ae7461"/>
          </g>
          <g id="Group_1112633" data-name="Group 1112633" transform="translate(128.982 261.451)" opacity="0.3">
            <path id="Path_903467" data-name="Path 903467" d="M205.61,466.713s7.531,1.082,8.07,1.257c.177.053,20.418.053,20.418.053l-.531-9.683-23.015.526Z" transform="translate(-205.61 -458.34)"/>
          </g>
          <g id="Group_1112634" data-name="Group 1112634" transform="translate(129.513 252.895)" opacity="0.3">
            <path id="Path_903468" data-name="Path 903468" d="M206.33,455.109s7.642,1.63,8.07,1.257,19.356-.7,19.356-.7l-.531-7.771-23.044-.785-3.851,8Z" transform="translate(-206.33 -447.11)"/>
          </g>
          <g id="Group_1112635" data-name="Group 1112635" transform="translate(129.513 236.463)" opacity="0.3">
            <path id="Path_903469" data-name="Path 903469" d="M206.33,441.485s7.015.952,7.443.579,19.452.693,19.452.693L232.2,425.54l-22.144,6.186-3.718,9.759Z" transform="translate(-206.33 -425.54)"/>
          </g>
          <g id="Group_1112641" data-name="Group 1112641" transform="translate(0 115.7)">
            <path id="Path_903470" data-name="Path 903470" d="M109.43,267.355s50.632,80.975,47.077,136.064L186.713,422.5h22.152c-1.21-14.307-1.04-37.718-7.8-70.561-17.394-84.5-48.294-84.731-48.294-84.731l-43.337.137Z" transform="translate(-51.395 -267.069)" fill="#e0e0e0"/>
            <path id="Path_903471" data-name="Path 903471" d="M214.977,436.458,164.4,445.386a5.715,5.715,0,0,1-1.5,4.906,8.865,8.865,0,0,1-4.2,2.1,41.165,41.165,0,0,1-9.132,1.4,21.317,21.317,0,0,0-4.832.472,5.5,5.5,0,0,0-3.718,2.971c-.634,1.539-.089,5.508,3.762,5.508h51.363c-3.851,0-4.4-3.962-3.762-5.508a5.5,5.5,0,0,1,3.718-2.971,20.934,20.934,0,0,1,4.832-.472,41.231,41.231,0,0,0,9.132-1.4,8.936,8.936,0,0,0,4.2-2.1c1.114-1.15.952-11.908.716-13.843Z" transform="translate(-59.624 -307.376)" fill="#e0e0e0"/>
            <path id="Path_903472" data-name="Path 903472" d="M215.218,426.32l-49.732,7.618a5.715,5.715,0,0,1-1.5,4.906,8.866,8.866,0,0,1-4.2,2.1,41.168,41.168,0,0,1-9.132,1.4,21.32,21.32,0,0,0-4.832.472,5.5,5.5,0,0,0-3.718,2.971c-.634,1.539-.089,5.508,3.762,5.508h51.363c-3.851,0-4.4-3.962-3.762-5.508a5.5,5.5,0,0,1,3.718-2.971,20.933,20.933,0,0,1,4.832-.472,41.234,41.234,0,0,0,9.132-1.4,8.936,8.936,0,0,0,4.2-2.1C216.465,437.694,215.454,428.247,215.218,426.32Z" transform="translate(-59.91 -304.963)" fill="#e0e0e0"/>
            <path id="Path_903473" data-name="Path 903473" d="M214.726,423.86l-50.33,1.714a5.187,5.187,0,0,1-1.5,4.624,9.2,9.2,0,0,1-4.2,1.981,43.918,43.918,0,0,1-9.132,1.326,22.211,22.211,0,0,0-4.832.449,5.448,5.448,0,0,0-3.718,2.8,3.844,3.844,0,0,0,3.762,5.188l51.208-.594c-3.851,0-4.241-3.146-3.607-4.594a5.448,5.448,0,0,1,3.718-2.8,22.254,22.254,0,0,1,4.832-.449,43.485,43.485,0,0,0,9.132-1.326,9.123,9.123,0,0,0,4.2-1.981c1.114-1.082.7-4.525.465-6.338Z" transform="translate(-59.624 -304.377)" fill="#e0e0e0"/>
            <path id="Path_903474" data-name="Path 903474" d="M132.1,310.973s-5.923-13.241-7.074-16.9,1.807-5.7,4.6-7.908,13-3.055,13.492-1.188.332,4.586-1.151,4.754-7.074-.16-10.364,4.335c0,0,13.654-3.139,16.944,0s-2.8,4.327-2.8,4.327,1.807,3.055.162,3.908-10.7,2.72-10.7,2.72l-.162,1.356a25.887,25.887,0,0,1,7.406.51c2.958.853,4.278,4.076,4.278,4.076-.657,2.552-1.807,2.552-3.452,1.356a7.132,7.132,0,0,0-2.8-1.356s-2.633,3.4-4.441,3.565-3.946-3.565-3.946-3.565Z" transform="translate(-55.421 -271.056)" fill="#ae7461"/>
            <g id="Group_1112636" data-name="Group 1112636" transform="translate(81.736 0.141)" opacity="0.3">
              <path id="Path_903475" data-name="Path 903475" d="M158.718,267.21a42.563,42.563,0,0,0-8.63,30.473c1.815,18.574,1.785,39.2,1.785,39.2l-6.063-15.145-4.249-43.6,8.579-9.721,8.579-1.211Z" transform="translate(-141.56 -267.21)"/>
            </g>
            <g id="Group_1112640" data-name="Group 1112640">
              <g id="Group_1112637" data-name="Group 1112637" transform="translate(20.334)">
                <path id="Path_903476" data-name="Path 903476" d="M137.027,267.208H93.94s-17.792.389-17.792,36.606c0,46.914,10.43,62.935-17.268,89.714l44.709,5.8s21.148-2.1,21.126-41.185c-.007-17.835-.8-49.5-1.741-64.748-.686-11.115,7.251-25.43,14.052-26.192Z" transform="translate(-58.467 -267.066)" fill="#fff"/>
                <path id="Path_903477" data-name="Path 903477" d="M136.88,267.166c-.1.023-.28.061-.686.145a7.884,7.884,0,0,0-1.911.792,18,18,0,0,0-5.636,5.744,36.225,36.225,0,0,0-5.053,12c-1.328,5.043-.28,10.986-.14,17.53.553,13.111,1.018,28.866,1.232,46.617.022,4.434.148,9-.111,13.683a67.585,67.585,0,0,1-2.154,14.193,37.643,37.643,0,0,1-6.373,13.431,24.7,24.7,0,0,1-5.525,5.219,17.764,17.764,0,0,1-7.067,2.956h-.037c-12.909-1.676-26.489-3.428-40.431-5.241l-4.271-.556-.4-.053.3-.289c2.235-2.209,4.433-4.441,6.432-6.834a66.4,66.4,0,0,0,5.5-7.474,45.587,45.587,0,0,0,6.366-16.974,87.885,87.885,0,0,0,.708-17.659c-.229-5.79-.664-11.443-.981-16.966s-.583-10.917-.693-16.151q-.089-3.931-.081-7.74c.044-1.272.081-2.529.118-3.786s.052-2.491.214-3.718c.125-1.227.251-2.438.369-3.642a17.888,17.888,0,0,1,.273-1.783c.1-.587.214-1.173.317-1.76s.214-1.166.317-1.745.3-1.135.443-1.7.31-1.12.457-1.676a11.377,11.377,0,0,1,.516-1.638,26.235,26.235,0,0,1,6.705-11.039,15.35,15.35,0,0,1,5.023-3.245,11.254,11.254,0,0,1,2.774-.739c.959-.076,1.866-.023,2.788-.038,3.651,0,7.089.015,10.3.023,6.418.023,11.95.046,16.464.061,8.9.023,13.418.03,13.934.03-.516,0-5.082.015-14.06.038-4.507.015-10.017.038-16.413.069l-10.239.023a13.2,13.2,0,0,0-10.393,3.977,25.9,25.9,0,0,0-6.609,10.932,11.906,11.906,0,0,0-.509,1.63c-.148.549-.3,1.1-.45,1.668s-.325,1.112-.443,1.684-.207,1.15-.31,1.737-.207,1.166-.317,1.752a17.743,17.743,0,0,0-.273,1.775c-.118,1.2-.243,2.407-.361,3.626-.155,1.219-.162,2.453-.207,3.7s-.074,2.506-.118,3.771c0,2.537.03,5.12.089,7.733.125,5.234.376,10.62.708,16.143s.76,11.176,1,16.974a87.718,87.718,0,0,1-.708,17.743,46.005,46.005,0,0,1-6.41,17.118,66.547,66.547,0,0,1-5.532,7.519c-2.014,2.4-4.212,4.64-6.454,6.857l-.111-.343,4.271.556c13.942,1.813,27.522,3.573,40.431,5.249h-.044a17.561,17.561,0,0,0,6.9-2.895,24.3,24.3,0,0,0,5.444-5.142,37.177,37.177,0,0,0,6.314-13.286,67.627,67.627,0,0,0,2.154-14.117c.258-4.655.14-9.226.125-13.66-.192-17.743-.62-33.5-1.143-46.609-.14-3.276-.28-6.392-.457-9.325a27.987,27.987,0,0,1,.649-8.258,36.176,36.176,0,0,1,5.134-12.029,17.831,17.831,0,0,1,5.709-5.729,8.254,8.254,0,0,1,1.933-.769c.221-.046.391-.061.516-.084l.184-.03Z" transform="translate(-58.32 -267.025)" fill="#263238"/>
              </g>
              <g id="Group_1112638" data-name="Group 1112638" transform="translate(52.709 122.172)" opacity="0.3">
                <path id="Path_903478" data-name="Path 903478" d="M102.21,427.4h7.236s.391,9.927,8.136,9.249a6.01,6.01,0,0,1-3.851.823c-2.213-.289-9.11,1.463-11.522-10.079Z" transform="translate(-102.21 -427.39)"/>
              </g>
              <g id="Group_1112639" data-name="Group 1112639" transform="translate(0 117.159)">
                <path id="Path_903479" data-name="Path 903479" d="M30.794,420.83S29.651,435.053,46.8,435.907s48.242,0,48.242,0-10.8-2.011-10.8-14.14l-53.45-.929Z" transform="translate(-30.761 -420.815)" fill="#e0e0e0"/>
                <path id="Path_903480" data-name="Path 903480" d="M30.788,420.825s.081,0,.251-.008h.76c.693,0,1.682.015,2.965.023,2.611.03,6.388.084,11.124.137,9.538.145,22.911.35,38.358.579h.184v.19a14.762,14.762,0,0,0,2.685,8.807,13.985,13.985,0,0,0,7.959,5.135l1.468.35-1.5.038h-.1c-10.01.251-19.548.373-28.222.358-4.337-.008-8.461-.046-12.319-.137a104.529,104.529,0,0,1-10.725-.609,16.95,16.95,0,0,1-8.136-3.5,13.069,13.069,0,0,1-3.88-5.584,15.214,15.214,0,0,1-.885-4.266c-.03-.5-.03-.884-.022-1.135a1.949,1.949,0,0,1,.03-.389c0,.008,0,.13.007.389s.015.632.059,1.127a15.615,15.615,0,0,0,.944,4.221,12.87,12.87,0,0,0,3.873,5.47,16.788,16.788,0,0,0,8.048,3.405,106.027,106.027,0,0,0,10.689.564c3.858.076,7.974.1,12.311.1,8.675-.008,18.213-.137,28.215-.389h.1l-.03.4a14.566,14.566,0,0,1-4.581-1.943,13.262,13.262,0,0,1-3.614-3.344,15.086,15.086,0,0,1-2.751-9.043l.184.19c-15.395-.3-28.731-.564-38.232-.754-4.75-.107-8.542-.19-11.161-.251-1.3-.03-2.3-.061-3-.076-.332-.008-.59-.023-.782-.023a2.069,2.069,0,0,1-.273-.015Z" transform="translate(-30.754 -420.81)" fill="#263238"/>
              </g>
              <path id="Path_903481" data-name="Path 903481" d="M127.584,350.423c0,.206-3.887.373-8.682.373s-8.682-.168-8.682-.373,3.887-.373,8.682-.373S127.584,350.218,127.584,350.423Z" transform="translate(-51.602 -286.798)" fill="#263238"/>
              <path id="Path_903482" data-name="Path 903482" d="M93.08,350.493c0-.206,1.084-.373,2.419-.373s2.419.168,2.419.373-1.084.373-2.419.373S93.08,350.7,93.08,350.493Z" transform="translate(-47.106 -286.815)" fill="#263238"/>
              <path id="Path_903483" data-name="Path 903483" d="M129.044,341.833c0,.206-3.887.373-8.682.373s-8.682-.168-8.682-.373,3.887-.373,8.682-.373S129.044,341.628,129.044,341.833Z" transform="translate(-51.985 -284.753)" fill="#263238"/>
              <path id="Path_903484" data-name="Path 903484" d="M93.08,342.323c0-.206,1.084-.373,2.419-.373s2.419.168,2.419.373-1.084.373-2.419.373S93.08,342.529,93.08,342.323Z" transform="translate(-47.106 -284.869)" fill="#263238"/>
              <path id="Path_903485" data-name="Path 903485" d="M128.774,334.563c0,.206-3.887.373-8.682.373s-8.682-.168-8.682-.373,3.887-.373,8.682-.373S128.774,334.358,128.774,334.563Z" transform="translate(-51.915 -283.021)" fill="#263238"/>
              <path id="Path_903486" data-name="Path 903486" d="M93.08,334.643c0-.206,1.084-.373,2.419-.373s2.419.168,2.419.373-1.084.373-2.419.373S93.08,334.849,93.08,334.643Z" transform="translate(-47.106 -283.04)" fill="#263238"/>
              <path id="Path_903487" data-name="Path 903487" d="M127.854,326.033c0,.206-3.887.373-8.682.373s-8.682-.168-8.682-.373,3.887-.373,8.682-.373S127.854,325.828,127.854,326.033Z" transform="translate(-51.673 -280.99)" fill="#263238"/>
              <path id="Path_903488" data-name="Path 903488" d="M91.89,326.523c0-.206,1.084-.373,2.419-.373s2.419.168,2.419.373-1.084.373-2.419.373S91.89,326.729,91.89,326.523Z" transform="translate(-46.793 -281.106)" fill="#263238"/>
              <path id="Path_903489" data-name="Path 903489" d="M127.584,318.763c0,.206-3.887.373-8.682.373s-8.682-.168-8.682-.373,3.887-.373,8.682-.373S127.584,318.558,127.584,318.763Z" transform="translate(-51.602 -279.258)" fill="#263238"/>
              <path id="Path_903490" data-name="Path 903490" d="M91.89,318.833c0-.206,1.084-.373,2.419-.373s2.419.168,2.419.373-1.084.373-2.419.373S91.89,319.039,91.89,318.833Z" transform="translate(-46.793 -279.275)" fill="#263238"/>
              <path id="Path_903491" data-name="Path 903491" d="M126.754,310.233c0,.206-3.887.373-8.682.373s-8.682-.168-8.682-.373,3.887-.373,8.682-.373S126.754,310.028,126.754,310.233Z" transform="translate(-51.385 -277.227)" fill="#263238"/>
              <path id="Path_903492" data-name="Path 903492" d="M90.79,310.723c0-.206,1.084-.373,2.419-.373s2.419.168,2.419.373-1.084.373-2.419.373S90.79,310.929,90.79,310.723Z" transform="translate(-46.505 -277.343)" fill="#263238"/>
              <path id="Path_903493" data-name="Path 903493" d="M126.484,302.963c0,.206-3.887.373-8.682.373s-8.682-.168-8.682-.373,3.887-.373,8.682-.373S126.484,302.758,126.484,302.963Z" transform="translate(-51.314 -275.495)" fill="#263238"/>
              <path id="Path_903494" data-name="Path 903494" d="M127.934,295.513c0,.206-3.887.373-8.682.373s-8.682-.168-8.682-.373,3.887-.373,8.682-.373S127.934,295.308,127.934,295.513Z" transform="translate(-51.694 -273.721)" fill="#263238"/>
              <path id="Path_903495" data-name="Path 903495" d="M90.79,303.033c0-.206,1.084-.373,2.419-.373s2.419.168,2.419.373-1.084.373-2.419.373S90.79,303.239,90.79,303.033Z" transform="translate(-46.505 -275.512)" fill="#263238"/>
              <path id="Path_903496" data-name="Path 903496" d="M91.89,295.033c0-.206,1.084-.373,2.419-.373s2.419.168,2.419.373-1.084.373-2.419.373S91.89,295.239,91.89,295.033Z" transform="translate(-46.793 -273.606)" fill="#263238"/>
              <path id="Path_903497" data-name="Path 903497" d="M129.454,288.233c0,.206-3.887.373-8.682.373s-8.682-.168-8.682-.373,3.887-.373,8.682-.373S129.454,288.028,129.454,288.233Z" transform="translate(-52.093 -271.987)" fill="#263238"/>
              <path id="Path_903498" data-name="Path 903498" d="M93.41,287.753c0-.206,1.084-.373,2.419-.373s2.42.168,2.42.373-1.084.373-2.42.373S93.41,287.959,93.41,287.753Z" transform="translate(-47.192 -271.873)" fill="#263238"/>
              <path id="Path_903499" data-name="Path 903499" d="M130.974,280.953c0,.206-3.887.373-8.682.373s-8.682-.168-8.682-.373,3.887-.373,8.682-.373S130.974,280.748,130.974,280.953Z" transform="translate(-52.492 -270.253)" fill="#263238"/>
              <path id="Path_903500" data-name="Path 903500" d="M94.93,280.473c0-.206,1.084-.373,2.419-.373s2.419.168,2.419.373-1.084.373-2.419.373S94.93,280.679,94.93,280.473Z" transform="translate(-47.591 -270.139)" fill="#263238"/>
              <path id="Path_903501" data-name="Path 903501" d="M136.484,274.393c0,.206-3.887.373-8.682.373s-8.682-.168-8.682-.373,3.887-.373,8.682-.373S136.484,274.188,136.484,274.393Z" transform="translate(-53.937 -268.691)" fill="#263238"/>
              <path id="Path_903502" data-name="Path 903502" d="M100.43,273.913c0-.206,1.084-.373,2.419-.373s2.419.168,2.419.373-1.084.373-2.419.373S100.43,274.119,100.43,273.913Z" transform="translate(-49.034 -268.576)" fill="#263238"/>
              <path id="Path_903503" data-name="Path 903503" d="M127.584,359.793c0,.206-3.887.373-8.682.373s-8.682-.168-8.682-.373,3.887-.373,8.682-.373S127.584,359.588,127.584,359.793Z" transform="translate(-51.602 -289.03)" fill="#263238"/>
              <path id="Path_903504" data-name="Path 903504" d="M93.08,359.873c0-.206,1.084-.373,2.419-.373s2.419.168,2.419.373-1.084.373-2.419.373S93.08,360.079,93.08,359.873Z" transform="translate(-47.106 -289.049)" fill="#263238"/>
              <path id="Path_903505" data-name="Path 903505" d="M128.774,368.993c0,.206-3.887.373-8.682.373s-8.682-.168-8.682-.373,3.887-.373,8.682-.373S128.774,368.788,128.774,368.993Z" transform="translate(-51.915 -291.221)" fill="#263238"/>
              <path id="Path_903506" data-name="Path 903506" d="M94.26,369.073c0-.206,1.084-.373,2.419-.373s2.419.168,2.419.373-1.084.373-2.419.373S94.26,369.279,94.26,369.073Z" transform="translate(-47.415 -291.24)" fill="#263238"/>
              <path id="Path_903507" data-name="Path 903507" d="M129.144,376.933c0,.206-3.887.373-8.682.373s-8.682-.168-8.682-.373,3.887-.373,8.682-.373S129.144,376.728,129.144,376.933Z" transform="translate(-52.012 -293.112)" fill="#263238"/>
              <path id="Path_903508" data-name="Path 903508" d="M94.64,377.013c0-.206,1.084-.373,2.419-.373s2.419.168,2.419.373-1.084.373-2.419.373S94.64,377.219,94.64,377.013Z" transform="translate(-47.515 -293.131)" fill="#263238"/>
              <path id="Path_903509" data-name="Path 903509" d="M129.524,384.873c0,.206-3.887.373-8.682.373s-8.682-.168-8.682-.373,3.887-.373,8.682-.373S129.524,384.668,129.524,384.873Z" transform="translate(-52.111 -295.003)" fill="#263238"/>
              <path id="Path_903510" data-name="Path 903510" d="M95.01,384.953c0-.206,1.084-.373,2.419-.373s2.419.168,2.419.373-1.084.373-2.419.373S95.01,385.159,95.01,384.953Z" transform="translate(-47.612 -295.022)" fill="#263238"/>
              <path id="Path_903511" data-name="Path 903511" d="M129.894,392.823c0,.206-3.887.373-8.682.373s-8.682-.168-8.682-.373,3.887-.373,8.682-.373S129.894,392.618,129.894,392.823Z" transform="translate(-52.208 -296.897)" fill="#263238"/>
              <path id="Path_903512" data-name="Path 903512" d="M95.38,392.893c0-.206,1.084-.373,2.419-.373s2.419.168,2.419.373-1.084.373-2.419.373S95.38,393.1,95.38,392.893Z" transform="translate(-47.709 -296.913)" fill="#263238"/>
              <path id="Path_903513" data-name="Path 903513" d="M130.034,400.543c0,.206-3.887.373-8.682.373s-8.682-.168-8.682-.373,3.887-.373,8.682-.373S130.034,400.338,130.034,400.543Z" transform="translate(-52.245 -298.735)" fill="#263238"/>
              <path id="Path_903514" data-name="Path 903514" d="M95.52,400.613c0-.206,1.084-.373,2.419-.373s2.419.168,2.419.373-1.084.373-2.419.373S95.52,400.819,95.52,400.613Z" transform="translate(-47.746 -298.752)" fill="#263238"/>
              <path id="Path_903515" data-name="Path 903515" d="M128.774,408.223c0,.206-3.887.373-8.682.373s-8.682-.168-8.682-.373,3.887-.373,8.682-.373S128.774,408.018,128.774,408.223Z" transform="translate(-51.915 -300.564)" fill="#263238"/>
              <path id="Path_903516" data-name="Path 903516" d="M94.26,408.3c0-.206,1.084-.373,2.419-.373s2.419.168,2.419.373-1.084.373-2.419.373S94.26,408.509,94.26,408.3Z" transform="translate(-47.415 -300.583)" fill="#263238"/>
              <path id="Path_903517" data-name="Path 903517" d="M125.754,416.383c0,.206-3.887.373-8.682.373s-8.682-.168-8.682-.373,3.887-.373,8.682-.373S125.754,416.178,125.754,416.383Z" transform="translate(-51.122 -302.508)" fill="#263238"/>
              <path id="Path_903518" data-name="Path 903518" d="M91.24,416.463c0-.206,1.084-.373,2.419-.373s2.419.168,2.419.373-1.084.373-2.419.373S91.24,416.669,91.24,416.463Z" transform="translate(-46.623 -302.527)" fill="#263238"/>
              <path id="Path_903519" data-name="Path 903519" d="M123.484,423.813c0,.206-3.887.373-8.682.373s-8.682-.168-8.682-.373,3.887-.373,8.682-.373S123.484,423.608,123.484,423.813Z" transform="translate(-50.527 -304.277)" fill="#263238"/>
            </g>
            <path id="Path_903520" data-name="Path 903520" d="M217.99,447.767a1.625,1.625,0,0,1-.184.008c-.14,0-.317-.008-.531-.015l-2.029-.091c-1.763-.091-4.308-.206-7.465-.328-6.3-.244-15.011-.419-24.637-.373s-18.338.221-24.645.312l-7.472.091H149c-.214,0-.384,0-.531-.008a.456.456,0,0,1-.177-.015,1.065,1.065,0,0,1,.177-.023c.14-.008.317-.015.531-.03.494-.015,1.173-.046,2.029-.076,1.8-.053,4.337-.122,7.465-.213,6.307-.16,15.019-.381,24.652-.427s18.345.168,24.645.488c3.15.16,5.7.312,7.458.457.856.069,1.534.122,2.029.168.214.023.384.038.524.053a.654.654,0,0,1,.177.03Z" transform="translate(-61.59 -309.787)" fill="#263238"/>
            <path id="Path_903521" data-name="Path 903521" d="M217.24,458.8c0,.107-14.2.244-31.712.3s-31.719.015-31.719-.091,14.2-.244,31.719-.3S217.24,458.7,217.24,458.8Z" transform="translate(-63.038 -312.671)" fill="#263238"/>
            <path id="Path_903522" data-name="Path 903522" d="M215.864,427.4s.184.038.531.137c.376.122.878.282,1.5.48.332.107.686.229,1.084.35.369.145.9.213,1.195.739a.722.722,0,0,1-.184.83,1.806,1.806,0,0,1-.752.4l-1.7.411a69.753,69.753,0,0,1-8.483,1.3c-3.216.3-6.764.457-10.482.533-7.421.1-14.141.2-19.053.267-2.4.015-4.367.023-5.776.03-.649,0-1.173-.008-1.571-.008a2.14,2.14,0,0,1-.546-.03,2.519,2.519,0,0,1,.546-.046c.4-.015.915-.038,1.571-.061,1.409-.038,3.364-.091,5.776-.16,4.913-.1,11.625-.229,19.053-.381,3.718-.076,7.258-.213,10.46-.5a75.774,75.774,0,0,0,8.461-1.2c.59-.13,1.158-.259,1.689-.381a1.664,1.664,0,0,0,.664-.328.5.5,0,0,0,.148-.571c-.192-.381-.679-.51-1.055-.655s-.745-.267-1.07-.388l-1.475-.549a4.136,4.136,0,0,1-.509-.213Z" transform="translate(-67.711 -305.218)" fill="#263238"/>
          </g>
        </g>
      </g>
    </g>
  </g>
</svg>
