<svg xmlns="http://www.w3.org/2000/svg" xmlns:xlink="http://www.w3.org/1999/xlink" width="457" height="417" viewBox="0 0 457 417">
  <defs>
    <clipPath id="clip-path">
      <rect id="Rectangle_406565" data-name="Rectangle 406565" width="443.23" height="394.341" fill="none"/>
    </clipPath>
    <clipPath id="clip-path-5">
      <rect id="Rectangle_406515" data-name="Rectangle 406515" width="23.671" height="24.876" fill="none"/>
    </clipPath>
    <clipPath id="clip-path-7">
      <rect id="Rectangle_406517" data-name="Rectangle 406517" width="42.243" height="42.116" fill="none"/>
    </clipPath>
    <clipPath id="clip-path-9">
      <rect id="Rectangle_406520" data-name="Rectangle 406520" width="191.36" height="153.598" fill="none"/>
    </clipPath>
    <clipPath id="clip-path-10">
      <rect id="Rectangle_406521" data-name="Rectangle 406521" width="43.496" height="73.763" fill="none"/>
    </clipPath>
    <clipPath id="clip-path-11">
      <rect id="Rectangle_406522" data-name="Rectangle 406522" width="5.994" height="5.994" fill="none"/>
    </clipPath>
    <clipPath id="clip-path-14">
      <rect id="Rectangle_406525" data-name="Rectangle 406525" width="18.516" height="4.485" fill="none"/>
    </clipPath>
    <clipPath id="clip-path-15">
      <rect id="Rectangle_406526" data-name="Rectangle 406526" width="26.591" height="4.485" fill="none"/>
    </clipPath>
    <clipPath id="clip-path-16">
      <rect id="Rectangle_406527" data-name="Rectangle 406527" width="18.967" height="4.485" fill="none"/>
    </clipPath>
    <clipPath id="clip-path-18">
      <rect id="Rectangle_406529" data-name="Rectangle 406529" width="121.706" height="37.561" fill="none"/>
    </clipPath>
    <clipPath id="clip-path-20">
      <rect id="Rectangle_406531" data-name="Rectangle 406531" width="40.334" height="38.862" fill="none"/>
    </clipPath>
    <clipPath id="clip-path-21">
      <rect id="Rectangle_406532" data-name="Rectangle 406532" width="4.424" height="4.423" fill="none"/>
    </clipPath>
    <clipPath id="clip-path-24">
      <rect id="Rectangle_406535" data-name="Rectangle 406535" width="109.981" height="109.981" fill="none"/>
    </clipPath>
    <clipPath id="clip-path-25">
      <rect id="Rectangle_406536" data-name="Rectangle 406536" width="7.106" height="14.561" fill="none"/>
    </clipPath>
    <clipPath id="clip-path-26">
      <rect id="Rectangle_406537" data-name="Rectangle 406537" width="8.109" height="4.696" fill="none"/>
    </clipPath>
    <clipPath id="clip-path-27">
      <rect id="Rectangle_406538" data-name="Rectangle 406538" width="4.39" height="3.166" fill="none"/>
    </clipPath>
    <clipPath id="clip-path-28">
      <rect id="Rectangle_406539" data-name="Rectangle 406539" width="27.195" height="22.489" fill="none"/>
    </clipPath>
    <clipPath id="clip-path-31">
      <rect id="Rectangle_406542" data-name="Rectangle 406542" width="47.035" height="8.345" fill="none"/>
    </clipPath>
    <clipPath id="clip-path-32">
      <rect id="Rectangle_406543" data-name="Rectangle 406543" width="11.425" height="43.445" fill="none"/>
    </clipPath>
    <clipPath id="clip-path-33">
      <rect id="Rectangle_406544" data-name="Rectangle 406544" width="49.901" height="80.16" fill="none"/>
    </clipPath>
    <clipPath id="clip-path-34">
      <rect id="Rectangle_406545" data-name="Rectangle 406545" width="7.697" height="15.322" fill="none"/>
    </clipPath>
    <clipPath id="clip-path-35">
      <rect id="Rectangle_406546" data-name="Rectangle 406546" width="21.545" height="36.027" fill="none"/>
    </clipPath>
    <clipPath id="clip-path-36">
      <rect id="Rectangle_406547" data-name="Rectangle 406547" width="2.893" height="17.639" fill="none"/>
    </clipPath>
    <clipPath id="clip-path-37">
      <rect id="Rectangle_406548" data-name="Rectangle 406548" width="9.846" height="5.876" fill="none"/>
    </clipPath>
    <clipPath id="clip-path-38">
      <rect id="Rectangle_406549" data-name="Rectangle 406549" width="4.823" height="4.634" fill="none"/>
    </clipPath>
    <clipPath id="clip-path-39">
      <rect id="Rectangle_406550" data-name="Rectangle 406550" width="9.35" height="4.859" fill="none"/>
    </clipPath>
    <clipPath id="clip-path-40">
      <rect id="Rectangle_406551" data-name="Rectangle 406551" width="5.241" height="6.192" fill="none"/>
    </clipPath>
    <clipPath id="clip-path-41">
      <rect id="Rectangle_406552" data-name="Rectangle 406552" width="16.254" height="47.583" fill="none"/>
    </clipPath>
    <clipPath id="clip-path-42">
      <rect id="Rectangle_406553" data-name="Rectangle 406553" width="27.982" height="32.731" fill="none"/>
    </clipPath>
    <clipPath id="clip-path-43">
      <rect id="Rectangle_406554" data-name="Rectangle 406554" width="7.911" height="8.179" fill="none"/>
    </clipPath>
    <clipPath id="clip-path-45">
      <rect id="Rectangle_406556" data-name="Rectangle 406556" width="18.616" height="58.389" fill="none"/>
    </clipPath>
    <clipPath id="clip-path-46">
      <rect id="Rectangle_406557" data-name="Rectangle 406557" width="11.224" height="10.175" fill="none"/>
    </clipPath>
    <clipPath id="clip-path-47">
      <rect id="Rectangle_406558" data-name="Rectangle 406558" width="7.221" height="7.292" fill="none"/>
    </clipPath>
    <clipPath id="clip-path-48">
      <rect id="Rectangle_406559" data-name="Rectangle 406559" width="2.96" height="4.098" fill="none"/>
    </clipPath>
    <clipPath id="clip-path-49">
      <rect id="Rectangle_406560" data-name="Rectangle 406560" width="12.03" height="8.67" fill="none"/>
    </clipPath>
    <clipPath id="clip-path-50">
      <rect id="Rectangle_406561" data-name="Rectangle 406561" width="5.643" height="22.227" fill="none"/>
    </clipPath>
    <clipPath id="clip-path-51">
      <rect id="Rectangle_406562" data-name="Rectangle 406562" width="8.919" height="5.478" fill="none"/>
    </clipPath>
    <clipPath id="clip-path-52">
      <rect id="Rectangle_406563" data-name="Rectangle 406563" width="7.578" height="23.348" fill="none"/>
    </clipPath>
  </defs>
  <g id="Group_1114808" data-name="Group 1114808" transform="translate(-228 -1335)">
    <rect id="Rectangle_406777" data-name="Rectangle 406777" width="457" height="417" transform="translate(228 1335)" fill="#fff"/>
    <g id="Group_1114617" data-name="Group 1114617" transform="translate(224 1351.829)">
      <g id="Group_1114616" data-name="Group 1114616" transform="translate(5 -3)" clip-path="url(#clip-path)">
        <g id="Group_1114476" data-name="Group 1114476">
          <g id="Group_1114475" data-name="Group 1114475" clip-path="url(#clip-path)">
            <path id="Path_907182" data-name="Path 907182" d="M422.733,257.7H262.508a5.2,5.2,0,0,1-5.2-5.2V19.121a5.2,5.2,0,0,1,5.2-5.2H422.733a5.2,5.2,0,0,1,5.2,5.2V252.5a5.2,5.2,0,0,1-5.2,5.2M262.508,14.147a4.98,4.98,0,0,0-4.975,4.975V252.5a4.98,4.98,0,0,0,4.975,4.975H422.733a4.98,4.98,0,0,0,4.975-4.975V19.121a4.98,4.98,0,0,0-4.975-4.975Z" transform="translate(-29.215 -1.581)" fill="#e0e0e0"/>
            <path id="Path_907183" data-name="Path 907183" d="M214.306,257.7H54.08a5.2,5.2,0,0,1-5.2-5.2V19.121a5.2,5.2,0,0,1,5.2-5.2H214.306a5.2,5.2,0,0,1,5.2,5.2V252.5a5.2,5.2,0,0,1-5.2,5.2M54.08,14.147a4.981,4.981,0,0,0-4.975,4.975V252.5a4.98,4.98,0,0,0,4.975,4.975H214.306a4.98,4.98,0,0,0,4.975-4.975V19.121a4.981,4.981,0,0,0-4.975-4.975Z" transform="translate(-5.55 -1.581)" fill="#e0e0e0"/>
            <rect id="Rectangle_406504" data-name="Rectangle 406504" width="443.23" height="0.222" transform="translate(0 275.911)" fill="#e0e0e0"/>
            <rect id="Rectangle_406505" data-name="Rectangle 406505" width="14.237" height="0.222" transform="translate(45.805 288.556)" fill="#e0e0e0"/>
            <rect id="Rectangle_406506" data-name="Rectangle 406506" width="47.452" height="0.222" transform="translate(151.01 286.154)" fill="#e0e0e0"/>
            <rect id="Rectangle_406507" data-name="Rectangle 406507" width="32.134" height="0.222" transform="translate(60.928 296.792)" fill="#e0e0e0"/>
            <rect id="Rectangle_406508" data-name="Rectangle 406508" width="38.286" height="0.222" transform="translate(335.394 286.039)" fill="#e0e0e0"/>
            <rect id="Rectangle_406509" data-name="Rectangle 406509" width="5.611" height="0.222" transform="translate(381.579 286.039)" fill="#e0e0e0"/>
            <rect id="Rectangle_406510" data-name="Rectangle 406510" width="47.771" height="0.222" transform="translate(280.31 291.561)" fill="#e0e0e0"/>
            <path id="Path_907184" data-name="Path 907184" d="M258.57,312.22a25.682,25.682,0,0,0-2.664,9.237l-4.88,1.012,1.06,9.551,4.985-.083a25.657,25.657,0,0,0,4.626,8.427l-2.728,4.155,7.5,6,3.455-3.572a25.687,25.687,0,0,0,9.237,2.663l1.012,4.881,9.551-1.062-.083-4.983a25.69,25.69,0,0,0,8.427-4.626l4.155,2.727,6-7.5-3.572-3.455a25.664,25.664,0,0,0,2.663-9.236l4.88-1.013-1.06-9.551-4.984.083a25.661,25.661,0,0,0-4.626-8.426l2.727-4.155-7.5-6-3.455,3.572a25.676,25.676,0,0,0-9.236-2.664l-1.012-4.88L273.5,294.38l.084,4.983a25.682,25.682,0,0,0-8.427,4.626L261,301.262l-6,7.5Zm31.07,1.437a12.313,12.313,0,1,1-17.307,1.923,12.314,12.314,0,0,1,17.307-1.923" transform="translate(-28.501 -33.303)" fill="#f0f0f0"/>
            <path id="Path_907185" data-name="Path 907185" d="M204.18,309.95a18.594,18.594,0,0,0-1.93,6.691l-3.535.733.769,6.919,3.611-.06a18.6,18.6,0,0,0,3.351,6.105l-1.976,3.01L209.9,337.7l2.5-2.588a18.622,18.622,0,0,0,6.692,1.93l.733,3.535,6.919-.769-.06-3.611a18.584,18.584,0,0,0,6.1-3.351l3.01,1.976,4.349-5.436-2.588-2.5a18.594,18.594,0,0,0,1.929-6.691l3.535-.733-.769-6.919-3.61.06a18.6,18.6,0,0,0-3.351-6.1l1.975-3.01-5.436-4.349-2.5,2.588a18.623,18.623,0,0,0-6.691-1.93l-.733-3.535-6.919.769.06,3.61a18.576,18.576,0,0,0-6.1,3.351l-3.01-1.976-4.349,5.437Zm22.508,1.041a8.92,8.92,0,1,1-12.538,1.393,8.921,8.921,0,0,1,12.538-1.393" transform="translate(-22.562 -33.637)" fill="#f0f0f0"/>
            <path id="Path_907186" data-name="Path 907186" d="M235.281,351.092a7.639,7.639,0,0,0-.792,2.745l-1.45.3.316,2.838,1.48-.025a7.628,7.628,0,0,0,1.375,2.5l-.81,1.234,2.229,1.784,1.026-1.061a7.635,7.635,0,0,0,2.744.791l.3,1.45,2.838-.315-.025-1.481a7.607,7.607,0,0,0,2.5-1.374l1.234.81,1.784-2.229-1.062-1.027a7.639,7.639,0,0,0,.793-2.744l1.448-.3-.314-2.838-1.48.025a7.65,7.65,0,0,0-1.376-2.5l.81-1.235-2.229-1.784-1.026,1.062a7.643,7.643,0,0,0-2.745-.793l-.3-1.449-2.838.316.025,1.48a7.635,7.635,0,0,0-2.5,1.374l-1.235-.81-1.784,2.229Zm9.232.427a3.659,3.659,0,1,1-5.143.571,3.659,3.659,0,0,1,5.143-.571" transform="translate(-26.459 -39.225)" fill="#f0f0f0"/>
            <path id="Path_907187" data-name="Path 907187" d="M453.645,190.7a37.927,37.927,0,1,1-43.9-30.812,37.927,37.927,0,0,1,43.9,30.812" transform="translate(-42.958 -18.088)" fill="#ebebeb"/>
            <path id="Path_907188" data-name="Path 907188" d="M447.343,192.912a30.574,30.574,0,1,1-35.391-24.838,30.573,30.573,0,0,1,35.391,24.838" transform="translate(-43.9 -19.03)" fill="#fff"/>
            <path id="Path_907189" data-name="Path 907189" d="M439.474,195.674A21.39,21.39,0,1,1,414.713,178.3a21.391,21.391,0,0,1,24.762,17.378" transform="translate(-45.076 -20.207)" fill="#f0f0f0"/>
            <path id="Path_907190" data-name="Path 907190" d="M432.746,198.035a13.538,13.538,0,1,1-15.672-11,13.538,13.538,0,0,1,15.672,11" transform="translate(-46.082 -21.213)" fill="#e0e0e0"/>
            <path id="Path_907191" data-name="Path 907191" d="M425.7,200.375a5.34,5.34,0,1,1-6.18-4.337,5.338,5.338,0,0,1,6.18,4.337" transform="translate(-47.13 -22.249)" fill="#f0f0f0"/>
            <path id="Path_907192" data-name="Path 907192" d="M460.123,170.293l.03-1.519a3.8,3.8,0,0,1,1.409-2.882l4.555-3.69-.907,4.146Z" transform="translate(-52.242 -18.416)" fill="#ebebeb"/>
            <path id="Path_907193" data-name="Path 907193" d="M460.081,170.63l1.449.453a3.807,3.807,0,0,0,3.181-.423l4.944-3.151-4.221-.453Z" transform="translate(-52.237 -18.967)" fill="#ebebeb"/>
            <path id="Path_907194" data-name="Path 907194" d="M421.441,197.948l13.842-10.736,22.052-17.1,5.047-3.913c.675-.524-.272-1.459-.941-.941L447.6,175.992l-22.052,17.1-5.047,3.914c-.675.524.272,1.459.941.941" transform="translate(-47.717 -18.746)" fill="#e0e0e0"/>
            <path id="Path_907195" data-name="Path 907195" d="M92.206,71.663s12.333,10.887,15.666,1.649a31.839,31.839,0,0,1,2.313-6.289c1.7-3.5,3.667-9.3-2.591-13.343A139.744,139.744,0,0,0,92.31,45.573L80.54,62.555a21.48,21.48,0,0,1,5.639,11.871c.76,6.285.262,8.3,1.03,8.243s2.948-.879,4.34-4.154a12.974,12.974,0,0,0,.657-6.852" transform="translate(-9.144 -5.174)" fill="#f0f0f0"/>
            <rect id="Rectangle_406511" data-name="Rectangle 406511" width="25.949" height="15.617" transform="translate(57.236 50.637) rotate(-55.277)" fill="#e0e0e0"/>
            <path id="Path_907196" data-name="Path 907196" d="M154.487,18.547s-19.122-11-21.027,2.028a42.612,42.612,0,0,1-1.355,8.884c-1.292,5.055-2.329,13.2,6.979,16.839a187.419,187.419,0,0,0,22.251,6.56l10.919-25.467A28.8,28.8,0,0,1,161.666,13.3C158.984,5.247,159.1,2.471,158.1,2.746s-3.637,1.946-4.59,6.621a17.387,17.387,0,0,0,.972,9.18" transform="translate(-14.905 -0.31)" fill="#f0f0f0"/>
            <rect id="Rectangle_406512" data-name="Rectangle 406512" width="34.797" height="20.943" transform="matrix(0.394, -0.919, 0.919, 0.394, 144.802, 55.881)" fill="#e0e0e0"/>
            <path id="Path_907197" data-name="Path 907197" d="M263.328,137.758a14.972,14.972,0,0,0-1.556,5.392l-2.849.591.62,5.576,2.909-.048a15,15,0,0,0,2.7,4.92l-1.593,2.425,4.382,3.505,2.017-2.086a14.979,14.979,0,0,0,5.393,1.555l.59,2.85,5.577-.62-.049-2.909a14.983,14.983,0,0,0,4.92-2.7l2.426,1.592,3.505-4.381-2.086-2.018a14.987,14.987,0,0,0,1.555-5.392l2.849-.591-.619-5.576-2.91.048a15.006,15.006,0,0,0-2.7-4.92L290,132.546l-4.382-3.505-2.017,2.086a14.994,14.994,0,0,0-5.392-1.556l-.591-2.849-5.577.62.049,2.91a14.973,14.973,0,0,0-4.92,2.7l-2.425-1.592-3.505,4.381Zm18.141.839a7.189,7.189,0,1,1-10.1,1.122,7.189,7.189,0,0,1,10.1-1.122" transform="translate(-29.398 -14.388)" fill="#f0f0f0"/>
            <path id="Path_907198" data-name="Path 907198" d="M37.911,214.458a14.989,14.989,0,0,0-1.556,5.392l-2.849.591.62,5.577,2.909-.049a14.992,14.992,0,0,0,2.7,4.92l-1.593,2.425,4.382,3.505,2.017-2.086a14.978,14.978,0,0,0,5.393,1.555l.59,2.85,5.577-.62-.049-2.909a14.983,14.983,0,0,0,4.92-2.7L63.4,234.5,66.9,230.12,64.818,228.1a14.987,14.987,0,0,0,1.555-5.392l2.849-.591-.619-5.576-2.91.048a14.993,14.993,0,0,0-2.7-4.919l1.592-2.426L60.2,205.741l-2.017,2.086a14.975,14.975,0,0,0-5.392-1.555l-.591-2.85-5.577.62.049,2.91a14.989,14.989,0,0,0-4.92,2.7L39.33,208.06l-3.505,4.381Zm18.141.839a7.189,7.189,0,1,1-10.1,1.122,7.19,7.19,0,0,1,10.1-1.122" transform="translate(-3.804 -23.096)" fill="#f0f0f0"/>
            <path id="Path_907199" data-name="Path 907199" d="M233.095,144.75a7.62,7.62,0,0,0-.792,2.744l-1.45.3.315,2.838,1.481-.025a7.629,7.629,0,0,0,1.374,2.5l-.81,1.235,2.229,1.784,1.027-1.061a7.641,7.641,0,0,0,2.744.791l.3,1.45,2.838-.315-.025-1.481a7.642,7.642,0,0,0,2.5-1.374l1.234.81,1.784-2.229-1.061-1.027a7.637,7.637,0,0,0,.792-2.744l1.449-.3-.315-2.838-1.481.025a7.613,7.613,0,0,0-1.374-2.5l.81-1.235-2.229-1.784-1.027,1.062a7.619,7.619,0,0,0-2.744-.792l-.3-1.45-2.838.316.025,1.48a7.629,7.629,0,0,0-2.5,1.374l-1.235-.81-1.784,2.229Zm9.232.427a3.659,3.659,0,1,1-5.142.571,3.658,3.658,0,0,1,5.142-.571" transform="translate(-26.211 -15.797)" fill="#f0f0f0"/>
            <path id="Path_907200" data-name="Path 907200" d="M207.5,112.22a7.619,7.619,0,0,0-.792,2.744l-1.45.3.316,2.838,1.48-.025a7.629,7.629,0,0,0,1.374,2.5l-.81,1.235,2.23,1.784,1.027-1.061a7.636,7.636,0,0,0,2.744.791l.3,1.45,2.838-.315-.025-1.481a7.641,7.641,0,0,0,2.5-1.374l1.234.81,1.784-2.229-1.061-1.027a7.619,7.619,0,0,0,.792-2.744l1.449-.3-.315-2.838-1.481.025a7.613,7.613,0,0,0-1.374-2.5l.81-1.235-2.229-1.784-1.027,1.062a7.619,7.619,0,0,0-2.744-.792l-.3-1.45-2.838.316.025,1.48a7.638,7.638,0,0,0-2.5,1.374l-1.235-.81-1.784,2.229Zm9.232.427a3.659,3.659,0,1,1-5.142.572,3.659,3.659,0,0,1,5.142-.572" transform="translate(-23.305 -12.104)" fill="#e0e0e0"/>
          </g>
        </g>
        <g id="Group_1114478" data-name="Group 1114478">
          <g id="Group_1114477" data-name="Group 1114477" clip-path="url(#clip-path)">
            <path id="Path_907201" data-name="Path 907201" d="M419.622,433.952c0,4.791-85.279,8.675-190.477,8.675S38.67,438.743,38.67,433.952s85.279-8.675,190.476-8.675,190.477,3.884,190.477,8.675" transform="translate(-4.391 -48.286)" fill="#f5f5f5"/>
          </g>
        </g>
        <g id="Group_1114483" data-name="Group 1114483">
          <g id="Group_1114482" data-name="Group 1114482" clip-path="url(#clip-path)">
            <path id="Path_907202" data-name="Path 907202" d="M293.963,393.613a9,9,0,0,0,5.481-2.493,17.2,17.2,0,0,0,3.551-4.97,32.057,32.057,0,0,0,3.416-15.767,8.762,8.762,0,0,0-.67-3.408,3.621,3.621,0,0,0-2.6-2.123c-1.723-.249-3.226,1.128-4.321,2.482a32.182,32.182,0,0,0-7.011,22.075c.125,1.93.769,3.794,2.154,4.2" transform="translate(-33.124 -41.422)" fill="#407bff"/>
            <path id="Path_907203" data-name="Path 907203" d="M281.027,381.9a15.891,15.891,0,0,0,.693-11.343,22.186,22.186,0,0,0-6.222-9.663c-3.1-2.907-7.083-5.14-11.333-5.163a6.046,6.046,0,0,0-4.886,1.908c-1.184,1.523-1.087,3.689-.566,5.546a19.9,19.9,0,0,0,4.813,8.059,57.8,57.8,0,0,0,7.171,6.178c2.822,2.171,5.872,4.417,9.421,4.688" transform="translate(-29.332 -40.389)" fill="#407bff"/>
            <path id="Path_907204" data-name="Path 907204" d="M280.676,397.1c-.5-3.924-3.549-7.169-7.112-8.885s-7.6-2.137-11.553-2.335a7.559,7.559,0,0,0-2.621.186,2.668,2.668,0,0,0-1.851,1.727c-.3,1.115.411,2.234,1.151,3.12A22.848,22.848,0,0,0,276.549,399a6.409,6.409,0,0,0,2.3-.385A2.663,2.663,0,0,0,280.435,397" transform="translate(-29.233 -43.809)" fill="#407bff"/>
            <path id="Path_907205" data-name="Path 907205" d="M302.164,368.087a229.949,229.949,0,0,0-13.391,45.857c-.076.418.565.6.641.177A229.954,229.954,0,0,1,302.8,368.263c.162-.4-.48-.567-.641-.176" transform="translate(-32.786 -41.767)" fill="#263238"/>
            <path id="Path_907206" data-name="Path 907206" d="M286.224,408.449a68.074,68.074,0,0,0-2.408-21.487,48.419,48.419,0,0,0-10.263-18.529,56.052,56.052,0,0,0-10.176-8.828c-.354-.243-.687.333-.336.574a51.423,51.423,0,0,1,15.679,16.51,52.111,52.111,0,0,1,6.359,19.716,78.09,78.09,0,0,1,.48,12.043c-.013.428.652.427.665,0" transform="translate(-29.849 -40.823)" fill="#263238"/>
            <path id="Path_907207" data-name="Path 907207" d="M285.883,401.558a38.392,38.392,0,0,0-22.111-12.67c-.418-.074-.6.566-.176.641a37.829,37.829,0,0,1,21.818,12.5c.279.324.748-.147.47-.47" transform="translate(-29.901 -44.153)" fill="#263238"/>
            <path id="Path_907208" data-name="Path 907208" d="M274.312,419.386v-8.494h23.663v8.494s.455,15.017-7.889,16.382H282.2c-8.342-1.365-7.887-16.382-7.887-16.382" transform="translate(-31.145 -46.652)" fill="#407bff"/>
            <g id="Group_1114481" data-name="Group 1114481" transform="translate(243.163 364.239)" opacity="0.5">
              <g id="Group_1114480" data-name="Group 1114480">
                <g id="Group_1114479" data-name="Group 1114479" clip-path="url(#clip-path-5)">
                  <path id="Path_907209" data-name="Path 907209" d="M274.312,419.386v-8.494h23.663v8.494s.455,15.017-7.889,16.382H282.2c-8.342-1.365-7.887-16.382-7.887-16.382" transform="translate(-274.308 -410.892)"/>
                </g>
              </g>
            </g>
          </g>
        </g>
        <g id="Group_1114488" data-name="Group 1114488">
          <g id="Group_1114487" data-name="Group 1114487" clip-path="url(#clip-path)">
            <path id="Path_907210" data-name="Path 907210" d="M155.485,354.386s-19.581,7.043-11.37,16.363a40.242,40.242,0,0,1,5.564,6.4c2.849,4.013,8.075,9.728,16.371,5.253a176.836,176.836,0,0,0,18.3-12.005L172.688,347a27.167,27.167,0,0,1-16.6-.98c-7.43-2.985-9.357-4.762-9.766-3.879s-.82,3.8,1.962,7.343a16.413,16.413,0,0,0,7.2,4.9" transform="translate(-16.134 -38.821)" fill="#407bff"/>
            <g id="Group_1114486" data-name="Group 1114486" transform="translate(125.969 303.093)" opacity="0.6">
              <g id="Group_1114485" data-name="Group 1114485">
                <g id="Group_1114484" data-name="Group 1114484" clip-path="url(#clip-path-7)">
                  <path id="Path_907211" data-name="Path 907211" d="M155.485,354.386s-19.581,7.043-11.37,16.363a40.242,40.242,0,0,1,5.564,6.4c2.849,4.013,8.075,9.728,16.371,5.253a176.836,176.836,0,0,0,18.3-12.005L172.688,347a27.167,27.167,0,0,1-16.6-.98c-7.43-2.985-9.357-4.762-9.766-3.879s-.82,3.8,1.962,7.343a16.413,16.413,0,0,0,7.2,4.9" transform="translate(-142.103 -341.914)" fill="#fff"/>
                </g>
              </g>
            </g>
            <rect id="Rectangle_406518" data-name="Rectangle 406518" width="19.755" height="32.823" transform="translate(154.974 305.401) rotate(-26.493)" fill="#407bff"/>
            <path id="Path_907212" data-name="Path 907212" d="M189.985,346.324a2.41,2.41,0,1,1-2.41-2.41,2.41,2.41,0,0,1,2.41,2.41" transform="translate(-21.023 -39.048)" fill="#fff"/>
          </g>
        </g>
        <g id="Group_1114514" data-name="Group 1114514">
          <g id="Group_1114513" data-name="Group 1114513" clip-path="url(#clip-path)">
            <path id="Path_907213" data-name="Path 907213" d="M317.21,301.58H136.694a5.423,5.423,0,0,1-5.422-5.422V153.4a5.422,5.422,0,0,1,5.422-5.422H317.21a5.422,5.422,0,0,1,5.423,5.422V296.157a5.423,5.423,0,0,1-5.423,5.422" transform="translate(-14.905 -16.802)" fill="#407bff"/>
            <g id="Group_1114491" data-name="Group 1114491" transform="translate(116.368 131.18)" opacity="0.6">
              <g id="Group_1114490" data-name="Group 1114490">
                <g id="Group_1114489" data-name="Group 1114489" clip-path="url(#clip-path-9)">
                  <path id="Path_907214" data-name="Path 907214" d="M317.21,301.58H136.694a5.423,5.423,0,0,1-5.422-5.422V153.4a5.422,5.422,0,0,1,5.422-5.422H317.21a5.422,5.422,0,0,1,5.423,5.422V296.157a5.423,5.423,0,0,1-5.423,5.422" transform="translate(-131.272 -147.982)" fill="#fff"/>
                </g>
              </g>
            </g>
            <path id="Path_907215" data-name="Path 907215" d="M315.107,205.371H203.342a2.162,2.162,0,0,1-2.163-2.162V176.435a2.162,2.162,0,0,1,2.163-2.162H315.107a2.162,2.162,0,0,1,2.162,2.162v26.774a2.162,2.162,0,0,1-2.162,2.162" transform="translate(-22.842 -19.787)" fill="#407bff"/>
            <path id="Path_907216" data-name="Path 907216" d="M204.838,231H315.8a1.33,1.33,0,0,0,0-2.659H204.838a1.33,1.33,0,0,0,0,2.659" transform="translate(-23.111 -25.925)" fill="#263238"/>
            <path id="Path_907217" data-name="Path 907217" d="M204.838,239.045H315.8a1.33,1.33,0,0,0,0-2.659H204.838a1.33,1.33,0,0,0,0,2.659" transform="translate(-23.111 -26.839)" fill="#263238"/>
            <path id="Path_907218" data-name="Path 907218" d="M204.838,272.617H315.8a1.33,1.33,0,0,0,0-2.659H204.838a1.33,1.33,0,0,0,0,2.659" transform="translate(-23.111 -30.651)" fill="#263238"/>
            <path id="Path_907219" data-name="Path 907219" d="M204.838,281.377H315.8a1.33,1.33,0,0,0,0-2.659H204.838a1.33,1.33,0,0,0,0,2.659" transform="translate(-23.111 -31.645)" fill="#263238"/>
            <path id="Path_907220" data-name="Path 907220" d="M204.838,289.356h67.153a1.33,1.33,0,0,0,0-2.659H204.838a1.33,1.33,0,0,0,0,2.659" transform="translate(-23.111 -32.551)" fill="#263238"/>
            <path id="Path_907221" data-name="Path 907221" d="M204.838,264.574H315.8a1.33,1.33,0,0,0,0-2.659H204.838a1.33,1.33,0,0,0,0,2.659" transform="translate(-23.111 -29.738)" fill="#263238"/>
            <path id="Path_907222" data-name="Path 907222" d="M204.838,247.092h56.384a1.33,1.33,0,0,0,0-2.659H204.838a1.33,1.33,0,0,0,0,2.659" transform="translate(-23.111 -27.753)" fill="#263238"/>
            <g id="Group_1114494" data-name="Group 1114494" transform="translate(129.391 194.182)" opacity="0.4">
              <g id="Group_1114493" data-name="Group 1114493">
                <g id="Group_1114492" data-name="Group 1114492" clip-path="url(#clip-path-10)">
                  <path id="Path_907223" data-name="Path 907223" d="M184.91,292.816H150.515a4.551,4.551,0,0,1-4.551-4.551V223.6a4.551,4.551,0,0,1,4.551-4.55H184.91a4.551,4.551,0,0,1,4.551,4.55v64.661a4.551,4.551,0,0,1-4.551,4.551" transform="translate(-145.964 -219.053)" fill="#407bff"/>
                </g>
              </g>
            </g>
            <path id="Path_907224" data-name="Path 907224" d="M182.2,189.863a15.235,15.235,0,1,1-15.236-15.235A15.234,15.234,0,0,1,182.2,189.863" transform="translate(-17.227 -19.827)" fill="#407bff"/>
            <g id="Group_1114497" data-name="Group 1114497" transform="translate(123.397 138.067)" opacity="0.4">
              <g id="Group_1114496" data-name="Group 1114496">
                <g id="Group_1114495" data-name="Group 1114495" clip-path="url(#clip-path-11)">
                  <path id="Path_907225" data-name="Path 907225" d="M145.2,158.748a3,3,0,1,1-3-3,3,3,0,0,1,3,3" transform="translate(-139.202 -155.751)" fill="#407bff"/>
                </g>
              </g>
            </g>
            <g id="Group_1114500" data-name="Group 1114500" transform="translate(131.502 138.067)" opacity="0.4">
              <g id="Group_1114499" data-name="Group 1114499">
                <g id="Group_1114498" data-name="Group 1114498" clip-path="url(#clip-path-11)">
                  <path id="Path_907226" data-name="Path 907226" d="M154.339,158.748a3,3,0,1,1-3-3,3,3,0,0,1,3,3" transform="translate(-148.345 -155.751)" fill="#407bff"/>
                </g>
              </g>
            </g>
            <g id="Group_1114503" data-name="Group 1114503" transform="translate(139.606 138.067)" opacity="0.4">
              <g id="Group_1114502" data-name="Group 1114502">
                <g id="Group_1114501" data-name="Group 1114501" clip-path="url(#clip-path-11)">
                  <path id="Path_907227" data-name="Path 907227" d="M163.481,158.748a3,3,0,1,1-3-3,3,3,0,0,1,3,3" transform="translate(-157.487 -155.751)" fill="#407bff"/>
                </g>
              </g>
            </g>
            <path id="Path_907228" data-name="Path 907228" d="M202.792,192.413a48.509,48.509,0,0,1,19.83-7,15.8,15.8,0,0,1,9.795,1.753c2.639,1.589,4.852,4.5,4.451,7.727a4.194,4.194,0,0,1-2.914,3.63,2.97,2.97,0,0,1-3.473-1.422c-1.32-2.312-.337-5.142,1.465-6.867,4.681-4.482,11.746-2.533,16.871-.1,5.719,2.713,11.7,6.531,18.322,5.361a8.875,8.875,0,0,0,6.325-4.112,5.4,5.4,0,0,0-.734-6.238,4.057,4.057,0,0,0-5.758-.445,5.761,5.761,0,0,0-1.079,6.918c2.359,5.01,8.746,7.359,13.948,6.161,5.7-1.315,9.274-6.4,13.863-9.581a18.9,18.9,0,0,1,16.907-2.185,18.091,18.091,0,0,1,4.05,2.052c.714.477,1.38-.675.671-1.148a20.27,20.27,0,0,0-16.365-2.619,20.482,20.482,0,0,0-7.414,3.858c-2.329,1.843-4.393,4.008-6.795,5.762a13,13,0,0,1-8.344,2.836,11.6,11.6,0,0,1-7.954-3.7,6.48,6.48,0,0,1-1.924-4.76,3.561,3.561,0,0,1,2.713-3.267,3.165,3.165,0,0,1,3.138,1.951,4,4,0,0,1-.223,3.993c-1.688,2.751-5.295,3.556-8.294,3.385-3.58-.2-6.963-1.686-10.13-3.259-5.384-2.674-11.122-5.931-17.349-4.556-4.5.993-9.139,5.069-7.54,10.119a4.433,4.433,0,0,0,5.012,3.248,5.623,5.623,0,0,0,4.38-5.651c.059-6.137-6.224-9.766-11.635-10.228a31.108,31.108,0,0,0-10.448,1.274,53.456,53.456,0,0,0-9.49,3.5c-1.557.747-3.072,1.575-4.55,2.467a.665.665,0,0,0,.671,1.148" transform="translate(-22.913 -20.846)" fill="#fff"/>
            <g id="Group_1114506" data-name="Group 1114506" transform="translate(179.796 189.697)" opacity="0.4">
              <g id="Group_1114505" data-name="Group 1114505">
                <g id="Group_1114504" data-name="Group 1114504" clip-path="url(#clip-path-14)">
                  <path id="Path_907229" data-name="Path 907229" d="M220.165,218.479H204a1.174,1.174,0,0,1-1.175-1.175v-2.136A1.174,1.174,0,0,1,204,213.993h16.166a1.174,1.174,0,0,1,1.175,1.175V217.3a1.174,1.174,0,0,1-1.175,1.175" transform="translate(-202.824 -213.994)" fill="#407bff"/>
                </g>
              </g>
            </g>
            <g id="Group_1114509" data-name="Group 1114509" transform="translate(202.372 189.697)" opacity="0.4">
              <g id="Group_1114508" data-name="Group 1114508">
                <g id="Group_1114507" data-name="Group 1114507" clip-path="url(#clip-path-15)">
                  <path id="Path_907230" data-name="Path 907230" d="M253.71,218.479H229.467a1.174,1.174,0,0,1-1.175-1.175v-2.136a1.174,1.174,0,0,1,1.175-1.175H253.71a1.174,1.174,0,0,1,1.174,1.175V217.3a1.174,1.174,0,0,1-1.174,1.175" transform="translate(-228.292 -213.994)" fill="#407bff"/>
                </g>
              </g>
            </g>
            <g id="Group_1114512" data-name="Group 1114512" transform="translate(233.137 189.697)" opacity="0.4">
              <g id="Group_1114511" data-name="Group 1114511">
                <g id="Group_1114510" data-name="Group 1114510" clip-path="url(#clip-path-16)">
                  <path id="Path_907231" data-name="Path 907231" d="M280.789,218.479H264.171A1.174,1.174,0,0,1,263,217.3v-2.136a1.174,1.174,0,0,1,1.174-1.175h16.618a1.174,1.174,0,0,1,1.175,1.175V217.3a1.174,1.174,0,0,1-1.175,1.175" transform="translate(-262.997 -213.994)" fill="#407bff"/>
                </g>
              </g>
            </g>
          </g>
        </g>
        <g id="Group_1114519" data-name="Group 1114519">
          <g id="Group_1114518" data-name="Group 1114518" clip-path="url(#clip-path)">
            <path id="Path_907232" data-name="Path 907232" d="M238.636,124.915H127.158a5.114,5.114,0,0,1-5.114-5.114V92.468a5.114,5.114,0,0,1,5.114-5.114H238.636a5.114,5.114,0,0,1,5.114,5.114V119.8a5.114,5.114,0,0,1-5.114,5.114" transform="translate(-13.857 -9.918)" fill="#407bff"/>
            <path id="Path_907233" data-name="Path 907233" d="M238.636,124.915H127.158a5.114,5.114,0,0,1-5.114-5.114V92.468a5.114,5.114,0,0,1,5.114-5.114H238.636a5.114,5.114,0,0,1,5.114,5.114V119.8a5.114,5.114,0,0,1-5.114,5.114" transform="translate(-13.857 -9.918)" fill="#407bff"/>
            <g id="Group_1114517" data-name="Group 1114517" transform="translate(108.187 77.436)" opacity="0.6">
              <g id="Group_1114516" data-name="Group 1114516">
                <g id="Group_1114515" data-name="Group 1114515" clip-path="url(#clip-path-18)">
                  <path id="Path_907234" data-name="Path 907234" d="M238.636,124.915H127.158a5.114,5.114,0,0,1-5.114-5.114V92.468a5.114,5.114,0,0,1,5.114-5.114H238.636a5.114,5.114,0,0,1,5.114,5.114V119.8a5.114,5.114,0,0,1-5.114,5.114" transform="translate(-122.044 -87.354)" fill="#fff"/>
                </g>
              </g>
            </g>
            <path id="Path_907235" data-name="Path 907235" d="M144.164,96.706l2.479,5.024a1.475,1.475,0,0,0,1.11.807l5.544.806a1.475,1.475,0,0,1,.817,2.516l-4.011,3.909a1.476,1.476,0,0,0-.424,1.306l.947,5.522a1.475,1.475,0,0,1-2.14,1.555l-4.959-2.607a1.473,1.473,0,0,0-1.372,0l-4.959,2.607a1.475,1.475,0,0,1-2.14-1.555l.948-5.522a1.479,1.479,0,0,0-.425-1.306l-4.011-3.909a1.475,1.475,0,0,1,.817-2.516l5.544-.806a1.474,1.474,0,0,0,1.11-.807l2.479-5.024a1.475,1.475,0,0,1,2.645,0" transform="translate(-14.887 -10.887)" fill="#407bff"/>
            <path id="Path_907236" data-name="Path 907236" d="M175.786,96.706l2.479,5.024a1.474,1.474,0,0,0,1.11.807l5.544.806a1.475,1.475,0,0,1,.817,2.516l-4.011,3.909a1.479,1.479,0,0,0-.425,1.306l.948,5.522a1.475,1.475,0,0,1-2.14,1.555l-4.959-2.607a1.473,1.473,0,0,0-1.372,0l-4.959,2.607a1.475,1.475,0,0,1-2.14-1.555l.948-5.522a1.479,1.479,0,0,0-.425-1.306l-4.011-3.909a1.475,1.475,0,0,1,.817-2.516l5.544-.806a1.475,1.475,0,0,0,1.11-.807l2.479-5.024a1.475,1.475,0,0,1,2.645,0" transform="translate(-18.478 -10.887)" fill="#407bff"/>
            <path id="Path_907237" data-name="Path 907237" d="M207.407,96.706l2.479,5.024a1.474,1.474,0,0,0,1.11.807l5.544.806a1.475,1.475,0,0,1,.817,2.516l-4.011,3.909a1.479,1.479,0,0,0-.425,1.306l.948,5.522a1.475,1.475,0,0,1-2.14,1.555l-4.959-2.607a1.473,1.473,0,0,0-1.372,0l-4.959,2.607a1.475,1.475,0,0,1-2.14-1.555l.948-5.522a1.479,1.479,0,0,0-.425-1.306l-4.011-3.909a1.475,1.475,0,0,1,.817-2.516l5.544-.806a1.475,1.475,0,0,0,1.11-.807l2.479-5.024a1.475,1.475,0,0,1,2.645,0" transform="translate(-22.068 -10.887)" fill="#407bff"/>
            <path id="Path_907238" data-name="Path 907238" d="M239.028,96.706l2.479,5.024a1.474,1.474,0,0,0,1.11.807l5.544.806a1.475,1.475,0,0,1,.817,2.516l-4.011,3.909a1.479,1.479,0,0,0-.425,1.306l.948,5.522a1.475,1.475,0,0,1-2.14,1.555l-4.959-2.607a1.473,1.473,0,0,0-1.372,0l-4.959,2.607a1.475,1.475,0,0,1-2.14-1.555l.947-5.522a1.476,1.476,0,0,0-.424-1.306l-4.011-3.909a1.475,1.475,0,0,1,.817-2.516l5.544-.806a1.475,1.475,0,0,0,1.11-.807l2.479-5.024a1.475,1.475,0,0,1,2.645,0" transform="translate(-25.658 -10.887)" fill="#407bff"/>
          </g>
        </g>
        <g id="Group_1114527" data-name="Group 1114527">
          <g id="Group_1114526" data-name="Group 1114526" clip-path="url(#clip-path)">
            <path id="Path_907239" data-name="Path 907239" d="M439.416,110.225c3.471-1.664,4.714-6.488,2.994-9.932s-5.774-5.349-9.618-5.157a16.05,16.05,0,0,0-10.172,4.908,8.729,8.729,0,0,0-11.717-1.3c-3.363,2.649-2.8,8.077-.276,11.551a7.309,7.309,0,0,0,5.347,13.594,10.077,10.077,0,0,0,20.145.441,7.4,7.4,0,1,0,3.3-14.108" transform="translate(-46.128 -10.8)" fill="#407bff"/>
            <path id="Path_907240" data-name="Path 907240" d="M415.056,133.818a2.212,2.212,0,1,1-2.212-2.212,2.212,2.212,0,0,1,2.212,2.212" transform="translate(-46.623 -14.942)" fill="#407bff"/>
            <g id="Group_1114522" data-name="Group 1114522" transform="translate(360.142 84.322)" opacity="0.6">
              <g id="Group_1114521" data-name="Group 1114521">
                <g id="Group_1114520" data-name="Group 1114520" clip-path="url(#clip-path-20)">
                  <path id="Path_907241" data-name="Path 907241" d="M439.416,110.225c3.471-1.664,4.714-6.488,2.994-9.932s-5.774-5.349-9.618-5.157a16.05,16.05,0,0,0-10.172,4.908,8.729,8.729,0,0,0-11.717-1.3c-3.363,2.649-2.8,8.077-.276,11.551a7.309,7.309,0,0,0,5.347,13.594,10.077,10.077,0,0,0,20.145.441,7.4,7.4,0,1,0,3.3-14.108" transform="translate(-406.269 -95.122)" fill="#fff"/>
                </g>
              </g>
            </g>
            <g id="Group_1114525" data-name="Group 1114525" transform="translate(364.009 116.664)" opacity="0.6">
              <g id="Group_1114524" data-name="Group 1114524">
                <g id="Group_1114523" data-name="Group 1114523" clip-path="url(#clip-path-21)">
                  <path id="Path_907242" data-name="Path 907242" d="M415.056,133.818a2.212,2.212,0,1,1-2.212-2.212,2.212,2.212,0,0,1,2.212,2.212" transform="translate(-410.632 -131.606)" fill="#fff"/>
                </g>
              </g>
            </g>
            <path id="Path_907243" data-name="Path 907243" d="M427.777,116.64a10.231,10.231,0,0,1,1.351-1.737,8.906,8.906,0,0,0,.956-1.169,1.946,1.946,0,0,0,.306-1.078,1.692,1.692,0,0,0-.582-1.355,2.3,2.3,0,0,0-1.548-.5,3.023,3.023,0,0,0-1.645.452,3.766,3.766,0,0,0-1.213,1.261l-2.385-1.644a5.911,5.911,0,0,1,2.237-2.293,6.585,6.585,0,0,1,3.341-.811,5.522,5.522,0,0,1,3.637,1.136,3.867,3.867,0,0,1,1.37,3.15,4.789,4.789,0,0,1-.266,1.667,4.56,4.56,0,0,1-.651,1.215q-.384.5-.995,1.147a9.21,9.21,0,0,0-1.065,1.285,2.282,2.282,0,0,0-.336,1.262h-2.976a3.883,3.883,0,0,1,.463-1.992m-.314,7.02a1.829,1.829,0,0,1-.543-1.338,1.782,1.782,0,0,1,.532-1.316,2.015,2.015,0,0,1,2.721,0,1.782,1.782,0,0,1,.532,1.316,1.9,1.9,0,0,1-3.241,1.338" transform="translate(-48.029 -12.236)" fill="#407bff"/>
          </g>
        </g>
        <g id="Group_1114529" data-name="Group 1114529">
          <g id="Group_1114528" data-name="Group 1114528" clip-path="url(#clip-path)">
            <path id="Path_907244" data-name="Path 907244" d="M84.1,121.487H62.7a8.084,8.084,0,0,1-8.084-8.084V99.562A8.084,8.084,0,0,1,62.7,91.478H84.1a8.084,8.084,0,0,1,8.084,8.084V113.4a8.084,8.084,0,0,1-8.084,8.084" transform="translate(-6.201 -10.386)" fill="#407bff"/>
            <path id="Path_907245" data-name="Path 907245" d="M82.239,108.838a2.606,2.606,0,1,0,2.606-2.605,2.606,2.606,0,0,0-2.606,2.605" transform="translate(-9.337 -12.062)" fill="#fff"/>
            <path id="Path_907246" data-name="Path 907246" d="M72,108.838a2.606,2.606,0,1,0,2.606-2.605A2.606,2.606,0,0,0,72,108.838" transform="translate(-8.175 -12.062)" fill="#fff"/>
            <path id="Path_907247" data-name="Path 907247" d="M61.838,108.838a2.606,2.606,0,1,0,2.605-2.605,2.605,2.605,0,0,0-2.605,2.605" transform="translate(-7.021 -12.062)" fill="#fff"/>
            <path id="Path_907248" data-name="Path 907248" d="M83.948,123.813l6.134,6.134,1.259-7.84Z" transform="translate(-9.531 -13.864)" fill="#407bff"/>
          </g>
        </g>
        <g id="Group_1114546" data-name="Group 1114546">
          <g id="Group_1114545" data-name="Group 1114545" clip-path="url(#clip-path)">
            <path id="Path_907249" data-name="Path 907249" d="M384.914,64.919a54.99,54.99,0,1,1-54.99-54.991,54.99,54.99,0,0,1,54.99,54.991" transform="translate(-31.216 -1.127)" fill="#407bff"/>
            <g id="Group_1114532" data-name="Group 1114532" transform="translate(243.717 8.801)" opacity="0.7">
              <g id="Group_1114531" data-name="Group 1114531">
                <g id="Group_1114530" data-name="Group 1114530" clip-path="url(#clip-path-24)">
                  <path id="Path_907250" data-name="Path 907250" d="M384.914,64.919a54.99,54.99,0,1,1-54.99-54.991,54.99,54.99,0,0,1,54.99,54.991" transform="translate(-274.933 -9.928)" fill="#fff"/>
                </g>
              </g>
            </g>
            <path id="Path_907251" data-name="Path 907251" d="M350.75,55.139l-12.387-2.718L326.168,52c-.018-.324-12.942.336-14.406,2.71-1.08,1.753-2.966,40.889-4.943,63.161,8.324,5.07,16.187,6.877,26.645,6.877a54.763,54.763,0,0,0,22.935-5.014c-.809-15.738-2.039-41.733-1.673-47.916a32.642,32.642,0,0,0-3.977-16.678" transform="translate(-34.836 -5.895)" fill="#407bff"/>
            <path id="Path_907252" data-name="Path 907252" d="M307.4,76.842c-.626,1.042-8.945,24.931-20.616,23.826-10.315-.977-22.758-24.756-22.758-24.756l4.967-4.979s13.464,15.987,17.282,16.69c3.193.589,14.354-21.781,14.354-21.781Z" transform="translate(-29.977 -7.476)" fill="#fdbbb5"/>
            <path id="Path_907253" data-name="Path 907253" d="M253.518,68.51a5.766,5.766,0,0,1,.88-1.2,3.762,3.762,0,0,1-.342-.981c-.044-.93.832-1.634,1.687-2.022-.223-.244-.182-2.315,1.556-2.169-.615-1.128.929-2.828,2.427-2.087.684.339,3.461,2.571,4.277,3.09a7.746,7.746,0,0,1,1.869-3.466,3.355,3.355,0,0,1,1.955-.827c.483.067.217.588.248,1.069a15.237,15.237,0,0,1-.613,2.124c-.651,3.929-.1,6.183.608,9.449L263.1,75.775c-3.458-2.089-3.315-2.651-7.3-4.313-1.431-.6-2.564-1.52-2.281-2.952" transform="translate(-28.779 -6.681)" fill="#fdbbb5"/>
            <path id="Path_907254" data-name="Path 907254" d="M257.767,62.668a13.032,13.032,0,0,0,1.627,1.066,4.7,4.7,0,0,0,1.754.7,1.357,1.357,0,0,0,1.289-.7,1.96,1.96,0,0,0,.037-1.682c-.092-.237-.478-.134-.385.105a1.557,1.557,0,0,1-.048,1.456,1.052,1.052,0,0,1-1.316.321,8.515,8.515,0,0,1-1.412-.7,13.066,13.066,0,0,1-1.345-.906c-.2-.155-.4.191-.2.344" transform="translate(-29.257 -7.03)" fill="#ff7d74"/>
            <path id="Path_907255" data-name="Path 907255" d="M260.21,64.744a1.036,1.036,0,0,1,.276,1.279,1.069,1.069,0,0,1-1.229.49,7.288,7.288,0,0,1-1.549-.689c-.517-.269-1.022-.56-1.517-.87-.218-.137-.418.208-.2.344a21.376,21.376,0,0,0,1.907,1.069,3.4,3.4,0,0,0,1.916.57,1.4,1.4,0,0,0,.68-2.474c-.194-.166-.478.115-.282.281" transform="translate(-29.054 -7.313)" fill="#ff7d74"/>
            <path id="Path_907256" data-name="Path 907256" d="M258.787,67.319a1.109,1.109,0,0,1-.7,2.026,5.3,5.3,0,0,1-1.659-.507l-1.746-.668c-.24-.092-.344.293-.106.385l2.239.857a2.59,2.59,0,0,0,1.927.215,1.521,1.521,0,0,0,.246-2.651c-.211-.147-.41.2-.2.344" transform="translate(-28.889 -7.6)" fill="#ff7d74"/>
            <path id="Path_907257" data-name="Path 907257" d="M257.8,69.981a.858.858,0,0,1,.308.806,1.05,1.05,0,0,1-.537.757,2.3,2.3,0,0,1-2.259-.246.2.2,0,0,0-.2.345,2.616,2.616,0,0,0,2.768.178,1.437,1.437,0,0,0,.629-1.034,1.226,1.226,0,0,0-.425-1.088.206.206,0,0,0-.282,0,.2.2,0,0,0,0,.282" transform="translate(-28.954 -7.907)" fill="#ff7d74"/>
            <path id="Path_907258" data-name="Path 907258" d="M264.7,64.473a5.879,5.879,0,0,0-1.269,7.168c.121.227.465.026.344-.2a5.477,5.477,0,0,1,1.206-6.685c.192-.17-.09-.451-.281-.282" transform="translate(-29.831 -7.314)" fill="#ff7d74"/>
            <path id="Path_907259" data-name="Path 907259" d="M322.614,60.558c-2.02,6.644-11.153,25.581-11.153,25.581l-17.218-9.69s7.113-14.317,12.517-19.7c8.288-6.58,18.459-4.759,15.854,3.81" transform="translate(-33.408 -5.992)" fill="#407bff"/>
            <g id="Group_1114535" data-name="Group 1114535" transform="translate(267.948 62.898)" opacity="0.2" style="isolation: isolate">
              <g id="Group_1114534" data-name="Group 1114534">
                <g id="Group_1114533" data-name="Group 1114533" clip-path="url(#clip-path-25)">
                  <path id="Path_907260" data-name="Path 907260" d="M307.594,85.515l1.778-14.561-7.1,11.563Z" transform="translate(-302.267 -70.954)"/>
                </g>
              </g>
            </g>
            <path id="Path_907261" data-name="Path 907261" d="M328.757,38.989l13.228-7.038c-.1.949-.132,2.769-.905,3.779-6.772,8.845-1.521,14.387-1.521,14.387-3.572,2.635-11.511,3.863-13.089-.286a30.365,30.365,0,0,0,2.287-10.842" transform="translate(-37.067 -3.628)" fill="#fdbbb5"/>
            <g id="Group_1114538" data-name="Group 1114538" transform="translate(290.519 38.351)" opacity="0.2">
              <g id="Group_1114537" data-name="Group 1114537">
                <g id="Group_1114536" data-name="Group 1114536" clip-path="url(#clip-path-26)">
                  <path id="Path_907262" data-name="Path 907262" d="M328.411,44.439l7.427-1.176c-.811,2.234-3,4.8-8.109,4.692a22.523,22.523,0,0,0,.683-3.516" transform="translate(-327.729 -43.263)"/>
                </g>
              </g>
            </g>
            <path id="Path_907263" data-name="Path 907263" d="M319.512,13.567c-1.688,2.846-1.386,10.184,3.388,9.138s-.488-14.029-3.388-9.138" transform="translate(-36.171 -1.416)" fill="#263238"/>
            <path id="Path_907264" data-name="Path 907264" d="M341.478,23.293c-1.38,8.008-2,12.552-6.526,16.206-19.515,12.061-23.325-24.215-7.47-29.023a11.211,11.211,0,0,1,14,12.816" transform="translate(-36.062 -1.142)" fill="#fdbbb5"/>
            <path id="Path_907265" data-name="Path 907265" d="M349.054,14.965s-7.283-1.021-8.508-1.113-2.472,4.27-2.3,5.689,2.094,2.043,2.043,3.392c-.061,1.154-2,4.524-1.307,6.079.786.623,5.117-1.964,5.117-1.964l2.535.927s7.27-9.742,2.418-13.011" transform="translate(-38.402 -1.573)" fill="#263238"/>
            <path id="Path_907266" data-name="Path 907266" d="M346.675,14.338c.766-.684,1.583-1.87.684-4.086,0,.6-.766,1.317-1.236,1.573-.47-1.828-2.85-4.974-9.53-6.465-8.222-1.829-10.376.95-12.777-.286s.6-2.186.6-2.186-4.148-.96-5.485,2.176-.183,8.64,7.15,8.294,8.764,2.042,12.461,1.45a61.846,61.846,0,0,1,8.131-.47" transform="translate(-36.157 -0.312)" fill="#263238"/>
            <path id="Path_907267" data-name="Path 907267" d="M346.282,32.163c-1.416,4.212-8.754,6.508-7.815.217.54-6.124,9.648-7.63,7.815-.217" transform="translate(-38.42 -3.085)" fill="#fdbbb5"/>
            <path id="Path_907268" data-name="Path 907268" d="M330.833,25.783c0,1.961-2,1.909-1.967-.033,0-1.961,2-1.909,1.967.033" transform="translate(-37.339 -2.759)" fill="#263238"/>
            <path id="Path_907269" data-name="Path 907269" d="M322.063,26.219c0,1.961-2,1.909-1.967-.033,0-1.961,2-1.909,1.967.033" transform="translate(-36.343 -2.809)" fill="#263238"/>
            <path id="Path_907270" data-name="Path 907270" d="M324.583,25.176s-3.062,3.814-4.082,5.391a3.922,3.922,0,0,0,3.065.9Z" transform="translate(-36.389 -2.858)" fill="#ff7d74"/>
            <path id="Path_907271" data-name="Path 907271" d="M333.531,21.814a.391.391,0,0,1-.381-.1,3.132,3.132,0,0,0-2.663-.923c-1.7-.753,1.443-1.51,3.2.371a.387.387,0,0,1-.16.648" transform="translate(-37.468 -2.269)" fill="#263238"/>
            <g id="Group_1114541" data-name="Group 1114541" transform="translate(302.098 25.856)" opacity="0.2">
              <g id="Group_1114540" data-name="Group 1114540">
                <g id="Group_1114539" data-name="Group 1114539" clip-path="url(#clip-path-27)">
                  <path id="Path_907272" data-name="Path 907272" d="M344.988,30.13c-1.343-1.868-3.711.345-3.947,2.011" transform="translate(-340.819 -29.196)" fill="none" stroke="#000" stroke-linecap="round" stroke-linejoin="round" stroke-width="0.5"/>
                </g>
              </g>
            </g>
            <path id="Path_907273" data-name="Path 907273" d="M318.449,20.8a.4.4,0,0,1-.121-.677,3.83,3.83,0,0,1,3.451-.737.389.389,0,0,1-.243.739c-.259-.293-1.747-.011-3.088.675" transform="translate(-36.126 -2.185)" fill="#263238"/>
            <path id="Path_907274" data-name="Path 907274" d="M325.2,34.943a23.958,23.958,0,0,1,1.994,2.843c.189-.074.384-.146.569-.23,2.566-1.05,3.416-2.383,3.563-3.547a3.673,3.673,0,0,0-.212-1.685,3.5,3.5,0,0,0-.441-.859c-1.029,1.371-3.339,2.534-4.6,3.1-.557.22-.868.376-.868.376" transform="translate(-36.923 -3.573)" fill="#263238"/>
            <path id="Path_907275" data-name="Path 907275" d="M326.176,34.551l.612.823c2.409-.993,3.974-2.008,4.434-3.065a3.473,3.473,0,0,0-.441-.859c-1.034,1.384-3.339,2.534-4.6,3.1" transform="translate(-37.034 -3.571)" fill="#fff"/>
            <path id="Path_907276" data-name="Path 907276" d="M328.052,37.907c2.567-1.05,3.416-2.383,3.563-3.547A8.924,8.924,0,0,0,329,36.088a3.362,3.362,0,0,0-.944,1.819" transform="translate(-37.247 -3.901)" fill="#ff3f3e"/>
            <path id="Path_907277" data-name="Path 907277" d="M308.532,84.54l2.431-16.735c.061-.418-.58-.6-.641-.176l-2.431,16.735c-.061.418.58.6.641.176" transform="translate(-34.957 -7.651)"/>
            <path id="Path_907278" data-name="Path 907278" d="M372.761,109.693a343.335,343.335,0,0,0-7.218-38.866,7.837,7.837,0,0,0-6.306-5.586,5.081,5.081,0,0,0-3.473.535c-3.582,2.128-4.228,9.147-2.581,15.111,1.894,6.853,5.777,17.341,7.71,26.663.161.781.294,6.882.395,13.828a53.623,53.623,0,0,0,11.3-6.862,29.743,29.743,0,0,0,.176-4.823" transform="translate(-40.002 -7.397)" fill="#fdbbb5"/>
            <path id="Path_907279" data-name="Path 907279" d="M365.011,64.167C368.3,72.524,371.9,85.71,371.9,85.71l-18.664,4.232c-2.133-6.59-4.8-13.776-4.166-20.674.973-9.375,1.879-15.183,7.636-13.468,2.916.869,6.364,3.436,8.306,8.367" transform="translate(-39.622 -6.301)" fill="#407bff"/>
            <path id="Path_907280" data-name="Path 907280" d="M371.964,87.553l-17.689,4.233.41.232q-1.855-8.611-3.709-17.221c-.09-.418-.731-.241-.642.177q1.855,8.61,3.709,17.22a.338.338,0,0,0,.41.232l17.688-4.233c.417-.1.24-.74-.176-.641" transform="translate(-39.776 -8.465)"/>
            <g id="Group_1114544" data-name="Group 1114544" transform="translate(280.845 84.824)" opacity="0.3">
              <g id="Group_1114543" data-name="Group 1114543">
                <g id="Group_1114542" data-name="Group 1114542" clip-path="url(#clip-path-28)">
                  <path id="Path_907281" data-name="Path 907281" d="M343.85,117.555A107.783,107.783,0,0,1,317.374,95.8c-.284-.322-.753.15-.47.47a108.35,108.35,0,0,0,26.611,21.864.333.333,0,0,0,.336-.574" transform="translate(-316.816 -95.688)"/>
                </g>
              </g>
            </g>
          </g>
        </g>
        <g id="Group_1114548" data-name="Group 1114548">
          <g id="Group_1114547" data-name="Group 1114547" clip-path="url(#clip-path)">
            <path id="Path_907282" data-name="Path 907282" d="M265.461,28.307A17.7,17.7,0,0,1,269.548,3.4a18.21,18.21,0,0,1,25.23,3.968,17.629,17.629,0,0,1,.439,20.208l1.4,5.172-5.7-.656c-.081.059-.152.127-.234.185a18.21,18.21,0,0,1-25.23-3.967" transform="translate(-29.752 0)" fill="#407bff"/>
            <path id="Path_907283" data-name="Path 907283" d="M264.431,5.36a17.58,17.58,0,0,0-5.489,15.787" transform="translate(-29.373 -0.609)" fill="none" stroke="#407bff" stroke-linecap="round" stroke-linejoin="round" stroke-width="1"/>
            <path id="Path_907284" data-name="Path 907284" d="M259.6,26.106a6.383,6.383,0,0,0,.794,2.513" transform="translate(-29.474 -2.964)" fill="none" stroke="#407bff" stroke-linecap="round" stroke-linejoin="round" stroke-width="1"/>
            <path id="Path_907285" data-name="Path 907285" d="M281.386,26.883,272.474,20.5l2.229-3.11,5.977,4.282,7.924-9.812,2.976,2.4Z" transform="translate(-30.936 -1.346)" fill="#fff"/>
          </g>
        </g>
        <path id="Path_907286" data-name="Path 907286" d="M427.679,412.546l-11.855-.713,3.437,19.309,7.682,1.581Z" transform="translate(-47.212 -46.759)" fill="#e0e0e0"/>
        <g id="Group_1114589" data-name="Group 1114589">
          <g id="Group_1114588" data-name="Group 1114588" clip-path="url(#clip-path)">
            <path id="Path_907287" data-name="Path 907287" d="M415.879,429.678l2.931-.016a2.2,2.2,0,0,1,1.7.822c1.776,2.193,3.015,1.354,4.772-.726,1.164-.136,1.528,1.142,1.637,1.485l2.489,7.591a1.15,1.15,0,0,1-.8,1.483,1.312,1.312,0,0,1-.363.048l-9.674.051-13.548.072c-3.694.02-4.6-3.526-3.089-3.863,6.784-1.479,11.553-3.424,13.593-5.334.379-.334-.033-.581.353-1.612" transform="translate(-45.556 -48.783)" fill="#263238"/>
            <path id="Path_907288" data-name="Path 907288" d="M412.612,432.377a13.767,13.767,0,0,0,2.733-.353.148.148,0,0,0,.09-.2.166.166,0,0,0-.1-.093c-.418-.19-4.148-1.8-5.041-1.178a.485.485,0,0,0-.22.494,1.173,1.173,0,0,0,.533.91,3.479,3.479,0,0,0,2.007.418m2.151-.559c-1.074.2-3.073.464-3.93-.125a.942.942,0,0,1-.389-.665.19.19,0,0,1,.088-.21c.493-.34,2.684.369,4.231,1" transform="translate(-46.558 -48.869)" fill="#407bff"/>
            <path id="Path_907289" data-name="Path 907289" d="M415.532,431.789a.212.212,0,0,0,.115,0,.148.148,0,0,0,.041-.165c-.005-.146-1-3.582-3-3.353-.495.067-.629.3-.641.488-.089.913,2.284,2.626,3.4,3.058Zm-2.635-3.244c1.273-.007,2.088,2,2.369,2.8-1.22-.6-2.95-2.019-2.867-2.577,0-.045-.007-.174.364-.212Z" transform="translate(-46.783 -48.624)" fill="#407bff"/>
            <path id="Path_907290" data-name="Path 907290" d="M415.554,432.126a3.727,3.727,0,0,1,2.549,1.516" transform="translate(-47.182 -49.063)" fill="none" stroke="#407bff" stroke-linecap="round" stroke-linejoin="round" stroke-width="0.5"/>
            <path id="Path_907291" data-name="Path 907291" d="M413.557,433.612a3.725,3.725,0,0,1,2.549,1.516" transform="translate(-46.955 -49.232)" fill="none" stroke="#407bff" stroke-linecap="round" stroke-linejoin="round" stroke-width="0.5"/>
            <path id="Path_907292" data-name="Path 907292" d="M411.049,434.866a3.726,3.726,0,0,1,2.549,1.516" transform="translate(-46.67 -49.374)" fill="none" stroke="#407bff" stroke-linecap="round" stroke-linejoin="round" stroke-width="0.5"/>
            <path id="Path_907293" data-name="Path 907293" d="M372.151,411.041l-12.332-1.507,2.433,20.17,7.682,1.581Z" transform="translate(-40.853 -46.498)" fill="#e0e0e0"/>
            <path id="Path_907294" data-name="Path 907294" d="M358.74,428.349l2.931-.016a2.2,2.2,0,0,1,1.7.822c1.776,2.193,3.015,1.354,4.772-.726,1.164-.136,1.528,1.142,1.637,1.485l2.489,7.591a1.149,1.149,0,0,1-.8,1.483,1.3,1.3,0,0,1-.362.048l-9.674.051-13.548.072c-3.694.019-4.6-3.527-3.089-3.863,6.784-1.479,11.553-3.424,13.593-5.334.379-.334-.033-.581.353-1.612" transform="translate(-39.068 -48.633)" fill="#263238"/>
            <path id="Path_907295" data-name="Path 907295" d="M355.474,431.047a13.771,13.771,0,0,0,2.733-.353.148.148,0,0,0,.09-.2.168.168,0,0,0-.1-.093c-.419-.19-4.148-1.8-5.041-1.178a.487.487,0,0,0-.221.494,1.176,1.176,0,0,0,.534.91,3.478,3.478,0,0,0,2.007.418m2.151-.559c-1.073.2-3.073.464-3.929-.125a.942.942,0,0,1-.389-.665.191.191,0,0,1,.087-.21c.494-.34,2.684.369,4.231,1" transform="translate(-40.071 -48.718)" fill="#407bff"/>
            <path id="Path_907296" data-name="Path 907296" d="M358.393,430.46a.209.209,0,0,0,.114,0,.147.147,0,0,0,.042-.165c-.005-.146-1-3.582-3-3.352-.495.066-.629.3-.641.487-.089.913,2.284,2.626,3.4,3.058Zm-2.635-3.244c1.272-.007,2.088,2,2.368,2.8-1.219-.6-2.95-2.02-2.866-2.578,0-.045-.007-.173.364-.212Z" transform="translate(-40.295 -48.474)" fill="#407bff"/>
            <path id="Path_907297" data-name="Path 907297" d="M358.415,430.8a3.728,3.728,0,0,1,2.549,1.516" transform="translate(-40.694 -48.912)" fill="none" stroke="#407bff" stroke-linecap="round" stroke-linejoin="round" stroke-width="0.5"/>
            <path id="Path_907298" data-name="Path 907298" d="M356.418,432.283a3.724,3.724,0,0,1,2.549,1.516" transform="translate(-40.467 -49.081)" fill="none" stroke="#407bff" stroke-linecap="round" stroke-linejoin="round" stroke-width="0.5"/>
            <path id="Path_907299" data-name="Path 907299" d="M353.91,433.537a3.726,3.726,0,0,1,2.549,1.516" transform="translate(-40.183 -49.223)" fill="none" stroke="#407bff" stroke-linecap="round" stroke-linejoin="round" stroke-width="0.5"/>
            <path id="Path_907300" data-name="Path 907300" d="M368.413,263.736c.044.912-12.4,59.709-13.134,74.065s2.73,68.709,2.73,68.709l13.7-.1s2.688-24.754,1.946-35.077-1.016-26.506,2.357-35.811,14.706-39.963,14.706-39.963L386.738,266.8Z" transform="translate(-40.326 -29.944)" fill="#263238"/>
            <path id="Path_907301" data-name="Path 907301" d="M415.777,261.31c1.476.842,1.8,17.279,1.732,35.562s4.918,51.859,5.958,63.385,2.832,48.3,2.354,48.328-15.777.159-15.345-.777-3.181-16.711-7.741-44.615c-4.472-27.366-12.826-56.995-14.542-66.237-1.35-7.271-3.931-19.793-3.931-19.793l-.7-14.285Z" transform="translate(-43.55 -29.669)" fill="#263238"/>
            <g id="Group_1114551" data-name="Group 1114551" transform="translate(326.293 237.985)" opacity="0.3">
              <g id="Group_1114550" data-name="Group 1114550">
                <g id="Group_1114549" data-name="Group 1114549" clip-path="url(#clip-path-31)">
                  <path id="Path_907302" data-name="Path 907302" d="M415.12,268.467s-12.685,8.113-27.846,8.335-19.188-3.158-19.188-3.158l.586-3.159Z" transform="translate(-368.085 -268.467)"/>
                </g>
              </g>
            </g>
            <g id="Group_1114554" data-name="Group 1114554" transform="translate(341.456 256.962)" opacity="0.3">
              <g id="Group_1114553" data-name="Group 1114553">
                <g id="Group_1114552" data-name="Group 1114552" clip-path="url(#clip-path-32)">
                  <path id="Path_907303" data-name="Path 907303" d="M396.6,332.906q-1.814-7.214-3.628-14.428-2.895-11.516-5.791-23.033-.672-2.667-1.341-5.335a.333.333,0,0,0-.642.176q1.815,7.215,3.628,14.429,2.9,11.515,5.791,23.032.671,2.667,1.342,5.335a.333.333,0,0,0,.641-.176" transform="translate(-385.19 -289.874)"/>
                </g>
              </g>
            </g>
            <path id="Path_907304" data-name="Path 907304" d="M403.732,185.282a74.988,74.988,0,0,1,5.133,19.521c2.391,19.484,6.572,45.616,6.747,53.381,0,0-32.329,10.493-49.9,1.675l2.14-41.907-.619-31.148,6.684-2.431s25.963-3.107,29.816.91" transform="translate(-41.523 -20.803)" fill="#407bff"/>
            <g id="Group_1114557" data-name="Group 1114557" transform="translate(324.189 162.423)" opacity="0.2" style="isolation: isolate">
              <g id="Group_1114556" data-name="Group 1114556">
                <g id="Group_1114555" data-name="Group 1114555" clip-path="url(#clip-path-33)">
                  <path id="Path_907305" data-name="Path 907305" d="M403.732,185.282a74.988,74.988,0,0,1,5.133,19.521c2.391,19.484,6.572,45.616,6.747,53.381,0,0-32.329,10.493-49.9,1.675l2.14-41.907-.619-31.148,6.684-2.431s25.963-3.107,29.816.91" transform="translate(-365.711 -183.226)"/>
                </g>
              </g>
            </g>
            <g id="Group_1114560" data-name="Group 1114560" transform="translate(361.75 184.625)" opacity="0.2" style="isolation: isolate">
              <g id="Group_1114559" data-name="Group 1114559">
                <g id="Group_1114558" data-name="Group 1114558" clip-path="url(#clip-path-34)">
                  <path id="Path_907306" data-name="Path 907306" d="M408.083,208.272s1.081,7.574,3.416,11.18a19.135,19.135,0,0,0,4.28,4.142l-.869-7.078Z" transform="translate(-408.083 -208.272)"/>
                </g>
              </g>
            </g>
            <path id="Path_907307" data-name="Path 907307" d="M371.211,209.3c-.636.165-9.305,11.248-9.305,11.248s-10.212-10.8-11.242-15.457c0,0,11.5-16.849,13.008-17.857a17.324,17.324,0,0,1,8.537-2.713Z" transform="translate(-39.814 -20.95)" fill="#407bff"/>
            <g id="Group_1114563" data-name="Group 1114563" transform="translate(310.85 163.569)" opacity="0.2" style="isolation: isolate">
              <g id="Group_1114562" data-name="Group 1114562">
                <g id="Group_1114561" data-name="Group 1114561" clip-path="url(#clip-path-35)">
                  <path id="Path_907308" data-name="Path 907308" d="M371.211,209.3c-.636.165-9.305,11.248-9.305,11.248s-10.212-10.8-11.242-15.457c0,0,11.5-16.849,13.008-17.857a17.324,17.324,0,0,1,8.537-2.713Z" transform="translate(-350.664 -184.519)"/>
                </g>
              </g>
            </g>
            <g id="Group_1114566" data-name="Group 1114566" transform="translate(323.585 180.06)" opacity="0.2" style="isolation: isolate">
              <g id="Group_1114565" data-name="Group 1114565">
                <g id="Group_1114564" data-name="Group 1114564" clip-path="url(#clip-path-36)">
                  <path id="Path_907309" data-name="Path 907309" d="M367.923,217.178c-.011-.389-.4-14.677-.38-14.034s-2.513,17.618-2.513,17.618Z" transform="translate(-365.03 -203.122)"/>
                </g>
              </g>
            </g>
            <path id="Path_907310" data-name="Path 907310" d="M380.288,182.736c3.377-.356,3.033-4.5,2.62-7.679a21.4,21.4,0,0,0-.773-3.357l5.885-4.913,5.327-4.509a56.709,56.709,0,0,0-.676,5.99,40.78,40.78,0,0,0,.55,9.587,10.518,10.518,0,0,0,2.048,3.579s-6.046,4.576-10.2,4.462-4.782-3.16-4.782-3.16" transform="translate(-43.178 -18.425)" fill="#b97964"/>
            <g id="Group_1114569" data-name="Group 1114569" transform="translate(339.737 152.496)" opacity="0.2" style="isolation: isolate">
              <g id="Group_1114568" data-name="Group 1114568">
                <g id="Group_1114567" data-name="Group 1114567" clip-path="url(#clip-path-37)">
                  <path id="Path_907311" data-name="Path 907311" d="M393.1,172.028s-3.5,8.392-9.754,5.118l-.092-1.464Z" transform="translate(-383.251 -172.028)"/>
                </g>
              </g>
            </g>
            <path id="Path_907312" data-name="Path 907312" d="M394.86,149.679a11.982,11.982,0,0,0-14.53-7.406c-8.321,2.378-10.169,14-8.811,21.254,1.513,8.075,11.556,12.647,18.233,7.144,4.45-3.661,4.6-8.318,5.594-16.165a10.551,10.551,0,0,0-.486-4.827" transform="translate(-42.136 -16.102)" fill="#b97964"/>
            <path id="Path_907313" data-name="Path 907313" d="M368.853,146.537s.768.9,1.487.635a3.1,3.1,0,0,1,.23-3.643s.52,1.24,1.134,1.265a13.728,13.728,0,0,1,3.74-7.805c3.585-3.99,15.334,1.153,15.334,1.153s2.81-2.388,7.281,1.657c3.585,3.242,4,9.863,3.673,12.715-1.307,2.747-4.382,5.407-8.55,6.755-2.049-2.331-2.194-5.846-1.987-8.28a3.893,3.893,0,0,1-1.667-.944c-1.831-1.757-.468-7.873-7.772-6.96a3.994,3.994,0,0,0-4.17-.017c-2.244,1.307-3.455,8.452-6.56,6.361s-2.174-2.892-2.174-2.892" transform="translate(-41.864 -15.381)" fill="#263238"/>
            <path id="Path_907314" data-name="Path 907314" d="M383.976,157.89c-.09.9-.775,1.519-1.4,1.4s-.982-.939-.832-1.828.79-1.517,1.4-1.4.984.925.832,1.829" transform="translate(-43.339 -17.717)" fill="#263238"/>
            <path id="Path_907315" data-name="Path 907315" d="M375.187,156.908c-.09.9-.79,1.518-1.4,1.4s-.982-.94-.832-1.828.79-1.518,1.4-1.4.978.981.832,1.828" transform="translate(-42.341 -17.606)" fill="#263238"/>
            <path id="Path_907316" data-name="Path 907316" d="M371.427,151.618a.48.48,0,0,0,.456-.007,3.679,3.679,0,0,1,3.127-.344.441.441,0,0,0,.574-.2.4.4,0,0,0-.215-.545h0a4.526,4.526,0,0,0-3.947.386.394.394,0,0,0-.15.56l.005.008a.7.7,0,0,0,.152.14" transform="translate(-42.147 -17.058)" fill="#263238"/>
            <path id="Path_907317" data-name="Path 907317" d="M385.128,155.193a.43.43,0,0,0,.237-.095.4.4,0,0,0-.078-.575l-.007-.005a4.542,4.542,0,0,0-3.918-.716.4.4,0,0,0-.258.524h0a.456.456,0,0,0,.558.246,3.69,3.69,0,0,1,3.093.613.467.467,0,0,0,.373.007" transform="translate(-43.267 -17.443)" fill="#263238"/>
            <path id="Path_907318" data-name="Path 907318" d="M402.282,163.1a8.118,8.118,0,0,1-4.714,4.275c-2.82.983-4.548-1.4-4.038-4.079.477-2.377,2.5-5.832,5.465-5.633a3.78,3.78,0,0,1,3.287,5.437" transform="translate(-44.671 -17.9)" fill="#b97964"/>
            <g id="Group_1114572" data-name="Group 1114572" transform="translate(350.511 141.635)" opacity="0.1">
              <g id="Group_1114571" data-name="Group 1114571">
                <g id="Group_1114570" data-name="Group 1114570" clip-path="url(#clip-path-38)">
                  <path id="Path_907319" data-name="Path 907319" d="M396.072,164.077a4.5,4.5,0,0,1,1.208-2.529c.538-.568,1.656-1.493,2.465-.93.352.245.684-.332.335-.574-1.051-.731-2.431.19-3.183.944a5.25,5.25,0,0,0-1.49,3.089.335.335,0,0,0,.332.332.34.34,0,0,0,.332-.332" transform="translate(-395.405 -159.776)"/>
                </g>
              </g>
            </g>
            <path id="Path_907320" data-name="Path 907320" d="M377.8,156.327a24.281,24.281,0,0,1-4.531,5.261,4.531,4.531,0,0,0,3.4,1.281Z" transform="translate(-42.381 -17.749)" fill="#a24e3f"/>
            <g id="Group_1114575" data-name="Group 1114575" transform="translate(330.933 122.984)" opacity="0.3">
              <g id="Group_1114574" data-name="Group 1114574">
                <g id="Group_1114573" data-name="Group 1114573" clip-path="url(#clip-path-39)">
                  <path id="Path_907321" data-name="Path 907321" d="M382.647,142.755a6.78,6.78,0,0,0-1.683-2.7,4.6,4.6,0,0,0-2.736-1.3,4.1,4.1,0,0,0-3.217,1.31,7.537,7.537,0,0,0-1.676,3.127.333.333,0,0,0,.641.177c.519-1.738,1.591-3.651,3.565-3.931a3.265,3.265,0,0,1,2.154.487,5.5,5.5,0,0,1,2.311,3.015c.145.4.788.227.641-.176" transform="translate(-373.319 -138.736)"/>
                </g>
              </g>
            </g>
            <g id="Group_1114578" data-name="Group 1114578" transform="translate(336.7 120.596)" opacity="0.3">
              <g id="Group_1114577" data-name="Group 1114577">
                <g id="Group_1114576" data-name="Group 1114576" clip-path="url(#clip-path-40)">
                  <path id="Path_907322" data-name="Path 907322" d="M385.064,141.916a6.913,6.913,0,0,0-4.829-5.859.333.333,0,0,0-.177.642,6.226,6.226,0,0,1,4.341,5.217c.043.422.708.426.665,0" transform="translate(-379.825 -136.042)"/>
                </g>
              </g>
            </g>
            <path id="Path_907323" data-name="Path 907323" d="M397.35,278.009l14.583,8.068a2.64,2.64,0,0,0,2.459.051l14.914-7.439a2.643,2.643,0,0,1,3.775,2.867l-3.166,16.362a2.642,2.642,0,0,0,.71,2.355l11.684,11.884a2.643,2.643,0,0,1-1.56,4.476l-16.54,2.046a2.641,2.641,0,0,0-2.02,1.4L414.5,334.867a2.643,2.643,0,0,1-4.739-.1l-7.057-15.1a2.639,2.639,0,0,0-1.958-1.487L384.3,315.433a2.643,2.643,0,0,1-1.369-4.538l12.179-11.377a2.644,2.644,0,0,0,.81-2.323l-2.468-16.483a2.643,2.643,0,0,1,3.893-2.7" transform="translate(-43.383 -31.527)" fill="#407bff"/>
            <g id="Group_1114581" data-name="Group 1114581" transform="translate(361.691 251.141)" opacity="0.3">
              <g id="Group_1114580" data-name="Group 1114580">
                <g id="Group_1114579" data-name="Group 1114579" clip-path="url(#clip-path-41)">
                  <path id="Path_907324" data-name="Path 907324" d="M424.271,283.308s-15.96,13.712-11.915,19.419c5.2,7.338,16.322,18.868-1.766,28.163l-2.539-5.431s6.134-3.283,5.917-9.73-6.473-8.331-5.917-16.589,7.752-11.668,7.752-11.668Z" transform="translate(-408.017 -283.308)" fill="#fff"/>
                </g>
              </g>
            </g>
            <path id="Path_907325" data-name="Path 907325" d="M422.654,273.944l-6.042-1.809-2.151,4.306c-.283.491-.536.946-.732,1.328-1.788,3.494-4.226,8.464-4.477,11.417s1.63,5.828,2.42,4.423c.621-1.1-.18-3.131-.028-4.158a10.139,10.139,0,0,1,.91-3.433c-.009,4.968,1.909,8.116,2.53,8.582.858.645,1.726-.347,1.726-.347a1.511,1.511,0,0,0,1.85.131c1.229-.807-.238-6.647-.238-6.647s2.095,5.228,3.507,4.533-1.084-5.2-1.376-7.907c-.109-1.01,1.84-2.817,1.835-5.144,0-1.448-.418-3.478.266-5.274" transform="translate(-46.464 -30.898)" fill="#b97964"/>
            <path id="Path_907326" data-name="Path 907326" d="M417.826,295.654a19.2,19.2,0,0,1-1.484-4.671,15.463,15.463,0,0,1,.5-5.788c.061-.25-.324-.356-.385-.106a16.04,16.04,0,0,0-.525,5.856,19.047,19.047,0,0,0,1.5,4.815c.1.233.484.13.385-.106" transform="translate(-47.215 -32.353)" fill="#a24e3f"/>
            <path id="Path_907327" data-name="Path 907327" d="M419.82,289.277c-.106-.762-.246-1.529-.3-2.3a3.288,3.288,0,0,1,.422-2.042c.14-.215-.2-.416-.344-.2a3.574,3.574,0,0,0-.481,2.159c.043.832.2,1.664.314,2.489.035.253.42.145.385-.106" transform="translate(-47.586 -32.318)" fill="#a24e3f"/>
            <path id="Path_907328" data-name="Path 907328" d="M424.779,205.022l-12.841,5.419c2.234,6.206,6.4,15.939,8.119,22.85.461,1.854-3.851,32.653-3.851,32.653l6.416,1.839s9.778-30.027,9.659-33.733c-.172-5.376-4.329-17.6-7.5-29.029" transform="translate(-46.771 -23.278)" fill="#b97964"/>
            <path id="Path_907329" data-name="Path 907329" d="M400.652,186.544c-.379,7.08,5.84,21.259,12.422,30.224,4.038.621,15.543-8.361,15.543-8.361s-5.863-10.571-11.846-17.429c-7.535-8.234-15.89-8.288-16.119-4.434" transform="translate(-45.488 -20.899)" fill="#407bff"/>
            <g id="Group_1114584" data-name="Group 1114584" transform="translate(355.147 163.168)" opacity="0.2" style="isolation: isolate">
              <g id="Group_1114583" data-name="Group 1114583">
                <g id="Group_1114582" data-name="Group 1114582" clip-path="url(#clip-path-42)">
                  <path id="Path_907330" data-name="Path 907330" d="M400.652,186.544c-.379,7.08,5.84,21.259,12.422,30.224,4.038.621,15.543-8.361,15.543-8.361s-5.863-10.571-11.846-17.429c-7.535-8.234-15.89-8.288-16.119-4.434" transform="translate(-400.635 -184.067)"/>
                </g>
              </g>
            </g>
            <g id="Group_1114587" data-name="Group 1114587" transform="translate(330.087 148.058)" opacity="0.2" style="isolation: isolate">
              <g id="Group_1114586" data-name="Group 1114586">
                <g id="Group_1114585" data-name="Group 1114585" clip-path="url(#clip-path-43)">
                  <path id="Path_907331" data-name="Path 907331" d="M379.215,175.2c.347-.052,1.253-.711,1.025-2.465s-4.885-5.942-6.837-5.7-.551,2.879-.551,2.879,4.947,4.673,5.184,4.785c.742.351,1.179.5,1.179.5" transform="translate(-372.365 -167.021)"/>
                </g>
              </g>
            </g>
            <path id="Path_907332" data-name="Path 907332" d="M377.815,166.939a2.152,2.152,0,0,0-.958-.454,1.065,1.065,0,0,0-.4-.013.491.491,0,0,0-.341.28.206.206,0,0,0,.071.273.2.2,0,0,0,.273-.072c.006-.012.012-.026.018-.037s.03-.043.016-.027.011-.009.014-.012-.028.013,0,0a.253.253,0,0,0,.027-.014c-.012.008-.031.009-.007,0s.071-.013.038-.011.021,0,.031,0l.048,0a.944.944,0,0,1,.174.025,1.732,1.732,0,0,1,.715.339.206.206,0,0,0,.282,0,.2.2,0,0,0,0-.282" transform="translate(-42.701 -18.899)" fill="#263238"/>
            <path id="Path_907333" data-name="Path 907333" d="M374.794,170.176l-.024-.02-3.1-2.393a3.469,3.469,0,0,0-3.826-.2l-2.744,1.559a3.754,3.754,0,0,0-1.838,2.854l-.582,5.574c-2.859,7.622-8.725,16.671-12.242,24.56-1.831,4.4-4.52,9.257-5.177,14.233a7.447,7.447,0,0,0,1.672,5.751c2.253,2.567,6.305,1.61,8.2.14l0,.01a54.838,54.838,0,0,0,5.381-4.514l-2.736-3.063,3.653-13.657c1.3-6.164,3.74-12.07,5.471-17.117,4.224-2.557,7.239-7.775,7.239-7.775l1.17-1.609a3.119,3.119,0,0,0-.517-4.337M356.7,216.96c0,.086-.005.165-.021.171,0-.058.017-.113.021-.171" transform="translate(-39.193 -18.97)" fill="#b97964"/>
            <path id="Path_907334" data-name="Path 907334" d="M358.047,225.5q.941-2.751,1.625-5.58c.1-.416-.54-.593-.641-.176q-.683,2.826-1.625,5.58c-.139.405.5.58.641.176" transform="translate(-40.577 -24.922)" fill="#a24e3f"/>
          </g>
        </g>
        <g id="Group_1114615" data-name="Group 1114615">
          <g id="Group_1114614" data-name="Group 1114614" clip-path="url(#clip-path)">
            <path id="Path_907335" data-name="Path 907335" d="M119.891,205.924c.089.848-3.648,16.72-2.64,22.162s8.475,26.245,7.218,29.629-17.167-1.323-17.167-1.323L86.6,178.056c1.262-1.167,13.693-1.9,18.279,1.69.488.383,2.585,2.319,3.124,2.748,4.439,3.536,10.512,10.306,11.886,23.429" transform="translate(-9.833 -20.108)" fill="#263238"/>
            <path id="Path_907336" data-name="Path 907336" d="M161,193.157c-.191-.2,6.267.014,6.43-1.366.09-.768.037-.866-2.8-1.217s-11.442-.8-12.817-.406-2.467,5.481-3.185,6.263-6.149,5.247-6.149,5.247l4.3,4.841,5.811-5.768s4.907.346,5.7-.34a4.5,4.5,0,0,0,.937-2.5s2.258.354,1.477-2.273c0,0,2.017-.706.3-2.485" transform="translate(-16.178 -21.574)" fill="#ffb463"/>
            <path id="Path_907337" data-name="Path 907337" d="M153.045,191.475c.856-.074,1.956-.166,2.6.534.668.731.587,2,.514,2.911a6.888,6.888,0,0,1-.285,1.651c-.186.543-.854-.1-1.063-.348a2.3,2.3,0,0,1-.387-2.321.2.2,0,0,0-.246-.246,3.663,3.663,0,0,1-2.049.233c-.252-.044-.359.34-.106.385a4.038,4.038,0,0,0,2.262-.233l-.246-.246a2.658,2.658,0,0,0,.178,2.265c.266.475,1.163,1.511,1.785,1.036.342-.26.377-.89.442-1.276a9.9,9.9,0,0,0,.144-1.594,2.672,2.672,0,0,0-3.539-3.15c-.254.022-.256.421,0,.4" transform="translate(-17.244 -21.689)" fill="#ff7800"/>
            <path id="Path_907338" data-name="Path 907338" d="M162.746,193.351a8.217,8.217,0,0,0-3.113-.161,9.583,9.583,0,0,0-1.581.318,1.892,1.892,0,0,0-1.19.712.2.2,0,0,0,.344.2c.238-.4.849-.509,1.266-.615a9.384,9.384,0,0,1,1.444-.248,7.753,7.753,0,0,1,2.723.178.2.2,0,0,0,.106-.385" transform="translate(-17.807 -21.926)" fill="#ff7800"/>
            <path id="Path_907339" data-name="Path 907339" d="M159.649,201.07,157,200.527a6.08,6.08,0,0,1-1.277-.308c-.377-.172-.675-.612-.289-.947a1.633,1.633,0,0,1,1.152-.283q.661.048,1.323.065c.893.024,1.785.027,2.675.1.255.021.254-.378,0-.4-1.081-.09-2.167-.074-3.251-.121-.767-.034-2-.226-2.409.653a.9.9,0,0,0,.21,1,2.075,2.075,0,0,0,1.122.488c1.095.228,2.191.449,3.286.674.251.051.358-.333.106-.385" transform="translate(-17.581 -22.548)" fill="#ff7800"/>
            <path id="Path_907340" data-name="Path 907340" d="M156.788,196.566a15.491,15.491,0,0,1,5.284-.05c.25.057.356-.327.106-.385a15.772,15.772,0,0,0-5.391.035c-.251.032-.254.431,0,.4" transform="translate(-17.78 -22.243)" fill="#ff7800"/>
            <path id="Path_907341" data-name="Path 907341" d="M144.648,194.76,126.59,206.578s-2.051-4.994-4.446-9.907c-2.444-5.016-6.726-13.39-11.391-13.979-1.537-.194-3.662-.729-4.61-.346-7.484,3.023,2.591,22.474,2.591,22.474s9.148,14.161,13.314,16.077,26.579-18.915,26.579-18.915Z" transform="translate(-11.737 -20.688)" fill="#263238"/>
            <path id="Path_907342" data-name="Path 907342" d="M121.7,215.5c.5-2.931,1.361-5.752,1.5-8.745a24.639,24.639,0,0,0-3.085-12.731,43.984,43.984,0,0,0-6.811-9.186c-.293-.313-.762.158-.47.471,4.016,4.29,7.617,9.269,9.065,15.052a24.254,24.254,0,0,1,.054,10.808c-.283,1.388-.653,2.759-.893,4.155-.072.418.568.6.641.176" transform="translate(-12.8 -20.975)"/>
            <path id="Path_907343" data-name="Path 907343" d="M39.468,434.195a9.132,9.132,0,0,0-1.826-2.91S36.4,426.868,39.9,417.632l-3.176-3.06a3.721,3.721,0,0,0-4.181-.6,1.575,1.575,0,0,0-.522.359,23.38,23.38,0,0,0-1.962,2.472,88.644,88.644,0,0,0-5.439,9.251l.663.408,3.606-5.693c1.229-1.94,1.448,1.267.651,3.636s-1.169,5.175,3.179,7.759c5.088,2.988,7.364,3.958,6.754,2.034" transform="translate(-2.795 -46.958)" fill="#263238"/>
            <path id="Path_907344" data-name="Path 907344" d="M42.024,414.17s-1.451,4.309-2.647,9.305a20.012,20.012,0,0,0-.726,7.727s-3.63-1.274-3.791-4.269,2.2-11.545-1.354-13.023a8.906,8.906,0,0,1,1.9-.975c1-.454,6.621,1.235,6.621,1.235" transform="translate(-3.804 -46.875)" fill="#ffb463"/>
            <path id="Path_907345" data-name="Path 907345" d="M112.558,432.859a9.354,9.354,0,0,0-3.036-1.662s-3.274-3.257-4.8-13l-4.289-1.144a3.7,3.7,0,0,0-3.949,1.482,1.529,1.529,0,0,0-.277.565,23.046,23.046,0,0,0-.488,3.1,87.771,87.771,0,0,0-.16,10.689l.78.037.325-6.7c.111-2.284,1.892.41,2.37,2.861s1.545,5.079,6.62,5.243c5.922.161,8.389-.086,6.9-1.472" transform="translate(-10.839 -47.339)" fill="#263238"/>
            <path id="Path_907346" data-name="Path 907346" d="M104.15,414.424s.87,4.459,2.3,9.394a20.149,20.149,0,0,0,3.2,7.093s-3.8.635-5.424-1.9-3.8-11.133-7.636-10.715a8.67,8.67,0,0,1,1.172-1.764c.651-.878,6.391-2.105,6.391-2.105" transform="translate(-10.967 -47.053)" fill="#ffb463"/>
            <path id="Path_907347" data-name="Path 907347" d="M111.781,238.736s11.068,27.135,2.283,70.5c-.231,25.251-9.186,87.022-9.186,87.022-2.981.835-12.415.261-15.449-.362,0,0-.262-49.106,1.854-90.247-6.414-42.219-5.977-64.566-5.977-64.566Z" transform="translate(-9.685 -27.106)" fill="#407bff"/>
            <path id="Path_907348" data-name="Path 907348" d="M99.979,240.129s-10.752,55.506-18.04,79.334c-7.661,25.019-36.381,77.314-37.241,78.989-3.493-.76-10.823-3.764-12.962-5.641,0,0,16.85-51.054,26.733-78.294,2.242-13.965,3.777-22.138,3.382-36.918-.734-27.4,12.168-39.187,12.168-39.187Z" transform="translate(-3.603 -27.069)" fill="#407bff"/>
            <g id="Group_1114592" data-name="Group 1114592" transform="translate(80.878 235.376)" opacity="0.2" style="isolation: isolate">
              <g id="Group_1114591" data-name="Group 1114591">
                <g id="Group_1114590" data-name="Group 1114590" clip-path="url(#clip-path-45)">
                  <path id="Path_907349" data-name="Path 907349" d="M100.671,272.893l9.183-7.37-7.721,11.389-10.9,47,.543-12.541Z" transform="translate(-91.237 -265.523)"/>
                </g>
              </g>
            </g>
            <path id="Path_907350" data-name="Path 907350" d="M112.363,196.63S117,207,114.087,213.108c-5.914,17.719,1.433,18.515-.836,21.787-3.386,2.667-24.251,6.24-35.2-2.246,1.455-7.208,1.792-19.592-3.543-40.108a8.261,8.261,0,0,1,6.047-10.068,8.547,8.547,0,0,1,.869-.171c1.311-.184,2.708-.364,4.142-.495a79.787,79.787,0,0,1,12.893-.492c.873.042.161-.105,2.826.523,0,0,5.333,3.955,6.843,6.336a83.5,83.5,0,0,1,4.236,8.457" transform="translate(-8.429 -20.58)" fill="#fff"/>
            <g id="Group_1114595" data-name="Group 1114595" transform="translate(89.649 192.879)" opacity="0.3">
              <g id="Group_1114594" data-name="Group 1114594">
                <g id="Group_1114593" data-name="Group 1114593" clip-path="url(#clip-path-46)">
                  <path id="Path_907351" data-name="Path 907351" d="M112.355,217.583a17.969,17.969,0,0,1-8.55,8.841c2.6.379,5.2-.472,7.678-1.309a9.3,9.3,0,0,1-10.352,1.8c3.592-3.067,7.632-6.264,11.224-9.331" transform="translate(-101.131 -217.583)"/>
                </g>
              </g>
            </g>
            <path id="Path_907352" data-name="Path 907352" d="M64.318,167.212a13.618,13.618,0,0,1,2.308-3.605,21.215,21.215,0,0,0,3-7.519,67.117,67.117,0,0,1,2.016-7.926,12.612,12.612,0,0,1,4.657-6.413,6.6,6.6,0,0,1,7.409-.05l1.136.2c-2.008,8.419-1.323,17.3-2.705,25.86-.35,2.166-.886,4.417-2.327,6.011-2.307,2.551-6.224,2.621-9.449,1.6a10.152,10.152,0,0,1-4.721-2.835,5.777,5.777,0,0,1-1.325-5.321" transform="translate(-7.279 -15.962)" fill="#263238"/>
            <path id="Path_907353" data-name="Path 907353" d="M84.214,141.5c2.583-2.517,4.964-4.007,8.376-4.531,2.993-.459,7.23-.123,9.962,1.352,3.714,2.006,5.962,6.335,7.377,10.649,1.584,4.83-.356,10.757-2.619,15.2-.937,1.839-1.774,2.594-3.614,2.409l-.684.968c-5.582,1.7-10.655,7.606-21.109-8.405-3.457-5.295-2.034-13.408,2.311-17.641" transform="translate(-9.08 -15.529)" fill="#263238"/>
            <path id="Path_907354" data-name="Path 907354" d="M98.989,178.778c-.876-.753-.543-2.377-.416-3.958a15.674,15.674,0,0,1,.823-3.734l-1.727-1.672-8.917-7.448c.684,5.425,2.58,14.138-1.477,17.462l-2.293.292c1.5,1.011,5.617,6.017,14.521,6.4,4.823.208,3.738-4.667,2.343-6.71-2.2-.473-2.857-.633-2.857-.633" transform="translate(-9.649 -18.389)" fill="#ffb463"/>
            <g id="Group_1114598" data-name="Group 1114598" transform="translate(82.098 149.84)" opacity="0.2">
              <g id="Group_1114597" data-name="Group 1114597">
                <g id="Group_1114596" data-name="Group 1114596" clip-path="url(#clip-path-47)">
                  <path id="Path_907355" data-name="Path 907355" d="M99.493,176.324c-2.374-.426-5.833-1.807-6.533-4.421a10.143,10.143,0,0,1-.341-2.871l7.215,3.976c-.031,1.035-.571,1.846-.34,3.316" transform="translate(-92.613 -169.032)"/>
                </g>
              </g>
            </g>
            <path id="Path_907356" data-name="Path 907356" d="M84.865,150.752c1.542,8.224,2.017,11.727,6.765,15.684,7.143,5.952,16.993,2.846,17.961-5.531.871-7.538-1.8-19.72-10.386-22.461-8.463-2.7-15.883,4.084-14.341,12.308" transform="translate(-9.612 -15.65)" fill="#ffb463"/>
            <path id="Path_907357" data-name="Path 907357" d="M98.8,154.745c.048.928.538,1.686,1.094,1.693s.968-.739.92-1.668-.538-1.686-1.094-1.693-.968.74-.92,1.668" transform="translate(-11.218 -17.38)" fill="#263238"/>
            <path id="Path_907358" data-name="Path 907358" d="M96.964,152.043a.385.385,0,0,0,.3-.088,3.085,3.085,0,0,1,2.8-.7.382.382,0,0,0,.494-.265.443.443,0,0,0-.3-.52,3.852,3.852,0,0,0-3.556.839.413.413,0,0,0-.022.581.439.439,0,0,0,.272.15" transform="translate(-10.966 -17.07)" fill="#263238"/>
            <path id="Path_907359" data-name="Path 907359" d="M110.022,150.363a.38.38,0,0,0,.234-.184.4.4,0,0,0-.191-.542,4.418,4.418,0,0,0-3.86-.223.37.37,0,0,0-.148.535.455.455,0,0,0,.579.171,3.532,3.532,0,0,1,3.055.208.45.45,0,0,0,.332.035" transform="translate(-12.035 -16.926)" fill="#263238"/>
            <path id="Path_907360" data-name="Path 907360" d="M104.25,153.244a28.218,28.218,0,0,0,3.271,4.787.637.637,0,0,1-.214,1.005,4.245,4.245,0,0,1-2.253.239Z" transform="translate(-11.836 -17.399)" fill="#ff7800"/>
            <path id="Path_907361" data-name="Path 907361" d="M99.473,153.1l1.937-.466s-2.329,1.763-1.937.466" transform="translate(-11.289 -17.329)" fill="#263238"/>
            <path id="Path_907362" data-name="Path 907362" d="M107.316,153.981c.048.945.537,1.716,1.094,1.723s.968-.754.92-1.7-.537-1.717-1.094-1.723-.968.754-.92,1.7" transform="translate(-12.184 -17.29)" fill="#263238"/>
            <path id="Path_907363" data-name="Path 907363" d="M107.929,152.32l1.937-.466s-1.776,1.463-1.937.466" transform="translate(-12.254 -17.241)" fill="#263238"/>
            <path id="Path_907364" data-name="Path 907364" d="M89.265,164.866c-8.474-4.907-10.435-26.018,4.251-27.851S110.3,155.031,110.3,155.031c-5.914-11.909-18.742-12.025-18.742-12.025,3.126,6.305-2.424,10.778-2.424,10.778-1.848,4.347.127,9.123.129,11.081" transform="translate(-9.388 -15.543)" fill="#263238"/>
            <path id="Path_907365" data-name="Path 907365" d="M82.629,159.619a6.817,6.817,0,0,0,4.384,2.766c2.28.35,3.1-3.283,2.138-5.414a4.522,4.522,0,0,0-5.31-2.4c-2.1.618-2.53,3.21-1.212,5.052" transform="translate(-9.297 -17.53)" fill="#ffb463"/>
            <g id="Group_1114601" data-name="Group 1114601" transform="translate(74.344 138.74)" opacity="0.2">
              <g id="Group_1114600" data-name="Group 1114600">
                <g id="Group_1114599" data-name="Group 1114599" clip-path="url(#clip-path-48)">
                  <path id="Path_907366" data-name="Path 907366" d="M85.823,156.818a1.367,1.367,0,0,0-1.649.869c-.246.72.239,2.334,2.459,2.729" transform="translate(-83.895 -156.538)" fill="none" stroke="#000" stroke-linecap="round" stroke-linejoin="round" stroke-width="0.5"/>
                </g>
              </g>
            </g>
            <g id="Group_1114604" data-name="Group 1114604" transform="translate(70.723 127.203)" opacity="0.3">
              <g id="Group_1114603" data-name="Group 1114603">
                <g id="Group_1114602" data-name="Group 1114602" clip-path="url(#clip-path-49)">
                  <path id="Path_907367" data-name="Path 907367" d="M90.636,143.983a3.584,3.584,0,0,1,.243,3.223,5.422,5.422,0,0,1-2.648,2.534,16.491,16.491,0,0,1-8.129,1.752c-.428-.013-.427.652,0,.665a16.484,16.484,0,0,0,9.06-2.184,5.41,5.41,0,0,0,2.432-2.8,4.2,4.2,0,0,0-.384-3.522c-.233-.356-.809-.024-.574.336" transform="translate(-79.781 -143.495)"/>
                </g>
              </g>
            </g>
            <g id="Group_1114607" data-name="Group 1114607" transform="translate(70.383 125.217)" opacity="0.3">
              <g id="Group_1114606" data-name="Group 1114606">
                <g id="Group_1114605" data-name="Group 1114605" clip-path="url(#clip-path-50)">
                  <path id="Path_907368" data-name="Path 907368" d="M84.468,141.348A15.574,15.574,0,0,0,79.4,152.675c.079,4.071,2.221,7.581,4.668,10.692.264.336.732-.137.47-.471-2.333-2.967-4.4-6.34-4.473-10.222a14.915,14.915,0,0,1,4.873-10.857c.313-.293-.159-.763-.47-.47" transform="translate(-79.397 -141.255)"/>
                </g>
              </g>
            </g>
            <g id="Group_1114610" data-name="Group 1114610" transform="translate(72.585 127.454)" opacity="0.3">
              <g id="Group_1114609" data-name="Group 1114609">
                <g id="Group_1114608" data-name="Group 1114608" clip-path="url(#clip-path-51)">
                  <path id="Path_907369" data-name="Path 907369" d="M90.142,144.008a6.76,6.76,0,0,1-7.844,4.436c-.417-.09-.595.55-.176.641a7.441,7.441,0,0,0,8.662-4.9c.133-.408-.509-.582-.641-.176" transform="translate(-81.882 -143.778)"/>
                </g>
              </g>
            </g>
            <path id="Path_907370" data-name="Path 907370" d="M84.714,178.435c.479,2.727,7.1,31.054,7.891,39.384s-8.484,42.587-10.841,44.773S58.958,251.134,59.65,250.936s11.472-17.491,12.958-24.93-.721-36.571-1.018-39.742,4.619-2.927,9.49-4.969l2.46-3.116Z" transform="translate(-6.771 -20.23)" fill="#263238"/>
            <g id="Group_1114613" data-name="Group 1114613" transform="translate(57.485 215.382)" opacity="0.3">
              <g id="Group_1114612" data-name="Group 1114612">
                <g id="Group_1114611" data-name="Group 1114611" clip-path="url(#clip-path-52)">
                  <path id="Path_907371" data-name="Path 907371" d="M69.393,242.968,71.5,255.687l-2.142.4s3.388,8.211,3.044,10.229l-4.827-2.3-2.726-12.19Z" transform="translate(-64.848 -242.968)"/>
                </g>
              </g>
            </g>
            <path id="Path_907372" data-name="Path 907372" d="M76.386,183.585c-2.771.155-7.557,1.823-8.475,4.166-3.45,8.806-10.3,29.51-11.74,34.5-.912,3.164,2.375,27.137,2.375,27.137l10.213-1.505s-2.36-22.956-1.671-24.509c2.567-5.79,12.231-21.485,13.415-26.728s2.3-10.071-.645-12.23a5.991,5.991,0,0,0-3.47-.833" transform="translate(-6.359 -20.843)" fill="#263238"/>
            <path id="Path_907373" data-name="Path 907373" d="M61.281,257.319c.337,1.671-.337,3.386-.558,4.652-.355,2.034,1.1,3.9.856,4.771-.667,2.322-3.561,5.894-2.412,6.711s3.8-3.445,3.8-3.445-2.255,4.9-1.162,5.637c1.513,1.019,1.728.377,1.728.377a1.287,1.287,0,0,0,1.544.7c.668-.2,2.619-3,3.36-7.347,0,0,.1,1.421.043,3.724-.02.921-.659,1.951-.4,3.045.357,1.534,2.593-.89,2.815-3.509s-1.195-7.328-2.258-10.649c-.116-.363-.272-.8-.449-1.269l-1.268-4.234" transform="translate(-6.688 -29.121)" fill="#ffb463"/>
            <path id="Path_907374" data-name="Path 907374" d="M64.164,277.39a17.109,17.109,0,0,0,2.08-4.022,14.038,14.038,0,0,0,.425-5.241c-.03-.425-.695-.427-.665,0a13.537,13.537,0,0,1-.4,5.063,16.473,16.473,0,0,1-2.013,3.863c-.231.362.344.7.574.336" transform="translate(-7.214 -30.407)" fill="#ff7800"/>
            <path id="Path_907375" data-name="Path 907375" d="M63.649,271.437c.427-1.331,1.118-2.828.512-4.208a.335.335,0,0,0-.455-.119.34.34,0,0,0-.12.455,2.772,2.772,0,0,1,.014,1.8c-.167.64-.391,1.268-.593,1.9-.131.408.511.583.641.176" transform="translate(-7.152 -30.323)" fill="#ff7800"/>
            <path id="Path_907376" data-name="Path 907376" d="M93.412,208.97q-2.544-3.655-5-7.373c-.766-1.16-1.968-2.539-2.054-3.982-.071-1.19.785-2.2.794-3.377.016-2.012-2.1-2.955-3.081-4.44-1.717-2.591-.449-5.7.519-8.294.15-.4-.493-.574-.641-.176-.892,2.389-1.893,4.9-1.08,7.462a6.163,6.163,0,0,0,1.678,2.558c.983.964,2.2,1.889,1.865,3.441-.246,1.12-.878,2.04-.67,3.234A9.5,9.5,0,0,0,87.49,201.4q2.619,3.989,5.347,7.9c.243.348.82.017.574-.336" transform="translate(-9.375 -20.562)"/>
            <path id="Path_907377" data-name="Path 907377" d="M75.164,215.561a76.309,76.309,0,0,0,5.205-11.893c.137-.407-.5-.581-.642-.177a75.1,75.1,0,0,1-5.138,11.734c-.2.377.37.713.574.336" transform="translate(-8.464 -23.078)"/>
            <path id="Path_907378" data-name="Path 907378" d="M83,247.594l-8.421-4.8a.333.333,0,0,0-.336.574l8.421,4.8a.333.333,0,0,0,.336-.574" transform="translate(-8.412 -27.562)"/>
            <path id="Path_907379" data-name="Path 907379" d="M104.166,163.23a18.647,18.647,0,0,0-1.7,2.122c-.145-.066-.3-.131-.439-.2-1.979-.933-2.589-2.008-2.652-2.92a2.811,2.811,0,0,1,.245-1.3,2.678,2.678,0,0,1,.387-.649,10.276,10.276,0,0,0,3.5,2.62c.43.2.668.332.668.332" transform="translate(-11.282 -18.198)" fill="#263238"/>
            <path id="Path_907380" data-name="Path 907380" d="M103.531,162.886l-.521.613c-1.857-.88-3.047-1.741-3.362-2.584a2.709,2.709,0,0,1,.388-.649,10.193,10.193,0,0,0,3.5,2.62" transform="translate(-11.314 -18.196)" fill="#fff"/>
            <path id="Path_907381" data-name="Path 907381" d="M102.05,165.419c-1.979-.933-2.589-2.007-2.652-2.919a7.066,7.066,0,0,1,1.99,1.462,2.6,2.6,0,0,1,.662,1.457" transform="translate(-11.286 -18.45)" fill="#ff3f3e"/>
          </g>
        </g>
      </g>
    </g>
  </g>
</svg>
