<svg xmlns="http://www.w3.org/2000/svg" xmlns:xlink="http://www.w3.org/1999/xlink" width="457" height="417" viewBox="0 0 457 417">
  <defs>
    <clipPath id="clip-path">
      <rect id="Rectangle_406774" data-name="Rectangle 406774" width="392.358" height="412.812" fill="rgba(0,0,0,0)"/>
    </clipPath>
    <clipPath id="clip-path-3">
      <rect id="Rectangle_406746" data-name="Rectangle 406746" width="3.235" height="2.047" fill="rgba(0,0,0,0)"/>
    </clipPath>
    <clipPath id="clip-path-4">
      <rect id="Rectangle_406747" data-name="Rectangle 406747" width="0.047" height="1.756" fill="rgba(0,0,0,0)"/>
    </clipPath>
    <clipPath id="clip-path-5">
      <rect id="Rectangle_406748" data-name="Rectangle 406748" width="0.017" height="1.082" fill="rgba(0,0,0,0)"/>
    </clipPath>
    <clipPath id="clip-path-6">
      <rect id="Rectangle_406749" data-name="Rectangle 406749" width="0.153" height="9.062" fill="rgba(0,0,0,0)"/>
    </clipPath>
    <clipPath id="clip-path-7">
      <rect id="Rectangle_406750" data-name="Rectangle 406750" width="0.994" height="2.841" fill="rgba(0,0,0,0)"/>
    </clipPath>
    <clipPath id="clip-path-11">
      <rect id="Rectangle_406760" data-name="Rectangle 406760" width="38.478" height="76.237" fill="rgba(0,0,0,0)"/>
    </clipPath>
    <clipPath id="clip-path-12">
      <rect id="Rectangle_406761" data-name="Rectangle 406761" width="7.71" height="30.088" fill="rgba(0,0,0,0)"/>
    </clipPath>
    <clipPath id="clip-path-13">
      <rect id="Rectangle_406762" data-name="Rectangle 406762" width="3.494" height="3.557" fill="rgba(0,0,0,0)"/>
    </clipPath>
    <clipPath id="clip-path-14">
      <rect id="Rectangle_406763" data-name="Rectangle 406763" width="41.175" height="26.314" fill="rgba(0,0,0,0)"/>
    </clipPath>
    <clipPath id="clip-path-15">
      <rect id="Rectangle_406764" data-name="Rectangle 406764" width="21.643" height="15.237" fill="rgba(0,0,0,0)"/>
    </clipPath>
    <clipPath id="clip-path-16">
      <rect id="Rectangle_406765" data-name="Rectangle 406765" width="3.615" height="3.601" fill="rgba(0,0,0,0)"/>
    </clipPath>
    <clipPath id="clip-path-17">
      <rect id="Rectangle_406766" data-name="Rectangle 406766" width="46.538" height="3.961" fill="rgba(0,0,0,0)"/>
    </clipPath>
    <clipPath id="clip-path-18">
      <rect id="Rectangle_406767" data-name="Rectangle 406767" width="22.514" height="4.748" fill="rgba(0,0,0,0)"/>
    </clipPath>
    <clipPath id="clip-path-19">
      <rect id="Rectangle_406768" data-name="Rectangle 406768" width="41.341" height="14.871" fill="rgba(0,0,0,0)"/>
    </clipPath>
    <clipPath id="clip-path-20">
      <rect id="Rectangle_406769" data-name="Rectangle 406769" width="16.034" height="6.355" fill="rgba(0,0,0,0)"/>
    </clipPath>
    <clipPath id="clip-path-21">
      <rect id="Rectangle_406770" data-name="Rectangle 406770" width="17.125" height="5.436" fill="rgba(0,0,0,0)"/>
    </clipPath>
    <clipPath id="clip-path-22">
      <rect id="Rectangle_406771" data-name="Rectangle 406771" width="5.785" height="34.573" fill="rgba(0,0,0,0)"/>
    </clipPath>
  </defs>
  <g id="Group_1114809" data-name="Group 1114809" transform="translate(-228 -1335)">
    <rect id="Rectangle_406777" data-name="Rectangle 406777" width="457" height="417" transform="translate(228 1335)" fill="#fff"/>
    <g id="Group_1114806" data-name="Group 1114806" transform="translate(-773.5 -1691.443)">
      <rect id="Rectangle_406775" data-name="Rectangle 406775" width="419.754" height="413.458" transform="translate(1020.246 3029.985)" fill="none"/>
      <g id="Group_1114805" data-name="Group 1114805" transform="translate(1020 3029.985)">
        <g id="Group_1114804" data-name="Group 1114804" clip-path="url(#clip-path)">
          <g id="Group_1114759" data-name="Group 1114759">
            <g id="Group_1114758" data-name="Group 1114758" clip-path="url(#clip-path)">
              <path id="Path_907917" data-name="Path 907917" d="M86.621,126.577A31.476,31.476,0,1,1,55.145,95.1a31.476,31.476,0,0,1,31.476,31.475" transform="translate(-2.269 -9.119)" fill="#fafafa"/>
              <path id="Path_907918" data-name="Path 907918" d="M86.806,126.363a9,9,0,0,1-.255-2.017,16.47,16.47,0,0,0-.3-2.423,23.8,23.8,0,0,0-.678-3.251,30.536,30.536,0,0,0-3.491-8.343,31.408,31.408,0,0,0-7.91-8.884A31.076,31.076,0,0,0,44.82,96.779a29.163,29.163,0,0,0-7.87,4.141,35.174,35.174,0,0,0-3.54,2.948,35.4,35.4,0,0,0-3.067,3.555,30.827,30.827,0,0,0-.429,36.549A35.131,35.131,0,0,0,32.9,147.6a35.031,35.031,0,0,0,3.47,3.031,29.1,29.1,0,0,0,7.773,4.325,31.308,31.308,0,0,0,37.57-12.675,30.555,30.555,0,0,0,3.684-8.259,23.82,23.82,0,0,0,.754-3.234,16.513,16.513,0,0,0,.357-2.414,8.994,8.994,0,0,1,.3-2.011,8.891,8.891,0,0,1,.05,2.037,14.318,14.318,0,0,1-.2,2.466,22.1,22.1,0,0,1-.61,3.329,29.909,29.909,0,0,1-3.508,8.6,32.218,32.218,0,0,1-21.887,15.2,32.5,32.5,0,0,1-17.082-1.524,30.535,30.535,0,0,1-8.216-4.5,36.528,36.528,0,0,1-3.672-3.179,36.642,36.642,0,0,1-3.163-3.811,32.39,32.39,0,0,1,.453-38.577,36.7,36.7,0,0,1,3.251-3.735,36.289,36.289,0,0,1,3.745-3.09,30.539,30.539,0,0,1,8.317-4.308A32.51,32.51,0,0,1,61.4,94.136a32.211,32.211,0,0,1,21.526,15.7,29.936,29.936,0,0,1,3.307,8.675,22.122,22.122,0,0,1,.532,3.343,14.169,14.169,0,0,1,.137,2.471,8.875,8.875,0,0,1-.1,2.035" transform="translate(-2.146 -8.964)" fill="#e0e0e0"/>
              <path id="Path_907919" data-name="Path 907919" d="M81.041,107.918c.071.1-.5.6-1.591,1.439l-2.027,1.494c-.4.282-.821.6-1.289.9l-1.555.837a35.861,35.861,0,0,1-18.62,4.939l-2.83-.09-2.719-.391c-.445-.069-.888-.123-1.322-.2l-1.27-.322c-.836-.221-1.664-.406-2.452-.647a40.932,40.932,0,0,1-7.971-3.552c-4.291-2.521-6.393-4.837-6.234-4.99.169-.2,2.509,1.733,6.825,3.906a47.846,47.846,0,0,0,7.842,3.094c.762.212,1.561.369,2.364.564l1.221.287,1.266.175,2.6.349,2.7.075a38.68,38.68,0,0,0,18.037-4.289l1.574-.708c.478-.258.913-.533,1.331-.771l2.154-1.222c1.2-.654,1.9-.972,1.971-.875" transform="translate(-2.987 -10.29)" fill="#e0e0e0"/>
              <path id="Path_907920" data-name="Path 907920" d="M30.645,150.4c-.071-.1.5-.6,1.591-1.439l2.026-1.494c.4-.282.822-.6,1.29-.9l1.555-.837a35.861,35.861,0,0,1,18.62-4.939l2.829.09,2.72.391c.446.069.888.122,1.321.2l1.272.321c.835.221,1.663.407,2.451.648a40.988,40.988,0,0,1,7.972,3.552c4.29,2.521,6.393,4.837,6.233,4.99-.17.2-2.509-1.733-6.825-3.906a47.813,47.813,0,0,0-7.842-3.094c-.763-.212-1.56-.369-2.363-.564l-1.222-.288-1.265-.174-2.6-.349-2.7-.075a38.681,38.681,0,0,0-18.037,4.289l-1.574.707c-.479.259-.913.534-1.331.772l-2.154,1.222c-1.2.654-1.9.972-1.971.875" transform="translate(-2.938 -13.498)" fill="#e0e0e0"/>
              <path id="Path_907921" data-name="Path 907921" d="M86.889,130.525c-.005.483-14.238.707-31.785.5s-31.773-.763-31.768-1.246,14.235-.706,31.789-.5,31.77.763,31.764,1.245" transform="translate(-2.238 -12.389)" fill="#e0e0e0"/>
              <path id="Path_907922" data-name="Path 907922" d="M57.233,157.823c-.483-.005-.707-14.234-.5-31.774s.762-31.763,1.245-31.757.707,14.23.5,31.777-.763,31.76-1.245,31.754" transform="translate(-5.432 -9.041)" fill="#e0e0e0"/>
              <path id="Path_907923" data-name="Path 907923" d="M55.577,157.774c-.118.186-3.648-2.143-7.756-7.466a42.748,42.748,0,0,1-5.808-10.239,38.311,38.311,0,0,1-2.637-14.2,36.435,36.435,0,0,1,3.03-14.133,44.142,44.142,0,0,1,6.08-10.072C52.7,96.436,56.2,94.1,56.32,94.282c.174.2-2.99,2.837-6.851,8.126a47.609,47.609,0,0,0-5.577,9.943,36.629,36.629,0,0,0-2.768,13.524,38.67,38.67,0,0,0,2.4,13.622,45.817,45.817,0,0,0,5.3,10.084c3.746,5.37,6.931,8,6.756,8.193" transform="translate(-3.775 -9.039)" fill="#e0e0e0"/>
              <path id="Path_907924" data-name="Path 907924" d="M58.824,94.29c.118-.186,3.648,2.143,7.755,7.466A42.717,42.717,0,0,1,72.388,112a38.31,38.31,0,0,1,2.637,14.2A36.435,36.435,0,0,1,72,140.333a44.142,44.142,0,0,1-6.08,10.072c-4.213,5.224-7.713,7.56-7.834,7.378-.174-.2,2.99-2.837,6.852-8.127a47.619,47.619,0,0,0,5.577-9.943,36.629,36.629,0,0,0,2.768-13.524,38.69,38.69,0,0,0-2.4-13.622,45.816,45.816,0,0,0-5.3-10.084c-3.746-5.37-6.931-8-6.756-8.193" transform="translate(-5.568 -9.04)" fill="#e0e0e0"/>
              <path id="Path_907925" data-name="Path 907925" d="M58.042,163.489c.13,0,.235,4.584.235,10.237s-.1,10.239-.235,10.239-.235-4.583-.235-10.239.1-10.237.235-10.237" transform="translate(-5.543 -15.676)" fill="#ebebeb"/>
              <path id="Path_907926" data-name="Path 907926" d="M82.031,74.349a1.433,1.433,0,0,1-.421.048L80.4,74.44l-4.439.075c-3.749.043-8.928.069-14.648.069l-3.679,0,.231-.231c-.032,4.8-.059,9.031-.08,12.155-.029,1.466-.052,2.671-.07,3.585a7.64,7.64,0,0,1-.082,1.3,7.64,7.64,0,0,1-.082-1.3c-.018-.914-.041-2.118-.07-3.585-.021-3.124-.048-7.353-.08-12.155l0-.231h.233l3.679,0c5.719,0,10.9.026,14.648.069l4.439.075,1.207.044a1.458,1.458,0,0,1,.421.047" transform="translate(-5.504 -7.106)" fill="#ebebeb"/>
              <rect id="Rectangle_406742" data-name="Rectangle 406742" width="9.75" height="46.011" transform="translate(267.442 366.566)" fill="#ebebeb"/>
              <rect id="Rectangle_406743" data-name="Rectangle 406743" width="9.75" height="46.011" transform="translate(350.29 366.566)" fill="#ebebeb"/>
              <rect id="Rectangle_406744" data-name="Rectangle 406744" width="122.995" height="11.378" transform="translate(251.315 308.721)" fill="#ebebeb"/>
              <path id="Path_907927" data-name="Path 907927" d="M396.857,401.09l-110.609.24V354.046H396.857Z" transform="translate(-27.446 -33.947)" fill="#ebebeb"/>
              <path id="Path_907928" data-name="Path 907928" d="M400.963,354.023c0,.122-27.536.221-61.5.221s-61.5-.1-61.5-.221,27.529-.221,61.5-.221,61.5.1,61.5.221" transform="translate(-26.653 -33.924)" fill="#e0e0e0"/>
              <path id="Path_907929" data-name="Path 907929" d="M396.493,406.32c0,.122-24.58.222-54.9.222s-54.9-.1-54.9-.222,24.576-.221,54.9-.221,54.9.1,54.9.221" transform="translate(-27.49 -38.938)" fill="#e0e0e0"/>
              <path id="Path_907930" data-name="Path 907930" d="M388.68,392.469s-.01-.188-.014-.543-.009-.888-.015-1.57c-.009-1.39-.021-3.421-.036-6.05-.018-5.267-.045-12.919-.08-22.519l.146.146-92.362.076h-.005l.221-.222c0,10.66,0,21-.006,30.683l-.214-.214,66.063.1,19.306.06,5.186.028,1.346.014c.3,0,.467.014.467.014s-.144.009-.439.014l-1.321.014-5.141.027-19.256.061-66.21.1H296.1v-.214c0-9.682,0-20.023-.007-30.683v-.221h.227l92.362.076h.146v.146c-.034,9.638-.061,17.318-.08,22.606-.015,2.616-.028,4.635-.036,6.019-.006.671-.012,1.183-.015,1.544,0,.345-.014.514-.014.514" transform="translate(-28.39 -34.668)" fill="#e0e0e0"/>
              <path id="Path_907931" data-name="Path 907931" d="M300.01,391.294a15.285,15.285,0,0,1-3.531,3.789,15.283,15.283,0,0,1,3.531-3.789" transform="translate(-28.427 -37.518)" fill="#e0e0e0"/>
              <path id="Path_907932" data-name="Path 907932" d="M300,365.835a16.783,16.783,0,0,1-3.66-4.018,16.786,16.786,0,0,1,3.66,4.018" transform="translate(-28.413 -34.692)" fill="#e0e0e0"/>
              <path id="Path_907933" data-name="Path 907933" d="M398.223,361.915a8.057,8.057,0,0,1-2.011,2.13,12.6,12.6,0,0,1-2.3,1.8,8.057,8.057,0,0,1,2.011-2.13,12.651,12.651,0,0,1,2.3-1.8" transform="translate(-37.769 -34.701)" fill="#e0e0e0"/>
              <path id="Path_907934" data-name="Path 907934" d="M398.061,395.323a18.956,18.956,0,0,1-4.149-4.023,18.956,18.956,0,0,1,4.149,4.023" transform="translate(-37.769 -37.519)" fill="#e0e0e0"/>
              <path id="Path_907935" data-name="Path 907935" d="M384.919,388.873s-.009-.139-.014-.4-.008-.654-.015-1.15c-.007-1.023-.018-2.51-.033-4.44-.017-3.876-.042-9.517-.074-16.647l.135.135-84.554.087h0l.221-.222c0,7.78,0,15.366-.005,22.635l-.216-.216,60.338.1,17.758.061,4.785.028,1.245.014c.281,0,.432.014.432.014s-.132.009-.4.014l-1.219.014-4.738.028-17.709.062-60.488.1h-.216v-.217c0-7.269,0-14.856-.005-22.635v-.222h.226l84.554.086h.136v.135c-.032,7.164-.057,12.833-.074,16.727-.014,1.917-.025,3.394-.033,4.41-.006.485-.011.859-.014,1.126,0,.251-.014.372-.014.372" transform="translate(-28.778 -35.095)" fill="#e0e0e0"/>
              <path id="Path_907936" data-name="Path 907936" d="M354.63,376.3a8.974,8.974,0,0,0-2.271-1.033,7.3,7.3,0,0,0-2.245-.349H343.89a7.169,7.169,0,0,0-4.957,1.917,4.153,4.153,0,0,0-.743.9,2.557,2.557,0,0,0,.243,3.043c.8.75,2.433.384,2.569-.7a2.7,2.7,0,0,0,2.865,2.545,3.637,3.637,0,0,0,3.062-2.655,2.43,2.43,0,0,0,4.836.367c.768,1,1.9,1.936,3.215,1.51a2.315,2.315,0,0,0,1.49-1.664,3.733,3.733,0,0,0-1.84-3.875" transform="translate(-32.39 -35.948)" fill="#e0e0e0"/>
              <path id="Path_907937" data-name="Path 907937" d="M345.333,374.885a8.711,8.711,0,0,0-4,5.493c-.052,0-.092-.414.034-1.064a6.2,6.2,0,0,1,2.961-4.069c.58-.32.983-.409,1-.36" transform="translate(-32.724 -35.944)" fill="#ebebeb"/>
              <path id="Path_907938" data-name="Path 907938" d="M348.337,375.172a13.889,13.889,0,0,1-.514,4.9,13.773,13.773,0,0,1,.514-4.9" transform="translate(-33.343 -35.973)" fill="#ebebeb"/>
              <path id="Path_907939" data-name="Path 907939" d="M351.718,375.092c.028-.045.353.085.722.495a3.888,3.888,0,0,1,.874,1.915,6.928,6.928,0,0,1,.012,2.077c-.072.521-.157.835-.217.831s-.087-.331-.095-.849a12.8,12.8,0,0,0-.136-1.982,4.79,4.79,0,0,0-.686-1.8c-.272-.417-.515-.63-.475-.685" transform="translate(-33.724 -35.964)" fill="#ebebeb"/>
              <rect id="Rectangle_406745" data-name="Rectangle 406745" width="75.788" height="8.878" transform="translate(276.12 382.059)" fill="#ebebeb"/>
              <path id="Path_907940" data-name="Path 907940" d="M362.333,328.72v11.432H313.178a5.716,5.716,0,0,1,0-11.432" transform="translate(-29.481 -31.519)" fill="#e0e0e0"/>
              <path id="Path_907941" data-name="Path 907941" d="M366.083,338.01H349.539a2.961,2.961,0,0,1-2.961-2.961v-.717a2.961,2.961,0,0,1,2.961-2.961h16.544Z" transform="translate(-33.231 -31.773)" fill="#ebebeb"/>
              <path id="Path_907942" data-name="Path 907942" d="M362.333,316.077v11.432H313.178a5.716,5.716,0,1,1,0-11.432Z" transform="translate(-29.481 -30.307)" fill="#ebebeb"/>
              <path id="Path_907943" data-name="Path 907943" d="M366.083,325.366H349.539a2.961,2.961,0,0,1-2.961-2.961v-.717a2.961,2.961,0,0,1,2.961-2.961h16.544Z" transform="translate(-33.231 -30.561)" fill="#f5f5f5"/>
              <path id="Path_907944" data-name="Path 907944" d="M328.06,295.8l-7.807,18.336h5.025l3.468-9.794Z" transform="translate(-30.707 -28.362)" fill="#e0e0e0"/>
              <path id="Path_907945" data-name="Path 907945" d="M352.718,277.443l3.016,34.93H330.219l-2.8-34.93Z" transform="translate(-31.394 -26.602)" fill="#f5f5f5"/>
              <path id="Path_907946" data-name="Path 907946" d="M350.619,280.49l2.642,29.256L334.108,310l-2.587-29.678Z" transform="translate(-31.787 -26.878)" fill="#fafafa"/>
              <path id="Path_907947" data-name="Path 907947" d="M347.034,284.987l1.5,20.133H338.32l-1.8-20.133Z" transform="translate(-32.267 -27.326)" fill="#e0e0e0"/>
              <path id="Path_907948" data-name="Path 907948" d="M306.564,73.157c-.082-.843-.175-1.674-.293-2.505q-.171-1.317-.39-2.62.218,1.3.39,2.62c.118.831.211,1.663.293,2.505" transform="translate(-29.329 -6.523)" fill="#263238"/>
              <path id="Path_907949" data-name="Path 907949" d="M284.275,77.019a36.98,36.98,0,0,1-1.37-5.174,3.427,3.427,0,0,0-1.557-2.318,13.778,13.778,0,0,0-1.862-.421c-2.189-.655-2.786-3.711-4.858-4.66a7.067,7.067,0,0,0-2.084-.433c-2.775-.327-5.643-1.287-7.387-3.465a13.629,13.629,0,0,0-1.71-2.107,2.046,2.046,0,0,0-2.505-.234c.586,1.171,1.159,2.342,1.733,3.5a9.212,9.212,0,0,0,1.943,2.915,3.136,3.136,0,0,0,3.266.7,2.162,2.162,0,0,1,1.1-.387,1.194,1.194,0,0,1,.714.457c1.51,1.674,1.018,4.449-.457,6.158s-3.641,2.588-5.737,3.418a4.452,4.452,0,0,1-2.342.457c-1.451-.269-2.224-1.85-2.645-3.267-.948-3.137-1.4-6.544-3.348-9.189a11.5,11.5,0,0,1-1.768-2.564c-.4-1.053-.3-2.282-.937-3.207-.656-.972-2.049-1.534-2.143-2.705a2.135,2.135,0,0,1,1.37-1.9c.749-.363,1.592-.468,2.365-.785.3-.128.644-.351.655-.679,0-.491-.679-.69-.854-1.146-.188-.515.339-1,.561-1.5.48-1.147-.714-2.306-1.873-2.775s-2.541-.807-3.079-1.931a6.663,6.663,0,0,1-.374-1.674,3.664,3.664,0,0,0-2.739-3.02,2.412,2.412,0,0,0-2.8,2.47,10.165,10.165,0,0,0,1.042,2.118c.328.726.235,1.8-.514,2.037-1.23.375-2.412-1.872-3.442-1.1.421,1.44.831,2.881,1.253,4.332-1.616.819-3.548-.667-4.239-2.353s-.714-3.594-1.533-5.21-3.032-2.833-4.437-1.685c-.071,2.084,2.681,2.927,3.9,4.613a2.827,2.827,0,0,1-.55,3.968c-1.288.773-3.336-.573-2.845-1.99.176-.492.586-.9.632-1.429.047-.655-.5-1.183-1.006-1.6-.785-.667-1.569-1.323-2.353-1.978a4.968,4.968,0,0,0-1.674-1.054c-1.616-.467-3.231.844-4.086,2.283s-1.334,3.15-2.517,4.355a4.6,4.6,0,0,1-6.509.024c-1.6-1.838-.785-5.28,1.569-5.947.89-.245,2.013-.222,2.482-1.006.819-1.393-1.523-3.173-.714-4.578.62-1.077,2.259-.585,3.454-.948s1.85-1.557,2.551-2.587,1.78-2.049,3-1.779a3.747,3.747,0,0,1,.129-2.131,1.3,1.3,0,0,1,1.791-.655A2.162,2.162,0,0,0,230.1,30.1a6.315,6.315,0,0,0,3.406.246c1.147-.14,2.588-.561,2.682-1.709.035-.375-.106-.773.035-1.124.5-1.37,3.032.514,4-.586.561-.573-.059-1.592-.844-1.779a8.577,8.577,0,0,0-2.376.118c-.8.034-1.768-.387-1.8-1.183s.843-1.346.937-2.119c.152-1.311-2.072-1.65-2.857-.585s-.5,2.529-.269,3.828.363,2.833-.6,3.746c-.41.621-1.475.293-1.826-.363a5.288,5.288,0,0,1-.339-2.189,1.886,1.886,0,0,0-1.112-1.791,3.954,3.954,0,0,0-1.557.175c-2.037.246-3.454-2.388-2.81-4.332s2.482-3.208,4.273-4.2c1.311-.726,2.938-1.4,4.238-.667.609.339,1.031.924,1.627,1.276,1.031.608,2.306.386,3.489.41a8.13,8.13,0,0,1,5.092,1.978c.527.48,1.019,1.277.609,1.85-.445.608-1.721.738-1.5,1.452a2.539,2.539,0,0,0,3.184-2.049,2.129,2.129,0,0,1,1.23,1.732,3.79,3.79,0,0,1,5.56.457,4.789,4.789,0,0,0,1.031,1.323c.468.3,1.287.153,1.346-.4a1.117,1.117,0,0,0-.094-.515c-.281-.8-.573-1.58-.854-2.364,1.089-.586,2.377.327,3.114,1.311,2.739,3.664,4.7,1.463,8.557,2.06,2.611.4,3.758,2.072,5.233,4.1,4.519,6.228,10.49,11.332,14.6,17.841.433.679.831,1.37,1.205,2.071-.07-.175-.128-.351-.2-.526a72.171,72.171,0,0,0-5.97-12.14q-.755-1.23-1.546-2.424c-.327-.491-.667-.995-1.006-1.475-.433-.632-.89-1.241-1.346-1.85-.363-.492-.726-.971-1.1-1.44-.258-.327-.527-.655-.8-.983-.28-.374-.585-.738-.913-1.1l-.983-1.136a4.432,4.432,0,0,0-.316-.352c-.339-.4-.7-.784-1.065-1.171a.339.339,0,0,0-.106-.117c-.093-.106-.2-.211-.3-.316-.293-.327-.609-.644-.914-.959-.5-.515-1.018-1.031-1.545-1.523-.433-.433-.878-.843-1.334-1.252-.4-.363-.8-.726-1.205-1.077s-.8-.691-1.206-1.031c-.492-.421-.995-.831-1.511-1.24h-.012c-1.416-1.136-2.88-2.212-4.378-3.22-.374-.258-.738-.5-1.112-.75s-.761-.492-1.136-.726-.761-.479-1.147-.7c-.386-.246-.773-.468-1.159-.692-.316-.187-.62-.363-.937-.526a4.826,4.826,0,0,0-.48-.269c-.667-.374-1.346-.738-2.025-1.077-.339-.175-.679-.352-1.03-.515-.433-.222-.878-.433-1.323-.632a1.06,1.06,0,0,0-.2-.094c-.4-.187-.8-.374-1.206-.55-.574-.246-1.147-.492-1.721-.726-.656-.269-1.312-.539-1.979-.785-.737-.28-1.475-.55-2.224-.8s-1.51-.5-2.271-.738-1.522-.445-2.295-.655c-1.522-.41-3.067-.773-4.624-1.089-.023-.012-.059-.012-.082-.024-.6-.117-1.194-.234-1.791-.327a.52.52,0,0,0-.117-.024c-.258-.047-.527-.094-.8-.129-1.112-.187-2.236-.339-3.371-.468-.128-.024-.269-.035-.41-.047-.328-.046-.655-.07-1-.1-.749-.071-1.5-.129-2.259-.175-.784-.059-1.58-.094-2.376-.118C219.056.012,218.225,0,217.395,0q-3.3,0-6.532.293c-.515.035-1.019.082-1.523.141-.526.058-1.053.117-1.58.187s-1.053.14-1.569.222-1.042.164-1.569.258c-.445.07-.9.152-1.346.246q-1.65.316-3.266.7-.755.176-1.511.387c-.5.128-1.006.269-1.5.41-.831.234-1.639.492-2.447.75h-.012c-.655.222-1.323.445-1.966.667a.087.087,0,0,0-.047.023c-.668.234-1.311.48-1.967.738l-.1.035c-.6.234-1.194.48-1.779.726-.738.3-1.464.632-2.178.96-.608.28-1.205.561-1.791.854-.632.316-1.264.632-1.884.96l-.071.034c-.6.316-1.194.645-1.779.984-.608.339-1.206.691-1.8,1.065h-.012c-.562.34-1.112.679-1.663,1.031-.211.128-.41.269-.62.41-.586.374-1.147.761-1.721,1.159-.7.48-1.381.983-2.06,1.486-.6.445-1.183.9-1.757,1.358a73.676,73.676,0,0,0-9.2,8.722c-.995,1.1-1.931,2.224-2.844,3.371-.773.983-1.523,1.978-2.237,3.009q-.966,1.343-1.862,2.736.9-1.391,1.862-2.736c.188-.024.375-.047.562-.059a8.655,8.655,0,0,0,3.114-.5,18.6,18.6,0,0,0,2.295-1.779c2.037-1.452,5.373-1.721,5.924-4.156a17.413,17.413,0,0,1,.269-2.494c.573-1.463,2.529-1.674,4.1-1.65.667,0,1.451.093,1.756.678A1.677,1.677,0,0,1,175,22.583a12.726,12.726,0,0,1-5.373,6.6c-2.037,1.241-4.7,2.2-5.257,4.519.281.785,1.709.726,1.826,1.545.082.656-.76,1-1.065,1.581-.445.854.573,1.9,1.545,1.849a4.274,4.274,0,0,0,2.494-1.4c2.13-1.979,4.367-4.109,5.139-6.919.328-1.159.445-2.517,1.381-3.289a2.289,2.289,0,0,1,3.477,1.112c.925-.515,2.364-.9,2.844.059a4.9,4.9,0,0,1,.2,1.1c.3,1.5,2.353,2.177,2.564,3.687.246,1.745-1.99,2.646-3.735,2.916-1.58.245-3.161.491-4.741.749a4.39,4.39,0,0,0-1.966.632,1.534,1.534,0,0,0-.585,1.838,4.628,4.628,0,0,0,.819.844,2.521,2.521,0,0,1-1.616,4.074c-.632.023-1.252-.211-1.885-.234-1.872-.082-3.36,1.569-4.249,3.219s-1.557,3.536-3.055,4.66c-2.411,1.815-6.567,1.393-7.738,4.179a6.682,6.682,0,0,0-.035,3.594,4.8,4.8,0,0,1-.433,3.524c-.691.983-2.494,1.193-3.009.093a2.7,2.7,0,0,1-.07-1.557c.28-1.732.55-3.465.819-5.2.2-1.287.374-2.728-.386-3.781-1.066-1.476-3.454-1.334-4.835-.152a8.53,8.53,0,0,0-2.329,4.8,20.833,20.833,0,0,1-1.335,4.659h0c-.246,1.451-.445,2.927-.6,4.413-.152,1.523-.258,3.032-.316,4.578a6.332,6.332,0,0,0,.6-.561c.737-.761,2.224-3.981,3.559-2.4a1.2,1.2,0,0,1,.023,1.464c-.41.526-1.23.644-1.545,1.217-.386.679.152,1.523.784,1.967a6.829,6.829,0,0,1,1.85,1.381c.854,1.23.035,3.091.866,4.343.714,1.078,2.236,1.147,3.536,1.288.152.024.292.047.445.07a5.909,5.909,0,0,1,5.08-5.467c4.847-1.1,11.216,2.916,13.942,6.568,3.044,4.086,4.484,9.868,9.143,11.917,3.336,1.463,8.077.937,9.7,4.2,1.452,2.927-1.077,6.217-1.463,9.459-.246,2.143.457,4.274.62,6.416s-.48,4.66-2.435,5.561c-1.089.491-2.458.433-3.336,1.252-1.558,1.475-.281,4.519-1.838,5.994a8.026,8.026,0,0,1-1.979,1.042c-3.5,1.768-3.407,6.918-1.779,10.489.059.129.118.246.175.375a73.981,73.981,0,0,0,37.942,10.478,73.628,73.628,0,0,0,34.71-8.64h.012a73.975,73.975,0,0,0,6.544-3.946,72.886,72.886,0,0,0,9.19-7.305,71.688,71.688,0,0,0,5.619-5.865c1.241-1.428,2.411-2.915,3.535-4.437.574-.784,1.136-1.569,1.663-2.377a72.677,72.677,0,0,0,9.2-18.929A71.878,71.878,0,0,0,290.69,83.89c.222-1.662.4-3.348.514-5.045a4.257,4.257,0,0,1-2.973,1.323c-1.779-.024-3.243-1.51-3.957-3.149" transform="translate(-13.759)" fill="#f5f5f5"/>
              <path id="Path_907950" data-name="Path 907950" d="M153.086,101.481c-.234-2.119.468-4.238.5-6.38.024-1.475-.082-3.032-.106-4.519a20.323,20.323,0,0,1-3.758-.527,1.12,1.12,0,0,1-.691-.351,1.377,1.377,0,0,1-.152-.785c-.094-1.662-1.7-2.762-3.137-3.594a12.551,12.551,0,0,0-2.283-1.124c0,.175,0,.34.012.515a73.687,73.687,0,0,0,4.706,23.472,70.841,70.841,0,0,0,4.519,9.694c.726,1.345,1.522,2.669,2.353,3.968,1.03,1.6,2.107,3.173,3.266,4.682,1.077,1.452,2.224,2.869,3.43,4.226a73.345,73.345,0,0,0,5.233,5.386q2.441,2.282,5.092,4.332c-4.039-10.84-7.843-21.9-14.751-31.129-1.815-2.411-3.9-4.87-4.238-7.867" transform="translate(-13.756 -8.074)" fill="#f5f5f5"/>
              <path id="Path_907951" data-name="Path 907951" d="M143.447,80.331c-.007.447-.023.89-.023,1.334,0,.363.012.721.018,1.083-.006-.362-.018-.72-.018-1.083,0-.445.016-.888.023-1.334" transform="translate(-13.752 -7.702)" fill="#263238"/>
              <g id="Group_1114745" data-name="Group 1114745" transform="translate(162.458 135.401)" opacity="0.6">
                <g id="Group_1114744" data-name="Group 1114744">
                  <g id="Group_1114743" data-name="Group 1114743" clip-path="url(#clip-path-3)">
                    <path id="Path_907952" data-name="Path 907952" d="M179.687,149.761q.933.631,1.889,1.228c.445.281.891.55,1.346.819-.456-.269-.9-.538-1.346-.819q-.956-.6-1.889-1.228" transform="translate(-179.687 -149.761)" fill="#263238"/>
                  </g>
                </g>
              </g>
              <path id="Path_907953" data-name="Path 907953" d="M245.2,135.808a6.412,6.412,0,0,1-1.381-.146,4.506,4.506,0,0,1-3.264-2.472,8.488,8.488,0,0,1-.569-3.221,12.233,12.233,0,0,0-.232-2.2,11.721,11.721,0,0,0-1.739-3.536,16.386,16.386,0,0,1-1.5-2.73,16.365,16.365,0,0,1-.811-5.608l-.013-.455c-.391-13.012-4.019-23.574-10.491-30.544a7.046,7.046,0,0,0-3.176-2.247,3.948,3.948,0,0,0-4.072,1.4,8.106,8.106,0,0,0-.614,1,5.64,5.64,0,0,1-1.071,1.524,3.06,3.06,0,0,1-2.6.7,4.709,4.709,0,0,1-3.248-2.24c-1.148-2.024-.941-4.518-.776-6.521l.668-8.074a7.109,7.109,0,0,1,1.255-4.121,6.87,6.87,0,0,1,3-1.721,9.009,9.009,0,0,0,2.315-1.108c1.3-.97,1.871-2.5,2.478-4.125a17.4,17.4,0,0,1,1.177-2.67,4.988,4.988,0,0,1,4.635-2.28,2.166,2.166,0,0,1,1.7,1.136,5.077,5.077,0,0,1,3.014-2.76c2.675-.768,5.934,1.35,9.086,3.4,2.878,1.867,5.594,3.632,7.729,3.244.536-.1,1.083-.252,1.612-.4a8.468,8.468,0,0,1,3.472-.476c3.108.434,4.694,3.806,5.728,6.695l5.057,14.13c.629,1.759,1.44,3.689,3.112,4.337a6.442,6.442,0,0,0,2.114.308,7.155,7.155,0,0,1,2.2.315,3.535,3.535,0,0,1,2.324,2.852,8.248,8.248,0,0,1-2.721,7.1,32.431,32.431,0,0,1-2.964,2.186c-2.286,1.557-4.445,3.027-5.376,5.444a13.03,13.03,0,0,0-.619,4.135,12.792,12.792,0,0,1-.721,4.448,12.745,12.745,0,0,1-2.2,3.205,20.461,20.461,0,0,0-1.469,1.873c-1.619,2.438-2.068,5.464-2.5,8.39-.056.374-.111.749-.169,1.12-.506,3.259-1.381,6.9-4.026,9.163a6.785,6.785,0,0,1-4.345,1.544" transform="translate(-20.088 -5.047)" fill="#e0e0e0"/>
              <g id="Group_1114748" data-name="Group 1114748" transform="translate(129.695 70.873)" opacity="0.6">
                <g id="Group_1114747" data-name="Group 1114747">
                  <g id="Group_1114746" data-name="Group 1114746" clip-path="url(#clip-path-4)">
                    <path id="Path_907954" data-name="Path 907954" d="M143.5,78.4v0c-.012.14-.024.269-.024.41-.018.439-.016.889-.023,1.334.007-.446.005-.9.023-1.334,0-.14.012-.269.024-.41" transform="translate(-143.449 -78.389)" fill="#263238"/>
                  </g>
                </g>
              </g>
              <g id="Group_1114751" data-name="Group 1114751" transform="translate(129.689 75.046)" opacity="0.6">
                <g id="Group_1114750" data-name="Group 1114750">
                  <g id="Group_1114749" data-name="Group 1114749" clip-path="url(#clip-path-5)">
                    <path id="Path_907955" data-name="Path 907955" d="M143.443,83c.005.362.005.726.017,1.083-.012-.357-.012-.721-.017-1.083" transform="translate(-143.443 -83.005)" fill="#263238"/>
                  </g>
                </g>
              </g>
              <path id="Path_907956" data-name="Path 907956" d="M153.609,86.8l-.445-.071c-1.3-.14-2.822-.211-3.536-1.287-.831-1.252-.012-3.114-.867-4.343a6.823,6.823,0,0,0-1.848-1.381c-.633-.445-1.171-1.287-.785-1.966.316-.574,1.136-.691,1.545-1.218a1.2,1.2,0,0,0-.023-1.463c-1.335-1.58-2.822,1.638-3.56,2.4a6.47,6.47,0,0,1-.6.562v.012c-.012.14-.023.269-.023.41-.017.438-.015.888-.024,1.334s-.023.89-.023,1.334c0,.363.012.721.018,1.083s.005.725.017,1.082a12.589,12.589,0,0,1,2.284,1.124c1.438.832,3.043,1.932,3.137,3.594a1.377,1.377,0,0,0,.152.785,1.124,1.124,0,0,0,.69.352,20.406,20.406,0,0,0,3.758.526" transform="translate(-13.752 -7.156)" fill="#e0e0e0"/>
              <path id="Path_907957" data-name="Path 907957" d="M154.5,90.355c.024,1.486.129,3.044.106,4.519-.035,2.143-.738,4.261-.5,6.38.339,3,2.423,5.455,4.238,7.867,6.907,9.225,10.712,20.287,14.751,31.128h.012c.75.6,1.51,1.159,2.283,1.71q.913.658,1.845,1.289t1.889,1.228c.445.281.89.55,1.346.819-.058-.128-.117-.246-.175-.374-1.627-3.571-1.721-8.722,1.779-10.49a8.026,8.026,0,0,0,1.979-1.042c1.557-1.476.28-4.519,1.837-5.994.878-.819,2.249-.76,3.337-1.252,1.955-.9,2.587-3.407,2.435-5.561s-.866-4.273-.62-6.415c.386-3.243,2.915-6.532,1.463-9.459-1.627-3.267-6.369-2.739-9.7-4.2-4.659-2.049-6.1-7.831-9.143-11.917-2.727-3.653-9.1-7.668-13.942-6.567a5.907,5.907,0,0,0-5.08,5.467" transform="translate(-14.771 -7.847)" fill="#e0e0e0"/>
              <path id="Path_907958" data-name="Path 907958" d="M148.175,54.6c1.382-1.183,3.769-1.323,4.835.152.76,1.054.585,2.494.386,3.782-.269,1.732-.539,3.465-.819,5.2a2.706,2.706,0,0,0,.07,1.558c.515,1.1,2.318.89,3.009-.094a4.8,4.8,0,0,0,.433-3.523,6.682,6.682,0,0,1,.035-3.594c1.171-2.786,5.327-2.365,7.738-4.18,1.5-1.124,2.165-3.009,3.055-4.659s2.377-3.3,4.249-3.22c.633.024,1.253.258,1.885.234a2.521,2.521,0,0,0,1.616-4.074,4.628,4.628,0,0,1-.819-.844,1.533,1.533,0,0,1,.585-1.837,4.379,4.379,0,0,1,1.966-.632c1.58-.258,3.161-.5,4.741-.75,1.745-.269,3.981-1.171,3.735-2.915-.211-1.511-2.259-2.19-2.564-3.688a4.91,4.91,0,0,0-.2-1.1c-.48-.96-1.919-.573-2.844-.059a2.289,2.289,0,0,0-3.477-1.112c-.937.773-1.053,2.131-1.381,3.29-.772,2.809-3.009,4.94-5.139,6.918a4.28,4.28,0,0,1-2.494,1.4c-.972.047-1.99-1-1.545-1.85.3-.586,1.147-.925,1.065-1.58-.118-.819-1.545-.761-1.826-1.545.561-2.318,3.22-3.278,5.257-4.519a12.728,12.728,0,0,0,5.373-6.6,1.675,1.675,0,0,0,.071-1.358c-.3-.586-1.089-.679-1.756-.679-1.569-.024-3.524.187-4.1,1.651a17.385,17.385,0,0,0-.269,2.494c-.551,2.435-3.887,2.7-5.924,4.155A18.514,18.514,0,0,1,160.83,32.8a8.635,8.635,0,0,1-3.114.5c-.187.012-.374.035-.562.059q-.966,1.343-1.862,2.737t-1.731,2.824a73.179,73.179,0,0,0-6.415,14.306q-.861,2.626-1.519,5.335t-1.116,5.493a20.846,20.846,0,0,0,1.335-4.659,8.533,8.533,0,0,1,2.329-4.8" transform="translate(-13.856 -2.179)" fill="#e0e0e0"/>
              <path id="Path_907959" data-name="Path 907959" d="M215.147,18.5c.7-.918.495-2.237.948-3.3.753-1.762,3.094-2.392,3.906-4.128.312-.667.389-1.483.934-1.979.454-.414,1.127-.5,1.616-.871,1.09-.835.638-2.736-.52-3.475-2.9-1.853-8.242.289-10.749,2.1-3.223,2.332-6.376,5.14-10.664,4.866a8.449,8.449,0,0,0-3.52.019c-1.108.42-1.79,2.08-.837,2.783.531.391,1.283.282,1.881.559,1.1.513,1.215,2.112.676,3.205s-1.512,1.909-2.149,2.947a5.577,5.577,0,0,0-.8,3.389,3.083,3.083,0,0,0,1,2.177c1.334,1.065,3.363.153,4.493-1.127s1.91-2.934,3.376-3.81a8.411,8.411,0,0,1,2.4-.836l5.592-1.33a4.052,4.052,0,0,0,2.406-1.2" transform="translate(-18.775 -0.387)" fill="#e0e0e0"/>
              <g id="Group_1114754" data-name="Group 1114754" transform="translate(277.445 69.772)" opacity="0.6">
                <g id="Group_1114753" data-name="Group 1114753">
                  <g id="Group_1114752" data-name="Group 1114752" clip-path="url(#clip-path-6)">
                    <path id="Path_907960" data-name="Path 907960" d="M307,80.345q-.009-1.6-.095-3.173.085,1.576.095,3.173c.024.339.024.679.024,1.018,0,1.639-.059,3.255-.152,4.87.093-1.616.152-3.231.152-4.87,0-.339,0-.679-.024-1.018" transform="translate(-306.869 -77.171)" fill="#263238"/>
                  </g>
                </g>
              </g>
              <g id="Group_1114757" data-name="Group 1114757" transform="translate(272.95 48.114)" opacity="0.6">
                <g id="Group_1114756" data-name="Group 1114756">
                  <g id="Group_1114755" data-name="Group 1114755" clip-path="url(#clip-path-7)">
                    <path id="Path_907961" data-name="Path 907961" d="M301.9,53.229q.526,1.4.994,2.829-.468-1.425-.994-2.829s.012-.012,0-.012Z" transform="translate(-301.897 -53.217)" fill="#263238"/>
                  </g>
                </g>
              </g>
              <path id="Path_907962" data-name="Path 907962" d="M298.794,74.564q-.009-1.6-.095-3.173t-.244-3.137c-.082-.843-.176-1.674-.293-2.505q-.172-1.317-.391-2.62a71.8,71.8,0,0,0-1.729-7.682q-.412-1.448-.88-2.872t-.994-2.828v-.012h0c-.374-.7-.772-1.392-1.205-2.071-4.109-6.509-10.08-11.613-14.6-17.841-1.475-2.025-2.622-3.7-5.233-4.1-3.862-.6-5.818,1.6-8.557-2.06-.737-.984-2.025-1.9-3.114-1.311.281.784.573,1.569.854,2.364a1.117,1.117,0,0,1,.094.515c-.059.551-.878.7-1.346.4a4.788,4.788,0,0,1-1.031-1.323,3.79,3.79,0,0,0-5.56-.457,2.129,2.129,0,0,0-1.23-1.732,2.538,2.538,0,0,1-3.184,2.049c-.222-.714,1.054-.843,1.5-1.452.41-.573-.082-1.37-.609-1.85a8.128,8.128,0,0,0-5.092-1.978c-1.183-.024-2.458.2-3.489-.41-.6-.352-1.018-.937-1.627-1.276-1.3-.738-2.928-.059-4.238.667-1.791.995-3.641,2.248-4.273,4.2s.773,4.578,2.81,4.332a3.955,3.955,0,0,1,1.557-.175,1.886,1.886,0,0,1,1.112,1.791,5.288,5.288,0,0,0,.339,2.189c.352.655,1.417.984,1.826.363.96-.912.844-2.447.6-3.746s-.5-2.763.269-3.828,3.008-.726,2.856.585c-.094.773-.972,1.334-.937,2.119s1.007,1.218,1.8,1.183a8.584,8.584,0,0,1,2.377-.118c.784.187,1.4,1.206.843,1.779-.972,1.1-3.5-.784-4,.586-.141.351,0,.75-.035,1.124-.094,1.147-1.533,1.569-2.681,1.709a6.317,6.317,0,0,1-3.407-.246,2.162,2.162,0,0,1-1.159-2.844,1.3,1.3,0,0,0-1.791.655,3.755,3.755,0,0,0-.129,2.131c-1.217-.269-2.305.76-3,1.779s-1.369,2.224-2.551,2.587-2.834-.128-3.454.948c-.807,1.4,1.533,3.184.714,4.578-.468.784-1.592.761-2.482,1.006-2.353.667-3.173,4.109-1.569,5.947a4.6,4.6,0,0,0,6.509-.024c1.183-1.205,1.663-2.9,2.517-4.354s2.47-2.751,4.086-2.283a4.943,4.943,0,0,1,1.674,1.053c.784.655,1.568,1.311,2.353,1.978.5.421,1.053.948,1.007,1.6-.047.527-.457.937-.633,1.429-.491,1.417,1.558,2.763,2.845,1.99a2.826,2.826,0,0,0,.55-3.968c-1.217-1.686-3.968-2.529-3.9-4.613,1.4-1.147,3.617.059,4.437,1.685s.843,3.536,1.533,5.21,2.623,3.173,4.239,2.353c-.422-1.451-.832-2.891-1.253-4.332,1.03-.772,2.212,1.476,3.442,1.1.749-.234.843-1.311.514-2.037a10.21,10.21,0,0,1-1.042-2.118,2.412,2.412,0,0,1,2.8-2.47,3.664,3.664,0,0,1,2.739,3.02,6.662,6.662,0,0,0,.374,1.674c.539,1.124,1.931,1.464,3.079,1.931s2.353,1.627,1.873,2.775c-.222.5-.75.984-.561,1.5.175.457.854.655.854,1.147-.012.327-.352.55-.655.678-.773.316-1.616.422-2.365.785a2.135,2.135,0,0,0-1.37,1.9c.094,1.17,1.486,1.732,2.143,2.7.632.925.538,2.154.937,3.208a11.509,11.509,0,0,0,1.768,2.563c1.943,2.645,2.4,6.052,3.348,9.19.421,1.416,1.194,3,2.645,3.266a4.452,4.452,0,0,0,2.342-.457c2.1-.831,4.273-1.721,5.737-3.418s1.966-4.484.457-6.158a1.194,1.194,0,0,0-.714-.457,2.156,2.156,0,0,0-1.1.387,3.137,3.137,0,0,1-3.267-.7,9.212,9.212,0,0,1-1.943-2.915c-.574-1.159-1.147-2.33-1.733-3.5a2.047,2.047,0,0,1,2.505.234,13.627,13.627,0,0,1,1.71,2.107c1.744,2.177,4.612,3.137,7.387,3.465a7.067,7.067,0,0,1,2.084.433c2.072.948,2.669,4,4.859,4.66a13.8,13.8,0,0,1,1.861.421,3.427,3.427,0,0,1,1.557,2.318,36.985,36.985,0,0,0,1.37,5.174c.714,1.639,2.178,3.126,3.957,3.149a4.261,4.261,0,0,0,2.974-1.323v-.012c.093-1.616.152-3.231.152-4.87,0-.339,0-.679-.023-1.018" transform="translate(-21.22 -1.619)" fill="#e0e0e0"/>
              <path id="Path_907963" data-name="Path 907963" d="M273.086,114.636c-1.1.217-1.322.865-1.921,1.682-.779,1.062-1.9,2.126-2.606,3.174-1.2,1.778-.119,4.551-1.7,6.047a13.058,13.058,0,0,0-1.029.841,1.866,1.866,0,0,0,.379,2.583,2.538,2.538,0,0,0,2.758.051,4.038,4.038,0,0,0,1.689-2.308,3.885,3.885,0,0,1,.856-1.891c.906-.793,2.313-.2,3.505-.372,5.073-.711,2.893-10.755-1.929-9.806" transform="translate(-25.454 -10.986)" fill="#e0e0e0"/>
              <rect id="Rectangle_406751" data-name="Rectangle 406751" width="97.098" height="72.497" transform="translate(287.511 120.465)" fill="#f5f5f5"/>
              <rect id="Rectangle_406752" data-name="Rectangle 406752" width="97.098" height="7.319" transform="translate(287.511 120.465)" fill="#e0e0e0"/>
              <path id="Path_907964" data-name="Path 907964" d="M322.918,137.184a.979.979,0,1,1-.978-.978.978.978,0,0,1,.978.978" transform="translate(-30.775 -13.06)" fill="#f5f5f5"/>
              <path id="Path_907965" data-name="Path 907965" d="M326.289,137.184a.979.979,0,1,1-.978-.978.978.978,0,0,1,.978.978" transform="translate(-31.098 -13.06)" fill="#f5f5f5"/>
              <path id="Path_907966" data-name="Path 907966" d="M329.66,137.184a.979.979,0,1,1-.978-.978.978.978,0,0,1,.978.978" transform="translate(-31.421 -13.06)" fill="#f5f5f5"/>
              <rect id="Rectangle_406753" data-name="Rectangle 406753" width="97.098" height="72.497" transform="translate(276.784 133.171)" fill="#ebebeb"/>
              <rect id="Rectangle_406754" data-name="Rectangle 406754" width="97.098" height="7.319" transform="translate(276.784 133.171)" fill="#e0e0e0"/>
              <path id="Path_907967" data-name="Path 907967" d="M311.053,151.238a.979.979,0,1,1-.978-.978.978.978,0,0,1,.978.978" transform="translate(-29.637 -14.407)" fill="#f5f5f5"/>
              <path id="Path_907968" data-name="Path 907968" d="M314.424,151.238a.979.979,0,1,1-.978-.978.978.978,0,0,1,.978.978" transform="translate(-29.96 -14.407)" fill="#f5f5f5"/>
              <path id="Path_907969" data-name="Path 907969" d="M317.794,151.238a.979.979,0,1,1-.978-.978.978.978,0,0,1,.978.978" transform="translate(-30.284 -14.407)" fill="#f5f5f5"/>
              <rect id="Rectangle_406755" data-name="Rectangle 406755" width="97.098" height="72.497" transform="translate(260.54 145.982)" fill="#f5f5f5"/>
              <rect id="Rectangle_406756" data-name="Rectangle 406756" width="97.098" height="7.319" transform="translate(260.54 145.982)" fill="#e0e0e0"/>
              <path id="Path_907970" data-name="Path 907970" d="M293.086,165.407a.979.979,0,1,1-.978-.978.978.978,0,0,1,.978.978" transform="translate(-27.915 -15.766)" fill="#f5f5f5"/>
              <path id="Path_907971" data-name="Path 907971" d="M296.457,165.407a.979.979,0,1,1-.978-.978.978.978,0,0,1,.978.978" transform="translate(-28.238 -15.766)" fill="#f5f5f5"/>
              <path id="Path_907972" data-name="Path 907972" d="M299.828,165.407a.979.979,0,1,1-.978-.978.978.978,0,0,1,.978.978" transform="translate(-28.561 -15.766)" fill="#f5f5f5"/>
              <path id="Path_907973" data-name="Path 907973" d="M339.462,241.649a1.385,1.385,0,0,1,.024.29c.005.216.013.5.022.853.011.78.024,1.882.043,3.293.017,2.895.042,7.048.072,12.207v.162h-.162l-44.3.074-43.1-.069-13.06-.075-3.55-.044-.924-.023a1.569,1.569,0,0,1-.315-.024,1.722,1.722,0,0,1,.315-.024l.924-.024,3.55-.044,13.06-.075,43.1-.069,44.3.074-.161.161c.031-5.16.055-9.312.072-12.207.019-1.41.033-2.513.043-3.293.009-.355.016-.636.022-.853a1.4,1.4,0,0,1,.023-.29" transform="translate(-22.458 -23.17)" fill="#ebebeb"/>
              <path id="Path_907974" data-name="Path 907974" d="M349.573,129.187c-.13,0-.235-8.3-.235-18.525s.1-18.526.235-18.526.235,8.293.235,18.526-.1,18.525-.235,18.525" transform="translate(-33.496 -8.834)" fill="#ebebeb"/>
            </g>
          </g>
          <g id="Group_1114761" data-name="Group 1114761">
            <g id="Group_1114760" data-name="Group 1114760" clip-path="url(#clip-path)">
              <path id="Path_907975" data-name="Path 907975" d="M391.914,338.055c-7.09-10.845-6.057-26.34,2.412-36.147,2.628-3.044,6.3-5.69,10.309-5.347,4.1.352,7.408,3.871,8.657,7.794s.815,8.176.082,12.227c-1.027,5.674-2.746,11.48-6.681,15.693s-9.719,8.544-14.779,5.779" transform="translate(-37.127 -28.433)" fill="#ff725e"/>
              <path id="Path_907976" data-name="Path 907976" d="M396.622,398.035a16.208,16.208,0,0,1,4.518-18.405c1.63-1.33,3.763-2.36,5.8-1.82a5.629,5.629,0,0,1,3.754,4.8,13.346,13.346,0,0,1-1.066,6.307c-1.043,2.831-2.455,5.665-4.864,7.48s-5.782,3.522-8.138,1.638" transform="translate(-37.915 -36.212)" fill="#ff725e"/>
              <path id="Path_907977" data-name="Path 907977" d="M375.239,393.287a23.455,23.455,0,0,0-11.821-24.75c-2.7-1.4-6.027-2.238-8.749-.873-2.788,1.4-4.127,4.8-3.907,7.907s1.717,5.979,3.368,8.624c2.311,3.7,5.146,7.3,9.1,9.166s9.229,3.287,12.014-.074" transform="translate(-33.63 -35.186)" fill="#ff725e"/>
              <path id="Path_907978" data-name="Path 907978" d="M376.279,363.816c3.395-10.955-2.362-24.238-11.954-30.523-2.978-1.951-6.748-3.308-10.075-2.042-3.406,1.3-5.363,5.1-5.471,8.74s1.3,7.156,2.906,10.426c2.255,4.578,5.131,9.1,9.506,11.728s11.455,5.254,15.088,1.67" transform="translate(-33.442 -31.714)" fill="#ff725e"/>
              <path id="Path_907979" data-name="Path 907979" d="M384.14,421.708a2.354,2.354,0,0,1-.111-.531c-.06-.4-.135-.905-.228-1.528q-.071-.506-.154-1.1l-.25-1.3c-.178-.935-.363-2-.669-3.161q-.212-.875-.442-1.826-.275-.943-.572-1.955c-.365-1.36-.906-2.766-1.411-4.264a74.66,74.66,0,0,0-9.707-18.087c-.969-1.25-1.843-2.477-2.774-3.534l-1.312-1.558q-.666-.716-1.278-1.378c-.8-.9-1.584-1.639-2.264-2.3l-.947-.929-.836-.739-1.147-1.034a2.48,2.48,0,0,1-.381-.385,2.292,2.292,0,0,1,.44.313l1.206.97.866.711.976.905c.7.65,1.508,1.381,2.324,2.267l1.307,1.365,1.34,1.549c.949,1.052,1.84,2.277,2.824,3.528a71.534,71.534,0,0,1,9.764,18.194c.5,1.512,1.027,2.93,1.379,4.3l.551,1.973q.216.959.415,1.843c.288,1.17.45,2.247.6,3.191q.114.7.214,1.314.061.6.114,1.114c.057.629.1,1.14.141,1.542a2.349,2.349,0,0,1,.018.54" transform="translate(-34.485 -36.061)" fill="#263238"/>
              <path id="Path_907980" data-name="Path 907980" d="M384,420.438a.749.749,0,0,1,0-.219c.013-.17.028-.379.047-.635.055-.595.13-1.408.224-2.434.052-.532.11-1.118.174-1.757s.066-1.345.106-2.1c.056-1.505.2-3.216.146-5.113q-.007-1.423-.014-2.975c-.01-1.033-.108-2.107-.161-3.219-.074-2.23-.377-4.592-.646-7.083a101.44,101.44,0,0,0-9.228-31.121c-1.133-2.234-2.167-4.381-3.32-6.29-.562-.962-1.065-1.915-1.62-2.788l-1.61-2.5c-.989-1.619-2.042-2.975-2.91-4.206-.443-.609-.84-1.188-1.231-1.7s-.769-.961-1.1-1.378L361.341,343l-.385-.506a.745.745,0,0,1-.119-.184.826.826,0,0,1,.156.153l.42.477L363,344.806l1.137,1.356c.4.505.811,1.078,1.265,1.682.89,1.22,1.965,2.567,2.975,4.18l1.641,2.494c.565.871,1.078,1.823,1.65,2.784,1.171,1.909,2.222,4.058,3.371,6.3a99.122,99.122,0,0,1,9.268,31.254c.258,2.5.547,4.876.606,7.114.044,1.117.133,2.2.134,3.234s-.01,2.033-.015,2.985c.033,1.9-.135,3.618-.216,5.126-.052.753-.082,1.456-.144,2.1q-.117.959-.214,1.757-.2,1.536-.311,2.428c-.038.254-.068.46-.093.629a.76.76,0,0,1-.047.212" transform="translate(-34.598 -32.822)" fill="#263238"/>
              <path id="Path_907981" data-name="Path 907981" d="M404.915,311.051a.8.8,0,0,1-.09.2l-.306.569-1.212,2.164c-.259.471-.572.982-.873,1.563s-.609,1.225-.948,1.908l-1.094,2.19c-.369.784-.721,1.631-1.112,2.509s-.806,1.8-1.2,2.77L396.9,327.98l-.619,1.61q-.281.83-.57,1.686l-1.187,3.522c-1.5,4.86-2.927,10.273-4.13,16.019-1.164,5.757-1.981,11.3-2.584,16.348-.517,5.062-.9,9.632-1,13.481-.1,1.922-.118,3.663-.124,5.192-.024,1.53-.031,2.847.005,3.923.014,1.047.026,1.875.035,2.48,0,.26,0,.473,0,.646a.808.808,0,0,1-.017.222.794.794,0,0,1-.031-.219c-.011-.173-.025-.384-.043-.644-.03-.6-.071-1.433-.122-2.48-.063-1.077-.084-2.4-.084-3.927-.019-1.532-.022-3.277.055-5.2.062-3.858.411-8.441.907-13.517.58-5.067,1.387-10.622,2.554-16.394,1.206-5.763,2.647-11.188,4.177-16.055q.62-1.81,1.209-3.527l.583-1.688q.321-.818.633-1.61.624-1.583,1.205-3.054c.4-.973.84-1.886,1.231-2.768s.764-1.721,1.146-2.5q.6-1.155,1.128-2.181l.986-1.894c.313-.577.638-1.082.911-1.548l1.289-2.123.344-.545a.812.812,0,0,1,.131-.177" transform="translate(-37.051 -29.825)" fill="#263238"/>
              <path id="Path_907982" data-name="Path 907982" d="M403.011,384.655a9.667,9.667,0,0,1-.754,1.324c-.518.829-1.23,2.053-2.065,3.587s-1.758,3.4-2.686,5.512c-.906,2.123-1.811,4.494-2.606,7.036a74.7,74.7,0,0,0-1.817,7.282c-.425,2.268-.723,4.328-.891,6.067s-.279,3.15-.318,4.126a9.7,9.7,0,0,1-.124,1.518,9.466,9.466,0,0,1-.057-1.523c-.016-.981.037-2.4.172-4.152a61.344,61.344,0,0,1,.8-6.115,63.062,63.062,0,0,1,4.452-14.411,61.633,61.633,0,0,1,2.791-5.5c.875-1.522,1.633-2.724,2.2-3.525a9.563,9.563,0,0,1,.906-1.226" transform="translate(-37.557 -36.882)" fill="#263238"/>
              <path id="Path_907983" data-name="Path 907983" d="M371.334,421.146h31.147l-3.769,31.811h-23.5Z" transform="translate(-35.605 -40.381)" fill="#455a64"/>
              <path id="Path_907984" data-name="Path 907984" d="M372.591,452.534l2.645,3.434h23.6l2.721-3.324Z" transform="translate(-35.725 -43.391)" fill="#263238"/>
              <path id="Path_907985" data-name="Path 907985" d="M401.379,431.47c0,.128-6.464.232-14.435.232s-14.436-.1-14.436-.232,6.463-.232,14.436-.232,14.435.1,14.435.232" transform="translate(-35.717 -41.349)" fill="#fafafa"/>
              <path id="Path_907986" data-name="Path 907986" d="M401.379,433.812c0,.128-6.464.232-14.435.232s-14.436-.1-14.436-.232,6.463-.232,14.436-.232,14.435.1,14.435.232" transform="translate(-35.717 -41.573)" fill="#fafafa"/>
              <path id="Path_907987" data-name="Path 907987" d="M401.057,436.08c0,.128-6.238.232-13.93.232s-13.931-.1-13.931-.232,6.236-.232,13.931-.232,13.93.1,13.93.232" transform="translate(-35.783 -41.791)" fill="#fafafa"/>
            </g>
          </g>
          <g id="Group_1114763" data-name="Group 1114763">
            <g id="Group_1114762" data-name="Group 1114762" clip-path="url(#clip-path)">
              <path id="Path_907988" data-name="Path 907988" d="M327.7,52.558H94.36a17.231,17.231,0,1,0,0,34.462H327.7a17.231,17.231,0,1,0,0-34.462" transform="translate(-7.395 -5.039)" fill="#fff"/>
              <path id="Path_907989" data-name="Path 907989" d="M351.212,87.021H317.485V52.559h33.727a16.766,16.766,0,0,1,16.766,16.766v.93a16.766,16.766,0,0,1-16.766,16.766" transform="translate(-30.442 -5.04)" fill="#ff725e"/>
              <path id="Path_907990" data-name="Path 907990" d="M341.709,75.252a7.512,7.512,0,1,1,7.512-7.512,7.521,7.521,0,0,1-7.512,7.512m0-13.924a6.412,6.412,0,1,0,6.412,6.412,6.42,6.42,0,0,0-6.412-6.412" transform="translate(-32.044 -5.775)" fill="#fff"/>
              <path id="Path_907991" data-name="Path 907991" d="M354.194,81.32a.547.547,0,0,1-.389-.161l-6.592-6.591a.55.55,0,0,1,.778-.778l6.592,6.591a.55.55,0,0,1-.389.938" transform="translate(-33.277 -7.06)" fill="#fff"/>
              <path id="Path_907992" data-name="Path 907992" d="M109.65,70.082a2.81,2.81,0,0,1-.08-.627,5.074,5.074,0,0,0-.093-.752,7.366,7.366,0,0,0-.211-1.01,9.5,9.5,0,0,0-1.084-2.591,9.774,9.774,0,0,0-2.456-2.759,9.653,9.653,0,0,0-9.116-1.448,9.025,9.025,0,0,0-2.445,1.286,8.787,8.787,0,0,0-2.051,2.02,9.576,9.576,0,0,0-.134,11.351,8.791,8.791,0,0,0,2,2.068A9.039,9.039,0,0,0,96.4,78.962a9.723,9.723,0,0,0,11.669-3.937,9.492,9.492,0,0,0,1.144-2.565,7.216,7.216,0,0,0,.234-1,5.121,5.121,0,0,0,.111-.75,2.789,2.789,0,0,1,.094-.625,2.734,2.734,0,0,1,.015.633,4.428,4.428,0,0,1-.061.766,6.814,6.814,0,0,1-.19,1.034,9.271,9.271,0,0,1-1.089,2.669,10,10,0,0,1-6.8,4.719,10.1,10.1,0,0,1-5.305-.473,9.5,9.5,0,0,1-2.552-1.4,9.266,9.266,0,0,1-2.122-2.171,10.059,10.059,0,0,1,.14-11.981,11.5,11.5,0,0,1,1.01-1.16,11.381,11.381,0,0,1,1.163-.959,9.47,9.47,0,0,1,2.584-1.338,10.083,10.083,0,0,1,5.314-.349,10,10,0,0,1,6.685,4.876,9.268,9.268,0,0,1,1.027,2.7,6.781,6.781,0,0,1,.165,1.038,4.4,4.4,0,0,1,.042.768,2.7,2.7,0,0,1-.03.632" transform="translate(-8.595 -5.741)" fill="#e0e0e0"/>
              <path id="Path_907993" data-name="Path 907993" d="M107.86,64.353c.021.03-.155.187-.5.448l-.629.464c-.125.088-.254.186-.4.28l-.482.259a11.136,11.136,0,0,1-5.785,1.534l-.879-.028-.844-.121c-.137-.022-.276-.038-.41-.063l-.394-.1c-.26-.069-.516-.126-.762-.2a12.784,12.784,0,0,1-2.475-1.1,5.614,5.614,0,0,1-1.936-1.551c.052-.061.778.539,2.12,1.213a14.9,14.9,0,0,0,2.436.961c.237.066.484.115.733.175l.379.089.394.054.806.108.838.023a12.026,12.026,0,0,0,5.6-1.332q.254-.115.489-.22c.147-.08.283-.166.412-.24.249-.141.47-.268.67-.38.371-.2.589-.3.612-.272" transform="translate(-8.856 -6.153)" fill="#e0e0e0"/>
              <path id="Path_907994" data-name="Path 907994" d="M92.208,77.546c-.023-.03.154-.187.495-.448l.629-.464c.125-.087.255-.186.4-.28l.483-.259A11.13,11.13,0,0,1,100,74.561l.878.028.844.121c.138.022.276.038.41.063l.4.1c.259.069.516.126.761.2a12.735,12.735,0,0,1,2.475,1.1,5.653,5.653,0,0,1,1.937,1.55c-.052.062-.779-.538-2.12-1.212a14.9,14.9,0,0,0-2.436-.961c-.237-.065-.485-.115-.734-.175l-.38-.089-.392-.054-.807-.108-.837-.023a12.009,12.009,0,0,0-5.6,1.333l-.489.219c-.148.08-.284.166-.413.24l-.669.38c-.372.2-.59.3-.612.272" transform="translate(-8.841 -7.149)" fill="#e0e0e0"/>
              <path id="Path_907995" data-name="Path 907995" d="M109.676,71.374a89.85,89.85,0,0,1-9.872.156,90.156,90.156,0,0,1-9.866-.386,89.948,89.948,0,0,1,9.872-.156,90.018,90.018,0,0,1,9.866.387" transform="translate(-8.624 -6.804)" fill="#e0e0e0"/>
              <path id="Path_907996" data-name="Path 907996" d="M100.465,79.853a89.781,89.781,0,0,1-.156-9.868,90.09,90.09,0,0,1,.386-9.863,89.9,89.9,0,0,1,.156,9.869,89.949,89.949,0,0,1-.387,9.862" transform="translate(-9.616 -5.765)" fill="#e0e0e0"/>
              <path id="Path_907997" data-name="Path 907997" d="M99.95,79.837a7.921,7.921,0,0,1-2.409-2.319,13.246,13.246,0,0,1-1.8-3.18,11.887,11.887,0,0,1-.819-4.412,11.324,11.324,0,0,1,.94-4.389,13.726,13.726,0,0,1,1.889-3.127,8.4,8.4,0,0,1,2.433-2.292c.054.061-.929.882-2.127,2.524a14.772,14.772,0,0,0-1.732,3.088,11.379,11.379,0,0,0-.86,4.2,12,12,0,0,0,.744,4.23,14.234,14.234,0,0,0,1.646,3.133c1.164,1.667,2.153,2.484,2.1,2.544" transform="translate(-9.101 -5.764)" fill="#e0e0e0"/>
              <path id="Path_907998" data-name="Path 907998" d="M100.959,60.121a7.921,7.921,0,0,1,2.409,2.319,13.248,13.248,0,0,1,1.8,3.18,11.887,11.887,0,0,1,.819,4.412,11.325,11.325,0,0,1-.94,4.389,13.726,13.726,0,0,1-1.889,3.127,8.418,8.418,0,0,1-2.433,2.292c-.054-.061.929-.882,2.127-2.524a14.772,14.772,0,0,0,1.732-3.088,11.379,11.379,0,0,0,.86-4.2,12.006,12.006,0,0,0-.744-4.23,14.233,14.233,0,0,0-1.646-3.133c-1.164-1.667-2.153-2.484-2.1-2.544" transform="translate(-9.658 -5.764)" fill="#e0e0e0"/>
              <path id="Path_907999" data-name="Path 907999" d="M122.2,82.8c-.13,0-.235-5.252-.235-11.728s.1-11.729.235-11.729.235,5.25.235,11.729-.1,11.728-.235,11.728" transform="translate(-11.695 -5.69)" fill="#e0e0e0"/>
              <path id="Path_908000" data-name="Path 908000" d="M138.015,72.756V76.98h-.984V72.853a2.035,2.035,0,0,0-2.188-2.327,2.389,2.389,0,0,0-2.549,2.632V76.98h-.984V66.7h.984v4.266a3.078,3.078,0,0,1,2.729-1.329,2.789,2.789,0,0,1,2.992,3.117" transform="translate(-12.591 -6.396)" fill="#263238"/>
              <path id="Path_908001" data-name="Path 908001" d="M145.4,76.685a2.342,2.342,0,0,1-1.538.513,1.93,1.93,0,0,1-2.133-2.119v-4.4h-1.3v-.831h1.3V68.25h.984v1.593h2.216v.831h-2.216v4.35a1.166,1.166,0,0,0,1.26,1.329,1.626,1.626,0,0,0,1.08-.373Z" transform="translate(-13.465 -6.544)" fill="#263238"/>
              <path id="Path_908002" data-name="Path 908002" d="M151.406,76.685a2.342,2.342,0,0,1-1.538.513,1.93,1.93,0,0,1-2.133-2.119v-4.4h-1.3v-.831h1.3V68.25h.984v1.593h2.216v.831h-2.216v4.35a1.166,1.166,0,0,0,1.26,1.329,1.626,1.626,0,0,0,1.08-.373Z" transform="translate(-14.041 -6.544)" fill="#263238"/>
              <path id="Path_908003" data-name="Path 908003" d="M161.293,73.649a3.529,3.529,0,0,1-3.629,3.712,3.183,3.183,0,0,1-2.77-1.44v4.058h-.984V70.006h.942v1.441a3.173,3.173,0,0,1,2.812-1.5,3.525,3.525,0,0,1,3.629,3.7m-.984,0a2.717,2.717,0,1,0-2.715,2.84,2.683,2.683,0,0,0,2.715-2.84" transform="translate(-14.757 -6.707)" fill="#263238"/>
              <path id="Path_908004" data-name="Path 908004" d="M163.593,70.7a.734.734,0,0,1,.734-.749.745.745,0,0,1,.748.749.756.756,0,0,1-.748.761.745.745,0,0,1-.734-.761m0,5.9a.733.733,0,0,1,.734-.748.744.744,0,0,1,.748.748.757.757,0,0,1-.748.762.746.746,0,0,1-.734-.762" transform="translate(-15.686 -6.707)" fill="#263238"/>
              <path id="Path_908005" data-name="Path 908005" d="M170.906,65.171h.9l-4.571,13.048h-.9Z" transform="translate(-15.949 -6.249)" fill="#263238"/>
              <path id="Path_908006" data-name="Path 908006" d="M183.468,70.012,180.711,77.3h-.928l-2.3-5.97-2.3,5.97h-.928l-2.742-7.285h.942l2.285,6.191,2.342-6.191h.844l2.327,6.191,2.313-6.191Z" transform="translate(-16.445 -6.713)" fill="#263238"/>
              <path id="Path_908007" data-name="Path 908007" d="M196.859,70.012,194.1,77.3h-.928l-2.3-5.97-2.3,5.97h-.928l-2.742-7.285h.941l2.286,6.191,2.342-6.191h.844l2.327,6.191,2.313-6.191Z" transform="translate(-17.729 -6.713)" fill="#263238"/>
              <path id="Path_908008" data-name="Path 908008" d="M210.25,70.012,207.494,77.3h-.928l-2.3-5.97-2.3,5.97h-.928L198.3,70.012h.941l2.286,6.191,2.342-6.191h.844l2.327,6.191,2.313-6.191Z" transform="translate(-19.013 -6.713)" fill="#263238"/>
              <path id="Path_908009" data-name="Path 908009" d="M211.933,77.225a.733.733,0,0,1,.734-.748.744.744,0,0,1,.748.748.757.757,0,0,1-.748.762.746.746,0,0,1-.734-.762" transform="translate(-20.321 -7.333)" fill="#263238"/>
              <path id="Path_908010" data-name="Path 908010" d="M219.9,80.964c-.166,0-.3-3.347-.3-7.475s.135-7.475.3-7.475.3,3.346.3,7.475-.135,7.475-.3,7.475" transform="translate(-21.056 -6.33)" fill="#ff725e"/>
              <path id="Path_908011" data-name="Path 908011" d="M327.678,52.533s.5.009,1.485.051c.492.014,1.092.143,1.815.237.361.052.737.174,1.148.27a8.522,8.522,0,0,1,1.295.392,17.1,17.1,0,0,1,6.042,3.638,18.706,18.706,0,0,1,1.517,1.576c.24.293.462.608.7.919l.355.474.315.514a16.424,16.424,0,0,1,2.056,4.722A17.26,17.26,0,0,1,343.33,77.2a17.175,17.175,0,0,1-14.563,9.88c-1.349.1-2.7.039-4.08.06l-8.534.009-18.553.017-203.25.069a17.47,17.47,0,0,1-9.883-31.87,17.164,17.164,0,0,1,6.605-2.744,39.612,39.612,0,0,1,7.073-.315l53.966.014,91.376.051,61.6.075,16.748.044,4.356.023c.981.008,1.484.024,1.484.024s-.5.016-1.484.024l-4.356.023-16.748.044-61.6.075-91.376.051-53.966.014a39.327,39.327,0,0,0-6.986.308,16.7,16.7,0,0,0-6.428,2.673A17.083,17.083,0,0,0,77.51,67.482a16.9,16.9,0,0,0,3.978,13.386A17.08,17.08,0,0,0,94.35,86.76l203.25.069,18.553.017,8.534.009c1.376-.018,2.746.049,4.063-.05a17.385,17.385,0,0,0,3.843-.666,17.131,17.131,0,0,0,11.634-20.767,16.268,16.268,0,0,0-2.016-4.683l-.308-.511-.351-.471c-.234-.309-.454-.622-.689-.913a18.611,18.611,0,0,0-1.5-1.57,17.106,17.106,0,0,0-5.978-3.651,8.483,8.483,0,0,0-1.284-.4c-.409-.1-.783-.224-1.141-.28-.718-.1-1.315-.238-1.806-.259-.978-.057-1.48-.1-1.48-.1" transform="translate(-7.372 -5.014)" fill="#263238"/>
            </g>
          </g>
          <path id="Path_908012" data-name="Path 908012" d="M18.345,452.714l10.152.091,14.416-34.18L22.819,418.6Z" transform="translate(-1.759 -40.137)" fill="#263238"/>
          <path id="Path_908013" data-name="Path 908013" d="M79.621,452.679l10.152.091L104,418.748l-19.938-.041Z" transform="translate(-7.634 -40.147)" fill="#263238"/>
          <g id="Group_1114801" data-name="Group 1114801">
            <g id="Group_1114800" data-name="Group 1114800" clip-path="url(#clip-path)">
              <path id="Path_908014" data-name="Path 908014" d="M19.087,191.2c5.572-8.358,115.584-9.583,120.291-.875l40.191,76.389,60.45-2.779c0-.022,8.124-.386,16.08,7.219,3.924,3.751,3.725,27.416,2.619,36.556-.736,6.087-10,88.872-10,88.872L20.96,396.12S13.514,199.557,19.087,191.2" transform="translate(-1.632 -17.675)" fill="#455a64"/>
              <path id="Path_908015" data-name="Path 908015" d="M92.809,416.615s.024-.247.041-.728q.023-.749.066-2.134c.046-1.891.113-4.647.2-8.178.147-7.1.361-17.323.622-29.851l-.189.184,69.168.494,71.666.4-.179-.152a117.245,117.245,0,0,1,1.268,27.943c-.242,3.312-.561,5.877-.787,7.614l-.278,1.976c-.061.446-.079.676-.079.676a90.227,90.227,0,0,0,1.348-10.252,115.056,115.056,0,0,0-1.111-28.019l-.024-.151-.155,0-71.665-.514-69.169-.384h-.186l0,.185c-.193,12.529-.349,22.748-.458,29.854-.042,3.531-.075,6.287-.1,8.18,0,.925-.008,1.635-.011,2.135,0,.482.014.729.014.729" transform="translate(-8.898 -36.007)" fill="#263238"/>
              <path id="Path_908016" data-name="Path 908016" d="M98.579,279.187s-.156-.009-.463-.008a9.3,9.3,0,0,0-1.366.07,13.943,13.943,0,0,0-5.05,1.581,18.972,18.972,0,0,0-6.356,5.608,25.515,25.515,0,0,0-4.321,10.546,73.564,73.564,0,0,0-.924,14.077c.006,5.117.177,10.631.518,16.489.677,11.719,2.129,24.788,3.7,38.886l.023.2.2,0,57.589.391,104.451.613h.169l.01-.165a92.437,92.437,0,0,0-1.025-20.759c-1.064-6.03-2.88-11.129-5.4-14.667a15.052,15.052,0,0,0-4.055-4.042l-.505-.349-.523-.273-.982-.507c-.666-.227-1.255-.483-1.806-.62l-1.472-.311c-.429-.052-.793-.064-1.083-.09-.581-.041-.88-.049-.88-.049s.3.042.875.1c.288.033.65.054,1.075.115l1.457.333c.546.145,1.127.406,1.783.637l.967.514.514.275.5.35a14.978,14.978,0,0,1,3.979,4.031c2.475,3.522,4.254,8.595,5.287,14.6a92.693,92.693,0,0,1,.949,20.682l.178-.164-104.45-.74-57.589-.356.222.2c-1.584-14.1-3.06-27.156-3.766-38.86-.355-5.851-.542-11.358-.565-16.468a73.721,73.721,0,0,1,.864-14.026,25.369,25.369,0,0,1,4.223-10.472,18.937,18.937,0,0,1,6.253-5.6,14.188,14.188,0,0,1,4.991-1.636c1.191-.151,1.822-.1,1.82-.136" transform="translate(-7.68 -26.769)" fill="#263238"/>
              <path id="Path_908017" data-name="Path 908017" d="M267.511,419.078l3.3,33.677-10.152-.091-12.712-33.626Z" transform="translate(-23.774 -40.179)" fill="#263238"/>
              <path id="Path_908018" data-name="Path 908018" d="M245.9,330.966a4.268,4.268,0,0,1-1.01-.107l-2.719-.454c-2.294-.387-5.458-.948-8.979-1.329a81.547,81.547,0,0,0-9.055-.427l-2.754.036a4.237,4.237,0,0,1-1.014-.036,4.216,4.216,0,0,1,1-.147c.649-.069,1.59-.131,2.756-.185a62.523,62.523,0,0,1,9.113.291c3.544.383,6.71,1,8.991,1.471,1.14.24,2.06.445,2.693.6a4.248,4.248,0,0,1,.974.287" transform="translate(-21.13 -31.475)" fill="#263238"/>
              <path id="Path_908019" data-name="Path 908019" d="M264.325,272.531c.02.044-.733.372-2.022,1.084a26.018,26.018,0,0,0-5.016,3.673,31.646,31.646,0,0,0-5.728,7.2,40.237,40.237,0,0,0-4.247,10.442c-1.924,7.829-1.8,15.215-1.68,20.476.076,2.641.179,4.779.241,6.257.025.7.045,1.265.061,1.7a2.878,2.878,0,0,1-.011.6,2.848,2.848,0,0,1-.084-.589c-.039-.437-.088-1-.149-1.7-.117-1.476-.271-3.611-.391-6.257s-.191-5.8-.024-9.306a58.625,58.625,0,0,1,1.58-11.3,39.739,39.739,0,0,1,4.331-10.549,31.056,31.056,0,0,1,5.876-7.224,24.235,24.235,0,0,1,5.153-3.588,15.99,15.99,0,0,1,1.551-.714,2.78,2.78,0,0,1,.558-.208" transform="translate(-23.509 -26.131)" fill="#263238"/>
              <g id="Group_1114766" data-name="Group 1114766" transform="translate(120.628 302.896)" opacity="0.3">
                <g id="Group_1114765" data-name="Group 1114765">
                  <g id="Group_1114764" data-name="Group 1114764" clip-path="url(#clip-path-11)">
                    <path id="Path_908020" data-name="Path 908020" d="M134.541,341.837a81.217,81.217,0,0,0,20.957,2.091,524.8,524.8,0,0,0,5.689,65.7,14.831,14.831,0,0,0,5.5,1.623,5.051,5.051,0,0,0,4.8-2.581,7.4,7.4,0,0,0,.384-3.375,552.761,552.761,0,0,0-6.746-65.383c-.262-1.6-.641-3.38-1.985-4.29-1.282-.867-2.984-.629-4.505-.345q-12.732,2.376-25.216,5.888" transform="translate(-133.421 -335.019)"/>
                  </g>
                </g>
              </g>
              <g id="Group_1114769" data-name="Group 1114769" transform="translate(111.721 307.879)" opacity="0.3">
                <g id="Group_1114768" data-name="Group 1114768">
                  <g id="Group_1114767" data-name="Group 1114767" clip-path="url(#clip-path-12)">
                    <path id="Path_908021" data-name="Path 908021" d="M123.569,340.53l2.121,30.089s7.113-16.273,5.29-22.5a11.057,11.057,0,0,0-7.411-7.586" transform="translate(-123.569 -340.53)"/>
                  </g>
                </g>
              </g>
              <path id="Path_908022" data-name="Path 908022" d="M118.1,200.058l-2.116-71.166-2.3-4.094c-2.022-1.787-5.3-1.478-7.492.1s-3.471,4.121-4.352,6.672c-4.223,12.245-.881,25.693-1.775,38.616-.194,2.8-.637,5.715-2.267,8-2.211,3.1-6.313,4.639-8.007,8.054a7.334,7.334,0,0,0,2.5,9.1c-2.075,1.208-4.217,2.475-5.593,4.443s-1.762,4.845-.236,6.7c1.651,2.005,4.665,2.032,7.253,1.8a101.962,101.962,0,0,0,21.585-4.254,4.215,4.215,0,0,0,2.334-1.372,4.307,4.307,0,0,0,.471-2.594" transform="translate(-8.195 -11.849)" fill="#263238"/>
              <path id="Path_908023" data-name="Path 908023" d="M104.852,188.5a5.436,5.436,0,0,0,1.975-1.343c1.062-1.14,1.868-3.339,2.107-6.115a149.683,149.683,0,0,0-.107-21.893c-.327-4.269-.839-8.315-1.415-11.981-.6-3.65-.91-7.1-.118-9.869a9.714,9.714,0,0,1,3.687-5.486,6.9,6.9,0,0,1,1.634-.808,3.093,3.093,0,0,1,.618-.141,9.186,9.186,0,0,0-2.147,1.1,9.716,9.716,0,0,0-3.47,5.422c-.728,2.7-.4,6.073.225,9.716.6,3.669,1.127,7.731,1.456,12.012a136.723,136.723,0,0,1-.032,21.964c-.284,2.809-1.159,5.061-2.3,6.207a4.711,4.711,0,0,1-1.5,1.041,2.963,2.963,0,0,1-.61.176" transform="translate(-10.053 -12.547)" fill="#455a64"/>
              <path id="Path_908024" data-name="Path 908024" d="M122.75,129.07c-.212,1,.487-.84,0,0" transform="translate(-11.766 -12.354)" fill="#ff725e"/>
              <path id="Path_908025" data-name="Path 908025" d="M121.009,124.634c-.821-.863-2.089-.5-3.031.176a11.223,11.223,0,0,0-3.641,5.171,26.99,26.99,0,0,0-1.452,6.724c-.142,1.331-.145,2.929.719,3.7a1.72,1.72,0,0,0,2.158-.033,6.456,6.456,0,0,0,1.627-2,47.316,47.316,0,0,0,4.411-9.747,6.354,6.354,0,0,0-.792-3.983" transform="translate(-10.817 -11.902)" fill="#ff725e"/>
              <path id="Path_908026" data-name="Path 908026" d="M114.308,141.65c1.815-7.716,5.063-15.6,11.457-20.284,5.7-4.175,14-5.766,21.048-5.241,3.468.259,7.338,1.988,10.307,3.8,4.071,2.483,5.672,7.3,7.533,11.691,3.727,8.8,2.837,20.513.016,23.687l-36.834,17.945c-6.3-3.544-13.13-8.319-14.6-15.4-1-4.821-.058-11.407,1.07-16.2" transform="translate(-10.817 -11.125)" fill="#263238"/>
              <path id="Path_908027" data-name="Path 908027" d="M129.483,128.589l23.008-5.983c7.376-.831,12.345,8.224,12.863,15.629.574,8.226.951,18.292.018,24.439-1.877,12.361-11.336,15.295-11.336,15.295,0-.042-.022,10.735-.067,14.4l-10.73,32.692-15.264-32.692-2.348-59.352a4.344,4.344,0,0,1,3.856-4.431" transform="translate(-12.045 -11.751)" fill="#ffbe9d"/>
              <path id="Path_908028" data-name="Path 908028" d="M164.685,150.768a1.584,1.584,0,0,1-1.516,1.608,1.515,1.515,0,0,1-1.642-1.417,1.585,1.585,0,0,1,1.514-1.609,1.516,1.516,0,0,1,1.644,1.418" transform="translate(-15.488 -14.32)" fill="#263238"/>
              <path id="Path_908029" data-name="Path 908029" d="M166.527,145.534c-.2.208-1.4-.672-3.1-.655-1.7-.008-2.947.877-3.135.669-.091-.091.107-.466.648-.866a4.351,4.351,0,0,1,2.506-.791,4.175,4.175,0,0,1,2.473.779c.528.4.707.771.612.864" transform="translate(-15.367 -13.797)" fill="#263238"/>
              <path id="Path_908030" data-name="Path 908030" d="M147.583,150.769a1.584,1.584,0,0,1-1.516,1.608,1.515,1.515,0,0,1-1.642-1.417,1.584,1.584,0,0,1,1.514-1.609,1.516,1.516,0,0,1,1.644,1.418" transform="translate(-13.848 -14.32)" fill="#263238"/>
              <path id="Path_908031" data-name="Path 908031" d="M148,146.012c-.2.208-1.4-.672-3.106-.655-1.7-.008-2.947.877-3.133.669-.091-.091.1-.466.648-.866a4.346,4.346,0,0,1,2.506-.791,4.18,4.18,0,0,1,2.473.779c.525.4.706.771.611.864" transform="translate(-13.591 -13.843)" fill="#263238"/>
              <path id="Path_908032" data-name="Path 908032" d="M155.507,158.611a11.264,11.264,0,0,1,2.764-.518c.435-.048.846-.137.918-.435a2.207,2.207,0,0,0-.3-1.287q-.624-1.576-1.309-3.3c-1.819-4.705-3.139-8.576-2.949-8.647s1.819,3.684,3.638,8.389q.656,1.74,1.256,3.324a2.518,2.518,0,0,1,.237,1.707,1.09,1.09,0,0,1-.711.64,2.934,2.934,0,0,1-.739.108,11.122,11.122,0,0,1-2.805.023" transform="translate(-14.825 -13.847)" fill="#263238"/>
              <path id="Path_908033" data-name="Path 908033" d="M155.324,183.493l-.069,3.075c-12.351,1.24-16.5-7.373-16.5-7.373a31.412,31.412,0,0,0,16.566,4.3" transform="translate(-13.305 -17.182)" fill="#eb996e"/>
              <path id="Path_908034" data-name="Path 908034" d="M149.361,163.543a2.737,2.737,0,0,1,2.268-1.256,3.559,3.559,0,0,1,3.255,1.585,2.214,2.214,0,0,1,.156,1.6c-.118.271-.026.137-.235.325a6.233,6.233,0,0,1-2.536,1.6,2.671,2.671,0,0,1-2.829-1.02,2.727,2.727,0,0,1-.078-2.829" transform="translate(-14.287 -15.56)" fill="#eb996e"/>
              <path id="Path_908035" data-name="Path 908035" d="M150.035,161.458c.277-.018.293,1.832,1.885,3.134s3.559,1.085,3.576,1.344c.027.116-.437.363-1.268.391a4.6,4.6,0,0,1-2.984-1.017,4.011,4.011,0,0,1-1.463-2.628c-.076-.772.127-1.232.254-1.222" transform="translate(-14.36 -15.481)" fill="#263238"/>
              <path id="Path_908036" data-name="Path 908036" d="M148.687,140.013c-.165.465-1.868.257-3.865.511-2,.215-3.611.811-3.879.4-.12-.2.158-.636.806-1.089a6.775,6.775,0,0,1,5.9-.692c.736.29,1.108.652,1.037.872" transform="translate(-13.512 -13.305)" fill="#263238"/>
              <path id="Path_908037" data-name="Path 908037" d="M165.844,139.013c-.3.389-1.474,0-2.885-.014-1.411-.058-2.606.278-2.883-.125-.122-.2.063-.584.583-.955a4.179,4.179,0,0,1,4.648.112c.5.394.668.792.537.982" transform="translate(-15.345 -13.162)" fill="#263238"/>
              <path id="Path_908038" data-name="Path 908038" d="M128.58,150.713c-.17-.079-6.875-2.207-6.813,4.685s6.968,5.409,6.978,5.212-.165-9.9-.165-9.9" transform="translate(-11.675 -14.415)" fill="#ffbe9d"/>
              <path id="Path_908039" data-name="Path 908039" d="M126.8,158.254c-.031-.022-.119.085-.322.18a1.2,1.2,0,0,1-.9.026,2.97,2.97,0,0,1-1.4-2.654,3.971,3.971,0,0,1,.321-1.721,1.385,1.385,0,0,1,.9-.929.611.611,0,0,1,.712.323c.094.192.052.33.089.341.019.017.146-.117.089-.4a.769.769,0,0,0-.275-.429.907.907,0,0,0-.665-.17,1.688,1.688,0,0,0-1.245,1.08,4.087,4.087,0,0,0-.4,1.925,3.119,3.119,0,0,0,1.777,2.961,1.286,1.286,0,0,0,1.1-.192c.212-.172.248-.326.223-.339" transform="translate(-11.861 -14.652)" fill="#eb996e"/>
              <path id="Path_908040" data-name="Path 908040" d="M124.584,161.307c-.032-.032-.3.291-.259.907a1.283,1.283,0,0,0,.487.967,1.427,1.427,0,0,0,1.323.095,1.394,1.394,0,0,0,.916-.956,1.433,1.433,0,0,0-.189-1.06c-.342-.533-.776-.583-.771-.545-.029.052.324.186.555.665a1.266,1.266,0,0,1,.093.863,1.118,1.118,0,0,1-.728.706,1.157,1.157,0,0,1-1.015-.033,1.089,1.089,0,0,1-.426-.731,3.805,3.805,0,0,1,.014-.877" transform="translate(-11.92 -15.409)" fill="#e0e0e0"/>
              <path id="Path_908041" data-name="Path 908041" d="M168.079,139.9a10.772,10.772,0,0,0-4.651-4.546c-1.915-1.089-3.988-1.882-5.894-2.989a20.714,20.714,0,0,1-9.261-11.585,12.435,12.435,0,0,1,11.036.143,16.853,16.853,0,0,1,7.626,8.24,26.412,26.412,0,0,1,2.1,11.163" transform="translate(-14.217 -11.464)" fill="#263238"/>
              <path id="Path_908042" data-name="Path 908042" d="M126.92,126.548c5.1-4.842,14.725-7.515,21.371-5.247-.987,5.8-5.365,12.319-9.217,16.768-3.877,4.477-6.216,12.324-14.648,9.658-.581-.184-1.245.345-1.77.037a2.155,2.155,0,0,1-.814-1.278,19.765,19.765,0,0,1,5.079-19.938" transform="translate(-11.598 -11.552)" fill="#263238"/>
              <path id="Path_908043" data-name="Path 908043" d="M124.346,125.815c-.009.006.041.086.145.232s.25.366.476.62a12.469,12.469,0,0,0,2.093,1.974,13.568,13.568,0,0,0,17.524-.963,12.44,12.44,0,0,0,1.863-2.192,7.575,7.575,0,0,0,.405-.668.9.9,0,0,0,.118-.247,18.887,18.887,0,0,1-2.541,2.938,14.128,14.128,0,0,1-3.5,2.312,13.177,13.177,0,0,1-10.009.55,14.124,14.124,0,0,1-3.729-1.914,18.86,18.86,0,0,1-2.848-2.643" transform="translate(-11.923 -11.944)" fill="#fff"/>
              <path id="Path_908044" data-name="Path 908044" d="M120.688,135.242a1.261,1.261,0,0,0,.231.235,7.131,7.131,0,0,0,.721.609,10.784,10.784,0,0,0,3.073,1.611,13.7,13.7,0,0,0,5.1.689,15.791,15.791,0,0,0,6.1-1.57,19.991,19.991,0,0,0,5.106-3.7,26.255,26.255,0,0,0,3.279-3.967,31.183,31.183,0,0,0,1.792-2.966c.2-.359.328-.648.423-.842a1.245,1.245,0,0,0,.126-.3,1.289,1.289,0,0,0-.184.274c-.127.216-.284.485-.476.81-.412.7-1.028,1.71-1.869,2.9a27.563,27.563,0,0,1-3.3,3.884,20.237,20.237,0,0,1-5.041,3.621,15.8,15.8,0,0,1-5.975,1.562,13.857,13.857,0,0,1-5.013-.608,11.551,11.551,0,0,1-3.072-1.5c-.665-.466-1-.768-1.025-.742" transform="translate(-11.572 -11.989)" fill="#455a64"/>
              <path id="Path_908045" data-name="Path 908045" d="M125.955,174.422a1.32,1.32,0,0,1-.365-.168c-.23-.128-.577-.306-1-.572a27.429,27.429,0,0,1-3.433-2.482,24.443,24.443,0,0,1-4.25-4.639,23.784,23.784,0,0,1-3.294-6.964,27.366,27.366,0,0,1-.335-13.875,24.794,24.794,0,0,1,1.316-4.027c.188-.463.374-.806.488-1.042a1.322,1.322,0,0,1,.2-.347,11.972,11.972,0,0,1-.521,1.457,29.888,29.888,0,0,0-1.162,4.032,28.183,28.183,0,0,0,.462,13.67,24.085,24.085,0,0,0,3.2,6.85,25.432,25.432,0,0,0,4.111,4.634,33.653,33.653,0,0,0,3.314,2.579,11.556,11.556,0,0,1,1.264.894" transform="translate(-10.791 -13.453)" fill="#455a64"/>
              <path id="Path_908046" data-name="Path 908046" d="M236.3,370.209l11.515,20.923s24.219-6.154,26.725-2.494L235.687,413.9l-19.279-31.865Z" transform="translate(-20.75 -35.497)" fill="#ff725e"/>
              <g id="Group_1114772" data-name="Group 1114772" transform="translate(213.248 360.751)" opacity="0.6">
                <g id="Group_1114771" data-name="Group 1114771">
                  <g id="Group_1114770" data-name="Group 1114770" clip-path="url(#clip-path-13)">
                    <path id="Path_908047" data-name="Path 908047" d="M236.354,399.524a1.891,1.891,0,0,0-.015,2.525,1.82,1.82,0,0,0,2.5.036,2,2,0,0,0,0-2.674,1.887,1.887,0,0,0-2.607.251" transform="translate(-235.863 -399.009)" fill="#fff"/>
                  </g>
                </g>
              </g>
              <g id="Group_1114775" data-name="Group 1114775" transform="translate(212.994 352.087)" opacity="0.6">
                <g id="Group_1114774" data-name="Group 1114774">
                  <g id="Group_1114773" data-name="Group 1114773" clip-path="url(#clip-path-14)">
                    <path id="Path_908048" data-name="Path 908048" d="M237.526,415.74l-1.943-3.212,38.365-23.083a3.2,3.2,0,0,1,2.81,1.191Z" transform="translate(-235.583 -389.426)" fill="#fff"/>
                  </g>
                </g>
              </g>
              <path id="Path_908049" data-name="Path 908049" d="M251.458,392.7c.109.2-.808.867-1.391,2.062-.614,1.181-.6,2.317-.827,2.346-.2.07-.607-1.264.124-2.7s2.03-1.912,2.094-1.709" transform="translate(-23.87 -37.649)" fill="#263238"/>
              <path id="Path_908050" data-name="Path 908050" d="M257.323,391.847c.157.161-.486.995-.655,2.211-.2,1.211.16,2.2-.038,2.305-.165.139-.979-.918-.74-2.425s1.318-2.274,1.433-2.091" transform="translate(-24.532 -37.569)" fill="#263238"/>
              <path id="Path_908051" data-name="Path 908051" d="M263.279,395.353c-.152.146-1-.662-1.139-2.023s.517-2.328.7-2.215c.205.094-.043,1.017.087,2.133.1,1.119.538,1.971.356,2.106" transform="translate(-25.133 -37.501)" fill="#263238"/>
              <path id="Path_908052" data-name="Path 908052" d="M247.811,387.734c.024.226-1.027.491-2.079,1.221-1.068.71-1.7,1.589-1.9,1.483-.2-.073.208-1.29,1.461-2.134s2.525-.78,2.522-.571" transform="translate(-23.375 -37.164)" fill="#263238"/>
              <g id="Group_1114778" data-name="Group 1114778" transform="translate(198.24 338.858)" opacity="0.3">
                <g id="Group_1114777" data-name="Group 1114777">
                  <g id="Group_1114776" data-name="Group 1114776" clip-path="url(#clip-path-15)">
                    <path id="Path_908053" data-name="Path 908053" d="M238.85,374.8l2.057,3.726-19.651,11.511-1.992-3.275Z" transform="translate(-219.264 -374.795)"/>
                  </g>
                </g>
              </g>
              <path id="Path_908054" data-name="Path 908054" d="M244.78,383.033c.051.079-.646.658-2,1.181a10.422,10.422,0,0,1-2.466.607,10.957,10.957,0,0,1-1.506.077,2.86,2.86,0,0,1-.882-.109.988.988,0,0,1-.707-.98,1.24,1.24,0,0,1,.586-.953,3,3,0,0,1,.808-.344,8.353,8.353,0,0,1,1.492-.316,8.184,8.184,0,0,1,2.558.107,3.874,3.874,0,0,1,2.138.917c-.05.117-.862-.222-2.222-.366a9.286,9.286,0,0,0-2.375.061,8.676,8.676,0,0,0-1.354.331c-.487.142-.847.353-.844.6,0,.095.015.127.177.2a2.334,2.334,0,0,0,.646.078,12.3,12.3,0,0,0,1.412-.028,12.87,12.87,0,0,0,2.367-.413,15.95,15.95,0,0,1,2.17-.652" transform="translate(-22.745 -36.641)" fill="#263238"/>
              <path id="Path_908055" data-name="Path 908055" d="M245.177,382.82c-.051.071-.853-.394-1.676-1.609a7.522,7.522,0,0,1-1.248-3.856,1.918,1.918,0,0,1,.669-1.765,1.083,1.083,0,0,1,1.164.058,3.106,3.106,0,0,1,.641.608,5.147,5.147,0,0,1,.8,1.341,5.34,5.34,0,0,1,.38,2.566c-.161,1.5-.833,2.212-.888,2.156a18.835,18.835,0,0,0,.332-2.184,5.343,5.343,0,0,0-.489-2.249,4.756,4.756,0,0,0-.725-1.128c-.315-.386-.677-.632-.809-.495a1.327,1.327,0,0,0-.307,1.07,7.683,7.683,0,0,0,.152,1.374,8.343,8.343,0,0,0,.8,2.218c.644,1.2,1.286,1.8,1.2,1.9" transform="translate(-23.228 -35.999)" fill="#263238"/>
              <path id="Path_908056" data-name="Path 908056" d="M197.01,415.088l-1.184,23.852s24.7,7.371,24.3,13.215l-46.477-.06.227-37.389Z" transform="translate(-16.65 -39.764)" fill="#ff725e"/>
              <g id="Group_1114781" data-name="Group 1114781" transform="translate(163.503 396.899)" opacity="0.6">
                <g id="Group_1114780" data-name="Group 1114780">
                  <g id="Group_1114779" data-name="Group 1114779" clip-path="url(#clip-path-16)">
                    <path id="Path_908057" data-name="Path 908057" d="M182.216,439.064a1.892,1.892,0,0,0-1.338,2.141,1.819,1.819,0,0,0,2.111,1.345,2,2,0,0,0,1.4-2.275,1.887,1.887,0,0,0-2.351-1.155" transform="translate(-180.843 -438.991)" fill="#fff"/>
                  </g>
                </g>
              </g>
              <g id="Group_1114784" data-name="Group 1114784" transform="translate(156.934 408.431)" opacity="0.6">
                <g id="Group_1114783" data-name="Group 1114783">
                  <g id="Group_1114782" data-name="Group 1114782" clip-path="url(#clip-path-17)">
                    <path id="Path_908058" data-name="Path 908058" d="M173.639,455.647l-.061-3.9,44.35.491s2.193,1.55,2.188,3.469Z" transform="translate(-173.577 -451.746)" fill="#fff"/>
                  </g>
                </g>
              </g>
              <path id="Path_908059" data-name="Path 908059" d="M198.561,441.238c-.011.226-1.143.313-2.267,1.025-1.142.684-1.729,1.655-1.936,1.562-.208-.046.148-1.394,1.523-2.233s2.73-.561,2.679-.354" transform="translate(-18.63 -42.286)" fill="#263238"/>
              <path id="Path_908060" data-name="Path 908060" d="M204.026,443.548c.049.22-.937.591-1.718,1.538-.809.923-1.017,1.955-1.242,1.942-.213.033-.352-1.295.642-2.453s2.316-1.243,2.318-1.027" transform="translate(-19.264 -42.52)" fill="#263238"/>
              <path id="Path_908061" data-name="Path 908061" d="M207.293,449.621c-.206.045-.505-1.089.093-2.32s1.663-1.71,1.755-1.52c.126.187-.571.843-1.046,1.861-.5,1.007-.577,1.96-.8,1.979" transform="translate(-19.851 -42.739)" fill="#263238"/>
              <path id="Path_908062" data-name="Path 908062" d="M198.132,435.125c-.1.205-1.131-.121-2.411-.052-1.281.043-2.282.459-2.4.263-.128-.165.854-.989,2.363-1.05s2.56.663,2.446.839" transform="translate(-18.535 -41.64)" fill="#263238"/>
              <g id="Group_1114787" data-name="Group 1114787" transform="translate(157.04 392.216)" opacity="0.3">
                <g id="Group_1114786" data-name="Group 1114786">
                  <g id="Group_1114785" data-name="Group 1114785" clip-path="url(#clip-path-18)">
                    <path id="Path_908063" data-name="Path 908063" d="M196.208,433.811l-.269,4.748-22.246-.584.023-3.833Z" transform="translate(-173.694 -433.811)"/>
                  </g>
                </g>
              </g>
              <path id="Path_908064" data-name="Path 908064" d="M198.067,429.484a4.339,4.339,0,0,1-2.32-.043,10.416,10.416,0,0,1-2.418-.779,10.97,10.97,0,0,1-1.323-.725,2.86,2.86,0,0,1-.693-.555.986.986,0,0,1-.087-1.205,1.241,1.241,0,0,1,1-.5,3,3,0,0,1,.869.132,8.344,8.344,0,0,1,1.436.514,8.191,8.191,0,0,1,2.12,1.434c1.061,1.01,1.417,1.861,1.339,1.9-.1.073-.618-.642-1.7-1.479a9.306,9.306,0,0,0-2.053-1.194,8.609,8.609,0,0,0-1.327-.429c-.489-.135-.906-.145-1.035.072-.047.082-.053.116.048.26a2.3,2.3,0,0,0,.509.405,12.2,12.2,0,0,0,1.217.718,12.818,12.818,0,0,0,2.231.891,16.125,16.125,0,0,1,2.189.585" transform="translate(-18.319 -40.815)" fill="#263238"/>
              <path id="Path_908065" data-name="Path 908065" d="M198.417,429.464a3.7,3.7,0,0,1-.581-2.249,7.519,7.519,0,0,1,.962-3.937,1.918,1.918,0,0,1,1.5-1.151,1.085,1.085,0,0,1,.96.66,3.124,3.124,0,0,1,.226.854,5.126,5.126,0,0,1-.02,1.563,5.337,5.337,0,0,1-1.023,2.383c-.922,1.188-1.87,1.446-1.888,1.369-.074-.115.721-.541,1.429-1.685a5.357,5.357,0,0,0,.764-2.17,4.785,4.785,0,0,0-.024-1.342c-.066-.494-.245-.893-.43-.845-.23-.007-.627.359-.822.749a7.668,7.668,0,0,0-.591,1.25,8.358,8.358,0,0,0-.482,2.309c-.082,1.359.148,2.21.024,2.242" transform="translate(-18.969 -40.475)" fill="#263238"/>
              <path id="Path_908066" data-name="Path 908066" d="M124.156,189.709l2.6-1.1c-.793-1.268,5.415,10.851,13.87,10.931,11.556.108,12.713-11.405,12.713-11.405l.6.074,19,19.688,2.505,55.116-2.063,7.074L132.584,284.9l-14.235-28.337L117.1,239.108Z" transform="translate(-11.228 -18.039)" fill="#f5f5f5"/>
              <path id="Path_908067" data-name="Path 908067" d="M122.9,189.194s-23.173,5.276-26.952,15.167c-1.669,4.366-2.2,74.8-2.2,74.8s-2.883,6.446-2.7,19.744c.181,12.749,8.614,20.994,19.132,23.376,0,0,2.768-20.03,13.86-30.068,10.509-9.511,11.475-8.361,11.475-8.361l-2.536-22.968-2.623-20c-2.633-14.29.328-29.784-4.539-43.475Z" transform="translate(-8.729 -18.141)" fill="#ff725e"/>
              <path id="Path_908068" data-name="Path 908068" d="M178.208,203.1l15.807,69.522-16.994-3.862-5.408-41.712L157.669,188.14s2.349.307,5.369.778a18.492,18.492,0,0,1,15.17,14.18" transform="translate(-15.118 -18.04)" fill="#ff725e"/>
              <g id="Group_1114790" data-name="Group 1114790" transform="translate(85.117 261.338)" opacity="0.3">
                <g id="Group_1114789" data-name="Group 1114789">
                  <g id="Group_1114788" data-name="Group 1114788" clip-path="url(#clip-path-19)">
                    <path id="Path_908069" data-name="Path 908069" d="M94.211,300.673a2.5,2.5,0,0,0,1.127,2.136,5.7,5.7,0,0,0,2.355.853,24.61,24.61,0,0,0,11.711-1.272,93.661,93.661,0,0,0,12.539-5.45,116.655,116.655,0,0,0,13.542-7.888c-5.882,2.409-7.829,2.711-14.025,4.13-9.249,2.119-18.941,3.173-27.316,7.633" transform="translate(-94.144 -289.053)"/>
                  </g>
                </g>
              </g>
              <path id="Path_908070" data-name="Path 908070" d="M131.821,271.924l10.341-2.232s11.875-6.622,14.54-6.61c2.4.011,11.886,4.3,13.746,5.148a1.082,1.082,0,0,1,.491.45,1.858,1.858,0,0,1-.64,2.5l-.165.1.118.243a3.072,3.072,0,0,1,.3,1,1.25,1.25,0,0,1-2.206.907l.417.521a1.425,1.425,0,0,1,.3.737l.056.524a1.422,1.422,0,0,1-2.293,1.27c-1.281-1.016-4.015-3.024-5.644-3.03a37.719,37.719,0,0,0-5.221.587,1.78,1.78,0,0,0-1.446,1.387c.952-.086,8.068,2.262,10.588,3.107a2.516,2.516,0,0,1,1.655,1.647c.2.712-.039,1.533-1.531,1.432a64.294,64.294,0,0,1-9.166-1.86s-3-.351-4.635,1.261c-2.307,2.266-3.392,3.135-5.753,2.759a19.2,19.2,0,0,1-4.186-1.173l-3.745.708Z" transform="translate(-12.639 -25.225)" fill="#ffbe9d"/>
              <path id="Path_908071" data-name="Path 908071" d="M155.889,270.616c.019.046.857-.382,2.317-.716a12.4,12.4,0,0,1,10.911,2.686c1.138.974,1.682,1.742,1.72,1.71a2.986,2.986,0,0,0-.376-.538,10.785,10.785,0,0,0-1.231-1.3,12.024,12.024,0,0,0-11.064-2.724,10.858,10.858,0,0,0-1.693.58,2.947,2.947,0,0,0-.583.3" transform="translate(-14.947 -25.827)" fill="#eb996e"/>
              <path id="Path_908072" data-name="Path 908072" d="M156.814,266.989a10.451,10.451,0,0,1,2.4-.834,10.912,10.912,0,0,1,6.005.687A23.421,23.421,0,0,1,170.481,270l1.488,1.14a3.946,3.946,0,0,0,.561.4,3.737,3.737,0,0,0-.5-.472c-.335-.291-.822-.707-1.442-1.2a21.529,21.529,0,0,0-5.28-3.246,10.637,10.637,0,0,0-6.128-.631,7.08,7.08,0,0,0-1.777.635,4.093,4.093,0,0,0-.442.259c-.1.063-.148.1-.144.108" transform="translate(-15.036 -25.484)" fill="#eb996e"/>
              <path id="Path_908073" data-name="Path 908073" d="M108.736,207.8l-5.162,55.524h-1.46l23.4.463,8.471,17.006s-30.687,14.93-43.8,10.815c-15.545-4.876-11.11-22.22-10.994-28.35.02-1.08,8.741-52.657,17.2-60.385,0,0,11.151.74,12.351,4.927" transform="translate(-7.529 -19.452)" fill="#ff725e"/>
              <path id="Path_908074" data-name="Path 908074" d="M112.163,225.461a8.954,8.954,0,0,1-.135,1.5c-.141,1.042-.326,2.409-.55,4.059-.526,3.5-1.23,8.181-2.008,13.357-.8,5.214-1.487,9.938-1.971,13.36-.236,1.646-.432,3.012-.581,4.052a9.081,9.081,0,0,1-.27,1.479,8.912,8.912,0,0,1,.083-1.5c.083-.964.23-2.355.429-4.073.4-3.437,1.035-8.172,1.832-13.39s1.574-9.927,2.148-13.337c.286-1.639.522-3,.7-4.033a8.928,8.928,0,0,1,.321-1.47" transform="translate(-10.224 -21.618)" fill="#263238"/>
              <path id="Path_908075" data-name="Path 908075" d="M110.784,199.007c.028-.018.188.19.455.583a13.315,13.315,0,0,1,.986,1.755,18.565,18.565,0,0,1,1.067,2.795,23.267,23.267,0,0,1,.705,3.593,32.925,32.925,0,0,1,.03,6.624,12.984,12.984,0,0,1-.4,2.71,18.69,18.69,0,0,1,.061-2.732,43.256,43.256,0,0,0-.169-6.546,26.577,26.577,0,0,0-.655-3.53,22.183,22.183,0,0,0-.949-2.775c-.652-1.542-1.2-2.433-1.129-2.477" transform="translate(-10.622 -19.081)" fill="#263238"/>
              <path id="Path_908076" data-name="Path 908076" d="M91.422,298a.864.864,0,0,1,.231.041l.661.166a17.506,17.506,0,0,0,2.581.381,36.29,36.29,0,0,0,9.542-.931c1.984-.42,4.186-.883,6.5-1.417,2.3-.614,4.707-1.494,7.228-2.426,5.039-1.892,10.524-4.126,16.247-6.547l.714-.3-.121.33-8.448-17.017.2.12c-3.764-.03-7.209-.236-10.278-.335-3.068-.115-5.755-.172-7.971-.156s-3.965.1-5.152.228-1.816.243-1.824.2a2.366,2.366,0,0,1,.457-.113c.3-.063.755-.16,1.351-.228a46.213,46.213,0,0,1,5.163-.35c2.222-.054,4.915-.031,7.986.054,3.071.07,6.527.25,10.265.26h.136l.06.12c2.544,5.091,5.433,10.873,8.493,17l.114.23-.236.1-.716.3c-5.729,2.423-11.223,4.646-16.28,6.52-2.534.924-4.947,1.79-7.284,2.4-2.357.525-4.528.961-6.535,1.363a34.789,34.789,0,0,1-9.624.784A11.558,11.558,0,0,1,91.422,298" transform="translate(-8.766 -25.852)" fill="#263238"/>
              <path id="Path_908077" data-name="Path 908077" d="M107.87,269.518c-.061.057-.582-.538-1.637-1.2a11.837,11.837,0,0,0-4.541-1.6,26.894,26.894,0,0,0-4.887-.153,9.592,9.592,0,0,1-2.052.01,7.961,7.961,0,0,1,2.028-.351,20.115,20.115,0,0,1,4.982.015,10.605,10.605,0,0,1,4.662,1.79,4.268,4.268,0,0,1,1.447,1.482" transform="translate(-9.085 -25.513)" fill="#263238"/>
              <g id="Group_1114793" data-name="Group 1114793" transform="translate(83.006 243.685)" opacity="0.3">
                <g id="Group_1114792" data-name="Group 1114792">
                  <g id="Group_1114791" data-name="Group 1114791" clip-path="url(#clip-path-20)">
                    <path id="Path_908078" data-name="Path 908078" d="M107.2,269.782a22.69,22.69,0,0,0-9.951.718,8.786,8.786,0,0,0-5.065,3.291c-.355.561-.575,1.373-.1,1.834a1.524,1.524,0,0,0,1.636.042,15.239,15.239,0,0,0,3.109-2.087,20.679,20.679,0,0,1,5.144-3.008,11.584,11.584,0,0,1,5.869-.734" transform="translate(-91.809 -269.528)"/>
                  </g>
                </g>
              </g>
              <g id="Group_1114796" data-name="Group 1114796" transform="translate(80.239 237.309)" opacity="0.3">
                <g id="Group_1114795" data-name="Group 1114795">
                  <g id="Group_1114794" data-name="Group 1114794" clip-path="url(#clip-path-21)">
                    <path id="Path_908079" data-name="Path 908079" d="M105.873,267.912c-.7-1.95-3.267-3.776-4.923-4.342-3.767-1.286-8.108-1.767-11.446.4a1.377,1.377,0,0,0-.755.981c-.023.6.642.963,1.218,1.121,2.381.654,4.9.258,7.36.02s5.087-.275,7.213.982" transform="translate(-88.748 -262.476)"/>
                  </g>
                </g>
              </g>
              <g id="Group_1114799" data-name="Group 1114799" transform="translate(96.58 205.732)" opacity="0.3">
                <g id="Group_1114798" data-name="Group 1114798">
                  <g id="Group_1114797" data-name="Group 1114797" clip-path="url(#clip-path-22)">
                    <path id="Path_908080" data-name="Path 908080" d="M106.823,262.122a59.65,59.65,0,0,0,5.068-34.572Z" transform="translate(-106.823 -227.55)"/>
                  </g>
                </g>
              </g>
              <path id="Path_908081" data-name="Path 908081" d="M112.18,330.956s8.37,5.556,25,5.556,20.441-1.152,20.441-1.152L173.2,321.212l34.173,59.846s27.121-16.815,27.3-16.272c.325.325-25.3-56.7-30.909-66.557a73.8,73.8,0,0,0-6.359-9.214,24.2,24.2,0,0,0-24.276-8.821,111.1,111.1,0,0,0-14.2,3.974c-12.4,4.54-22.92,7.595-31.9,15.551-10.37,9.191-16.652,27.046-14.853,31.237" transform="translate(-10.727 -26.813)" fill="#263238"/>
              <path id="Path_908082" data-name="Path 908082" d="M174.134,318s-12.292,8.505-11.962,15.325c.277,5.713,7.878,89.809,7.878,89.809l30.264-.514,2.075-55.064Z" transform="translate(-15.549 -30.491)" fill="#263238"/>
              <path id="Path_908083" data-name="Path 908083" d="M204.832,371.849a.954.954,0,0,1-.138-.2l-.363-.618-1.354-2.4c-1.176-2.128-2.846-5.15-4.9-8.868-4.114-7.539-9.765-17.9-16.008-29.344L175.7,318.67l.231.119a15.378,15.378,0,0,0-10.952,6.951,14.762,14.762,0,0,0-2.044,5.288,24.523,24.523,0,0,0-.337,4.907c.085,3,.358,5.389.432,7.033.043.822.068,1.457.068,1.886a4.083,4.083,0,0,1-.015.652,3.922,3.922,0,0,1-.065-.649c-.036-.462-.083-1.087-.144-1.878-.123-1.638-.441-4.016-.568-7.037a24.406,24.406,0,0,1,.286-4.976,15.04,15.04,0,0,1,2.051-5.437,15.734,15.734,0,0,1,11.234-7.2l.156-.02.076.139,6.381,11.736c6.2,11.471,11.8,21.855,15.884,29.413l4.766,8.942,1.275,2.443.32.641a.961.961,0,0,1,.095.226" transform="translate(-15.561 -30.521)" fill="#455a64"/>
              <path id="Path_908084" data-name="Path 908084" d="M180.919,305.345a16.154,16.154,0,0,0-3.827,12.515,5.4,5.4,0,0,1-.41-1.97,13.136,13.136,0,0,1,2.8-9.141,5.387,5.387,0,0,1,1.442-1.4" transform="translate(-16.937 -29.277)" fill="#455a64"/>
              <path id="Path_908085" data-name="Path 908085" d="M174.238,302.777c.08.024-.168.866-.349,2.253a17.278,17.278,0,0,0,1.977,10.534c.672,1.226,1.208,1.92,1.143,1.972a6.7,6.7,0,0,1-1.438-1.8,15.281,15.281,0,0,1-2.021-10.76,6.709,6.709,0,0,1,.687-2.2" transform="translate(-16.617 -29.031)" fill="#455a64"/>
              <path id="Path_908086" data-name="Path 908086" d="M148.245,257.576c-.07-.058.856-1.113,2.033-3.024a27.5,27.5,0,0,0,1.806-3.493,27.206,27.206,0,0,0,2.168-9.334,27.552,27.552,0,0,0-.082-3.933c-.214-2.235-.58-3.588-.492-3.61a4,4,0,0,1,.309.936,9.617,9.617,0,0,1,.263,1.126c.081.443.2.946.25,1.513a24.293,24.293,0,0,1,.184,3.988,25.5,25.5,0,0,1-2.2,9.489,24.4,24.4,0,0,1-1.924,3.5c-.3.485-.623.885-.891,1.247a9.821,9.821,0,0,1-.732.9,3.955,3.955,0,0,1-.691.7" transform="translate(-14.214 -22.454)" fill="#263238"/>
              <path id="Path_908087" data-name="Path 908087" d="M179.009,200.661s32.813,56.362,33.546,60.69c.546,3.219-.5,12.4-3.437,13.585-8.226,3.326-17.736-.539-26.426-6.55l-1.3-.9Z" transform="translate(-17.164 -19.24)" fill="#ff725e"/>
              <path id="Path_908088" data-name="Path 908088" d="M19.081,191.872s5.141-2.989,6.364,5.338,9.668,69.383,9.668,69.383l52.482-.5s11.087-.422,18.613,22.176c5.265,15.809,10.636,69.6,10.636,69.6l-.994,38.935-94.9-.015s-2.932-81.6-3.422-117.892S16,203.032,19.081,191.872" transform="translate(-1.626 -18.347)" fill="#455a64"/>
              <path id="Path_908089" data-name="Path 908089" d="M24.546,191.324a2.587,2.587,0,0,0,.284.252,7.649,7.649,0,0,1,.777.8,6.978,6.978,0,0,1,1.595,3.937l1.941,16.1c1.691,13.676,4.042,32.7,6.7,54.184l.027.213.211,0,10.95-.231c11.836-.19,23.116-.271,33.365.023,2.56.08,5.058.184,7.474.375l1.8.153c.594.057,1.174.158,1.756.234a6.058,6.058,0,0,1,3.134,1.2A20.685,20.685,0,0,1,99,273.42a54,54,0,0,1,3.21,5.275,97.687,97.687,0,0,1,7.16,17.29,37.9,37.9,0,0,1,1.209,4.958,11.212,11.212,0,0,1,.138,1.319c0,.3.008.454.008.454s.022-.152.041-.454a9.433,9.433,0,0,0-.093-1.334,34.993,34.993,0,0,0-1.127-5c-.609-2.139-1.472-4.72-2.612-7.661a92.705,92.705,0,0,0-4.432-9.74A53.929,53.929,0,0,0,99.3,273.2a21.009,21.009,0,0,0-4.521-4.977l-.745-.477c-.256-.149-.536-.261-.8-.394a8.557,8.557,0,0,0-.867-.271c-.292-.065-.584-.091-.878-.138-.587-.08-1.178-.184-1.776-.243l-1.807-.159c-2.428-.2-4.928-.311-7.494-.4-10.261-.317-21.544-.25-33.385-.06l-10.953.234.237.209c-2.717-21.477-5.122-40.493-6.851-54.163-.882-6.806-1.591-12.281-2.083-16.078a6.956,6.956,0,0,0-1.7-3.974,4.993,4.993,0,0,0-1.127-.989" transform="translate(-2.354 -18.345)" fill="#263238"/>
              <path id="Path_908090" data-name="Path 908090" d="M98.557,279.188a2.778,2.778,0,0,1-.344.061c-.227.036-.565.09-1,.188a20.283,20.283,0,0,0-8.959,4.458,21.683,21.683,0,0,0-2.677,2.773l-1.2,1.737c-.1.149-.209.3-.306.45l-.251.492c-.169.329-.339.664-.513,1l-.524,1.025c-.161.353-.272.732-.413,1.1-.259.751-.566,1.505-.8,2.3a35.109,35.109,0,0,0-.962,5.075c-.088.89-.226,1.791-.278,2.712q-.014,1.387-.027,2.818c-.067,1.9.1,3.877.163,5.894.358,8.073.945,16.94,1.655,26.239.821,10.484,1.719,20.4,2.6,29.1l-.21-.19,27.7.234,7.851.1,2.078.043.534.02a.765.765,0,0,1,.181.018.69.69,0,0,1-.181.017l-.534.014-2.079.022-7.852.018-27.706-.064h-.19l-.02-.19c-.917-8.706-1.831-18.622-2.652-29.112-.711-9.3-1.285-18.176-1.619-26.256-.053-2.023-.217-3.985-.144-5.912q.02-1.442.039-2.842c.056-.93.2-1.841.292-2.739a35.327,35.327,0,0,1,1-5.127c.245-.8.56-1.565.827-2.324.145-.375.261-.759.426-1.115l.54-1.037q.266-.513.527-1.012l.259-.5c.1-.156.21-.3.314-.456q.629-.9,1.228-1.751a21.817,21.817,0,0,1,2.741-2.788,18.792,18.792,0,0,1,5.33-3.235,17.751,17.751,0,0,1,3.782-1.116c.444-.084.786-.122,1.016-.143a2.041,2.041,0,0,1,.35-.013" transform="translate(-7.658 -26.769)" fill="#263238"/>
              <path id="Path_908091" data-name="Path 908091" d="M99.874,415.159c-.13,0-.235-8.469-.235-18.912s.1-18.914.235-18.914.235,8.467.235,18.914-.1,18.912-.235,18.912" transform="translate(-9.554 -36.18)" fill="#263238"/>
              <path id="Path_908092" data-name="Path 908092" d="M220.991,237.069l-53.406,4.823a1.225,1.225,0,0,0-1.061.86l-11.872,38.121a1.222,1.222,0,0,1-.765.8l-20.51,5.582a1.223,1.223,0,0,0,.689,2.344l22.069-4.676,49.639-6.192a1.223,1.223,0,0,0,1-.767l15.466-39.224a1.224,1.224,0,0,0-1.249-1.667" transform="translate(-12.71 -22.731)" fill="#e0e0e0"/>
              <path id="Path_908093" data-name="Path 908093" d="M220.966,237.068a1,1,0,0,1,.477.028,1.258,1.258,0,0,1,.888,1.033,1.933,1.933,0,0,1-.223,1.019l-.45,1.168q-.492,1.271-1.131,2.921l-7.332,18.785c-1.566,3.994-3.286,8.386-5.144,13.123q-.349.89-.7,1.794l-.356.909a1.535,1.535,0,0,1-.646.864,1.4,1.4,0,0,1-.532.193l-.5.064-.994.125-2.012.254-8.362,1.054-37.807,4.746.02,0-11.483,2.437-5.874,1.246-2.967.628-1.49.316a2.012,2.012,0,0,1-.849.067,1.459,1.459,0,0,1-.221-2.811l.009,0,.007,0,20.512-5.577-.015,0a1.031,1.031,0,0,0,.662-.777l.381-1.221.757-2.425,1.495-4.789,2.909-9.317,5.453-17.451q.324-1.036.644-2.059a6.267,6.267,0,0,1,.376-1.049,1.424,1.424,0,0,1,1-.655l4.154-.373,7.889-.7,14.062-1.241,20.118-1.748,5.409-.449,1.4-.106c.316-.022.477-.022.477-.022s-.159.029-.473.064l-1.4.146-5.4.528-20.106,1.885-14.056,1.3-7.887.725-4.129.381a1.032,1.032,0,0,0-.718.476,6.537,6.537,0,0,0-.332.958q-.317,1.023-.638,2.06c-1.718,5.532-3.53,11.37-5.42,17.461q-1.419,4.569-2.9,9.321-.738,2.375-1.489,4.791l-.754,2.426-.38,1.221a1.5,1.5,0,0,1-.949,1.078l-.014,0h0l-20.509,5.587.016-.005a.988.988,0,0,0,.149,1.9,1.536,1.536,0,0,0,.66-.063L135.73,289l2.968-.628,5.876-1.244,11.488-2.431.01,0h.009L193.9,280l8.365-1.033,2.013-.249.995-.122a2.131,2.131,0,0,0,.882-.2,1.157,1.157,0,0,0,.5-.684l.36-.907q.358-.9.71-1.791l5.2-13.1,7.461-18.734q.659-1.641,1.167-2.908.254-.628.468-1.161a1.872,1.872,0,0,0,.238-.971,1.216,1.216,0,0,0-.818-1,2.019,2.019,0,0,0-.465-.069" transform="translate(-12.685 -22.729)" fill="#263238"/>
              <path id="Path_908094" data-name="Path 908094" d="M172.076,242.2a1.724,1.724,0,0,1-.086.454c-.09.344-.2.766-.334,1.277-.3,1.106-.754,2.7-1.334,4.663-1.159,3.928-2.842,9.33-4.742,15.28-1.893,5.919-3.607,11.275-4.873,15.237-.608,1.9-1.107,3.459-1.478,4.617-.167.5-.3.914-.418,1.251a1.727,1.727,0,0,1-.176.427,1.694,1.694,0,0,1,.085-.454c.09-.344.2-.766.334-1.277.3-1.106.754-2.7,1.335-4.663,1.159-3.928,2.842-9.331,4.743-15.283,1.892-5.917,3.6-11.273,4.872-15.234l1.477-4.618c.167-.5.306-.913.419-1.25a1.729,1.729,0,0,1,.176-.428" transform="translate(-15.21 -23.223)" fill="#263238"/>
              <path id="Path_908095" data-name="Path 908095" d="M195.88,259.418a2.483,2.483,0,0,0-2.088.98,1.944,1.944,0,0,0-.582,2.086,1.659,1.659,0,0,0,1.359.866,2.777,2.777,0,0,0,1.6-.42,2.353,2.353,0,0,0,1.292-1.826,1.705,1.705,0,0,0-1.586-1.685" transform="translate(-18.514 -24.874)" fill="#fff"/>
              <path id="Path_908096" data-name="Path 908096" d="M187.783,237.468a5.9,5.9,0,0,1-.428-1.126c-.272-.822-.618-1.862-1.03-3.106-.87-2.621-2.111-6.228-3.61-10.165s-2.975-7.455-4.07-9.991l-1.3-3a5.817,5.817,0,0,1-.429-1.125,5.9,5.9,0,0,1,.595,1.046c.358.687.85,1.693,1.437,2.946,1.174,2.5,2.7,6.012,4.207,9.96s2.7,7.581,3.487,10.232c.4,1.326.7,2.4.888,3.154a5.818,5.818,0,0,1,.252,1.177" transform="translate(-16.963 -20.035)" fill="#263238"/>
            </g>
          </g>
          <g id="Group_1114803" data-name="Group 1114803">
            <g id="Group_1114802" data-name="Group 1114802" clip-path="url(#clip-path)">
              <path id="Path_908097" data-name="Path 908097" d="M392.358,456.307c0,.13-87.839.235-196.17.235C87.82,456.542,0,456.437,0,456.307s87.82-.235,196.188-.235c108.33,0,196.17.1,196.17.235" transform="translate(0 -43.73)" fill="#263238"/>
            </g>
          </g>
        </g>
      </g>
    </g>
  </g>
</svg>
