<svg xmlns="http://www.w3.org/2000/svg" width="610.05" height="750.064" viewBox="0 0 610.05 750.064">
  <g id="Group_1115351" data-name="Group 1115351" transform="translate(-810 -5658)">
    <rect id="Rectangle_407339" data-name="Rectangle 407339" width="610" height="750" rx="20" transform="translate(810.051 5658)" fill="#edf7fe"/>
    <rect id="Rectangle_407341" data-name="Rectangle 407341" width="449" height="732" rx="20" transform="translate(971.051 5666)" fill="#5ab4f9"/>
    <rect id="Rectangle_407340" data-name="Rectangle 407340" width="439" height="412" rx="25" transform="translate(810.051 5996)" fill="#bce0fc"/>
    <g id="_9412376" data-name="9412376" transform="translate(786.07 5772.908)">
      <g id="Background_Complete" data-name="Background Complete" transform="translate(25.437 -109.148)">
        <g id="Group_1112577" data-name="Group 1112577" transform="translate(343.845 39.61)">
          <path id="Path_903304" data-name="Path 903304" d="M393.406,133.167,286.276,109.8a5.26,5.26,0,0,1-3.936-6.233l13.984-68.341a5.1,5.1,0,0,1,6.036-4.065L409.5,54.538a5.267,5.267,0,0,1,3.925,6.233l-13.974,68.353a5.1,5.1,0,0,1-6.035,4.054Z" transform="translate(-282.229 -31.049)" fill="#ebebeb"/>
          <path id="Path_903305" data-name="Path 903305" d="M296.349,76.786l-1.378,6.73-.667-.147,1.257-6.1-1.542-.339.131-.632Z" transform="translate(-281.128 -25.201)" fill="#fff"/>
          <path id="Path_903306" data-name="Path 903306" d="M301.531,84.206l-.131.632-4.559-.994.1-.486,3.258-2.146c.886-.587,1.115-1.005,1.214-1.468.164-.779-.273-1.366-1.268-1.592a2.238,2.238,0,0,0-1.935.361l-.383-.519a2.914,2.914,0,0,1,2.5-.463c1.312.294,2.012,1.163,1.782,2.315a2.835,2.835,0,0,1-1.5,1.875l-2.668,1.762,3.575.734Z" transform="translate(-280.865 -25.055)" fill="#fff"/>
          <path id="Path_903307" data-name="Path 903307" d="M308.093,84.363l-1.3-.282-.361,1.762-.667-.147.361-1.762-3.685-.8.142-.519,4.352-3.693.743.169-4.21,3.614,2.821.621.317-1.558.656.147-.317,1.558,1.3.282-.142.632Z" transform="translate(-280.342 -24.862)" fill="#fff"/>
          <path id="Path_903308" data-name="Path 903308" d="M317.2,86.292l-1.3-.282-.361,1.762-.678-.147.361-1.762-3.685-.8.109-.5L316,80.86l.744.169-4.21,3.6,2.821.621.317-1.547.656.136-.317,1.558,1.3.282-.1.61Z" transform="translate(-279.492 -24.612)" fill="#fff"/>
          <path id="Path_903309" data-name="Path 903309" d="M322.371,87.222c-.23,1.141-1.192,1.863-2.777,1.513a3.434,3.434,0,0,1-2.154-1.378l.437-.474a2.872,2.872,0,0,0,1.837,1.208c1.1.237,1.793-.169,1.979-1.005s-.241-1.513-1.892-1.875l-1.389-.3,1.017-3.3,3.564.779-.131.632-2.974-.644-.656,2.089.831.181c1.957.418,2.537,1.378,2.3,2.563Z" transform="translate(-278.941 -24.515)" fill="#fff"/>
          <path id="Path_903310" data-name="Path 903310" d="M328.246,88.394a2.07,2.07,0,0,1-2.646,1.581c-1.717-.373-2.405-1.818-1.979-3.941.459-2.281,1.913-3.207,3.674-2.846a2.975,2.975,0,0,1,1.465.7l-.383.5a2.354,2.354,0,0,0-1.2-.6c-1.4-.3-2.493.429-2.865,2.247-.033.147-.055.35-.087.553a2.068,2.068,0,0,1,2.231-.711,2.1,2.1,0,0,1,1.782,2.518Zm-.678-.124a1.5,1.5,0,0,0-1.345-1.807,1.524,1.524,0,0,0-1.935,1.005c0,.034-.022.068-.022.09a1.572,1.572,0,0,0,1.421,1.807,1.431,1.431,0,0,0,1.837-.937.871.871,0,0,0,.044-.181h0Z" transform="translate(-278.375 -24.32)" fill="#fff"/>
          <path id="Path_903311" data-name="Path 903311" d="M336.371,90.24c-.23,1.129-1.192,1.818-2.766,1.468a3.442,3.442,0,0,1-2.165-1.366l.437-.474a2.91,2.91,0,0,0,1.848,1.22c1.072.237,1.793-.169,1.946-.982s-.273-1.457-1.487-1.728l-.459-.1.109-.508,2.274-1.942-3.324-.723.12-.632,4.177.915-.1.486-2.329,2c1.378.4,1.924,1.31,1.695,2.383Z" transform="translate(-277.633 -24.145)" fill="#fff"/>
          <path id="Path_903312" data-name="Path 903312" d="M342.366,91.373a2.07,2.07,0,0,1-2.646,1.581c-1.728-.373-2.416-1.818-1.979-3.93.47-2.281,1.913-3.207,3.674-2.846a2.976,2.976,0,0,1,1.465.7l-.383.5a2.354,2.354,0,0,0-1.2-.6c-1.4-.3-2.493.429-2.865,2.247a4.473,4.473,0,0,0-.087.553,2.1,2.1,0,0,1,2.22-.711,2.131,2.131,0,0,1,1.782,2.507Zm-.667-.136a1.5,1.5,0,0,0-1.334-1.8,1.523,1.523,0,0,0-1.946,1.005.367.367,0,0,1-.033.1,1.587,1.587,0,0,0,1.421,1.818,1.45,1.45,0,0,0,1.826-.982c.011-.034.022-.068.033-.113l.033-.023Z" transform="translate(-277.057 -23.934)" fill="#fff"/>
          <path id="Path_903313" data-name="Path 903313" d="M348.731,87.874l-.1.486-4,5.624-.722-.158,3.925-5.511-3.346-.734-.262,1.265-.656-.147.383-1.908,4.778,1.061Z" transform="translate(-276.501 -23.845)" fill="#fff"/>
          <path id="Path_903314" data-name="Path 903314" d="M357.22,89.666l-.1.486-3.991,5.635-.722-.158,3.925-5.511-3.346-.723-.252,1.265-.667-.147.383-1.863,4.767,1.028Z" transform="translate(-275.707 -23.605)" fill="#fff"/>
          <path id="Path_903315" data-name="Path 903315" d="M362.153,95.706c-.241,1.186-1.367,1.716-2.919,1.378s-2.362-1.287-2.11-2.473a1.675,1.675,0,0,1,1.585-1.4A1.537,1.537,0,0,1,358,91.517c.219-1.1,1.257-1.581,2.635-1.287s2.154,1.186,1.935,2.3a1.541,1.541,0,0,1-1.345,1.253,1.74,1.74,0,0,1,.929,1.931Zm-.678-.158c.164-.824-.415-1.5-1.564-1.75s-1.935.124-2.11.949.4,1.5,1.553,1.75,1.946-.113,2.11-.949h0Zm-1.465-2.292c1.017.215,1.717-.113,1.859-.847s-.394-1.355-1.345-1.57-1.706.113-1.848.858S359,93.041,360.01,93.256Z" transform="translate(-275.239 -23.412)" fill="#fff"/>
          <path id="Path_903316" data-name="Path 903316" d="M368.23,95.376c-.47,2.281-1.924,3.207-3.685,2.846a2.976,2.976,0,0,1-1.465-.7l.383-.5a2.445,2.445,0,0,0,1.2.6c1.4.3,2.493-.429,2.865-2.247.033-.147.055-.35.088-.553a2.087,2.087,0,0,1-2.231.711,2.059,2.059,0,0,1-1.771-2.5,2.092,2.092,0,0,1,2.646-1.581c1.728.35,2.405,1.8,1.979,3.918Zm-.656-1.524a1.587,1.587,0,0,0-1.421-1.818,1.463,1.463,0,0,0-1.848.949.969.969,0,0,0-.044.169,1.489,1.489,0,0,0,1.334,1.8,1.514,1.514,0,0,0,1.935-.994l.033-.1h0Z" transform="translate(-274.678 -23.25)" fill="#fff"/>
          <path id="Path_903317" data-name="Path 903317" d="M374.627,93.327l-1.367,6.719-.667-.147,1.257-6.109-1.531-.327.12-.632,2.2.5Z" transform="translate(-273.816 -23.065)" fill="#fff"/>
          <path id="Path_903318" data-name="Path 903318" d="M379.8,100.747l-.12.632-4.559-1.016.1-.486,3.258-2.146c.886-.587,1.115-1.005,1.214-1.468.164-.779-.273-1.366-1.268-1.581a2.179,2.179,0,0,0-1.924.361l-.383-.531a2.916,2.916,0,0,1,2.5-.452c1.312.282,2.012,1.163,1.782,2.281a2.835,2.835,0,0,1-1.5,1.875l-2.668,1.762,3.575.779Z" transform="translate(-273.554 -22.919)" fill="#fff"/>
          <path id="Path_903319" data-name="Path 903319" d="M385.4,100.593c-.23,1.118-1.2,1.807-2.766,1.468a3.458,3.458,0,0,1-2.165-1.378l.437-.474a2.91,2.91,0,0,0,1.848,1.22c1.072.237,1.793-.169,1.946-.982s-.273-1.457-1.487-1.728l-.459-.1.1-.519,2.274-1.931-3.324-.734.12-.632,4.177.9-.1.486-2.34,2.021c1.4.384,1.924,1.287,1.717,2.371Z" transform="translate(-273.054 -22.81)" fill="#fff"/>
          <path id="Path_905793" data-name="Path 905793" d="M.353.019,3.33,0,2.977,53.29,0,53.309Z" transform="translate(60.363 77.068) rotate(-78.07)" fill="#fff"/>
          <path id="Path_905794" data-name="Path 905794" d="M.181.019,3.158,0,2.977,27.329,0,27.348Z" transform="translate(84.578 88.248) rotate(-78.07)" fill="#fff"/>
          <g id="Group_1112576" data-name="Group 1112576" transform="translate(11.388 28.476)" opacity="0.5">
            <path id="Path_905795" data-name="Path 905795" d="M2.361.083,15.05,0a2.159,2.159,0,0,1,2.211,2.147L17.14,20.1a2.23,2.23,0,0,1-2.24,2.176l-12.689.083A2.159,2.159,0,0,1,0,20.208L.121,2.259A2.23,2.23,0,0,1,2.361.083Z" transform="translate(0 16.874) rotate(-77.84)" fill="#fafafa"/>
          </g>
          <path id="Path_903320" data-name="Path 903320" d="M294.5,67.525l.219-1.084,11.251,2.45a2.412,2.412,0,0,0,2.854-1.908,2.49,2.49,0,0,0-1.848-2.947l-11.251-2.462.219-1.084,11.251,2.45a3.6,3.6,0,0,1,2.569,4.336,3.479,3.479,0,0,1-4,2.688L294.511,67.5Z" transform="translate(-281.083 -27.244)" fill="#e0e0e0"/>
          <path id="Path_905796" data-name="Path 905796" d="M.053.007,1.158,0,1.105,7.905,0,7.913Z" transform="translate(28.128 40.444) rotate(-78.02)" fill="#e0e0e0"/>
          <path id="Path_905797" data-name="Path 905797" d="M.381.033,5.466,0,5.086,57.505,0,57.538Z" transform="matrix(0.207, -0.978, 0.978, 0.207, 20.158, 20.105)" fill="#fff"/>
          <path id="Path_905798" data-name="Path 905798" d="M1.488.058,10.566,0a1.379,1.379,0,0,1,1.412,1.371l-.058,8.814a1.423,1.423,0,0,1-1.43,1.389l-9.078.058A1.379,1.379,0,0,1,0,10.261L.058,1.447A1.423,1.423,0,0,1,1.488.058Z" transform="matrix(0.207, -0.978, 0.978, 0.207, 104.623, 41.714)" fill="#fff"/>
        </g>
        <g id="Group_1112579" data-name="Group 1112579" transform="translate(428.349 416.361)">
          <g id="Group_1112578" data-name="Group 1112578">
            <path id="Path_903321" data-name="Path 903321" d="M416.129,391.263c-10.1,18.206-32.61,24.494-50.277,14.032s-23.809-33.693-13.706-51.9,32.61-24.494,50.277-14.032S426.232,373.057,416.129,391.263Z" transform="translate(-347.28 -334.305)" fill="#f5f5f5"/>
            <path id="Path_903322" data-name="Path 903322" d="M406.34,384.3a27.593,27.593,0,0,1-38.313,10.7c-13.467-7.963-18.146-25.675-10.449-39.541a27.585,27.585,0,0,1,38.313-10.7c13.467,7.963,18.146,25.675,10.449,39.555Z" transform="translate(-345.109 -331.844)" fill="#ebebeb"/>
            <path id="Path_903323" data-name="Path 903323" d="M405.96,383.8c-.146-.082.359-1.249,1.037-3.4a31.822,31.822,0,0,0,1.476-9.377,30.824,30.824,0,0,0-.691-6.48,30.359,30.359,0,0,0-2.486-7,26.74,26.74,0,0,0-2.047-3.432,27.985,27.985,0,0,0-2.606-3.226,27.314,27.314,0,0,0-10.781-7.071,25.682,25.682,0,0,0-4.081-1.1,27.33,27.33,0,0,0-4.041-.439,24.33,24.33,0,0,0-3.9.165,27.576,27.576,0,0,0-7.006,1.771,28.077,28.077,0,0,0-5.6,3.034,30.6,30.6,0,0,0-6.713,6.508c-1.356,1.785-2.007,2.883-2.154,2.787-.106-.055.292-1.291,1.476-3.3a26.438,26.438,0,0,1,6.514-7.277,28.414,28.414,0,0,1,5.8-3.46,28.1,28.1,0,0,1,11.632-2.362,26.3,26.3,0,0,1,4.36.412,27.024,27.024,0,0,1,4.4,1.153,29.251,29.251,0,0,1,4.294,1.922,30.462,30.462,0,0,1,3.935,2.609,28.858,28.858,0,0,1,3.39,3.13,28.04,28.04,0,0,1,2.765,3.5,29.184,29.184,0,0,1,2.14,3.735,30.224,30.224,0,0,1,2.473,7.551,30.718,30.718,0,0,1,.465,6.906,27.858,27.858,0,0,1-2.207,9.652c-.944,2.128-1.7,3.158-1.821,3.1Z" transform="translate(-344.29 -332.13)" fill="#e0e0e0"/>
          </g>
          <path id="Path_903324" data-name="Path 903324" d="M373.709,383.6l-2.366,4.421-3.815-2.183,2.313-4.3c-3.656-2.4-6.634-5.7-7.83-8.608l4.679-3.611a18.123,18.123,0,0,0,5.916,7.043l3.536-6.59c-3.669-3.487-7.631-7.661-4.6-13.318,2.247-4.188,7.112-6.1,13.533-3.35l2.353-4.38,3.829,2.183-2.313,4.311a20.193,20.193,0,0,1,6.474,6.851l-4.52,3.762a18.152,18.152,0,0,0-4.746-5.4l-3.6,6.714c3.7,3.446,7.578,7.579,4.586,13.153-2.207,4.105-7.019,6-13.413,3.309Zm5.53-19.634,3-5.6c-2.273-.686-3.7,0-4.4,1.3-.745,1.387,0,2.787,1.4,4.3Zm1.476,13.277c.744-1.387.04-2.76-1.289-4.3L376.5,378.4C378.641,379.059,380.036,378.51,380.714,377.247Z" transform="translate(-342.429 -328.925)" fill="#e0e0e0"/>
        </g>
        <g id="Group_1112581" data-name="Group 1112581" transform="translate(523.493 261.403)">
          <g id="Group_1112580" data-name="Group 1112580">
            <path id="Path_903325" data-name="Path 903325" d="M489.922,265.988c-9.184,16.548-29.642,22.264-45.7,12.755s-21.642-30.626-12.458-47.174,29.642-22.264,45.7-12.755,21.642,30.626,12.458,47.174Z" transform="translate(-427.34 -214.215)" fill="#f5f5f5"/>
            <path id="Path_903326" data-name="Path 903326" d="M481.624,260.258A25.082,25.082,0,0,1,446.8,269.98c-12.241-7.238-16.494-23.338-9.5-35.942a25.084,25.084,0,0,1,34.826-9.722c12.241,7.238,16.494,23.338,9.5,35.955Z" transform="translate(-425.967 -212.578)" fill="#ebebeb"/>
            <path id="Path_903327" data-name="Path 903327" d="M481.5,259.735c-.133-.075.326-1.136.943-3.1a28.925,28.925,0,0,0,1.341-8.524,28.021,28.021,0,0,0-.628-5.891,27.6,27.6,0,0,0-2.26-6.365,24.3,24.3,0,0,0-1.861-3.12A25.049,25.049,0,0,0,473.8,227.2a28.191,28.191,0,0,0-3.323-2.2,26.574,26.574,0,0,0-3.613-1.622,23.334,23.334,0,0,0-3.71-1,24.838,24.838,0,0,0-3.673-.4,22.117,22.117,0,0,0-3.541.15,25.07,25.07,0,0,0-6.368,1.61,25.517,25.517,0,0,0-5.087,2.758,27.809,27.809,0,0,0-6.1,5.916c-1.233,1.622-1.825,2.621-1.958,2.533-.1-.05.266-1.173,1.341-2.983a24.032,24.032,0,0,1,5.921-6.614,25.829,25.829,0,0,1,5.269-3.145,25.542,25.542,0,0,1,10.573-2.147,23.9,23.9,0,0,1,3.964.374,24.566,24.566,0,0,1,4,1.048,26.583,26.583,0,0,1,3.9,1.747,27.69,27.69,0,0,1,3.577,2.371,26.239,26.239,0,0,1,3.081,2.845,25.491,25.491,0,0,1,2.513,3.182,26.533,26.533,0,0,1,1.945,3.395,27.47,27.47,0,0,1,2.247,6.864,27.912,27.912,0,0,1,.423,6.277,25.318,25.318,0,0,1-2.006,8.773c-.858,1.934-1.547,2.87-1.655,2.82Z" transform="translate(-425.451 -212.766)" fill="#e0e0e0"/>
          </g>
          <path id="Path_903328" data-name="Path 903328" d="M452.7,260.339l-2.151,4.019-3.468-1.984,2.1-3.906c-3.323-2.184-6.03-5.179-7.117-7.825l4.253-3.282a16.474,16.474,0,0,0,5.377,6.4l3.214-5.99c-3.335-3.17-6.936-6.964-4.181-12.106,2.042-3.806,6.465-5.541,12.3-3.045l2.139-3.981,3.48,1.984-2.1,3.919a18.354,18.354,0,0,1,5.885,6.228l-4.108,3.42a16.67,16.67,0,0,0-4.314-4.9l-3.275,6.1c3.359,3.132,6.888,6.889,4.169,11.956-2.006,3.732-6.38,5.454-12.193,3.008Zm5.027-17.846,2.731-5.092c-2.066-.624-3.359,0-4,1.186C455.785,239.847,456.462,241.12,457.731,242.493Zm1.341,12.068c.677-1.26.036-2.508-1.172-3.906l-2.658,4.955C457.187,256.208,458.456,255.709,459.072,254.561Z" transform="translate(-424.271 -210.638)" fill="#e0e0e0"/>
        </g>
        <g id="Group_1112583" data-name="Group 1112583" transform="translate(161.035 35.085)">
          <g id="Group_1112582" data-name="Group 1112582">
            <path id="Path_903329" data-name="Path 903329" d="M228.472,98.434c-11.845,21.363-38.26,28.736-58.985,16.462S141.557,75.368,153.415,54s38.26-28.736,58.985-16.462S240.33,77.07,228.472,98.434Z" transform="translate(-147.704 -31.606)" fill="#f5f5f5"/>
            <path id="Path_903330" data-name="Path 903330" d="M216.993,90.261c-9.026,16.27-29.153,21.9-44.96,12.549S150.75,72.687,159.777,56.417a32.365,32.365,0,0,1,44.96-12.549c15.793,9.35,21.283,30.123,12.257,46.393Z" transform="translate(-145.158 -28.719)" fill="#ebebeb"/>
            <path id="Path_903331" data-name="Path 903331" d="M216.552,89.674c-.173-.1.425-1.469,1.21-4a37.508,37.508,0,0,0,1.728-11.011,35.818,35.818,0,0,0-.811-7.606,34.657,34.657,0,0,0-2.925-8.21,30.484,30.484,0,0,0-2.406-4.023,31.1,31.1,0,0,0-3.058-3.776,30.666,30.666,0,0,0-3.709-3.378,36.144,36.144,0,0,0-4.294-2.828,35.357,35.357,0,0,0-4.666-2.1,32.122,32.122,0,0,0-4.786-1.291,31.481,31.481,0,0,0-9.319-.316,31.878,31.878,0,0,0-8.229,2.087,33.828,33.828,0,0,0-6.567,3.556,35.243,35.243,0,0,0-7.87,7.634c-1.6,2.1-2.353,3.378-2.526,3.281-.133-.069.332-1.51,1.728-3.858a31.23,31.23,0,0,1,7.631-8.54,33.922,33.922,0,0,1,6.806-4.064,32.866,32.866,0,0,1,8.734-2.471,30.3,30.3,0,0,1,4.905-.3,31.14,31.14,0,0,1,5.118.481,33.755,33.755,0,0,1,5.171,1.346,34.376,34.376,0,0,1,5.038,2.252,35.934,35.934,0,0,1,4.626,3.062,34.425,34.425,0,0,1,3.975,3.68A31.237,31.237,0,0,1,215.3,53.4a33.607,33.607,0,0,1,2.513,4.38,35.094,35.094,0,0,1,3.443,16.956,32.329,32.329,0,0,1-2.592,11.313c-1.1,2.5-2.007,3.707-2.127,3.638Z" transform="translate(-144.212 -29.052)" fill="#e0e0e0"/>
          </g>
          <path id="Path_903332" data-name="Path 903332" d="M178.7,89.444l-2.778,5.19-4.48-2.567,2.712-5.053c-4.294-2.815-7.777-6.686-9.173-10.091l5.49-4.242a21.273,21.273,0,0,0,6.939,8.265l4.148-7.73c-4.307-4.091-8.947-8.993-5.4-15.611,2.632-4.915,8.349-7.153,15.886-3.927L194.8,48.53l4.48,2.567-2.712,5.053a23.513,23.513,0,0,1,7.591,8.032L198.866,68.6a21.425,21.425,0,0,0-5.57-6.329l-4.227,7.881c4.334,4.05,8.88,8.9,5.384,15.432-2.579,4.819-8.229,7.03-15.74,3.885Zm6.5-23.038,3.523-6.577c-2.672-.81-4.334,0-5.158,1.524-.864,1.62,0,3.268,1.635,5.053Zm1.728,15.583c.864-1.62.04-3.24-1.515-5.039l-3.43,6.4c2.513.769,4.148.137,4.945-1.346Z" transform="translate(-142.013 -25.294)" fill="#e0e0e0"/>
        </g>
        <g id="Group_1112585" data-name="Group 1112585" transform="translate(0 146.341)">
          <g id="Group_1112584" data-name="Group 1112584">
            <path id="Path_903333" data-name="Path 903333" d="M105.832,204.464c-11.845,21.363-38.26,28.736-58.985,16.462S18.917,181.4,30.775,160.035,69.035,131.3,89.76,143.573s27.93,39.528,16.072,60.891Z" transform="translate(-25.064 -137.636)" fill="#f5f5f5"/>
            <path id="Path_903334" data-name="Path 903334" d="M94.353,196.3c-9.027,16.27-29.153,21.9-44.96,12.549S28.11,178.727,37.137,162.457A32.365,32.365,0,0,1,82.1,149.908C97.889,159.258,103.38,180.031,94.353,196.3Z" transform="translate(-22.518 -134.746)" fill="#ebebeb"/>
            <path id="Path_903335" data-name="Path 903335" d="M93.912,195.7c-.173-.1.425-1.469,1.21-4A37.507,37.507,0,0,0,96.85,180.7a35.818,35.818,0,0,0-.811-7.606,34.658,34.658,0,0,0-2.925-8.21,30.486,30.486,0,0,0-2.406-4.023,31.1,31.1,0,0,0-3.058-3.776,30.667,30.667,0,0,0-3.709-3.378,36.145,36.145,0,0,0-4.294-2.828,35.351,35.351,0,0,0-4.666-2.1,32.124,32.124,0,0,0-4.786-1.291,31.483,31.483,0,0,0-9.319-.316,31.877,31.877,0,0,0-8.229,2.087,33.827,33.827,0,0,0-6.567,3.556,35.242,35.242,0,0,0-7.87,7.634c-1.6,2.1-2.353,3.377-2.526,3.281-.133-.069.332-1.51,1.728-3.858a31.228,31.228,0,0,1,7.631-8.54,33.918,33.918,0,0,1,6.806-4.064,32.864,32.864,0,0,1,8.734-2.471,30.3,30.3,0,0,1,4.905-.3,31.141,31.141,0,0,1,5.118.481,33.76,33.76,0,0,1,5.171,1.345,34.376,34.376,0,0,1,5.038,2.252,35.938,35.938,0,0,1,4.626,3.062,34.43,34.43,0,0,1,3.975,3.68,31.238,31.238,0,0,1,3.244,4.119,33.6,33.6,0,0,1,2.513,4.38,35.094,35.094,0,0,1,3.443,16.956,32.328,32.328,0,0,1-2.592,11.313c-1.1,2.5-2.007,3.707-2.127,3.638Z" transform="translate(-21.572 -135.082)" fill="#e0e0e0"/>
          </g>
          <path id="Path_903336" data-name="Path 903336" d="M56.059,195.484l-2.778,5.19-4.48-2.567,2.712-5.053c-4.294-2.815-7.777-6.686-9.173-10.091l5.49-4.242a21.274,21.274,0,0,0,6.939,8.265l4.148-7.73c-4.307-4.091-8.947-8.993-5.4-15.611,2.632-4.915,8.349-7.153,15.873-3.927l2.752-5.149,4.48,2.567-2.712,5.053a23.512,23.512,0,0,1,7.591,8.032l-5.3,4.421a21.425,21.425,0,0,0-5.57-6.329L66.4,176.194c4.334,4.05,8.88,8.9,5.384,15.432-2.579,4.819-8.229,7.03-15.74,3.885Zm6.5-23.038,3.523-6.577c-2.672-.81-4.334,0-5.158,1.524C60.061,169.014,60.925,170.661,62.56,172.446Zm1.728,15.569c.864-1.62.04-3.24-1.515-5.039l-3.43,6.4c2.513.769,4.148.137,4.945-1.346Z" transform="translate(-19.373 -131.32)" fill="#e0e0e0"/>
        </g>
        <g id="Group_1112587" data-name="Group 1112587" transform="translate(11.722 436.078)">
          <g id="Group_1112586" data-name="Group 1112586">
            <path id="Path_903337" data-name="Path 903337" d="M91.747,396.533a30.436,30.436,0,0,1-42.261,11.794c-14.849-8.787-20.007-28.311-11.512-43.619a30.436,30.436,0,0,1,42.261-11.794C95.084,361.7,100.242,381.225,91.747,396.533Z" transform="translate(-33.882 -348.666)" fill="#f5f5f5"/>
            <path id="Path_903338" data-name="Path 903338" d="M83.524,390.677a23.2,23.2,0,0,1-32.2,8.993,24.8,24.8,0,0,1-8.774-33.24,23.2,23.2,0,0,1,32.2-8.993A24.8,24.8,0,0,1,83.524,390.677Z" transform="translate(-32.053 -346.6)" fill="#ebebeb"/>
            <path id="Path_903339" data-name="Path 903339" d="M83.21,390.247c-.133-.069.306-1.043.864-2.869A26.8,26.8,0,0,0,85.31,379.5a25.2,25.2,0,0,0-.585-5.451,24.62,24.62,0,0,0-2.1-5.876,23.74,23.74,0,0,0-1.715-2.883,21.751,21.751,0,0,0-2.193-2.7,22.85,22.85,0,0,0-2.659-2.416,26.758,26.758,0,0,0-3.071-2.032,24.91,24.91,0,0,0-3.337-1.5,22.735,22.735,0,0,0-6.833-1.291,21.615,21.615,0,0,0-3.284.137,22.979,22.979,0,0,0-5.889,1.5,23.467,23.467,0,0,0-4.706,2.554A25.489,25.489,0,0,0,43.3,365c-1.143,1.5-1.688,2.416-1.808,2.348a7.179,7.179,0,0,1,1.236-2.76,22.44,22.44,0,0,1,5.464-6.123,24.458,24.458,0,0,1,4.879-2.911,23.58,23.58,0,0,1,6.261-1.771,22.817,22.817,0,0,1,3.523-.22,24.147,24.147,0,0,1,3.669.343,24.582,24.582,0,0,1,3.709.961,27.232,27.232,0,0,1,3.616,1.606,26.434,26.434,0,0,1,3.31,2.2,24.125,24.125,0,0,1,2.845,2.636,22.928,22.928,0,0,1,2.326,2.952,23.885,23.885,0,0,1,1.795,3.13,25.083,25.083,0,0,1,2.459,12.151,22.916,22.916,0,0,1-1.861,8.1c-.8,1.785-1.436,2.664-1.529,2.609Z" transform="translate(-31.379 -346.842)" fill="#e0e0e0"/>
          </g>
          <path id="Path_903340" data-name="Path 903340" d="M56.1,390.093l-1.994,3.721-3.217-1.84,1.941-3.611a17.834,17.834,0,0,1-6.58-7.236l3.935-3.034a15.132,15.132,0,0,0,4.972,5.918l2.978-5.547c-3.084-2.938-6.408-6.439-3.869-11.19,1.888-3.515,5.982-5.121,11.38-2.815l1.981-3.68,3.217,1.84L68.9,366.231a16.975,16.975,0,0,1,5.437,5.753l-3.789,3.158a15.417,15.417,0,0,0-3.988-4.545l-3.031,5.643c3.1,2.9,6.368,6.371,3.855,11.052-1.848,3.446-5.889,5.039-11.273,2.787Zm4.666-16.5,2.526-4.709c-1.914-.577-3.111,0-3.7,1.1-.625,1.167,0,2.348,1.17,3.611ZM62,384.752c.625-1.167.027-2.32-1.09-3.611l-2.459,4.586c1.808.549,2.978.1,3.536-.961Z" transform="translate(-29.808 -344.148)" fill="#e0e0e0"/>
        </g>
      </g>
      <g id="Table" transform="translate(23.93 631.93)">
        <path id="Path_903341" data-name="Path 903341" d="M23.93,469.057c0-.192,133.962-.357,299.191-.357s299.217.165,299.217.357-133.935.357-299.217.357-299.191-.165-299.191-.357Z" transform="translate(-23.93 -468.7)" fill="#263238"/>
      </g>
      <g id="Coins" transform="translate(63.146 127.576)">
        <g id="Group_1112592" data-name="Group 1112592" transform="translate(0 152.734)">
          <path id="Path_905799" data-name="Path 905799" d="M52.759-.5C81.9-.784,105.293,22.01,105.014,50.407s-24.126,51.642-53.264,51.921S-.784,79.813-.5,51.416,23.621-.226,52.759-.5Z" transform="translate(0 100.403) rotate(-71.53)" fill="#69a7ff"/>
          <g id="Group_1112588" data-name="Group 1112588" transform="translate(13.627 22.272)" opacity="0.1">
            <path id="Path_903342" data-name="Path 903342" d="M87.449,228.82c-23.876,15.652-30.948,48.342-15.78,73v.014s31.267-18.508,30.815-35.944-15.049-37.07-15.049-37.07Z" transform="translate(-63.68 -228.82)" fill="#fff"/>
          </g>
          <path id="Path_905803" data-name="Path 905803" d="M38.859-.04C60.32-.062,77.7,17.887,77.678,40.05S60.24,80.2,38.779,80.221-.062,62.294-.04,40.131,17.4-.018,38.859-.04Z" transform="translate(22.065 23.761) rotate(-1.81)" fill="#69a7ff"/>
          <g id="Group_1112589" data-name="Group 1112589" transform="translate(22.065 21.225)" opacity="0.2">
            <path id="Path_905804" data-name="Path 905804" d="M38.859-.04C60.32-.062,77.7,17.887,77.678,40.05S60.24,80.2,38.779,80.221-.062,62.294-.04,40.131,17.4-.018,38.859-.04Z" transform="translate(0 2.536) rotate(-1.81)"/>
          </g>
          <path id="Path_903343" data-name="Path 903343" d="M145.022,251.069c11.393,18.494,6.1,43.029-11.818,54.8s-41.663,6.3-53.056-12.206-6.1-43.029,11.818-54.8a.041.041,0,0,0,.027-.014c17.907-11.739,41.636-6.274,53.029,12.219Z" transform="translate(-46.608 -205.114)" fill="#69a7ff"/>
          <g id="Group_1112590" data-name="Group 1112590" transform="translate(27.534 27.551)" opacity="0.2">
            <path id="Path_903344" data-name="Path 903344" d="M145.022,251.069c11.393,18.494,6.1,43.029-11.818,54.8s-41.663,6.3-53.056-12.206-6.1-43.029,11.818-54.8a.041.041,0,0,0,.027-.014c17.907-11.739,41.636-6.274,53.029,12.219Z" transform="translate(-74.141 -232.665)" fill="#fff"/>
          </g>
          <path id="Path_903345" data-name="Path 903345" d="M106.892,263.739l-5.264-8.567h0a20.2,20.2,0,0,1,5.158-1.7,17.019,17.019,0,0,1,2.9,0l-.066-.343-.612-3.927-.173-.892-2.459-.632-.518.783a18.143,18.143,0,0,0-7.072,2.142l-2.911-4.723-2.14-.247.718,1.181L92.508,248.1l2.938,4.805c-6.022,4.847-6.74,10.682-4.095,14.952,3.629,5.9,9.465,4.229,14.743,2.375l5.224,8.5a18.044,18.044,0,0,1-10.223,2.114l.784,5.506c3.323.522,8.069-.686,12.244-3.062l2.193,3.556-1.582,1.085,2.287.069,3.363-2.252-2.925-4.764c6.049-4.9,6.82-10.7,4.174-15.007-3.563-5.849-9.452-4.078-14.73-2.238Zm-3.908,1.332c-2.832.838-5.171,1.071-6.434-.975s-.824-4.229,1.795-6.563Zm11.685,11.341-4.626-7.524c2.911-.892,5.331-1.1,6.607.961,1.117,1.84.744,4.119-1.981,6.549h0Z" transform="translate(-41.419 -200.279)" fill="#69a7ff"/>
          <g id="Group_1112591" data-name="Group 1112591" transform="translate(48.473 45.351)" opacity="0.3">
            <path id="Path_903346" data-name="Path 903346" d="M106.892,263.739l-5.264-8.567h0a20.2,20.2,0,0,1,5.158-1.7,17.019,17.019,0,0,1,2.9,0l-.066-.343-.612-3.927-.173-.892-2.459-.632-.518.783a18.143,18.143,0,0,0-7.072,2.142l-2.911-4.723-2.14-.247.718,1.181L92.508,248.1l2.938,4.805c-6.022,4.847-6.74,10.682-4.095,14.952,3.629,5.9,9.465,4.229,14.743,2.375l5.224,8.5a18.044,18.044,0,0,1-10.223,2.114l.784,5.506c3.323.522,8.069-.686,12.244-3.062l2.193,3.556-1.582,1.085,2.287.069,3.363-2.252-2.925-4.764c6.049-4.9,6.82-10.7,4.174-15.007-3.563-5.849-9.452-4.078-14.73-2.238Zm-3.908,1.332c-2.832.838-5.171,1.071-6.434-.975s-.824-4.229,1.795-6.563Zm11.685,11.341-4.626-7.524c2.911-.892,5.331-1.1,6.607.961,1.117,1.84.744,4.119-1.981,6.549h0Z" transform="translate(-89.892 -245.63)"/>
          </g>
          <path id="Path_903347" data-name="Path 903347" d="M115.913,280.771l2.938,4.764-3.363,2.252-2.9-4.723c-4.188,2.416-8.933,3.583-12.257,3.089l-.784-5.506a18.272,18.272,0,0,0,10.223-2.114l-5.224-8.5c-5.278,1.84-11.114,3.515-14.73-2.389-2.672-4.339-1.967-10.105,4.081-14.938L90.96,247.9l3.363-2.252,2.9,4.723a20.486,20.486,0,0,1,9.93-2.883l.944,5.409a19.986,19.986,0,0,0-8.083,2.059l5.278,8.595c5.278-1.853,11.167-3.625,14.783,2.293,2.672,4.27,1.9,10.036-4.161,14.952ZM101.369,264.8l-4.653-7.579c-2.632,2.389-2.938,4.723-1.728,6.549s3.536,1.881,6.368,1.03h0Zm13.693,4.805c-1.289-2.087-3.7-1.881-6.607-.988l4.626,7.524c2.7-2.43,3.1-4.709,1.981-6.535Z" transform="translate(-41.932 -200.271)" fill="#69a7ff"/>
          <path id="Path_903348" data-name="Path 903348" d="M94.5,265.169a3.291,3.291,0,0,1-1.569-.357A6.131,6.131,0,0,1,90.05,262.2a6.322,6.322,0,0,1-.758-3.9,3.21,3.21,0,0,1,.452-1.634,11.273,11.273,0,0,0-.186,1.593,6.65,6.65,0,0,0,.838,3.666,6.479,6.479,0,0,0,2.685,2.54,12.568,12.568,0,0,0,1.436.7Z" transform="translate(-41.634 -196.161)" fill="#fff"/>
          <path id="Path_903349" data-name="Path 903349" d="M93.139,250.642c-.106.027-.545-.522-1.024-1.332s-.784-1.387-.691-1.5.532.522,1.024,1.332S93.232,250.587,93.139,250.642Z" transform="translate(-40.92 -199.469)" fill="#fff"/>
        </g>
        <g id="Group_1112597" data-name="Group 1112597" transform="translate(381.689 91.932)">
          <path id="Path_905800" data-name="Path 905800" d="M43.343-.648c23.938-.358,43.053,19,42.695,43.24S65.984,86.771,42.046,87.129s-43.053-19-42.695-43.24S19.405-.29,43.343-.648Z" transform="translate(0 49.039) rotate(-33.59)" fill="#8aafff"/>
          <g id="Group_1112593" data-name="Group 1112593" transform="translate(17.012 17.056)" opacity="0.1">
            <path id="Path_903350" data-name="Path 903350" d="M400.11,114.193c-23.464-3.323-45.093,13.634-48.31,37.866v.014s29.685,5.629,38.525-5.78,9.784-32.1,9.784-32.1Z" transform="translate(-351.8 -113.777)" fill="#fff"/>
          </g>
          <path id="Path_905801" data-name="Path 905801" d="M33.594-.131C52.147-.2,67.129,14.315,67.056,32.3S51.884,64.915,33.331,64.988-.2,50.542-.131,32.56,15.04-.059,33.594-.131Z" transform="translate(23.721 86.288) rotate(-82.87)" fill="#8aafff"/>
          <g id="Group_1112594" data-name="Group 1112594" transform="translate(23.721 19.587)" opacity="0.2">
            <path id="Path_905802" data-name="Path 905802" d="M33.594-.131C52.147-.2,67.129,14.315,67.056,32.3S51.884,64.915,33.331,64.988-.2,50.542-.131,32.56,15.04-.059,33.594-.131Z" transform="translate(0 66.701) rotate(-82.87)"/>
          </g>
          <path id="Path_903351" data-name="Path 903351" d="M424.047,160.18c-2.406,18.192-18.625,30.919-36.239,28.448s-29.938-19.235-27.545-37.427,18.625-30.919,36.239-28.448h.027c17.6,2.5,29.911,19.249,27.505,37.427Z" transform="translate(-332.098 -93.488)" fill="#8aafff"/>
          <g id="Group_1112595" data-name="Group 1112595" transform="translate(27.868 28.959)" opacity="0.2">
            <path id="Path_903352" data-name="Path 903352" d="M424.047,160.18c-2.406,18.192-18.625,30.919-36.239,28.448s-29.938-19.235-27.545-37.427,18.625-30.919,36.239-28.448h.027c17.6,2.5,29.911,19.249,27.505,37.427Z" transform="translate(-359.967 -122.447)" fill="#fff"/>
          </g>
          <path id="Path_903353" data-name="Path 903353" d="M389.159,149.837l1.117-8.416h0a16.881,16.881,0,0,1,4.188,1.785,14.017,14.017,0,0,1,1.848,1.62l.133-.261,1.662-2.856.359-.673-1.236-1.785-.744.22a15.515,15.515,0,0,0-5.65-2.581l.612-4.641-1.236-1.359-.159,1.153-1.914-.261-.638,4.723c-6.394-.275-9.9,3.075-10.436,7.277-.771,5.808,3.842,7.991,8.189,9.748l-1.117,8.348a15.475,15.475,0,0,1-7.644-4.352l-2.38,3.954c1.848,2.183,5.517,4.064,9.439,4.874l-.465,3.5-1.582-.192,1.436,1.318,3.337.439.625-4.682c6.434.233,9.957-3.034,10.529-7.263.784-5.739-3.908-7.881-8.242-9.652Zm-3.191-1.346c-2.247-1.043-3.869-2.2-3.6-4.215s1.688-3.158,4.586-3.2l-.97,7.414Zm1.529,13.785.984-7.387c2.326,1.057,3.988,2.265,3.709,4.311-.253,1.8-1.688,3.048-4.693,3.089h0Z" transform="translate(-327.439 -90.339)" fill="#8aafff"/>
          <g id="Group_1112596" data-name="Group 1112596" transform="translate(46.671 40.551)" opacity="0.3">
            <path id="Path_903354" data-name="Path 903354" d="M389.159,149.837l1.117-8.416h0a16.881,16.881,0,0,1,4.188,1.785,14.017,14.017,0,0,1,1.848,1.62l.133-.261,1.662-2.856.359-.673-1.236-1.785-.744.22a15.515,15.515,0,0,0-5.65-2.581l.612-4.641-1.236-1.359-.159,1.153-1.914-.261-.638,4.723c-6.394-.275-9.9,3.075-10.436,7.277-.771,5.808,3.842,7.991,8.189,9.748l-1.117,8.348a15.475,15.475,0,0,1-7.644-4.352l-2.38,3.954c1.848,2.183,5.517,4.064,9.439,4.874l-.465,3.5-1.582-.192,1.436,1.318,3.337.439.625-4.682c6.434.233,9.957-3.034,10.529-7.263.784-5.739-3.908-7.881-8.242-9.652Zm-3.191-1.346c-2.247-1.043-3.869-2.2-3.6-4.215s1.688-3.158,4.586-3.2l-.97,7.414Zm1.529,13.785.984-7.387c2.326,1.057,3.988,2.265,3.709,4.311-.253,1.8-1.688,3.048-4.693,3.089h0Z" transform="translate(-374.11 -130.89)"/>
          </g>
          <path id="Path_903355" data-name="Path 903355" d="M385.975,165.583l-.611,4.682-3.337-.439.625-4.641c-3.948-.8-7.591-2.691-9.452-4.874l2.38-3.954a15.59,15.59,0,0,0,7.644,4.352l1.117-8.348c-4.334-1.771-8.947-3.954-8.162-9.762.558-4.27,4.028-7.551,10.436-7.277l.638-4.723,3.337.439-.625,4.641a17.224,17.224,0,0,1,7.857,3.707l-2.22,3.982a17.011,17.011,0,0,0-6.248-3.2l-1.117,8.444c4.347,1.757,9.04,3.913,8.255,9.721-.532,4.229-4.041,7.483-10.489,7.236Zm-.931-18.329,1-7.441c-2.938.055-4.347,1.387-4.533,3.226s1.276,3.185,3.536,4.215h0Zm6.235,10.723c.266-2.059-1.383-3.268-3.709-4.311l-.984,7.387c3-.041,4.453-1.277,4.693-3.075Z" transform="translate(-327.739 -90.447)" fill="#8aafff"/>
          <path id="Path_903356" data-name="Path 903356" d="M377.518,144.337a2.73,2.73,0,0,1-.811-1.1,5.467,5.467,0,0,1-.479-3.281,5.263,5.263,0,0,1,1.555-2.911,2.573,2.573,0,0,1,1.143-.8,7.877,7.877,0,0,0-.944.906,5.59,5.59,0,0,0-1.383,2.815,5.8,5.8,0,0,0,.386,3.117c.266.824.585,1.222.545,1.263Z" transform="translate(-326.766 -88.34)" fill="#fff"/>
          <path id="Path_903357" data-name="Path 903357" d="M383.9,134.324a3.268,3.268,0,0,1,.04-1.428c.12-.783.226-1.318.332-1.345s.066.632-.04,1.428A3.4,3.4,0,0,1,383.9,134.324Z" transform="translate(-324.232 -90.093)" fill="#fff"/>
        </g>
      </g>
      <g id="Documents" transform="translate(449.465 537.758)">
        <g id="Group_1112600" data-name="Group 1112600" transform="translate(6.567 43.66)">
          <rect id="Rectangle_404605" data-name="Rectangle 404605" width="49.426" height="19.222" transform="translate(153.171 22.503) rotate(180)" fill="#ebebeb"/>
          <rect id="Rectangle_404606" data-name="Rectangle 404606" width="155.232" height="4.023" transform="translate(155.232 4.023) rotate(180)" fill="#455a64"/>
          <rect id="Rectangle_404607" data-name="Rectangle 404607" width="154.514" height="4.023" transform="translate(154.514 25.688) rotate(180)" fill="#455a64"/>
          <path id="Path_903358" data-name="Path 903358" d="M452.715,432.6l-.226,23.972H348.97V432.6Z" transform="translate(-348.97 -431.653)" fill="#455a64"/>
          <g id="Group_1112598" data-name="Group 1112598" transform="translate(77.716 6.082)">
            <path id="Path_903359" data-name="Path 903359" d="M408.09,442.929a5.608,5.608,0,1,0,5.6-5.959A5.779,5.779,0,0,0,408.09,442.929Z" transform="translate(-407.213 -436.105)" fill="#263238"/>
            <path id="Path_903360" data-name="Path 903360" d="M407.43,443.164a6.47,6.47,0,1,1,6.461,6.824A6.657,6.657,0,0,1,407.43,443.164Zm1.741,0a4.74,4.74,0,1,0,4.733-5.107A4.94,4.94,0,0,0,409.171,443.164Z" transform="translate(-407.43 -436.34)" fill="#e0e0e0"/>
          </g>
          <path id="Path_903361" data-name="Path 903361" d="M429.8,445c0,.247,10.156.439,22.679.439s22.679-.206,22.679-.439-10.156-.453-22.679-.453S429.8,444.756,429.8,445Z" transform="translate(-322.346 -427.196)" fill="#263238"/>
          <path id="Path_903362" data-name="Path 903362" d="M429.8,442.563c0,.247,10.156.439,22.679.439s22.679-.206,22.679-.439-10.156-.453-22.679-.453S429.8,442.316,429.8,442.563Z" transform="translate(-322.346 -428.106)" fill="#263238"/>
          <path id="Path_903363" data-name="Path 903363" d="M429.8,440.123c0,.247,10.156.453,22.679.453s22.679-.206,22.679-.453-10.156-.453-22.679-.453S429.8,439.876,429.8,440.123Z" transform="translate(-322.346 -429.016)" fill="#263238"/>
          <path id="Path_903364" data-name="Path 903364" d="M429.8,437.683c0,.247,10.156.453,22.679.453s22.679-.206,22.679-.453-10.156-.453-22.679-.453S429.8,437.436,429.8,437.683Z" transform="translate(-322.346 -429.926)" fill="#263238"/>
          <g id="Group_1112599" data-name="Group 1112599" transform="translate(11.473 6.055)">
            <rect id="Rectangle_404608" data-name="Rectangle 404608" width="46.648" height="12.824" transform="translate(46.648 12.824) rotate(180)" fill="#fff"/>
            <path id="Path_903365" data-name="Path 903365" d="M387.342,447.485c.253,0,.452-2.293.452-5.107s-.2-5.107-.452-5.107-.452,2.293-.452,5.107S387.089,447.485,387.342,447.485Z" transform="translate(-347.952 -435.966)" fill="#e0e0e0"/>
            <path id="Path_903366" data-name="Path 903366" d="M382.7,447.485c.253,0,.452-2.293.452-5.107s-.2-5.107-.452-5.107-.452,2.293-.452,5.107S382.449,447.485,382.7,447.485Z" transform="translate(-349.481 -435.966)" fill="#e0e0e0"/>
            <path id="Path_903367" data-name="Path 903367" d="M378.062,447.485c.253,0,.452-2.293.452-5.107s-.2-5.107-.452-5.107-.452,2.293-.452,5.107S377.809,447.485,378.062,447.485Z" transform="translate(-351.009 -435.966)" fill="#e0e0e0"/>
            <path id="Path_903368" data-name="Path 903368" d="M373.422,447.485c.253,0,.452-2.293.452-5.107s-.2-5.107-.452-5.107-.452,2.293-.452,5.107S373.169,447.485,373.422,447.485Z" transform="translate(-352.537 -435.966)" fill="#e0e0e0"/>
            <path id="Path_903369" data-name="Path 903369" d="M368.782,447.485c.253,0,.452-2.293.452-5.107s-.2-5.107-.452-5.107-.452,2.293-.452,5.107S368.529,447.485,368.782,447.485Z" transform="translate(-354.066 -435.966)" fill="#e0e0e0"/>
            <path id="Path_903370" data-name="Path 903370" d="M364.142,447.485c.253,0,.452-2.293.452-5.107s-.2-5.107-.452-5.107-.452,2.293-.452,5.107S363.889,447.485,364.142,447.485Z" transform="translate(-355.594 -435.966)" fill="#e0e0e0"/>
          </g>
          <path id="Path_903371" data-name="Path 903371" d="M426.592,457.495c.253,0,.452-5.7.452-12.727s-.2-12.727-.452-12.727-.452,5.7-.452,12.727S426.339,457.495,426.592,457.495Z" transform="translate(-323.552 -431.862)" fill="#263238"/>
        </g>
        <g id="Group_1112603" data-name="Group 1112603" transform="translate(0 68.635)">
          <rect id="Rectangle_404609" data-name="Rectangle 404609" width="49.426" height="19.222" transform="translate(153.171 22.517) rotate(180)" fill="#ebebeb"/>
          <rect id="Rectangle_404610" data-name="Rectangle 404610" width="155.232" height="4.023" transform="translate(155.232 4.023) rotate(180)" fill="#ff725e"/>
          <rect id="Rectangle_404611" data-name="Rectangle 404611" width="154.514" height="4.023" transform="translate(154.514 25.702) rotate(180)" fill="#ff725e"/>
          <path id="Path_903372" data-name="Path 903372" d="M447.775,450.8l-.239,23.972H344.03V450.8Z" transform="translate(-344.03 -449.839)" fill="#ff725e"/>
          <g id="Group_1112601" data-name="Group 1112601" transform="translate(77.716 6.096)">
            <path id="Path_903373" data-name="Path 903373" d="M403.15,461.129a5.608,5.608,0,1,0,5.6-5.959A5.779,5.779,0,0,0,403.15,461.129Z" transform="translate(-402.273 -454.305)" fill="#263238"/>
            <path id="Path_903374" data-name="Path 903374" d="M402.49,461.364a6.47,6.47,0,1,1,6.461,6.824A6.657,6.657,0,0,1,402.49,461.364Zm1.741,0a4.746,4.746,0,1,0,4.733-5.107A4.94,4.94,0,0,0,404.231,461.364Z" transform="translate(-402.49 -454.54)" fill="#e0e0e0"/>
          </g>
          <path id="Path_903375" data-name="Path 903375" d="M424.86,463.189c0,.247,10.157.453,22.679.453s22.679-.206,22.679-.453-10.156-.439-22.679-.439S424.86,462.956,424.86,463.189Z" transform="translate(-317.406 -445.382)" fill="#263238"/>
          <path id="Path_903376" data-name="Path 903376" d="M424.86,460.763c0,.247,10.157.453,22.679.453s22.679-.206,22.679-.453-10.156-.453-22.679-.453S424.86,460.516,424.86,460.763Z" transform="translate(-317.406 -446.292)" fill="#263238"/>
          <path id="Path_903377" data-name="Path 903377" d="M424.86,458.323c0,.247,10.157.453,22.679.453s22.679-.206,22.679-.453-10.156-.453-22.679-.453S424.86,458.076,424.86,458.323Z" transform="translate(-317.406 -447.202)" fill="#263238"/>
          <path id="Path_903378" data-name="Path 903378" d="M424.86,455.883c0,.247,10.157.453,22.679.453s22.679-.206,22.679-.453-10.156-.453-22.679-.453S424.86,455.636,424.86,455.883Z" transform="translate(-317.406 -448.112)" fill="#263238"/>
          <g id="Group_1112602" data-name="Group 1112602" transform="translate(11.473 6.069)">
            <rect id="Rectangle_404612" data-name="Rectangle 404612" width="46.648" height="12.824" transform="translate(46.648 12.824) rotate(180)" fill="#fff"/>
            <path id="Path_903379" data-name="Path 903379" d="M382.4,465.685c.253,0,.452-2.293.452-5.107s-.2-5.107-.452-5.107-.452,2.293-.452,5.107S382.149,465.685,382.4,465.685Z" transform="translate(-343.012 -454.166)" fill="#e0e0e0"/>
            <path id="Path_903380" data-name="Path 903380" d="M377.762,465.685c.253,0,.452-2.293.452-5.107s-.2-5.107-.452-5.107-.452,2.293-.452,5.107S377.509,465.685,377.762,465.685Z" transform="translate(-344.541 -454.166)" fill="#e0e0e0"/>
            <path id="Path_903381" data-name="Path 903381" d="M373.122,465.685c.253,0,.452-2.293.452-5.107s-.2-5.107-.452-5.107-.452,2.293-.452,5.107S372.869,465.685,373.122,465.685Z" transform="translate(-346.069 -454.166)" fill="#e0e0e0"/>
            <path id="Path_903382" data-name="Path 903382" d="M368.482,465.685c.253,0,.452-2.293.452-5.107s-.2-5.107-.452-5.107-.452,2.293-.452,5.107S368.229,465.685,368.482,465.685Z" transform="translate(-347.597 -454.166)" fill="#e0e0e0"/>
            <path id="Path_903383" data-name="Path 903383" d="M363.842,465.685c.253,0,.452-2.293.452-5.107s-.2-5.107-.452-5.107-.452,2.293-.452,5.107S363.589,465.685,363.842,465.685Z" transform="translate(-349.126 -454.166)" fill="#e0e0e0"/>
            <path id="Path_903384" data-name="Path 903384" d="M359.2,465.685c.253,0,.452-2.293.452-5.107s-.2-5.107-.452-5.107-.452,2.293-.452,5.107S358.949,465.685,359.2,465.685Z" transform="translate(-350.654 -454.166)" fill="#e0e0e0"/>
          </g>
          <path id="Path_903385" data-name="Path 903385" d="M421.652,475.695c.253,0,.452-5.7.452-12.727s-.2-12.727-.452-12.727-.452,5.7-.452,12.727S421.4,475.695,421.652,475.695Z" transform="translate(-318.612 -450.048)" fill="#263238"/>
        </g>
        <g id="Group_1112605" data-name="Group 1112605" transform="translate(1.21)">
          <path id="Path_903386" data-name="Path 903386" d="M355.562,406.371V400.11l132.672.275h7.657v6.069h-7.657v37.5H344.94V406.371Z" transform="translate(-344.94 -400.11)" fill="#ebebeb"/>
          <path id="Path_903387" data-name="Path 903387" d="M493.23,404.857c0,.192-31.387.316-70.1.261s-70.112-.261-70.112-.453,31.387-.316,70.112-.261S493.23,404.664,493.23,404.857Z" transform="translate(-342.279 -398.514)" fill="#263238"/>
          <path id="Path_903388" data-name="Path 903388" d="M488.231,410.962c0,.192-32.078.329-71.64.316s-71.64-.206-71.64-.412,32.078-.329,71.654-.316,71.64.206,71.64.412Z" transform="translate(-344.937 -396.216)" fill="#263238"/>
          <path id="Path_903389" data-name="Path 903389" d="M488.231,417.172c0,.192-32.078.33-71.64.316s-71.64-.206-71.64-.412,32.078-.329,71.654-.316,71.64.206,71.64.412Z" transform="translate(-344.937 -393.9)" fill="#263238"/>
          <path id="Path_903390" data-name="Path 903390" d="M488.231,423.392c0,.192-32.078.33-71.64.316s-71.64-.206-71.64-.412,32.078-.329,71.654-.316,71.64.206,71.64.412Z" transform="translate(-344.937 -391.58)" fill="#263238"/>
          <path id="Path_903391" data-name="Path 903391" d="M488.231,429.612c0,.192-32.078.33-71.64.316s-71.64-.206-71.64-.412,32.078-.329,71.654-.316,71.64.206,71.64.412Z" transform="translate(-344.937 -389.261)" fill="#263238"/>
          <g id="Group_1112604" data-name="Group 1112604" opacity="0.3">
            <path id="Path_903392" data-name="Path 903392" d="M388.092,443.949V400.11h-32.53v6.261H344.94v37.578Z" transform="translate(-344.94 -400.11)"/>
          </g>
        </g>
      </g>
      <g id="Screen_2" data-name="Screen 2" transform="translate(354.953 39.397)">
        <g id="Group_1112613" data-name="Group 1112613">
          <rect id="Rectangle_404613" data-name="Rectangle 404613" width="120.664" height="173.421" rx="5.62" transform="translate(173.704 0.223) rotate(90)" fill="#fff"/>
          <path id="Path_903393" data-name="Path 903393" d="M301.52,180.14H475.462v70.505a7.458,7.458,0,0,1-7.33,7.57H308.091a6.674,6.674,0,0,1-6.559-6.774v-71.3h0Z" transform="translate(-301.52 -137)" fill="#e0e0e0"/>
          <path id="Path_903394" data-name="Path 903394" d="M429.38,204.5h28.843v43.63a5.86,5.86,0,0,1-5.755,5.944H429.38V204.5h0Z" transform="translate(-284.53 -132.859)" fill="#ff725e"/>
          <rect id="Rectangle_404614" data-name="Rectangle 404614" width="86.11" height="21.482" transform="translate(32.196 99.745)" fill="#f5f5f5"/>
          <path id="Path_903395" data-name="Path 903395" d="M373.3,213.05V214l-3.806,8.787h-1.427l3.727-8.529h-4.3V216H366.2V213.05h7.114Z" transform="translate(-292.925 -131.405)" fill="#263238"/>
          <path id="Path_903396" data-name="Path 903396" d="M398.238,220.04c0,1.767-1.45,2.867-3.761,2.867s-3.727-1.1-3.727-2.867a2.41,2.41,0,0,1,1.654-2.352,2.2,2.2,0,0,1-1.314-2.094c0-1.626,1.359-2.644,3.4-2.644s3.421,1.018,3.421,2.644a2.206,2.206,0,0,1-1.337,2.094,2.416,2.416,0,0,1,1.665,2.352Zm-1.348-.035c0-1.076-.918-1.743-2.413-1.743s-2.379.667-2.379,1.743.884,1.778,2.379,1.778S396.89,221.105,396.89,220.005Zm-4.464-4.352c0,.959.77,1.556,2.062,1.556s2.1-.6,2.1-1.556-.838-1.568-2.1-1.568S392.427,214.682,392.427,215.653Z" transform="translate(-289.663 -131.422)" fill="#263238"/>
          <path id="Path_903397" data-name="Path 903397" d="M319.194,237.009c0,3.323-1.813,5.1-4.452,5.1a4.381,4.381,0,0,1-2.345-.573l.51-1.088a3.186,3.186,0,0,0,1.813.456c1.915,0,3.127-1.24,3.127-3.674v-.351a3.126,3.126,0,0,1-2.719,1.275,2.941,2.941,0,0,1-3.217-2.948,3.13,3.13,0,0,1,3.331-3.077c2.526,0,3.954,1.755,3.954,4.856Zm-1.654-1.849c0-1.006-.782-1.872-2.243-1.872a1.879,1.879,0,0,0-2.073,1.9c0,1.158.816,1.872,2.141,1.872a1.968,1.968,0,0,0,2.186-1.9Z" transform="translate(-300.139 -128.161)" fill="#263238"/>
          <path id="Path_903398" data-name="Path 903398" d="M398.407,197.886h-1.79v2.387h-1.3v-2.387H390.08v-.971l4.815-6.365h1.45l-4.622,6.143h3.625v-2.118h1.269v2.118h1.79v1.193Z" transform="translate(-289.752 -135.23)" fill="#263238"/>
          <path id="Path_903399" data-name="Path 903399" d="M319.054,218.241c0,1.685-1.155,3.03-3.569,3.03a5.26,5.26,0,0,1-3.455-1.182l.623-1.1a4.186,4.186,0,0,0,2.832,1.041c1.427,0,2.232-.679,2.232-1.743s-.668-1.778-2.855-1.778h-2.141l.5-5.09h5.313v1.205h-4.192l-.261,2.668h1.054c2.81,0,3.92,1.205,3.92,2.937Z" transform="translate(-300.123 -131.682)" fill="#263238"/>
          <path id="Path_903400" data-name="Path 903400" d="M346.7,218.18a3.1,3.1,0,0,1-3.342,3.077c-2.526,0-3.954-1.755-3.954-4.856,0-3.323,1.813-5.1,4.452-5.1a4.38,4.38,0,0,1,2.345.573l-.51,1.088a3.242,3.242,0,0,0-1.8-.456c-1.915,0-3.138,1.24-3.138,3.674,0,.105,0,.222.011.351a3.106,3.106,0,0,1,2.708-1.275A2.951,2.951,0,0,1,346.7,218.2Zm-1.3.047a1.9,1.9,0,0,0-2.152-1.872,1.954,1.954,0,0,0-2.164,1.9c0,1.006.782,1.872,2.232,1.872A1.889,1.889,0,0,0,345.393,218.227Z" transform="translate(-296.487 -131.702)" fill="#263238"/>
          <path id="Path_903401" data-name="Path 903401" d="M316.907,190.05v9.735H315.57v-8.529h-2.13V190.05H316.9Z" transform="translate(-299.936 -135.315)" fill="#263238"/>
          <path id="Path_903402" data-name="Path 903402" d="M347.12,199.137v1.205h-6.775v-.948l3.84-3.826c1-1.006,1.19-1.615,1.19-2.223,0-1.006-.691-1.615-2.005-1.615a2.949,2.949,0,0,0-2.413,1.053l-.918-.819a4.269,4.269,0,0,1,3.444-1.474c1.971,0,3.229,1.041,3.229,2.714a3.98,3.98,0,0,1-1.552,3.054l-2.878,2.867h4.837Z" transform="translate(-296.402 -135.241)" fill="#263238"/>
          <path id="Path_903403" data-name="Path 903403" d="M372.244,197.368c0,1.638-1.167,2.972-3.569,2.972a5.216,5.216,0,0,1-3.455-1.182l.623-1.1a4.2,4.2,0,0,0,2.844,1.041c1.416,0,2.22-.667,2.22-1.72s-.714-1.7-2.334-1.7h-.759v-.971l2.368-3.007h-4.543V190.5h6.22v.948l-2.47,3.147c1.881.175,2.844,1.275,2.844,2.785Z" transform="translate(-293.056 -135.239)" fill="#263238"/>
          <path id="Path_903404" data-name="Path 903404" d="M365.25,239.473c0-3.171,1.643-4.973,3.852-4.973s3.84,1.814,3.84,4.973-1.643,4.984-3.84,4.984S365.25,242.643,365.25,239.473Zm6.344,0c0-2.492-1.02-3.744-2.492-3.744s-2.5,1.252-2.5,3.744,1.02,3.744,2.5,3.744S371.594,241.965,371.594,239.473Z" transform="translate(-293.052 -127.758)" fill="#263238"/>
          <path id="Path_903405" data-name="Path 903405" d="M418.4,239.4a3.007,3.007,0,0,1,.227-1.006l.634-1.931h.85l-.5,2.071a.93.93,0,1,1-1.212.866Z" transform="translate(-285.989 -127.425)" fill="#263238"/>
          <g id="Group_1112606" data-name="Group 1112606" transform="translate(154.683 92.023)">
            <rect id="Rectangle_404615" data-name="Rectangle 404615" width="9.199" height="0.995" fill="#263238"/>
            <rect id="Rectangle_404616" data-name="Rectangle 404616" width="9.199" height="0.995" transform="translate(0 3.019)" fill="#263238"/>
          </g>
          <g id="Group_1112609" data-name="Group 1112609" transform="translate(156.552 56.267)">
            <g id="Group_1112607" data-name="Group 1112607" transform="translate(0 3.171)">
              <rect id="Rectangle_404617" data-name="Rectangle 404617" width="6.888" height="0.749" transform="translate(0.351 0.374)" fill="#263238"/>
              <path id="Path_903406" data-name="Path 903406" d="M447.3,195.556h-7.59V194.07h7.59Zm-6.877-.737h0Z" transform="translate(-439.71 -194.07)" fill="#263238"/>
            </g>
            <g id="Group_1112608" data-name="Group 1112608" transform="translate(3.081)">
              <rect id="Rectangle_404618" data-name="Rectangle 404618" width="7.114" height="0.725" transform="translate(0.363 7.476) rotate(-90)" fill="#263238"/>
              <path id="Path_903407" data-name="Path 903407" d="M443.857,199.2H442.43V191.36h1.427Zm-.725-.737h.011v-6.377Z" transform="translate(-442.43 -191.36)" fill="#263238"/>
            </g>
          </g>
          <path id="Path_903408" data-name="Path 903408" d="M421.768,215.861l-1.02-1.041-2.175,2.246L416.4,214.82l-1.008,1.041,2.175,2.246-2.175,2.258,1.008,1.041,2.175-2.246,2.175,2.246,1.02-1.041-2.175-2.258Z" transform="translate(-286.389 -131.104)" fill="#263238"/>
          <g id="Group_1112610" data-name="Group 1112610" transform="translate(128.899 59.438)">
            <rect id="Rectangle_404619" data-name="Rectangle 404619" width="6.888" height="0.749" transform="translate(0.351 0.374)" fill="#263238"/>
            <path id="Path_903409" data-name="Path 903409" d="M422.89,195.556H415.3V194.07h7.59ZM416,194.819h0Z" transform="translate(-415.3 -194.07)" fill="#263238"/>
          </g>
          <g id="Group_1112611" data-name="Group 1112611" transform="translate(105.46 14.966)">
            <path id="Path_903410" data-name="Path 903410" d="M400.218,156.17v18.252h-1.292V157.375H394.61v-1.193h5.608Z" transform="translate(-394.61 -156.041)" fill="#263238"/>
            <path id="Path_903411" data-name="Path 903411" d="M415.707,156.17v.936l-7.6,17.3h-1.416l7.522-17.047h-9.924v3.5H403.03V156.17H415.7Z" transform="translate(-393.491 -156.041)" fill="#263238"/>
            <path id="Path_903412" data-name="Path 903412" d="M427.726,169.281c0,3.019-2.118,5.265-6.185,5.265a8.381,8.381,0,0,1-6.231-2.445l.657-1.018a7.41,7.41,0,0,0,5.574,2.246c3.183,0,4.871-1.568,4.871-4.037s-1.62-4.037-5.143-4.037h-1.11V164.3l5.223-6.9h-9.414V156.2h11.08v.936l-5.3,7.008c4.01.105,5.982,2.188,5.982,5.16Z" transform="translate(-391.859 -156.036)" fill="#263238"/>
            <path id="Path_903413" data-name="Path 903413" d="M441.959,169.433c0,3.182-2.549,5.136-6.718,5.136s-6.661-1.954-6.661-5.136c0-2.293,1.359-3.884,3.761-4.54a4.145,4.145,0,0,1-3.127-4.118c0-2.913,2.368-4.715,6.027-4.715s6.084,1.8,6.084,4.715a4.159,4.159,0,0,1-3.183,4.118c2.424.655,3.806,2.27,3.806,4.54Zm-1.28,0c0-2.422-2.017-3.966-5.427-3.966s-5.381,1.533-5.381,3.966,1.971,3.99,5.381,3.99S440.679,171.89,440.679,169.433Zm-5.427-5.055c3,0,4.792-1.381,4.792-3.545s-1.869-3.627-4.792-3.627-4.747,1.381-4.747,3.592,1.745,3.569,4.747,3.569Z" transform="translate(-390.096 -156.06)" fill="#263238"/>
          </g>
          <g id="Group_1112612" data-name="Group 1112612" transform="translate(7.655 6.901)">
            <path id="Path_903414" data-name="Path 903414" d="M313.809,151.347a2.868,2.868,0,0,1-3.421,3.533,2.838,2.838,0,0,1-2.028-2.094,2.868,2.868,0,0,1,3.421-3.533A2.838,2.838,0,0,1,313.809,151.347Z" transform="translate(-308.277 -149.167)" fill="#e0e0e0"/>
            <path id="Path_903415" data-name="Path 903415" d="M322.159,151.347a2.819,2.819,0,1,1-2.028-2.094A2.865,2.865,0,0,1,322.159,151.347Z" transform="translate(-307.168 -149.167)" fill="#e0e0e0"/>
            <path id="Path_903416" data-name="Path 903416" d="M329.829,151.347a2.819,2.819,0,1,1-2.028-2.094A2.865,2.865,0,0,1,329.829,151.347Z" transform="translate(-306.148 -149.167)" fill="#e0e0e0"/>
          </g>
          <path id="Path_903417" data-name="Path 903417" d="M301.7,257.745s.011.129.034.4a5.83,5.83,0,0,0,.17,1.158,6.792,6.792,0,0,0,2.266,3.756,5.717,5.717,0,0,0,2.821,1.275,11.069,11.069,0,0,0,1.79.07h1.96c2.719,0,5.857-.012,9.38-.023,14.127-.023,34.553-.047,59.793-.082,25.252-.012,55.307-.035,88.682-.059a5.88,5.88,0,0,0,5.29-2.7,6.8,6.8,0,0,0,1.088-3.089c.079-1.1.023-2.3.034-3.463V150.243a6.556,6.556,0,0,0-3.591-5.967,5.923,5.923,0,0,0-1.665-.48,17.552,17.552,0,0,0-1.767-.047H422.531c-18.16,0-35.686,0-52.384-.012s-32.548-.012-47.4-.023H309.13a10,10,0,0,0-2.594.164,6.129,6.129,0,0,0-3.92,3.229,7.067,7.067,0,0,0-.7,2.6c-.045.9-.011,1.849-.023,2.761v16.041c-.034,27.566-.057,49.866-.079,65.287-.023,7.7-.034,13.689-.045,17.749,0,2.024-.023,3.569-.023,4.622s-.023,1.568-.023,1.568-.011-.538-.023-1.568c0-1.053-.011-2.6-.023-4.622,0-4.072-.023-10.05-.045-17.749-.023-15.421-.045-37.733-.079-65.287V152.466c0-.924-.023-1.837.023-2.8a7.24,7.24,0,0,1,.748-2.75,6.519,6.519,0,0,1,4.158-3.44,10.355,10.355,0,0,1,2.674-.175h13.617c14.841,0,30.7-.012,47.4-.023s34.213,0,52.384-.012H468c.6,0,1.189-.012,1.813.047a6.415,6.415,0,0,1,1.79.515,7.06,7.06,0,0,1,3.886,6.447v104.74c-.023,1.182.034,2.3-.045,3.51a7.336,7.336,0,0,1-1.178,3.311,6.281,6.281,0,0,1-5.642,2.89c-33.375-.023-63.441-.035-88.682-.059s-45.666-.059-59.793-.082c-3.523,0-6.661-.012-9.38-.023h-1.96a10.071,10.071,0,0,1-1.8-.082,5.79,5.79,0,0,1-2.855-1.322,6.84,6.84,0,0,1-2.254-3.826,7.615,7.615,0,0,1-.147-1.17v-.4Z" transform="translate(-301.517 -143.269)" fill="#263238"/>
          <path id="Path_903418" data-name="Path 903418" d="M329.975,258.339c-.159,0-.294-17.34-.294-38.739s.136-38.739.294-38.739.295,17.34.295,38.739S330.133,258.339,329.975,258.339Z" transform="translate(-297.778 -136.878)" fill="#263238"/>
          <path id="Path_903419" data-name="Path 903419" d="M355.855,236.623c-.159,0-.295-12.484-.295-27.882s.136-27.882.295-27.882.295,12.484.295,27.882S356.013,236.623,355.855,236.623Z" transform="translate(-294.339 -136.878)" fill="#263238"/>
          <path id="Path_903420" data-name="Path 903420" d="M381.585,236.623c-.159,0-.295-12.484-.295-27.882s.136-27.882.295-27.882.295,12.484.295,27.882S381.743,236.623,381.585,236.623Z" transform="translate(-290.92 -136.878)" fill="#263238"/>
          <path id="Path_903421" data-name="Path 903421" d="M405.985,258.292c-.159,0-.295-17.34-.295-38.716s.136-38.716.295-38.716.295,17.328.295,38.716S406.143,258.292,405.985,258.292Z" transform="translate(-287.678 -136.878)" fill="#263238"/>
          <path id="Path_903422" data-name="Path 903422" d="M429.415,258.292c-.159,0-.295-17.34-.295-38.716s.136-38.716.295-38.716.295,17.328.295,38.716S429.573,258.292,429.415,258.292Z" transform="translate(-284.565 -136.878)" fill="#263238"/>
          <path id="Path_903423" data-name="Path 903423" d="M302.08,204.944c0-.164,38.654-.3,86.337-.3s86.337.14,86.337.3-38.654.3-86.337.3S302.08,205.108,302.08,204.944Z" transform="translate(-301.446 -132.835)" fill="#263238"/>
          <path id="Path_903424" data-name="Path 903424" d="M302.08,228.764c0-.164,32.287-.3,72.108-.3s72.119.14,72.119.3-32.287.3-72.119.3S302.08,228.928,302.08,228.764Z" transform="translate(-301.446 -128.785)" fill="#263238"/>
        </g>
      </g>
      <g id="Screen1" transform="translate(92.242 52.326)">
        <g id="Group_1112623" data-name="Group 1112623">
          <g id="Group_1112614" data-name="Group 1112614">
            <rect id="Rectangle_404620" data-name="Rectangle 404620" width="179.366" height="116.831" rx="5.28" transform="translate(0.5 0.517)" fill="#fff"/>
            <path id="Path_903425" data-name="Path 903425" d="M240.7,189.164H71.895A5.889,5.889,0,0,1,66.11,183.2V77.274A5.891,5.891,0,0,1,71.895,71.3H240.7a5.891,5.891,0,0,1,5.785,5.974V183.2A5.882,5.882,0,0,1,240.7,189.164ZM71.895,72.334a4.871,4.871,0,0,0-4.784,4.941V183.2a4.862,4.862,0,0,0,4.784,4.93H240.7a4.868,4.868,0,0,0,4.784-4.93V77.274a4.871,4.871,0,0,0-4.784-4.941H71.895Z" transform="translate(-66.11 -71.3)" fill="#263238"/>
          </g>
          <g id="Group_1112621" data-name="Group 1112621" transform="translate(10.569 26.585)">
            <g id="Group_1112620" data-name="Group 1112620">
              <g id="Group_1112615" data-name="Group 1112615">
                <path id="Path_903426" data-name="Path 903426" d="M236.77,167.8H76.67V97.02h160.1Zm-159.74-.341H236.41V97.351H77.03Z" transform="translate(-76.67 -97.02)" fill="#ebebeb"/>
                <rect id="Rectangle_404621" data-name="Rectangle 404621" width="159.74" height="0.341" transform="translate(0.18 58.7)" fill="#ebebeb"/>
                <rect id="Rectangle_404622" data-name="Rectangle 404622" width="159.74" height="0.341" transform="translate(0.18 46.958)" fill="#ebebeb"/>
                <rect id="Rectangle_404623" data-name="Rectangle 404623" width="159.74" height="0.341" transform="translate(0.18 35.216)" fill="#ebebeb"/>
                <rect id="Rectangle_404624" data-name="Rectangle 404624" width="159.74" height="0.341" transform="translate(0.18 23.474)" fill="#ebebeb"/>
                <rect id="Rectangle_404625" data-name="Rectangle 404625" width="159.74" height="0.341" transform="translate(0.18 11.732)" fill="#ebebeb"/>
              </g>
              <g id="Group_1112616" data-name="Group 1112616" transform="translate(15.322 11.236)">
                <rect id="Rectangle_404626" data-name="Rectangle 404626" width="5.264" height="47.619" transform="translate(0 11.515)" fill="#ff725e"/>
                <rect id="Rectangle_404627" data-name="Rectangle 404627" width="6.505" height="59.134" transform="translate(8.327)" fill="#455a64"/>
              </g>
              <g id="Group_1112617" data-name="Group 1112617" transform="translate(52.152 29.024)">
                <rect id="Rectangle_404628" data-name="Rectangle 404628" width="5.264" height="13.509" transform="translate(0 27.825)" fill="#ff725e"/>
                <rect id="Rectangle_404629" data-name="Rectangle 404629" width="5.264" height="41.335" transform="translate(8.327)" fill="#455a64"/>
              </g>
              <g id="Group_1112618" data-name="Group 1112618" transform="translate(86.51 2.398)">
                <rect id="Rectangle_404630" data-name="Rectangle 404630" width="5.264" height="67.961" fill="#ff725e"/>
                <rect id="Rectangle_404631" data-name="Rectangle 404631" width="5.264" height="16.207" transform="translate(9.568 51.764)" fill="#455a64"/>
              </g>
              <g id="Group_1112619" data-name="Group 1112619" transform="translate(120.858 9.282)">
                <rect id="Rectangle_404632" data-name="Rectangle 404632" width="5.264" height="61.077" fill="#ff725e"/>
                <rect id="Rectangle_404633" data-name="Rectangle 404633" width="5.264" height="35.112" transform="translate(8.337 25.965)" fill="#455a64"/>
                <rect id="Rectangle_404634" data-name="Rectangle 404634" width="5.264" height="4.744" transform="translate(25.761 56.333)" fill="#ff725e"/>
              </g>
            </g>
            <rect id="Rectangle_404635" data-name="Rectangle 404635" width="12.37" height="2.243" rx="0.83" transform="translate(15.463 76.22)" fill="#e0e0e0"/>
            <rect id="Rectangle_404636" data-name="Rectangle 404636" width="12.37" height="2.243" rx="0.83" transform="translate(51.312 76.22)" fill="#e0e0e0"/>
            <rect id="Rectangle_404637" data-name="Rectangle 404637" width="12.37" height="2.243" rx="0.83" transform="translate(82.957 76.22)" fill="#e0e0e0"/>
            <rect id="Rectangle_404638" data-name="Rectangle 404638" width="12.37" height="2.243" rx="0.83" transform="translate(115.544 76.22)" fill="#e0e0e0"/>
            <rect id="Rectangle_404639" data-name="Rectangle 404639" width="12.37" height="2.243" rx="0.83" transform="translate(143.166 76.22)" fill="#e0e0e0"/>
          </g>
          <g id="Group_1112622" data-name="Group 1112622" transform="translate(10.569 10.925)">
            <path id="Path_903427" data-name="Path 903427" d="M81.574,84.4a2.453,2.453,0,1,1-2.452-2.532A2.5,2.5,0,0,1,81.574,84.4Z" transform="translate(-76.67 -81.87)" fill="#e0e0e0"/>
            <path id="Path_903428" data-name="Path 903428" d="M88.394,84.4a2.453,2.453,0,1,1-2.452-2.532A2.5,2.5,0,0,1,88.394,84.4Z" transform="translate(-76.664 -81.87)" fill="#e0e0e0"/>
            <path id="Path_903429" data-name="Path 903429" d="M95.224,84.4a2.453,2.453,0,1,1-2.452-2.532A2.5,2.5,0,0,1,95.224,84.4Z" transform="translate(-76.659 -81.87)" fill="#e0e0e0"/>
          </g>
        </g>
      </g>
      <g id="Character" transform="translate(86.239 207.588)">
        <path id="Path_903430" data-name="Path 903430" d="M128.382,325.525c-1.035,1.165,7.34,15.186,10.714,24.016s20.147,49.906,34.421,50.17,25.161-6.427,34.49-20.087S232.9,293.64,232.9,293.64l-25.417-26.25-29.3,85.443s-23.672-30.323-28.43-33.651-21.357,6.319-21.357,6.319Z" transform="translate(-14.831 -84.496)" fill="#ae7461"/>
        <g id="Group_1112642" data-name="Group 1112642">
          <path id="Path_903431" data-name="Path 903431" d="M353.431,430.525,347.01,381.16,213.481,385.04S201.86,456.7,202.453,486.5h77.182l.64-9.984,4.118.925s.954,4,2.047,9.059l74.867.144-7.875-56.129Z" transform="translate(-2.728 -61.584)" fill="#263238"/>
          <g id="Group_1112625" data-name="Group 1112625" transform="translate(173.866 128.7)">
            <path id="Path_903432" data-name="Path 903432" d="M219.119,332.261l-38.9-13.7s21.334-87.125,51.113-87.125Z" transform="translate(-180.22 -220.435)" fill="#3e7dad"/>
            <path id="Path_903433" data-name="Path 903433" d="M339.86,360.3l-4.618-130.447c-7.282-3.436-38.469-7.569-38.469-7.569l-40.574,5.9-33.792,5.983-9.062,89.095L209.53,446.483c43.424,16.555,96.41,10.981,143.01-1.261L339.872,360.3Z" transform="translate(-175.435 -222.28)" fill="#3e7dad"/>
            <g id="Group_1112624" data-name="Group 1112624" transform="translate(87.337 63.337)" opacity="0.3">
              <path id="Path_903434" data-name="Path 903434" d="M255.3,275.012s22.672,49.8,42.761,68.287,36.724,22.526,36.724,22.526l-2.408-16.159L255.3,275Z" transform="translate(-255.3 -275)"/>
            </g>
            <path id="Path_903435" data-name="Path 903435" d="M214.088,260.22c.163,0-.233,13.624-.884,30.407s-1.326,30.4-1.489,30.383.233-13.624.884-30.407S213.925,260.208,214.088,260.22Z" transform="translate(-175.084 -214.639)" fill="#263238"/>
            <path id="Path_903436" data-name="Path 903436" d="M310.77,226.69s35.944,3.316,40.725,42.025c2.21,17.9,6.3,46.157,6.3,46.157l-35.3,3.184-4.874-3.724c-2.71-8.362-7.41-25.59-6.747-26.2.9-.829-.1-61.427-.1-61.427Z" transform="translate(-158.908 -221.392)" fill="#3e7dad"/>
            <path id="Path_903437" data-name="Path 903437" d="M244.23,372.209s.535-.493,1.57-1.273,2.548-1.9,4.444-3.232c3.792-2.667,9.143-6.211,15.227-9.8s11.76-6.548,15.913-8.566c2.082-1.009,3.769-1.8,4.955-2.319a11.2,11.2,0,0,1,1.861-.745,13.932,13.932,0,0,1-1.757.973c-1.245.637-2.885,1.478-4.862,2.487-4.106,2.114-9.725,5.13-15.8,8.71s-11.446,7.052-15.285,9.623c-1.861,1.249-3.385,2.283-4.548,3.064a12.49,12.49,0,0,1-1.7,1.069Z" transform="translate(-169.77 -197.311)" fill="#263238"/>
            <path id="Path_903438" data-name="Path 903438" d="M261.57,363.358a13.749,13.749,0,0,1,2.71-1.814,52.66,52.66,0,0,1,14.552-5.707,14.1,14.1,0,0,1,3.2-.5,23.113,23.113,0,0,1-3.094.937c-1.919.541-4.537,1.358-7.363,2.463s-5.316,2.295-7.1,3.208a23.124,23.124,0,0,1-2.908,1.43Z" transform="translate(-166.94 -195.488)" fill="#263238"/>
            <path id="Path_903439" data-name="Path 903439" d="M314.995,307.3c-.163,0,.291-11.726,1.035-26.178s1.477-26.154,1.64-26.142-.291,11.726-1.035,26.178S315.157,307.313,314.995,307.3Z" transform="translate(-158.224 -215.695)" fill="#263238"/>
          </g>
          <g id="Group_1112627" data-name="Group 1112627" transform="translate(200.417)">
            <g id="Group_1112626" data-name="Group 1112626">
              <path id="Path_903440" data-name="Path 903440" d="M219.708,168.372a10.4,10.4,0,0,1-12.354-3.844,6.651,6.651,0,0,1-1.233-4.061,3.7,3.7,0,0,1,2.338-3.292,8.607,8.607,0,0,1-4.874-4.613,7.042,7.042,0,0,1,.663-6.668,5.371,5.371,0,0,1,6.049-1.982,6.918,6.918,0,0,1,2.105-6.836l10.225-.216L219.7,168.372Z" transform="translate(-203.045 -110.783)" fill="#263238"/>
              <path id="Path_903441" data-name="Path 903441" d="M252.429,249.02l-1.78-7.16s-21.055,1.85-26.255-19.03c-2.513-10.092-6.037-31.3-9.015-50.518-3.2-20.676,9.5-40.427,29.2-45.376l1.954-.493c21.4-4.037,36.689,12.47,40,34.684L297.5,242.5l-32.292,25.073L252.428,249.02Z" transform="translate(-201.112 -113.004)" fill="#ae7461"/>
              <path id="Path_903442" data-name="Path 903442" d="M245.63,224.5a56.456,56.456,0,0,0,25.08-12.47s-3.071,14.585-23.754,17.793l-1.326-5.334Z" transform="translate(-196.093 -95.644)" fill="#6f4439"/>
              <path id="Path_903443" data-name="Path 903443" d="M224.378,182.117a2.976,2.976,0,0,0,3.5,2.319,2.937,2.937,0,0,0,2.35-3.448,2.976,2.976,0,0,0-3.5-2.319A2.934,2.934,0,0,0,224.378,182.117Z" transform="translate(-199.572 -102.374)" fill="#263238"/>
              <path id="Path_903444" data-name="Path 903444" d="M221.143,172.935c.454.3,2.245-1.934,5.374-2.7,3.106-.817,5.781.264,6.026-.216.128-.216-.407-.829-1.582-1.322a7.933,7.933,0,0,0-4.944-.312,7.779,7.779,0,0,0-4.153,2.643c-.779,1-.942,1.79-.721,1.922Z" transform="translate(-200.106 -104.485)" fill="#263238"/>
              <path id="Path_903445" data-name="Path 903445" d="M247.2,177a2.976,2.976,0,0,0,3.5,2.319,2.937,2.937,0,0,0,2.35-3.448,2.976,2.976,0,0,0-3.5-2.319A2.934,2.934,0,0,0,247.2,177Z" transform="translate(-195.847 -103.405)" fill="#263238"/>
              <path id="Path_903446" data-name="Path 903446" d="M247.614,167.015c.454.3,2.257-1.934,5.374-2.7,3.106-.817,5.781.264,6.026-.216.128-.216-.407-.829-1.582-1.322a7.994,7.994,0,0,0-9.108,2.331c-.779,1-.931,1.79-.721,1.922Z" transform="translate(-195.785 -105.677)" fill="#263238"/>
              <path id="Path_903447" data-name="Path 903447" d="M243.925,193.005c-.023-.192-2.047-.048-5.281.336-.814.12-1.605.144-1.873-.384a4.428,4.428,0,0,1-.047-2.571q.419-3.262.872-6.848c1.163-9.731,1.8-17.66,1.419-17.708s-1.629,7.809-2.792,17.54c-.268,2.391-.523,4.685-.768,6.86a5.027,5.027,0,0,0,.349,3.328,2.026,2.026,0,0,0,1.594.877,5.328,5.328,0,0,0,1.4-.144c3.2-.625,5.165-1.093,5.13-1.286Z" transform="translate(-197.774 -104.949)" fill="#263238"/>
              <path id="Path_903448" data-name="Path 903448" d="M245.235,163.25c.675.661,3.362-1.177,6.945-2.475,3.548-1.37,6.758-1.73,6.863-2.679.035-.445-.8-.973-2.28-1.189a11.874,11.874,0,0,0-5.7.709,12.132,12.132,0,0,0-4.816,3.22c-.989,1.141-1.314,2.1-1.012,2.415Z" transform="translate(-196.176 -106.765)" fill="#263238"/>
              <path id="Path_903449" data-name="Path 903449" d="M220.254,164.959c.721.589,2.687-.709,5.258-1.394,2.548-.781,4.886-.709,5.211-1.6.128-.432-.384-1.069-1.5-1.526a7.241,7.241,0,0,0-4.572-.12,7.45,7.45,0,0,0-3.862,2.535c-.733.985-.861,1.814-.535,2.1Z" transform="translate(-200.264 -106.12)" fill="#263238"/>
              <path id="Path_903450" data-name="Path 903450" d="M215.156,162.678s2.257-14.465,7.654-19.066c6.537-5.574,11.714,2.03,18.3-1.79s12.819-9.155,21.381-5.334c9.364,4.181,6.677,9.455,9.364,18.622,10.876,37.183,20.054,46.169,17.763,27.932-.256-1.994,4.606-4.854,3.443-13.275-1.512-10.909-4.164-23.944-8.259-30.924-3.443-5.887-8-9.407-15.46-12.663-11.772-5.154-25.487-1.874-34.548,1.43s-24.37,18.85-19.647,35.069Z" transform="translate(-201.215 -113.474)" fill="#263238"/>
              <path id="Path_903451" data-name="Path 903451" d="M277.836,174.041a5.845,5.845,0,0,1,4.653-6.98c3.874-.577,8.608.577,10.26,8.71,2.943,14.429-11.7,14.5-11.807,14.092-.07-.276-1.931-9.779-3.106-15.834Z" transform="translate(-190.854 -104.726)" fill="#ae7461"/>
              <path id="Path_903452" data-name="Path 903452" d="M282.305,182.979a4.924,4.924,0,0,0,.733.228,2.378,2.378,0,0,0,1.826-.36c1.361-.877,2.117-3.568,1.652-6.187a8.6,8.6,0,0,0-1.419-3.448,2.883,2.883,0,0,0-2.222-1.538,1.26,1.26,0,0,0-1.291,1c-.1.444.047.709-.023.757-.035.048-.349-.18-.361-.793a1.685,1.685,0,0,1,.361-1.021,1.865,1.865,0,0,1,1.268-.661,3.5,3.5,0,0,1,3,1.682,8.752,8.752,0,0,1,1.663,3.844c.5,2.931-.384,5.959-2.28,7a2.611,2.611,0,0,1-2.3.108c-.5-.264-.64-.565-.6-.6Z" transform="translate(-190.287 -103.921)" fill="#6f4439"/>
              <path id="Path_903453" data-name="Path 903453" d="M230.867,149.93s-.058.024-.093.036a1.958,1.958,0,0,0-.244.084l.337-.12Z" transform="translate(-198.558 -108.151)" fill="#3e7dad"/>
              <path id="Path_903454" data-name="Path 903454" d="M203.932,138.336a12.271,12.271,0,0,1,6.537-9.2,22.086,22.086,0,0,1,11.179-2.235c-1.454-5.154,3.269-10.38,8.387-11.329s10.248,1.081,15.064,3.076c5.351-5.286,15.145-4.445,19.577,1.682a12.245,12.245,0,0,1,12.086-2.427,12.837,12.837,0,0,1,8.073,9.6,9.7,9.7,0,0,1,8.527,5.034,10.359,10.359,0,0,1-.3,10.14,7.019,7.019,0,0,1-.593,13.227l-12.016-7.028c-5.316,2.235-12.168-1.261-13.657-6.992a11.676,11.676,0,0,1-13.11-.192,9.105,9.105,0,0,1-4.734,6.836,8.564,8.564,0,0,1-8.131-.276,10.828,10.828,0,0,1-4.781,10.164,10.119,10.119,0,0,1-10.946-.228,9.409,9.409,0,0,1-12.54,1.994,10.142,10.142,0,0,1-2.78-12.783c-3.746-.853-6.2-5.118-5.816-9.058Z" transform="translate(-202.903 -115.154)" fill="#263238"/>
              <path id="Path_903455" data-name="Path 903455" d="M258.98,140.909a3.191,3.191,0,0,0,.512,1.129,7.121,7.121,0,0,0,7.584,2.931,7.727,7.727,0,0,0,4.979-4.121l-.814.156a8.648,8.648,0,0,0,14.575-4.073,9.062,9.062,0,0,0,.093-4.349,3.227,3.227,0,0,0-.6-1.454c-.209.024.838,2.223-.186,5.586a8.414,8.414,0,0,1-3.478,4.613,8.1,8.1,0,0,1-6.782.685,7.94,7.94,0,0,1-2.908-1.766l-.512-.493-.3.649a6.9,6.9,0,0,1-4.292,3.688,6.358,6.358,0,0,1-4.537-.372,10.417,10.417,0,0,1-3.327-2.8Z" transform="translate(-193.914 -111.937)" fill="#455a64"/>
            </g>
            <path id="Path_903456" data-name="Path 903456" d="M253.122,193.511a13.094,13.094,0,0,0-3.4,1.358c-1.71,1.117-2.42,2.739-2.582,2.655-.07-.024,0-.481.349-1.117a6.012,6.012,0,0,1,1.9-2.054,5.712,5.712,0,0,1,2.594-.949c.71-.06,1.14.048,1.14.132Z" transform="translate(-195.85 -99.399)" fill="#263238"/>
          </g>
          <g id="Group_1112632" data-name="Group 1112632" transform="translate(178.223 85.279)">
            <g id="Group_1112630" data-name="Group 1112630">
              <path id="Path_903457" data-name="Path 903457" d="M246,275.1l-2.664,3.592c-1.884,1.105-3.513.252-4.42-2.2L217,234.474l6.5-3.484,24.7,40.631A3.852,3.852,0,0,1,246,275.1Z" transform="translate(-178.574 -177.105)" fill="#455a64"/>
              <g id="Group_1112628" data-name="Group 1112628">
                <path id="Path_903458" data-name="Path 903458" d="M196.231,240.28a28.914,28.914,0,0,1-10.562-14.1,29.809,29.809,0,0,1,.989-22.31,28.441,28.441,0,0,1,15.971-15.053c14.645-5.478,30.873,2.379,36.177,17.5h0a29.809,29.809,0,0,1-.989,22.31,28.441,28.441,0,0,1-15.971,15.053A27.524,27.524,0,0,1,196.231,240.28Zm30.931-46.458a25.654,25.654,0,0,0-23.9-3.172,26.534,26.534,0,0,0-14.9,14.044,27.831,27.831,0,0,0-.919,20.808,26.757,26.757,0,0,0,13.6,15.39,25.4,25.4,0,0,0,20.147.949,26.534,26.534,0,0,0,14.9-14.044A27.831,27.831,0,0,0,237,206.989a26.924,26.924,0,0,0-9.853-13.155Z" transform="translate(-183.966 -185.951)" fill="#263238"/>
                <path id="Path_903459" data-name="Path 903459" d="M197.351,239.35a28.914,28.914,0,0,1-10.562-14.1,29.809,29.809,0,0,1,.989-22.31,28.441,28.441,0,0,1,15.971-15.053c14.645-5.478,30.873,2.379,36.177,17.5h0a29.809,29.809,0,0,1-.989,22.31,28.438,28.438,0,0,1-15.971,15.053,27.524,27.524,0,0,1-25.615-3.4Zm30.931-46.458a25.654,25.654,0,0,0-23.9-3.172,26.534,26.534,0,0,0-14.9,14.044,27.831,27.831,0,0,0-.919,20.808,26.757,26.757,0,0,0,13.6,15.39,25.4,25.4,0,0,0,20.147.949,26.534,26.534,0,0,0,14.9-14.044,27.831,27.831,0,0,0,.919-20.808A26.924,26.924,0,0,0,228.27,192.9Z" transform="translate(-183.783 -186.138)" fill="#455a64"/>
              </g>
              <path id="Path_903460" data-name="Path 903460" d="M202.515,230.705c.023-.072,1.268.541,3.408,1.045q.4.09.838.18c.291.06.6.084.919.144.64.108,1.326.144,2.047.192a22.944,22.944,0,0,0,4.688-.336,23.377,23.377,0,0,0,4.513-1.358c.663-.3,1.3-.577,1.861-.9.279-.156.57-.3.814-.457s.5-.324.733-.469c1.838-1.237,2.8-2.247,2.85-2.187a5.762,5.762,0,0,1-.675.7,6.69,6.69,0,0,1-.861.757,14.7,14.7,0,0,1-1.2.913c-.233.156-.477.324-.733.493s-.535.312-.826.481a19.839,19.839,0,0,1-1.873.949,23.138,23.138,0,0,1-4.572,1.406,21.943,21.943,0,0,1-4.758.312c-.733-.06-1.431-.1-2.071-.216-.326-.06-.64-.1-.931-.156s-.582-.144-.849-.2a12.375,12.375,0,0,1-1.431-.433,9.266,9.266,0,0,1-1.059-.408,5.127,5.127,0,0,1-.872-.421Z" transform="translate(-180.944 -177.998)" fill="#fff"/>
              <g id="Group_1112629" data-name="Group 1112629" transform="translate(36.484 54.464)">
                <path id="Path_903461" data-name="Path 903461" d="M286.2,278.119c-6.747-6.68-38.7-39.778-39.481-40.247-.977-.589-16.146-7.749-19.31-6.175s-12.075,11.269-12.075,11.269.209,6.548,7.619,2.547c5.653-3.052,6.526-3.532,6.631-3.58h0l7.305,2.475s-9.422,3.1-11.528,4.986-5.8,9.515-4.06,11.5a7.278,7.278,0,0,0,3.932,2.343s-4.223,5.166,2.152,9.095c0,0,.582,4.721,3.711,6.824s9.306,2.018,9.306,2.018a3.02,3.02,0,0,0,1.117-4.541c-1.861-3.064-5.723-3.808-5.723-3.808l5.072-2.463a22.246,22.246,0,0,1,5.909,4.325s10.155,11.281,14.831,8.4l6.607,8.121c5.037-3.172,18-13.083,18-13.083Z" transform="translate(-215.33 -231.472)" fill="#ae7461"/>
                <path id="Path_903462" data-name="Path 903462" d="M238.037,256.054a4.847,4.847,0,0,0-.721-.024,10.961,10.961,0,0,0-1.943.288,12.564,12.564,0,0,0-5.712,3.088,13.286,13.286,0,0,0-3.49,5.586,11.684,11.684,0,0,0-.454,1.97,2.775,2.775,0,0,0-.047.745c.07,0,.174-1.045.733-2.631a13.862,13.862,0,0,1,3.49-5.406,13.283,13.283,0,0,1,5.525-3.1c1.582-.432,2.606-.445,2.606-.517Z" transform="translate(-213.644 -226.527)" fill="#6f4439"/>
                <path id="Path_903463" data-name="Path 903463" d="M239.381,249.1s-.279-.024-.768-.012a6.768,6.768,0,0,0-.9.072c-.349.048-.756.084-1.187.18a17.105,17.105,0,0,0-3,.865,20.052,20.052,0,0,0-3.408,1.766,20.811,20.811,0,0,0-2.99,2.463,18.565,18.565,0,0,0-2.024,2.451c-.268.36-.465.733-.651,1.033s-.326.589-.442.817a3.335,3.335,0,0,0-.314.733c.058.036.547-.985,1.605-2.427a19.563,19.563,0,0,1,5-4.758,24.449,24.449,0,0,1,3.49-2.006,15.1,15.1,0,0,1,2.78-.685c1.71-.384,2.8-.421,2.8-.493Z" transform="translate(-213.964 -227.925)" fill="#6f4439"/>
                <path id="Path_903464" data-name="Path 903464" d="M239.932,241.264a2.664,2.664,0,0,0-.989-.324,5.451,5.451,0,0,0-2.513.228,4.7,4.7,0,0,0-2.164,1.334c-.465.469-.651.841-.617.865a8.845,8.845,0,0,1,2.885-1.85,8.322,8.322,0,0,1,3.4-.252Z" transform="translate(-212.34 -229.577)" fill="#6f4439"/>
              </g>
            </g>
            <g id="Group_1112631" data-name="Group 1112631" transform="translate(16.112 15.354)" opacity="0.1">
              <path id="Path_903465" data-name="Path 903465" d="M230.857,201.563c-.582-1.141-1.384-2.343-2.606-2.6a3.185,3.185,0,0,0-3.222,1.79,10,10,0,0,0-.942,3.893,40.161,40.161,0,0,1-1.966,10.056,13.351,13.351,0,0,1-6.386,7.557c-2.443,1.141-5.223,1.2-7.91,1.322s-5.491.384-7.77,1.862a.242.242,0,0,0-.07.048,5.064,5.064,0,0,0,.721,8.722,23.3,23.3,0,0,0,24.8-3.52c7.817-6.968,10.155-19.679,5.351-29.122Z" transform="translate(-197.817 -198.918)"/>
            </g>
            <path id="Path_903466" data-name="Path 903466" d="M364.459,307.379l-33.048,2.871h0c-7.619-5.2-60.745-47.743-62.292-48.861L255.3,277.753c28.988,36.294,49.3,62.8,73.7,81.418,12.063,9.2,31.71,4.229,36.794-12.555,2.489-8.217-1.338-39.237-1.338-39.237Z" transform="translate(-172.321 -170.983)" fill="#ae7461"/>
          </g>
          <g id="Group_1112633" data-name="Group 1112633" transform="translate(203.4 412.299)" opacity="0.3">
            <path id="Path_903467" data-name="Path 903467" d="M205.61,471.543s11.877,1.706,12.726,1.982c.279.084,32.2.084,32.2.084l-.838-15.27-36.293.829-7.794,12.374Z" transform="translate(-205.61 -458.34)"/>
          </g>
          <g id="Group_1112634" data-name="Group 1112634" transform="translate(204.238 398.808)" opacity="0.3">
            <path id="Path_903468" data-name="Path 903468" d="M206.33,459.725s12.051,2.571,12.726,1.982S249.58,460.6,249.58,460.6l-.838-12.254L212.4,447.11l-6.072,12.615Z" transform="translate(-206.33 -447.11)"/>
          </g>
          <g id="Group_1112635" data-name="Group 1112635" transform="translate(204.238 372.894)" opacity="0.3">
            <path id="Path_903469" data-name="Path 903469" d="M206.33,450.685s11.062,1.5,11.737.913,30.675,1.093,30.675,1.093l-1.617-27.151L212.2,435.3l-5.863,15.39Z" transform="translate(-206.33 -425.54)"/>
          </g>
          <g id="Group_1112641" data-name="Group 1112641" transform="translate(0 182.455)">
            <path id="Path_903470" data-name="Path 903470" d="M109.43,267.438s79.845,127.7,74.239,214.568L231.3,512.1h34.932c-1.908-22.562-1.64-59.481-12.307-111.273C226.5,267.582,177.771,267.21,177.771,267.21l-68.341.216Z" transform="translate(-17.911 -266.987)" fill="#e0e0e0"/>
            <path id="Path_903471" data-name="Path 903471" d="M257.777,436.462l-79.764,14.08a9.012,9.012,0,0,1-2.361,7.737c-1.756,1.814-4.223,2.655-6.619,3.3a64.916,64.916,0,0,1-14.4,2.211,33.618,33.618,0,0,0-7.619.745,8.676,8.676,0,0,0-5.863,4.685c-1,2.427-.14,8.686,5.933,8.686h81c-6.072,0-6.933-6.247-5.933-8.686a8.676,8.676,0,0,1,5.863-4.685,33.011,33.011,0,0,1,7.619-.745,65.02,65.02,0,0,0,14.4-2.211c2.4-.649,4.862-1.5,6.619-3.3s1.5-18.778,1.128-21.829Z" transform="translate(-12.79 -232.904)" fill="#e0e0e0"/>
            <path id="Path_903472" data-name="Path 903472" d="M257.529,426.32,179.1,438.334a9.012,9.012,0,0,1-2.361,7.737c-1.757,1.814-4.223,2.655-6.619,3.3a64.921,64.921,0,0,1-14.4,2.211,33.618,33.618,0,0,0-7.619.745,8.676,8.676,0,0,0-5.863,4.685c-1,2.427-.14,8.686,5.933,8.686h81c-6.072,0-6.933-6.247-5.933-8.686a8.676,8.676,0,0,1,5.863-4.685,33.007,33.007,0,0,1,7.619-.745,65.026,65.026,0,0,0,14.4-2.211c2.4-.649,4.862-1.5,6.619-3.3S257.9,429.359,257.529,426.32Z" transform="translate(-12.613 -234.944)" fill="#e0e0e0"/>
            <path id="Path_903473" data-name="Path 903473" d="M257.382,423.86l-79.368,2.7c.663,2.487-.6,5.586-2.361,7.292s-4.223,2.5-6.619,3.124a69.255,69.255,0,0,1-14.4,2.09,35.029,35.029,0,0,0-7.619.709c-2.466.649-4.862,2.126-5.863,4.421s-.14,8.181,5.933,8.181l80.753-.937c-6.072,0-6.689-4.962-5.688-7.244s3.4-3.772,5.863-4.421a35.1,35.1,0,0,1,7.619-.709,68.571,68.571,0,0,0,14.4-2.09c2.4-.613,4.862-1.418,6.619-3.124s1.105-7.136.733-10Z" transform="translate(-12.79 -235.44)" fill="#e0e0e0"/>
            <path id="Path_903474" data-name="Path 903474" d="M136.332,326.563s-9.341-20.88-11.156-26.647,2.85-8.986,7.259-12.47,20.5-4.818,21.276-1.874.523,7.232-1.815,7.5-11.156-.252-16.344,6.836c0,0,21.532-4.95,26.72,0s-4.409,6.824-4.409,6.824,2.85,4.818.256,6.163-16.867,4.289-16.867,4.289L141,319.318s7-.541,11.679.8,6.747,6.427,6.747,6.427c-1.035,4.025-2.85,4.025-5.444,2.138a11.247,11.247,0,0,0-4.409-2.138s-4.153,5.358-7,5.622-6.223-5.622-6.223-5.622Z" transform="translate(-15.406 -263.616)" fill="#ae7461"/>
            <g id="Group_1112636" data-name="Group 1112636" transform="translate(128.894 0.223)" opacity="0.3">
              <path id="Path_903475" data-name="Path 903475" d="M168.617,267.21s-16.472,18.754-13.61,48.056,2.815,61.823,2.815,61.823l-9.562-23.884-6.7-68.755,13.529-15.33,13.529-1.91Z" transform="translate(-141.56 -267.21)"/>
            </g>
            <g id="Group_1112640" data-name="Group 1112640">
              <g id="Group_1112637" data-name="Group 1112637" transform="translate(32.066)">
                <path id="Path_903476" data-name="Path 903476" d="M182.115,267.212H114.169s-28.058.613-28.058,57.727c0,73.981,16.448,99.247-27.232,141.475l70.5,9.143s33.35-3.316,33.315-64.947c-.012-28.124-1.256-78.054-2.745-102.106-1.082-17.528,11.435-40.1,22.16-41.3Z" transform="translate(-58.229 -266.989)" fill="#fff"/>
                <path id="Path_903477" data-name="Path 903477" d="M182.206,267.247c-.151.036-.442.1-1.082.228a12.434,12.434,0,0,0-3.013,1.249c-2.524,1.406-5.77,4.385-8.887,9.058a57.126,57.126,0,0,0-7.968,18.922c-2.094,7.953-.442,17.324-.221,27.644.872,20.676,1.605,45.521,1.943,73.513.035,6.992.233,14.188-.174,21.577a106.579,106.579,0,0,1-3.4,22.382A59.362,59.362,0,0,1,149.356,463a38.948,38.948,0,0,1-8.713,8.23,28.014,28.014,0,0,1-11.144,4.661h-.058c-20.357-2.643-41.772-5.406-63.758-8.266l-6.735-.877-.628-.084.465-.456c3.525-3.484,6.991-7,10.144-10.776A104.716,104.716,0,0,0,77.6,443.647,71.889,71.889,0,0,0,87.634,416.88c1.524-9.359,1.477-18.742,1.117-27.848C88.39,379.9,87.7,370.987,87.2,362.277c-.523-8.71-.919-17.216-1.093-25.469q-.14-6.2-.128-12.206c.07-2.006.128-3.989.186-5.971s.081-3.928.337-5.863c.2-1.934.4-3.844.582-5.743a28.213,28.213,0,0,1,.43-2.811c.163-.925.337-1.85.5-2.775s.337-1.838.5-2.751c.186-.9.477-1.79.7-2.679.244-.889.489-1.766.721-2.643a17.94,17.94,0,0,1,.814-2.583c2.268-6.8,5.781-12.987,10.574-17.408a24.207,24.207,0,0,1,7.922-5.118,17.744,17.744,0,0,1,4.374-1.165c1.512-.12,2.943-.036,4.4-.06,5.758,0,11.179.024,16.251.036,10.12.036,18.845.072,25.964.1,14.029.036,21.159.048,21.974.048-.814,0-8.015.024-22.172.06-7.107.024-15.8.06-25.882.108l-16.146.036c-5.735-.673-11.772,1.838-16.39,6.271-4.723,4.373-8.189,10.488-10.423,17.24a18.775,18.775,0,0,0-.8,2.571c-.233.865-.477,1.742-.71,2.631s-.512,1.754-.7,2.655c-.163.913-.326,1.814-.489,2.739s-.326,1.838-.5,2.763a27.984,27.984,0,0,0-.43,2.8c-.186,1.886-.384,3.8-.57,5.719-.244,1.922-.256,3.868-.326,5.839s-.116,3.953-.186,5.947c0,4,.047,8.073.14,12.194.2,8.254.593,16.747,1.117,25.457s1.2,17.624,1.57,26.767.419,18.549-1.117,27.98a72.549,72.549,0,0,1-10.109,27,104.939,104.939,0,0,1-8.724,11.858c-3.176,3.784-6.642,7.316-10.178,10.813l-.174-.541,6.735.877c21.985,2.859,43.4,5.635,63.758,8.278h-.07a27.692,27.692,0,0,0,10.876-4.565,38.31,38.31,0,0,0,8.585-8.109,58.627,58.627,0,0,0,9.957-20.952,106.646,106.646,0,0,0,3.4-22.262c.407-7.341.221-14.549.2-21.541-.3-27.98-.977-52.825-1.8-73.5-.221-5.166-.442-10.08-.721-14.7a44.134,44.134,0,0,1,1.024-13.023,57.049,57.049,0,0,1,8.1-18.97c3.152-4.673,6.444-7.653,9-9.034a13.018,13.018,0,0,1,3.048-1.213c.349-.072.617-.1.814-.132l.291-.048Z" transform="translate(-58.32 -267.025)" fill="#263238"/>
              </g>
              <g id="Group_1112638" data-name="Group 1112638" transform="translate(83.121 192.661)" opacity="0.3">
                <path id="Path_903478" data-name="Path 903478" d="M102.21,427.4h11.411s.617,15.654,12.831,14.585a9.478,9.478,0,0,1-6.072,1.3c-3.49-.456-14.366,2.307-18.17-15.894Z" transform="translate(-102.21 -427.39)"/>
              </g>
              <g id="Group_1112639" data-name="Group 1112639" transform="translate(0 184.755)">
                <path id="Path_903479" data-name="Path 903479" d="M30.8,420.83S29,443.26,56.046,444.605s76.076,0,76.076,0-17.03-3.172-17.03-22.3L30.8,420.842Z" transform="translate(-30.751 -420.806)" fill="#e0e0e0"/>
                <path id="Path_903480" data-name="Path 903480" d="M30.807,420.834s.128,0,.4-.012h1.2c1.093,0,2.652.024,4.676.036,4.118.048,10.074.132,17.542.216,15.041.228,36.13.553,60.489.913h.291v.3a23.278,23.278,0,0,0,4.234,13.888,22.053,22.053,0,0,0,12.551,8.1l2.315.553-2.361.06h-.151c-15.785.4-30.826.589-44.506.565-6.84-.012-13.342-.072-19.426-.216a164.828,164.828,0,0,1-16.914-.961,26.729,26.729,0,0,1-12.831-5.526,20.61,20.61,0,0,1-6.119-8.806,23.992,23.992,0,0,1-1.4-6.728c-.047-.781-.047-1.394-.035-1.79a3.073,3.073,0,0,1,.047-.613c0,.012,0,.2.012.613s.023,1,.093,1.778a24.625,24.625,0,0,0,1.489,6.656,20.3,20.3,0,0,0,6.107,8.626,26.475,26.475,0,0,0,12.691,5.37,167.2,167.2,0,0,0,16.855.889c6.084.12,12.575.156,19.415.156,13.68-.012,28.721-.216,44.494-.613h.151l-.047.625a22.97,22.97,0,0,1-7.224-3.064,20.913,20.913,0,0,1-5.7-5.274,23.791,23.791,0,0,1-4.339-14.26l.291.3c-24.277-.481-45.309-.889-60.291-1.189-7.491-.168-13.47-.3-17.6-.4-2.047-.048-3.629-.1-4.734-.12-.523-.012-.931-.036-1.233-.036a3.262,3.262,0,0,1-.43-.024Z" transform="translate(-30.754 -420.81)" fill="#263238"/>
              </g>
              <path id="Path_903481" data-name="Path 903481" d="M137.6,350.639c0,.324-6.13.589-13.691.589s-13.691-.264-13.691-.589,6.13-.589,13.691-.589S137.6,350.314,137.6,350.639Z" transform="translate(-17.782 -250.304)" fill="#263238"/>
              <path id="Path_903482" data-name="Path 903482" d="M93.08,350.709c0-.324,1.71-.589,3.815-.589s3.815.264,3.815.589S99,351.3,96.9,351.3,93.08,351.033,93.08,350.709Z" transform="translate(-20.58 -250.29)" fill="#263238"/>
              <path id="Path_903483" data-name="Path 903483" d="M139.063,342.049c0,.324-6.13.589-13.691.589s-13.691-.264-13.691-.589,6.13-.589,13.691-.589S139.063,341.724,139.063,342.049Z" transform="translate(-17.543 -252.034)" fill="#263238"/>
              <path id="Path_903484" data-name="Path 903484" d="M93.08,342.539c0-.324,1.71-.589,3.815-.589s3.815.264,3.815.589-1.71.589-3.815.589S93.08,342.863,93.08,342.539Z" transform="translate(-20.58 -251.935)" fill="#263238"/>
              <path id="Path_903485" data-name="Path 903485" d="M138.793,334.779c0,.324-6.13.589-13.691.589s-13.691-.264-13.691-.589,6.13-.589,13.691-.589S138.793,334.454,138.793,334.779Z" transform="translate(-17.588 -253.498)" fill="#263238"/>
              <path id="Path_903486" data-name="Path 903486" d="M93.08,334.859c0-.324,1.71-.589,3.815-.589s3.815.264,3.815.589-1.71.589-3.815.589S93.08,335.183,93.08,334.859Z" transform="translate(-20.58 -253.482)" fill="#263238"/>
              <path id="Path_903487" data-name="Path 903487" d="M137.873,326.249c0,.324-6.13.589-13.691.589s-13.691-.264-13.691-.589,6.13-.589,13.691-.589S137.873,325.924,137.873,326.249Z" transform="translate(-17.738 -255.216)" fill="#263238"/>
              <path id="Path_903488" data-name="Path 903488" d="M91.89,326.739c0-.324,1.71-.589,3.815-.589s3.815.264,3.815.589-1.71.589-3.815.589S91.89,327.063,91.89,326.739Z" transform="translate(-20.774 -255.117)" fill="#263238"/>
              <path id="Path_903489" data-name="Path 903489" d="M137.6,318.979c0,.324-6.13.589-13.691.589s-13.691-.264-13.691-.589,6.13-.589,13.691-.589S137.6,318.654,137.6,318.979Z" transform="translate(-17.782 -256.68)" fill="#263238"/>
              <path id="Path_903490" data-name="Path 903490" d="M91.89,319.049c0-.324,1.71-.589,3.815-.589s3.815.264,3.815.589-1.71.589-3.815.589S91.89,319.373,91.89,319.049Z" transform="translate(-20.774 -256.666)" fill="#263238"/>
              <path id="Path_903491" data-name="Path 903491" d="M136.773,310.449c0,.324-6.13.589-13.691.589s-13.691-.264-13.691-.589,6.13-.589,13.691-.589S136.773,310.124,136.773,310.449Z" transform="translate(-17.917 -258.398)" fill="#263238"/>
              <path id="Path_903492" data-name="Path 903492" d="M90.79,310.939c0-.324,1.71-.589,3.815-.589s3.815.264,3.815.589-1.71.589-3.815.589S90.79,311.263,90.79,310.939Z" transform="translate(-20.954 -258.299)" fill="#263238"/>
              <path id="Path_903493" data-name="Path 903493" d="M136.5,303.179c0,.324-6.13.589-13.691.589s-13.691-.264-13.691-.589,6.13-.589,13.691-.589S136.5,302.854,136.5,303.179Z" transform="translate(-17.961 -259.862)" fill="#263238"/>
              <path id="Path_903494" data-name="Path 903494" d="M137.953,295.729c0,.324-6.13.589-13.691.589s-13.691-.264-13.691-.589,6.13-.589,13.691-.589S137.953,295.4,137.953,295.729Z" transform="translate(-17.725 -261.362)" fill="#263238"/>
              <path id="Path_903495" data-name="Path 903495" d="M90.79,303.249c0-.324,1.71-.589,3.815-.589s3.815.264,3.815.589-1.71.589-3.815.589S90.79,303.573,90.79,303.249Z" transform="translate(-20.954 -259.848)" fill="#263238"/>
              <path id="Path_903496" data-name="Path 903496" d="M91.89,295.249c0-.324,1.71-.589,3.815-.589s3.815.264,3.815.589-1.71.589-3.815.589S91.89,295.573,91.89,295.249Z" transform="translate(-20.774 -261.459)" fill="#263238"/>
              <path id="Path_903497" data-name="Path 903497" d="M139.473,288.449c0,.324-6.13.589-13.691.589s-13.691-.264-13.691-.589,6.13-.589,13.691-.589S139.473,288.124,139.473,288.449Z" transform="translate(-17.477 -262.829)" fill="#263238"/>
              <path id="Path_903498" data-name="Path 903498" d="M93.41,287.969c0-.324,1.71-.589,3.815-.589s3.815.264,3.815.589-1.71.589-3.815.589S93.41,288.293,93.41,287.969Z" transform="translate(-20.526 -262.925)" fill="#263238"/>
              <path id="Path_903499" data-name="Path 903499" d="M140.993,281.169c0,.324-6.13.589-13.691.589s-13.691-.264-13.691-.589,6.13-.589,13.691-.589S140.993,280.844,140.993,281.169Z" transform="translate(-17.228 -264.295)" fill="#263238"/>
              <path id="Path_903500" data-name="Path 903500" d="M94.93,280.689c0-.324,1.71-.589,3.815-.589s3.815.264,3.815.589-1.71.589-3.815.589S94.93,281.013,94.93,280.689Z" transform="translate(-20.278 -264.391)" fill="#263238"/>
              <path id="Path_903501" data-name="Path 903501" d="M146.5,274.609c0,.324-6.13.589-13.691.589s-13.691-.264-13.691-.589,6.13-.589,13.691-.589S146.5,274.284,146.5,274.609Z" transform="translate(-16.329 -265.616)" fill="#263238"/>
              <path id="Path_903502" data-name="Path 903502" d="M100.43,274.129c0-.324,1.71-.589,3.815-.589s3.815.264,3.815.589-1.71.589-3.815.589S100.43,274.453,100.43,274.129Z" transform="translate(-19.38 -265.712)" fill="#263238"/>
              <path id="Path_903503" data-name="Path 903503" d="M137.6,360.009c0,.324-6.13.589-13.691.589s-13.691-.264-13.691-.589,6.13-.589,13.691-.589S137.6,359.684,137.6,360.009Z" transform="translate(-17.782 -248.417)" fill="#263238"/>
              <path id="Path_903504" data-name="Path 903504" d="M93.08,360.089c0-.324,1.71-.589,3.815-.589s3.815.264,3.815.589-1.71.589-3.815.589S93.08,360.413,93.08,360.089Z" transform="translate(-20.58 -248.401)" fill="#263238"/>
              <path id="Path_903505" data-name="Path 903505" d="M138.793,369.209c0,.324-6.13.589-13.691.589s-13.691-.264-13.691-.589,6.13-.589,13.691-.589S138.793,368.884,138.793,369.209Z" transform="translate(-17.588 -246.564)" fill="#263238"/>
              <path id="Path_903506" data-name="Path 903506" d="M94.26,369.289c0-.324,1.71-.589,3.815-.589s3.815.264,3.815.589-1.71.589-3.815.589S94.26,369.613,94.26,369.289Z" transform="translate(-20.387 -246.548)" fill="#263238"/>
              <path id="Path_903507" data-name="Path 903507" d="M139.163,377.149c0,.324-6.13.589-13.691.589s-13.691-.264-13.691-.589,6.13-.589,13.691-.589S139.163,376.824,139.163,377.149Z" transform="translate(-17.527 -244.965)" fill="#263238"/>
              <path id="Path_903508" data-name="Path 903508" d="M94.64,377.229c0-.324,1.71-.589,3.815-.589s3.815.264,3.815.589-1.71.589-3.815.589S94.64,377.553,94.64,377.229Z" transform="translate(-20.325 -244.949)" fill="#263238"/>
              <path id="Path_903509" data-name="Path 903509" d="M139.543,385.089c0,.324-6.13.589-13.691.589s-13.691-.264-13.691-.589,6.13-.589,13.691-.589S139.543,384.764,139.543,385.089Z" transform="translate(-17.465 -243.366)" fill="#263238"/>
              <path id="Path_903510" data-name="Path 903510" d="M95.01,385.169c0-.324,1.71-.589,3.815-.589s3.815.264,3.815.589-1.71.589-3.815.589S95.01,385.493,95.01,385.169Z" transform="translate(-20.265 -243.35)" fill="#263238"/>
              <path id="Path_903511" data-name="Path 903511" d="M139.913,393.039c0,.324-6.13.589-13.691.589s-13.691-.264-13.691-.589,6.13-.589,13.691-.589S139.913,392.714,139.913,393.039Z" transform="translate(-17.405 -241.765)" fill="#263238"/>
              <path id="Path_903512" data-name="Path 903512" d="M95.38,393.109c0-.324,1.71-.589,3.815-.589s3.815.264,3.815.589-1.71.589-3.815.589S95.38,393.433,95.38,393.109Z" transform="translate(-20.204 -241.751)" fill="#263238"/>
              <path id="Path_903513" data-name="Path 903513" d="M140.053,400.759c0,.324-6.13.589-13.691.589s-13.691-.264-13.691-.589,6.13-.589,13.691-.589S140.053,400.434,140.053,400.759Z" transform="translate(-17.382 -240.211)" fill="#263238"/>
              <path id="Path_903514" data-name="Path 903514" d="M95.52,400.829c0-.324,1.71-.589,3.815-.589s3.815.264,3.815.589-1.71.589-3.815.589S95.52,401.153,95.52,400.829Z" transform="translate(-20.182 -240.197)" fill="#263238"/>
              <path id="Path_903515" data-name="Path 903515" d="M138.793,408.439c0,.324-6.13.589-13.691.589s-13.691-.264-13.691-.589,6.13-.589,13.691-.589S138.793,408.114,138.793,408.439Z" transform="translate(-17.588 -238.664)" fill="#263238"/>
              <path id="Path_903516" data-name="Path 903516" d="M94.26,408.519c0-.324,1.71-.589,3.815-.589s3.815.264,3.815.589-1.71.589-3.815.589S94.26,408.843,94.26,408.519Z" transform="translate(-20.387 -238.648)" fill="#263238"/>
              <path id="Path_903517" data-name="Path 903517" d="M135.773,416.6c0,.324-6.13.589-13.691.589s-13.691-.264-13.691-.589,6.13-.589,13.691-.589S135.773,416.274,135.773,416.6Z" transform="translate(-18.081 -237.021)" fill="#263238"/>
              <path id="Path_903518" data-name="Path 903518" d="M91.24,416.679c0-.324,1.71-.589,3.815-.589s3.815.264,3.815.589-1.71.589-3.815.589S91.24,417,91.24,416.679Z" transform="translate(-20.88 -237.005)" fill="#263238"/>
              <path id="Path_903519" data-name="Path 903519" d="M133.5,424.029c0,.324-6.13.589-13.691.589s-13.691-.264-13.691-.589,6.13-.589,13.691-.589S133.5,423.7,133.5,424.029Z" transform="translate(-18.451 -235.524)" fill="#263238"/>
            </g>
            <path id="Path_903520" data-name="Path 903520" d="M258.205,448.456a2.562,2.562,0,0,1-.291.012c-.221,0-.5-.012-.838-.024l-3.2-.144c-2.78-.144-6.793-.324-11.772-.517-9.934-.384-23.672-.661-38.852-.589s-28.918.348-38.864.493c-4.932.06-8.945.108-11.784.144h-3.2c-.337,0-.6,0-.838-.012a.72.72,0,0,1-.279-.024,1.675,1.675,0,0,1,.279-.036c.221-.012.5-.024.838-.048.779-.024,1.85-.072,3.2-.12,2.838-.084,6.84-.192,11.772-.336,9.946-.252,23.684-.6,38.876-.673s28.93.264,38.864.769c4.967.252,8.992.493,11.76.721,1.349.108,2.42.192,3.2.264.337.036.6.06.826.084a1.034,1.034,0,0,1,.279.048Z" transform="translate(-11.567 -230.866)" fill="#263238"/>
            <path id="Path_903521" data-name="Path 903521" d="M253.838,458.871c0,.168-22.393.384-50.008.48s-50.02.024-50.02-.144,22.393-.384,50.02-.481S253.838,458.7,253.838,458.871Z" transform="translate(-10.666 -228.427)" fill="#263238"/>
            <path id="Path_903522" data-name="Path 903522" d="M241.392,427.4s.291.06.838.216c.593.192,1.384.445,2.361.757.523.168,1.082.36,1.71.553.582.228,1.419.336,1.884,1.165a1.139,1.139,0,0,1-.291,1.31,2.849,2.849,0,0,1-1.187.625l-2.687.649a109.988,109.988,0,0,1-13.377,2.042c-5.072.481-10.667.721-16.53.841-11.7.156-22.3.312-30.047.421-3.792.024-6.886.036-9.108.048-1.024,0-1.85-.012-2.478-.012a3.375,3.375,0,0,1-.861-.048,3.969,3.969,0,0,1,.861-.072c.628-.024,1.442-.06,2.478-.1,2.222-.06,5.3-.144,9.108-.252,7.747-.156,18.333-.36,30.047-.6,5.863-.12,11.446-.336,16.495-.793a119.5,119.5,0,0,0,13.342-1.9c.931-.2,1.826-.408,2.664-.6a2.623,2.623,0,0,0,1.047-.517.781.781,0,0,0,.233-.9c-.3-.6-1.07-.8-1.663-1.033-.617-.216-1.175-.42-1.687-.613-.965-.36-1.745-.649-2.326-.865a6.52,6.52,0,0,1-.8-.336Z" transform="translate(-7.758 -234.729)" fill="#263238"/>
          </g>
        </g>
      </g>
    </g>
  </g>
</svg>
