<svg xmlns="http://www.w3.org/2000/svg" xmlns:xlink="http://www.w3.org/1999/xlink" width="362.529" height="355.898" viewBox="0 0 362.529 355.898">
  <defs>
    <clipPath id="clip-path">
      <rect id="Rectangle_406565" data-name="Rectangle 406565" width="325.058" height="289.204" fill="none"/>
    </clipPath>
    <clipPath id="clip-path-5">
      <rect id="Rectangle_406515" data-name="Rectangle 406515" width="17.36" height="18.244" fill="none"/>
    </clipPath>
    <clipPath id="clip-path-7">
      <rect id="Rectangle_406517" data-name="Rectangle 406517" width="30.981" height="30.887" fill="none"/>
    </clipPath>
    <clipPath id="clip-path-9">
      <rect id="Rectangle_406520" data-name="Rectangle 406520" width="140.341" height="112.646" fill="none"/>
    </clipPath>
    <clipPath id="clip-path-10">
      <rect id="Rectangle_406521" data-name="Rectangle 406521" width="31.899" height="54.097" fill="none"/>
    </clipPath>
    <clipPath id="clip-path-11">
      <rect id="Rectangle_406522" data-name="Rectangle 406522" width="4.396" height="4.396" fill="none"/>
    </clipPath>
    <clipPath id="clip-path-14">
      <rect id="Rectangle_406525" data-name="Rectangle 406525" width="13.579" height="3.289" fill="none"/>
    </clipPath>
    <clipPath id="clip-path-15">
      <rect id="Rectangle_406526" data-name="Rectangle 406526" width="19.502" height="3.289" fill="none"/>
    </clipPath>
    <clipPath id="clip-path-16">
      <rect id="Rectangle_406527" data-name="Rectangle 406527" width="13.91" height="3.289" fill="none"/>
    </clipPath>
    <clipPath id="clip-path-18">
      <rect id="Rectangle_406529" data-name="Rectangle 406529" width="89.257" height="27.547" fill="none"/>
    </clipPath>
    <clipPath id="clip-path-20">
      <rect id="Rectangle_406531" data-name="Rectangle 406531" width="29.58" height="28.501" fill="none"/>
    </clipPath>
    <clipPath id="clip-path-21">
      <rect id="Rectangle_406532" data-name="Rectangle 406532" width="3.245" height="3.244" fill="none"/>
    </clipPath>
    <clipPath id="clip-path-24">
      <rect id="Rectangle_406535" data-name="Rectangle 406535" width="80.658" height="80.658" fill="none"/>
    </clipPath>
    <clipPath id="clip-path-25">
      <rect id="Rectangle_406536" data-name="Rectangle 406536" width="5.211" height="10.679" fill="none"/>
    </clipPath>
    <clipPath id="clip-path-26">
      <rect id="Rectangle_406537" data-name="Rectangle 406537" width="5.947" height="3.444" fill="none"/>
    </clipPath>
    <clipPath id="clip-path-27">
      <rect id="Rectangle_406538" data-name="Rectangle 406538" width="3.219" height="2.322" fill="none"/>
    </clipPath>
    <clipPath id="clip-path-28">
      <rect id="Rectangle_406539" data-name="Rectangle 406539" width="19.944" height="16.493" fill="none"/>
    </clipPath>
    <clipPath id="clip-path-31">
      <rect id="Rectangle_406542" data-name="Rectangle 406542" width="34.495" height="6.12" fill="none"/>
    </clipPath>
    <clipPath id="clip-path-32">
      <rect id="Rectangle_406543" data-name="Rectangle 406543" width="8.379" height="31.862" fill="none"/>
    </clipPath>
    <clipPath id="clip-path-33">
      <rect id="Rectangle_406544" data-name="Rectangle 406544" width="36.596" height="58.788" fill="none"/>
    </clipPath>
    <clipPath id="clip-path-34">
      <rect id="Rectangle_406545" data-name="Rectangle 406545" width="5.645" height="11.237" fill="none"/>
    </clipPath>
    <clipPath id="clip-path-35">
      <rect id="Rectangle_406546" data-name="Rectangle 406546" width="15.8" height="26.421" fill="none"/>
    </clipPath>
    <clipPath id="clip-path-36">
      <rect id="Rectangle_406547" data-name="Rectangle 406547" width="2.122" height="12.936" fill="none"/>
    </clipPath>
    <clipPath id="clip-path-37">
      <rect id="Rectangle_406548" data-name="Rectangle 406548" width="7.221" height="4.31" fill="none"/>
    </clipPath>
    <clipPath id="clip-path-38">
      <rect id="Rectangle_406549" data-name="Rectangle 406549" width="3.537" height="3.398" fill="none"/>
    </clipPath>
    <clipPath id="clip-path-39">
      <rect id="Rectangle_406550" data-name="Rectangle 406550" width="6.857" height="3.563" fill="none"/>
    </clipPath>
    <clipPath id="clip-path-40">
      <rect id="Rectangle_406551" data-name="Rectangle 406551" width="3.843" height="4.541" fill="none"/>
    </clipPath>
    <clipPath id="clip-path-41">
      <rect id="Rectangle_406552" data-name="Rectangle 406552" width="11.921" height="34.896" fill="none"/>
    </clipPath>
    <clipPath id="clip-path-42">
      <rect id="Rectangle_406553" data-name="Rectangle 406553" width="20.522" height="24.004" fill="none"/>
    </clipPath>
    <clipPath id="clip-path-43">
      <rect id="Rectangle_406554" data-name="Rectangle 406554" width="5.802" height="5.998" fill="none"/>
    </clipPath>
    <clipPath id="clip-path-45">
      <rect id="Rectangle_406556" data-name="Rectangle 406556" width="13.653" height="42.822" fill="none"/>
    </clipPath>
    <clipPath id="clip-path-46">
      <rect id="Rectangle_406557" data-name="Rectangle 406557" width="8.232" height="7.462" fill="none"/>
    </clipPath>
    <clipPath id="clip-path-47">
      <rect id="Rectangle_406558" data-name="Rectangle 406558" width="5.296" height="5.348" fill="none"/>
    </clipPath>
    <clipPath id="clip-path-48">
      <rect id="Rectangle_406559" data-name="Rectangle 406559" width="2.171" height="3.005" fill="none"/>
    </clipPath>
    <clipPath id="clip-path-49">
      <rect id="Rectangle_406560" data-name="Rectangle 406560" width="8.822" height="6.359" fill="none"/>
    </clipPath>
    <clipPath id="clip-path-50">
      <rect id="Rectangle_406561" data-name="Rectangle 406561" width="4.138" height="16.301" fill="none"/>
    </clipPath>
    <clipPath id="clip-path-51">
      <rect id="Rectangle_406562" data-name="Rectangle 406562" width="6.541" height="4.018" fill="none"/>
    </clipPath>
    <clipPath id="clip-path-52">
      <rect id="Rectangle_406563" data-name="Rectangle 406563" width="5.557" height="17.123" fill="none"/>
    </clipPath>
  </defs>
  <g id="Group_1115776" data-name="Group 1115776" transform="translate(-1056.978 -2953.985)">
    <rect id="Rectangle_407551" data-name="Rectangle 407551" width="337" height="307" rx="8" transform="translate(1082.507 2953.985)" fill="#5ab4f9"/>
    <g id="Group_1114617" data-name="Group 1114617" transform="translate(1051.978 3023.68)">
      <g id="Group_1114616" data-name="Group 1114616" transform="translate(5 -3)" clip-path="url(#clip-path)">
        <g id="Group_1114476" data-name="Group 1114476">
          <g id="Group_1114475" data-name="Group 1114475" clip-path="url(#clip-path)">
            <path id="Path_907182" data-name="Path 907182" d="M378.629,192.705H261.123a3.815,3.815,0,0,1-3.811-3.811V17.736a3.815,3.815,0,0,1,3.811-3.811H378.629a3.815,3.815,0,0,1,3.811,3.811V188.894a3.815,3.815,0,0,1-3.811,3.811M261.123,14.088a3.653,3.653,0,0,0-3.648,3.648V188.894a3.652,3.652,0,0,0,3.648,3.648H378.629a3.652,3.652,0,0,0,3.648-3.648V17.736a3.653,3.653,0,0,0-3.648-3.648Z" transform="translate(-90.029 -4.872)" fill="#e0e0e0"/>
            <path id="Path_907183" data-name="Path 907183" d="M170.2,192.705H52.695a3.815,3.815,0,0,1-3.811-3.811V17.736a3.815,3.815,0,0,1,3.811-3.811H170.2a3.815,3.815,0,0,1,3.811,3.811V188.894a3.815,3.815,0,0,1-3.811,3.811M52.695,14.088a3.653,3.653,0,0,0-3.648,3.648V188.894a3.653,3.653,0,0,0,3.648,3.648H170.2a3.653,3.653,0,0,0,3.648-3.648V17.736a3.653,3.653,0,0,0-3.648-3.648Z" transform="translate(-17.104 -4.872)" fill="#e0e0e0"/>
            <rect id="Rectangle_406504" data-name="Rectangle 406504" width="325.058" height="0.163" transform="translate(0 202.349)" fill="#e0e0e0"/>
            <rect id="Rectangle_406505" data-name="Rectangle 406505" width="10.441" height="0.163" transform="translate(33.593 211.623)" fill="#e0e0e0"/>
            <rect id="Rectangle_406506" data-name="Rectangle 406506" width="34.801" height="0.163" transform="translate(110.749 209.861)" fill="#e0e0e0"/>
            <rect id="Rectangle_406507" data-name="Rectangle 406507" width="23.567" height="0.163" transform="translate(44.684 217.662)" fill="#e0e0e0"/>
            <rect id="Rectangle_406508" data-name="Rectangle 406508" width="28.079" height="0.163" transform="translate(245.973 209.776)" fill="#e0e0e0"/>
            <rect id="Rectangle_406509" data-name="Rectangle 406509" width="4.115" height="0.163" transform="translate(279.844 209.776)" fill="#e0e0e0"/>
            <rect id="Rectangle_406510" data-name="Rectangle 406510" width="35.035" height="0.163" transform="translate(205.575 213.827)" fill="#e0e0e0"/>
            <path id="Path_907184" data-name="Path 907184" d="M256.558,307.181a18.835,18.835,0,0,0-1.954,6.774l-3.579.742.778,7,3.656-.061a18.817,18.817,0,0,0,3.392,6.18l-2,3.047,5.5,4.4,2.534-2.62a18.838,18.838,0,0,0,6.774,1.953l.742,3.58,7-.779-.061-3.654a18.841,18.841,0,0,0,6.18-3.392l3.047,2,4.4-5.5-2.62-2.534a18.822,18.822,0,0,0,1.953-6.774l3.579-.743-.778-7-3.655.061a18.82,18.82,0,0,0-3.392-6.179l2-3.047-5.5-4.4-2.534,2.62a18.83,18.83,0,0,0-6.774-1.954l-.742-3.579-7.005.778.062,3.654a18.834,18.834,0,0,0-6.18,3.392l-3.047-2-4.4,5.5Zm22.787,1.054a9.03,9.03,0,1,1-12.693,1.41,9.031,9.031,0,0,1,12.693-1.41" transform="translate(-87.83 -102.627)" fill="#f0f0f0"/>
            <path id="Path_907185" data-name="Path 907185" d="M202.723,306.3a13.637,13.637,0,0,0-1.415,4.907l-2.593.538.564,5.074,2.648-.044a13.639,13.639,0,0,0,2.457,4.477l-1.449,2.207,3.987,3.189,1.835-1.9a13.657,13.657,0,0,0,4.908,1.415l.538,2.593,5.074-.564-.044-2.648a13.63,13.63,0,0,0,4.477-2.457l2.207,1.449,3.189-3.987-1.9-1.836a13.636,13.636,0,0,0,1.415-4.907l2.593-.538-.564-5.074-2.647.044a13.641,13.641,0,0,0-2.457-4.477L227,301.557l-3.987-3.189-1.835,1.9a13.658,13.658,0,0,0-4.907-1.415l-.538-2.593-5.074.564.044,2.647a13.623,13.623,0,0,0-4.477,2.457l-2.208-1.449-3.189,3.987Zm16.507.763a6.542,6.542,0,1,1-9.2,1.021,6.542,6.542,0,0,1,9.2-1.021" transform="translate(-69.527 -103.655)" fill="#f0f0f0"/>
            <path id="Path_907186" data-name="Path 907186" d="M234.683,349.594a5.6,5.6,0,0,0-.581,2.013l-1.064.221.232,2.081,1.085-.018a5.6,5.6,0,0,0,1.008,1.837l-.594.9,1.635,1.308.753-.778a5.6,5.6,0,0,0,2.012.58l.221,1.064,2.081-.231-.018-1.086a5.58,5.58,0,0,0,1.837-1.008l.9.594,1.309-1.635-.779-.753a5.6,5.6,0,0,0,.581-2.013l1.062-.22-.23-2.082-1.086.018a5.61,5.61,0,0,0-1.009-1.836l.594-.906L243,346.341l-.752.779a5.606,5.606,0,0,0-2.013-.581l-.22-1.063-2.082.231.018,1.086a5.6,5.6,0,0,0-1.835,1.008l-.906-.594-1.309,1.635Zm6.77.313a2.684,2.684,0,1,1-3.772.419,2.684,2.684,0,0,1,3.772-.419" transform="translate(-81.536 -120.876)" fill="#f0f0f0"/>
            <path id="Path_907187" data-name="Path 907187" d="M433.571,182.333a27.815,27.815,0,1,1-32.2-22.6,27.815,27.815,0,0,1,32.2,22.6" transform="translate(-132.38 -55.741)" fill="#ebebeb"/>
            <path id="Path_907188" data-name="Path 907188" d="M431.161,186.166a22.422,22.422,0,1,1-25.955-18.216,22.422,22.422,0,0,1,25.955,18.216" transform="translate(-135.282 -58.644)" fill="#fff"/>
            <path id="Path_907189" data-name="Path 907189" d="M428.153,190.954a15.687,15.687,0,1,1-18.16-12.745,15.688,15.688,0,0,1,18.16,12.745" transform="translate(-138.907 -62.269)" fill="#f0f0f0"/>
            <path id="Path_907190" data-name="Path 907190" d="M425.58,195.048a9.929,9.929,0,1,1-11.493-8.066,9.929,9.929,0,0,1,11.493,8.066" transform="translate(-142.007 -65.369)" fill="#e0e0e0"/>
            <path id="Path_907191" data-name="Path 907191" d="M422.872,199.2a3.916,3.916,0,1,1-4.533-3.18,3.915,3.915,0,0,1,4.533,3.18" transform="translate(-145.236 -68.562)" fill="#f0f0f0"/>
            <path id="Path_907192" data-name="Path 907192" d="M460.123,168.135l.022-1.114a2.788,2.788,0,0,1,1.034-2.114l3.34-2.706-.665,3.041Z" transform="translate(-160.989 -56.751)" fill="#ebebeb"/>
            <path id="Path_907193" data-name="Path 907193" d="M460.081,169.677l1.063.332a2.792,2.792,0,0,0,2.333-.31l3.626-2.311-3.1-.332Z" transform="translate(-160.975 -58.45)" fill="#ebebeb"/>
            <path id="Path_907194" data-name="Path 907194" d="M421.128,189.192l10.152-7.874,16.172-12.543,3.7-2.87c.5-.384-.2-1.07-.69-.69l-10.152,7.873L424.14,185.632l-3.7,2.87c-.495.384.2,1.07.69.69" transform="translate(-147.045 -57.767)" fill="#e0e0e0"/>
            <path id="Path_907195" data-name="Path 907195" d="M89.1,64.707s9.045,7.984,11.489,1.209a23.35,23.35,0,0,1,1.7-4.613c1.244-2.568,2.69-6.819-1.9-9.786a102.487,102.487,0,0,0-11.208-5.945L80.54,58.027a15.753,15.753,0,0,1,4.135,8.706c.557,4.609.192,6.084.755,6.045s2.162-.645,3.183-3.046a9.515,9.515,0,0,0,.482-5.025" transform="translate(-28.18 -15.945)" fill="#f0f0f0"/>
            <rect id="Rectangle_406511" data-name="Rectangle 406511" width="19.03" height="11.453" transform="translate(41.976 37.136) rotate(-55.277)" fill="#e0e0e0"/>
            <path id="Path_907196" data-name="Path 907196" d="M148.3,14.329s-14.024-8.069-15.421,1.487a31.251,31.251,0,0,1-.993,6.515c-.947,3.708-1.708,9.68,5.118,12.35a137.45,137.45,0,0,0,16.319,4.811l8.007-18.677a21.117,21.117,0,0,1-7.765-10.333c-1.967-5.907-1.883-7.943-2.612-7.742s-2.667,1.427-3.366,4.856a12.752,12.752,0,0,0,.713,6.733" transform="translate(-45.93 -0.954)" fill="#f0f0f0"/>
            <rect id="Rectangle_406512" data-name="Rectangle 406512" width="25.519" height="15.359" transform="matrix(0.394, -0.919, 0.919, 0.394, 106.196, 40.982)" fill="#e0e0e0"/>
            <path id="Path_907197" data-name="Path 907197" d="M262.153,134.816a10.979,10.979,0,0,0-1.141,3.955l-2.089.434.454,4.089,2.134-.035a11,11,0,0,0,1.981,3.608l-1.168,1.779,3.214,2.571,1.479-1.53a10.985,10.985,0,0,0,3.955,1.14l.433,2.09,4.09-.454-.036-2.134a10.988,10.988,0,0,0,3.608-1.981l1.779,1.168,2.571-3.213-1.53-1.48a10.992,10.992,0,0,0,1.14-3.955l2.089-.434-.454-4.089-2.134.035a11.006,11.006,0,0,0-1.98-3.608l1.168-1.779-3.214-2.571-1.479,1.53a11,11,0,0,0-3.955-1.141l-.434-2.089-4.09.454.036,2.134a10.981,10.981,0,0,0-3.608,1.98l-1.779-1.168-2.571,3.213Zm13.3.615a5.273,5.273,0,1,1-7.411.823,5.273,5.273,0,0,1,7.411-.823" transform="translate(-90.593 -44.338)" fill="#f0f0f0"/>
            <path id="Path_907198" data-name="Path 907198" d="M36.736,211.516a10.993,10.993,0,0,0-1.141,3.955l-2.089.434.454,4.09,2.134-.036a11,11,0,0,0,1.981,3.608l-1.168,1.779,3.214,2.571,1.479-1.53a10.985,10.985,0,0,0,3.955,1.14l.433,2.09,4.09-.454-.036-2.134a10.989,10.989,0,0,0,3.608-1.981l1.779,1.168L58,223l-1.53-1.48a10.992,10.992,0,0,0,1.14-3.955l2.089-.434-.454-4.089-2.134.035a11,11,0,0,0-1.98-3.608l1.168-1.779-3.214-2.571-1.479,1.53a10.981,10.981,0,0,0-3.955-1.14l-.434-2.09-4.09.454.036,2.134a10.993,10.993,0,0,0-3.608,1.98l-1.779-1.168-2.571,3.213Zm13.3.615a5.273,5.273,0,1,1-7.411.823,5.273,5.273,0,0,1,7.411-.823" transform="translate(-11.723 -71.174)" fill="#f0f0f0"/>
            <path id="Path_907199" data-name="Path 907199" d="M232.5,143.252a5.588,5.588,0,0,0-.581,2.013l-1.064.221.231,2.081,1.086-.018a5.6,5.6,0,0,0,1.008,1.836l-.594.906,1.635,1.308.753-.778a5.6,5.6,0,0,0,2.013.58l.221,1.064,2.081-.231-.018-1.086a5.6,5.6,0,0,0,1.837-1.008l.9.594,1.308-1.635-.778-.753a5.6,5.6,0,0,0,.581-2.013l1.063-.22-.231-2.082-1.086.018a5.583,5.583,0,0,0-1.008-1.836l.594-.906L240.817,140l-.753.779a5.588,5.588,0,0,0-2.013-.581l-.22-1.064-2.082.231.018,1.086a5.6,5.6,0,0,0-1.836,1.008l-.906-.594-1.308,1.635Zm6.77.313a2.683,2.683,0,1,1-3.771.419,2.683,2.683,0,0,1,3.771-.419" transform="translate(-80.772 -48.681)" fill="#f0f0f0"/>
            <path id="Path_907200" data-name="Path 907200" d="M206.9,110.722a5.588,5.588,0,0,0-.581,2.013l-1.064.221.231,2.081,1.086-.018a5.6,5.6,0,0,0,1.008,1.836l-.594.906,1.636,1.308.753-.778a5.6,5.6,0,0,0,2.012.58l.221,1.064,2.081-.231-.018-1.086a5.6,5.6,0,0,0,1.837-1.008l.9.594,1.308-1.635-.778-.753a5.588,5.588,0,0,0,.581-2.013l1.063-.22-.231-2.082-1.086.018a5.583,5.583,0,0,0-1.008-1.836l.594-.906-1.635-1.308-.753.779a5.588,5.588,0,0,0-2.013-.581l-.22-1.064-2.082.231.018,1.086a5.6,5.6,0,0,0-1.836,1.008l-.906-.594-1.308,1.635Zm6.77.313a2.683,2.683,0,1,1-3.771.419,2.684,2.684,0,0,1,3.771-.419" transform="translate(-71.816 -37.299)" fill="#e0e0e0"/>
          </g>
        </g>
        <g id="Group_1114478" data-name="Group 1114478">
          <g id="Group_1114477" data-name="Group 1114477" clip-path="url(#clip-path)">
            <path id="Path_907201" data-name="Path 907201" d="M318.054,431.639c0,3.514-62.543,6.362-139.693,6.362S38.67,435.153,38.67,431.639s62.543-6.362,139.692-6.362,139.693,2.848,139.693,6.362" transform="translate(-13.53 -148.797)" fill="#f5f5f5"/>
          </g>
        </g>
        <g id="Group_1114483" data-name="Group 1114483">
          <g id="Group_1114482" data-name="Group 1114482" clip-path="url(#clip-path)">
            <path id="Path_907202" data-name="Path 907202" d="M293.371,385.937a6.6,6.6,0,0,0,4.02-1.828,12.613,12.613,0,0,0,2.6-3.645,23.511,23.511,0,0,0,2.5-11.563,6.425,6.425,0,0,0-.492-2.5,2.655,2.655,0,0,0-1.907-1.557c-1.264-.183-2.366.828-3.169,1.82a23.6,23.6,0,0,0-5.142,16.189c.092,1.415.564,2.782,1.58,3.083" transform="translate(-102.076 -127.645)" fill="#407bff"/>
            <path id="Path_907203" data-name="Path 907203" d="M274.979,374.92a11.654,11.654,0,0,0,.508-8.319,16.271,16.271,0,0,0-4.563-7.087,12.653,12.653,0,0,0-8.312-3.786,4.434,4.434,0,0,0-3.583,1.4,4.628,4.628,0,0,0-.415,4.067,14.591,14.591,0,0,0,3.53,5.91,42.383,42.383,0,0,0,5.259,4.531c2.07,1.592,4.306,3.24,6.909,3.438" transform="translate(-90.39 -124.463)" fill="#407bff"/>
            <path id="Path_907204" data-name="Path 907204" d="M274.488,394.1c-.367-2.878-2.6-5.258-5.216-6.516a21.928,21.928,0,0,0-8.473-1.712,5.543,5.543,0,0,0-1.922.137,1.957,1.957,0,0,0-1.357,1.266,2.716,2.716,0,0,0,.844,2.288,16.757,16.757,0,0,0,13.1,5.932,4.7,4.7,0,0,0,1.687-.282,1.953,1.953,0,0,0,1.163-1.19" transform="translate(-90.084 -135.003)" fill="#407bff"/>
            <path id="Path_907205" data-name="Path 907205" d="M298.592,368.028a168.639,168.639,0,0,0-9.821,33.631c-.056.307.414.438.47.13a168.646,168.646,0,0,1,9.821-33.631c.119-.29-.352-.416-.47-.129" transform="translate(-101.035 -128.71)" fill="#263238"/>
            <path id="Path_907206" data-name="Path 907206" d="M280,395.41a49.924,49.924,0,0,0-1.766-15.758,35.51,35.51,0,0,0-7.526-13.589,41.105,41.105,0,0,0-7.463-6.475c-.259-.178-.5.244-.246.421a37.713,37.713,0,0,1,11.5,12.108,38.217,38.217,0,0,1,4.663,14.459,57.265,57.265,0,0,1,.352,8.832c-.01.314.478.313.488,0" transform="translate(-91.982 -125.799)" fill="#263238"/>
            <path id="Path_907207" data-name="Path 907207" d="M279.876,398.179a28.156,28.156,0,0,0-16.216-9.292c-.307-.055-.438.415-.129.47a27.744,27.744,0,0,1,16,9.167c.2.238.549-.108.345-.345" transform="translate(-92.143 -136.063)" fill="#263238"/>
            <path id="Path_907208" data-name="Path 907208" d="M274.311,417.121v-6.229h17.354v6.229s.333,11.013-5.785,12.014H280.1c-6.118-1-5.784-12.014-5.784-12.014" transform="translate(-95.976 -143.764)" fill="#407bff"/>
            <g id="Group_1114481" data-name="Group 1114481" transform="translate(178.332 267.128)" opacity="0.5">
              <g id="Group_1114480" data-name="Group 1114480">
                <g id="Group_1114479" data-name="Group 1114479" clip-path="url(#clip-path-5)">
                  <path id="Path_907209" data-name="Path 907209" d="M274.311,417.121v-6.229h17.354v6.229s.333,11.013-5.785,12.014H280.1c-6.118-1-5.784-12.014-5.784-12.014" transform="translate(-274.308 -410.892)"/>
                </g>
              </g>
            </g>
          </g>
        </g>
        <g id="Group_1114488" data-name="Group 1114488">
          <g id="Group_1114487" data-name="Group 1114487" clip-path="url(#clip-path)">
            <path id="Path_907210" data-name="Path 907210" d="M151.917,351.06s-14.36,5.165-8.338,12a29.513,29.513,0,0,1,4.081,4.691c2.089,2.943,5.922,7.134,12.006,3.853a129.692,129.692,0,0,0,13.418-8.8l-8.551-17.155a19.924,19.924,0,0,1-12.171-.719c-5.449-2.189-6.863-3.492-7.162-2.845s-.6,2.79,1.439,5.385a12.037,12.037,0,0,0,5.278,3.6" transform="translate(-49.72 -119.63)" fill="#407bff"/>
            <g id="Group_1114486" data-name="Group 1114486" transform="translate(92.384 222.284)" opacity="0.6">
              <g id="Group_1114485" data-name="Group 1114485">
                <g id="Group_1114484" data-name="Group 1114484" clip-path="url(#clip-path-7)">
                  <path id="Path_907211" data-name="Path 907211" d="M151.917,351.06s-14.36,5.165-8.338,12a29.513,29.513,0,0,1,4.081,4.691c2.089,2.943,5.922,7.134,12.006,3.853a129.692,129.692,0,0,0,13.418-8.8l-8.551-17.155a19.924,19.924,0,0,1-12.171-.719c-5.449-2.189-6.863-3.492-7.162-2.845s-.6,2.79,1.439,5.385a12.037,12.037,0,0,0,5.278,3.6" transform="translate(-142.103 -341.914)" fill="#fff"/>
                </g>
              </g>
            </g>
            <rect id="Rectangle_406518" data-name="Rectangle 406518" width="14.488" height="24.072" transform="translate(113.656 223.976) rotate(-26.493)" fill="#407bff"/>
            <path id="Path_907212" data-name="Path 907212" d="M188.7,345.682a1.767,1.767,0,1,1-1.768-1.768,1.768,1.768,0,0,1,1.768,1.768" transform="translate(-64.786 -120.33)" fill="#fff"/>
          </g>
        </g>
        <g id="Group_1114514" data-name="Group 1114514">
          <g id="Group_1114513" data-name="Group 1114513" clip-path="url(#clip-path)">
            <path id="Path_907213" data-name="Path 907213" d="M267.636,260.628H135.249a3.977,3.977,0,0,1-3.977-3.977V151.958a3.976,3.976,0,0,1,3.977-3.976H267.636a3.976,3.976,0,0,1,3.977,3.976V256.652a3.977,3.977,0,0,1-3.977,3.977" transform="translate(-45.93 -51.776)" fill="#407bff"/>
            <g id="Group_1114491" data-name="Group 1114491" transform="translate(85.342 96.206)" opacity="0.6">
              <g id="Group_1114490" data-name="Group 1114490">
                <g id="Group_1114489" data-name="Group 1114489" clip-path="url(#clip-path-9)">
                  <path id="Path_907214" data-name="Path 907214" d="M267.636,260.628H135.249a3.977,3.977,0,0,1-3.977-3.977V151.958a3.976,3.976,0,0,1,3.977-3.976H267.636a3.976,3.976,0,0,1,3.977,3.976V256.652a3.977,3.977,0,0,1-3.977,3.977" transform="translate(-131.272 -147.982)" fill="#fff"/>
                </g>
              </g>
            </g>
            <path id="Path_907215" data-name="Path 907215" d="M284.732,197.08H202.765a1.586,1.586,0,0,1-1.586-1.586V175.859a1.586,1.586,0,0,1,1.586-1.586h81.967a1.586,1.586,0,0,1,1.586,1.586v19.635a1.586,1.586,0,0,1-1.586,1.586" transform="translate(-70.389 -60.975)" fill="#407bff"/>
            <path id="Path_907216" data-name="Path 907216" d="M204.5,230.288h81.378a.976.976,0,0,0,0-1.95H204.5a.976.976,0,0,0,0,1.95" transform="translate(-71.22 -79.892)" fill="#263238"/>
            <path id="Path_907217" data-name="Path 907217" d="M204.5,238.336h81.378a.976.976,0,0,0,0-1.95H204.5a.976.976,0,0,0,0,1.95" transform="translate(-71.22 -82.707)" fill="#263238"/>
            <path id="Path_907218" data-name="Path 907218" d="M204.5,271.908h81.378a.976.976,0,0,0,0-1.95H204.5a.976.976,0,0,0,0,1.95" transform="translate(-71.22 -94.454)" fill="#263238"/>
            <path id="Path_907219" data-name="Path 907219" d="M204.5,280.668h81.378a.976.976,0,0,0,0-1.95H204.5a.976.976,0,0,0,0,1.95" transform="translate(-71.22 -97.519)" fill="#263238"/>
            <path id="Path_907220" data-name="Path 907220" d="M204.5,288.647h49.249a.976.976,0,0,0,0-1.95H204.5a.976.976,0,0,0,0,1.95" transform="translate(-71.22 -100.31)" fill="#263238"/>
            <path id="Path_907221" data-name="Path 907221" d="M204.5,263.865h81.378a.976.976,0,0,0,0-1.95H204.5a.976.976,0,0,0,0,1.95" transform="translate(-71.22 -91.64)" fill="#263238"/>
            <path id="Path_907222" data-name="Path 907222" d="M204.5,246.383h41.351a.976.976,0,0,0,0-1.95H204.5a.976.976,0,0,0,0,1.95" transform="translate(-71.22 -85.523)" fill="#263238"/>
            <g id="Group_1114494" data-name="Group 1114494" transform="translate(94.894 142.41)" opacity="0.4">
              <g id="Group_1114493" data-name="Group 1114493">
                <g id="Group_1114492" data-name="Group 1114492" clip-path="url(#clip-path-10)">
                  <path id="Path_907223" data-name="Path 907223" d="M174.526,273.15H149.3a3.338,3.338,0,0,1-3.338-3.338V222.391a3.338,3.338,0,0,1,3.338-3.337h25.225a3.338,3.338,0,0,1,3.338,3.337v47.421a3.338,3.338,0,0,1-3.338,3.338" transform="translate(-145.964 -219.053)" fill="#407bff"/>
                </g>
              </g>
            </g>
            <path id="Path_907224" data-name="Path 907224" d="M174.071,185.8A11.173,11.173,0,1,1,162.9,174.628,11.173,11.173,0,0,1,174.071,185.8" transform="translate(-53.086 -61.099)" fill="#407bff"/>
            <g id="Group_1114497" data-name="Group 1114497" transform="translate(90.498 101.256)" opacity="0.4">
              <g id="Group_1114496" data-name="Group 1114496">
                <g id="Group_1114495" data-name="Group 1114495" clip-path="url(#clip-path-11)">
                  <path id="Path_907225" data-name="Path 907225" d="M143.6,157.949a2.2,2.2,0,1,1-2.2-2.2,2.2,2.2,0,0,1,2.2,2.2" transform="translate(-139.202 -155.751)" fill="#407bff"/>
                </g>
              </g>
            </g>
            <g id="Group_1114500" data-name="Group 1114500" transform="translate(96.442 101.256)" opacity="0.4">
              <g id="Group_1114499" data-name="Group 1114499">
                <g id="Group_1114498" data-name="Group 1114498" clip-path="url(#clip-path-11)">
                  <path id="Path_907226" data-name="Path 907226" d="M152.741,157.949a2.2,2.2,0,1,1-2.2-2.2,2.2,2.2,0,0,1,2.2,2.2" transform="translate(-148.345 -155.751)" fill="#407bff"/>
                </g>
              </g>
            </g>
            <g id="Group_1114503" data-name="Group 1114503" transform="translate(102.385 101.256)" opacity="0.4">
              <g id="Group_1114502" data-name="Group 1114502">
                <g id="Group_1114501" data-name="Group 1114501" clip-path="url(#clip-path-11)">
                  <path id="Path_907227" data-name="Path 907227" d="M161.883,157.949a2.2,2.2,0,1,1-2.2-2.2,2.2,2.2,0,0,1,2.2,2.2" transform="translate(-157.487 -155.751)" fill="#407bff"/>
                </g>
              </g>
            </g>
            <path id="Path_907228" data-name="Path 907228" d="M202.529,190.064a35.575,35.575,0,0,1,14.543-5.137,11.585,11.585,0,0,1,7.183,1.285c1.935,1.166,3.558,3.3,3.264,5.667a3.075,3.075,0,0,1-2.137,2.662,2.178,2.178,0,0,1-2.547-1.043,4.232,4.232,0,0,1,1.075-5.036c3.433-3.287,8.615-1.857,12.373-.075,4.195,1.989,8.578,4.79,13.437,3.932a6.509,6.509,0,0,0,4.639-3.016,3.96,3.96,0,0,0-.538-4.575,2.975,2.975,0,0,0-4.223-.326,4.225,4.225,0,0,0-.791,5.074c1.73,3.674,6.414,5.4,10.229,4.518,4.182-.964,6.8-4.692,10.167-7.026a13.861,13.861,0,0,1,12.4-1.6,13.268,13.268,0,0,1,2.97,1.505c.523.35,1.012-.495.492-.842a14.866,14.866,0,0,0-12-1.921,15.021,15.021,0,0,0-5.438,2.829c-1.708,1.352-3.222,2.939-4.983,4.226a9.536,9.536,0,0,1-6.12,2.08,8.51,8.51,0,0,1-5.834-2.71,4.753,4.753,0,0,1-1.411-3.491,2.612,2.612,0,0,1,1.989-2.4,2.321,2.321,0,0,1,2.3,1.431,2.935,2.935,0,0,1-.163,2.928c-1.238,2.017-3.883,2.608-6.082,2.482a19.56,19.56,0,0,1-7.429-2.39c-3.949-1.961-8.157-4.35-12.723-3.342-3.3.728-6.7,3.717-5.53,7.421a3.251,3.251,0,0,0,3.676,2.382,4.124,4.124,0,0,0,3.212-4.144c.044-4.5-4.564-7.162-8.533-7.5a22.814,22.814,0,0,0-7.662.934,39.2,39.2,0,0,0-6.96,2.567c-1.142.548-2.253,1.155-3.337,1.809a.488.488,0,0,0,.492.842" transform="translate(-70.608 -64.239)" fill="#fff"/>
            <g id="Group_1114506" data-name="Group 1114506" transform="translate(131.859 139.121)" opacity="0.4">
              <g id="Group_1114505" data-name="Group 1114505">
                <g id="Group_1114504" data-name="Group 1114504" clip-path="url(#clip-path-14)">
                  <path id="Path_907229" data-name="Path 907229" d="M215.542,217.283H203.685a.861.861,0,0,1-.861-.861v-1.567a.861.861,0,0,1,.861-.861h11.856a.861.861,0,0,1,.861.861v1.567a.861.861,0,0,1-.861.861" transform="translate(-202.824 -213.994)" fill="#407bff"/>
                </g>
              </g>
            </g>
            <g id="Group_1114509" data-name="Group 1114509" transform="translate(148.416 139.121)" opacity="0.4">
              <g id="Group_1114508" data-name="Group 1114508">
                <g id="Group_1114507" data-name="Group 1114507" clip-path="url(#clip-path-15)">
                  <path id="Path_907230" data-name="Path 907230" d="M246.933,217.283H229.153a.861.861,0,0,1-.861-.861v-1.567a.861.861,0,0,1,.861-.861h17.779a.861.861,0,0,1,.861.861v1.567a.861.861,0,0,1-.861.861" transform="translate(-228.292 -213.994)" fill="#407bff"/>
                </g>
              </g>
            </g>
            <g id="Group_1114512" data-name="Group 1114512" transform="translate(170.979 139.121)" opacity="0.4">
              <g id="Group_1114511" data-name="Group 1114511">
                <g id="Group_1114510" data-name="Group 1114510" clip-path="url(#clip-path-16)">
                  <path id="Path_907231" data-name="Path 907231" d="M276.045,217.283H263.858a.861.861,0,0,1-.861-.861v-1.567a.861.861,0,0,1,.861-.861h12.188a.861.861,0,0,1,.861.861v1.567a.861.861,0,0,1-.861.861" transform="translate(-262.997 -213.994)" fill="#407bff"/>
                </g>
              </g>
            </g>
          </g>
        </g>
        <g id="Group_1114519" data-name="Group 1114519">
          <g id="Group_1114518" data-name="Group 1114518" clip-path="url(#clip-path)">
            <path id="Path_907232" data-name="Path 907232" d="M207.551,114.9H125.795a3.751,3.751,0,0,1-3.751-3.751V91.1a3.751,3.751,0,0,1,3.751-3.751h81.756A3.751,3.751,0,0,1,211.3,91.1V111.15a3.751,3.751,0,0,1-3.751,3.751" transform="translate(-42.701 -30.564)" fill="#407bff"/>
            <path id="Path_907233" data-name="Path 907233" d="M207.551,114.9H125.795a3.751,3.751,0,0,1-3.751-3.751V91.1a3.751,3.751,0,0,1,3.751-3.751h81.756A3.751,3.751,0,0,1,211.3,91.1V111.15a3.751,3.751,0,0,1-3.751,3.751" transform="translate(-42.701 -30.564)" fill="#407bff"/>
            <g id="Group_1114517" data-name="Group 1114517" transform="translate(79.343 56.79)" opacity="0.6">
              <g id="Group_1114516" data-name="Group 1114516">
                <g id="Group_1114515" data-name="Group 1114515" clip-path="url(#clip-path-18)">
                  <path id="Path_907234" data-name="Path 907234" d="M207.551,114.9H125.795a3.751,3.751,0,0,1-3.751-3.751V91.1a3.751,3.751,0,0,1,3.751-3.751h81.756A3.751,3.751,0,0,1,211.3,91.1V111.15a3.751,3.751,0,0,1-3.751,3.751" transform="translate(-122.044 -87.354)" fill="#fff"/>
                </g>
              </g>
            </g>
            <path id="Path_907235" data-name="Path 907235" d="M140.687,96.486l1.818,3.684a1.082,1.082,0,0,0,.814.592l4.066.591a1.081,1.081,0,0,1,.6,1.845l-2.942,2.867a1.082,1.082,0,0,0-.311.958l.694,4.05a1.082,1.082,0,0,1-1.569,1.14L140.22,110.3a1.08,1.08,0,0,0-1.006,0l-3.637,1.912a1.082,1.082,0,0,1-1.569-1.14l.695-4.05a1.084,1.084,0,0,0-.311-.958l-2.942-2.867a1.081,1.081,0,0,1,.6-1.845l4.066-.591a1.081,1.081,0,0,0,.814-.592l1.818-3.684a1.082,1.082,0,0,1,1.94,0" transform="translate(-45.877 -33.548)" fill="#407bff"/>
            <path id="Path_907236" data-name="Path 907236" d="M172.309,96.486l1.818,3.684a1.081,1.081,0,0,0,.814.592l4.066.591a1.081,1.081,0,0,1,.6,1.845l-2.942,2.867a1.084,1.084,0,0,0-.311.958l.695,4.05a1.082,1.082,0,0,1-1.569,1.14l-3.637-1.912a1.08,1.08,0,0,0-1.006,0l-3.637,1.912a1.082,1.082,0,0,1-1.569-1.14l.695-4.05a1.084,1.084,0,0,0-.311-.958l-2.942-2.867a1.081,1.081,0,0,1,.6-1.845l4.066-.591a1.082,1.082,0,0,0,.814-.592l1.818-3.684a1.082,1.082,0,0,1,1.94,0" transform="translate(-56.941 -33.548)" fill="#407bff"/>
            <path id="Path_907237" data-name="Path 907237" d="M203.93,96.486l1.818,3.684a1.081,1.081,0,0,0,.814.592l4.066.591a1.081,1.081,0,0,1,.6,1.845l-2.942,2.867a1.084,1.084,0,0,0-.311.958l.695,4.05a1.082,1.082,0,0,1-1.569,1.14l-3.637-1.912a1.08,1.08,0,0,0-1.006,0l-3.637,1.912a1.082,1.082,0,0,1-1.569-1.14l.695-4.05a1.084,1.084,0,0,0-.311-.958l-2.942-2.867a1.081,1.081,0,0,1,.6-1.845l4.066-.591a1.082,1.082,0,0,0,.814-.592l1.818-3.684a1.082,1.082,0,0,1,1.94,0" transform="translate(-68.005 -33.548)" fill="#407bff"/>
            <path id="Path_907238" data-name="Path 907238" d="M235.551,96.486l1.818,3.684a1.081,1.081,0,0,0,.814.592l4.066.591a1.081,1.081,0,0,1,.6,1.845l-2.942,2.867a1.084,1.084,0,0,0-.311.958l.695,4.05a1.082,1.082,0,0,1-1.569,1.14l-3.637-1.912a1.08,1.08,0,0,0-1.006,0l-3.637,1.912a1.082,1.082,0,0,1-1.569-1.14l.694-4.05a1.082,1.082,0,0,0-.311-.958l-2.942-2.867a1.081,1.081,0,0,1,.6-1.845l4.066-.591a1.082,1.082,0,0,0,.814-.592l1.818-3.684a1.082,1.082,0,0,1,1.94,0" transform="translate(-79.069 -33.548)" fill="#407bff"/>
          </g>
        </g>
        <g id="Group_1114527" data-name="Group 1114527">
          <g id="Group_1114526" data-name="Group 1114526" clip-path="url(#clip-path)">
            <path id="Path_907239" data-name="Path 907239" d="M430.578,106.2c2.546-1.22,3.457-4.758,2.2-7.284a7.5,7.5,0,0,0-7.054-3.782,11.771,11.771,0,0,0-7.46,3.6,6.4,6.4,0,0,0-8.593-.952c-2.467,1.943-2.055,5.923-.2,8.472a5.361,5.361,0,0,0,3.922,9.97,7.39,7.39,0,0,0,14.774.324,5.426,5.426,0,1,0,2.418-10.347" transform="translate(-142.147 -33.282)" fill="#407bff"/>
            <path id="Path_907240" data-name="Path 907240" d="M413.877,133.228a1.622,1.622,0,1,1-1.622-1.622,1.622,1.622,0,0,1,1.622,1.622" transform="translate(-143.673 -46.047)" fill="#407bff"/>
            <g id="Group_1114522" data-name="Group 1114522" transform="translate(264.122 61.84)" opacity="0.6">
              <g id="Group_1114521" data-name="Group 1114521">
                <g id="Group_1114520" data-name="Group 1114520" clip-path="url(#clip-path-20)">
                  <path id="Path_907241" data-name="Path 907241" d="M430.578,106.2c2.546-1.22,3.457-4.758,2.2-7.284a7.5,7.5,0,0,0-7.054-3.782,11.771,11.771,0,0,0-7.46,3.6,6.4,6.4,0,0,0-8.593-.952c-2.467,1.943-2.055,5.923-.2,8.472a5.361,5.361,0,0,0,3.922,9.97,7.39,7.39,0,0,0,14.774.324,5.426,5.426,0,1,0,2.418-10.347" transform="translate(-406.269 -95.122)" fill="#fff"/>
                </g>
              </g>
            </g>
            <g id="Group_1114525" data-name="Group 1114525" transform="translate(266.959 85.559)" opacity="0.6">
              <g id="Group_1114524" data-name="Group 1114524">
                <g id="Group_1114523" data-name="Group 1114523" clip-path="url(#clip-path-21)">
                  <path id="Path_907242" data-name="Path 907242" d="M413.877,133.228a1.622,1.622,0,1,1-1.622-1.622,1.622,1.622,0,0,1,1.622,1.622" transform="translate(-410.632 -131.606)" fill="#fff"/>
                </g>
              </g>
            </g>
            <path id="Path_907243" data-name="Path 907243" d="M426.508,114.274A7.5,7.5,0,0,1,427.5,113a6.534,6.534,0,0,0,.7-.858,1.427,1.427,0,0,0,.224-.791,1.241,1.241,0,0,0-.426-.993,1.684,1.684,0,0,0-1.135-.365,2.217,2.217,0,0,0-1.207.332,2.762,2.762,0,0,0-.889.925l-1.75-1.205a4.335,4.335,0,0,1,1.641-1.682,4.829,4.829,0,0,1,2.45-.595,4.05,4.05,0,0,1,2.667.833,2.836,2.836,0,0,1,1,2.311,3.512,3.512,0,0,1-.2,1.223,3.344,3.344,0,0,1-.477.891q-.282.366-.729.841a6.756,6.756,0,0,0-.781.943,1.674,1.674,0,0,0-.246.926h-2.182a2.847,2.847,0,0,1,.339-1.461m-.23,5.148a1.342,1.342,0,0,1-.4-.981,1.307,1.307,0,0,1,.39-.965,1.478,1.478,0,0,1,2,0,1.307,1.307,0,0,1,.39.965,1.4,1.4,0,0,1-2.377.981" transform="translate(-148.007 -37.706)" fill="#407bff"/>
          </g>
        </g>
        <g id="Group_1114529" data-name="Group 1114529">
          <g id="Group_1114528" data-name="Group 1114528" clip-path="url(#clip-path)">
            <path id="Path_907244" data-name="Path 907244" d="M76.239,113.486H60.547a5.929,5.929,0,0,1-5.928-5.928V97.406a5.929,5.929,0,0,1,5.928-5.928H76.239a5.929,5.929,0,0,1,5.928,5.928v10.152a5.929,5.929,0,0,1-5.928,5.928" transform="translate(-19.11 -32.007)" fill="#407bff"/>
            <path id="Path_907245" data-name="Path 907245" d="M82.239,108.144a1.911,1.911,0,1,0,1.911-1.911,1.911,1.911,0,0,0-1.911,1.911" transform="translate(-28.774 -37.169)" fill="#fff"/>
            <path id="Path_907246" data-name="Path 907246" d="M72,108.144a1.911,1.911,0,1,0,1.911-1.911A1.911,1.911,0,0,0,72,108.144" transform="translate(-25.191 -37.169)" fill="#fff"/>
            <path id="Path_907247" data-name="Path 907247" d="M61.838,108.144a1.911,1.911,0,1,0,1.911-1.911,1.911,1.911,0,0,0-1.911,1.911" transform="translate(-21.636 -37.169)" fill="#fff"/>
            <path id="Path_907248" data-name="Path 907248" d="M83.948,123.358l4.5,4.5.923-5.75Z" transform="translate(-29.372 -42.723)" fill="#407bff"/>
          </g>
        </g>
        <g id="Group_1114546" data-name="Group 1114546">
          <g id="Group_1114545" data-name="Group 1114545" clip-path="url(#clip-path)">
            <path id="Path_907249" data-name="Path 907249" d="M355.591,50.257A40.329,40.329,0,1,1,315.262,9.928a40.329,40.329,0,0,1,40.329,40.329" transform="translate(-96.194 -3.474)" fill="#407bff"/>
            <g id="Group_1114532" data-name="Group 1114532" transform="translate(178.739 6.454)" opacity="0.7">
              <g id="Group_1114531" data-name="Group 1114531">
                <g id="Group_1114530" data-name="Group 1114530" clip-path="url(#clip-path-24)">
                  <path id="Path_907250" data-name="Path 907250" d="M355.591,50.257A40.329,40.329,0,1,1,315.262,9.928a40.329,40.329,0,0,1,40.329,40.329" transform="translate(-274.933 -9.928)" fill="#fff"/>
                </g>
              </g>
            </g>
            <path id="Path_907251" data-name="Path 907251" d="M339.037,54.281l-9.084-1.993-8.944-.31c-.013-.238-9.492.246-10.565,1.987-.792,1.285-2.175,29.987-3.625,46.321,6.1,3.718,11.871,5.044,19.541,5.044a40.162,40.162,0,0,0,16.82-3.677c-.594-11.542-1.5-30.606-1.227-35.141a23.939,23.939,0,0,0-2.916-12.231" transform="translate(-107.351 -18.166)" fill="#407bff"/>
            <path id="Path_907252" data-name="Path 907252" d="M295.837,73.909c-.459.765-6.56,18.284-15.119,17.474-7.565-.716-16.69-18.156-16.69-18.156l3.643-3.652s9.875,11.725,12.674,12.24c2.342.432,10.527-15.974,10.527-15.974Z" transform="translate(-92.379 -23.037)" fill="#fdbbb5"/>
            <path id="Path_907253" data-name="Path 907253" d="M253.507,65.932a4.229,4.229,0,0,1,.646-.882,2.759,2.759,0,0,1-.251-.72c-.033-.682.61-1.2,1.237-1.483-.164-.179-.133-1.7,1.141-1.591-.451-.828.681-2.074,1.78-1.53.5.248,2.538,1.885,3.137,2.266a5.681,5.681,0,0,1,1.37-2.542A2.46,2.46,0,0,1,264,58.844c.354.049.159.431.182.784a11.17,11.17,0,0,1-.45,1.558,15.8,15.8,0,0,0,.446,6.93l-3.643,3.145C258,69.727,258.1,69.315,255.18,68.1c-1.049-.438-1.88-1.115-1.673-2.165" transform="translate(-88.687 -20.587)" fill="#fdbbb5"/>
            <path id="Path_907254" data-name="Path 907254" d="M257.745,62.467a9.559,9.559,0,0,0,1.193.782,3.448,3.448,0,0,0,1.287.513,1,1,0,0,0,.945-.516,1.438,1.438,0,0,0,.027-1.233c-.068-.174-.35-.1-.282.077a1.142,1.142,0,0,1-.035,1.067.771.771,0,0,1-.965.235,6.245,6.245,0,0,1-1.036-.514,9.584,9.584,0,0,1-.986-.664c-.15-.114-.3.14-.148.252" transform="translate(-90.159 -21.663)" fill="#ff7d74"/>
            <path id="Path_907255" data-name="Path 907255" d="M259.06,64.655a.76.76,0,0,1,.2.938.784.784,0,0,1-.9.36,5.346,5.346,0,0,1-1.136-.505c-.379-.2-.75-.411-1.112-.638-.16-.1-.307.153-.148.252a15.676,15.676,0,0,0,1.4.784,2.5,2.5,0,0,0,1.4.418,1.03,1.03,0,0,0,.5-1.814c-.142-.122-.35.085-.207.206" transform="translate(-89.534 -22.537)" fill="#ff7d74"/>
            <path id="Path_907256" data-name="Path 907256" d="M257.629,67.218a.814.814,0,0,1-.513,1.486,3.886,3.886,0,0,1-1.217-.372l-1.281-.49c-.176-.068-.252.215-.078.282l1.642.629a1.9,1.9,0,0,0,1.413.158,1.116,1.116,0,0,0,.181-1.944c-.155-.108-.3.146-.148.252" transform="translate(-89.025 -23.421)" fill="#ff7d74"/>
            <path id="Path_907257" data-name="Path 907257" d="M257.061,69.891a.629.629,0,0,1,.226.591.77.77,0,0,1-.394.555,1.685,1.685,0,0,1-1.656-.181.146.146,0,0,0-.148.253,1.919,1.919,0,0,0,2.03.131,1.054,1.054,0,0,0,.461-.758.9.9,0,0,0-.311-.8.151.151,0,0,0-.207,0,.147.147,0,0,0,0,.207" transform="translate(-89.226 -24.367)" fill="#ff7d74"/>
            <path id="Path_907258" data-name="Path 907258" d="M264.18,64.459a4.312,4.312,0,0,0-.931,5.257c.088.166.341.019.252-.148a4.017,4.017,0,0,1,.885-4.9c.141-.125-.066-.331-.206-.207" transform="translate(-91.927 -22.54)" fill="#ff7d74"/>
            <path id="Path_907259" data-name="Path 907259" d="M315.05,58.484c-1.482,4.873-8.18,18.761-8.18,18.761l-12.627-7.106s5.217-10.5,9.18-14.449c6.079-4.826,13.537-3.49,11.627,2.794" transform="translate(-102.951 -18.466)" fill="#407bff"/>
            <g id="Group_1114535" data-name="Group 1114535" transform="translate(196.509 46.128)" opacity="0.2" style="isolation: isolate">
              <g id="Group_1114534" data-name="Group 1114534">
                <g id="Group_1114533" data-name="Group 1114533" clip-path="url(#clip-path-25)">
                  <path id="Path_907260" data-name="Path 907260" d="M306.174,81.633l1.3-10.679-5.211,8.48Z" transform="translate(-302.267 -70.954)"/>
                </g>
              </g>
            </g>
            <path id="Path_907261" data-name="Path 907261" d="M328.147,37.112l9.7-5.161a5.815,5.815,0,0,1-.664,2.771c-4.966,6.487-1.116,10.551-1.116,10.551-2.62,1.933-8.442,2.833-9.6-.21a22.269,22.269,0,0,0,1.677-7.952" transform="translate(-114.226 -11.179)" fill="#fdbbb5"/>
            <g id="Group_1114538" data-name="Group 1114538" transform="translate(213.062 28.126)" opacity="0.2">
              <g id="Group_1114537" data-name="Group 1114537">
                <g id="Group_1114536" data-name="Group 1114536" clip-path="url(#clip-path-26)">
                  <path id="Path_907262" data-name="Path 907262" d="M328.229,44.126l5.447-.863c-.595,1.638-2.2,3.522-5.947,3.441a16.519,16.519,0,0,0,.5-2.578" transform="translate(-327.729 -43.263)"/>
                </g>
              </g>
            </g>
            <path id="Path_907263" data-name="Path 907263" d="M319.263,13.275c-1.238,2.087-1.016,7.469,2.485,6.7s-.358-10.289-2.485-6.7" transform="translate(-111.465 -4.363)" fill="#263238"/>
            <path id="Path_907264" data-name="Path 907264" d="M335.116,19.764c-1.012,5.873-1.464,9.206-4.786,11.885-14.312,8.845-17.107-17.759-5.479-21.285a8.222,8.222,0,0,1,10.265,9.4" transform="translate(-111.129 -3.519)" fill="#fdbbb5"/>
            <path id="Path_907265" data-name="Path 907265" d="M346.168,14.668s-5.341-.749-6.24-.817-1.813,3.132-1.686,4.172,1.536,1.5,1.5,2.487c-.045.846-1.463,3.318-.958,4.458.577.457,3.752-1.44,3.752-1.44l1.859.68s5.332-7.145,1.774-9.542" transform="translate(-118.341 -4.846)" fill="#263238"/>
            <path id="Path_907266" data-name="Path 907266" d="M339.15,11.248a2.388,2.388,0,0,0,.5-3c0,.442-.562.966-.906,1.153-.345-1.341-2.09-3.648-6.989-4.741-6.03-1.341-7.61.7-9.37-.21s.441-1.6.441-1.6-3.042-.7-4.023,1.6-.135,6.337,5.244,6.082,6.427,1.5,9.139,1.064a45.357,45.357,0,0,1,5.963-.345" transform="translate(-111.421 -0.962)" fill="#263238"/>
            <path id="Path_907267" data-name="Path 907267" d="M344.177,30.833c-1.038,3.089-6.42,4.773-5.731.159.4-4.491,7.076-5.6,5.731-.159" transform="translate(-118.395 -9.508)" fill="#fdbbb5"/>
            <path id="Path_907268" data-name="Path 907268" d="M330.308,25.389c0,1.438-1.469,1.4-1.443-.024,0-1.438,1.468-1.4,1.443.024" transform="translate(-115.065 -8.503)" fill="#263238"/>
            <path id="Path_907269" data-name="Path 907269" d="M321.538,25.825c0,1.438-1.469,1.4-1.443-.024,0-1.438,1.469-1.4,1.443.024" transform="translate(-111.996 -8.656)" fill="#263238"/>
            <path id="Path_907270" data-name="Path 907270" d="M323.495,25.176s-2.245,2.8-2.994,3.953a2.876,2.876,0,0,0,2.248.662Z" transform="translate(-112.138 -8.809)" fill="#ff7d74"/>
            <path id="Path_907271" data-name="Path 907271" d="M332.589,21.327a.287.287,0,0,1-.28-.071,2.3,2.3,0,0,0-1.953-.677c-1.248-.552,1.058-1.107,2.35.272a.284.284,0,0,1-.118.475" transform="translate(-115.461 -6.993)" fill="#263238"/>
            <g id="Group_1114541" data-name="Group 1114541" transform="translate(221.554 18.963)" opacity="0.2">
              <g id="Group_1114540" data-name="Group 1114540">
                <g id="Group_1114539" data-name="Group 1114539" clip-path="url(#clip-path-27)">
                  <path id="Path_907272" data-name="Path 907272" d="M343.935,29.94c-.985-1.37-2.721.253-2.894,1.475" transform="translate(-340.878 -29.256)" fill="none" stroke="#000" stroke-linecap="round" stroke-linejoin="round" stroke-width="0.5"/>
                </g>
              </g>
            </g>
            <path id="Path_907273" data-name="Path 907273" d="M318.378,20.384a.289.289,0,0,1-.088-.5,2.809,2.809,0,0,1,2.531-.54.286.286,0,0,1-.178.542c-.19-.215-1.281-.008-2.264.495" transform="translate(-111.327 -6.734)" fill="#263238"/>
            <path id="Path_907274" data-name="Path 907274" d="M325.2,34.015A17.57,17.57,0,0,1,326.66,36.1c.138-.055.282-.107.417-.168,1.882-.77,2.5-1.748,2.613-2.6a2.693,2.693,0,0,0-.155-1.236,2.568,2.568,0,0,0-.324-.63,9.542,9.542,0,0,1-3.377,2.275c-.408.161-.636.276-.636.276" transform="translate(-113.781 -11.009)" fill="#263238"/>
            <path id="Path_907275" data-name="Path 907275" d="M326.176,33.724l.449.6c1.767-.728,2.914-1.473,3.252-2.248a2.547,2.547,0,0,0-.324-.63,9.457,9.457,0,0,1-3.377,2.275" transform="translate(-114.124 -11.003)" fill="#fff"/>
            <path id="Path_907276" data-name="Path 907276" d="M328.052,36.961c1.883-.77,2.5-1.748,2.613-2.6a6.545,6.545,0,0,0-1.92,1.267,2.465,2.465,0,0,0-.692,1.334" transform="translate(-114.78 -12.022)" fill="#ff3f3e"/>
            <path id="Path_907277" data-name="Path 907277" d="M308.36,79.967l1.783-12.273c.045-.307-.425-.439-.47-.129L307.89,79.838c-.045.307.425.439.47.129" transform="translate(-107.725 -23.578)"/>
            <path id="Path_907278" data-name="Path 907278" d="M367.312,97.818a251.8,251.8,0,0,0-5.294-28.5,5.747,5.747,0,0,0-4.625-4.1,3.727,3.727,0,0,0-2.547.393c-2.627,1.561-3.1,6.709-1.893,11.082,1.389,5.026,4.237,12.718,5.654,19.554.118.573.216,5.047.289,10.141a39.326,39.326,0,0,0,8.286-5.033,21.817,21.817,0,0,0,.129-3.537" transform="translate(-123.272 -22.796)" fill="#fdbbb5"/>
            <path id="Path_907279" data-name="Path 907279" d="M360.735,61.856c2.415,6.129,5.052,15.8,5.052,15.8l-13.688,3.1c-1.564-4.833-3.518-10.1-3.056-15.162.714-6.876,1.378-11.135,5.6-9.877a9.883,9.883,0,0,1,6.092,6.136" transform="translate(-122.1 -19.419)" fill="#407bff"/>
            <path id="Path_907280" data-name="Path 907280" d="M366.2,84.088l-12.973,3.1.3.17q-1.36-6.315-2.72-12.63c-.066-.306-.536-.177-.471.13q1.36,6.314,2.72,12.629a.248.248,0,0,0,.3.17l12.972-3.1c.306-.073.176-.543-.129-.47" transform="translate(-122.573 -26.087)"/>
            <g id="Group_1114544" data-name="Group 1114544" transform="translate(205.967 62.208)" opacity="0.3">
              <g id="Group_1114543" data-name="Group 1114543">
                <g id="Group_1114542" data-name="Group 1114542" clip-path="url(#clip-path-28)">
                  <path id="Path_907281" data-name="Path 907281" d="M336.643,111.725a79.047,79.047,0,0,1-19.418-15.958c-.208-.236-.552.11-.345.345A79.461,79.461,0,0,0,336.4,112.147a.244.244,0,0,0,.246-.421" transform="translate(-316.816 -95.688)"/>
                </g>
              </g>
            </g>
          </g>
        </g>
        <g id="Group_1114548" data-name="Group 1114548">
          <g id="Group_1114547" data-name="Group 1114547" clip-path="url(#clip-path)">
            <path id="Path_907282" data-name="Path 907282" d="M264.55,20.76a12.983,12.983,0,0,1,3-18.268,13.355,13.355,0,0,1,18.5,2.91,12.929,12.929,0,0,1,.322,14.82l1.029,3.793-4.177-.481c-.059.044-.111.093-.172.136a13.355,13.355,0,0,1-18.5-2.909" transform="translate(-91.685 0)" fill="#407bff"/>
            <path id="Path_907283" data-name="Path 907283" d="M262.9,5.36a12.893,12.893,0,0,0-4.026,11.578" transform="translate(-90.515 -1.875)" fill="none" stroke="#407bff" stroke-linecap="round" stroke-linejoin="round" stroke-width="1"/>
            <path id="Path_907284" data-name="Path 907284" d="M259.6,26.106a4.681,4.681,0,0,0,.582,1.843" transform="translate(-90.828 -9.134)" fill="none" stroke="#407bff" stroke-linecap="round" stroke-linejoin="round" stroke-width="1"/>
            <path id="Path_907285" data-name="Path 907285" d="M279.01,22.877l-6.536-4.683,1.634-2.281,4.383,3.14,5.811-7.2,2.182,1.763Z" transform="translate(-95.334 -4.148)" fill="#fff"/>
          </g>
        </g>
        <path id="Path_907286" data-name="Path 907286" d="M424.518,412.356l-8.694-.523,2.521,14.161,5.634,1.16Z" transform="translate(-145.49 -144.094)" fill="#e0e0e0"/>
        <g id="Group_1114589" data-name="Group 1114589">
          <g id="Group_1114588" data-name="Group 1114588" clip-path="url(#clip-path)">
            <path id="Path_907287" data-name="Path 907287" d="M411.975,429.674l2.149-.012a1.61,1.61,0,0,1,1.248.6c1.3,1.608,2.211.993,3.5-.532.854-.1,1.121.837,1.2,1.089l1.826,5.567a.843.843,0,0,1-.588,1.088.964.964,0,0,1-.266.035l-7.095.038-9.936.053c-2.709.014-3.372-2.586-2.266-2.833,4.975-1.084,8.473-2.511,9.969-3.912.278-.245-.024-.426.259-1.183" transform="translate(-140.386 -150.332)" fill="#263238"/>
            <path id="Path_907288" data-name="Path 907288" d="M411.933,431.853a10.1,10.1,0,0,0,2-.259.109.109,0,0,0,.066-.146.122.122,0,0,0-.075-.068c-.307-.139-3.042-1.323-3.7-.864a.356.356,0,0,0-.161.362.86.86,0,0,0,.391.668,2.551,2.551,0,0,0,1.472.307m1.578-.41c-.788.144-2.254.34-2.882-.092a.691.691,0,0,1-.285-.488.139.139,0,0,1,.064-.154c.362-.25,1.969.27,3.1.733" transform="translate(-143.475 -150.594)" fill="#407bff"/>
            <path id="Path_907289" data-name="Path 907289" d="M414.6,430.848a.155.155,0,0,0,.085,0,.109.109,0,0,0,.03-.121c0-.107-.735-2.627-2.2-2.459-.363.049-.462.217-.47.358-.065.67,1.675,1.926,2.5,2.243Zm-1.932-2.379c.934-.005,1.531,1.465,1.737,2.052-.895-.437-2.164-1.481-2.1-1.89,0-.033-.005-.127.267-.155Z" transform="translate(-144.167 -149.841)" fill="#407bff"/>
            <path id="Path_907290" data-name="Path 907290" d="M415.554,432.126a2.734,2.734,0,0,1,1.87,1.112" transform="translate(-145.395 -151.194)" fill="none" stroke="#407bff" stroke-linecap="round" stroke-linejoin="round" stroke-width="0.5"/>
            <path id="Path_907291" data-name="Path 907291" d="M413.557,433.612a2.731,2.731,0,0,1,1.87,1.112" transform="translate(-144.697 -151.714)" fill="none" stroke="#407bff" stroke-linecap="round" stroke-linejoin="round" stroke-width="0.5"/>
            <path id="Path_907292" data-name="Path 907292" d="M411.049,434.866a2.732,2.732,0,0,1,1.869,1.112" transform="translate(-143.819 -152.152)" fill="none" stroke="#407bff" stroke-linecap="round" stroke-linejoin="round" stroke-width="0.5"/>
            <path id="Path_907293" data-name="Path 907293" d="M368.863,410.639l-9.044-1.105,1.785,14.792,5.634,1.16Z" transform="translate(-125.894 -143.289)" fill="#e0e0e0"/>
            <path id="Path_907294" data-name="Path 907294" d="M354.836,428.345l2.149-.012a1.61,1.61,0,0,1,1.248.6c1.3,1.608,2.211.993,3.5-.532.854-.1,1.121.837,1.2,1.089l1.826,5.567a.843.843,0,0,1-.589,1.088.955.955,0,0,1-.265.035l-7.095.038-9.936.053c-2.709.014-3.372-2.587-2.266-2.833,4.975-1.084,8.473-2.511,9.969-3.912.278-.245-.024-.426.259-1.183" transform="translate(-120.394 -149.867)" fill="#263238"/>
            <path id="Path_907295" data-name="Path 907295" d="M354.794,430.523a10.1,10.1,0,0,0,2-.259.109.109,0,0,0,.066-.146.123.123,0,0,0-.075-.068c-.307-.139-3.042-1.322-3.7-.864a.357.357,0,0,0-.162.362.862.862,0,0,0,.391.668,2.551,2.551,0,0,0,1.472.307m1.577-.41c-.787.144-2.254.34-2.881-.092a.691.691,0,0,1-.285-.488.14.14,0,0,1,.064-.154c.362-.25,1.969.27,3.1.733" transform="translate(-123.483 -150.128)" fill="#407bff"/>
            <path id="Path_907296" data-name="Path 907296" d="M357.463,429.52a.153.153,0,0,0,.084,0,.108.108,0,0,0,.031-.121c0-.107-.735-2.627-2.2-2.458-.363.049-.462.217-.47.357-.065.67,1.675,1.926,2.5,2.243Zm-1.932-2.379c.933-.005,1.531,1.465,1.736,2.053-.894-.438-2.164-1.482-2.1-1.891,0-.033-.005-.127.267-.155Z" transform="translate(-124.175 -149.377)" fill="#407bff"/>
            <path id="Path_907297" data-name="Path 907297" d="M358.415,430.8a2.734,2.734,0,0,1,1.87,1.112" transform="translate(-125.403 -150.729)" fill="none" stroke="#407bff" stroke-linecap="round" stroke-linejoin="round" stroke-width="0.5"/>
            <path id="Path_907298" data-name="Path 907298" d="M356.418,432.283a2.731,2.731,0,0,1,1.869,1.112" transform="translate(-124.705 -151.249)" fill="none" stroke="#407bff" stroke-linecap="round" stroke-linejoin="round" stroke-width="0.5"/>
            <path id="Path_907299" data-name="Path 907299" d="M353.91,433.537a2.732,2.732,0,0,1,1.869,1.112" transform="translate(-123.827 -151.687)" fill="none" stroke="#407bff" stroke-linecap="round" stroke-linejoin="round" stroke-width="0.5"/>
            <path id="Path_907300" data-name="Path 907300" d="M364.884,263.736c.033.669-9.093,43.79-9.632,54.318s2,50.39,2,50.39l10.047-.072s1.971-18.154,1.427-25.725-.745-19.439,1.729-26.263,10.785-29.309,10.785-29.309l-2.918-21.088Z" transform="translate(-124.27 -92.277)" fill="#263238"/>
            <path id="Path_907301" data-name="Path 907301" d="M407.189,261.31c1.082.618,1.319,12.672,1.27,26.081s3.607,38.033,4.369,46.486,2.077,35.426,1.727,35.443-11.571.116-11.254-.569-2.333-12.255-5.677-32.72c-3.28-20.07-9.407-41.8-10.665-48.577-.99-5.332-2.883-14.516-2.883-14.516l-.51-10.477Z" transform="translate(-134.203 -91.428)" fill="#263238"/>
            <g id="Group_1114551" data-name="Group 1114551" transform="translate(239.298 174.535)" opacity="0.3">
              <g id="Group_1114550" data-name="Group 1114550">
                <g id="Group_1114549" data-name="Group 1114549" clip-path="url(#clip-path-31)">
                  <path id="Path_907302" data-name="Path 907302" d="M402.58,268.467s-9.3,5.95-20.422,6.112-14.072-2.316-14.072-2.316l.43-2.317Z" transform="translate(-368.085 -268.467)"/>
                </g>
              </g>
            </g>
            <g id="Group_1114554" data-name="Group 1114554" transform="translate(250.418 188.452)" opacity="0.3">
              <g id="Group_1114553" data-name="Group 1114553">
                <g id="Group_1114552" data-name="Group 1114552" clip-path="url(#clip-path-32)">
                  <path id="Path_907303" data-name="Path 907303" d="M393.56,321.433q-1.33-5.29-2.661-10.581-2.123-8.446-4.247-16.892-.492-1.956-.984-3.912a.244.244,0,0,0-.471.129q1.331,5.291,2.661,10.582,2.124,8.445,4.247,16.891l.984,3.912a.244.244,0,0,0,.47-.129" transform="translate(-385.19 -289.874)"/>
                </g>
              </g>
            </g>
            <path id="Path_907304" data-name="Path 907304" d="M393.6,184.734a55,55,0,0,1,3.764,14.316c1.753,14.29,4.82,33.454,4.948,39.149,0,0-23.71,7.7-36.6,1.228l1.569-30.734-.454-22.844,4.9-1.783s19.041-2.279,21.867.667" transform="translate(-127.956 -64.108)" fill="#407bff"/>
            <g id="Group_1114557" data-name="Group 1114557" transform="translate(237.755 119.118)" opacity="0.2" style="isolation: isolate">
              <g id="Group_1114556" data-name="Group 1114556">
                <g id="Group_1114555" data-name="Group 1114555" clip-path="url(#clip-path-33)">
                  <path id="Path_907305" data-name="Path 907305" d="M393.6,184.734a55,55,0,0,1,3.764,14.316c1.753,14.29,4.82,33.454,4.948,39.149,0,0-23.71,7.7-36.6,1.228l1.569-30.734-.454-22.844,4.9-1.783s19.041-2.279,21.867.667" transform="translate(-365.711 -183.226)"/>
                </g>
              </g>
            </g>
            <g id="Group_1114560" data-name="Group 1114560" transform="translate(265.302 135.401)" opacity="0.2" style="isolation: isolate">
              <g id="Group_1114559" data-name="Group 1114559">
                <g id="Group_1114558" data-name="Group 1114558" clip-path="url(#clip-path-34)">
                  <path id="Path_907306" data-name="Path 907306" d="M408.083,208.272s.793,5.555,2.506,8.2a14.033,14.033,0,0,0,3.139,3.037l-.637-5.191Z" transform="translate(-408.083 -208.272)"/>
                </g>
              </g>
            </g>
            <path id="Path_907307" data-name="Path 907307" d="M365.733,202.691c-.467.121-6.824,8.249-6.824,8.249s-7.489-7.923-8.245-11.336c0,0,8.431-12.357,9.54-13.1a12.706,12.706,0,0,1,6.261-1.989Z" transform="translate(-122.691 -64.56)" fill="#407bff"/>
            <g id="Group_1114563" data-name="Group 1114563" transform="translate(227.973 119.959)" opacity="0.2" style="isolation: isolate">
              <g id="Group_1114562" data-name="Group 1114562">
                <g id="Group_1114561" data-name="Group 1114561" clip-path="url(#clip-path-35)">
                  <path id="Path_907308" data-name="Path 907308" d="M365.733,202.691c-.467.121-6.824,8.249-6.824,8.249s-7.489-7.923-8.245-11.336c0,0,8.431-12.357,9.54-13.1a12.706,12.706,0,0,1,6.261-1.989Z" transform="translate(-350.664 -184.519)"/>
                </g>
              </g>
            </g>
            <g id="Group_1114566" data-name="Group 1114566" transform="translate(237.312 132.053)" opacity="0.2" style="isolation: isolate">
              <g id="Group_1114565" data-name="Group 1114565">
                <g id="Group_1114564" data-name="Group 1114564" clip-path="url(#clip-path-36)">
                  <path id="Path_907309" data-name="Path 907309" d="M367.152,213.43c-.008-.285-.292-10.764-.279-10.293s-1.843,12.92-1.843,12.92Z" transform="translate(-365.03 -203.122)"/>
                </g>
              </g>
            </g>
            <path id="Path_907310" data-name="Path 907310" d="M380.288,177.282c2.477-.261,2.224-3.3,1.922-5.631a15.7,15.7,0,0,0-.567-2.462l4.316-3.6,3.907-3.306a41.6,41.6,0,0,0-.5,4.393,29.909,29.909,0,0,0,.4,7.031,7.715,7.715,0,0,0,1.5,2.625s-4.434,3.356-7.48,3.272-3.507-2.318-3.507-2.318" transform="translate(-133.056 -56.779)" fill="#b97964"/>
            <g id="Group_1114569" data-name="Group 1114569" transform="translate(249.158 111.838)" opacity="0.2" style="isolation: isolate">
              <g id="Group_1114568" data-name="Group 1114568">
                <g id="Group_1114567" data-name="Group 1114567" clip-path="url(#clip-path-37)">
                  <path id="Path_907311" data-name="Path 907311" d="M390.472,172.028s-2.564,6.155-7.153,3.754l-.068-1.073Z" transform="translate(-383.251 -172.028)"/>
                </g>
              </g>
            </g>
            <path id="Path_907312" data-name="Path 907312" d="M388.529,147.583a8.788,8.788,0,0,0-10.656-5.431c-6.1,1.744-7.458,10.269-6.461,15.587,1.11,5.922,8.475,9.275,13.372,5.239,3.264-2.685,3.376-6.1,4.1-11.856a7.738,7.738,0,0,0-.356-3.54" transform="translate(-129.847 -49.621)" fill="#b97964"/>
            <path id="Path_907313" data-name="Path 907313" d="M368.818,143.586s.563.658,1.091.465a2.273,2.273,0,0,1,.168-2.672s.382.91.831.928a10.068,10.068,0,0,1,2.743-5.724c2.629-2.926,11.246.846,11.246.846s2.061-1.751,5.34,1.215c2.629,2.377,2.937,7.233,2.693,9.325a10.418,10.418,0,0,1-6.27,4.954c-1.5-1.709-1.609-4.288-1.458-6.072a2.855,2.855,0,0,1-1.222-.692c-1.343-1.289-.343-5.774-5.7-5.1a2.929,2.929,0,0,0-3.058-.012c-1.645.958-2.533,6.2-4.811,4.665s-1.594-2.121-1.594-2.121" transform="translate(-129.01 -47.399)" fill="#263238"/>
            <path id="Path_907314" data-name="Path 907314" d="M383.372,157.4c-.066.657-.568,1.114-1.027,1.027s-.72-.688-.61-1.341.579-1.112,1.027-1.027.722.679.61,1.341" transform="translate(-133.554 -54.598)" fill="#263238"/>
            <path id="Path_907315" data-name="Path 907315" d="M374.583,156.417c-.066.657-.579,1.113-1.027,1.027s-.72-.689-.61-1.341.579-1.113,1.027-1.027.717.72.61,1.341" transform="translate(-130.479 -54.255)" fill="#263238"/>
            <path id="Path_907316" data-name="Path 907316" d="M371.368,151.25a.352.352,0,0,0,.334-.005,2.7,2.7,0,0,1,2.293-.252.324.324,0,0,0,.421-.144.3.3,0,0,0-.157-.4h0a3.319,3.319,0,0,0-2.895.283.289.289,0,0,0-.11.411l0,.006a.51.51,0,0,0,.112.1" transform="translate(-129.879 -52.567)" fill="#263238"/>
            <path id="Path_907317" data-name="Path 907317" d="M384.048,154.778a.315.315,0,0,0,.174-.07.29.29,0,0,0-.057-.422l-.005,0a3.331,3.331,0,0,0-2.874-.525.3.3,0,0,0-.189.384h0a.334.334,0,0,0,.41.181,2.706,2.706,0,0,1,2.268.45.343.343,0,0,0,.274.005" transform="translate(-133.333 -53.754)" fill="#263238"/>
            <path id="Path_907318" data-name="Path 907318" d="M399.924,161.648a5.954,5.954,0,0,1-3.457,3.136c-2.068.721-3.335-1.026-2.961-2.992.35-1.743,1.833-4.277,4.008-4.131a2.772,2.772,0,0,1,2.411,3.987" transform="translate(-137.658 -55.161)" fill="#b97964"/>
            <g id="Group_1114572" data-name="Group 1114572" transform="translate(257.059 103.873)" opacity="0.1">
              <g id="Group_1114571" data-name="Group 1114571">
                <g id="Group_1114570" data-name="Group 1114570" clip-path="url(#clip-path-38)">
                  <path id="Path_907319" data-name="Path 907319" d="M395.894,162.931a3.3,3.3,0,0,1,.886-1.855c.395-.417,1.214-1.095,1.808-.682.258.179.5-.243.246-.421-.771-.536-1.783.139-2.335.692a3.85,3.85,0,0,0-1.093,2.266.246.246,0,0,0,.244.244.25.25,0,0,0,.244-.244" transform="translate(-395.405 -159.776)"/>
                </g>
              </g>
            </g>
            <path id="Path_907320" data-name="Path 907320" d="M376.595,156.327a17.805,17.805,0,0,1-3.323,3.858,3.323,3.323,0,0,0,2.493.939Z" transform="translate(-130.602 -54.696)" fill="#a24e3f"/>
            <g id="Group_1114575" data-name="Group 1114575" transform="translate(242.701 90.195)" opacity="0.3">
              <g id="Group_1114574" data-name="Group 1114574">
                <g id="Group_1114573" data-name="Group 1114573" clip-path="url(#clip-path-39)">
                  <path id="Path_907321" data-name="Path 907321" d="M380.16,141.683a4.972,4.972,0,0,0-1.235-1.983,3.376,3.376,0,0,0-2.006-.956,3.01,3.01,0,0,0-2.359.961A5.528,5.528,0,0,0,373.331,142a.244.244,0,0,0,.47.13c.381-1.275,1.167-2.678,2.615-2.883a2.4,2.4,0,0,1,1.58.357,4.035,4.035,0,0,1,1.695,2.211c.107.293.578.166.47-.129" transform="translate(-373.319 -138.736)"/>
                </g>
              </g>
            </g>
            <g id="Group_1114578" data-name="Group 1114578" transform="translate(246.931 88.443)" opacity="0.3">
              <g id="Group_1114577" data-name="Group 1114577">
                <g id="Group_1114576" data-name="Group 1114576" clip-path="url(#clip-path-40)">
                  <path id="Path_907322" data-name="Path 907322" d="M383.667,140.35a5.07,5.07,0,0,0-3.541-4.3.244.244,0,0,0-.13.471,4.566,4.566,0,0,1,3.184,3.826c.031.309.519.313.488,0" transform="translate(-379.825 -136.042)"/>
                </g>
              </g>
            </g>
            <path id="Path_907323" data-name="Path 907323" d="M393.283,277.919l10.7,5.917a1.936,1.936,0,0,0,1.8.038l10.938-5.456a1.938,1.938,0,0,1,2.768,2.1l-2.322,12a1.937,1.937,0,0,0,.521,1.727l8.569,8.715a1.938,1.938,0,0,1-1.144,3.282l-12.13,1.5a1.937,1.937,0,0,0-1.482,1.029l-5.641,10.843a1.938,1.938,0,0,1-3.476-.074l-5.176-11.073a1.936,1.936,0,0,0-1.436-1.091l-12.056-2.015a1.938,1.938,0,0,1-1-3.328l8.932-8.344a1.94,1.94,0,0,0,.594-1.7l-1.81-12.088a1.938,1.938,0,0,1,2.855-1.983" transform="translate(-133.688 -97.153)" fill="#407bff"/>
            <g id="Group_1114581" data-name="Group 1114581" transform="translate(265.259 184.183)" opacity="0.3">
              <g id="Group_1114580" data-name="Group 1114580">
                <g id="Group_1114579" data-name="Group 1114579" clip-path="url(#clip-path-41)">
                  <path id="Path_907324" data-name="Path 907324" d="M419.937,283.308s-11.7,10.056-8.738,14.241c3.814,5.382,11.97,13.838-1.3,20.654l-1.862-3.983s4.5-2.407,4.34-7.136-4.747-6.11-4.34-12.166a10.7,10.7,0,0,1,5.685-8.557Z" transform="translate(-408.017 -283.308)" fill="#fff"/>
                </g>
              </g>
            </g>
            <path id="Path_907325" data-name="Path 907325" d="M419.075,273.462l-4.431-1.327-1.577,3.158c-.207.36-.393.694-.537.974-1.311,2.562-3.1,6.207-3.283,8.373s1.2,4.275,1.775,3.243c.455-.809-.132-2.3-.021-3.049a7.437,7.437,0,0,1,.668-2.518c-.006,3.643,1.4,5.952,1.855,6.294.629.473,1.266-.254,1.266-.254a1.109,1.109,0,0,0,1.357.1c.9-.592-.175-4.875-.175-4.875s1.536,3.834,2.572,3.324-.8-3.816-1.009-5.8c-.08-.74,1.35-2.066,1.346-3.773a10.256,10.256,0,0,1,.2-3.868" transform="translate(-143.183 -95.215)" fill="#b97964"/>
            <path id="Path_907326" data-name="Path 907326" d="M417.3,292.8a14.082,14.082,0,0,1-1.088-3.425,11.339,11.339,0,0,1,.37-4.245c.045-.183-.237-.261-.282-.078a11.765,11.765,0,0,0-.385,4.295,13.97,13.97,0,0,0,1.1,3.531c.072.171.355.1.282-.078" transform="translate(-145.497 -99.698)" fill="#a24e3f"/>
            <path id="Path_907327" data-name="Path 907327" d="M419.631,288.041c-.078-.559-.18-1.121-.216-1.685a2.411,2.411,0,0,1,.309-1.5c.1-.158-.15-.3-.252-.148a2.621,2.621,0,0,0-.353,1.583c.032.61.146,1.22.23,1.826.026.185.308.107.282-.078" transform="translate(-146.641 -99.592)" fill="#a24e3f"/>
            <path id="Path_907328" data-name="Path 907328" d="M421.356,205.022,411.938,209c1.638,4.551,4.693,11.689,5.954,16.758.338,1.359-2.824,23.947-2.824,23.947l4.706,1.349s7.171-22.021,7.084-24.739c-.126-3.943-3.175-12.909-5.5-21.289" transform="translate(-144.13 -71.734)" fill="#b97964"/>
            <path id="Path_907329" data-name="Path 907329" d="M400.647,185.884c-.278,5.193,4.283,15.591,9.11,22.166,2.961.456,11.4-6.132,11.4-6.132a89.224,89.224,0,0,0-8.687-12.782c-5.526-6.039-11.653-6.079-11.822-3.252" transform="translate(-140.176 -64.402)" fill="#407bff"/>
            <g id="Group_1114584" data-name="Group 1114584" transform="translate(260.46 119.665)" opacity="0.2" style="isolation: isolate">
              <g id="Group_1114583" data-name="Group 1114583">
                <g id="Group_1114582" data-name="Group 1114582" clip-path="url(#clip-path-42)">
                  <path id="Path_907330" data-name="Path 907330" d="M400.647,185.884c-.278,5.193,4.283,15.591,9.11,22.166,2.961.456,11.4-6.132,11.4-6.132a89.224,89.224,0,0,0-8.687-12.782c-5.526-6.039-11.653-6.079-11.822-3.252" transform="translate(-400.635 -184.067)"/>
                </g>
              </g>
            </g>
            <g id="Group_1114587" data-name="Group 1114587" transform="translate(242.081 108.583)" opacity="0.2" style="isolation: isolate">
              <g id="Group_1114586" data-name="Group 1114586">
                <g id="Group_1114585" data-name="Group 1114585" clip-path="url(#clip-path-43)">
                  <path id="Path_907331" data-name="Path 907331" d="M377.388,173.019c.255-.038.919-.521.752-1.808s-3.583-4.358-5.014-4.182-.4,2.112-.4,2.112,3.628,3.427,3.8,3.509c.544.257.865.369.865.369" transform="translate(-372.365 -167.021)"/>
                </g>
              </g>
            </g>
            <path id="Path_907332" data-name="Path 907332" d="M377.355,166.811a1.578,1.578,0,0,0-.7-.333.781.781,0,0,0-.3-.01.36.36,0,0,0-.25.205.151.151,0,0,0,.052.2.147.147,0,0,0,.2-.053c0-.009.008-.019.013-.027s.022-.032.012-.02.008-.007.01-.008-.021.01,0,0l.02-.01c-.009.006-.023.007-.005,0s.052-.01.028-.008.016,0,.023,0l.035,0a.693.693,0,0,1,.127.018,1.27,1.27,0,0,1,.525.248.151.151,0,0,0,.207,0,.147.147,0,0,0,0-.207" transform="translate(-131.587 -58.241)" fill="#263238"/>
            <path id="Path_907333" data-name="Path 907333" d="M366.9,169.351l-.018-.014-2.275-1.755a2.544,2.544,0,0,0-2.806-.146l-2.012,1.144a2.753,2.753,0,0,0-1.348,2.093l-.427,4.088c-2.1,5.59-6.4,12.226-8.978,18.012-1.343,3.223-3.315,6.789-3.8,10.438a5.461,5.461,0,0,0,1.226,4.218c1.652,1.883,4.624,1.181,6.016.1l0,.007a40.214,40.214,0,0,0,3.946-3.31l-2.006-2.246,2.679-10.016c.95-4.521,2.743-8.852,4.013-12.553a18.378,18.378,0,0,0,5.309-5.7l.858-1.18a2.287,2.287,0,0,0-.379-3.18m-13.269,34.311c0,.063,0,.121-.016.125,0-.042.012-.083.016-.125" transform="translate(-120.779 -58.46)" fill="#b97964"/>
            <path id="Path_907334" data-name="Path 907334" d="M357.871,223.9q.69-2.018,1.192-4.092c.074-.3-.4-.435-.47-.129q-.5,2.072-1.192,4.092c-.1.3.369.425.47.129" transform="translate(-125.044 -76.801)" fill="#a24e3f"/>
          </g>
        </g>
        <g id="Group_1114615" data-name="Group 1114615">
          <g id="Group_1114614" data-name="Group 1114614" clip-path="url(#clip-path)">
            <path id="Path_907335" data-name="Path 907335" d="M111.016,198.239c.065.622-2.675,12.262-1.936,16.254s6.216,19.248,5.294,21.729-12.59-.971-12.59-.971L86.6,177.8c.926-.856,10.042-1.393,13.405,1.24.358.281,1.9,1.7,2.291,2.015,3.256,2.593,7.709,7.558,8.717,17.183" transform="translate(-30.301 -61.964)" fill="#263238"/>
            <path id="Path_907336" data-name="Path 907336" d="M156.067,192.319c-.14-.145,4.6.01,4.716-1,.066-.563.027-.635-2.052-.893s-8.391-.586-9.4-.3-1.809,4.02-2.336,4.593-4.51,3.848-4.51,3.848l3.15,3.55,4.262-4.23s3.6.254,4.181-.249a3.3,3.3,0,0,0,.687-1.831s1.656.259,1.083-1.667c0,0,1.479-.517.219-1.822" transform="translate(-49.853 -66.483)" fill="#ffb463"/>
            <path id="Path_907337" data-name="Path 907337" d="M152.733,191.357a2.253,2.253,0,0,1,1.9.391,2.914,2.914,0,0,1,.377,2.135,5.052,5.052,0,0,1-.209,1.211c-.137.4-.626-.074-.779-.256a1.686,1.686,0,0,1-.284-1.7.147.147,0,0,0-.18-.18,2.686,2.686,0,0,1-1.5.171c-.185-.033-.263.249-.078.282a2.961,2.961,0,0,0,1.659-.171l-.18-.18a1.949,1.949,0,0,0,.131,1.661c.2.348.853,1.108,1.309.76.251-.19.276-.653.324-.936a7.26,7.26,0,0,0,.105-1.169,1.959,1.959,0,0,0-2.6-2.311c-.186.016-.188.309,0,.293" transform="translate(-53.138 -66.839)" fill="#ff7800"/>
            <path id="Path_907338" data-name="Path 907338" d="M161.169,193.287a6.026,6.026,0,0,0-2.283-.118,7.026,7.026,0,0,0-1.159.233,1.387,1.387,0,0,0-.872.522.146.146,0,0,0,.252.148c.174-.294.623-.373.928-.451a6.886,6.886,0,0,1,1.059-.182,5.687,5.687,0,0,1,2,.131.146.146,0,0,0,.078-.282" transform="translate(-54.873 -67.567)" fill="#ff7800"/>
            <path id="Path_907339" data-name="Path 907339" d="M158.369,200.41l-1.944-.4a4.46,4.46,0,0,1-.936-.226c-.276-.126-.5-.449-.212-.694a1.2,1.2,0,0,1,.845-.207q.485.035.97.047c.655.018,1.309.02,1.962.075.187.016.187-.277,0-.293-.793-.066-1.59-.054-2.384-.089-.562-.025-1.464-.166-1.766.479a.656.656,0,0,0,.154.736,1.522,1.522,0,0,0,.823.358c.8.167,1.607.329,2.41.494.184.038.263-.244.078-.282" transform="translate(-54.179 -69.485)" fill="#ff7800"/>
            <path id="Path_907340" data-name="Path 907340" d="M156.737,196.391a11.361,11.361,0,0,1,3.875-.036c.183.042.261-.24.078-.282a11.567,11.567,0,0,0-3.953.026c-.184.023-.187.316,0,.293" transform="translate(-54.791 -68.545)" fill="#ff7800"/>
            <path id="Path_907341" data-name="Path 907341" d="M133.645,191.414,120.4,200.081s-1.5-3.663-3.26-7.266c-1.792-3.679-4.932-9.82-8.354-10.252-1.127-.142-2.686-.534-3.381-.254-5.488,2.217,1.9,16.482,1.9,16.482s6.709,10.386,9.764,11.791,19.492-13.872,19.492-13.872Z" transform="translate(-36.17 -63.753)" fill="#263238"/>
            <path id="Path_907342" data-name="Path 907342" d="M119.307,207.3a51.992,51.992,0,0,0,1.1-6.413,18.07,18.07,0,0,0-2.262-9.337,32.257,32.257,0,0,0-4.995-6.737c-.215-.229-.559.116-.345.345,2.945,3.147,5.586,6.8,6.648,11.039a17.787,17.787,0,0,1,.04,7.926c-.207,1.018-.479,2.023-.655,3.047-.053.307.417.439.47.129" transform="translate(-39.444 -64.637)"/>
            <path id="Path_907343" data-name="Path 907343" d="M35.508,428.7a6.7,6.7,0,0,0-1.339-2.134s-.911-3.239,1.653-10.012l-2.329-2.244a2.729,2.729,0,0,0-3.067-.443,1.155,1.155,0,0,0-.383.263,17.144,17.144,0,0,0-1.439,1.813,65,65,0,0,0-3.989,6.785l.486.3,2.645-4.175c.9-1.423,1.062.929.477,2.667s-.858,3.8,2.331,5.69c3.732,2.192,5.4,2.9,4.953,1.492" transform="translate(-8.612 -144.705)" fill="#263238"/>
            <path id="Path_907344" data-name="Path 907344" d="M39.753,413.82s-1.064,3.16-1.941,6.824a14.676,14.676,0,0,0-.532,5.667s-2.662-.934-2.781-3.131,1.612-8.467-.993-9.551a6.53,6.53,0,0,1,1.391-.715c.736-.333,4.856.906,4.856.906" transform="translate(-11.723 -144.452)" fill="#ffb463"/>
            <path id="Path_907345" data-name="Path 907345" d="M108,428.615a6.86,6.86,0,0,0-2.227-1.219s-2.4-2.389-3.52-9.533l-3.145-.839a2.716,2.716,0,0,0-2.9,1.087,1.121,1.121,0,0,0-.2.414,16.9,16.9,0,0,0-.358,2.274,64.37,64.37,0,0,0-.118,7.839l.572.027.239-4.916c.081-1.675,1.387.3,1.738,2.1s1.133,3.725,4.855,3.845c4.343.118,6.152-.063,5.062-1.079" transform="translate(-33.402 -145.882)" fill="#263238"/>
            <path id="Path_907346" data-name="Path 907346" d="M102.134,414.424s.638,3.27,1.688,6.889a14.778,14.778,0,0,0,2.344,5.2s-2.786.465-3.978-1.4-2.79-8.165-5.6-7.858a6.359,6.359,0,0,1,.859-1.294c.477-.644,4.687-1.544,4.687-1.544" transform="translate(-33.795 -145)" fill="#ffb463"/>
            <path id="Path_907347" data-name="Path 907347" d="M104.72,238.736s8.117,19.9,1.674,51.707c-.17,18.519-6.737,63.821-6.737,63.821-2.186.612-9.1.191-11.33-.265,0,0-.192-36.013,1.359-66.186-4.7-30.962-4.384-47.352-4.384-47.352Z" transform="translate(-29.844 -83.53)" fill="#407bff"/>
            <path id="Path_907348" data-name="Path 907348" d="M81.785,239.672S73.9,280.379,68.554,297.854c-5.618,18.349-26.681,56.7-27.312,57.929-2.561-.557-7.937-2.76-9.506-4.137,0,0,12.357-37.442,19.606-57.42,1.644-10.242,2.77-16.235,2.48-27.075-.538-20.094,8.924-28.739,8.924-28.739Z" transform="translate(-11.104 -83.417)" fill="#407bff"/>
            <g id="Group_1114592" data-name="Group 1114592" transform="translate(59.315 172.621)" opacity="0.2" style="isolation: isolate">
              <g id="Group_1114591" data-name="Group 1114591">
                <g id="Group_1114590" data-name="Group 1114590" clip-path="url(#clip-path-45)">
                  <path id="Path_907349" data-name="Path 907349" d="M98.156,270.928l6.735-5.405-5.663,8.353-7.991,34.469.4-9.2Z" transform="translate(-91.237 -265.523)"/>
                </g>
              </g>
            </g>
            <path id="Path_907350" data-name="Path 907350" d="M102.2,192.532s3.4,7.606,1.264,12.084c-4.338,13,1.051,13.578-.613,15.978-2.483,1.956-17.785,4.576-25.815-1.647,1.067-5.286,1.314-14.368-2.6-29.415a6.059,6.059,0,0,1,4.434-7.383,6.266,6.266,0,0,1,.637-.125c.962-.135,1.986-.267,3.037-.363A58.515,58.515,0,0,1,92,181.3c.64.031.118-.077,2.073.384,0,0,3.911,2.9,5.018,4.646a61.238,61.238,0,0,1,3.107,6.2" transform="translate(-25.976 -63.419)" fill="#fff"/>
            <g id="Group_1114595" data-name="Group 1114595" transform="translate(65.747 141.454)" opacity="0.3">
              <g id="Group_1114594" data-name="Group 1114594">
                <g id="Group_1114593" data-name="Group 1114593" clip-path="url(#clip-path-46)">
                  <path id="Path_907351" data-name="Path 907351" d="M109.363,217.583a13.178,13.178,0,0,1-6.27,6.484,12.342,12.342,0,0,0,5.631-.96,6.819,6.819,0,0,1-7.592,1.32c2.634-2.249,5.6-4.594,8.232-6.843" transform="translate(-101.131 -217.583)"/>
                </g>
              </g>
            </g>
            <path id="Path_907352" data-name="Path 907352" d="M64.263,160.113a9.987,9.987,0,0,1,1.693-2.644,15.559,15.559,0,0,0,2.2-5.514,49.222,49.222,0,0,1,1.478-5.813,9.25,9.25,0,0,1,3.416-4.7,4.844,4.844,0,0,1,5.434-.036l.833.143c-1.473,6.174-.971,12.688-1.984,18.965a8.469,8.469,0,0,1-1.707,4.408c-1.692,1.871-4.564,1.922-6.93,1.175a7.445,7.445,0,0,1-3.463-2.079,4.237,4.237,0,0,1-.972-3.9" transform="translate(-22.431 -49.188)" fill="#263238"/>
            <path id="Path_907353" data-name="Path 907353" d="M83.082,140.236a10.618,10.618,0,0,1,6.143-3.323,12.928,12.928,0,0,1,7.306.991c2.724,1.471,4.373,4.646,5.41,7.81,1.162,3.542-.261,7.889-1.92,11.147-.687,1.349-1.3,1.9-2.651,1.767l-.5.71c-4.094,1.249-7.814,5.578-15.481-6.164-2.535-3.883-1.492-9.833,1.695-12.938" transform="translate(-27.98 -47.855)" fill="#263238"/>
            <path id="Path_907354" data-name="Path 907354" d="M95.254,174.3c-.642-.552-.4-1.743-.3-2.9a11.5,11.5,0,0,1,.6-2.738l-1.266-1.226-6.54-5.462c.5,3.979,1.892,10.369-1.083,12.806l-1.682.214c1.1.741,4.119,4.413,10.65,4.694,3.537.153,2.742-3.423,1.718-4.921-1.612-.347-2.1-.464-2.1-.464" transform="translate(-29.734 -56.669)" fill="#ffb463"/>
            <g id="Group_1114598" data-name="Group 1114598" transform="translate(60.209 109.891)" opacity="0.2">
              <g id="Group_1114597" data-name="Group 1114597">
                <g id="Group_1114596" data-name="Group 1114596" clip-path="url(#clip-path-47)">
                  <path id="Path_907355" data-name="Path 907355" d="M97.659,174.38c-1.741-.313-4.278-1.326-4.791-3.242a7.438,7.438,0,0,1-.25-2.106l5.291,2.916a8.888,8.888,0,0,0-.25,2.432" transform="translate(-92.613 -169.032)"/>
                </g>
              </g>
            </g>
            <path id="Path_907356" data-name="Path 907356" d="M84.81,147.31c1.131,6.031,1.479,8.6,4.962,11.5,5.239,4.365,12.463,2.087,13.173-4.056.639-5.529-1.317-14.462-7.617-16.473A7.932,7.932,0,0,0,84.81,147.31" transform="translate(-29.621 -48.229)" fill="#ffb463"/>
            <path id="Path_907357" data-name="Path 907357" d="M98.8,154.3c.035.681.395,1.237.8,1.242s.71-.542.675-1.224-.395-1.237-.8-1.242-.71.543-.675,1.224" transform="translate(-34.569 -53.559)" fill="#263238"/>
            <path id="Path_907358" data-name="Path 907358" d="M96.863,151.589a.282.282,0,0,0,.222-.064,2.263,2.263,0,0,1,2.057-.51.28.28,0,0,0,.362-.194.325.325,0,0,0-.216-.382,2.825,2.825,0,0,0-2.608.615.3.3,0,0,0-.016.426.322.322,0,0,0,.2.11" transform="translate(-33.793 -52.602)" fill="#263238"/>
            <path id="Path_907359" data-name="Path 907359" d="M108.949,150.021a.279.279,0,0,0,.172-.135.3.3,0,0,0-.14-.4,3.24,3.24,0,0,0-2.831-.163.271.271,0,0,0-.109.392.333.333,0,0,0,.425.125,2.591,2.591,0,0,1,2.24.153.33.33,0,0,0,.243.025" transform="translate(-37.087 -52.161)" fill="#263238"/>
            <path id="Path_907360" data-name="Path 907360" d="M104.25,153.244a20.7,20.7,0,0,0,2.4,3.511.467.467,0,0,1-.157.737,3.113,3.113,0,0,1-1.653.176Z" transform="translate(-36.475 -53.618)" fill="#ff7800"/>
            <path id="Path_907361" data-name="Path 907361" d="M99.461,152.972l1.421-.342s-1.708,1.293-1.421.342" transform="translate(-34.789 -53.403)" fill="#263238"/>
            <path id="Path_907362" data-name="Path 907362" d="M107.315,153.529c.035.693.394,1.259.8,1.264s.71-.553.675-1.246-.394-1.259-.8-1.264-.71.553-.675,1.246" transform="translate(-37.547 -53.281)" fill="#263238"/>
            <path id="Path_907363" data-name="Path 907363" d="M107.929,152.2l1.421-.342s-1.3,1.073-1.421.342" transform="translate(-37.763 -53.131)" fill="#263238"/>
            <path id="Path_907364" data-name="Path 907364" d="M87.511,157.408c-6.214-3.6-7.653-19.081,3.117-20.425S102.939,150.2,102.939,150.2c-4.337-8.734-13.745-8.819-13.745-8.819,2.292,4.624-1.778,7.9-1.778,7.9-1.355,3.188.093,6.69.094,8.126" transform="translate(-28.93 -47.897)" fill="#263238"/>
            <path id="Path_907365" data-name="Path 907365" d="M82.429,158.226a5,5,0,0,0,3.215,2.028c1.672.257,2.275-2.407,1.568-3.97a3.316,3.316,0,0,0-3.894-1.763c-1.538.453-1.855,2.354-.889,3.705" transform="translate(-28.648 -54.019)" fill="#ffb463"/>
            <g id="Group_1114601" data-name="Group 1114601" transform="translate(54.523 101.75)" opacity="0.2">
              <g id="Group_1114600" data-name="Group 1114600">
                <g id="Group_1114599" data-name="Group 1114599" clip-path="url(#clip-path-48)">
                  <path id="Path_907366" data-name="Path 907366" d="M85.368,156.8a1,1,0,0,0-1.209.637c-.18.528.176,1.712,1.8,2" transform="translate(-83.954 -156.598)" fill="none" stroke="#000" stroke-linecap="round" stroke-linejoin="round" stroke-width="0.5"/>
                </g>
              </g>
            </g>
            <g id="Group_1114604" data-name="Group 1114604" transform="translate(51.867 93.288)" opacity="0.3">
              <g id="Group_1114603" data-name="Group 1114603">
                <g id="Group_1114602" data-name="Group 1114602" clip-path="url(#clip-path-49)">
                  <path id="Path_907367" data-name="Path 907367" d="M87.742,143.853a2.628,2.628,0,0,1,.178,2.364,3.977,3.977,0,0,1-1.942,1.859,12.094,12.094,0,0,1-5.962,1.285c-.314-.01-.313.478,0,.488a12.089,12.089,0,0,0,6.644-1.6,3.967,3.967,0,0,0,1.784-2.056,3.08,3.08,0,0,0-.281-2.583c-.171-.261-.594-.018-.421.246" transform="translate(-79.781 -143.495)"/>
                </g>
              </g>
            </g>
            <g id="Group_1114607" data-name="Group 1114607" transform="translate(51.618 91.832)" opacity="0.3">
              <g id="Group_1114606" data-name="Group 1114606">
                <g id="Group_1114605" data-name="Group 1114605" clip-path="url(#clip-path-50)">
                  <path id="Path_907368" data-name="Path 907368" d="M83.116,141.323a11.422,11.422,0,0,0-3.717,8.307c.058,2.985,1.629,5.56,3.424,7.842.194.246.537-.1.345-.345-1.711-2.176-3.224-4.65-3.28-7.5a10.939,10.939,0,0,1,3.574-7.963c.229-.215-.116-.56-.345-.345" transform="translate(-79.397 -141.255)"/>
                </g>
              </g>
            </g>
            <g id="Group_1114610" data-name="Group 1114610" transform="translate(53.233 93.472)" opacity="0.3">
              <g id="Group_1114609" data-name="Group 1114609">
                <g id="Group_1114608" data-name="Group 1114608" clip-path="url(#clip-path-51)">
                  <path id="Path_907369" data-name="Path 907369" d="M87.94,143.947a4.958,4.958,0,0,1-5.753,3.253c-.306-.066-.436.4-.129.47a5.457,5.457,0,0,0,6.352-3.594c.1-.3-.373-.427-.47-.129" transform="translate(-81.882 -143.778)"/>
                </g>
              </g>
            </g>
            <path id="Path_907370" data-name="Path 907370" d="M78.027,178.367c.351,2,5.211,22.774,5.787,28.883s-6.222,31.233-7.951,32.836-16.725-8.4-16.218-8.548,8.413-12.827,9.5-18.283-.529-26.821-.746-29.146,3.388-2.147,6.96-3.644l1.8-2.285Z" transform="translate(-20.864 -62.342)" fill="#263238"/>
            <g id="Group_1114613" data-name="Group 1114613" transform="translate(42.159 157.958)" opacity="0.3">
              <g id="Group_1114612" data-name="Group 1114612">
                <g id="Group_1114611" data-name="Group 1114611" clip-path="url(#clip-path-52)">
                  <path id="Path_907371" data-name="Path 907371" d="M68.181,242.968l1.545,9.328-1.571.293s2.485,6.022,2.233,7.5l-3.54-1.687-2-8.94Z" transform="translate(-64.848 -242.968)"/>
                </g>
              </g>
            </g>
            <path id="Path_907372" data-name="Path 907372" d="M70.954,183.583c-2.032.114-5.542,1.337-6.216,3.056-2.53,6.458-7.556,21.642-8.61,25.3-.669,2.32,1.742,19.9,1.742,19.9l7.49-1.1s-1.731-16.835-1.225-17.974c1.883-4.247,8.97-15.757,9.838-19.6s1.688-7.386-.473-8.97a4.394,4.394,0,0,0-2.545-.611" transform="translate(-19.597 -64.23)" fill="#263238"/>
            <path id="Path_907373" data-name="Path 907373" d="M60.647,257.1a8.975,8.975,0,0,1-.409,3.412c-.26,1.491.81,2.863.628,3.5-.489,1.7-2.612,4.323-1.769,4.922s2.784-2.526,2.784-2.526-1.654,3.594-.852,4.134c1.11.747,1.267.276,1.267.276a.944.944,0,0,0,1.133.513c.49-.148,1.921-2.2,2.464-5.388,0,0,.07,1.042.032,2.731-.015.675-.483,1.431-.3,2.233.262,1.125,1.9-.653,2.064-2.573s-.876-5.375-1.656-7.81c-.085-.267-.2-.586-.33-.931l-.93-3.1" transform="translate(-20.609 -89.739)" fill="#ffb463"/>
            <path id="Path_907374" data-name="Path 907374" d="M64,274.835a12.547,12.547,0,0,0,1.525-2.95,10.3,10.3,0,0,0,.311-3.843c-.022-.311-.51-.313-.488,0a9.928,9.928,0,0,1-.294,3.713,12.081,12.081,0,0,1-1.476,2.833c-.17.265.252.51.421.246" transform="translate(-22.23 -93.701)" fill="#ff7800"/>
            <path id="Path_907375" data-name="Path 907375" d="M63.473,270.272c.313-.976.82-2.074.376-3.086a.246.246,0,0,0-.334-.087.249.249,0,0,0-.088.334,2.033,2.033,0,0,1,.01,1.319c-.122.469-.287.93-.435,1.391-.1.3.374.428.47.129" transform="translate(-22.039 -93.443)" fill="#ff7800"/>
            <path id="Path_907376" data-name="Path 907376" d="M90.521,201.54q-1.866-2.681-3.665-5.407c-.562-.851-1.443-1.862-1.506-2.92-.052-.872.575-1.61.582-2.477.012-1.476-1.538-2.167-2.26-3.256-1.259-1.9-.33-4.178.381-6.082.11-.294-.361-.421-.47-.129-.654,1.752-1.388,3.592-.792,5.473a4.52,4.52,0,0,0,1.231,1.876c.721.707,1.617,1.385,1.368,2.524a5.878,5.878,0,0,0-.491,2.372,6.964,6.964,0,0,0,1.28,2.478q1.921,2.926,3.922,5.8c.178.256.6.012.421-.246" transform="translate(-28.89 -63.365)"/>
            <path id="Path_907377" data-name="Path 907377" d="M75,212.282a55.963,55.963,0,0,0,3.817-8.722c.1-.3-.37-.426-.471-.13a55.079,55.079,0,0,1-3.768,8.606c-.15.276.271.523.421.246" transform="translate(-26.083 -71.118)"/>
            <path id="Path_907378" data-name="Path 907378" d="M80.626,246.3l-6.176-3.519a.244.244,0,0,0-.246.421l6.176,3.519a.244.244,0,0,0,.246-.421" transform="translate(-25.921 -84.934)"/>
            <path id="Path_907379" data-name="Path 907379" d="M102.887,162.443a13.677,13.677,0,0,0-1.25,1.556c-.107-.049-.217-.1-.322-.15-1.452-.685-1.9-1.473-1.945-2.141a2.061,2.061,0,0,1,.179-.954,1.964,1.964,0,0,1,.284-.476A7.536,7.536,0,0,0,102.4,162.2c.315.144.49.243.49.243" transform="translate(-34.767 -56.079)" fill="#263238"/>
            <path id="Path_907380" data-name="Path 907380" d="M102.5,162.188l-.382.449c-1.362-.646-2.234-1.277-2.466-1.9a1.987,1.987,0,0,1,.285-.476,7.475,7.475,0,0,0,2.563,1.922" transform="translate(-34.865 -56.074)" fill="#fff"/>
            <path id="Path_907381" data-name="Path 907381" d="M101.343,164.641c-1.452-.685-1.9-1.472-1.945-2.141a5.182,5.182,0,0,1,1.46,1.072,1.905,1.905,0,0,1,.486,1.069" transform="translate(-34.778 -56.856)" fill="#ff3f3e"/>
          </g>
        </g>
      </g>
    </g>
  </g>
</svg>
