<svg xmlns="http://www.w3.org/2000/svg" width="86.21" height="85" viewBox="0 0 86.21 85">
  <g id="circulos-04" transform="translate(0)">
    <ellipse id="Ellipse_12817" data-name="Ellipse 12817" cx="43.105" cy="42.5" rx="43.105" ry="42.5" transform="translate(0 0)" fill="#2f9449"/>
    <g id="Group_1112745" data-name="Group 1112745" transform="translate(16.101 14.305)">
      <path id="Path_903835" data-name="Path 903835" d="M71.572,70.952a.522.522,0,0,1-.167-.018L36.558,63.5a.8.8,0,0,1-.586-1.045c.028-.073,2.725-7.62,1.293-11.223a58.653,58.653,0,0,0-2.371-5.382.742.742,0,0,1-.093-.422l.716-12.764a.794.794,0,0,1,.539-.706l27.453-9.4a.829.829,0,0,1,.828.174.8.8,0,0,1,.214.807c-.028.1-2.995,9.885-.037,16.12.651,1.366,1.414,2.9,2.232,4.511,3.181,6.327,6.789,13.507,6.668,17.587A45.74,45.74,0,0,1,72.4,70.328a.8.8,0,0,1-.781.605ZM37.767,62.131,70.939,69.21a46.337,46.337,0,0,0,.809-7.491c.112-3.686-3.553-10.976-6.5-16.835-.818-1.623-1.581-3.154-2.241-4.539-2.53-5.337-1.19-12.672-.437-15.781L37.06,33.293l-.67,12.012c.279.541,1.088,2.173,2.353,5.355,1.358,3.4-.279,9.279-.986,11.48Z" transform="translate(-28.47 -22.511)" fill="#fff"/>
      <g id="Group_1112744" data-name="Group 1112744" transform="translate(10.255 10.021)">
        <path id="Path_903836" data-name="Path 903836" d="M41.94,37.6a1.2,1.2,0,0,1,.725.321,1.192,1.192,0,0,1,.335.651l.13.77-.763.128-.084-.468a2.029,2.029,0,0,0-.158-.5,1.145,1.145,0,0,0-.251-.321.73.73,0,0,0-.316-.156.767.767,0,0,0-.353,0,.976.976,0,0,0-.335.128.719.719,0,0,0-.242.257.99.99,0,0,0-.121.385,2.032,2.032,0,0,0,.019.523l.084.468-.828.138-.763-4.365,1.767-.3a1.513,1.513,0,0,1,1.162.183,1.47,1.47,0,0,1,.539.99,1.037,1.037,0,0,1-.093.706,1.305,1.305,0,0,1-.446.477Zm-1.637.449a1.064,1.064,0,0,1,.232-.33,2.411,2.411,0,0,1,.3-.238c.1-.064.214-.128.316-.183a1.526,1.526,0,0,0,.27-.183.694.694,0,0,0,.177-.229.587.587,0,0,0,.028-.321.9.9,0,0,0-.121-.348.471.471,0,0,0-.2-.165.5.5,0,0,0-.232-.046,1.564,1.564,0,0,0-.223.018l-.884.147.326,1.871Z" transform="translate(-39.02 -33.588)" fill="#fff"/>
        <path id="Path_903837" data-name="Path 903837" d="M47.066,34.14l.493,2.852a1.468,1.468,0,0,1-.381,1.32,1.813,1.813,0,0,1-.549.394,2.434,2.434,0,0,1-.679.211,2.618,2.618,0,0,1-.707.018,2.03,2.03,0,0,1-.66-.193,1.439,1.439,0,0,1-.511-.431,1.548,1.548,0,0,1-.288-.688l-.493-2.852.809-.138.474,2.723a.924.924,0,0,0,.167.413,1.016,1.016,0,0,0,.3.266,1.04,1.04,0,0,0,.372.119,1.528,1.528,0,0,0,.409,0,1.1,1.1,0,0,0,.381-.128,1.143,1.143,0,0,0,.316-.238,1.12,1.12,0,0,0,.2-.339.994.994,0,0,0,.019-.44l-.474-2.723.809-.138Z" transform="translate(-39.319 -33.498)" fill="#fff"/>
        <path id="Path_903838" data-name="Path 903838" d="M51.2,33.44l.14.779-1.283.22.623,3.585-.828.138-.623-3.585-1.283.22-.139-.779Z" transform="translate(-39.635 -33.44)" fill="#fff"/>
      </g>
      <path id="Path_906289" data-name="Path 906289" d="M0,0,27.053.083l0,.8L0,.8Z" transform="translate(7.157 20.041) rotate(-12.87)" fill="#fff"/>
      <path id="Path_903839" data-name="Path 903839" d="M39.068,53.765l-.158-.789,27.816-4.9.149.779Z" transform="translate(-28.758 -24.635)" fill="#fff"/>
      <path id="Path_903840" data-name="Path 903840" d="M38.834,61.9l-.084-.8,33.629-.083.084.8Z" transform="translate(-28.746 -25.71)" fill="#fff"/>
      <path id="Path_903841" data-name="Path 903841" d="M54,27.152V38.972l9.9-2.347a22.407,22.407,0,0,1,0-7.015c.642-3.365.735-5.722,0-5.63S54,27.162,54,27.162Z" transform="translate(-29.814 -22.633)" fill="#fff" stroke="#fff" stroke-miterlimit="10" stroke-width="1"/>
      <path id="Path_906290" data-name="Path 906290" d="M0,0,11.532.006l0,6.079L0,6.079Z" transform="translate(23.519 27.95) rotate(-1.97)" fill="#fff"/>
      <path id="Path_903842" data-name="Path 903842" d="M28.065,70.19s-.66,4.585,2.037,7.62a6.933,6.933,0,0,0,6.687,1.916l.233,3.136h.66l6.166-5.236L37.588,72.3h-.809l.2,3.31s-4.5,1.036-6.556-1.843A30.394,30.394,0,0,1,28.055,70.2Z" transform="translate(-27.993 -26.471)" fill="#fff"/>
      <path id="Path_903843" data-name="Path 903843" d="M78.122,27.968v-4h-.744L71.51,29.893,77.3,36.45h.818V32.873l10.528-.1V28Z" transform="translate(-31.04 -22.632)" fill="#fff"/>
    </g>
  </g>
</svg>
