<svg xmlns="http://www.w3.org/2000/svg" xmlns:xlink="http://www.w3.org/1999/xlink" width="610" height="424" viewBox="0 0 610 424">
  <defs>
    <clipPath id="clip-path">
      <rect id="Rectangle_407036" data-name="Rectangle 407036" width="610" height="424" transform="translate(180.051 5029)" fill="#feead4" stroke="#707070" stroke-width="1"/>
    </clipPath>
    <clipPath id="clip-path-2">
      <rect id="Rectangle_406709" data-name="Rectangle 406709" width="487.3" height="597.255" fill="#feead4"/>
    </clipPath>
    <clipPath id="clip-path-5">
      <rect id="Rectangle_406709-2" data-name="Rectangle 406709" width="487.3" height="521.868" fill="#feead4"/>
    </clipPath>
    <clipPath id="clip-path-8">
      <rect id="Rectangle_407480" data-name="Rectangle 407480" width="426.579" height="421.899" fill="none"/>
    </clipPath>
    <clipPath id="clip-path-11">
      <rect id="Rectangle_407454" data-name="Rectangle 407454" width="19.999" height="20.699" transform="translate(339.796 264.363)" fill="none"/>
    </clipPath>
    <clipPath id="clip-path-12">
      <rect id="Rectangle_407455" data-name="Rectangle 407455" width="20.097" height="20.634" transform="translate(391.209 263.293)" fill="none"/>
    </clipPath>
    <clipPath id="clip-path-13">
      <rect id="Rectangle_407456" data-name="Rectangle 407456" width="20.555" height="23.929" transform="translate(349.796 241.371)" fill="none"/>
    </clipPath>
    <clipPath id="clip-path-16">
      <rect id="Rectangle_407470" data-name="Rectangle 407470" width="108.575" height="150.787" transform="translate(117.238 222.208)" fill="none"/>
    </clipPath>
    <clipPath id="clip-path-19">
      <rect id="Rectangle_407476" data-name="Rectangle 407476" width="118.207" height="33.441" transform="translate(63.849 382.794)" fill="none"/>
    </clipPath>
  </defs>
  <g id="Group_1115656" data-name="Group 1115656" transform="translate(-180.051 -6469)">
    <rect id="Rectangle_407342" data-name="Rectangle 407342" width="269" height="416" rx="20" transform="translate(180.051 6469)" fill="#fd9826"/>
    <g id="Mask_Group_1098730" data-name="Mask Group 1098730" transform="translate(0 1440)" clip-path="url(#clip-path)">
      <g id="Group_1114491" data-name="Group 1114491" transform="translate(0 5044.237)">
        <g id="Group_1114490" data-name="Group 1114490" opacity="0.35" clip-path="url(#clip-path-2)">
          <g id="Group_1114489" data-name="Group 1114489">
            <g id="Group_1114488" data-name="Group 1114488" clip-path="url(#clip-path-2)">
              <path id="Path_907583" data-name="Path 907583" d="M194.135,6.224s57.728-14,110.258,0c32.111,8.559,99.789,28.861,115.758,74.883s-60.919,85.288-23.138,131.972c16.294,20.134,94.508,46.7,90.109,177.335s-119,210.279-278.255,206.726S-42.3,420.294,19.3,334.944s88.108-85.592,60.187-155.089S90.33,26.116,194.135,6.224" transform="translate(0 0)" fill="#feead4"/>
              <g id="Group_1114487" data-name="Group 1114487" opacity="0.7">
                <g id="Group_1114486" data-name="Group 1114486">
                  <g id="Group_1114485" data-name="Group 1114485" clip-path="url(#clip-path-2)">
                    <path id="Path_907584" data-name="Path 907584" d="M194.135,6.224s57.728-14,110.258,0c32.111,8.559,99.789,28.861,115.758,74.883s-60.919,85.288-23.138,131.972c16.294,20.134,94.508,46.7,90.109,177.335s-119,210.279-278.255,206.726S-42.3,420.294,19.3,334.944s88.108-85.592,60.187-155.089S90.33,26.116,194.135,6.224" transform="translate(0 0)" fill="#feead4"/>
                  </g>
                </g>
              </g>
            </g>
          </g>
        </g>
      </g>
      <g id="Group_1114492" data-name="Group 1114492" transform="translate(580 4931.761)" opacity="0.35">
        <g id="Group_1114490-2" data-name="Group 1114490" clip-path="url(#clip-path-5)">
          <g id="Group_1114489-2" data-name="Group 1114489">
            <g id="Group_1114488-2" data-name="Group 1114488" clip-path="url(#clip-path-5)">
              <path id="Path_907583-2" data-name="Path 907583" d="M194.135,5.439s57.728-12.235,110.258,0c32.111,7.479,99.789,25.218,115.758,65.431s-60.919,74.522-23.138,115.314c16.294,17.593,94.508,40.809,90.109,154.951s-119,183.737-278.255,180.633S-42.3,367.243,19.3,292.666s88.108-74.789,60.187-135.513S90.33,22.819,194.135,5.439" transform="translate(0 0)" fill="#feead4"/>
              <g id="Group_1114487-2" data-name="Group 1114487" opacity="0.7">
                <g id="Group_1114486-2" data-name="Group 1114486">
                  <g id="Group_1114485-2" data-name="Group 1114485" clip-path="url(#clip-path-5)">
                    <path id="Path_907584-2" data-name="Path 907584" d="M194.135,5.439s57.728-12.235,110.258,0c32.111,7.479,99.789,25.218,115.758,65.431s-60.919,74.522-23.138,115.314c16.294,17.593,94.508,40.809,90.109,154.951s-119,183.737-278.255,180.633S-42.3,367.243,19.3,292.666s88.108-74.789,60.187-135.513S90.33,22.819,194.135,5.439" transform="translate(0 0)" fill="#feead4"/>
                  </g>
                </g>
              </g>
            </g>
          </g>
        </g>
      </g>
    </g>
    <g id="Group_1115655" data-name="Group 1115655" transform="translate(232.5 6463.101)">
      <g id="Group_1115654" data-name="Group 1115654" transform="translate(3 8)" clip-path="url(#clip-path-8)">
        <g id="Group_1115624" data-name="Group 1115624">
          <g id="Group_1115623" data-name="Group 1115623" clip-path="url(#clip-path-8)">
            <path id="Path_909743" data-name="Path 909743" d="M402.706,208.653a2.492,2.492,0,0,1,2.51,2.512v1.285a21.257,21.257,0,0,1,9.054,3.212,3.127,3.127,0,0,1,1.753,2.8,3.218,3.218,0,0,1-3.271,3.213,3.376,3.376,0,0,1-1.752-.526,21.21,21.21,0,0,0-6.017-2.57V229.8c8.879,2.22,12.676,5.783,12.676,12.033,0,6.426-5.024,10.69-12.443,11.39v3.505a2.492,2.492,0,0,1-2.51,2.512,2.543,2.543,0,0,1-2.571-2.512V253.1a25.268,25.268,0,0,1-11.974-4.557,3.209,3.209,0,0,1-1.577-2.8,3.212,3.212,0,0,1,5.14-2.57,20.688,20.688,0,0,0,8.645,3.913V235.58c-8.529-2.22-12.5-5.432-12.5-12.032,0-6.25,4.965-10.573,12.266-11.157v-1.226a2.543,2.543,0,0,1,2.571-2.512m-2.337,19.918V218.232c-3.739.351-5.608,2.337-5.608,4.907,0,2.453,1.11,3.972,5.608,5.432m4.614,8.119v10.631c3.738-.409,5.783-2.278,5.783-5.082,0-2.57-1.285-4.147-5.783-5.549" fill="#ebebeb"/>
            <path id="Path_909744" data-name="Path 909744" d="M221.445,4.054a2.492,2.492,0,0,1,2.51,2.512V7.851a21.257,21.257,0,0,1,9.054,3.212,3.127,3.127,0,0,1,1.753,2.8,3.218,3.218,0,0,1-3.271,3.213,3.375,3.375,0,0,1-1.752-.526,21.21,21.21,0,0,0-6.017-2.57V25.2c8.879,2.22,12.676,5.783,12.676,12.033,0,6.426-5.024,10.69-12.443,11.39v3.505a2.492,2.492,0,0,1-2.51,2.512,2.543,2.543,0,0,1-2.571-2.512V48.505A25.268,25.268,0,0,1,206.9,43.948a3.209,3.209,0,0,1-1.577-2.8,3.212,3.212,0,0,1,5.14-2.57,20.688,20.688,0,0,0,8.645,3.913V30.981c-8.529-2.22-12.5-5.432-12.5-12.032,0-6.25,4.965-10.573,12.266-11.157V6.566a2.543,2.543,0,0,1,2.571-2.512m-2.337,19.918V13.634c-3.738.35-5.608,2.336-5.608,4.906,0,2.453,1.11,3.972,5.608,5.432m4.614,8.119V42.722c3.738-.409,5.783-2.278,5.783-5.082,0-2.57-1.285-4.147-5.783-5.549" fill="#ebebeb"/>
          </g>
        </g>
        <g id="Group_1115635" data-name="Group 1115635">
          <g id="Group_1115634" data-name="Group 1115634" clip-path="url(#clip-path-8)">
            <path id="Path_909745" data-name="Path 909745" d="M357.315,277.011c15.995,15.659,18.68,39.885,15.309,61.105-.087.482-.832.35-.832-.1,0-4.831.146-9.618.132-14.39-.088-.219-.161-.423-.248-.642-4.174-3.036-8.013-6.465-10.392-11.164-2.67-5.254-3.721-11.179-5.764-16.667-.19-.525.37-.371.737-.1,9.729,7.175,12.831,14.9,15.623,25.217a85.8,85.8,0,0,0-1.693-16.068c-2.1-9.793-6.261-19.5-13.3-26.766-.263-.277.146-.7.423-.423" fill="#263238"/>
            <path id="Path_909746" data-name="Path 909746" d="M354.309,278.837c-2.752.093-4.476,4.491-6.621,5.774a2.063,2.063,0,0,1-3.037-.477c-2.125-2.966.791-6.625,3.532-8.672-1.961.806-3.587,2.223-5.7,2.624a1.988,1.988,0,0,1-2.575-1.541c-.931-4.044,4.141-5.842,7.621-5.927-1.687-1.173-6.523-4.362-3.954-5.929,2.6-1.574,8.277,2.984,10.128,4.486,2.72,2.207,5.964,5.505,6.086,8.957.16,4.03-3.362,1.55-5.48.705" fill="#ffc727"/>
            <g id="Group_1115627" data-name="Group 1115627" opacity="0.1">
              <g id="Group_1115626" data-name="Group 1115626">
                <g id="Group_1115625" data-name="Group 1115625" clip-path="url(#clip-path-11)">
                  <path id="Path_909747" data-name="Path 909747" d="M354.309,278.837c-2.752.093-4.476,4.491-6.621,5.774a2.063,2.063,0,0,1-3.037-.477c-2.125-2.966.791-6.625,3.532-8.672-1.961.806-3.587,2.223-5.7,2.624a1.988,1.988,0,0,1-2.575-1.541c-.931-4.044,4.141-5.842,7.621-5.927-1.687-1.173-6.523-4.362-3.954-5.929,2.6-1.574,8.277,2.984,10.128,4.486,2.72,2.207,5.964,5.505,6.086,8.957.16,4.03-3.362,1.55-5.48.705"/>
                </g>
              </g>
            </g>
            <path id="Path_909748" data-name="Path 909748" d="M355.106,279.515c-3.518-1.6-10.277.7-10.852-.629-1.165-2.71,4.236-4.57,7.152-4.929-2.685-.728-7.83-1.887-7.672-4.476.194-3.162,7.891-.443,11.787,2.545,4.908,3.764,4.876,7.395,4.065,8.122-1.113,1-3.9-.369-4.48-.633" fill="#ffc727"/>
            <path id="Path_909749" data-name="Path 909749" d="M393.743,275.461c-16.579,15.04-20.184,39.146-17.622,60.478.069.485.818.382.835-.07.184-4.827.22-9.616.416-14.384.1-.216.176-.417.272-.632,4.287-2.875,8.253-6.156,10.808-10.762,2.869-5.148,4.144-11.029,6.395-16.434.209-.518-.356-.385-.733-.129-10,6.8-13.388,14.4-16.571,24.6a85.832,85.832,0,0,1,2.3-15.992c2.473-9.705,7-19.245,14.3-26.24.273-.267-.12-.706-.407-.439" fill="#263238"/>
            <path id="Path_909750" data-name="Path 909750" d="M396.677,277.4c2.746.2,4.3,4.658,6.4,6.022a2.061,2.061,0,0,0,3.052-.362c2.237-2.883-.537-6.649-3.2-8.8,1.928.881,3.5,2.357,5.6,2.84a1.989,1.989,0,0,0,2.631-1.442c1.085-4.006-3.915-6-7.389-6.213,1.73-1.108,6.684-4.11,4.176-5.776-2.541-1.67-8.384,2.668-10.291,4.1-2.8,2.1-6.169,5.274-6.422,8.718-.313,4.021,3.3,1.676,5.449.913" fill="#ffc727"/>
            <g id="Group_1115630" data-name="Group 1115630" opacity="0.1">
              <g id="Group_1115629" data-name="Group 1115629">
                <g id="Group_1115628" data-name="Group 1115628" clip-path="url(#clip-path-12)">
                  <path id="Path_909751" data-name="Path 909751" d="M396.677,277.4c2.746.2,4.3,4.658,6.4,6.022a2.061,2.061,0,0,0,3.052-.362c2.237-2.883-.537-6.649-3.2-8.8,1.928.881,3.5,2.357,5.6,2.84a1.989,1.989,0,0,0,2.631-1.442c1.085-4.006-3.915-6-7.389-6.213,1.73-1.108,6.684-4.11,4.176-5.776-2.541-1.67-8.384,2.668-10.291,4.1-2.8,2.1-6.169,5.274-6.422,8.718-.313,4.021,3.3,1.676,5.449.913"/>
                </g>
              </g>
            </g>
            <path id="Path_909752" data-name="Path 909752" d="M395.856,278.047c3.577-1.465,10.243,1.093,10.868-.216,1.267-2.664-4.059-4.727-6.959-5.2,2.711-.625,7.895-1.587,7.836-4.18-.073-3.167-7.868-.743-11.875,2.094-5.048,3.575-5.154,7.2-4.37,7.962,1.074,1.039,3.91-.22,4.5-.462" fill="#ffc727"/>
            <path id="Path_909753" data-name="Path 909753" d="M376.789,315.181a162.915,162.915,0,0,1-5.148,23.78.592.592,0,0,1-1.158-.234c1.089-7.328,3.074-14.521,4.163-21.849a110.018,110.018,0,0,0,1.273-22.431c-.7-12.349-4.051-25.485-12.109-35.147-.177-.229.2-.553.381-.34,16.133,18.81,13.566,41.873,13.551,43.94,2.284-7.788,4.638-16.714,13.277-24.644.372-.342.663-.179.6.4-1.545,14.444-5.56,21.985-13.934,29.707-.238,2.289-.533,4.567-.9,6.816" fill="#263238"/>
            <path id="Path_909754" data-name="Path 909754" d="M363.664,261.464c-2.9-1.289-6.9,2.406-9.777,2.658-1.52.138-2.645-.462-2.91-2.023-.712-4.148,4.155-6.477,8.03-7.22-2.44-.151-4.841.5-7.236-.146a2.294,2.294,0,0,1-1.895-2.9c1.069-4.665,7.237-3.978,10.89-2.314-1.16-2.066-4.572-7.808-1.117-8.142,3.493-.322,7.085,7.263,8.25,9.753,1.711,3.659,3.416,8.714,1.806,12.357-1.863,4.261-4.269-.085-6.041-2.027" fill="#ffc727"/>
            <g id="Group_1115633" data-name="Group 1115633" opacity="0.1">
              <g id="Group_1115632" data-name="Group 1115632">
                <g id="Group_1115631" data-name="Group 1115631" clip-path="url(#clip-path-13)">
                  <path id="Path_909755" data-name="Path 909755" d="M363.664,261.464c-2.9-1.289-6.9,2.406-9.777,2.658-1.52.138-2.645-.462-2.91-2.023-.712-4.148,4.155-6.477,8.03-7.22-2.44-.151-4.841.5-7.236-.146a2.294,2.294,0,0,1-1.895-2.9c1.069-4.665,7.237-3.978,10.89-2.314-1.16-2.066-4.572-7.808-1.117-8.142,3.493-.322,7.085,7.263,8.25,9.753,1.711,3.659,3.416,8.714,1.806,12.357-1.863,4.261-4.269-.085-6.041-2.027"/>
                </g>
              </g>
            </g>
            <path id="Path_909756" data-name="Path 909756" d="M364.149,262.568c-2.845-3.43-11.016-4.444-10.943-6.115.156-3.4,6.7-2.609,9.9-1.515-2.42-2.106-7.174-5.9-5.707-8.505,1.792-3.183,8.41,3.512,10.948,8.573,3.2,6.376,1.338,10.128.129,10.474-1.657.474-3.859-2.346-4.329-2.912" fill="#ffc727"/>
            <path id="Path_909757" data-name="Path 909757" d="M387.4,319.528l7.115,54.363h-43.3c.892-4.817,8.95-54.426,8.95-54.426Z" fill="#ffc727"/>
          </g>
        </g>
        <path id="Path_909758" data-name="Path 909758" d="M106.645,373.483l-53.322.088L0,373.815l53.323.243,53.322.088,106.645.168,106.644-.167,53.323-.088,53.322-.244-53.322-.245-53.323-.088-106.644-.166Z" fill="#263238"/>
        <rect id="Rectangle_407458" data-name="Rectangle 407458" width="157.379" height="201.455" transform="translate(262.23)" fill="#ebebeb"/>
        <rect id="Rectangle_407459" data-name="Rectangle 407459" width="157.379" height="11.75" transform="translate(262.23 11.278)" fill="#263238"/>
        <path id="Path_909759" data-name="Path 909759" d="M262.23,23.028h85.9l-7.213,12.637H262.23Z" fill="#263238"/>
        <path id="Path_909760" data-name="Path 909760" d="M262.23,8.95h85.9l-3.548,4.656H262.23Z" fill="#ffc727"/>
        <path id="Path_909761" data-name="Path 909761" d="M262.23,15.823h45.9l-3.548,4.655H262.23Z" fill="#ffc727"/>
        <g id="Group_1115637" data-name="Group 1115637">
          <g id="Group_1115636" data-name="Group 1115636" clip-path="url(#clip-path-8)">
            <path id="Path_909762" data-name="Path 909762" d="M357.878,27.928a.65.65,0,0,1,.659-.66.668.668,0,0,1,.672.66V35a.668.668,0,0,1-.672.66.65.65,0,0,1-.659-.66Z" fill="#263238"/>
            <path id="Path_909763" data-name="Path 909763" d="M362.773,35a.654.654,0,1,1-1.307,0v-6.98a.649.649,0,0,1,.264-.552.66.66,0,0,1,.911.144l3.874,5.361V28.036a.653.653,0,0,1,.648-.648.664.664,0,0,1,.66.648V35a.666.666,0,0,1-.66.66.652.652,0,0,1-.492-.24.347.347,0,0,1-.06-.072l-3.838-5.325Z" fill="#263238"/>
            <path id="Path_909764" data-name="Path 909764" d="M373.441,35.544a.555.555,0,0,0-.084-.06c0-.012-.013-.012-.013-.036a.312.312,0,0,1-.059-.072.012.012,0,0,1-.012-.012.451.451,0,0,0-.061-.1l-2.938-7a.639.639,0,0,1,.36-.851.648.648,0,0,1,.852.347l2.339,5.554,2.338-5.554a.661.661,0,0,1,1.223.5l-2.962,7a.346.346,0,0,1-.048.1c0,.012,0,.012-.012.012-.012.024-.048.048-.06.072a.075.075,0,0,1-.024.036c-.024.024-.048.036-.072.06l-.024.012a.618.618,0,0,1-.1.06c-.011,0-.011,0-.024.012a.283.283,0,0,0-.1.024h-.024a.447.447,0,0,1-.119.012.408.408,0,0,1-.12-.012h-.025a.271.271,0,0,0-.1-.024.011.011,0,0,0-.011-.012h-.013c-.023-.012-.071-.048-.107-.072Z" fill="#263238"/>
            <path id="Path_909765" data-name="Path 909765" d="M385.846,28.312a4.4,4.4,0,0,1,0,6.069,3.929,3.929,0,0,1-2.866,1.283,4.049,4.049,0,0,1-2.938-1.283,4.47,4.47,0,0,1,0-6.069,4,4,0,0,1,2.938-1.283,3.881,3.881,0,0,1,2.866,1.283m-.155,3.034a3.108,3.108,0,0,0-.816-2.1,2.586,2.586,0,0,0-1.895-.851,2.613,2.613,0,0,0-1.943.851,3.057,3.057,0,0,0-.816,2.1,3,3,0,0,0,.816,2.087,2.563,2.563,0,0,0,3.838,0,3.053,3.053,0,0,0,.816-2.087" fill="#263238"/>
            <path id="Path_909766" data-name="Path 909766" d="M388.909,27.928a.651.651,0,0,1,.66-.66.668.668,0,0,1,.672.66V35a.668.668,0,0,1-.672.66.651.651,0,0,1-.66-.66Z" fill="#263238"/>
            <path id="Path_909767" data-name="Path 909767" d="M392.114,31.346a4.4,4.4,0,0,1,4.4-4.317,4.483,4.483,0,0,1,2.771.935.71.71,0,0,1,.12.96.7.7,0,0,1-.959.131,2.994,2.994,0,0,0-1.932-.659,3.173,3.173,0,0,0-2.158.864,2.955,2.955,0,0,0-.876,2.086,2.914,2.914,0,0,0,.876,2.087,3.173,3.173,0,0,0,2.158.864,3.012,3.012,0,0,0,1.932-.66.727.727,0,0,1,.959.132.707.707,0,0,1-.12.959,4.484,4.484,0,0,1-2.771.936,4.388,4.388,0,0,1-4.4-4.318" fill="#263238"/>
            <path id="Path_909768" data-name="Path 909768" d="M401.738,35V27.928a.65.65,0,0,1,.659-.66h3.922a.665.665,0,0,1,.66.66.676.676,0,0,1-.66.672h-3.25V30.8h2.8a.666.666,0,0,1,0,1.331h-2.8v2.207h3.25a.666.666,0,0,1,0,1.331h-3.886c-.023,0-.023-.012-.023-.012l-.013.012a.658.658,0,0,1-.659-.66" fill="#263238"/>
            <rect id="Rectangle_407460" data-name="Rectangle 407460" width="128.581" height="9.887" transform="translate(276.629 82.298)" fill="#fff"/>
            <rect id="Rectangle_407461" data-name="Rectangle 407461" width="128.581" height="9.887" transform="translate(276.629 72.411)" fill="#ffc727"/>
            <rect id="Rectangle_407462" data-name="Rectangle 407462" width="128.581" height="9.887" transform="translate(276.629 92.184)" fill="#dbdbdb"/>
            <rect id="Rectangle_407463" data-name="Rectangle 407463" width="128.581" height="9.887" transform="translate(276.629 102.071)" fill="#fff"/>
            <rect id="Rectangle_407464" data-name="Rectangle 407464" width="128.581" height="9.887" transform="translate(276.629 111.958)" fill="#dbdbdb"/>
            <rect id="Rectangle_407465" data-name="Rectangle 407465" width="128.581" height="9.887" transform="translate(276.629 121.844)" fill="#fff"/>
            <rect id="Rectangle_407466" data-name="Rectangle 407466" width="128.581" height="9.887" transform="translate(276.629 131.731)" fill="#dbdbdb"/>
            <rect id="Rectangle_407467" data-name="Rectangle 407467" width="90.029" height="9.887" transform="translate(315.181 141.618)" fill="#ffc727"/>
            <rect id="Rectangle_407468" data-name="Rectangle 407468" width="38.552" height="69.207" transform="translate(276.629 72.411)" fill="#c7c7c7"/>
            <path id="Path_909769" data-name="Path 909769" d="M276.629,92.185l64.291-.125,64.29.125-64.29.125Z" fill="#263238"/>
            <path id="Path_909770" data-name="Path 909770" d="M276.629,102.071l64.291-.125,64.29.125-64.29.125Z" fill="#263238"/>
            <path id="Path_909771" data-name="Path 909771" d="M276.629,111.958l64.291-.125,64.29.125-64.29.125Z" fill="#263238"/>
            <path id="Path_909772" data-name="Path 909772" d="M276.629,121.845l64.291-.125,64.29.125-64.29.125Z" fill="#263238"/>
            <path id="Path_909773" data-name="Path 909773" d="M276.629,131.731l64.291-.125,64.29.125-64.29.125Z" fill="#263238"/>
            <path id="Path_909774" data-name="Path 909774" d="M276.629,141.618l64.291-.125,64.29.125-64.29.125Z" fill="#263238"/>
            <path id="Path_909775" data-name="Path 909775" d="M283.515,77.355c4.1-.206,8.211-.22,12.316-.25,4.105.029,8.211.042,12.316.25-4.105.208-8.211.221-12.316.25-4.1-.03-8.211-.043-12.316-.25" fill="#263238"/>
            <path id="Path_909776" data-name="Path 909776" d="M283.515,87.241c3.1-.207,6.211-.22,9.316-.25,3.105.029,6.211.042,9.316.25-3.105.208-6.211.221-9.316.25-3.1-.03-6.211-.043-9.316-.25" fill="#263238"/>
            <path id="Path_909777" data-name="Path 909777" d="M283.515,97.128c4.1-.207,8.211-.22,12.316-.25,4.105.029,8.211.042,12.316.25-4.105.208-8.211.221-12.316.25-4.1-.03-8.211-.044-12.316-.25" fill="#263238"/>
            <path id="Path_909778" data-name="Path 909778" d="M283.515,107.015c3.38-.207,6.759-.22,10.139-.25,3.38.029,6.759.042,10.139.25-3.38.208-6.759.221-10.139.25-3.38-.03-6.759-.043-10.139-.25" fill="#263238"/>
            <path id="Path_909779" data-name="Path 909779" d="M283.515,116.9c4.1-.206,8.211-.22,12.316-.25,4.105.029,8.211.042,12.316.25-4.105.208-8.211.221-12.316.25-4.1-.03-8.211-.043-12.316-.25" fill="#263238"/>
            <path id="Path_909780" data-name="Path 909780" d="M283.515,126.788c4.1-.207,8.211-.22,12.316-.25,4.105.029,8.211.042,12.316.25-4.105.208-8.211.221-12.316.25-4.1-.03-8.211-.043-12.316-.25" fill="#263238"/>
            <path id="Path_909781" data-name="Path 909781" d="M283.515,136.675c2.493-.2,4.986-.24,7.479-.25,2.493.009,4.986.054,7.478.25-2.492.2-4.985.241-7.478.25-2.493-.01-4.986-.055-7.479-.25" fill="#263238"/>
            <path id="Path_909782" data-name="Path 909782" d="M324.189,77.355c3.084-.206,6.17-.22,9.255-.25,3.085.029,6.171.042,9.257.25-3.086.208-6.172.221-9.257.25-3.085-.03-6.171-.043-9.255-.25" fill="#263238"/>
            <path id="Path_909783" data-name="Path 909783" d="M324.189,87.241c3.084-.207,6.17-.22,9.255-.25,3.085.029,6.171.042,9.257.25-3.086.208-6.172.221-9.257.25-3.085-.03-6.171-.043-9.255-.25" fill="#263238"/>
            <path id="Path_909784" data-name="Path 909784" d="M324.189,97.128c3.084-.207,6.17-.22,9.255-.25,3.085.029,6.171.042,9.257.25-3.086.208-6.172.221-9.257.25-3.085-.03-6.171-.044-9.255-.25" fill="#263238"/>
            <path id="Path_909785" data-name="Path 909785" d="M324.189,107.015c3.084-.207,6.17-.22,9.255-.25,3.085.029,6.171.042,9.257.25-3.086.208-6.172.221-9.257.25-3.085-.03-6.171-.043-9.255-.25" fill="#263238"/>
            <path id="Path_909786" data-name="Path 909786" d="M324.189,116.9c3.084-.206,6.17-.22,9.255-.25,3.085.029,6.171.042,9.257.25-3.086.208-6.172.221-9.257.25-3.085-.03-6.171-.043-9.255-.25" fill="#263238"/>
            <path id="Path_909787" data-name="Path 909787" d="M324.189,126.788c3.084-.207,6.17-.22,9.255-.25,3.085.029,6.171.042,9.257.25-3.086.208-6.172.221-9.257.25-3.085-.03-6.171-.043-9.255-.25" fill="#263238"/>
            <path id="Path_909788" data-name="Path 909788" d="M324.189,136.675c3.084-.207,6.17-.22,9.255-.25,3.085.029,6.171.042,9.257.25-3.086.208-6.172.221-9.257.25-3.085-.03-6.171-.043-9.255-.25" fill="#263238"/>
            <path id="Path_909789" data-name="Path 909789" d="M350.94,77.355c3.085-.206,6.17-.22,9.256-.25,3.085.029,6.17.042,9.255.25-3.085.208-6.17.221-9.255.25-3.086-.03-6.171-.043-9.256-.25" fill="#263238"/>
            <path id="Path_909790" data-name="Path 909790" d="M357.239,136.675a15.946,15.946,0,0,1,2.956-.25,15.785,15.785,0,0,1,2.956.25,15.785,15.785,0,0,1-2.956.25,15.949,15.949,0,0,1-2.956-.25" fill="#263238"/>
            <path id="Path_909791" data-name="Path 909791" d="M357.239,126.788a15.947,15.947,0,0,1,2.956-.25,15.784,15.784,0,0,1,2.956.25,15.785,15.785,0,0,1-2.956.25,15.947,15.947,0,0,1-2.956-.25" fill="#263238"/>
            <path id="Path_909792" data-name="Path 909792" d="M357.239,116.9a15.947,15.947,0,0,1,2.956-.25,15.785,15.785,0,0,1,2.956.25,15.785,15.785,0,0,1-2.956.25,15.947,15.947,0,0,1-2.956-.25" fill="#263238"/>
            <path id="Path_909793" data-name="Path 909793" d="M357.239,107.015a15.947,15.947,0,0,1,2.956-.25,15.785,15.785,0,0,1,2.956.25,15.785,15.785,0,0,1-2.956.25,15.947,15.947,0,0,1-2.956-.25" fill="#263238"/>
            <path id="Path_909794" data-name="Path 909794" d="M357.239,97.128a15.947,15.947,0,0,1,2.956-.25,15.785,15.785,0,0,1,2.956.25,15.784,15.784,0,0,1-2.956.25,15.947,15.947,0,0,1-2.956-.25" fill="#263238"/>
            <path id="Path_909795" data-name="Path 909795" d="M357.239,87.241a15.947,15.947,0,0,1,2.956-.25,15.785,15.785,0,0,1,2.956.25,15.784,15.784,0,0,1-2.956.25,15.947,15.947,0,0,1-2.956-.25" fill="#263238"/>
            <path id="Path_909796" data-name="Path 909796" d="M358.995,146.561a49.434,49.434,0,0,1,5.228-.25,48.935,48.935,0,0,1,5.228.25,48.935,48.935,0,0,1-5.228.25,49.443,49.443,0,0,1-5.228-.25" fill="#263238"/>
            <path id="Path_909797" data-name="Path 909797" d="M377.691,77.355c3.085-.206,6.17-.22,9.256-.25,3.085.029,6.17.042,9.255.25-3.085.208-6.17.221-9.255.25-3.086-.03-6.171-.043-9.256-.25" fill="#263238"/>
            <path id="Path_909798" data-name="Path 909798" d="M377.691,87.241c3.085-.207,6.17-.22,9.256-.25,3.085.029,6.17.042,9.255.25-3.085.208-6.17.221-9.255.25-3.086-.03-6.171-.043-9.256-.25" fill="#263238"/>
            <path id="Path_909799" data-name="Path 909799" d="M377.691,97.128c3.085-.207,6.17-.22,9.256-.25,3.085.029,6.17.042,9.255.25-3.085.208-6.17.221-9.255.25-3.086-.03-6.171-.044-9.256-.25" fill="#263238"/>
            <path id="Path_909800" data-name="Path 909800" d="M377.691,107.015c3.085-.207,6.17-.22,9.256-.25,3.085.029,6.17.042,9.255.25-3.085.208-6.17.221-9.255.25-3.086-.03-6.171-.043-9.256-.25" fill="#263238"/>
            <path id="Path_909801" data-name="Path 909801" d="M377.691,116.9c3.085-.206,6.17-.22,9.256-.25,3.085.029,6.17.042,9.255.25-3.085.208-6.17.221-9.255.25-3.086-.03-6.171-.043-9.256-.25" fill="#263238"/>
            <path id="Path_909802" data-name="Path 909802" d="M377.691,126.788c3.085-.207,6.17-.22,9.256-.25,3.085.029,6.17.042,9.255.25-3.085.208-6.17.221-9.255.25-3.086-.03-6.171-.043-9.256-.25" fill="#263238"/>
            <path id="Path_909803" data-name="Path 909803" d="M377.691,136.675c3.085-.207,6.17-.22,9.256-.25,3.085.029,6.17.042,9.255.25-3.085.208-6.17.221-9.255.25-3.086-.03-6.171-.043-9.256-.25" fill="#263238"/>
            <path id="Path_909804" data-name="Path 909804" d="M377.691,146.561c3.085-.207,6.17-.22,9.256-.25,3.085.029,6.17.042,9.255.25-3.085.208-6.17.221-9.255.25-3.086-.03-6.171-.044-9.256-.25" fill="#263238"/>
            <path id="Path_909805" data-name="Path 909805" d="M276.629,30.343c3.816-.206,7.631-.3,11.447-.383s7.631-.075,11.446-.116c3.816.039,7.631.035,11.447.114l5.723.14c1.908.083,3.816.132,5.723.245-1.907.113-3.815.162-5.723.246l-5.723.139c-3.816.079-7.631.075-11.447.114-3.815-.041-7.631-.033-11.446-.115s-7.631-.178-11.447-.384" fill="#fff"/>
            <path id="Path_909806" data-name="Path 909806" d="M276.629,25.466c4.333-.206,8.666-.3,13-.383s8.665-.075,13-.116c4.333.039,8.666.035,13,.114l6.5.14c2.166.083,4.332.132,6.5.245-2.167.113-4.333.162-6.5.245l-6.5.14c-4.332.079-8.665.075-13,.115-4.333-.042-8.666-.035-13-.117s-8.666-.177-13-.383" fill="#fff"/>
            <path id="Path_909807" data-name="Path 909807" d="M276.629,54.971c3.548-.155,7.1-.227,10.643-.287s7.1-.056,10.643-.088c3.548.03,7.1.027,10.643.087s7.1.132,10.643.288c-3.548.156-7.1.228-10.643.288s-7.1.057-10.643.087c-3.548-.032-7.1-.026-10.643-.088s-7.1-.132-10.643-.287" fill="#263238"/>
            <path id="Path_909808" data-name="Path 909808" d="M276.629,59.183c2.225-.155,4.45-.227,6.675-.287s4.45-.056,6.675-.088c2.226.03,4.451.027,6.676.086s4.45.133,6.675.289c-2.225.156-4.45.228-6.675.288s-4.45.057-6.676.086c-2.225-.031-4.45-.025-6.675-.087s-4.45-.132-6.675-.287" fill="#263238"/>
            <path id="Path_909809" data-name="Path 909809" d="M276.629,63.4c3.1-.155,6.194-.227,9.291-.287s6.194-.056,9.291-.088c3.1.03,6.194.027,9.291.087s6.194.132,9.291.288c-3.1.156-6.194.228-9.291.288s-6.194.057-9.291.087c-3.1-.032-6.194-.026-9.291-.088s-6.194-.132-9.291-.287" fill="#263238"/>
            <path id="Path_909810" data-name="Path 909810" d="M276.629,159.138c2.278-.155,4.555-.227,6.833-.287s4.555-.056,6.832-.088c2.278.03,4.555.027,6.833.087s4.555.132,6.832.288c-2.277.156-4.555.228-6.832.289s-4.555.056-6.833.086c-2.277-.032-4.555-.026-6.832-.088s-4.555-.132-6.833-.287" fill="#263238"/>
            <path id="Path_909811" data-name="Path 909811" d="M276.629,163.35c2.633-.155,5.266-.227,7.9-.287s5.266-.056,7.9-.087c2.633.029,5.266.026,7.9.086s5.267.132,7.9.288c-2.633.156-5.266.228-7.9.289s-5.266.056-7.9.086c-2.633-.032-5.266-.026-7.9-.088s-5.267-.132-7.9-.287" fill="#263238"/>
            <path id="Path_909812" data-name="Path 909812" d="M276.629,180.144c4.139-.155,8.278-.227,12.417-.287l12.416-.088,12.416.087c4.139.06,8.278.132,12.417.288-4.139.156-8.278.228-12.417.288l-12.416.087-12.416-.088c-4.139-.06-8.278-.132-12.417-.287" fill="#263238"/>
            <path id="Path_909813" data-name="Path 909813" d="M276.629,167.563c1.606-.155,3.213-.227,4.819-.287s3.213-.078,4.819-.088c1.606.009,3.213.019,4.819.087s3.213.132,4.819.288c-1.606.156-3.213.228-4.819.288s-3.213.078-4.819.087c-1.606-.01-3.213-.019-4.819-.088s-3.213-.132-4.819-.287" fill="#263238"/>
            <path id="Path_909814" data-name="Path 909814" d="M357.239,171.719c4-.155,7.995-.227,11.993-.287l11.992-.088,11.993.087c4,.06,7.995.132,11.992.288-4,.156-8,.228-11.992.288l-11.993.086-11.992-.087c-4-.06-8-.132-11.993-.287" fill="#263238"/>
            <path id="Path_909815" data-name="Path 909815" d="M357.239,167.563c3.247-.155,6.494-.227,9.741-.287s6.493-.056,9.74-.088c3.247.03,6.494.027,9.741.087s6.494.132,9.741.288c-3.247.156-6.494.228-9.741.288s-6.494.057-9.741.087c-3.247-.032-6.493-.026-9.74-.088s-6.494-.132-9.741-.287" fill="#263238"/>
            <path id="Path_909816" data-name="Path 909816" d="M357.239,175.932c3.052-.155,6.1-.227,9.156-.287s6.1-.056,9.156-.088c3.051.03,6.1.027,9.155.087s6.1.132,9.156.288c-3.052.156-6.1.228-9.156.288s-6.1.057-9.155.087c-3.052-.032-6.1-.026-9.156-.088s-6.1-.132-9.156-.287" fill="#263238"/>
            <path id="Path_909817" data-name="Path 909817" d="M357.239,180.144c2.188-.155,4.375-.227,6.563-.287s4.375-.056,6.563-.088c2.188.03,4.375.027,6.563.087s4.376.132,6.563.288c-2.187.156-4.375.228-6.563.288s-4.375.057-6.563.087c-2.188-.032-4.375-.026-6.563-.088s-4.375-.132-6.563-.287" fill="#263238"/>
            <path id="Path_909818" data-name="Path 909818" d="M277.937,176.691q1.791-1.231,3.677-2.318a17.422,17.422,0,0,1,3.977-1.791,4.109,4.109,0,0,1,.548-.1.572.572,0,0,1,.6.2A2.074,2.074,0,0,1,287,173.8a12.9,12.9,0,0,1-.225,2.183c-.252,1.434-.609,2.843-1,4.241a64.856,64.856,0,0,1-2.887,8.215,13.045,13.045,0,0,1-1.031,1.952,2.5,2.5,0,0,1-.391.455.6.6,0,0,1-.377.168.394.394,0,0,1-.262-.1l-.13-.132a2.158,2.158,0,0,1-.308-1.16,14.624,14.624,0,0,1,.764-4.327,25.268,25.268,0,0,1,1.634-4.051,12.312,12.312,0,0,1,2.551-3.558,4.02,4.02,0,0,1,2-.955,2.355,2.355,0,0,1,1.133.1,1.763,1.763,0,0,1,.8.82,5.39,5.39,0,0,0,.6.87.881.881,0,0,0,.877.291,5.806,5.806,0,0,0,1.821-1.068c.289-.218.573-.441.873-.651a3.9,3.9,0,0,1,.475-.289.55.55,0,0,1,.6-.03c.282.355.212.734.353,1.057a.641.641,0,0,0,.743.471,6.48,6.48,0,0,0,1.594-1.389c.491-.529.967-1.074,1.441-1.62.946-1.1,1.878-2.2,2.846-3.283.485-.539.977-1.073,1.5-1.58a8.746,8.746,0,0,1,.834-.72,2.523,2.523,0,0,1,.492-.294.784.784,0,0,1,.318-.072.424.424,0,0,1,.335.18,1.924,1.924,0,0,1,.148,1.155,9.375,9.375,0,0,1-.174,1.088,21.059,21.059,0,0,1-.58,2.109,21.385,21.385,0,0,1-1.73,4.019,4.343,4.343,0,0,1-.685.908.789.789,0,0,1-.639.257,1.9,1.9,0,0,1-.582-.164,2.693,2.693,0,0,1-1.459-1.774.994.994,0,0,1,.085-.68.684.684,0,0,1,.28-.269.736.736,0,0,1,.372-.08,4.143,4.143,0,0,1,1.123.267c.7.246,1.361.539,2.026.827s1.324.586,1.989.853c.332.132.666.262,1,.359a2.625,2.625,0,0,0,.482.1.706.706,0,0,0,.4-.083c.544-.274.911-.948,1.454-1.484a1.765,1.765,0,0,1,1.109-.566.566.566,0,0,1,.445.145.588.588,0,0,1,.15.443,2.934,2.934,0,0,1-.107.589c-.1.327-.141.738-.049.754.1.094.522.032.828-.047a5.526,5.526,0,0,0,1.827-.955,10.912,10.912,0,0,1,.923-.622,1.822,1.822,0,0,1,1.209-.288,4.484,4.484,0,0,1,1.855,1.346,5.055,5.055,0,0,0,.772.67c.13.08.25.108.28.077a2.846,2.846,0,0,0,.415-.255,16.93,16.93,0,0,0,1.634-1.374,18.73,18.73,0,0,0,2.8-3.225,3.627,3.627,0,0,0,.7-1.873c0-.649-.667-.946-1.361-1.055a11.785,11.785,0,0,0-4.244.06,10.5,10.5,0,0,0-2.051.582,4.32,4.32,0,0,0-.916.5c-.267.2-.505.477-.428.734s.389.478.691.631.657.268.99.4a19.508,19.508,0,0,0,2.067.609,47.9,47.9,0,0,0,8.614.823l0,.05a45.553,45.553,0,0,1-8.666-.632,20.213,20.213,0,0,1-2.105-.589c-.341-.129-.687-.234-1.028-.4a1.516,1.516,0,0,1-.854-.81,1.072,1.072,0,0,1,.528-1.069,4.587,4.587,0,0,1,.98-.55,10.781,10.781,0,0,1,2.111-.631,12.176,12.176,0,0,1,4.391-.116,3.088,3.088,0,0,1,1.1.369,1.337,1.337,0,0,1,.629,1.07,4.005,4.005,0,0,1-.745,2.155,17.928,17.928,0,0,1-2.856,3.339,17.384,17.384,0,0,1-1.685,1.422,3.089,3.089,0,0,1-.51.31.809.809,0,0,1-.745-.108,5.33,5.33,0,0,1-.87-.743,4.244,4.244,0,0,0-1.593-1.2c-.533-.079-1.154.419-1.726.827a6.055,6.055,0,0,1-2,1.041,1.615,1.615,0,0,1-1.282-.048.785.785,0,0,1-.252-.729,3.822,3.822,0,0,1,.116-.572,2.473,2.473,0,0,0,.1-.474c0-.065-.017-.089,0-.064s0,0-.061,0a1.279,1.279,0,0,0-.774.416c-.5.457-.83,1.158-1.6,1.567a1.2,1.2,0,0,1-.652.127,3.185,3.185,0,0,1-.578-.125c-.361-.108-.7-.243-1.041-.38-.677-.277-1.337-.578-2-.871s-1.321-.586-1.989-.826a3.812,3.812,0,0,0-.979-.247c-.232-.025-.361.188-.3.5a2.284,2.284,0,0,0,1.2,1.48,1.5,1.5,0,0,0,.456.137c.094.027.2-.043.325-.15a3.985,3.985,0,0,0,.625-.815,20.982,20.982,0,0,0,1.746-3.923,20.662,20.662,0,0,0,.6-2.069,9.33,9.33,0,0,0,.182-1.052,1.785,1.785,0,0,0-.083-.967c-.1-.19-.514.051-.77.239a8.406,8.406,0,0,0-.814.691c-.521.494-1.016,1.02-1.5,1.553-.974,1.067-1.915,2.167-2.872,3.254-.479.543-.961,1.085-1.46,1.612a6.392,6.392,0,0,1-1.679,1.42.808.808,0,0,1-.931-.569c-.138-.34-.126-.768-.317-.984-.089-.084-.267-.02-.417.059a3.739,3.739,0,0,0-.448.28c-.291.208-.573.435-.86.656a5.878,5.878,0,0,1-1.891,1.127,1.106,1.106,0,0,1-1.086-.342,5.391,5.391,0,0,1-.644-.9c-.194-.295-.385-.615-.682-.71a2.1,2.1,0,0,0-1.008-.07,3.747,3.747,0,0,0-1.853.912,12.094,12.094,0,0,0-2.44,3.49,24.936,24.936,0,0,0-1.571,4.009,14.347,14.347,0,0,0-.7,4.2,1.834,1.834,0,0,0,.228.913l.061.061c.018.009-.016,0-.016,0a.319.319,0,0,0,.1-.067,2.112,2.112,0,0,0,.309-.372,14.428,14.428,0,0,0,1-1.878,64.643,64.643,0,0,0,2.951-8.131c.4-1.386.771-2.784,1.035-4.2a12.523,12.523,0,0,0,.242-2.129,1.88,1.88,0,0,0-.187-.968.309.309,0,0,0-.365-.1,3.855,3.855,0,0,0-.518.092,18.952,18.952,0,0,0-3.956,1.689q-1.908,1.027-3.729,2.214Z" fill="#263238"/>
          </g>
        </g>
        <g id="Group_1115642" data-name="Group 1115642">
          <g id="Group_1115641" data-name="Group 1115641" clip-path="url(#clip-path-8)">
            <path id="Path_909819" data-name="Path 909819" d="M100.064,296.17a101.2,101.2,0,0,0,18.08,12.055c-8.914-16.268-4.139-50.921-3.337-45.853,3.855,24.225,18.356,51.626,24.665,53.45.044,0,.065.023.108.026,17.069,3.431,33.117.64,46.81-4.708a.147.147,0,0,0-.039-.082c-11.724-18.538-7.922-53.857-7.218-51.63,7.654,23.894,26.628,39.072,30.128,39.334h.022c13.979-9.861,21.857-20.213,20.107-21.476-12.709-9.2-22.245-30.982-30.552-53.851v-.019c-8.216-22.549-11.3-55.382-23.882-75.948-11.519-18.826-37.472-24.393-53.175-16.589-41.206,20.478-29.513,158.833-21.718,165.29" fill="#263238"/>
            <path id="Path_909820" data-name="Path 909820" d="M124.577,129.672a26.317,26.317,0,0,0-9.223,5.537,56.524,56.524,0,0,0-7.119,7.7,89.484,89.484,0,0,0-10.022,17.8c-5.45,12.4-8.426,37.386-9.945,50.609a207.711,207.711,0,0,0-.022,39.894c.267,3.32.757,6.624,1.125,9.934l1.463,9.9,1.891,9.841,2.217,9.785-1.55-9.87-1.317-9.884-1.109-9.893c-.249-3.3-.62-6.6-.769-9.906a226.231,226.231,0,0,1,.548-39.563c1.28-13.118,4.3-37.877,9.212-50.264a90.388,90.388,0,0,1,9.264-17.816,54.71,54.71,0,0,1,6.592-7.868,35.175,35.175,0,0,1,4.044-3.351,18.9,18.9,0,0,1,4.72-2.579" fill="#263238"/>
            <path id="Path_909821" data-name="Path 909821" d="M231.3,273.833a172.011,172.011,0,0,1-10.2-14.8c-3.189-5.033-6.164-10.167-8.855-15.407-2.659-5.25-5.208-10.54-7.342-15.958s-4.07-10.952-6.118-16.428c-4.223-10.931-8.25-33.654-13.193-44.385-2.5-5.352-5.112-10.676-8.123-15.841a79.4,79.4,0,0,0-5.01-7.511,22.736,22.736,0,0,0-6.694-6.337,23.712,23.712,0,0,1,6.135,6.648,77.217,77.217,0,0,1,4.468,7.669c2.761,5.213,5.157,10.575,7.428,15.974,4.547,10.8,8.581,33.482,12.613,44.456,2.124,5.466,4.109,10.939,6.35,16.41a143.269,143.269,0,0,0,7.754,16.016A166.583,166.583,0,0,0,231.3,273.833" fill="#263238"/>
            <path id="Path_909822" data-name="Path 909822" d="M132.21,265.164c10.759,24.172,52.856,102.012,78.834,106.675,17.047,3.06,85.159-6.015,96.346-22.609,4.875-7.232-5.563-56.05-14.605-53.771s-63.583,11.493-70.383,9.78c-6.761-1.7-59.334-57.974-78.694-71.717-33.385-23.7-17.293,18.625-11.5,31.642" fill="#eb9481"/>
            <path id="Path_909823" data-name="Path 909823" d="M271.976,292.668l4.106,73.765s-53.812,11.829-77.3,3.715c-28.518-9.851-70.243-98.165-75.958-112.682-9.378-23.83-6.78-38.26,6.512-34.732,5.165,1.329,11.957,5.4,20.281,12.731,8.713,7.637,58.738,57.206,74.526,66.571,8.829,5.237,47.831-9.368,47.831-9.368" fill="#ffc727"/>
            <path id="Path_909824" data-name="Path 909824" d="M243.129,353.861a16.308,16.308,0,0,0-4.06,2.14,16.272,16.272,0,0,0,4.47-1.03,15.948,15.948,0,0,0,4.06-2.13,15.826,15.826,0,0,0-4.47,1.02m-40.54-57.94a15.889,15.889,0,0,0-4.05,2.13,17.557,17.557,0,0,0,8.52-3.16,15.917,15.917,0,0,0-4.47,1.03m-40.9-35.01a16.308,16.308,0,0,0-4.06,2.14,17.643,17.643,0,0,0,8.53-3.16,16.176,16.176,0,0,0-4.47,1.02m29.73,79.3a16.1,16.1,0,0,0-4.06,2.13,17.557,17.557,0,0,0,8.52-3.16,15.768,15.768,0,0,0-4.46,1.03M239,311.781a16.136,16.136,0,0,0-4.06,2.14,16.269,16.269,0,0,0,4.47-1.03,15.946,15.946,0,0,0,4.06-2.13,15.826,15.826,0,0,0-4.47,1.02m-71.45-12.9a16.248,16.248,0,0,0-4.05,2.14,16.27,16.27,0,0,0,4.47-1.03,15.925,15.925,0,0,0,4.05-2.14,16.269,16.269,0,0,0-4.47,1.03m107.04,40.73c-.17-.68-.39-1.35-.62-2.01a16.308,16.308,0,0,0-2.14-4.06,15.916,15.916,0,0,0,1.03,4.47,16.742,16.742,0,0,0,1.84,3.66Zm-56.53,4.11a16.27,16.27,0,0,0-2.13-4.06,16.259,16.259,0,0,0,1.02,4.47,15.984,15.984,0,0,0,2.14,4.06,15.837,15.837,0,0,0-1.03-4.47m-35.82-63.16a16.248,16.248,0,0,0-2.14-4.05,16.271,16.271,0,0,0,1.03,4.47,15.889,15.889,0,0,0,2.13,4.05,15.9,15.9,0,0,0-1.02-4.47m-39.39-38.78a16.1,16.1,0,0,0-2.13-4.06,17.558,17.558,0,0,0,3.16,8.52,15.768,15.768,0,0,0-1.03-4.46m55.79,120.51a15.841,15.841,0,0,0-4.38-1.36,15.965,15.965,0,0,0,3.88,2.43,16.184,16.184,0,0,0,4.38,1.36,16.158,16.158,0,0,0-3.88-2.43m49.07-30.35a15.952,15.952,0,0,0-4.38-1.35,17.875,17.875,0,0,0,8.27,3.79,16.576,16.576,0,0,0-3.89-2.44m-16.16,40.51a15.84,15.84,0,0,0-4.38-1.36,13.113,13.113,0,0,0,2.42,1.68c.79-.04,1.57-.08,2.36-.13-.13-.06-.27-.13-.4-.19m-39.68-57.55a15.841,15.841,0,0,0-4.38-1.36,17.778,17.778,0,0,0,8.26,3.79,15.965,15.965,0,0,0-3.88-2.43m-59.98-52.07a15.841,15.841,0,0,0-4.38-1.36,15.965,15.965,0,0,0,3.88,2.43,16.184,16.184,0,0,0,4.38,1.36,16.158,16.158,0,0,0-3.88-2.43m37.2,64.24a15.618,15.618,0,0,0-1.35,4.38,16.215,16.215,0,0,0,2.43-3.89,16.544,16.544,0,0,0,1.36-4.38,16.255,16.255,0,0,0-2.44,3.89m-19.99-41.24a15.619,15.619,0,0,0-1.35,4.38,16.214,16.214,0,0,0,2.43-3.89,16.544,16.544,0,0,0,1.36-4.38,16.576,16.576,0,0,0-2.44,3.89m63.65,33.12a16.184,16.184,0,0,0-1.36,4.38,15.705,15.705,0,0,0,2.44-3.88,16.543,16.543,0,0,0,1.36-4.38,15.893,15.893,0,0,0-2.44,3.88m-94.71-77.38c.1.55.21,1.1.34,1.67a14.524,14.524,0,0,0,.99-3.5,12.173,12.173,0,0,0-1.33,1.83" fill="#fff"/>
            <path id="Path_909825" data-name="Path 909825" d="M262.615,365.3c-.933-10.882-3.127-55.555-2.948-65.24.012-.671.44-.826.518-.125,3.583,32.543,2.489,54.593,2.859,65.313.009.268-.4.329-.429.052" fill="#263238"/>
            <g id="Group_1115640" data-name="Group 1115640" opacity="0.1">
              <g id="Group_1115639" data-name="Group 1115639">
                <g id="Group_1115638" data-name="Group 1115638" clip-path="url(#clip-path-16)">
                  <path id="Path_909826" data-name="Path 909826" d="M122.819,257.455c5.7,14.52,47.455,102.847,75.958,112.688,7.024,2.429,16.8,3.065,27.036,2.794L127.566,222.363c-2.824-.434-5.1.045-6.748,1.369-5.3,4.157-4.785,16.5,2,33.723"/>
                </g>
              </g>
            </g>
            <path id="Path_909827" data-name="Path 909827" d="M24.958,373.718l147.738-.347-8.164-50.8s11.682-14.18,9.472-29.561c-2.423-16.855-32.811-59.567-35.368-61.975-10.282-9.653-21.174-11.386-31.635-7.9l-.024,0C58.674,253.5,24.958,373.718,24.958,373.718" fill="#ffc727"/>
            <path id="Path_909828" data-name="Path 909828" d="M36.5,344.471a19.9,19.9,0,0,0-2.49,1.14c-.1.29-.2.57-.3.85a19.147,19.147,0,0,0,3.2-.88,15.819,15.819,0,0,0,4.06-2.14,15.916,15.916,0,0,0-4.47,1.03m53.38-97.02a16.248,16.248,0,0,0-4.05,2.14,16.2,16.2,0,0,0,4.46-1.03,15.819,15.819,0,0,0,4.06-2.14,16.27,16.27,0,0,0-4.47,1.03m69.71,14.38a13.536,13.536,0,0,0-1.96,1.22,12.288,12.288,0,0,0,2.45-.4c-.16-.27-.33-.54-.49-.82m-38.06,22.11a16.27,16.27,0,0,0-4.06,2.13,17.643,17.643,0,0,0,8.53-3.16,15.916,15.916,0,0,0-4.47,1.03m-18.97,57.85a16.1,16.1,0,0,0-4.06,2.13,16.259,16.259,0,0,0,4.47-1.02,15.925,15.925,0,0,0,4.05-2.14,15.77,15.77,0,0,0-4.46,1.03m64.99-42.91a16.248,16.248,0,0,0-4.05,2.14,16.27,16.27,0,0,0,4.47-1.03,15.925,15.925,0,0,0,4.05-2.14,16.269,16.269,0,0,0-4.47,1.03m-96.94,2.58a16.211,16.211,0,0,0-4.05,2.13,17.557,17.557,0,0,0,8.52-3.16,15.916,15.916,0,0,0-4.47,1.03m72.87,38.75a16.1,16.1,0,0,0-4.06,2.13,16.259,16.259,0,0,0,4.47-1.02,16.077,16.077,0,0,0,4.05-2.14,15.768,15.768,0,0,0-4.46,1.03M104.269,225.9c-.1-.25-.2-.49-.3-.74-.33.23-.65.47-.97.71.06.15.11.29.16.44a15.985,15.985,0,0,0,2.14,4.06,16.271,16.271,0,0,0-1.03-4.47m-36.86,117.34a16.271,16.271,0,0,0-2.13-4.06,17.643,17.643,0,0,0,3.16,8.53,15.836,15.836,0,0,0-1.03-4.47m53.12-23.13a16.211,16.211,0,0,0-2.13-4.05,17.558,17.558,0,0,0,3.16,8.52,15.916,15.916,0,0,0-1.03-4.47m-18.79-49.86a16.248,16.248,0,0,0-2.14-4.05,17.93,17.93,0,0,0,3.16,8.52,16.259,16.259,0,0,0-1.02-4.47m65.28,84.81a15.783,15.783,0,0,0-2.13-4.06,16.259,16.259,0,0,0,1.02,4.47,16.076,16.076,0,0,0,2.14,4.05,15.768,15.768,0,0,0-1.03-4.46m-24.17-113.28a16.1,16.1,0,0,0-2.13-4.06,17.558,17.558,0,0,0,3.16,8.52,15.768,15.768,0,0,0-1.03-4.46M86.2,324.041a15.953,15.953,0,0,0-4.38-1.35,17.874,17.874,0,0,0,8.27,3.79,16.577,16.577,0,0,0-3.89-2.44m52.47,48.21a12.414,12.414,0,0,0,1.63,1.2l2.38-.01a15,15,0,0,0-4.01-1.19m-86.68-8.56a16.183,16.183,0,0,0-4.38-1.36,15.761,15.761,0,0,0,3.89,2.44,16.359,16.359,0,0,0,4.37,1.36,15.706,15.706,0,0,0-3.88-2.44m89.49-51.89a16.008,16.008,0,0,0-4.37-1.36,15.707,15.707,0,0,0,3.88,2.44,16.168,16.168,0,0,0,4.38,1.35,16.215,16.215,0,0,0-3.89-2.43m-9.59-48.97a15.841,15.841,0,0,0-4.38-1.36,15.965,15.965,0,0,0,3.88,2.43,16.184,16.184,0,0,0,4.38,1.36,16.158,16.158,0,0,0-3.88-2.43m-57.54,13.56a15.84,15.84,0,0,0-1.36,4.38,16.022,16.022,0,0,0,2.43-3.89,15.67,15.67,0,0,0,1.36-4.37,15.965,15.965,0,0,0-2.43,3.88m46.36,80.39a16.167,16.167,0,0,0-1.35,4.38,15.966,15.966,0,0,0,2.43-3.88,16.184,16.184,0,0,0,1.36-4.38,16.518,16.518,0,0,0-2.44,3.88m28.39-70.95a15.619,15.619,0,0,0-1.35,4.38,16.214,16.214,0,0,0,2.43-3.89,16.544,16.544,0,0,0,1.36-4.38,16.576,16.576,0,0,0-2.44,3.89m-63.45,75.08a16.184,16.184,0,0,0-1.36,4.38,15.706,15.706,0,0,0,2.44-3.88,16.168,16.168,0,0,0,1.35-4.38,16.157,16.157,0,0,0-2.43,3.88m-32.08-36.77a16.075,16.075,0,0,0-1.36,4.38,17.611,17.611,0,0,0,3.79-8.27,16.215,16.215,0,0,0-2.43,3.89m45.18-23.78a15.67,15.67,0,0,0-1.36,4.37,15.965,15.965,0,0,0,2.43-3.88,16.185,16.185,0,0,0,1.36-4.38,16.215,16.215,0,0,0-2.43,3.89m18.19-56.73a15.67,15.67,0,0,0-1.36,4.37,15.965,15.965,0,0,0,2.43-3.88,16.184,16.184,0,0,0,1.36-4.38,16.215,16.215,0,0,0-2.43,3.89" fill="#fff"/>
            <path id="Path_909829" data-name="Path 909829" d="M154.67,251.555c2.855,4.752,6.009,9.344,9,14.029-1.2-3.318-2.388-6.643-3.712-9.916-.027-.065.065-.121.1-.054a68.589,68.589,0,0,1,5.114,12.36,94.043,94.043,0,0,1,5.968,11.031,44.065,44.065,0,0,1,4.006,14.457,37.265,37.265,0,0,1-2.1,14.883A96.38,96.38,0,0,1,165.56,324.1c-.377.672-1.312.05-1-.617,4.193-8.935,8.822-18.337,8.4-28.468-.416-10.007-5.081-19.249-9.654-27.937a138.676,138.676,0,0,0-8.969-15.337c-.138-.2.2-.4.331-.183" fill="#263238"/>
            <path id="Path_909830" data-name="Path 909830" d="M201.351,362.827l-2.961,16.794h93.115a11.391,11.391,0,0,0,10.759-9.147l1.349-7.647Z" fill="#dbdbdb"/>
            <path id="Path_909831" data-name="Path 909831" d="M190.856,370.474l1.348-7.647H210.5l-1.348,7.647a11.39,11.39,0,0,1-10.759,9.146,7.6,7.6,0,0,1-6-2.674,7.9,7.9,0,0,1-1.534-6.472" fill="#ebebeb"/>
            <path id="Path_909832" data-name="Path 909832" d="M231.61,243.092,207.536,379.621h83.969a11.391,11.391,0,0,0,10.759-9.147l24.074-136.528H242.369a10.855,10.855,0,0,0-6.943,2.674,11.209,11.209,0,0,0-3.816,6.472" fill="#dbdbdb"/>
            <path id="Path_909833" data-name="Path 909833" d="M242.369,233.945l-4.863,27.58H339.768l3.25-18.434c.89-5.047-2.486-9.146-7.534-9.146Z" fill="#ebebeb"/>
            <path id="Path_909834" data-name="Path 909834" d="M231.61,243.092l-3.25,18.433h18.293l3.25-18.433c.89-5.048-2.486-9.146-7.534-9.146a10.855,10.855,0,0,0-6.943,2.674,11.209,11.209,0,0,0-3.816,6.472" fill="#dbdbdb"/>
            <path id="Path_909835" data-name="Path 909835" d="M313.992,286.743c3.418,9.743,13.279,22.44,13.383,30.114a8.8,8.8,0,0,1-5.842,8.729s7.158,4.573,6.105,11.553c-.542,3.592-6.756,5.88-6.756,5.88s5.577,3.916,4.258,10.064c-1.052,4.9-7.12,6.46-7.12,6.46s3.6,6.249.928,10.9c-5.418,9.424-48.186,4.88-53.119-11.577-2.3-7.67,8.087-5.993,8.087-5.993s-14.352-6.019-13.641-14.86,14.074-5.847,14.074-5.847-13.858-5.954-12.2-15.046c1.73-9.466,14.583-4.182,14.583-4.182s-8.825-7.457-5.957-14.126c4.732-11.012,21.218,5.22,30.854,3.988l6.834-14.947Z" fill="#eb9481"/>
            <path id="Path_909836" data-name="Path 909836" d="M321.133,301.126c-2.43-9.507,10.1-19.6,9.08-29.022-1.376-12.752-16.7-2.025-21.745,15.745l-1.49,14.482Z" fill="#eb9481"/>
            <path id="Path_909837" data-name="Path 909837" d="M317.1,359.928a.113.113,0,0,1,.019.225c-14.432,1.933-30.88-.366-43.778-7.308-.424-.227-.237-1.014.277-.852,14.662,4.613,28.042,7.537,43.482,7.935" fill="#263238"/>
            <path id="Path_909838" data-name="Path 909838" d="M321.081,343.131c.167,0,.164.282-.016.3-14.881,1.91-33.336-1.189-47.261-10.941-.477-.334-.571-1.113.008-.77,9.751,5.783,33.369,11.119,47.269,11.406" fill="#263238"/>
            <path id="Path_909839" data-name="Path 909839" d="M275.946,311.9c13.714,8.834,28.88,12.383,44.98,13.79.211.018.163.313-.017.345-8.063,1.459-18.233-.507-26.016-2.707a42.992,42.992,0,0,1-19.256-10.949c-.213-.211.015-.668.309-.479" fill="#263238"/>
            <path id="Path_909840" data-name="Path 909840" d="M114.412,222.381c.2,2.6,9.658,20.713,21.2,21.941,3.759.393,6.823-20.03,6.823-20.03l.571-1.456,7.974-20.386L128.63,182.715l-3.26-2.659s-1.814,5.722-4,12.868c-.1.331-.207.662-.312,1.018-.135.4-.267.778-.374,1.158-.341,1.063-.684,2.151-1,3.241-.246.829-.49,1.633-.717,2.513-.25.877-.475,1.732-.725,2.61-2.281,8.695-3.9,17.816-3.826,18.917" fill="#eb9481"/>
            <path id="Path_909841" data-name="Path 909841" d="M121.369,192.925a43.912,43.912,0,0,0,21.636,29.912l7.974-20.387L128.63,182.715l-3.26-2.658s-1.814,5.721-4,12.868" fill="#263238"/>
            <path id="Path_909842" data-name="Path 909842" d="M186.574,178.17c-5.061,38.084-28.443,39.353-36.654,38.253-7.454-1-32.707-5.347-31.609-43.751s20.406-48.089,37.575-46.706,35.749,14.119,30.688,52.2" fill="#eb9481"/>
            <path id="Path_909843" data-name="Path 909843" d="M181.1,174.08a25.476,25.476,0,0,1-2.434-1.057,4.291,4.291,0,0,1-2.276-1.552,1.368,1.368,0,0,1,.337-1.634,3.387,3.387,0,0,1,3.432-.106,4.983,4.983,0,0,1,2.708,2.352,1.458,1.458,0,0,1-1.767,2" fill="#263238"/>
            <path id="Path_909844" data-name="Path 909844" d="M155.349,167.542a25.263,25.263,0,0,0,2.654-.015,4.3,4.3,0,0,0,2.7-.532,1.368,1.368,0,0,0,.332-1.635,3.39,3.39,0,0,0-3.114-1.447,4.982,4.982,0,0,0-3.415,1.1,1.458,1.458,0,0,0,.84,2.531" fill="#263238"/>
            <path id="Path_909845" data-name="Path 909845" d="M159.412,175.918c0-.1-.223.085-.239.191-.383,2.589-1.258,5.49-3.741,5.924-.077.014-.093.144-.005.148,2.915.113,4.037-3.749,3.985-6.263" fill="#263238"/>
            <path id="Path_909846" data-name="Path 909846" d="M157.6,172.814c-4.084-1.062-5.908,7.183-2.124,8.167,3.722.968,5.547-7.276,2.124-8.167" fill="#263238"/>
            <path id="Path_909847" data-name="Path 909847" d="M155.884,172.892c-.823.307-1.711.974-2.6.868-1.027-.123-1.594-1.154-2.067-2.129-.049-.1-.136-.045-.162.064-.373,1.574-.124,3.329,1.517,3.94,1.5.556,2.917-.6,3.662-2.1.139-.278-.02-.769-.352-.645" fill="#263238"/>
            <path id="Path_909848" data-name="Path 909848" d="M174.655,178.306c.042-.092.172.166.145.27-.666,2.531-1,5.542,1.11,6.918.066.042.029.169-.054.137-2.724-1.041-2.237-5.034-1.2-7.325" fill="#263238"/>
            <path id="Path_909849" data-name="Path 909849" d="M177.543,176.165c4.172.629,2.607,8.928-1.258,8.345-3.8-.574-2.239-8.872,1.258-8.345" fill="#263238"/>
            <path id="Path_909850" data-name="Path 909850" d="M179.17,177.037c.573.564,1.071,1.485,1.844,1.684.9.231,1.737-.54,2.48-1.291.077-.077.129,0,.111.115-.255,1.594-1.091,3.147-2.673,3.164-1.442.016-2.206-1.538-2.286-3.189-.015-.306.293-.71.524-.483" fill="#263238"/>
            <path id="Path_909851" data-name="Path 909851" d="M155.34,197.937c.445.754.83,1.731,1.726,2.055a6.892,6.892,0,0,0,2.886.1.092.092,0,0,1,.075.159,3.524,3.524,0,0,1-3.576.508,2.785,2.785,0,0,1-1.385-2.769c0-.157.209-.159.274-.049" fill="#263238"/>
            <path id="Path_909852" data-name="Path 909852" d="M167.979,190.918s-.271,3.935-.647,5.739c-.036.169-.489.158-1.109.066-.031,0-.05.011-.071-.013a8.759,8.759,0,0,1-7.66-4.943.191.191,0,0,1,.321-.194,13.2,13.2,0,0,0,7.362,3.88c.232-.473.238-6.754.529-6.716a16.086,16.086,0,0,1,3.9,1.784c.8-8.18.284-16.422,1.205-24.555a.251.251,0,0,1,.5-.018c1.153,8.6.437,18.033-.173,26.5-.067,1.057-3.5-1.074-4.155-1.532" fill="#263238"/>
            <path id="Path_909853" data-name="Path 909853" d="M120.993,173.162c8.8,1.8,11.436-12.113,11.436-12.113s10.173,1.042,14.052-14.948c0,0,2.909,10.675,16.073,15.3,2.786.979-5.381-8.328-5.381-8.328s9.49,12.673,31.642,12.88c1.566.014,4.534-23.288-10.741-34.25s-33.04-9.419-45.48-.862c0,0-11.989,4.218-15.636,15.59s.615,26.033,4.035,26.732" fill="#263238"/>
            <path id="Path_909854" data-name="Path 909854" d="M150.322,190.526A12.747,12.747,0,1,1,166.5,178.547h0a12.751,12.751,0,0,1-16.175,11.978m6.406-22.912a11.042,11.042,0,1,0,8.066,10.893,10.992,10.992,0,0,0-8.066-10.893" fill="#ebebeb"/>
            <path id="Path_909855" data-name="Path 909855" d="M179.243,194.912c-4.7-1.314-7.613-7.316-6.582-13.886a15.214,15.214,0,0,1,4.044-8.385,7.94,7.94,0,0,1,13.429,2.108,15.23,15.23,0,0,1,1.276,9.221c-1.091,6.942-6.183,11.93-11.35,11.12a7.194,7.194,0,0,1-.817-.178m5.139-23.184a5.382,5.382,0,0,0-.632-.137,6.8,6.8,0,0,0-5.84,2.252,13.539,13.539,0,0,0-3.567,7.446c-.942,6.016,1.724,11.452,5.98,12.117s8.458-3.687,9.4-9.7a13.525,13.525,0,0,0-1.112-8.183,7.025,7.025,0,0,0-4.233-3.8" fill="#ebebeb"/>
            <path id="Path_909856" data-name="Path 909856" d="M165.846,179.938l-.88-1.459c2.162-1.305,6.917-2.767,9.474,1.007l-1.41.955c-2.286-3.384-6.985-.619-7.184-.5" fill="#ebebeb"/>
            <path id="Path_909857" data-name="Path 909857" d="M109.233,174.367l-1.374-1.008c.472-.64,4.7-6.26,8.559-6.28,3.6-.009,25.835,5.649,26.779,5.891l-.423,1.651c-6.372-1.629-23.564-5.853-26.347-5.837-2.545.012-6.055,4.035-7.194,5.583" fill="#ebebeb"/>
            <path id="Path_909858" data-name="Path 909858" d="M123.975,176.4s-5.583-13.525-11.545-11.787-3.576,20.076,2.145,23.783a6.5,6.5,0,0,0,9.254-1.521Z" fill="#eb9481"/>
            <path id="Path_909859" data-name="Path 909859" d="M113.244,169.854a.088.088,0,0,0-.07.159c3.979,2.743,5.38,7.309,6.058,11.872-.941-1.907-2.515-3.187-5.026-2.122-.132.056-.063.259.066.261a4,4,0,0,1,3.991,2.315,19.269,19.269,0,0,1,1.284,3.93c.118.436.871.384.822-.1,0-.035-.01-.072-.014-.108,1.35-5.551-1.25-14.316-7.111-16.207" fill="#263238"/>
            <path id="Path_909860" data-name="Path 909860" d="M142.137,224.965l-5.373,17.551-22.916-19.679-5.389,7.4s23.531,32.362,23.529,30.809l5.751-15.223,10.962,9.318-2.993-25.481Z" fill="#ebebeb"/>
            <path id="Path_909861" data-name="Path 909861" d="M147.934,242.46c-.635-4.191-1.158-8.429-1.986-12.585-.029-.148-.269-.2-.29-.016-.5,4.142,2.016,20.154,2.326,24.018-.015-.013-.033-.027-.048-.041-.459-.4-10.12-8.159-10.2-8.016-1.319,2.452-5.546,13.541-5.815,14.54-3.723-5.141-19.387-25.327-23.684-30.123a.147.147,0,0,0-.24.168c3.368,5.477,23.655,32.148,23.9,32.052a165.292,165.292,0,0,0,6-16.088c1.67,1.726,11.508,10.568,11.486,9.939a132.913,132.913,0,0,0-1.454-13.848" fill="#263238"/>
            <path id="Path_909862" data-name="Path 909862" d="M106.813,258.326c-8.907,38.333-34.118,81.228-50.078,93.832-9.713,7.671-40.822,7.74-42.22-12.382s59.7-83.221,68.684-95.5,31.65-20.54,23.614,14.046" fill="#eb9481"/>
            <path id="Path_909863" data-name="Path 909863" d="M106.813,258.326c-8.907,38.333-34.118,81.228-50.078,93.832-9.713,7.671-40.822,7.74-42.22-12.382s59.7-83.221,68.684-95.5,31.65-20.54,23.614,14.046" fill="#ffc727"/>
            <path id="Path_909864" data-name="Path 909864" d="M36.5,344.471a16.247,16.247,0,0,0-4.05,2.14,16.2,16.2,0,0,0,4.46-1.03,15.819,15.819,0,0,0,4.06-2.14,15.916,15.916,0,0,0-4.47,1.03m53.38-97.02a16.248,16.248,0,0,0-4.05,2.14,16.2,16.2,0,0,0,4.46-1.03,15.819,15.819,0,0,0,4.06-2.14,16.27,16.27,0,0,0-4.47,1.03m-19.27,54.01a16.211,16.211,0,0,0-4.05,2.13,17.557,17.557,0,0,0,8.52-3.16,15.916,15.916,0,0,0-4.47,1.03m-15.23-17.17a16.137,16.137,0,0,0-2.14-4.06,16.27,16.27,0,0,0,1.03,4.47,15.984,15.984,0,0,0,2.14,4.06,16.187,16.187,0,0,0-1.03-4.47m-24.86,38.19a16.309,16.309,0,0,0-2.14-4.06,17.643,17.643,0,0,0,3.16,8.53,16.259,16.259,0,0,0-1.02-4.47m34.76,16.7a13.98,13.98,0,0,0,.72,3.56c.26-.31.52-.64.79-.97a13.554,13.554,0,0,0-1.51-2.59m36.46-68.93a16.248,16.248,0,0,0-2.14-4.05,15.849,15.849,0,0,0,1.03,4.46,17.209,17.209,0,0,0,1.71,3.47c.08-.26.17-.51.25-.77v-.01a19.187,19.187,0,0,0-.85-3.1m-56.77,32.12a16.167,16.167,0,0,0-4.38-1.35,15.964,15.964,0,0,0,3.88,2.43,16.183,16.183,0,0,0,4.38,1.36,16.518,16.518,0,0,0-3.88-2.44m29.38-25.98a15.84,15.84,0,0,0-1.36,4.38,16.022,16.022,0,0,0,2.43-3.89,15.67,15.67,0,0,0,1.36-4.37,15.965,15.965,0,0,0-2.43,3.88m-20.78,47.75a16.075,16.075,0,0,0-1.36,4.38,17.611,17.611,0,0,0,3.79-8.27,16.215,16.215,0,0,0-2.43,3.89m-38.34,13.42c-.26.59-.51,1.19-.72,1.81a2.639,2.639,0,0,0,.01.4c.03.41.07.82.12,1.21a18.559,18.559,0,0,0,1.67-2.93,16.43,16.43,0,0,0,1.36-4.38,15.948,15.948,0,0,0-2.44,3.89" fill="#fff"/>
            <path id="Path_909865" data-name="Path 909865" d="M29.84,355.089a41.11,41.11,0,0,0,12.658.077,34.318,34.318,0,0,0,11.673-4.176c7.616-4.383,12.714-11.795,17.247-19.1q7.452-12.01,13.963-24.574c4.347-8.375,8.334-16.931,12.192-25.54,1.943-4.337,3.72-8.741,5.564-13.12,1.829-4.345,3.607-8.71,5.216-13.142.4-1.115.788-2.236,1.172-3.358.035-.1.2-.059.165.047-1.44,4.585-2.812,9.206-4.364,13.754-.2.591-.42,1.174-.626,1.763,1.611-3.426,3.261-6.833,4.981-10.205.1-.2.381-.02.295.177-1.532,3.5-3.134,6.965-4.778,10.413-.808,1.7-1.629,3.385-2.449,5.075q-1.174,3.164-2.421,6.3-5.364,13.436-11.935,26.306T74.295,331c-4.627,7.569-9.6,15.352-17.087,20.4a32.6,32.6,0,0,1-24.459,4.931,22.994,22.994,0,0,1-3.02-.861.2.2,0,0,1,.111-.383" fill="#263238"/>
            <path id="Path_909866" data-name="Path 909866" d="M44.719,201.215c6.349-15.456,16.646-36.644,23.584-39.849,7.281-3.363,33.351-14.161,40.219-14.717s31.231,6.574,35.623,10.893c3.517,3.459-2.573,11.7-16.459,10.514-12.984-1.1-16.033-2.009-19.769-1.422-3.812.6-14.921,9.568-13.939,15.062.579,3.237,8.127,8.809,13.976,7.791s9.393-6.747,16.64-10.094,17.65-.027,17.525,2.98-3.956,3.441-11.857,11.736c-5.081,5.334-8.747,15.921-19.39,24.607-5.349,4.365-15.948,16.922-15.948,16.922Z" fill="#eb9481"/>
            <path id="Path_909867" data-name="Path 909867" d="M68.3,161.366c7.152-6.686,23.906-17.75,38.094-19.379,9.59-1.1,35.861,21.259,33.506,26.775s-7.488,4.214-14.852,1.355c-2.684-1.042-15.968-10.067-19.253-7.639-4.722,3.491-13.161,17.4-13.161,17.4Z" fill="#eb9481"/>
            <path id="Path_909868" data-name="Path 909868" d="M139.737,166.329c-2.129-7.1-9.442-12.48-16.89-17.16-.116-.073-.237.1-.121.174,1.9,1.194,13.555,10.684,16.9,17.06.038.072.136,0,.115-.074" fill="#263238"/>
            <path id="Path_909869" data-name="Path 909869" d="M68.3,161.366c7.152-6.686,23.906-17.75,38.094-19.379,9.59-1.1,28.534,23.735,26.18,29.251s-9.844,4.074-17.261-.859c-2.4-1.594-9.625-10.082-12.91-7.654-4.722,3.49-16.286,12.2-16.286,12.2Z" fill="#eb9481"/>
            <path id="Path_909870" data-name="Path 909870" d="M92.908,169.433c1.143-1.051,1.537-1.421,2.7-2.453s2.333-2.038,3.562-2.978a11.8,11.8,0,0,1,3.424-2.146,5.969,5.969,0,0,1,3.786.219c2.758.989,4.847,3.441,6.89,5.433,2.28,2.224,7.189,6.143,11.555,6.788a8.645,8.645,0,0,0,3.589-.046,5.44,5.44,0,0,0,2.423-1.086c2.646-2.654,1.263-6.816-.441-9.949-3.175-5.84-8.2-10.776-13.2-15.057-1.228-1.051-2.483-2.072-3.738-3.092a13.094,13.094,0,0,0-4.775-2.8c-2.948-.782-8.559.972-10.3,1.493-.132.039-.168-.168-.04-.208,2.107-.666,7.553-3.19,12.257-1.722,1.72.537,3.119,1.852,4.53,2.946,1.475,1.144,2.916,2.338,4.326,3.562a69.378,69.378,0,0,1,7.7,7.711c2.21,2.634,4.517,5.638,5.622,8.934.959,2.856.537,6.461-1.67,8.633-1.86,1.831-4.773,1.638-6.09,1.473a14.446,14.446,0,0,1-3.751-1,61.493,61.493,0,0,1-7.553-4.491c-2.318-1.693-4.2-4.034-6.652-5.523a5.133,5.133,0,0,0-3.919-.74,13.669,13.669,0,0,0-3.556,1.886,41.808,41.808,0,0,0-6.282,4.467c-.53.468-.878.189-.4-.251" fill="#263238"/>
            <path id="Path_909871" data-name="Path 909871" d="M62.725,167.371c2.851-3.322,10.045-18.2,14.309-22.225s22.373-17.106,28.643-14.724c7.879,2.993-4.337,15.436-10.136,20.363s-7.715,15.343-7.715,15.343Z" fill="#eb9481"/>
            <path id="Path_909872" data-name="Path 909872" d="M104.033,142.326c-2,1.518-3.882,3.286-5.72,4.995a48.923,48.923,0,0,0-5.163,5.035,21.661,21.661,0,0,0-3.3,6.274c-.4,1.1-.723,2.217-1.021,3.349-.326,1.235-.536,2.509-.883,3.736-.037.13.16.2.2.07a54.515,54.515,0,0,1,2.611-6.5,29.657,29.657,0,0,1,3.757-6.174c2.989-3.76,6.74-6.835,9.763-10.567.123-.151-.1-.327-.241-.219" fill="#263238"/>
            <path id="Path_909873" data-name="Path 909873" d="M105.024,189.434a10.444,10.444,0,0,0,7.379-2.5c1.917-1.439,3.743-3,5.673-4.425a24.869,24.869,0,0,1,6.155-3.636,28.329,28.329,0,0,1,7.9-1.313,15.436,15.436,0,0,1,7.6,1.107c1.946.917,3.981,2.928,2.931,5.294a9.431,9.431,0,0,1-2.175,2.779,24.253,24.253,0,0,1-2.7,2.195c-1.913,1.375-3.94,2.6-5.721,4.157-2.378,2.082-3.987,4.911-5.744,7.521-.648.964-4.8,7.547-6.382,9.773a38.641,38.641,0,0,1-4.452,5.319,53.734,53.734,0,0,1-5.1,4.158,32.362,32.362,0,0,0-5.332,4.777c-.072.085-.191-.032-.143-.12,2.042-3.686,5.668-6.157,8.961-8.593,4.277-3.164,13.756-19.485,15.472-21.7,2.857-3.69,7.2-5.456,10.463-8.668.749-.737,1.9-1.795,1.873-2.949a3.246,3.246,0,0,0-1.953-2.488c-2.245-1.19-4.993-1.114-7.442-.873a33.879,33.879,0,0,0-7.584,1.254,24.888,24.888,0,0,0-6.056,3.163c-2.137,1.479-4.2,3.021-6.436,4.338a10.426,10.426,0,0,1-7.241,1.62c-.124-.022-.068-.2.061-.193" fill="#263238"/>
            <path id="Path_909874" data-name="Path 909874" d="M140.081,155.519c-1.716-.839-3.414-1.743-5.147-2.542-.045-.021-.024-.094.024-.075,2.06.818,4.183,1.5,6.252,2.3,1.636.631,3.334,1.558,4.019,3.273a4.814,4.814,0,0,1-.963,4.716,12.948,12.948,0,0,1-4.513,3.065.078.078,0,0,1-.073-.138c2.485-1.441,6.353-4.346,4.325-7.65a8.851,8.851,0,0,0-3.924-2.945" fill="#263238"/>
            <path id="Path_909875" data-name="Path 909875" d="M131.746,172.113c1.957.057,4.113.016,5.845-1.019a4.39,4.39,0,0,0,1.741-1.831,4.346,4.346,0,0,0,.384-1.328,2.062,2.062,0,0,0-.184-1.411c-.084-.1.107-.192.134-.071a6.565,6.565,0,0,0,.317.763,3.088,3.088,0,0,1,.146.68,3.529,3.529,0,0,1-.114,1.364,4.452,4.452,0,0,1-1.73,2.4c-1.948,1.4-4.371,1.271-6.567.618a.082.082,0,0,1,.028-.16" fill="#263238"/>
            <path id="Path_909876" data-name="Path 909876" d="M94.924,235.638C90.67,251.014,58.3,332.985,49.25,344.549S18.4,358.613,12.3,337.7,38,216.85,44.719,201.215c3.743-8.705,51.744,28.861,50.205,34.423" fill="#eb9481"/>
            <path id="Path_909877" data-name="Path 909877" d="M102.007,246,38.465,209.151S11.3,302.378,10.814,331.127c-.351,20.638,24.373,36.049,43.916,8.161S102.007,246,102.007,246" fill="#ffc727"/>
            <path id="Path_909878" data-name="Path 909878" d="M40.409,210.281a16.709,16.709,0,0,0-2.35,3.77,16.168,16.168,0,0,0-1.35,4.38,15.965,15.965,0,0,0,2.43-3.88,16.317,16.317,0,0,0,1.34-4.23v-.01Zm-20.48,88.95a16.168,16.168,0,0,0-1.35,4.38,15.964,15.964,0,0,0,2.43-3.88,16.184,16.184,0,0,0,1.36-4.38,16.724,16.724,0,0,0-2.44,3.88m-4.7,38.33a16.075,16.075,0,0,0-1.36,4.38,15.948,15.948,0,0,0,2.44-3.89,16.43,16.43,0,0,0,1.36-4.38,15.948,15.948,0,0,0-2.44,3.89m38.34-13.42a16.075,16.075,0,0,0-1.36,4.38,17.611,17.611,0,0,0,3.79-8.27,16.215,16.215,0,0,0-2.43,3.89m21.36-93.84c-.01.09-.03.19-.04.28.06-.07.12-.14.17-.21Zm-.58,46.09a15.84,15.84,0,0,0-1.36,4.38,16.022,16.022,0,0,0,2.43-3.89,15.67,15.67,0,0,0,1.36-4.37,15.965,15.965,0,0,0-2.43,3.88m-29.3-10.44a15.736,15.736,0,0,0-1.36,4.38,17.874,17.874,0,0,0,3.79-8.27,16.215,16.215,0,0,0-2.43,3.89m21.76-11.05a16.184,16.184,0,0,0-4.38-1.36,15.706,15.706,0,0,0,3.88,2.44,16.167,16.167,0,0,0,4.38,1.35,16.158,16.158,0,0,0-3.88-2.43m-21.84,47.47a16.167,16.167,0,0,0-4.38-1.35,15.964,15.964,0,0,0,3.88,2.43,16.183,16.183,0,0,0,4.38,1.36,16.518,16.518,0,0,0-3.88-2.44m-9.5-58.58a15.968,15.968,0,0,0-4.38-1.36,17.611,17.611,0,0,0,8.27,3.79,16.215,16.215,0,0,0-3.89-2.43m-4.95,78.69a16.309,16.309,0,0,0-2.14-4.06,17.643,17.643,0,0,0,3.16,8.53,16.259,16.259,0,0,0-1.02-4.47m24.86-38.19a16.137,16.137,0,0,0-2.14-4.06,16.27,16.27,0,0,0,1.03,4.47,15.984,15.984,0,0,0,2.14,4.06,16.187,16.187,0,0,0-1.03-4.47m15.23,17.17a16.211,16.211,0,0,0-4.05,2.13,17.557,17.557,0,0,0,8.52-3.16,15.916,15.916,0,0,0-4.47,1.03M28.169,279.2a15.926,15.926,0,0,0-4.05,2.14,16.641,16.641,0,0,0,4.47-1.03,15.926,15.926,0,0,0,4.05-2.14,15.917,15.917,0,0,0-4.47,1.03m24.87-46.63a16.308,16.308,0,0,0-4.06,2.14,16.271,16.271,0,0,0,4.47-1.03,15.984,15.984,0,0,0,4.06-2.14,16.187,16.187,0,0,0-4.47,1.03m36.84,14.88a16.248,16.248,0,0,0-4.05,2.14,16.2,16.2,0,0,0,4.46-1.03,15.819,15.819,0,0,0,4.06-2.14,16.27,16.27,0,0,0-4.47,1.03M36.5,344.471a16.247,16.247,0,0,0-4.05,2.14,16.2,16.2,0,0,0,4.46-1.03,15.819,15.819,0,0,0,4.06-2.14,15.916,15.916,0,0,0-4.47,1.03" fill="#fff"/>
            <path id="Path_909879" data-name="Path 909879" d="M93.322,257.309c-9.624-5.164-48.24-27.732-56.254-33.172-.555-.377-.451-.821.178-.5,29.215,14.778,47.086,27.741,56.267,33.288.229.138.054.518-.191.387" fill="#263238"/>
            <path id="Path_909880" data-name="Path 909880" d="M72.963,306.754c6.71-12.6,13.154-25.337,18.946-38.386q2.432-5.475,4.758-11c1.488-3.541,3.01-7.087,4.34-10.692-1.332-.93-7.171-4.746-7.8-5.334a.26.26,0,0,1,.269-.42c.773.29,7.551,4.22,8.989,5.289.2.15-2.686,7.171-4,10.527s-2.668,6.7-4.066,10.018q-4.152,9.867-8.8,19.515-4.987,10.4-10.5,20.51c-3.161,5.778-10.777,16.191-2.138-.031" fill="#263238"/>
          </g>
        </g>
        <g id="Group_1115644" data-name="Group 1115644">
          <g id="Group_1115643" data-name="Group 1115643" clip-path="url(#clip-path-8)">
            <path id="Path_909881" data-name="Path 909881" d="M329.659,410.722s12.461,1.688,12.923-6.9-12.109-8.246-12.109-8.246Z" fill="#dd6a57"/>
            <rect id="Rectangle_407472" data-name="Rectangle 407472" width="15.17" height="88.427" transform="matrix(0.054, -0.999, 0.999, 0.054, 241.855, 406.002)" fill="#ffc727"/>
            <rect id="Rectangle_407473" data-name="Rectangle 407473" width="17.714" height="3.515" transform="matrix(0.054, -0.999, 0.999, 0.054, 327.051, 411.855)" fill="#37474f"/>
            <rect id="Rectangle_407474" data-name="Rectangle 407474" width="17.713" height="3.515" transform="matrix(0.054, -0.999, 0.999, 0.054, 323.172, 411.647)" fill="#37474f"/>
            <path id="Path_909882" data-name="Path 909882" d="M242.673,390.848l-11.206,5.114-3.7,1.673,3.5,2.093,10.593,6.286,2.282-1.415s-2.087-1.583-2.119-1.618l2.282-1.415s-2.087-1.583-2.119-1.618l2.28-1.382s-2.085-1.617-2.117-1.652l2.281-1.381s-2.086-1.617-2.118-1.652l2.281-1.381s-2.086-1.617-2.118-1.652" fill="#ebebeb"/>
            <path id="Path_909883" data-name="Path 909883" d="M231.467,395.962l-3.7,1.673,3.5,2.093Z" fill="#37474f"/>
          </g>
        </g>
        <path id="Path_909884" data-name="Path 909884" d="M169.112,382.794l12.944,33.437-118.207,0L77.983,382.83Z" fill="#ffc727"/>
        <path id="Path_909885" data-name="Path 909885" d="M76.959,385.25l-13.11,30.984V421.9H182.056v-5.668L170.05,385.217Z" fill="#ffc727"/>
        <g id="Group_1115649" data-name="Group 1115649">
          <g id="Group_1115648" data-name="Group 1115648" clip-path="url(#clip-path-8)">
            <g id="Group_1115647" data-name="Group 1115647" opacity="0.1">
              <g id="Group_1115646" data-name="Group 1115646">
                <g id="Group_1115645" data-name="Group 1115645" clip-path="url(#clip-path-19)">
                  <path id="Path_909886" data-name="Path 909886" d="M169.112,382.794l12.944,33.437-118.207,0L77.983,382.83Z"/>
                </g>
              </g>
            </g>
          </g>
        </g>
        <path id="Path_909887" data-name="Path 909887" d="M109.672,407.234l-.745,6.426H94.565l1.389-6.425Z" fill="#fff"/>
        <path id="Path_909888" data-name="Path 909888" d="M110.516,399.952l-.745,6.426H96.138l1.39-6.425Z" fill="#fff"/>
        <path id="Path_909889" data-name="Path 909889" d="M111.361,392.671l-.745,6.426-12.9,0,1.389-6.425Z" fill="#ffc727"/>
        <path id="Path_909890" data-name="Path 909890" d="M112.205,385.39l-.745,6.426-12.173,0,1.389-6.425Z" fill="#ffc727"/>
        <path id="Path_909891" data-name="Path 909891" d="M125.406,407.232l-.007,6.426H111.037l.651-6.426Z" fill="#37474f"/>
        <path id="Path_909892" data-name="Path 909892" d="M125.414,399.95l-.007,6.427H111.775l.651-6.426Z" fill="#37474f"/>
        <path id="Path_909893" data-name="Path 909893" d="M125.421,392.667l-.007,6.426-12.9,0,.651-6.426Z" fill="#37474f"/>
        <path id="Path_909894" data-name="Path 909894" d="M125.512,385.385l0,6.427-12.173,0,.646-6.426Z" fill="#fff"/>
        <path id="Path_909895" data-name="Path 909895" d="M141.14,407.23l.732,6.427H127.51l-.088-6.427Z" fill="#37474f"/>
        <path id="Path_909896" data-name="Path 909896" d="M140.311,399.947l.732,6.427-13.632,0-.088-6.427Z" fill="#37474f"/>
        <path id="Path_909897" data-name="Path 909897" d="M139.482,392.664l.732,6.427-12.9,0-.088-6.427Z" fill="#37474f"/>
        <path id="Path_909898" data-name="Path 909898" d="M138.652,385.38l.732,6.428-12.173,0-.088-6.427Z" fill="#fff"/>
        <path id="Path_909899" data-name="Path 909899" d="M156.875,407.229l1.47,6.428H143.983l-.826-6.428Z" fill="#37474f"/>
        <path id="Path_909900" data-name="Path 909900" d="M155.208,399.944l1.47,6.428-13.632,0-.826-6.428Z" fill="#37474f"/>
        <path id="Path_909901" data-name="Path 909901" d="M153.542,392.66l1.47,6.428-12.9,0-.827-6.428Z" fill="#37474f"/>
        <path id="Path_909902" data-name="Path 909902" d="M151.876,385.375l1.47,6.428-12.173,0-.826-6.428Z" fill="#fff"/>
        <path id="Path_909903" data-name="Path 909903" d="M172.609,407.227l2.209,6.429H160.456l-1.565-6.428Z" fill="#37474f"/>
        <path id="Path_909904" data-name="Path 909904" d="M170.106,399.942l2.209,6.429-13.632,0-1.565-6.429Z" fill="#37474f"/>
        <path id="Path_909905" data-name="Path 909905" d="M167.6,392.656l2.209,6.429-12.9,0-1.565-6.429Z" fill="#fff"/>
        <path id="Path_909906" data-name="Path 909906" d="M165.1,385.371l2.209,6.429-12.173,0-1.565-6.429Z" fill="#fff"/>
        <g id="Group_1115651" data-name="Group 1115651">
          <g id="Group_1115650" data-name="Group 1115650" clip-path="url(#clip-path-8)">
            <path id="Path_909907" data-name="Path 909907" d="M100.746,411.4h-.011c-.577,0-1.021-.179-.972-.444s.554-.438,1.115-.438h.012c.567,0,1.017.176.972.444s-.551.438-1.116.438m.114-.644h-.012c-.328,0-.613.085-.635.206s.235.2.552.2h.012c.334,0,.614-.085.634-.206s-.235-.2-.551-.2m2.683.337-3.458-1.228c-.066-.019-.1-.054-.088-.091.011-.059.118-.107.246-.107a.46.46,0,0,1,.147.024l3.456,1.228c.067.021.1.056.091.093-.009.059-.116.1-.245.1a.474.474,0,0,1-.149-.024m-.508-.824h-.011c-.573,0-1.015-.18-.971-.444s.544-.439,1.1-.439h.012c.563,0,1.011.179.97.444s-.54.439-1.1.439m.1-.645h-.011c-.326,0-.607.086-.627.206s.235.2.549.2h.012c.332,0,.608-.086.627-.206s-.236-.2-.55-.2" fill="#37474f"/>
            <path id="Path_909908" data-name="Path 909908" d="M104.074,397.514c-1.05,0-1.823-.446-1.729-.981a.979.979,0,0,1,.522-.618.553.553,0,0,1,.424-.027c.121.053.125.152.019.214a.655.655,0,0,0-.365.43.487.487,0,0,0,.294.482,1.885,1.885,0,0,0,.887.2,2.282,2.282,0,0,0,.952-.2.754.754,0,0,0,.457-.482.437.437,0,0,0-.22-.431c-.08-.061-.043-.16.092-.214a.521.521,0,0,1,.415.027.645.645,0,0,1,.313.618c-.082.535-1.005.979-2.061.982" fill="#37474f"/>
            <path id="Path_909909" data-name="Path 909909" d="M106.027,395.369H102.95c-.162,0-.276-.064-.26-.147v-.008l.159-.867c.014-.078.151-.147.311-.147s.277.069.263.147l-.129.725h.952l.106-.624c.014-.08.16-.147.31-.147s.278.067.265.147l-.1.623h.957l.115-.725c.012-.077.152-.147.313-.147s.273.069.261.147l-.133.867a.006.006,0,0,1-.006.005l0,0c-.013.083-.153.147-.31.147" fill="#37474f"/>
            <path id="Path_909910" data-name="Path 909910" d="M105.438,389.44c-.983,0-1.7-.446-1.608-.981a.985.985,0,0,1,.5-.618.492.492,0,0,1,.4-.027c.113.053.115.152.016.214a.657.657,0,0,0-.347.43.485.485,0,0,0,.27.482,1.655,1.655,0,0,0,.828.2,2.023,2.023,0,0,0,.894-.2.746.746,0,0,0,.432-.481.44.44,0,0,0-.2-.431c-.073-.061-.038-.16.089-.214a.458.458,0,0,1,.388.027.653.653,0,0,1,.287.618c-.082.535-.951.979-1.94.982" fill="#37474f"/>
            <path id="Path_909911" data-name="Path 909911" d="M116.808,409.859l3.415.669c.122.021.19.074.188.136a.086.086,0,0,1-.026.056.546.546,0,0,1-.425.08l-2.97-.577-.043.69c0,.08-.161.147-.338.147s-.318-.067-.313-.147l.061-.917a.048.048,0,0,1,.007-.027.239.239,0,0,1,.051-.057l.018-.007a.038.038,0,0,1,.023-.011.087.087,0,0,0,.025-.011l.023-.008a.111.111,0,0,1,.03-.005.18.18,0,0,0,.03-.011l.029,0a.249.249,0,0,0,.029,0,.919.919,0,0,1,.129,0l.057.008" fill="#fff"/>
            <path id="Path_909912" data-name="Path 909912" d="M119.393,402.581c.723,0,1.3.286,1.29.636s-.619.642-1.349.642a1.891,1.891,0,0,1-1.093-.286,1.66,1.66,0,0,1-.555.089c-.5,0-.9-.2-.883-.444s.437-.439.935-.439a1.562,1.562,0,0,1,.542.088,2.04,2.04,0,0,1,1.113-.286m-.013.291c-.393,0-.727.155-.737.345s.31.348.705.351.723-.158.731-.351-.306-.345-.7-.345m-1.677.5c.172,0,.32-.067.325-.153s-.136-.147-.307-.147-.309.067-.314.148.129.152.3.152" fill="#fff"/>
            <path id="Path_909913" data-name="Path 909913" d="M118.516,396.564c-.706,0-1.256-.291-1.232-.65.022-.337.535-.613,1.173-.645l.011,0c.1,0,.2-.005.3-.005a5.734,5.734,0,0,1,1.064.093,2.123,2.123,0,0,1,.879.345.541.541,0,0,1,.231.4c0,.083-.121.15-.284.156s-.287-.062-.3-.145a.333.333,0,0,0-.136-.251,1.083,1.083,0,0,0-.359-.169c-.041-.013-.088-.024-.135-.034a.369.369,0,0,1,.094.256c-.017.359-.6.651-1.3.651m.016-.3c.378,0,.7-.158.711-.354s-.3-.35-.672-.35-.694.156-.706.351.284.353.667.353" fill="#fff"/>
            <path id="Path_909914" data-name="Path 909914" d="M119.559,389.175c-.163,0-.294-.072-.289-.158l.044-.834c0-.085.141-.157.3-.157s.286.072.282.157l-.04.834c0,.086-.141.158-.3.158" fill="#37474f"/>
            <path id="Path_909915" data-name="Path 909915" d="M135.283,409.727c.18,0,.325.067.331.15l0,.026h.442c.181,0,.325.065.332.147s-.129.148-.31.148h-.443l.061.837v.006c0,.032-.013.064-.064.091a.593.593,0,0,1-.451.024l-2.751-.99-.012,0a.073.073,0,0,0-.024-.008.044.044,0,0,0-.018-.014.171.171,0,0,1-.018-.011c-.006-.005-.012-.008-.012-.016s-.018-.005-.018-.01-.006-.008-.013-.016a.011.011,0,0,0-.006-.011v-.046a.014.014,0,0,0,0-.013c.006,0,.005-.011.011-.016l.005-.011a.188.188,0,0,0,.023-.013l.017-.013.005,0s.006-.008.011-.008l.024-.011s.016-.005.022-.008l.029-.011a.063.063,0,0,0,.023-.005.211.211,0,0,1,.034-.005l.024,0a.113.113,0,0,1,.035,0l.029,0h2.369v-.027c-.006-.083.135-.15.309-.15m-1.729.471,1.477.532-.036-.532Z" fill="#fff"/>
            <path id="Path_909916" data-name="Path 909916" d="M133.485,402.81a2.188,2.188,0,0,1,.96-.2,2.391,2.391,0,0,1,.98.2c.281.128.426.3.44.468v0c.013.166-.107.34-.37.466a.566.566,0,0,1-.446,0c-.126-.056-.133-.155-.015-.214.145-.07.211-.161.2-.257s-.086-.185-.24-.254a1.3,1.3,0,0,0-.533-.107,1.163,1.163,0,0,0-.524.107c-.145.07-.206.16-.2.254s.079.188.233.257c.126.059.132.155.013.214-.021.011-.048.019-.07.03s-.017,0-.017,0a.06.06,0,0,0-.027.006l-.039,0-.011,0a.5.5,0,0,1-.1,0l-1.446-.08a.488.488,0,0,1-.226-.067s0-.008-.011-.011-.006-.005-.012-.008a.1.1,0,0,1-.037-.069l-.038-.79c0-.085.131-.152.308-.152s.312.067.317.152l.035.659.551.032a.389.389,0,0,1-.06-.18c-.009-.168.113-.339.377-.468" fill="#fff"/>
            <path id="Path_909917" data-name="Path 909917" d="M133.981,395.263c.7,0,1.284.291,1.312.65.026.337-.453.613-1.093.645l-.01,0c-.1,0-.2.005-.3.005a6.007,6.007,0,0,1-1.085-.093,2.345,2.345,0,0,1-.917-.345.6.6,0,0,1-.266-.4c-.01-.084.107-.151.269-.156s.291.062.311.145a.373.373,0,0,0,.16.251,1.213,1.213,0,0,0,.376.169c.043.013.091.024.139.034a.409.409,0,0,1-.12-.257c-.02-.358.526-.65,1.224-.65m.02.3c-.376,0-.68.158-.668.353s.337.351.716.351.677-.156.662-.351-.329-.353-.71-.353" fill="#fff"/>
            <path id="Path_909918" data-name="Path 909918" d="M133.279,389.114c0,.078-.11.139-.249.14s-.262-.062-.267-.14l-.065-1.08c-.005-.078.109-.14.246-.14s.259.062.264.139Zm-1.343-.724h.025c.182,0,.334.082.34.184s-.137.185-.32.185h-.025c-.178,0-.33-.083-.335-.185s.138-.184.315-.184m2.054,0h.025c.182,0,.331.083.338.184s-.129.185-.312.185h-.025c-.182,0-.337-.083-.343-.184s.135-.185.317-.185" fill="#37474f"/>
            <path id="Path_909919" data-name="Path 909919" d="M148.707,410.161h3.442c.181,0,.334.069.35.15s-.112.147-.294.147h-2.876l.153.107a.118.118,0,0,1,.06.075c.008.051-.042.1-.143.126a.594.594,0,0,1-.447-.048l-.482-.33c-.006,0-.007-.008-.013-.01s-.013-.008-.02-.014-.007-.01-.008-.016a.01.01,0,0,1-.008-.01.03.03,0,0,1-.009-.019v-.011l0-.019a.007.007,0,0,0,0-.01c0-.008.005-.011.009-.016a.01.01,0,0,1,.005-.011c.01-.008.015-.011.014-.016a.042.042,0,0,0,.016-.011c.006,0,.01-.008.016-.011a.063.063,0,0,1,.022-.01.053.053,0,0,1,.021-.008l.022-.011.011,0,.017,0a.1.1,0,0,1,.029-.006.144.144,0,0,0,.028-.005c.012,0,.023,0,.029,0a.1.1,0,0,0,.04,0Z" fill="#fff"/>
            <path id="Path_909920" data-name="Path 909920" d="M150.7,402.565c.171,0,.316.064.332.147l.182.947v.006c.008.04-.017.083-.079.11a.578.578,0,0,1-.436-.008l-1.632-.792a1.257,1.257,0,0,0-.551-.113,1.122,1.122,0,0,0-.465.089c-.15.069-.206.163-.19.257a.365.365,0,0,0,.222.233l.17.082c.127.062.132.153.013.209a.567.567,0,0,1-.435-.011l-.17-.082a.658.658,0,0,1-.415-.431c-.029-.174.092-.351.358-.477a2.051,2.051,0,0,1,.861-.166,2.423,2.423,0,0,1,1.02.212l1.04.505-.107-.57c-.016-.083.11-.147.281-.147" fill="#fff"/>
            <path id="Path_909921" data-name="Path 909921" d="M147.429,395.5a1.823,1.823,0,0,1,.878-.2,2.306,2.306,0,0,1,.955.2.755.755,0,0,1,.472.471c.032.168-.066.339-.294.468a.522.522,0,0,1-.421,0c-.127-.059-.145-.155-.04-.214.124-.07.175-.161.157-.254s-.1-.185-.252-.257a1.255,1.255,0,0,0-.521-.107.968.968,0,0,0-.478.107.253.253,0,0,0-.164.254c.012.043-.017.083-.075.11l0,0a.52.52,0,0,1-.419,0l-.592-.273.073.434c.014.083-.106.15-.275.15s-.3-.067-.318-.15l-.129-.789c-.014-.086.1-.153.267-.153a.591.591,0,0,1,.144.019.626.626,0,0,1,.077.026l.737.337a.652.652,0,0,1,.223-.187" fill="#fff"/>
            <path id="Path_909922" data-name="Path 909922" d="M146.206,388.139l.864.318.753-.319a.443.443,0,0,1,.359.027.15.15,0,0,1,.071.086c.008.042-.029.083-.086.117l-.625.268.728.268c.069.029.121.067.129.109a.089.089,0,0,1-.037.086.391.391,0,0,1-.352.03l-.876-.321-.754.321a.419.419,0,0,1-.357-.029c-.1-.065-.085-.147.021-.2l.615-.268-.708-.267c-.122-.051-.161-.136-.089-.2a.4.4,0,0,1,.344-.027" fill="#37474f"/>
            <path id="Path_909923" data-name="Path 909923" d="M167.764,410.332c-.033-.11.138-.2.377-.2s.46.091.493.2-.132.2-.371.2-.466-.088-.5-.2" fill="#fff"/>
            <path id="Path_909924" data-name="Path 909924" d="M164.676,403.933a4.959,4.959,0,0,1-1.383-.182c-.388-.112-.7-.286-.756-.5s.153-.383.475-.5a3.9,3.9,0,0,1,1.268-.179,4.973,4.973,0,0,1,1.373.179c.382.112.7.289.765.495s-.148.385-.464.5a3.956,3.956,0,0,1-1.278.182m-.309-1.057a3.055,3.055,0,0,0-.948.129c-.21.077-.3.166-.267.249s.155.173.411.254a3.869,3.869,0,0,0,1.027.128,3.071,3.071,0,0,0,.946-.128c.214-.081.292-.172.267-.255s-.157-.171-.418-.249a3.819,3.819,0,0,0-1.018-.128" fill="#fff"/>
            <path id="Path_909925" data-name="Path 909925" d="M162.092,396.44c-.164,0-.324-.07-.349-.159l-.236-.822c-.025-.088.093-.154.257-.154s.32.066.346.154l.24.822c.026.088-.084.159-.258.159m.973,0c-.174,0-.333-.071-.359-.159l-.243-.822c-.026-.088.092-.154.264-.154s.33.066.357.154l.246.822c.027.088-.091.159-.265.159" fill="#37474f"/>
            <path id="Path_909926" data-name="Path 909926" d="M160.484,388.718l.112.38c.024.08-.075.147-.229.147s-.293-.066-.316-.147l-.11-.38h-.687c-.158,0-.3-.066-.324-.152s.08-.153.237-.153h.685l-.11-.38c-.024-.08.08-.147.227-.147s.289.067.313.147l.112.38h.685c.157,0,.3.069.327.152s-.077.153-.235.153Z" fill="#37474f"/>
            <path id="Path_909927" data-name="Path 909927" d="M101.774,402.247c.129,0,.227.05.215.115l-.06.337c.779.14,2.825.494,3.411.573a.558.558,0,0,1,.178.058c.037.025.056.051.051.078s-.043.077-.114.107c0,0-.779.357-1.054.469-.392.16-.555.09-.58.067s-.038-.044-.035-.064.039-.064.1-.1l.27-.116c.079-.033.15-.065.219-.1l.2-.092.228-.1c-.548-.084-2.692-.461-3.224-.561h0a.313.313,0,0,1-.073-.032c-.047-.02-.072-.052-.066-.086l.08-.439c.011-.065.127-.115.256-.115" fill="#37474f"/>
            <path id="Path_909928" data-name="Path 909928" d="M93.966,385.4,86.205,413.66H71.084L81.828,385.4Z" fill="#455a64"/>
            <path id="Path_909929" data-name="Path 909929" d="M81.022,398.157h5.25c.276,0,.454.116.414.25s-.289.245-.566.245h-4.4l.145.179a.117.117,0,0,1,.029.125.442.442,0,0,1-.323.21.7.7,0,0,1-.645-.081l-.461-.548c-.007,0,0-.014-.011-.018s-.013-.014-.019-.023,0-.018,0-.026,0-.014,0-.018,0-.023,0-.031l0-.014,0,0,.011-.032a.026.026,0,0,0,.015-.017c0-.014.015-.018.027-.027a.027.027,0,0,1,.016-.018c.022-.013.033-.018.036-.027a.137.137,0,0,0,.033-.018c.01,0,.022-.013.033-.018a.161.161,0,0,1,.042-.017.2.2,0,0,1,.04-.014l.042-.018.019,0c.009,0,.02-.005.029-.005a.2.2,0,0,1,.047-.009.3.3,0,0,0,.048-.009c.018,0,.037,0,.046,0a.149.149,0,0,0,.065-.009Z" fill="#fff"/>
            <path id="Path_909930" data-name="Path 909930" d="M87.067,395.572c.27,0,.447.107.4.245l-.48,1.581v.008a.336.336,0,0,1-.215.183.845.845,0,0,1-.687-.013l-1.94-1.321a1.388,1.388,0,0,0-.778-.187,2.236,2.236,0,0,0-.812.148.825.825,0,0,0-.516.428.331.331,0,0,0,.157.389l.2.138c.151.1.082.254-.154.348a.835.835,0,0,1-.684-.018l-.2-.138a.6.6,0,0,1-.295-.719,1.6,1.6,0,0,1,.97-.794,4.076,4.076,0,0,1,1.5-.277,2.639,2.639,0,0,1,1.438.352l1.232.843.3-.95c.043-.139.295-.246.565-.246" fill="#fff"/>
            <path id="Path_909931" data-name="Path 909931" d="M84.61,393.264a4,4,0,0,1,1.6-.326,2.747,2.747,0,0,1,1.4.325.683.683,0,0,1,.386.786,1.471,1.471,0,0,1-.87.781.85.85,0,0,1-.693,0c-.16-.1-.109-.259.112-.357a.788.788,0,0,0,.469-.424.368.368,0,0,0-.2-.429,1.485,1.485,0,0,0-.766-.178,2.122,2.122,0,0,0-.873.179.836.836,0,0,0-.484.424c-.015.071-.1.138-.215.183,0,.005,0,.005-.01.005a.86.86,0,0,1-.694.009l-.74-.455-.249.723c-.048.138-.3.249-.58.249s-.445-.111-.4-.249l.464-1.317c.051-.143.3-.254.568-.254a.788.788,0,0,1,.22.031.5.5,0,0,1,.1.044l.921.562a2.123,2.123,0,0,1,.524-.312" fill="#fff"/>
            <path id="Path_909932" data-name="Path 909932" d="M87.738,389.845c.258,0,.422.111.379.25l-.014.044h.634c.259,0,.426.107.384.245s-.275.246-.535.246H87.95l-.437,1.4,0,.005v0a.264.264,0,0,1-.149.152.8.8,0,0,1-.666.04l-3.324-1.65c0-.005-.007-.005-.014-.009a.089.089,0,0,0-.029-.013.033.033,0,0,0-.017-.023c-.007,0-.012-.013-.019-.017s-.012-.014-.007-.027c-.015-.005-.022-.009-.019-.018s0-.013-.007-.027,0-.013,0-.018l.011-.031,0-.009,0-.009.01-.027a.039.039,0,0,0,.016-.022c.01,0,.015-.018.026-.027s.013-.013.015-.018c.019-.009.031-.017.041-.022l.033-.022s0-.005.01-.005a.03.03,0,0,1,.021-.013l.04-.018.038-.013a.316.316,0,0,1,.048-.018.135.135,0,0,0,.036-.009.4.4,0,0,1,.054-.009c.008,0,.026-.005.034-.005a.2.2,0,0,1,.052,0c.017,0,.027,0,.043,0h3.395l.014-.044c.044-.138.288-.25.538-.25m-2.778.786,1.784.888.284-.889Z" fill="#fff"/>
            <path id="Path_909933" data-name="Path 909933" d="M86.5,387.621a3.7,3.7,0,0,1,1.542-.326,2.487,2.487,0,0,1,1.324.325.673.673,0,0,1,.359.781l0,.009a1.429,1.429,0,0,1-.84.777.746.746,0,0,1-.662,0c-.152-.094-.1-.259.113-.357a.777.777,0,0,0,.463-.429.362.362,0,0,0-.2-.424,1.357,1.357,0,0,0-.72-.178,1.973,1.973,0,0,0-.844.179.779.779,0,0,0-.459.424.354.354,0,0,0,.18.428c.149.1.1.259-.117.357-.039.018-.085.032-.124.05-.016,0-.024,0-.026,0a.107.107,0,0,0-.044.009c-.025,0-.043,0-.06,0s-.009.005-.018.005a.724.724,0,0,1-.14,0l-2.1-.133a.461.461,0,0,1-.291-.112c-.006-.009,0-.013-.011-.017s0-.009-.012-.014a.13.13,0,0,1-.008-.116l.464-1.317c.05-.143.293-.254.553-.254s.418.111.369.254l-.379,1.1.8.053a.626.626,0,0,1,.027-.3,1.51,1.51,0,0,1,.86-.781" fill="#fff"/>
          </g>
        </g>
        <g id="Group_1115653" data-name="Group 1115653">
          <g id="Group_1115652" data-name="Group 1115652" clip-path="url(#clip-path-8)">
            <path id="Path_909934" data-name="Path 909934" d="M256.963,107.015a33.376,33.376,0,0,1-53.28,26.805l-16.357,4.175,6.81-15.23a33.388,33.388,0,1,1,62.827-15.75" fill="#fff"/>
            <path id="Path_909935" data-name="Path 909935" d="M256.963,107.015a33.6,33.6,0,0,1-4.955,17.524,37.031,37.031,0,0,1-2.649,3.775,37.486,37.486,0,0,1-3.195,3.329,22.347,22.347,0,0,1-1.738,1.518l-1.843,1.393c-.616.462-1.3.824-1.947,1.241l-.985.607c-.334.192-.688.345-1.032.52l-2.081,1.009-2.168.81a16.462,16.462,0,0,1-2.212.675c-.75.178-1.484.436-2.249.548a32.6,32.6,0,0,1-4.6.559,29.144,29.144,0,0,1-4.634-.007,33.585,33.585,0,0,1-17.209-6.41l.3.059-16.336,4.256-.88.229.37-.834,6.771-15.247.016.424a33.072,33.072,0,0,1-3.981-14.715A33.726,33.726,0,0,1,201.839,81.2a33.856,33.856,0,0,1,28.679-7.022,34.048,34.048,0,0,1,13.622,6.474,33.566,33.566,0,0,1,12.823,26.361m0,0a33.1,33.1,0,0,0-41.437-32.088,32.924,32.924,0,0,0-13.207,6.845,34.364,34.364,0,0,0-8.858,11.912,33.026,33.026,0,0,0,1.1,28.853l.113.21-.1.215-6.848,15.212-.509-.6,16.377-4.1.167-.041.134.1a32.992,32.992,0,0,0,16.823,6.51,28.852,28.852,0,0,0,4.573.066,32.411,32.411,0,0,0,4.551-.494c.758-.1,1.487-.347,2.232-.514a16.1,16.1,0,0,0,2.2-.64l2.161-.775,2.078-.975c.343-.169.7-.317,1.032-.5l.985-.59c.648-.406,1.334-.758,1.952-1.209l1.848-1.368a21.948,21.948,0,0,0,1.738-1.5,37.339,37.339,0,0,0,3.2-3.3,36.848,36.848,0,0,0,2.659-3.75,33.55,33.55,0,0,0,5.035-17.475" fill="#263238"/>
            <path id="Path_909936" data-name="Path 909936" d="M219.955,124.635l-12.422-12.574,4.174-4.123,7.256,7.345,15.075-23.634,4.947,3.154Z" fill="#ffc727"/>
          </g>
        </g>
      </g>
    </g>
  </g>
</svg>
