<svg xmlns="http://www.w3.org/2000/svg" xmlns:xlink="http://www.w3.org/1999/xlink" width="62.065" height="62.193" viewBox="0 0 62.065 62.193">
  <defs>
    <clipPath id="clip-path">
      <rect id="Rectangle_406221" data-name="Rectangle 406221" width="62.065" height="62.193" fill="#12263f"/>
    </clipPath>
  </defs>
  <g id="Group_1113651" data-name="Group 1113651" transform="translate(0 0)">
    <g id="Group_1113650" data-name="Group 1113650" transform="translate(0 0)" clip-path="url(#clip-path)">
      <path id="Path_905686" data-name="Path 905686" d="M14.19,7.182c0-1.376.06-2.665-.014-3.946-.114-1.952,1.34-2.655,2.8-2.45,4.157.581,8.335,1.025,12.5,1.525,2.987.358,5.973.709,8.958,1.084a2.015,2.015,0,0,1,1.816,2.194c.017,1.432,0,2.864,0,4.3v.67c.6.082,1.168.166,1.74.235,1.412.171,1.818.621,1.818,2.034q0,14.7,0,29.409v.73a9.529,9.529,0,0,1,12.006,7.5,9.4,9.4,0,0,1-7.588,10.861,9.507,9.507,0,0,1-11.122-8.076H33.5q-10.942,0-21.883,0c-1.434,0-2.868-.028-4.3-.04-.438,0-.843-.066-.841-.624s.391-.632.837-.631c1.087,0,2.175,0,3.339,0v-.805q0-21.028,0-42.057a6.822,6.822,0,0,1,.023-.785,1.483,1.483,0,0,1,1.739-1.355c.559.068,1.116.146,1.779.233M11.958,8.188V51.9h8.948v-.688q0-4.417,0-8.834c0-1.291.549-1.845,1.834-1.847q4.455,0,8.91,0c1.39,0,1.9.505,1.9,1.895q0,4.417,0,8.834v.632h3.5c.013-.121.021-.2.028-.282a9.459,9.459,0,0,1,5.189-7.995.891.891,0,0,0,.3-.679c.019-3.449.014-6.9.014-10.347q0-9.863.009-19.727c0-.507-.1-.734-.669-.8-4.646-.579-9.288-1.2-13.93-1.8Q20.8,9.316,13.617,8.373c-.533-.07-1.07-.12-1.658-.185m26.38,43.891a8.192,8.192,0,1,0,16.378-.387,8.193,8.193,0,0,0-16.378.387m.65-41.677c0-1.724.011-3.394-.007-5.063,0-.493-.359-.681-.808-.731Q37,4.479,35.827,4.341L16.473,2.017c-.7-.085-1.025.193-1.031.9-.009,1.17,0,2.34,0,3.508v.921L38.988,10.4m-6.68,41.516v-.465c0-3.005-.012-6.01.011-9.015,0-.532-.154-.69-.688-.685-2.909.022-5.819.029-8.728,0-.642-.008-.773.221-.769.8.025,2.924.012,5.849.012,8.773v.592Z" transform="translate(-0.184 -0.022)" fill="#12263f"/>
      <path id="Path_905687" data-name="Path 905687" d="M14.19,7.182c0-1.376.06-2.665-.014-3.946-.114-1.952,1.34-2.655,2.8-2.45,4.157.581,8.335,1.025,12.5,1.525,2.987.358,5.973.709,8.958,1.084a2.015,2.015,0,0,1,1.816,2.194c.017,1.432,0,2.864,0,4.3v.67c.6.082,1.168.166,1.74.235,1.412.171,1.818.621,1.818,2.034q0,14.7,0,29.409v.73a9.529,9.529,0,0,1,12.006,7.5,9.4,9.4,0,0,1-7.588,10.861,9.507,9.507,0,0,1-11.122-8.076H33.5q-10.942,0-21.883,0c-1.434,0-2.868-.028-4.3-.04-.438,0-.843-.066-.841-.624s.391-.632.837-.631c1.087,0,2.175,0,3.339,0v-.805q0-21.028,0-42.057a6.822,6.822,0,0,1,.023-.785,1.483,1.483,0,0,1,1.739-1.355C12.97,7.017,13.527,7.094,14.19,7.182ZM11.958,8.188V51.9h8.948v-.688c0-.754,0-1.508,0-2.575,0-1.878,0-4.069,0-6.26,0-1.291.549-1.845,1.834-1.847q4.455,0,8.91,0c1.39,0,1.9.505,1.9,1.895q0,4.417,0,8.834v.632h3.5c.013-.121.021-.2.028-.282a9.459,9.459,0,0,1,5.189-7.995.891.891,0,0,0,.3-.679c.019-3.449.014-6.9.014-10.347q0-9.863.009-19.727c0-.507-.1-.734-.669-.8-4.646-.579-9.288-1.2-13.93-1.8Q20.8,9.316,13.617,8.373C13.083,8.3,12.547,8.253,11.958,8.188Zm26.38,43.891a8.192,8.192,0,1,0,16.378-.387,8.193,8.193,0,0,0-16.378.387Zm.65-41.677c0-1.724.011-3.394-.007-5.063,0-.493-.359-.681-.808-.731Q37,4.479,35.827,4.341L16.473,2.017c-.7-.085-1.025.193-1.031.9-.009,1.17,0,2.34,0,3.508v.921Zm-6.68,41.516v-.465c0-3.005-.012-6.01.011-9.015,0-.532-.154-.69-.688-.685-2.909.022-5.819.029-8.728,0-.642-.008-.773.221-.769.8.025,2.924.012,5.849.012,8.773v.592Z" transform="translate(-0.184 -0.022)" fill="#12263f" stroke="#12263f" stroke-miterlimit="10" stroke-width="1"/>
      <path id="Path_905692" data-name="Path 905692" d="M19.1,21.816c-.484,0-.969.021-1.451,0a1.665,1.665,0,0,1-1.69-1.747q-.019-1.176,0-2.353A1.591,1.591,0,0,1,17.5,16.022a28.213,28.213,0,0,1,3.14-.006,1.542,1.542,0,0,1,1.554,1.544,21.764,21.764,0,0,1,0,2.652,1.614,1.614,0,0,1-1.645,1.6c-.482.029-.967,0-1.451.006m-.019-1.264c.443,0,.886-.007,1.328,0,.382.008.55-.17.547-.547q-.009-1.115,0-2.23c0-.385-.187-.536-.561-.532-.865.009-1.73.012-2.6,0-.413-.006-.591.186-.592.579,0,.723,0,1.447,0,2.169,0,.4.2.579.605.564.422-.016.845,0,1.268,0" transform="translate(-0.454 -0.455)" fill="#12263f"/>
      <path id="Path_905693" data-name="Path 905693" d="M27.737,21.816c-.463,0-.929.019-1.391,0a1.644,1.644,0,0,1-1.71-1.667c-.041-.824-.041-1.653,0-2.477a1.622,1.622,0,0,1,1.708-1.662c.946-.032,1.9-.034,2.844,0a1.644,1.644,0,0,1,1.684,1.748q.022,1.147,0,2.3a1.664,1.664,0,0,1-1.682,1.759c-.483.027-.969,0-1.452,0m.01-4.569c-.423,0-.845.01-1.268,0-.4-.012-.6.139-.6.56q.017,1.084,0,2.17c-.007.4.161.587.574.582q1.3-.017,2.6,0c.377,0,.573-.162.578-.529.008-.744.006-1.487,0-2.231a.484.484,0,0,0-.558-.55c-.442.01-.885,0-1.328,0" transform="translate(-0.7 -0.455)" fill="#12263f"/>
      <path id="Path_905694" data-name="Path 905694" d="M27.734,30.287c-.463,0-.929.019-1.391,0a1.647,1.647,0,0,1-1.707-1.671c-.04-.824-.04-1.653,0-2.477a1.623,1.623,0,0,1,1.71-1.659c.947-.031,1.9-.033,2.844,0a1.644,1.644,0,0,1,1.682,1.751q.02,1.147,0,2.295a1.67,1.67,0,0,1-1.686,1.757c-.483.027-.968,0-1.452,0m0-1.264c.443,0,.886-.009,1.328,0a.486.486,0,0,0,.57-.538q.01-1.115,0-2.231a.486.486,0,0,0-.564-.542c-.886.01-1.772.007-2.657,0-.346,0-.526.15-.525.505q0,1.145,0,2.29a.449.449,0,0,0,.52.511c.442,0,.885,0,1.328,0" transform="translate(-0.7 -0.696)" fill="#12263f"/>
      <path id="Path_905695" data-name="Path 905695" d="M27.788,32.953c.5,0,1.01-.031,1.512.007a1.608,1.608,0,0,1,1.565,1.609c.03.844.028,1.691,0,2.537a1.588,1.588,0,0,1-1.549,1.623,29.51,29.51,0,0,1-3.144,0,1.533,1.533,0,0,1-1.519-1.515,22.594,22.594,0,0,1,0-2.715,1.582,1.582,0,0,1,1.621-1.549c.5-.03,1.008,0,1.513,0v.008m-.046,4.541c.443,0,.886-.008,1.328,0a.485.485,0,0,0,.563-.546c.006-.743.035-1.489-.022-2.229a.728.728,0,0,0-.492-.506c-.9-.053-1.81-.022-2.716-.026-.351,0-.518.16-.516.511,0,.744.009,1.487,0,2.231-.007.417.19.578.591.566.423-.013.845,0,1.268,0" transform="translate(-0.7 -0.937)" fill="#12263f"/>
      <path id="Path_905696" data-name="Path 905696" d="M19.067,24.486c.525,0,1.051-.032,1.572.008a1.541,1.541,0,0,1,1.529,1.5,24.941,24.941,0,0,1,0,2.775,1.505,1.505,0,0,1-1.476,1.484,28.878,28.878,0,0,1-3.2,0,1.584,1.584,0,0,1-1.522-1.644q-.029-1.237,0-2.477A1.605,1.605,0,0,1,17.5,24.5c.52-.043,1.047-.008,1.571-.008v0m.03,4.538c.443,0,.886,0,1.328,0,.345,0,.53-.146.53-.5q0-1.145,0-2.291a.448.448,0,0,0-.514-.515c-.905,0-1.813-.026-2.716.026a.728.728,0,0,0-.494.5c-.057.739-.027,1.486-.022,2.229a.484.484,0,0,0,.559.549c.442-.011.885,0,1.328,0" transform="translate(-0.454 -0.696)" fill="#12263f"/>
      <path id="Path_905697" data-name="Path 905697" d="M19.052,38.753c-.484,0-.97.028-1.452-.006a1.654,1.654,0,0,1-1.639-1.734q-.019-1.178,0-2.355a1.614,1.614,0,0,1,1.6-1.7c1.006-.045,2.017-.043,3.023,0a1.56,1.56,0,0,1,1.592,1.571,25.216,25.216,0,0,1,0,2.655,1.571,1.571,0,0,1-1.551,1.553c-.521.044-1.047.008-1.572.008v.009m.054-1.259c.423,0,.845-.011,1.268,0,.407.013.591-.164.585-.573q-.016-1.086,0-2.17c.006-.413-.182-.574-.588-.568q-1.3.019-2.6,0a.484.484,0,0,0-.564.541q-.009,1.115,0,2.23a.484.484,0,0,0,.567.54c.442-.012.885,0,1.328,0" transform="translate(-0.454 -0.937)" fill="#12263f"/>
      <path id="Path_905698" data-name="Path 905698" d="M36.413,21.818c-.464,0-.929.018-1.392,0A1.661,1.661,0,0,1,33.3,20.037c-.011-.786-.014-1.571,0-2.356a1.564,1.564,0,0,1,1.5-1.654,26.661,26.661,0,0,1,3.2,0,1.548,1.548,0,0,1,1.5,1.651c.02.825.021,1.652,0,2.477A1.607,1.607,0,0,1,37.924,21.8c-.5.038-1.008.007-1.512.007v.009m.008-4.57c-.443,0-.886.007-1.328,0a.479.479,0,0,0-.559.544q0,1.115,0,2.231c0,.374.2.538.569.534q1.3-.013,2.6,0c.4,0,.591-.166.585-.576q-.016-1.084,0-2.169c0-.416-.2-.575-.6-.564-.423.012-.845,0-1.268,0" transform="translate(-0.947 -0.455)" fill="#12263f"/>
      <path id="Path_905699" data-name="Path 905699" d="M36.481,24.49c.5,0,1.01-.034,1.511.008a1.563,1.563,0,0,1,1.516,1.577q.042,1.3,0,2.6a1.523,1.523,0,0,1-1.447,1.574,27.828,27.828,0,0,1-3.32,0,1.535,1.535,0,0,1-1.433-1.589q-.032-1.268,0-2.536a1.6,1.6,0,0,1,1.543-1.621c.541-.042,1.087-.007,1.631-.007v0m.009,1.23c-.462,0-.926.008-1.388,0-.376-.009-.566.161-.567.535q0,1.115,0,2.23c0,.369.182.547.561.544q1.3-.012,2.6,0c.4,0,.6-.154.593-.567q-.015-1.086,0-2.17c.006-.411-.184-.584-.587-.572s-.805,0-1.208,0" transform="translate(-0.947 -0.696)" fill="#12263f"/>
      <path id="Path_905700" data-name="Path 905700" d="M36.456,38.759c-.484,0-.969.021-1.451,0a1.663,1.663,0,0,1-1.705-1.79c-.01-.765-.013-1.53,0-2.294a1.6,1.6,0,0,1,1.581-1.709c1.026-.046,2.057-.045,3.082,0a1.556,1.556,0,0,1,1.545,1.611q.038,1.266,0,2.535a1.587,1.587,0,0,1-1.543,1.622c-.5.045-1.007.009-1.51.009v.017m-.046-4.569c-.443,0-.886.007-1.328,0-.387-.009-.55.188-.55.552,0,.724,0,1.447,0,2.17,0,.4.169.592.581.587q1.3-.015,2.6,0c.41,0,.581-.183.575-.586-.011-.724-.007-1.447,0-2.17,0-.373-.16-.559-.543-.553-.442.008-.885,0-1.328,0" transform="translate(-0.947 -0.937)" fill="#12263f"/>
      <path id="Path_905701" data-name="Path 905701" d="M36.456,38.759c-.484,0-.969.021-1.451,0a1.663,1.663,0,0,1-1.705-1.79c-.01-.765-.013-1.53,0-2.294a1.6,1.6,0,0,1,1.581-1.709c1.026-.046,2.057-.045,3.082,0a1.556,1.556,0,0,1,1.545,1.611q.038,1.266,0,2.535a1.587,1.587,0,0,1-1.543,1.622c-.5.045-1.007.009-1.51.009Zm-.046-4.569c-.443,0-.886.007-1.328,0-.387-.009-.55.188-.55.552,0,.724,0,1.447,0,2.17,0,.4.169.592.581.587q1.3-.015,2.6,0c.41,0,.581-.183.575-.586-.011-.724-.007-1.447,0-2.17,0-.373-.16-.559-.543-.553C37.3,34.2,36.854,34.19,36.411,34.19Z" transform="translate(-0.947 -0.937)" fill="#12263f"/>
      <path id="Path_905702" data-name="Path 905702" d="M52.647,56.269a2.247,2.247,0,1,1-4.493-.062,2.247,2.247,0,0,1,4.493.062m-2.259.968a1.011,1.011,0,0,0,1.027-.974,1.017,1.017,0,1,0-1.027.974" transform="translate(-1.37 -1.536)" fill="#12263f"/>
      <path id="Path_905703" data-name="Path 905703" d="M42.651,50.712A2.247,2.247,0,1,1,44.89,53a2.249,2.249,0,0,1-2.239-2.29m3.258.043a1.008,1.008,0,0,0-.989-1,1,1,0,0,0-1.035,1.013.977.977,0,0,0,1.013.967.991.991,0,0,0,1.01-.976" transform="translate(-1.213 -1.38)" fill="#12263f"/>
      <path id="Path_905704" data-name="Path 905704" d="M44.768,56.967c-.188-.153-.431-.263-.516-.447-.075-.162.016-.409.057-.613.014-.068.1-.122.156-.18q2.721-2.718,5.442-5.435c.32-.32.666-.417,1-.075a.62.62,0,0,1-.068.96q-2.741,2.74-5.49,5.472a2.646,2.646,0,0,1-.584.318" transform="translate(-1.258 -1.422)" fill="#12263f"/>
    </g>
  </g>
</svg>
