<svg xmlns="http://www.w3.org/2000/svg" width="80" height="80" viewBox="0 0 80 80">
  <g id="Group_1111369" data-name="Group 1111369" transform="translate(-419 -1121)">
    <g id="Path_824488" data-name="Path 824488" transform="translate(419 1121)" fill="#fed6a8">
      <path d="M 40 78.5 C 34.80187606811523 78.5 29.76003265380859 77.48227691650391 25.01452255249023 75.47509765625 C 20.43014526367188 73.53606414794922 16.31264495849609 70.75986480712891 12.77638912200928 67.22360992431641 C 9.240133285522461 63.68735504150391 6.46393346786499 59.56985473632812 4.524899959564209 54.98547744750977 C 2.517722129821777 50.23996734619141 1.5 45.19812393188477 1.5 40 C 1.5 34.80187606811523 2.517722129821777 29.76003265380859 4.524899959564209 25.01452255249023 C 6.46393346786499 20.43014526367188 9.240133285522461 16.31264495849609 12.77638912200928 12.77638912200928 C 16.31264495849609 9.240133285522461 20.43014526367188 6.46393346786499 25.01452255249023 4.524899959564209 C 29.76003265380859 2.517722129821777 34.80187606811523 1.5 40 1.5 C 45.19812393188477 1.5 50.23996734619141 2.517722129821777 54.98547744750977 4.524899959564209 C 59.56985473632812 6.46393346786499 63.68735504150391 9.240133285522461 67.22360992431641 12.77638912200928 C 70.75986480712891 16.31264495849609 73.53606414794922 20.43014526367188 75.47509765625 25.01452255249023 C 77.48227691650391 29.76003265380859 78.5 34.80187606811523 78.5 40 C 78.5 45.19812393188477 77.48227691650391 50.23996734619141 75.47509765625 54.98547744750977 C 73.53606414794922 59.56985473632812 70.75986480712891 63.68735504150391 67.22360992431641 67.22360992431641 C 63.68735504150391 70.75986480712891 59.56985473632812 73.53606414794922 54.98547744750977 75.47509765625 C 50.23996734619141 77.48227691650391 45.19812393188477 78.5 40 78.5 Z" stroke="none"/>
      <path d="M 40 3 C 35.00370788574219 3 30.15846633911133 3.977851867675781 25.59885406494141 5.906410217285156 C 21.19327926635742 7.769813537597656 17.23603820800781 10.43806457519531 13.83705139160156 13.83705139160156 C 10.43806457519531 17.23603820800781 7.769813537597656 21.19327926635742 5.906410217285156 25.59885406494141 C 3.977851867675781 30.15846633911133 3 35.00370788574219 3 40 C 3 44.99629211425781 3.977851867675781 49.84153366088867 5.906410217285156 54.40114593505859 C 7.769813537597656 58.80672073364258 10.43806457519531 62.76396179199219 13.83705139160156 66.16294860839844 C 17.23603820800781 69.56193542480469 21.19327926635742 72.23018646240234 25.59885406494141 74.09358978271484 C 30.15846633911133 76.02214813232422 35.00370788574219 77 40 77 C 44.99629211425781 77 49.84153366088867 76.02214813232422 54.40114593505859 74.09358978271484 C 58.80672073364258 72.23018646240234 62.76396179199219 69.56193542480469 66.16294860839844 66.16294860839844 C 69.56193542480469 62.76396179199219 72.23018646240234 58.80672073364258 74.09358978271484 54.40114593505859 C 76.02214813232422 49.84153366088867 77 44.99629211425781 77 40 C 77 35.00370788574219 76.02214813232422 30.15846633911133 74.09358978271484 25.59885406494141 C 72.23018646240234 21.19327926635742 69.56193542480469 17.23603820800781 66.16294860839844 13.83705139160156 C 62.76396179199219 10.43806457519531 58.80672073364258 7.769813537597656 54.40114593505859 5.906410217285156 C 49.84153366088867 3.977851867675781 44.99629211425781 3 40 3 M 40 0 C 62.09138488769531 0 80 17.90861511230469 80 40 C 80 62.09138488769531 62.09138488769531 80 40 80 C 17.90861511230469 80 0 62.09138488769531 0 40 C 0 17.90861511230469 17.90861511230469 0 40 0 Z" stroke="none" fill="#fd9826"/>
    </g>
    <g id="Logo_y_variación_La_Cátedra_Cumbia_y_Café" data-name="Logo y variación La  Cátedra Cumbia y Café" transform="translate(436.321 1135.151)">
      <g id="Group_1111371" data-name="Group 1111371">
        <path id="Path_900429" data-name="Path 900429" d="M109.249,93.817c-.224,0-.707-.314-.707-.455V80.387c-12.114.015-24.234-.02-36.348,0-1.95,0-3.906,0-5.857,0v29.937c0,.212.309.572.562.549,1.764.018,3.531,0,5.294.007,11.863.043,23.731-.036,35.6,0,.313.1.753-.3.753-.56V96.289c0-.237.479-.451.707-.455a.767.767,0,0,1,.809.755c-.29,4.439.379,9.354,0,13.737a2.278,2.278,0,0,1-1.619,2.066h-42a2.278,2.278,0,0,1-1.619-2.066l.005-31.807a5.4,5.4,0,0,1,4.528-4.811l.038-6.576c.049-.693,1.2-1.892,1.844-1.892h2.676V62.564A2.664,2.664,0,0,1,75.981,60.7l22.774.046,6.646,6.581a.874.874,0,0,1,.119.487c.076.819-.135,5.677.039,5.919a5.424,5.424,0,0,1,4.5,4.987c.348,4.624-.27,9.675,0,14.344a.769.769,0,0,1-.809.755Zm-11.611-31.6H76.082a1.605,1.605,0,0,0-.657.657v2.373H94.054c2.379,2.212,4.7,4.536,6.916,6.916v6.715H104v-10.3H99.81a2.7,2.7,0,0,1-2.17-2.17v-4.19Zm5.251,4.847-3.736-3.736V66.3a1.388,1.388,0,0,0,.757.757h2.978Zm-27.363-.3a32.942,32.942,0,0,0-3.882.005c-.247.039-.763.434-.763.65v11.46c1.48,0,2.963,0,4.443,0,8.042.023,16.089-.016,24.131,0V73.117H95.164a3.941,3.941,0,0,1-1.11-.5c-1.589-1.182-.751-4.029-.959-5.756l-.1-.1c-5.82.024-11.648-.032-17.468,0Zm21.2,3.232a28.586,28.586,0,0,0-2.12-2.12v2.978c0,1.2,3,.63,3.736.757.008-.121-.152-.144-.2-.2C97.693,70.891,97.2,70.467,96.729,69.989ZM69.367,75.34a3.694,3.694,0,0,0-3.03,3.534h3.03Zm39.074,3.534a3.571,3.571,0,0,0-2.928-3.534v3.534Z" transform="translate(-64.82 -60.696)" fill="#020303"/>
        <path id="Path_900430" data-name="Path 900430" d="M165.645,71.941v4.19a2.7,2.7,0,0,0,2.17,2.17H172V88.6h-3.03V81.885c-2.212-2.379-4.536-4.7-6.916-6.916H143.43V72.6a1.613,1.613,0,0,1,.657-.657h21.556Z" transform="translate(-132.826 -70.423)" fill="#78cbeb"/>
        <path id="Path_900431" data-name="Path 900431" d="M323.1,83.925h-2.978a1.392,1.392,0,0,1-.757-.757V80.19l3.736,3.736Z" transform="translate(-285.026 -77.56)" fill="#78cbeb"/>
        <g id="Group_1111370" data-name="Group 1111370" transform="translate(6.059 5.996)">
          <path id="Path_900432" data-name="Path 900432" d="M160.082,105.581l.1.1c.208,1.725-.63,4.573.959,5.756a3.92,3.92,0,0,0,1.11.5h4.291V117.7c-8.042-.016-16.089.023-24.131,0v-1.515c6.573.212,13.257-.161,19.842,0,.886-.032,1.1-1.388.15-1.516l-19.992-.1v-1.213c5.494.158,11.015-.12,16.512,0a.76.76,0,1,0,0-1.519c-5.5.123-11.018-.155-16.51,0,.1-1.759-.135-3.664,0-5.406a4.7,4.7,0,0,1,.206-.854c5.82-.032,11.648.024,17.468,0Z" transform="translate(-137.968 -105.516)" fill="#dcedfb"/>
          <path id="Path_900433" data-name="Path 900433" d="M114.387,105.21a4.7,4.7,0,0,0-.206.854c-.131,1.743.105,3.646,0,5.406-.629.018-1.728-.179-1.728.757s1.1.739,1.728.757V114.2l19.992.1-21.055,0c-.545.063-.72.318-.661.865.088.8,1.161.634,1.723.653v1.515c-1.48,0-2.963,0-4.443,0v-11.46c0-.216.517-.611.763-.65a32.657,32.657,0,0,1,3.882-.005Z" transform="translate(-109.74 -105.144)" fill="#b6d7f1"/>
          <path id="Path_900434" data-name="Path 900434" d="M287.78,115.99c-.4,1.319.085,1.837,1.414,1.414.05.057.21.08.2.2-.739-.127-3.736.441-3.736-.757V113.87A28.6,28.6,0,0,1,287.78,115.99Z" transform="translate(-261.931 -112.693)" fill="#78cbeb"/>
          <path id="Path_900435" data-name="Path 900435" d="M301.919,131c-1.329.424-1.814-.094-1.414-1.414C300.979,130.069,301.47,130.492,301.919,131Z" transform="translate(-274.656 -126.293)" fill="#b6d7f1"/>
          <path id="Path_900436" data-name="Path 900436" d="M273.791,105.731l-.1-.1Z" transform="translate(-251.575 -105.564)" fill="#b6d7f1"/>
          <path id="Path_900437" data-name="Path 900437" d="M151.564,172.974c.95.128.736,1.485-.15,1.516-6.585-.163-13.27.209-19.842,0-.561-.018-1.635.15-1.723-.653-.059-.546.116-.8.661-.865l21.055,0Z" transform="translate(-127.127 -163.821)" fill="#020303"/>
          <path id="Path_900438" data-name="Path 900438" d="M131.608,151.72c5.493-.158,11.014.12,16.51,0a.76.76,0,1,1,0,1.519c-5.5-.123-11.018.155-16.51,0-.629-.018-1.728.179-1.728-.757S130.979,151.737,131.608,151.72Z" transform="translate(-127.163 -145.394)" fill="#020303"/>
        </g>
      </g>
      <g id="Group_1111374" data-name="Group 1111374" transform="translate(1.517 14.644)">
        <g id="Group_1111372" data-name="Group 1111372" transform="translate(0 5.042)">
          <path id="Path_900439" data-name="Path 900439" d="M119.49,206.649c12.114-.02,24.234.015,36.348,0v12.975c0,.14.483.452.707.455V222.1c-.228,0-.707.217-.707.455v14.035c0,.26-.44.662-.753.56-11.865-.04-23.732.039-35.6,0V206.65Zm25.142,12.62h-2.019c0-.5-.3-.732-.766-.8a41.812,41.812,0,0,0-6.154-.012,1.794,1.794,0,0,0-1.767,1.767c.233,4.013-.3,8.352,0,12.326a1.766,1.766,0,0,0,1.466,1.865l16.715-.05a1.712,1.712,0,0,0,1.209-1.517c-.272-4.106.36-8.676,0-12.727a1.763,1.763,0,0,0-1.767-1.666c-1.963-.169-4.167.127-6.156.009-.451.117-.763.29-.763.8Z" transform="translate(-113.633 -206.642)" fill="#fdd088"/>
          <path id="Path_900440" data-name="Path 900440" d="M81.927,206.685v30.493c-1.763-.007-3.53.011-5.294-.007-.254.023-.562-.337-.562-.549V206.685C78.02,206.682,79.976,206.688,81.927,206.685Z" transform="translate(-76.07 -206.679)" fill="#f9c066"/>
        </g>
        <path id="Path_900441" data-name="Path 900441" d="M79.1,169.26v3.534H76.07A3.694,3.694,0,0,1,79.1,169.26Z" transform="translate(-76.07 -169.26)" fill="#f9c066"/>
        <path id="Path_900442" data-name="Path 900442" d="M369.428,172.794H366.5V169.26A3.573,3.573,0,0,1,369.428,172.794Z" transform="translate(-327.325 -169.26)" fill="#f9c066"/>
        <g id="Group_1111373" data-name="Group 1111373" transform="translate(20.198 16.751)">
          <path id="Path_900443" data-name="Path 900443" d="M268.308,300.25c0,.347.347.808.657.808h6.361l.05,12.723H262.451v-1.414c3.11.117,7.01.182,10.1,0,.012,0,.013.015.1,0a.754.754,0,0,0,.043-1.508c-3.383.105-6.873-.162-10.242-.007v-1.211c3.3.221,6.827-.167,10.15,0,1.116-.192,1.114-1.43,0-1.62-3.322.17-6.855-.22-10.15,0v-1.211c3.369.156,6.859-.112,10.242-.005a.76.76,0,0,0,.057-1.509l-.05-.1-.05.1c-3.391.1-6.81-.128-10.2,0v-1.213l10.3-.1c.966-.13.821-1.342-.057-1.509-3.383.105-6.873-.162-10.242-.005v-1.414a22.945,22.945,0,0,0,3.156-.024.731.731,0,0,0,.68-.784h2.019Z" transform="translate(-257.508 -299.332)" fill="#dcedfb"/>
          <path id="Path_900444" data-name="Path 900444" d="M234.591,294.363a.731.731,0,0,1-.68.784,22.926,22.926,0,0,1-3.156.024c-1.075.005-2.155,0-3.231,0v12.822l16.155-.1-.05-12.723h-6.361c-.31,0-.657-.461-.657-.808,0-.511.313-.684.763-.8,1.99.117,4.194-.178,6.156-.009a1.763,1.763,0,0,1,1.767,1.666c.357,4.051-.275,8.621,0,12.727a1.715,1.715,0,0,1-1.209,1.517l-16.715.05a1.766,1.766,0,0,1-1.466-1.865c-.3-3.974.233-8.313,0-12.326a1.794,1.794,0,0,1,1.767-1.767,42,42,0,0,1,6.154.012C234.3,293.63,234.591,293.858,234.591,294.363Z" transform="translate(-225.811 -293.445)" fill="#020303"/>
          <path id="Path_900445" data-name="Path 900445" d="M241.741,306.225v1.414a2.64,2.64,0,0,0-.712.045.761.761,0,0,0,.062,1.464l10.949.007-10.3.1v1.213c-.567.022-1.222-.035-1.222.757s.668.731,1.223.757v1.211c-.584.039-1.192.034-1.222.755-.032.808.576.817,1.222.861v1.211c-.554.026-1.223,0-1.223.757s.656.735,1.223.757v1.414h12.924l-16.155.1V306.223c1.075,0,2.156.005,3.231,0Z" transform="translate(-236.797 -304.499)" fill="#b6d7f1"/>
          <path id="Path_900446" data-name="Path 900446" d="M254.614,357.437c3.3-.223,6.828.167,10.15,0,1.114.19,1.116,1.428,0,1.62-3.322-.169-6.854.219-10.15,0-.646-.043-1.254-.051-1.222-.861.028-.72.638-.716,1.222-.755Z" transform="translate(-249.671 -348.744)" fill="#020303"/>
          <path id="Path_900447" data-name="Path 900447" d="M254.549,316.4c3.37-.155,6.859.112,10.242.005.878.167,1.022,1.38.057,1.509l-10.949-.007a.761.761,0,0,1-.062-1.464A2.637,2.637,0,0,1,254.549,316.4Z" transform="translate(-249.605 -313.261)" fill="#020303"/>
          <path id="Path_900448" data-name="Path 900448" d="M254.622,378.526c3.369-.156,6.859.111,10.242.007a.754.754,0,0,1-.043,1.508h-.1c-3.086.182-6.986.117-10.1,0-.567-.022-1.222.035-1.223-.757s.668-.731,1.223-.757Z" transform="translate(-249.679 -367.006)" fill="#020303"/>
          <path id="Path_900449" data-name="Path 900449" d="M254.613,337.419c3.388-.128,6.808.1,10.2,0,.034,0,.069-.005.1,0a.76.76,0,0,1-.057,1.509c-3.383-.107-6.873.162-10.242.005-.554-.026-1.223,0-1.223-.757s.656-.735,1.223-.757Z" transform="translate(-249.67 -331.452)" fill="#020303"/>
          <path id="Path_900450" data-name="Path 900450" d="M338.161,337.048c-.032-.005-.067,0-.1,0l.05-.1.05.1Z" transform="translate(-322.919 -331.082)" fill="#b6d7f1"/>
          <path id="Path_900451" data-name="Path 900451" d="M337.31,390.08h.1C337.323,390.095,337.323,390.08,337.31,390.08Z" transform="translate(-322.27 -377.045)" fill="#b6d7f1"/>
        </g>
      </g>
    </g>
  </g>
</svg>
