<svg xmlns="http://www.w3.org/2000/svg" xmlns:xlink="http://www.w3.org/1999/xlink" width="380" height="378" viewBox="0 0 380 378">
  <defs>
    <clipPath id="clip-path">
      <rect id="Rectangle_407502" data-name="Rectangle 407502" width="348.647" height="330.301" fill="none"/>
    </clipPath>
    <clipPath id="clip-path-3">
      <rect id="Rectangle_407490" data-name="Rectangle 407490" width="108.677" height="106.005" fill="none"/>
    </clipPath>
    <clipPath id="clip-path-4">
      <rect id="Rectangle_407491" data-name="Rectangle 407491" width="108.704" height="106.032" fill="none"/>
    </clipPath>
    <clipPath id="clip-path-5">
      <rect id="Rectangle_407492" data-name="Rectangle 407492" width="127.088" height="123.964" fill="none"/>
    </clipPath>
    <clipPath id="clip-path-7">
      <path id="Path_910028" data-name="Path 910028" d="M103.817,74.295a3.375,3.375,0,0,0-3.406,3.322V287.4H317.094V77.617a3.375,3.375,0,0,0-3.406-3.322Z" transform="translate(-100.411 -74.295)" fill="none"/>
    </clipPath>
    <clipPath id="clip-path-8">
      <path id="Path_910030" data-name="Path 910030" d="M235.913,148.451c-9.214.454-7.465,12.182-7.465,12.182s6.158,2.926,11.486-.161c3.968-2.3,3.469-5.818,3.469-5.818s-1.593-6.213-7.117-6.213c-.123,0-.247,0-.373.01" transform="translate(-228.316 -148.441)" fill="none"/>
    </clipPath>
    <clipPath id="clip-path-10">
      <rect id="Rectangle_407499" data-name="Rectangle 407499" width="15.088" height="12.191" fill="none"/>
    </clipPath>
    <clipPath id="clip-path-11">
      <path id="Path_910037" data-name="Path 910037" d="M193.522,154.695c-5.665,1.361-5.344,8.044-5.344,8.044s.56,3.511,5.038,4.6c6.014,1.461,11.049-3.071,11.049-3.071s-1.5-9.834-8.634-9.835a9.031,9.031,0,0,0-2.108.263" transform="translate(-188.175 -154.432)" fill="none"/>
    </clipPath>
    <clipPath id="clip-path-13">
      <rect id="Rectangle_407500" data-name="Rectangle 407500" width="16.09" height="9.835" fill="none"/>
    </clipPath>
  </defs>
  <g id="Group_1115697" data-name="Group 1115697" transform="translate(-1040.34 -911.985)">
    <path id="Path_910051" data-name="Path 910051" d="M20,0H360a20,20,0,0,1,20,20V217a20,20,0,0,1-20,20H20A20,20,0,0,1,0,217V20A20,20,0,0,1,20,0Z" transform="translate(1040.34 911.985)" fill="#8454ee"/>
    <rect id="Rectangle_407504" data-name="Rectangle 407504" width="380" height="163" transform="translate(1040.34 1126.985)" fill="#8454ee"/>
    <g id="Group_1115696" data-name="Group 1115696" transform="translate(1056.016 945.835)">
      <g id="Group_1115695" data-name="Group 1115695" clip-path="url(#clip-path)">
        <g id="Group_1115674" data-name="Group 1115674">
          <g id="Group_1115673" data-name="Group 1115673" clip-path="url(#clip-path)">
            <path id="Path_909937" data-name="Path 909937" d="M145.2,22.56c-17.8,2.345-36.69-7.474-54.137-3.333C73.589,23.376,57.9,35,52.773,51.682c-3.642,11.847-1.807,25.09-5.121,36.938-3.768,13.469-13.771,23.892-22.6,34.55-10.523,12.7-19.879,26.689-23.537,42.687-3.637,15.909-.916,34.1,10.419,47.381,10.2,11.955,26.334,19.028,34.5,31.983,7.574,12.018,6.645,26.455,10.824,39.5,7.974,24.891,36.991,43.027,63.951,40.258,14.562-1.5,28.1-8.257,42.775-7.768,13.671.456,26.269,7.128,39.444,10.533,22.442,5.8,47.251,1.586,65.558-11.095,6.577-4.555,12.541-10.44,14.853-17.865,1.711-5.5,1.3-11.422,2.31-17.111,2.318-13.066,11.867-23.829,22.175-32.731,10.324-8.916,21.872-16.783,30.245-27.486,8.4-10.734,13.213-25.475,7.784-38.173-5.629-13.167-20.5-20.753-27.528-33.484-7.239-13.1-4.9-28.91-3.137-43.668,1.777-14.841,2.23-31.656-7.749-43.5-13.422-15.924-38.6-14.951-55.714-27.361-11.027-8-17.9-21.015-29.456-28.489C212.654.245,200-1.2,188.531.885,177.049,2.968,156.825,21.029,145.2,22.56" transform="translate(0 0)" fill="#f3eeff"/>
            <ellipse id="Ellipse_13012" data-name="Ellipse 13012" cx="54.338" cy="53.002" rx="54.338" ry="53.002" transform="translate(143.227 26.13)" fill="none" stroke="#c4b9fe" stroke-miterlimit="10" stroke-width="2" stroke-dasharray="6.012 6.012"/>
            <path id="Path_909938" data-name="Path 909938" d="M346.287,313.868c-28.908,7.861-58.876-8.623-66.936-36.82s8.842-57.428,37.749-65.29,58.876,8.623,66.935,36.82S375.195,306.007,346.287,313.868Z" transform="translate(-64.484 -52.738)" fill="none" stroke="#c4b9fe" stroke-miterlimit="10" stroke-width="2" stroke-dasharray="6.012 6.012"/>
            <ellipse id="Ellipse_13013" data-name="Ellipse 13013" cx="61.986" cy="63.548" rx="61.986" ry="63.548" transform="translate(19.998 235.165) rotate(-89.852)" fill="none" stroke="#c4b9fe" stroke-miterlimit="10" stroke-width="2" stroke-dasharray="6.049 6.049"/>
            <g id="Group_1115666" data-name="Group 1115666" transform="translate(206.041 144.197)" opacity="0.5" style="mix-blend-mode: multiply;isolation: isolate">
              <g id="Group_1115665" data-name="Group 1115665">
                <g id="Group_1115664" data-name="Group 1115664" clip-path="url(#clip-path-3)">
                  <path id="Path_909939" data-name="Path 909939" d="M377.137,245.618c0,29.273-24.328,53-54.338,53s-54.338-23.73-54.338-53,24.328-53,54.338-53,54.338,23.73,54.338,53" transform="translate(-268.46 -192.616)" fill="#ddd6ff"/>
                </g>
              </g>
            </g>
            <g id="Group_1115669" data-name="Group 1115669" transform="translate(154.974 26.117)" opacity="0.5" style="mix-blend-mode: multiply;isolation: isolate">
              <g id="Group_1115668" data-name="Group 1115668">
                <g id="Group_1115667" data-name="Group 1115667" clip-path="url(#clip-path-4)">
                  <path id="Path_909940" data-name="Path 909940" d="M270.869,138.958c-28.908,7.861-58.876-8.623-66.936-36.82s8.841-57.428,37.749-65.29,58.876,8.623,66.935,36.82-8.841,57.429-37.748,65.29" transform="translate(-201.923 -34.887)" fill="#ddd6ff"/>
                </g>
              </g>
            </g>
            <g id="Group_1115672" data-name="Group 1115672" transform="translate(21.499 123.17)" opacity="0.5" style="mix-blend-mode: multiply;isolation: isolate">
              <g id="Group_1115671" data-name="Group 1115671">
                <g id="Group_1115670" data-name="Group 1115670" clip-path="url(#clip-path-5)">
                  <path id="Path_909941" data-name="Path 909941" d="M155.1,226.511c0,34.231-28.449,61.982-63.544,61.982s-63.544-27.751-63.544-61.982,28.449-61.982,63.544-61.982S155.1,192.28,155.1,226.511" transform="translate(-28.012 -164.529)" fill="#ddd6ff"/>
                </g>
              </g>
            </g>
            <path id="Path_909942" data-name="Path 909942" d="M95.582,228.339h-76.1a2.983,2.983,0,0,1-3.011-2.937V164.056a2.983,2.983,0,0,1,3.011-2.937h76.1a2.983,2.983,0,0,1,3.011,2.937V225.4a2.983,2.983,0,0,1-3.011,2.937" transform="translate(-3.831 -40.502)" fill="#ddd6ff"/>
            <path id="Path_909943" data-name="Path 909943" d="M95.582,161.118h-76.1a2.983,2.983,0,0,0-3.011,2.937v6.608H98.593v-6.608a2.983,2.983,0,0,0-3.011-2.937" transform="translate(-3.831 -40.501)" fill="#a796f2"/>
            <path id="Path_909944" data-name="Path 909944" d="M98.623,166.794a2.133,2.133,0,1,1-2.133-2.08,2.107,2.107,0,0,1,2.133,2.08" transform="translate(-21.939 -41.405)" fill="#c2e185"/>
            <path id="Path_909945" data-name="Path 909945" d="M108.175,166.794a2.134,2.134,0,1,1-2.133-2.08,2.107,2.107,0,0,1,2.133,2.08" transform="translate(-24.16 -41.405)" fill="#ffc557"/>
            <path id="Path_909946" data-name="Path 909946" d="M117.727,166.794a2.133,2.133,0,1,1-2.133-2.08,2.107,2.107,0,0,1,2.133,2.08" transform="translate(-26.381 -41.405)" fill="#e84874"/>
            <path id="Path_909947" data-name="Path 909947" d="M16.49,247.117a2.98,2.98,0,0,0,3,2.84h76.1a2.982,2.982,0,0,0,3-2.84Z" transform="translate(-3.834 -62.12)" fill="#a796f2"/>
            <path id="Path_910050" data-name="Path 910050" d="M20.263,0A21.181,21.181,0,0,1,41,20.922,20.022,20.022,0,0,1,20.742,41.364,21.181,21.181,0,0,1,0,20.443,20.022,20.022,0,0,1,20.263,0Z" transform="translate(25.026 162.183) rotate(-55.278)" fill="none" stroke="#7660db" stroke-width="2"/>
            <path id="Path_909948" data-name="Path 909948" d="M79.743,203.04c0,11.231-6.274,20.335-14.014,20.335s-14.015-9.1-14.015-20.335S57.988,182.7,65.728,182.7,79.743,191.81,79.743,203.04Z" transform="translate(-12.024 -45.928)" fill="none" stroke="#7660db" stroke-miterlimit="10" stroke-width="2"/>
            <path id="Path_909949" data-name="Path 909949" d="M73.271,203.04c0,11.231-2.118,20.335-4.73,20.335s-4.731-9.1-4.731-20.335S65.928,182.7,68.541,182.7,73.271,191.81,73.271,203.04Z" transform="translate(-14.836 -45.928)" fill="none" stroke="#7660db" stroke-miterlimit="10" stroke-width="2"/>
            <path id="Path_909950" data-name="Path 909950" d="M63.657,218.947c-11.514,0-20.847-6.12-20.847-13.67s9.333-13.671,20.847-13.671S84.5,197.728,84.5,205.278,75.171,218.947,63.657,218.947Z" transform="translate(-9.954 -48.166)" fill="none" stroke="#7660db" stroke-miterlimit="10" stroke-width="2"/>
            <path id="Path_909951" data-name="Path 909951" d="M63.657,212.932c-11.514,0-20.847-2.065-20.847-4.614s9.333-4.615,20.847-4.615S84.5,205.77,84.5,208.318,75.171,212.932,63.657,212.932Z" transform="translate(-9.954 -51.207)" fill="none" stroke="#7660db" stroke-miterlimit="10" stroke-width="2"/>
            <path id="Path_909952" data-name="Path 909952" d="M416.188,216.244H339.27a3.1,3.1,0,0,1-3.125-3.048V160.433a3.1,3.1,0,0,1,3.125-3.049h76.918a3.1,3.1,0,0,1,3.125,3.049V213.2a3.1,3.1,0,0,1-3.125,3.048" transform="translate(-78.157 -39.563)" fill="#ddd6ff"/>
            <path id="Path_909953" data-name="Path 909953" d="M416.188,157.384H339.27a3.1,3.1,0,0,0-3.125,3.048v6.86h83.168v-6.86a3.1,3.1,0,0,0-3.125-3.048" transform="translate(-78.157 -39.563)" fill="#a796f2"/>
            <path id="Path_909954" data-name="Path 909954" d="M418.717,163.277a2.215,2.215,0,1,1-2.213-2.159,2.187,2.187,0,0,1,2.213,2.159" transform="translate(-96.326 -40.501)" fill="#c2e185"/>
            <path id="Path_909955" data-name="Path 909955" d="M428.632,163.277a2.215,2.215,0,1,1-2.214-2.159,2.188,2.188,0,0,1,2.214,2.159" transform="translate(-98.631 -40.501)" fill="#ffc557"/>
            <path id="Path_909956" data-name="Path 909956" d="M438.548,163.277a2.215,2.215,0,1,1-2.213-2.159,2.187,2.187,0,0,1,2.213,2.159" transform="translate(-100.937 -40.501)" fill="#e84874"/>
            <path id="Path_909957" data-name="Path 909957" d="M336.159,232.069a3.1,3.1,0,0,0,3.115,2.949h76.919a3.093,3.093,0,0,0,3.114-2.949Z" transform="translate(-78.16 -58.337)" fill="#a796f2"/>
            <path id="Path_909958" data-name="Path 909958" d="M401.8,193.917a9.643,9.643,0,0,0-9.559-7.826,9.841,9.841,0,0,0-4.867,1.278,14.779,14.779,0,0,0-13.409-8.386,14.578,14.578,0,0,0-14.756,14.393c0,.374.019.744.048,1.112a9.279,9.279,0,0,0-6.04,8.632,9.388,9.388,0,0,0,9.5,9.269h37.952a9.258,9.258,0,0,0,1.128-18.471" transform="translate(-82.127 -44.992)" fill="#7660db"/>
            <path id="Path_909959" data-name="Path 909959" d="M381.327,205.126l6.907,8.334,6.907-8.334h-4.478v-6.492H385.8v6.492Z" transform="translate(-88.662 -49.932)" fill="#ffc25a"/>
            <path id="Path_909960" data-name="Path 909960" d="M294.257,302.493H103.817a3.374,3.374,0,0,1-3.405-3.322V124.446a3.374,3.374,0,0,1,3.405-3.322h190.44a3.374,3.374,0,0,1,3.406,3.322V299.171a3.375,3.375,0,0,1-3.406,3.322" transform="translate(-23.347 -30.448)" fill="#f8f7ff"/>
            <path id="Path_909961" data-name="Path 909961" d="M294.257,121.124H103.817a3.375,3.375,0,0,0-3.405,3.322v7.474H297.663v-7.474a3.374,3.374,0,0,0-3.405-3.322" transform="translate(-23.347 -30.448)" fill="#a796f2"/>
            <path id="Path_909962" data-name="Path 909962" d="M329.312,127.545a2.413,2.413,0,1,1-2.412-2.353,2.383,2.383,0,0,1,2.412,2.353" transform="translate(-75.446 -31.47)" fill="#c2e185"/>
            <path id="Path_909963" data-name="Path 909963" d="M340.117,127.545a2.413,2.413,0,1,1-2.412-2.353,2.383,2.383,0,0,1,2.412,2.353" transform="translate(-77.958 -31.47)" fill="#ffc557"/>
            <path id="Path_909964" data-name="Path 909964" d="M350.923,127.545a2.413,2.413,0,1,1-2.412-2.353,2.383,2.383,0,0,1,2.412,2.353" transform="translate(-80.471 -31.47)" fill="#e84874"/>
            <path id="Path_909965" data-name="Path 909965" d="M100.426,359.1a3.372,3.372,0,0,0,3.395,3.213H294.26a3.372,3.372,0,0,0,3.395-3.213Z" transform="translate(-23.35 -90.27)" fill="#a796f2"/>
            <rect id="Rectangle_407493" data-name="Rectangle 407493" width="7.1" height="167.36" transform="translate(267.216 101.472)" fill="#c4b9fe"/>
            <rect id="Rectangle_407494" data-name="Rectangle 407494" width="7.089" height="6.915" transform="translate(267.215 101.473)" fill="#7660db"/>
            <path id="Path_909966" data-name="Path 909966" d="M354.089,140.962l-1.87-2.4-1.87,2.4" transform="translate(-81.459 -34.831)" fill="none" stroke="#c4b9fe" stroke-miterlimit="10" stroke-width="1"/>
            <rect id="Rectangle_407495" data-name="Rectangle 407495" width="7.089" height="6.915" transform="translate(267.216 261.917)" fill="#7660db"/>
            <path id="Path_909967" data-name="Path 909967" d="M350.35,352.88l1.87,2.4,1.87-2.4" transform="translate(-81.46 -88.706)" fill="none" stroke="#c4b9fe" stroke-miterlimit="10" stroke-width="1"/>
            <rect id="Rectangle_407496" data-name="Rectangle 407496" width="7.1" height="44.967" transform="translate(267.216 111.487)" fill="#7660db"/>
            <path id="Path_909968" data-name="Path 909968" d="M195.922,130.117h-87.13a2.685,2.685,0,1,1,0-5.368h87.13a2.685,2.685,0,1,1,0,5.368" transform="translate(-24.655 -31.359)" fill="#c4b9fe"/>
            <path id="Path_909969" data-name="Path 909969" d="M83.075,327.878a4.166,4.166,0,1,0,4.27,4.165,4.218,4.218,0,0,0-4.27-4.165" transform="translate(-18.323 -82.421)" fill="#e84874"/>
            <path id="Path_909970" data-name="Path 909970" d="M70.882,319.347a1.884,1.884,0,0,0,0,2.711,2,2,0,0,0,2.779,0,10.719,10.719,0,0,1,14.876,0,2,2,0,0,0,2.779,0,1.884,1.884,0,0,0,0-2.711,14.725,14.725,0,0,0-20.434,0" transform="translate(-16.347 -79.241)" fill="#e84874"/>
            <path id="Path_909971" data-name="Path 909971" d="M79.508,305.543a22.008,22.008,0,0,0-15.467,6.249,1.884,1.884,0,0,0,0,2.711,2,2,0,0,0,2.779,0,18.265,18.265,0,0,1,25.376,0,2,2,0,0,0,2.779,0,1.884,1.884,0,0,0,0-2.711,22.008,22.008,0,0,0-15.467-6.249" transform="translate(-14.756 -76.807)" fill="#e84874"/>
            <path id="Path_909972" data-name="Path 909972" d="M99.078,303.325a30.737,30.737,0,0,0-42.7,0,1.884,1.884,0,0,0,0,2.711,2,2,0,0,0,2.779,0,26.736,26.736,0,0,1,37.146,0,2,2,0,0,0,2.779,0,1.884,1.884,0,0,0,0-2.711" transform="translate(-12.974 -74.081)" fill="#e84874"/>
            <path id="Path_909973" data-name="Path 909973" d="M81.334,325.215a4.166,4.166,0,1,0,4.27,4.165,4.218,4.218,0,0,0-4.27-4.165" transform="translate(-17.918 -81.752)" fill="#ff809f"/>
            <path id="Path_909974" data-name="Path 909974" d="M69.141,316.684a1.884,1.884,0,0,0,0,2.711,2,2,0,0,0,2.779,0,10.72,10.72,0,0,1,14.876,0,2,2,0,0,0,2.779,0,1.884,1.884,0,0,0,0-2.711,14.725,14.725,0,0,0-20.434,0" transform="translate(-15.942 -78.571)" fill="#ff809f"/>
            <path id="Path_909975" data-name="Path 909975" d="M77.766,302.88A22.008,22.008,0,0,0,62.3,309.13a1.884,1.884,0,0,0,0,2.711,2,2,0,0,0,2.779,0,18.265,18.265,0,0,1,25.376,0,2,2,0,0,0,2.779,0,1.884,1.884,0,0,0,0-2.711,22.008,22.008,0,0,0-15.467-6.25" transform="translate(-14.351 -76.137)" fill="#ff809f"/>
            <path id="Path_909976" data-name="Path 909976" d="M97.336,300.663a30.737,30.737,0,0,0-42.7,0,1.884,1.884,0,0,0,0,2.711,2,2,0,0,0,2.779,0,26.736,26.736,0,0,1,37.146,0,2,2,0,0,0,2.779,0,1.884,1.884,0,0,0,0-2.711" transform="translate(-12.569 -73.411)" fill="#ff809f"/>
            <path id="Path_909977" data-name="Path 909977" d="M131.5,80.626H35.3a3.1,3.1,0,0,1-3.125-3.048v-43.5A3.1,3.1,0,0,1,35.3,31.024h96.2a3.1,3.1,0,0,1,3.125,3.049v43.5a3.1,3.1,0,0,1-3.125,3.048" transform="translate(-7.481 -7.799)" fill="#f8f7ff"/>
            <path id="Path_909978" data-name="Path 909978" d="M131.5,31.025H35.3a3.1,3.1,0,0,0-3.125,3.048v6.86H134.621v-6.86a3.1,3.1,0,0,0-3.125-3.048" transform="translate(-7.481 -7.799)" fill="#a796f2"/>
            <path id="Path_909979" data-name="Path 909979" d="M139.864,36.917a2.215,2.215,0,1,1-2.214-2.159,2.187,2.187,0,0,1,2.214,2.159" transform="translate(-31.49 -8.737)" fill="#c2e185"/>
            <path id="Path_909980" data-name="Path 909980" d="M149.78,36.917a2.215,2.215,0,1,1-2.214-2.159,2.188,2.188,0,0,1,2.214,2.159" transform="translate(-33.796 -8.737)" fill="#ffc557"/>
            <path id="Path_909981" data-name="Path 909981" d="M159.695,36.917a2.215,2.215,0,1,1-2.214-2.159,2.187,2.187,0,0,1,2.214,2.159" transform="translate(-36.101 -8.737)" fill="#e84874"/>
            <path id="Path_909982" data-name="Path 909982" d="M32.189,93.344A3.1,3.1,0,0,0,35.3,96.293h96.2a3.094,3.094,0,0,0,3.114-2.949Z" transform="translate(-7.484 -23.465)" fill="#a796f2"/>
            <path id="Path_909983" data-name="Path 909983" d="M120.167,72.64H52.857a7.16,7.16,0,1,1,0-14.315h67.31a7.16,7.16,0,1,1,0,14.315" transform="translate(-10.584 -14.662)" fill="#e4dffe"/>
            <path id="Path_909984" data-name="Path 909984" d="M138.752,63.27a2.844,2.844,0,0,1,0,4.092,3.019,3.019,0,0,1-4.2,0,2.843,2.843,0,0,1,0-4.092A3.02,3.02,0,0,1,138.752,63.27Z" transform="translate(-31.084 -15.692)" fill="none" stroke="#a796f2" stroke-linecap="round" stroke-linejoin="round" stroke-width="2"/>
            <line id="Line_889" data-name="Line 889" x1="2.857" y1="2.786" transform="translate(107.668 51.67)" fill="none" stroke="#a796f2" stroke-linecap="round" stroke-linejoin="round" stroke-width="2"/>
          </g>
        </g>
        <text id="http:_www." data-name="http://www." transform="translate(41.151 50.577)" fill="#7660db" font-size="5" font-family="Poppins-SemiBold, Poppins" font-weight="600"><tspan x="0" y="0">http://www.</tspan></text>
        <g id="Group_1115676" data-name="Group 1115676">
          <g id="Group_1115675" data-name="Group 1115675" clip-path="url(#clip-path)">
            <path id="Path_909985" data-name="Path 909985" d="M403.95,286.921A16.938,16.938,0,1,1,387.017,270.4a16.728,16.728,0,0,1,16.932,16.516" transform="translate(-86.048 -67.974)" fill="#ff809f"/>
            <path id="Path_909986" data-name="Path 909986" d="M374.336,300.038a17.045,17.045,0,0,0,13.669,6.773,16.728,16.728,0,0,0,16.932-16.516,16.116,16.116,0,0,0-1.349-6.47c-15.325.646-24.728,10.079-29.252,16.213" transform="translate(-87.036 -71.347)" fill="#e84874"/>
            <path id="Path_909987" data-name="Path 909987" d="M398.617,288.432l-12.155-6.845a1.482,1.482,0,0,0-2.223,1.252v13.691a1.482,1.482,0,0,0,2.223,1.252l12.155-6.845a1.428,1.428,0,0,0,0-2.5" transform="translate(-89.339 -70.735)" fill="#f8f7ff"/>
            <path id="Path_909988" data-name="Path 909988" d="M289.955,26.792h59.017a4.875,4.875,0,0,1,4.92,4.8V48.364a4.875,4.875,0,0,1-4.92,4.8H306.339c-.2,0-1.23,8.775-15.17,8.829a11.982,11.982,0,0,0,4.3-8.829h-5.518a4.875,4.875,0,0,1-4.92-4.8V31.591a4.875,4.875,0,0,1,4.92-4.8" transform="translate(-66.273 -6.735)" fill="#ff809f"/>
            <path id="Path_909989" data-name="Path 909989" d="M389.231,75.734H330.214a4.875,4.875,0,0,0-4.92,4.8V97.306a4.875,4.875,0,0,0,4.92,4.8h42.633c.2,0,1.23,8.775,15.17,8.829a11.982,11.982,0,0,1-4.3-8.829h5.518a4.875,4.875,0,0,0,4.92-4.8V80.533a4.875,4.875,0,0,0-4.92-4.8" transform="translate(-75.634 -19.038)" fill="#c4b9fe"/>
            <path id="Path_909990" data-name="Path 909990" d="M310.361,44.46a3.532,3.532,0,1,1-3.53-3.444,3.488,3.488,0,0,1,3.53,3.444" transform="translate(-70.52 -10.311)" fill="#f8f7ff"/>
            <path id="Path_909991" data-name="Path 909991" d="M332.355,44.46a3.532,3.532,0,1,1-3.53-3.444,3.488,3.488,0,0,1,3.53,3.444" transform="translate(-75.634 -10.311)" fill="#f8f7ff"/>
            <path id="Path_909992" data-name="Path 909992" d="M354.349,44.46a3.532,3.532,0,1,1-3.53-3.444,3.488,3.488,0,0,1,3.53,3.444" transform="translate(-80.748 -10.311)" fill="#f8f7ff"/>
            <path id="Path_909993" data-name="Path 909993" d="M350.62,91.479a3.532,3.532,0,1,1-3.53-3.444,3.488,3.488,0,0,1,3.53,3.444" transform="translate(-79.881 -22.13)" fill="#7660db"/>
            <path id="Path_909994" data-name="Path 909994" d="M372.614,91.479a3.532,3.532,0,1,1-3.53-3.444,3.488,3.488,0,0,1,3.53,3.444" transform="translate(-84.994 -22.13)" fill="#7660db"/>
            <path id="Path_909995" data-name="Path 909995" d="M394.608,91.479a3.532,3.532,0,1,1-3.531-3.444,3.488,3.488,0,0,1,3.531,3.444" transform="translate(-90.108 -22.13)" fill="#7660db"/>
          </g>
        </g>
        <g id="Group_1115678" data-name="Group 1115678" transform="translate(77.065 55.619)">
          <g id="Group_1115677" data-name="Group 1115677" clip-path="url(#clip-path-7)">
            <path id="Path_909996" data-name="Path 909996" d="M331.561,240.868s1.627-10.162,2.946-12.119,17.553-10.993,20.841-12.724,2.808-2.965,1.291-3.5-8.109,1.71-8.109,1.71,7.363-3.719,12.014-6.188,4.154-4.922,1.825-4.943-11.363,2.846-15.993,5.892c0,0,11.828-7.583,14.347-9.66s1.966-5.008-2.415-3.584c0,0,1.014-3.063-2.742-3.015s-12.673,4.275-16.62,7.039c-1.734,1.214-5.123,3.215-5.78,1.73s3.055-4.474,4.035-6.18.785-5.423-.3-6.146-1.523-.307-2.806.952-5.9,8.144-8.921,11.187-6.418,7.888-6.786,10.151a27.993,27.993,0,0,0-.043,5.684s-4.617,10.178-6.287,17.317Z" transform="translate(-149.621 -103.086)" fill="#a55b5b"/>
            <path id="Path_909997" data-name="Path 909997" d="M367.665,198.078a61.612,61.612,0,0,0-15.367,8.846" transform="translate(-158.977 -105.411)" fill="none" stroke="#6d303f" stroke-miterlimit="10" stroke-width="1"/>
            <path id="Path_909998" data-name="Path 909998" d="M350.768,222.52s-2.9-7.03-7.04-10.993" transform="translate(-156.984 -108.792)" fill="none" stroke="#6d303f" stroke-miterlimit="10" stroke-width="1"/>
            <path id="Path_909999" data-name="Path 909999" d="M334.888,209.246s-1.672,10.223-8.273,17.656" transform="translate(-153.005 -108.219)" fill="none" stroke="#6d303f" stroke-miterlimit="10" stroke-width="1"/>
            <path id="Path_910000" data-name="Path 910000" d="M343.968,225.683s-8.261.792-14.538,5.8" transform="translate(-153.66 -112.351)" fill="none" stroke="#6d303f" stroke-miterlimit="10" stroke-width="1"/>
            <path id="Path_910001" data-name="Path 910001" d="M259.522,253.7s-4.494-15.937-9.318-20.66c-8.062-7.9-35.286-14.921-35.286-14.921H185.482s-27.224,7.025-35.287,14.921c-4.823,4.724-9.317,20.66-9.317,20.66s-7.224,0-9.752,6.342-4.7,33.556,0,43.42,20.226,6.958,28.172.264c0,0-2.528,23.6-2.528,26.069s13.724,6.87,43.431,6.87,47.945-2.995,48.307-7.4-2.708-37.519-2.708-37.519,3.25,12.506,17.878,14.267,21.49-13.563,24.92-28.624,7.209-36.022,6.728-39.193-1.852-4.932-11.423-7.046-11.2-2.466-13.905,0S259.522,253.7,259.522,253.7" transform="translate(-106.909 -110.45)" fill="#ffc25a"/>
            <path id="Path_910002" data-name="Path 910002" d="M235.974,219.638c-3.246-.965-5.38-1.516-5.38-1.516H201.157s-2.133.551-5.379,1.516c0,0,5.216,10.638,20.556,10.638s19.639-10.636,19.639-10.638" transform="translate(-122.585 -110.45)" fill="#a796f2"/>
            <path id="Path_910003" data-name="Path 910003" d="M131.126,264.9c-2.528,6.342-4.7,33.555,0,43.42s20.226,6.958,28.172.264c0,0-.063.586-.168,1.58,3.237-8.447,4.826-22.676,4.23-34.167-.814-15.678-1.895-42.451-13.164-38.1-4.823,4.724-9.317,20.66-9.317,20.66s-7.224,0-9.752,6.342" transform="translate(-106.909 -115.302)" fill="#a796f2"/>
            <path id="Path_910004" data-name="Path 910004" d="M279.522,295.551l.458,1.319c1.3,3.257,5.716,11.539,17.42,12.949,14.628,1.761,21.49-13.564,24.921-28.624s7.208-36.022,6.728-39.193-1.852-4.933-11.423-7.046-11.2-2.466-13.905,0S293.246,257.5,293.246,257.5s-4.494-15.936-9.317-20.66c-13.11-6.217-13.255,33.695-4.407,58.708" transform="translate(-140.633 -114.249)" fill="#a796f2"/>
            <path id="Path_910005" data-name="Path 910005" d="M208.807,366.107c-34.582,0-43.036-5.65-43.036-5.65-.237,2.563-.4,4.5-.4,5.121,0,2.466,13.724,6.87,43.431,6.87s47.946-2.995,48.307-7.4a45.454,45.454,0,0,0-.09-4.593s-13.634,5.65-48.217,5.65" transform="translate(-115.516 -146.23)" fill="#a796f2"/>
            <path id="Path_910006" data-name="Path 910006" d="M163.09,315.517c4.334-4.58,1.367-32.214.9-39.226-.807-12.209-8.848-11.857-19.322-10.8" transform="translate(-110.702 -122.238)" fill="none" stroke="#7660db" stroke-miterlimit="10" stroke-width="1"/>
            <path id="Path_910007" data-name="Path 910007" d="M297.11,265.652s-7.765,15.5-7.042,33.644" transform="translate(-144.497 -122.398)" fill="none" stroke="#7660db" stroke-miterlimit="10" stroke-width="1"/>
            <path id="Path_910008" data-name="Path 910008" d="M283.493,292.27s4.736-18.054,11.126-23.736" transform="translate(-142.979 -123.122)" fill="none" stroke="#7660db" stroke-miterlimit="10" stroke-width="1"/>
            <path id="Path_910009" data-name="Path 910009" d="M237.573,270.553c0,12.063-10.027,21.842-22.393,21.842s-22.393-9.779-22.393-21.842,10.026-21.842,22.393-21.842,22.393,9.778,22.393,21.842" transform="translate(-121.889 -118.139)" fill="#c4b9fe"/>
            <path id="Path_910010" data-name="Path 910010" d="M216.9,272.235c0,2.718-1.21,4.92-2.7,4.92s-2.7-2.2-2.7-4.92,1.209-4.92,2.7-4.92,2.7,2.2,2.7,4.92" transform="translate(-126.239 -122.816)" fill="#7660db"/>
            <path id="Path_910011" data-name="Path 910011" d="M230.8,272.235c0,2.718-1.21,4.92-2.7,4.92s-2.7-2.2-2.7-4.92,1.209-4.92,2.7-4.92,2.7,2.2,2.7,4.92" transform="translate(-129.471 -122.816)" fill="#7660db"/>
            <path id="Path_910012" data-name="Path 910012" d="M205.19,275.769s.18,4.623-5.6,6.452" transform="translate(-123.471 -124.941)" fill="none" stroke="#7660db" stroke-miterlimit="10" stroke-width="2"/>
            <path id="Path_910013" data-name="Path 910013" d="M231.2,281.181c-1.57,4.052-5.834,7.926-13.253,7.926s-11.684-3.875-13.254-7.926" transform="translate(-124.658 -126.302)" fill="none" stroke="#7660db" stroke-miterlimit="10" stroke-width="2"/>
            <path id="Path_910014" data-name="Path 910014" d="M237.042,275.769s-.18,4.623,5.6,6.452" transform="translate(-132.179 -124.941)" fill="none" stroke="#7660db" stroke-miterlimit="10" stroke-width="2"/>
            <path id="Path_910015" data-name="Path 910015" d="M189.856,86.716s-7.925-8.306-19.171-3.762c-11.154,4.507-6.59,16.628-6.59,16.628s-8.056-1.935-12.682,3.792c-4.6,5.691.721,14.089.721,14.089s-9.846,1.357-10.654,13.728c-.8,12.25,11.931,18.5,11.931,18.5A14.456,14.456,0,0,0,158.6,166.8c9.507,7.232,17.535.742,17.535.742s4.276,9.261,15.922,7.983c11.717-1.285,12.643-9.469,12.643-9.469s13.785,6.369,24.438.257c10.754-6.169,5.739-17.277,5.739-17.277s11.151-.717,13.134-9.693a23.017,23.017,0,0,0-2.592-16.164s8.317-5.48,3.871-14.805c-4.468-9.373-15.011-7.166-15.011-7.166s3.966-9.355-3.22-14.2-13.875,1.385-13.875,1.385-3.291-8.51-15.271-8.8a13.384,13.384,0,0,0-12.054,7.126" transform="translate(-109.951 -75.625)" fill="#272347"/>
            <path id="Path_910016" data-name="Path 910016" d="M173.6,159.251s-5.775-7.219-10.4-.6c-4.85,6.952,5.27,26.271,17.173,20.36Z" transform="translate(-114.723 -94.798)" fill="#a55b5b"/>
            <path id="Path_910017" data-name="Path 910017" d="M167.9,176.675c3.415,3.859,8.239,6.043,13.4,3.48l-6.776-19.765s-13.544,1.427-6.624,16.285" transform="translate(-115.646 -95.937)" fill="#894351"/>
            <path id="Path_910018" data-name="Path 910018" d="M256.456,142.819s2.525-8.819,9.383-4.408c7.2,4.629,5.371,26.252-7.942,25.2Z" transform="translate(-136.693 -90.102)" fill="#a55b5b"/>
            <path id="Path_910019" data-name="Path 910019" d="M268.933,157.2c-1.654,4.837-5.263,8.647-11.036,8.191l-1.441-20.794s13.083-3.7,12.477,12.6" transform="translate(-136.693 -91.875)" fill="#894351"/>
            <path id="Path_910020" data-name="Path 910020" d="M232.223,192.24H202.787s1.718,11.8,0,19.376c0,0,3.507,5.813,14.718,5.813s14.718-5.813,14.718-5.813c-1.718-7.574,0-19.376,0-19.376" transform="translate(-124.214 -103.944)" fill="#894351"/>
            <path id="Path_910021" data-name="Path 910021" d="M202.763,112.191c23.02-3.3,35.019,10.05,36.785,33.153s-11.42,32.741-26.531,34.907-30.581-3.363-35.7-25.985,3.474-38.925,25.45-42.075" transform="translate(-117.957 -83.696)" fill="#a55b5b"/>
            <path id="Path_910022" data-name="Path 910022" d="M201.91,79.59a13.383,13.383,0,0,0-12.054,7.126s-7.926-8.305-19.171-3.762c-11.154,4.507-6.59,16.628-6.59,16.628s-8.056-1.936-12.681,3.792c-4.6,5.691.721,14.089.721,14.089s-9.846,1.356-10.654,13.727c-.8,12.25,11.932,18.5,11.932,18.5s9.1,2.428,12.109-8.1c0,0,14.018.023,19.091-8.629,5.118-8.728,1.141-15.8,1.141-15.8s6.623,5.6,12.212,3.658c5.61-1.954,3.657-9.2,3.657-9.2s10.574,1.377,15.429-6.3a15.6,15.6,0,0,0,.13-16.924s-3.291-8.51-15.271-8.8" transform="translate(-109.951 -75.625)" fill="#3e307b"/>
            <path id="Path_910023" data-name="Path 910023" d="M215.938,146.22s-1.311,5.675,2.107,13.075c.521,1.128,5.933.778,5.019,5.619-.569,3.015-3.716,5.436-3.716,5.436" transform="translate(-127.215 -92.375)" fill="none" stroke="#6d303f" stroke-miterlimit="10" stroke-width="1"/>
            <path id="Path_910024" data-name="Path 910024" d="M227.537,177.8a9.378,9.378,0,0,1-8.218,6.929c-6.957.88-10.412-2.316-11.426-5.255" transform="translate(-125.401 -100.313)" fill="none" stroke="#6d303f" stroke-miterlimit="10" stroke-width="1"/>
            <path id="Path_910025" data-name="Path 910025" d="M250.153,158.029a13.648,13.648,0,0,1,4.359.077c.454,8.12-.975,14.532-3.709,19.493-5.446-.118-10.046-3.474-10.758-8.194-.808-5.367,3.717-10.46,10.108-11.376" transform="translate(-132.855 -95.309)" fill="#af435d"/>
            <path id="Path_910026" data-name="Path 910026" d="M178.106,169.569a13.556,13.556,0,0,1,4.141-1.292c6.391-.916,12.227,2.692,13.036,8.058.711,4.717-2.7,9.219-7.875,10.864-4.081-3.985-7.34-9.725-9.3-17.63" transform="translate(-118.476 -97.884)" fill="#af435d"/>
            <path id="Path_910027" data-name="Path 910027" d="M228.448,160.631s-1.748-11.726,7.465-12.182c5.827-.287,7.491,6.2,7.491,6.2s.5,3.519-3.469,5.818c-5.329,3.087-11.487.16-11.487.16" transform="translate(-130.15 -92.934)" fill="#f8f7ff"/>
          </g>
        </g>
        <g id="Group_1115680" data-name="Group 1115680" transform="translate(175.23 111.126)">
          <g id="Group_1115679" data-name="Group 1115679" clip-path="url(#clip-path-8)">
            <path id="Path_910029" data-name="Path 910029" d="M234.3,157.577c.6,3.995-1.737,7.638-5.223,8.138s-6.8-2.333-7.4-6.327,1.737-7.638,5.224-8.138,6.8,2.333,7.4,6.328" transform="translate(-226.75 -149.132)" fill="#272347"/>
          </g>
        </g>
        <g id="Group_1115685" data-name="Group 1115685" transform="translate(77.065 55.619)">
          <g id="Group_1115684" data-name="Group 1115684" clip-path="url(#clip-path-7)">
            <g id="Group_1115683" data-name="Group 1115683" transform="translate(98.165 55.507)" style="mix-blend-mode: multiply;isolation: isolate">
              <g id="Group_1115682" data-name="Group 1115682">
                <g id="Group_1115681" data-name="Group 1115681" clip-path="url(#clip-path-10)">
                  <path id="Path_910031" data-name="Path 910031" d="M235.912,148.451c5.827-.287,7.491,6.2,7.491,6.2s-7.632-3.6-14.956,5.978c0,0-1.748-11.727,7.465-12.182" transform="translate(-228.315 -148.441)" fill="#c4b9fe"/>
                </g>
              </g>
            </g>
            <path id="Path_910032" data-name="Path 910032" d="M228.28,160.277a12.85,12.85,0,0,1-.4-6.824,8.687,8.687,0,0,1,1.48-3.367,7.361,7.361,0,0,1,3.058-2.4,8.985,8.985,0,0,1,3.786-.644,6.8,6.8,0,0,1,3.69,1.189,7.545,7.545,0,0,1,2.395,2.765,8.574,8.574,0,0,1,.95,3.306,10.813,10.813,0,0,0-4.28-4.574,5.885,5.885,0,0,0-2.781-.555,8.085,8.085,0,0,0-2.848.575,7.021,7.021,0,0,0-3.731,4.2,24.539,24.539,0,0,0-1.315,6.333" transform="translate(-129.982 -92.579)" fill="#272347"/>
            <path id="Path_910033" data-name="Path 910033" d="M235.989,156.464c.105.7,1.009,1.146,2.019,1s1.743-.828,1.638-1.526-1.008-1.147-2.018-1-1.743.828-1.638,1.526" transform="translate(-131.932 -94.56)" fill="#fff"/>
            <path id="Path_910034" data-name="Path 910034" d="M204.265,164.267s-1.784-11.721-10.743-9.571c-5.665,1.359-5.344,8.043-5.344,8.043s.56,3.511,5.038,4.6c6.014,1.461,11.049-3.071,11.049-3.071" transform="translate(-120.817 -94.44)" fill="#f8f7ff"/>
          </g>
        </g>
        <g id="Group_1115687" data-name="Group 1115687" transform="translate(144.422 115.611)">
          <g id="Group_1115686" data-name="Group 1115686" clip-path="url(#clip-path-11)">
            <path id="Path_910036" data-name="Path 910036" d="M195.114,163.175c.6,3.995-1.737,7.638-5.223,8.138s-6.8-2.333-7.4-6.327,1.737-7.638,5.224-8.138,6.8,2.333,7.4,6.327" transform="translate(-186.831 -155.025)" fill="#272347"/>
          </g>
        </g>
        <g id="Group_1115692" data-name="Group 1115692" transform="translate(77.065 55.619)">
          <g id="Group_1115691" data-name="Group 1115691" clip-path="url(#clip-path-7)">
            <g id="Group_1115690" data-name="Group 1115690" transform="translate(67.357 59.992)" style="mix-blend-mode: multiply;isolation: isolate">
              <g id="Group_1115689" data-name="Group 1115689">
                <g id="Group_1115688" data-name="Group 1115688" clip-path="url(#clip-path-13)">
                  <path id="Path_910038" data-name="Path 910038" d="M193.522,154.7c-5.665,1.359-5.344,8.043-5.344,8.043s6.247-5.591,16.087,1.528c0,0-1.784-11.721-10.743-9.571" transform="translate(-188.174 -154.432)" fill="#c4b9fe"/>
                </g>
              </g>
            </g>
            <path id="Path_910039" data-name="Path 910039" d="M204.2,163.894a24.865,24.865,0,0,0-3.128-5.7,7.159,7.159,0,0,0-4.811-2.974,8.089,8.089,0,0,0-2.9.249,5.8,5.8,0,0,0-2.5,1.312,10.6,10.6,0,0,0-2.749,5.581,8.5,8.5,0,0,1-.065-3.432,7.393,7.393,0,0,1,1.477-3.319,6.68,6.68,0,0,1,3.184-2.174,8.976,8.976,0,0,1,3.816-.446,7.5,7.5,0,0,1,3.637,1.443,8.871,8.871,0,0,1,2.411,2.81,12.9,12.9,0,0,1,1.627,6.648" transform="translate(-120.755 -94.067)" fill="#272347"/>
            <path id="Path_910040" data-name="Path 910040" d="M199.328,161.865c.105.7-.628,1.381-1.638,1.526s-1.913-.3-2.019-1,.628-1.381,1.638-1.526,1.913.3,2.018,1" transform="translate(-122.558 -96.049)" fill="#fff"/>
            <path id="Path_910041" data-name="Path 910041" d="M224.178,134.4c4.623-5.317,16.255-2.37,16.51,4.623-4.29-4.422-11.165-4.927-16.51-4.623" transform="translate(-129.188 -88.719)" fill="#272347"/>
            <path id="Path_910042" data-name="Path 910042" d="M141.512,242.109l16.338-9.183a3.344,3.344,0,0,0,1.273-4.616L137.7,192.045a3.523,3.523,0,0,0-4.732-1.241l-16.338,9.182a3.345,3.345,0,0,0-1.273,4.617l21.423,36.265a3.523,3.523,0,0,0,4.732,1.241" transform="translate(-103.779 -103.47)" fill="#ff809f"/>
            <path id="Path_910043" data-name="Path 910043" d="M143.512,204.1h0a2.558,2.558,0,0,0,.973-3.53l-2.629-4.451a2.694,2.694,0,0,0-3.619-.949,2.557,2.557,0,0,0-.973,3.53l2.629,4.451a2.694,2.694,0,0,0,3.619.949" transform="translate(-108.898 -104.594)" fill="#e84874"/>
            <path id="Path_910044" data-name="Path 910044" d="M138.467,199.229a1.964,1.964,0,0,0,2.645.694,1.864,1.864,0,0,0,.711-2.58,1.963,1.963,0,0,0-2.645-.694,1.864,1.864,0,0,0-.711,2.58" transform="translate(-109.199 -104.989)" fill="#3e307b"/>
            <path id="Path_910045" data-name="Path 910045" d="M139.618,199.072a.965.965,0,0,0,1.3.341.916.916,0,0,0,.349-1.267.965.965,0,0,0-1.3-.341.916.916,0,0,0-.349,1.267" transform="translate(-109.497 -105.311)" fill="#272347"/>
            <path id="Path_910046" data-name="Path 910046" d="M142.254,203.646a.965.965,0,0,0,1.3.341.916.916,0,0,0,.349-1.267.965.965,0,0,0-1.3-.341.916.916,0,0,0-.349,1.267" transform="translate(-110.11 -106.461)" fill="#ffc25a"/>
            <path id="Path_910047" data-name="Path 910047" d="M132.9,254.046s-4.869-9.139-5.508-11.017-.631-4.751-1.894-9.778a15.936,15.936,0,0,0-4.181-7.575,1.254,1.254,0,0,1,.726-1.957c.833-.182,3.072-.177,3.911,1.244l7.1,12.016c1.046,1.77,5.836-1.272,7.226-6.586s6.536-15.32,7.172-17.628,2.18-3.578,3.681-2.929,1.867,2.164,1,4.886-4.468,15.535-3.689,15.957,4.481-10.436,4.481-10.436l-.408-.689a1.7,1.7,0,0,1,1.893-.777,5.708,5.708,0,0,1,3.52,3.07,4.909,4.909,0,0,1-.232,3.689s1.2-1.251,2.354-.694a5.5,5.5,0,0,1,2.461,3.321,8.994,8.994,0,0,1-.737,3.283,1.865,1.865,0,0,1,1.986.375c.806.867,1.255,2.622.619,4.93s-7.541,17.2-8.515,18.44-2.636,2.427-3.685,3.62c-1.2,1.36-16.787-1.236-19.284-4.766" transform="translate(-105.218 -108.325)" fill="#a55b5b"/>
            <line id="Line_890" data-name="Line 890" x1="2.264" y2="7.983" transform="translate(50.22 117.212)" fill="none" stroke="#6d303f" stroke-miterlimit="10" stroke-width="1"/>
            <line id="Line_891" data-name="Line 891" x1="2.078" y2="6.637" transform="translate(54.484 123.122)" fill="none" stroke="#6d303f" stroke-miterlimit="10" stroke-width="1"/>
            <path id="Path_910048" data-name="Path 910048" d="M187.4,144.491c1.134-6.774,11.091-11.593,16.76-7.628-6.343.469-12.246,4.3-16.76,7.628" transform="translate(-120.636 -89.663)" fill="#272347"/>
          </g>
        </g>
        <g id="Group_1115694" data-name="Group 1115694">
          <g id="Group_1115693" data-name="Group 1115693" clip-path="url(#clip-path)">
            <line id="Line_892" data-name="Line 892" y2="4.403" transform="translate(20.162 224.47)" fill="none" stroke="#a796f2" stroke-miterlimit="10" stroke-width="2"/>
            <line id="Line_893" data-name="Line 893" y2="4.403" transform="translate(20.162 237.181)" fill="none" stroke="#a796f2" stroke-miterlimit="10" stroke-width="2"/>
            <line id="Line_894" data-name="Line 894" x1="4.514" transform="translate(24.421 233.027)" fill="none" stroke="#a796f2" stroke-miterlimit="10" stroke-width="2"/>
            <line id="Line_895" data-name="Line 895" x1="4.514" transform="translate(11.389 233.027)" fill="none" stroke="#a796f2" stroke-miterlimit="10" stroke-width="2"/>
            <line id="Line_896" data-name="Line 896" x1="2.257" y2="3.813" transform="translate(22.292 225.616)" fill="none" stroke="#a796f2" stroke-miterlimit="10" stroke-width="2"/>
            <line id="Line_897" data-name="Line 897" x1="2.257" y2="3.813" transform="translate(15.776 236.625)" fill="none" stroke="#a796f2" stroke-miterlimit="10" stroke-width="2"/>
            <line id="Line_898" data-name="Line 898" x1="3.91" y1="2.202" transform="translate(23.851 235.104)" fill="none" stroke="#a796f2" stroke-miterlimit="10" stroke-width="2"/>
            <line id="Line_899" data-name="Line 899" x1="3.91" y1="2.202" transform="translate(12.564 228.749)" fill="none" stroke="#a796f2" stroke-miterlimit="10" stroke-width="2"/>
            <line id="Line_900" data-name="Line 900" x2="2.257" y2="3.813" transform="translate(15.776 225.616)" fill="none" stroke="#a796f2" stroke-miterlimit="10" stroke-width="2"/>
            <line id="Line_901" data-name="Line 901" x2="2.257" y2="3.813" transform="translate(22.291 236.625)" fill="none" stroke="#a796f2" stroke-miterlimit="10" stroke-width="2"/>
            <line id="Line_902" data-name="Line 902" x1="3.91" y2="2.202" transform="translate(23.851 228.748)" fill="none" stroke="#a796f2" stroke-miterlimit="10" stroke-width="2"/>
            <line id="Line_903" data-name="Line 903" x1="3.91" y2="2.202" transform="translate(12.564 235.104)" fill="none" stroke="#a796f2" stroke-miterlimit="10" stroke-width="2"/>
            <line id="Line_904" data-name="Line 904" y2="4.403" transform="translate(50.974 83.338)" fill="none" stroke="#a796f2" stroke-miterlimit="10" stroke-width="2"/>
            <line id="Line_905" data-name="Line 905" y2="4.403" transform="translate(50.974 96.049)" fill="none" stroke="#a796f2" stroke-miterlimit="10" stroke-width="2"/>
            <line id="Line_906" data-name="Line 906" x1="4.514" transform="translate(55.233 91.895)" fill="none" stroke="#a796f2" stroke-miterlimit="10" stroke-width="2"/>
            <line id="Line_907" data-name="Line 907" x1="4.514" transform="translate(42.201 91.895)" fill="none" stroke="#a796f2" stroke-miterlimit="10" stroke-width="2"/>
            <line id="Line_908" data-name="Line 908" x1="2.257" y2="3.813" transform="translate(53.103 84.484)" fill="none" stroke="#a796f2" stroke-miterlimit="10" stroke-width="2"/>
            <line id="Line_909" data-name="Line 909" x1="2.257" y2="3.813" transform="translate(46.587 95.493)" fill="none" stroke="#a796f2" stroke-miterlimit="10" stroke-width="2"/>
            <line id="Line_910" data-name="Line 910" x1="3.91" y1="2.202" transform="translate(54.662 93.973)" fill="none" stroke="#a796f2" stroke-miterlimit="10" stroke-width="2"/>
            <line id="Line_911" data-name="Line 911" x1="3.91" y1="2.202" transform="translate(43.376 87.617)" fill="none" stroke="#a796f2" stroke-miterlimit="10" stroke-width="2"/>
            <line id="Line_912" data-name="Line 912" x2="2.257" y2="3.813" transform="translate(46.587 84.484)" fill="none" stroke="#a796f2" stroke-miterlimit="10" stroke-width="2"/>
            <line id="Line_913" data-name="Line 913" x2="2.257" y2="3.813" transform="translate(53.103 95.493)" fill="none" stroke="#a796f2" stroke-miterlimit="10" stroke-width="2"/>
            <line id="Line_914" data-name="Line 914" x1="3.91" y2="2.202" transform="translate(54.662 87.617)" fill="none" stroke="#a796f2" stroke-miterlimit="10" stroke-width="2"/>
            <line id="Line_915" data-name="Line 915" x1="3.91" y2="2.202" transform="translate(43.376 93.972)" fill="none" stroke="#a796f2" stroke-miterlimit="10" stroke-width="2"/>
            <line id="Line_916" data-name="Line 916" y2="4.403" transform="translate(337.082 76.982)" fill="none" stroke="#a796f2" stroke-miterlimit="10" stroke-width="2"/>
            <line id="Line_917" data-name="Line 917" y2="4.403" transform="translate(337.082 89.693)" fill="none" stroke="#a796f2" stroke-miterlimit="10" stroke-width="2"/>
            <line id="Line_918" data-name="Line 918" x1="4.514" transform="translate(341.341 85.54)" fill="none" stroke="#a796f2" stroke-miterlimit="10" stroke-width="2"/>
            <line id="Line_919" data-name="Line 919" x1="4.514" transform="translate(328.309 85.54)" fill="none" stroke="#a796f2" stroke-miterlimit="10" stroke-width="2"/>
            <line id="Line_920" data-name="Line 920" x1="2.257" y2="3.813" transform="translate(339.211 78.128)" fill="none" stroke="#a796f2" stroke-miterlimit="10" stroke-width="2"/>
            <line id="Line_921" data-name="Line 921" x1="2.257" y2="3.813" transform="translate(332.695 89.137)" fill="none" stroke="#a796f2" stroke-miterlimit="10" stroke-width="2"/>
            <line id="Line_922" data-name="Line 922" x1="3.91" y1="2.202" transform="translate(340.77 87.617)" fill="none" stroke="#a796f2" stroke-miterlimit="10" stroke-width="2"/>
            <line id="Line_923" data-name="Line 923" x1="3.91" y1="2.202" transform="translate(329.484 81.261)" fill="none" stroke="#a796f2" stroke-miterlimit="10" stroke-width="2"/>
            <line id="Line_924" data-name="Line 924" x2="2.257" y2="3.813" transform="translate(332.695 78.128)" fill="none" stroke="#a796f2" stroke-miterlimit="10" stroke-width="2"/>
            <line id="Line_925" data-name="Line 925" x2="2.257" y2="3.813" transform="translate(339.211 89.137)" fill="none" stroke="#a796f2" stroke-miterlimit="10" stroke-width="2"/>
            <line id="Line_926" data-name="Line 926" x1="3.91" y2="2.202" transform="translate(340.77 81.261)" fill="none" stroke="#a796f2" stroke-miterlimit="10" stroke-width="2"/>
            <line id="Line_927" data-name="Line 927" x1="3.91" y2="2.202" transform="translate(329.484 87.617)" fill="none" stroke="#a796f2" stroke-miterlimit="10" stroke-width="2"/>
            <line id="Line_928" data-name="Line 928" y2="4.403" transform="translate(191.049 38.165)" fill="none" stroke="#a796f2" stroke-miterlimit="10" stroke-width="2"/>
            <line id="Line_929" data-name="Line 929" y2="4.403" transform="translate(191.049 50.877)" fill="none" stroke="#a796f2" stroke-miterlimit="10" stroke-width="2"/>
            <line id="Line_930" data-name="Line 930" x1="4.514" transform="translate(195.308 46.723)" fill="none" stroke="#a796f2" stroke-miterlimit="10" stroke-width="2"/>
            <line id="Line_931" data-name="Line 931" x1="4.514" transform="translate(182.276 46.722)" fill="none" stroke="#a796f2" stroke-miterlimit="10" stroke-width="2"/>
            <line id="Line_932" data-name="Line 932" x1="2.257" y2="3.813" transform="translate(193.178 39.311)" fill="none" stroke="#a796f2" stroke-miterlimit="10" stroke-width="2"/>
            <line id="Line_933" data-name="Line 933" x1="2.257" y2="3.813" transform="translate(186.662 50.32)" fill="none" stroke="#a796f2" stroke-miterlimit="10" stroke-width="2"/>
            <line id="Line_934" data-name="Line 934" x1="3.91" y1="2.202" transform="translate(194.737 48.8)" fill="none" stroke="#a796f2" stroke-miterlimit="10" stroke-width="2"/>
            <line id="Line_935" data-name="Line 935" x1="3.91" y1="2.202" transform="translate(183.451 42.444)" fill="none" stroke="#a796f2" stroke-miterlimit="10" stroke-width="2"/>
            <line id="Line_936" data-name="Line 936" x2="2.257" y2="3.813" transform="translate(186.662 39.311)" fill="none" stroke="#a796f2" stroke-miterlimit="10" stroke-width="2"/>
            <line id="Line_937" data-name="Line 937" x2="2.257" y2="3.813" transform="translate(193.178 50.32)" fill="none" stroke="#a796f2" stroke-miterlimit="10" stroke-width="2"/>
            <line id="Line_938" data-name="Line 938" x1="3.91" y2="2.202" transform="translate(194.737 42.444)" fill="none" stroke="#a796f2" stroke-miterlimit="10" stroke-width="2"/>
            <line id="Line_939" data-name="Line 939" x1="3.91" y2="2.202" transform="translate(183.451 48.8)" fill="none" stroke="#a796f2" stroke-miterlimit="10" stroke-width="2"/>
            <line id="Line_940" data-name="Line 940" y2="4.403" transform="translate(332.269 258.018)" fill="none" stroke="#a796f2" stroke-miterlimit="10" stroke-width="2"/>
            <line id="Line_941" data-name="Line 941" y2="4.403" transform="translate(332.269 270.729)" fill="none" stroke="#a796f2" stroke-miterlimit="10" stroke-width="2"/>
            <line id="Line_942" data-name="Line 942" x1="4.514" transform="translate(336.528 266.575)" fill="none" stroke="#a796f2" stroke-miterlimit="10" stroke-width="2"/>
            <line id="Line_943" data-name="Line 943" x1="4.514" transform="translate(323.496 266.575)" fill="none" stroke="#a796f2" stroke-miterlimit="10" stroke-width="2"/>
            <line id="Line_944" data-name="Line 944" x1="2.257" y2="3.813" transform="translate(334.398 259.164)" fill="none" stroke="#a796f2" stroke-miterlimit="10" stroke-width="2"/>
            <line id="Line_945" data-name="Line 945" x1="2.257" y2="3.813" transform="translate(327.882 270.173)" fill="none" stroke="#a796f2" stroke-miterlimit="10" stroke-width="2"/>
            <line id="Line_946" data-name="Line 946" x1="3.91" y1="2.202" transform="translate(335.957 268.653)" fill="none" stroke="#a796f2" stroke-miterlimit="10" stroke-width="2"/>
            <line id="Line_947" data-name="Line 947" x1="3.91" y1="2.202" transform="translate(324.671 262.297)" fill="none" stroke="#a796f2" stroke-miterlimit="10" stroke-width="2"/>
            <line id="Line_948" data-name="Line 948" x2="2.257" y2="3.813" transform="translate(327.882 259.164)" fill="none" stroke="#a796f2" stroke-miterlimit="10" stroke-width="2"/>
            <line id="Line_949" data-name="Line 949" x2="2.257" y2="3.813" transform="translate(334.398 270.173)" fill="none" stroke="#a796f2" stroke-miterlimit="10" stroke-width="2"/>
            <line id="Line_950" data-name="Line 950" x1="3.91" y2="2.202" transform="translate(335.957 262.297)" fill="none" stroke="#a796f2" stroke-miterlimit="10" stroke-width="2"/>
            <line id="Line_951" data-name="Line 951" x1="3.91" y2="2.202" transform="translate(324.671 268.652)" fill="none" stroke="#a796f2" stroke-miterlimit="10" stroke-width="2"/>
          </g>
        </g>
      </g>
    </g>
  </g>
</svg>
