<svg xmlns="http://www.w3.org/2000/svg" xmlns:xlink="http://www.w3.org/1999/xlink" width="53.622" height="53.622" viewBox="0 0 53.622 53.622">
  <defs>
    <clipPath id="clip-path">
      <rect id="Rectangle_406220" data-name="Rectangle 406220" width="53.622" height="53.622" fill="#12263f"/>
    </clipPath>
  </defs>
  <g id="Group_1113649" data-name="Group 1113649" transform="translate(0 0)">
    <g id="Group_1113648" data-name="Group 1113648" transform="translate(0 0)" clip-path="url(#clip-path)">
      <path id="Path_905671" data-name="Path 905671" d="M53.666,16.663v4.914c-.205.6-.451,1.178-1.161,1.339-.253.057-.516.075-.772.124-.3.057-.392.194-.269.519a6.518,6.518,0,0,1,.51,1.724c.1,1.316.1,2.642.112,3.964.014,2.769.007,5.539,0,8.308,0,.412.025.755.558.828a.839.839,0,0,1,.464.379c.212.318.374.669.557,1.007v2.823a2.45,2.45,0,0,1-.153.35c-.19.3-.329.741-.6.858a7.672,7.672,0,0,1-1.841.448,9.536,9.536,0,0,1-1.3.014c-.722.009-.811.093-.812.818,0,1.878-.032,3.757.009,5.635a2.685,2.685,0,0,1-1.056,2.416,3.842,3.842,0,0,1-.979.355c-.161.057-.317.126-.476.189H42.272c-.143-.05-.289-.093-.428-.151-.633-.266-1.357-.442-1.612-1.182a4.448,4.448,0,0,1-.247-1.377q-.038-3.056,0-6.112c.008-.5-.153-.6-.624-.6q-12.457.021-24.915,0c-.531,0-.63.171-.624.656.026,2.054.04,4.111,0,6.164-.018.961-.2,1.894-1.344,2.217a8.2,8.2,0,0,0-.941.391H7.358c-.159-.063-.315-.132-.477-.189-.365-.126-.827-.148-1.078-.39a2.8,2.8,0,0,1-.959-2.16c.05-1.967.018-3.937.012-5.9,0-.662-.1-.757-.759-.768a5.921,5.921,0,0,1-3.006-.386,2.49,2.49,0,0,1-.739-.792c-.088-.129.042-.388-.016-.557a5.8,5.8,0,0,1,0-3.041,1.622,1.622,0,0,1,.788-1.077c.564-.23.608-.56.608-1.042-.008-3.606-.032-7.212.016-10.818a12.211,12.211,0,0,1,.432-2.713c.177-.718.245-.7-.481-.874C.519,22.684.191,22.307.17,21.1c-.022-1.237-.038-2.475.01-3.71a3.173,3.173,0,0,1,.359-1.377,1.525,1.525,0,0,1,1.479-.7c.8.019,1.6.008,2.4-.01.333-.008.589-.093.606-.539.043-1.159.127-2.316.215-3.473a23.426,23.426,0,0,0,.241-2.949A10.8,10.8,0,0,1,6.8,3.267a.847.847,0,0,1,.191-.246c.379-.365.745-.746,1.149-1.081.3-.247.683-.391.961-.653a4.723,4.723,0,0,1,2.622-1A15.89,15.89,0,0,1,14.376.163c5.051-.01,10.1-.019,15.152,0,3.986.015,7.971.048,11.956.13A8.628,8.628,0,0,1,43.8.764c.424.131.759.524,1.173.715a5.782,5.782,0,0,1,1.871,1.575,2.318,2.318,0,0,1,.3.592,3.129,3.129,0,0,0,.282.666,4.421,4.421,0,0,1,.8,2.5c.131,1.6.272,3.2.4,4.807.077.986.165,1.973.186,2.961.012.572.065.713.654.728.784.018,1.567,0,2.351.013a1.305,1.305,0,0,1,1.272.547c.169.28.383.533.577.8M26.927,42.806H50.757c.226,0,.453-.007.679,0a.578.578,0,0,0,.672-.664c-.007-.592.007-1.184,0-1.777-.009-.675-.123-.8-.795-.8-1.533-.009-3.066,0-4.6-.005a9.2,9.2,0,0,1-.991-.035.5.5,0,0,1-.511-.582c.028-.688.111-.818.812-.828,1.289-.016,2.578,0,3.867-.012.627,0,.734-.109.739-.733q.013-1.646,0-3.293c0-.689-.1-.784-.792-.787-1.376-.006-2.753-.032-4.128.005a4.935,4.935,0,0,1-2.694-1.117c-.159-.1-.238-.333-.34-.512s-.166-.387-.284-.555a2.345,2.345,0,0,1-.42-2.268,4.773,4.773,0,0,1,1.188-2.029,4.307,4.307,0,0,1,3.023-1.067,33.515,33.515,0,0,0,3.656,0c.224-.007.614-.2.633-.348a2.575,2.575,0,0,0-.577-2.223c-.582-.614-1.181-1.212-1.787-1.8a2.035,2.035,0,0,0-.658-.477,8.951,8.951,0,0,0-3.193-.6q-17.351.047-34.7.019a4.23,4.23,0,0,0-.73,0,11.476,11.476,0,0,0-2.26.487,4.42,4.42,0,0,0-1.518,1.125A6.617,6.617,0,0,0,3.37,24.137c-.383,1.1-.079,1.627,1.047,1.628q1.88,0,3.762,0a4.032,4.032,0,0,1,2.537,1.075,4.323,4.323,0,0,1,1.1,1.848c.506,1.4-.309,2.469-1.058,3.523-.091.127-.292.178-.445.259a2.1,2.1,0,0,0-.46.238,2.459,2.459,0,0,1-1.794.57c-1.358,0-2.718,0-4.077,0-.7,0-.793.1-.8.78-.007.941,0,1.882,0,2.823,0,1.213,0,1.213,1.206,1.213H41.225a1.728,1.728,0,0,1,.772.043,3.935,3.935,0,0,1,.741.705,3.493,3.493,0,0,1-.733.66,2.013,2.013,0,0,1-.824.044H3.135c-.244,0-.488.009-.732,0-.474-.012-.712.2-.7.688.011.627.009,1.254,0,1.882-.005.456.2.679.662.674.226,0,.453,0,.679,0H26.927m-.063-23.942H43.378c.209,0,.418-.006.627-.007a.493.493,0,0,0,.56-.587c-.095-1.47-.183-2.942-.3-4.411-.119-1.5-.242-3.008-.415-4.506-.138-1.184-.324-2.366-.55-3.536a1.189,1.189,0,0,0-1.135-.93,11.345,11.345,0,0,0-1.3-.051q-13.953,0-27.907,0c-.435,0-.872.006-1.3.049a1.253,1.253,0,0,0-1.111.83,6.691,6.691,0,0,0-.365,1.358c-.107.737-.13,1.487-.218,2.227-.078.663-.192,1.322-.3,1.982-.049.3-.225.593-.54.5a1.154,1.154,0,0,1-.643-.572,1.879,1.879,0,0,1-.016-.872c.052-.6.171-1.2.184-1.807a6.287,6.287,0,0,1,.435-2.539A3.8,3.8,0,0,1,10.76,3.835a6.371,6.371,0,0,1,2.894-.528Q25.988,3.276,38.321,3.3c1.042,0,2.085.065,3.126.114,2.383.111,3.147,1.649,3.579,3.506a26.638,26.638,0,0,1,.381,3.964c.074.952.1,1.907.175,2.86.1,1.3.194,2.595.329,3.889.075.715-.04,1.587,1.042,1.7.015,0,.029.025.044.026a1.6,1.6,0,0,0,.675,0c.107-.05.136-.365.122-.554-.116-1.567-.252-3.133-.378-4.7-.08-1-.15-2-.23-3.006-.092-1.14-.181-2.28-.289-3.419a7.229,7.229,0,0,0-.275-2c-.371-.916-.579-1.963-1.574-2.538-.435-.252-.741-.719-1.163-1a2.441,2.441,0,0,0-1.065-.38A19.4,19.4,0,0,0,40.784,1.7q-14.763,0-29.527.009a1.838,1.838,0,0,0-1.041.273C9.4,2.59,8.644,3.272,7.874,3.937c-.08.069-.085.222-.129.334-.153.388-.321.77-.456,1.163A4.78,4.78,0,0,0,7.01,6.468c-.075.741-.078,1.489-.14,2.231-.11,1.308-.252,2.614-.363,3.922-.179,2.091-.341,4.184-.519,6.276-.028.333.086.628.421.565a6.7,6.7,0,0,0,1.338-.493c.053-.022.056-.188.062-.289.036-.658.048-1.317.1-1.973A11.75,11.75,0,0,1,8.172,14.8a.939.939,0,0,1,.635-.6.6.6,0,0,1,.687.621c-.068.986-.125,1.972-.217,2.955s-.02,1.093.968,1.093q8.31,0,16.619,0M12.41,48.3h-.024c0-1.08,0-2.161,0-3.241,0-.7-.1-.8-.779-.8q-2.247-.01-4.494,0c-.7,0-.8.1-.8.782q-.008,2.9,0,5.8a3.123,3.123,0,0,0,.13.818.626.626,0,0,0,.7.477c1.568-.018,3.135-.012,4.7,0,.4,0,.566-.138.56-.549-.016-1.1-.005-2.2-.005-3.292m29.015-.069h-.013c0,1.062.009,2.124,0,3.185-.007.637.032.7.655.7,1.531.005,3.063,0,4.594.021a.627.627,0,0,0,.7-.477,2.819,2.819,0,0,0,.129-.766q.017-2.95,0-5.9c0-.625-.111-.732-.735-.735q-2.3-.011-4.594,0c-.625,0-.733.112-.737.733-.008,1.079,0,2.158,0,3.237m6.282-16.383v-.027c.748,0,1.5-.011,2.243,0,.489.01.692-.207.686-.69-.012-1.044,0-2.087,0-3.131,0-.689-.1-.784-.789-.788-1.391-.009-2.784-.052-4.173.009a7.506,7.506,0,0,0-1.728.441.424.424,0,0,0-.228.267,9.811,9.811,0,0,0-.414,1.793,2.163,2.163,0,0,0,2.112,2.123c.765-.007,1.53,0,2.3,0m-41.4-.026c.948-.105,2.107.234,3.212-.3.346-.165.6-.317.674-.705a4.623,4.623,0,0,1,.173-.491c.457-1.434-.13-3.035-1.869-3.126-1.563-.082-3.134.006-4.7.011-.447,0-.622.221-.62.648.006,1.1.011,2.2,0,3.293-.006.5.236.678.708.669.749-.014,1.5,0,2.426,0M1.7,19.276H1.691c0,.643-.009,1.287.007,1.93a.744.744,0,0,0,.143.469,1.907,1.907,0,0,0,1.622-.137c.281-.307.569-.611.828-.936A1.245,1.245,0,0,0,4.6,20.02c.077-.859.1-1.721.154-2.582.028-.461-.178-.677-.643-.67-.573.009-1.148.011-1.721,0-.479-.011-.7.191-.691.684.017.608.005,1.217.005,1.825m50.418.053h-.014c0-.643-.007-1.285,0-1.928.007-.441-.2-.635-.633-.631-.573,0-1.146-.01-1.719,0-.608.013-.7.146-.654.774.055.74.07,1.483.135,2.222a1.785,1.785,0,0,0,.226.755c.149.246.45.4.586.655.367.675.968.631,1.584.6a.444.444,0,0,0,.49-.523c-.014-.643,0-1.285,0-1.928" transform="translate(-0.043 -0.052)" fill="#12263f"/>
      <path id="Path_905684" data-name="Path 905684" d="M35.527,39.038c2.071,0,4.143.007,6.215,0a2.925,2.925,0,0,1,1.717.515,3.522,3.522,0,0,0,.471.217,2.212,2.212,0,0,1,.413.214,3.55,3.55,0,0,1,1.132,3.768,4.011,4.011,0,0,1-1.717,2.177,5.39,5.39,0,0,1-2.727.633c-3.847-.006-7.695-.036-11.541.018a4.153,4.153,0,0,1-2.842-1.1,5.027,5.027,0,0,1-1.155-2.053,2.363,2.363,0,0,1,.471-2.258c.111-.151.155-.35.254-.512.125-.2.232-.477.421-.576a5.762,5.762,0,0,1,2.987-1.061c1.964.085,3.933.023,5.9.023M35.5,40.466v.018c-2.09,0-4.182-.032-6.271.02a7.166,7.166,0,0,0-1.733.433.438.438,0,0,0-.236.263c-.195.621-.607,1.214-.429,1.895a3.068,3.068,0,0,0,.635,1.487,2.582,2.582,0,0,0,1.587.516q6.375.054,12.752-.008a7.1,7.1,0,0,0,1.741-.419.414.414,0,0,0,.246-.252,9.287,9.287,0,0,0,.429-1.9,2.192,2.192,0,0,0-2.085-2.053q-3.318,0-6.637,0" transform="translate(-8.666 -13.326)" fill="#12263f"/>
    </g>
  </g>
</svg>
