<svg xmlns="http://www.w3.org/2000/svg" width="54.356" height="61.607" viewBox="0 0 54.356 61.607">
  <g id="Group_1113656" data-name="Group 1113656" transform="translate(-3.614 0)">
    <path id="Path_905737" data-name="Path 905737" d="M42.369,0a3,3,0,0,1,1.879,1.518,7,7,0,0,1,.329,1.564,4.987,4.987,0,0,1,.006.756c.443,0,.821-.011,1.2,0a2.76,2.76,0,0,1,2.745,2.7c.013.24.011.481.011.721V34.514c1.04,0,2.036-.027,3.03.009a11.447,11.447,0,0,1,2.556.229,5.869,5.869,0,0,1,4.339,5.679c.025.661.017,1.323,0,1.985s-.406,1.1-.947,1.093-.9-.445-.923-1.121a18.54,18.54,0,0,0-.159-2.986,3.92,3.92,0,0,0-3.876-3.063q-7.672-.013-15.343,0a3.984,3.984,0,0,0-4.008,3.822c-.075,2.424-.033,4.853-.036,7.279,0,2.627.056,5.256-.017,7.881a4.267,4.267,0,0,0,4.508,4.493c4.874-.053,9.747-.011,14.621-.018a4.1,4.1,0,0,0,4.21-3.218,5.187,5.187,0,0,0,.1-1.191c.008-2.707,0-5.414,0-8.122a3.074,3.074,0,0,1,.017-.54.921.921,0,0,1,1.833-.028,2.558,2.558,0,0,1,.022.479c0,2.768.013,5.535,0,8.3A5.932,5.932,0,0,1,54.1,61.385a6.011,6.011,0,0,1-1.6.21q-7.612.022-15.223.008a5.938,5.938,0,0,1-5.959-5.761c-.014-.379,0-.761,0-1.225H11.472c-2.286,0-3.364-1.079-3.38-3.386,0-.135,0-.271,0-.481a11,11,0,0,1-1.525-.011A2.876,2.876,0,0,1,4.13,47.773c-.012-1.845,0-3.69,0-5.535q0-13.234,0-26.47a3.233,3.233,0,0,1,.025-.659.875.875,0,0,1,.907-.791.872.872,0,0,1,.911.785A3.16,3.16,0,0,1,6,15.762q0,15.853,0,31.7c0,1.218.256,1.473,1.477,1.473H31.311v-.675c0-2.547-.006-5.094,0-7.641a5.924,5.924,0,0,1,4.9-6.016,10.178,10.178,0,0,1,1.917-.093c1.519-.011,3.038,0,4.608,0V3.252c0-1.152-.3-1.447-1.456-1.447H16.152c-.011.191-.031.362-.031.534,0,2.166,0,4.331,0,6.5a2.862,2.862,0,0,1-3.067,3.076c-2.567,0-5.135-.005-7.7.005-.493,0-.92-.057-1.133-.578s.077-.87.417-1.209q4.814-4.8,9.625-9.6c.18-.18.369-.351.553-.526H42.369m4.338,34.494V6.874a2.292,2.292,0,0,0-.005-.3.959.959,0,0,0-.887-.906,9.739,9.739,0,0,0-1.2-.01V34.494ZM31.283,50.813H9.976c-.063,1.843.056,1.966,1.861,1.966H31.283ZM14.252,3.3l-6.79,6.8c1.863,0,3.782.011,5.7-.006a.981.981,0,0,0,1.086-1.084c.015-1.9.005-3.8.005-5.712" transform="translate(-0.51 0)" fill="#12263f"/>
    <path id="Path_905738" data-name="Path 905738" d="M21.93,15.1c0-2.226.05-4.453-.017-6.677a2.617,2.617,0,0,1,2.712-2.682c4.451.065,8.905.024,13.357.025A2.443,2.443,0,0,1,40.594,8.4q0,6.707,0,13.414a2.442,2.442,0,0,1-2.584,2.6q-6.769,0-13.538,0A2.413,2.413,0,0,1,21.935,21.9c-.014-2.265,0-4.531,0-6.8m14.506,7.509c.5,0,.955,0,1.409,0,.706-.009.932-.229.933-.938q.005-6.589,0-13.175c0-.7-.229-.925-.94-.925q-6.589,0-13.177,0c-.7,0-.913.222-.914.944q0,2.316,0,4.632c0,2.847.005,5.695-.005,8.541,0,.453.1.842.59.895a16.96,16.96,0,0,0,1.76.014c-.174-2.508-.135-4.879,2.318-6.047-.075-.988-.186-1.847-.2-2.71a3.048,3.048,0,0,1,6-.755,4.936,4.936,0,0,1-.288,3.369c2.64,1.276,2.691,3.641,2.514,6.156m-8.488-.042H34.6c0-.8.016-1.565,0-2.326a2.177,2.177,0,0,0-1.779-2.187,12.472,12.472,0,0,0-3.094,0,2.1,2.1,0,0,0-1.762,1.94c-.051.852-.011,1.71-.011,2.575m2.06-8.243h.012a4.566,4.566,0,0,0,.005.657,1.3,1.3,0,0,0,1.211,1.128,1.24,1.24,0,0,0,1.24-1.077,5.07,5.07,0,0,0,.027-1.193,1.274,1.274,0,0,0-1.245-1.216A1.3,1.3,0,0,0,30.01,13.9c-.011.138,0,.28,0,.418" transform="translate(-2.708 -0.71)" fill="#12263f"/>
    <path id="Path_905739" data-name="Path 905739" d="M47.823,53.945c1.681-1.681,3.422-3.339,5.062-5.092a2.319,2.319,0,0,1,3.761.029c.347.413.773.757,1.134,1.159a2.011,2.011,0,0,1-.016,2.825q-4.014,4.062-8.08,8.073a2.909,2.909,0,0,1-4.079-.016c-1.443-1.359-2.838-2.773-4.214-4.2a2.051,2.051,0,0,1,.032-2.877q.78-.835,1.615-1.615a2.074,2.074,0,0,1,2.968.02c.579.551,1.145,1.118,1.717,1.677.012.011.039.008.1.018m-3.276-.675c-.613.633-1.1,1.166-1.618,1.656-.323.3-.263.5.022.783,1.258,1.235,2.494,2.493,3.748,3.733a1.237,1.237,0,0,0,1.9,0c2.543-2.529,5.073-5.073,7.616-7.6.288-.286.328-.507.014-.79s-.6-.59-.9-.887c-.564-.562-.564-.563-1.109-.018q-2.807,2.8-5.613,5.609c-.636.635-1.036.632-1.683,0-.216-.209-.431-.42-.638-.637-.561-.592-1.117-1.188-1.744-1.854" transform="translate(-5.045 -5.921)" fill="#12263f"/>
    <path id="Path_905740" data-name="Path 905740" d="M25.214,34.8q-6.342,0-12.683,0c-.746,0-1.095-.234-1.167-.759a.907.907,0,0,1,.8-1.067,3.822,3.822,0,0,1,.54-.012H37.892c.706.012,1.16.393,1.142.955-.018.536-.445.883-1.137.883q-6.342.005-12.683,0" transform="translate(-1.403 -4.073)" fill="#12263f"/>
    <path id="Path_905741" data-name="Path 905741" d="M19.429,40H12.693a4.818,4.818,0,0,1-.54-.015.816.816,0,0,1-.8-.818.877.877,0,0,1,.71-.971,1.44,1.44,0,0,1,.418-.023q6.916,0,13.833,0a1.585,1.585,0,0,1,.419.017.884.884,0,0,1,.746.948.822.822,0,0,1-.838.847c-.72.028-1.443.015-2.165.016H19.429" transform="translate(-1.403 -4.717)" fill="#12263f"/>
    <path id="Path_905742" data-name="Path 905742" d="M19.366,50.412c-2.345,0-4.691,0-7.036,0a.863.863,0,0,1-.947-.656.838.838,0,0,1,.465-1.054,1.236,1.236,0,0,1,.518-.1q7.036-.008,14.072,0a.928.928,0,0,1,1.053.895c.009.559-.4.912-1.089.913q-3.518.007-7.036,0" transform="translate(-1.402 -6.007)" fill="#12263f"/>
    <path id="Path_905743" data-name="Path 905743" d="M15.837,45.205c-1.141,0-2.283.005-3.424,0-.71,0-1.074-.331-1.061-.925.011-.553.394-.889,1.05-.89q3.425-.008,6.848,0c.673,0,1.083.372,1.068.939s-.382.873-1.057.877c-1.141.007-2.283,0-3.424,0" transform="translate(-1.403 -5.362)" fill="#12263f"/>
    <path id="Path_905744" data-name="Path 905744" d="M12.159,26.461c-.235-.189-.578-.335-.674-.578a1.083,1.083,0,0,1,.051-.932c1.018-1.1,2.082-2.152,3.167-3.183a.782.782,0,0,1,1.175.108.809.809,0,0,1,.045,1.188c-1.006,1.054-2.046,2.075-3.091,3.093a2.516,2.516,0,0,1-.673.3" transform="translate(-1.41 -2.663)" fill="#12263f"/>
    <path id="Path_905745" data-name="Path 905745" d="M26.695,45.2c-.5,0-1,.016-1.5,0a.9.9,0,0,1-.894-.869.912.912,0,0,1,.9-.933q1.5-.033,3.008,0A.9.9,0,0,1,28.2,45.2c-.039,0-.08,0-.12,0H26.695v0" transform="translate(-3.003 -5.361)" fill="#12263f"/>
  </g>
</svg>
