<svg xmlns="http://www.w3.org/2000/svg" xmlns:xlink="http://www.w3.org/1999/xlink" width="56.754" height="54" viewBox="0 0 56.754 54">
  <defs>
    <clipPath id="clip-path">
      <rect id="Rectangle_406225" data-name="Rectangle 406225" width="56.754" height="54" fill="#12263f"/>
    </clipPath>
  </defs>
  <g id="Group_1113653" data-name="Group 1113653" transform="translate(0 0)">
    <g id="Group_1113652" data-name="Group 1113652" transform="translate(0 0)" clip-path="url(#clip-path)">
      <path id="Path_905717" data-name="Path 905717" d="M55.883,54.017H0V52.543a1.673,1.673,0,0,1,1.571-.64,11.6,11.6,0,0,0,1.269.009H5.065V46.519c-.333,0-.643,0-.951,0A4.015,4.015,0,0,1,.738,44.96,10.385,10.385,0,0,1,0,43.6V4.437a1.833,1.833,0,0,0,.178-.353A5.719,5.719,0,0,1,5.892.1C13.065.163,20.24.121,27.414.121q11.923,0,23.846,0c2.81,0,5.385,2.364,5.388,4.987q.022,18.867,0,37.737A3.572,3.572,0,0,1,53.9,46.314,17.645,17.645,0,0,1,51.6,46.6v5.314c1.318,0,2.606-.007,3.894,0a1.074,1.074,0,0,1,1.167,1.122c-.025.5-.4.734-.773.979m-11.4-24.748c0,1.375,0,2.705,0,4.036a1.112,1.112,0,1,1-2.212,0q-.005-2.395,0-4.788c0-1.044.394-1.425,1.489-1.426q3.153,0,6.307,0c1.1,0,1.5.378,1.5,1.414q0,7.631,0,15.261v.587h.881c1.409,0,2-.57,2-1.928V9.836H2.213v32.7a2.884,2.884,0,0,0,.013.367,1.59,1.59,0,0,0,1.66,1.444c.383.011.767,0,1.2,0,0-.935,0-1.842,0-2.749,0-.889.406-1.271,1.345-1.272q3.291,0,6.583,0c.982,0,1.365.367,1.366,1.3q0,4.868,0,9.736v.513h3.1v-21.8c0-1.037.4-1.415,1.5-1.415q3.153,0,6.307,0c1.094,0,1.489.382,1.49,1.425V51.874h3.1c0-4.352,0-8.667,0-12.982,0-.928.391-1.295,1.375-1.3q3.265,0,6.529,0c1.008,0,1.39.367,1.391,1.333q0,6.21,0,12.42v.526h3.1V46.841c0-2.053,0-4.105,0-6.157a1.059,1.059,0,0,1,.7-1.085,1.093,1.093,0,0,1,1.515,1.117q.007,5.315,0,10.63v.529h4.84V29.269ZM2.261,7.67h52.18c0-.783.037-1.537-.007-2.287-.117-1.968-1.524-3.156-3.7-3.156H5.92c-.074,0-.148,0-.221,0A3.212,3.212,0,0,0,2.28,5.077,19.985,19.985,0,0,0,2.261,7.67M24.525,30.847h-4.8V51.9h4.8Zm7.6,21.034h4.8V39.714h-4.8ZM12.141,42.468H7.335V51.9h4.806Z" transform="translate(0 -0.017)" fill="#12263f"/>
      <path id="Path_905721" data-name="Path 905721" d="M25.344,6.457q6.113.017,12.225.008m-30.01,0A1.084,1.084,0,0,0,8.653,5.43,1.106,1.106,0,0,0,6.445,5.4,1.08,1.08,0,0,0,7.559,6.463m4.415-2.1a1.086,1.086,0,0,0-1.1,1.026,1.106,1.106,0,0,0,2.209.05,1.079,1.079,0,0,0-1.106-1.075m4.446,2.1a1.083,1.083,0,0,0,1.087-1.041A1.106,1.106,0,0,0,15.3,5.4a1.082,1.082,0,0,0,1.122,1.06" transform="translate(-0.467 -0.466)" fill="#12263f"/>
      <path id="Path_905735" data-name="Path 905735" d="M0,21.051Z" transform="translate(19.729 30.831)" fill="#12263f"/>
      <path id="Path_905722" data-name="Path 905722" d="M37.21,30.436c2.378-2.264,4.72-4.5,7.074-6.725.221-.21.192-.347.054-.578A3.634,3.634,0,0,1,45.4,18.207a4.136,4.136,0,0,1,5.114.271,3.648,3.648,0,0,1,.606,4.841A4.061,4.061,0,0,1,46.777,24.9a.686.686,0,0,0-.771.169q-3.449,3.3-6.917,6.592c-.168.159-.307.268-.174.567a3.657,3.657,0,0,1-1.348,4.659,4.142,4.142,0,0,1-4.861-.239,3.638,3.638,0,0,1-.914-4.71c.023-.045.038-.093.071-.176q-1.186-1.124-2.38-2.257c-1.618-1.538-3.239-3.07-4.847-4.618a.576.576,0,0,0-.75-.152,3.76,3.76,0,0,1-2.843.061.6.6,0,0,0-.719.151q-2.981,2.858-5.985,5.692a.481.481,0,0,0-.137.658,3.816,3.816,0,0,1-3.655,5.261,3.783,3.783,0,0,1-.554-7.546,4.705,4.705,0,0,1,2.156.265.657.657,0,0,0,.546-.1c2.008-1.885,4-3.79,6-5.681a.412.412,0,0,0,.112-.58,3.707,3.707,0,0,1,1.916-5.133A4.053,4.053,0,0,1,25.956,19.6a3.614,3.614,0,0,1-.078,3.488c2.479,2.354,4.942,4.7,7.421,7.028a.683.683,0,0,0,.563.115,4.257,4.257,0,0,1,3.348.206M47.764,19.563a1.68,1.68,0,1,0,1.784,1.659,1.77,1.77,0,0,0-1.784-1.659m-10.716,14.2A1.765,1.765,0,1,0,35.3,35.452a1.771,1.771,0,0,0,1.752-1.689M10.572,31.116a1.653,1.653,0,1,0-.085,3.3,1.653,1.653,0,1,0,.085-3.3m13.54-9.853a1.739,1.739,0,1,0-1.763,1.655,1.722,1.722,0,0,0,1.763-1.655" transform="translate(-0.864 -3.036)" fill="#12263f"/>
      <path id="Path_905723" data-name="Path 905723" d="M9.628,18.295c-.827,0-1.655,0-2.482,0-.8,0-1.285-.416-1.278-1.065.007-.627.49-1.039,1.25-1.041q2.51-.007,5.02,0c.76,0,1.243.414,1.251,1.04.007.649-.481,1.061-1.278,1.066-.827,0-1.655,0-2.482,0" transform="translate(-0.775 -2.819)" fill="#12263f"/>
      <path id="Path_905724" data-name="Path 905724" d="M9.628,24.413c-.827,0-1.656,0-2.483,0-.8,0-1.285-.416-1.277-1.065.007-.627.489-1.038,1.249-1.041q2.51-.007,5.02,0c.76,0,1.243.414,1.25,1.041.008.649-.481,1.06-1.278,1.065-.827,0-1.655,0-2.481,0" transform="translate(-0.775 -3.884)" fill="#12263f"/>
      <path id="Path_905725" data-name="Path 905725" d="M18.934,17.249a1.057,1.057,0,0,1-1.075,1.042,1.055,1.055,0,1,1,.016-2.1,1.056,1.056,0,0,1,1.059,1.06" transform="translate(-2.207 -2.82)" fill="#12263f"/>
      <path id="Path_905726" data-name="Path 905726" d="M50.915,44.876a1.106,1.106,0,0,1-2.21-.043,1.107,1.107,0,0,1,2.21.043" transform="translate(-6.431 -7.629)" fill="#12263f"/>
      <path id="Path_905727" data-name="Path 905727" d="M40.671,6.819q-6.113,0-12.225-.007a2.13,2.13,0,0,1-.891-.183.893.893,0,0,1-.5-1.07A1.044,1.044,0,0,1,28,4.725a3.564,3.564,0,0,1,.5-.011H52.786c.148,0,.3-.007.442,0a1.048,1.048,0,0,1,0,2.094c-.165.013-.332.006-.5.006H40.671" transform="translate(-3.569 -0.821)" fill="#12263f"/>
      <path id="Path_905728" data-name="Path 905728" d="M8,6.819A1.08,1.08,0,0,1,6.888,5.751,1.106,1.106,0,0,1,9.1,5.786,1.083,1.083,0,0,1,8,6.819" transform="translate(-0.91 -0.822)" fill="#12263f"/>
      <path id="Path_905729" data-name="Path 905729" d="M13.09,4.717A1.08,1.08,0,0,1,14.2,5.793a1.106,1.106,0,0,1-2.209-.05,1.086,1.086,0,0,1,1.1-1.026" transform="translate(-1.583 -0.822)" fill="#12263f"/>
      <path id="Path_905730" data-name="Path 905730" d="M18.209,6.819a1.082,1.082,0,0,1-1.122-1.06,1.106,1.106,0,0,1,2.209.018,1.083,1.083,0,0,1-1.087,1.041" transform="translate(-2.256 -0.822)" fill="#12263f"/>
    </g>
  </g>
</svg>
