<svg xmlns="http://www.w3.org/2000/svg" width="420" height="393.001" viewBox="0 0 420 393.001">
  <g id="Group_1115796" data-name="Group 1115796" transform="translate(-999.507 -794.985)">
    <path id="Rectangle_407549" data-name="Rectangle 407549" d="M0,0H400a20,20,0,0,1,20,20V373a20,20,0,0,1-20,20H0a0,0,0,0,1,0,0V0A0,0,0,0,1,0,0Z" transform="translate(999.507 794.985)" fill="#e2dacc"/>
    <g id="_6203967" data-name="6203967" transform="translate(1000 846.752)" style="isolation: isolate">
      <g id="BACKGROUND" transform="translate(20 0)">
        <rect id="Rectangle_404722" data-name="Rectangle 404722" width="390.042" height="341.234" fill="none"/>
      </g>
      <g id="OBJECTS" transform="translate(20 0)">
        <g id="Group_1112763" data-name="Group 1112763" transform="translate(4.554)">
          <g id="Group_1112761" data-name="Group 1112761">
            <path id="Path_903857" data-name="Path 903857" d="M26.006,64.86c-42.576,46,24.877,73.469,31.389,115.669s-60.615,86.359-38.3,132.654,80.354,43.161,121.223,20.252,79.953-32.481,119.639-13.345S363.6,331.343,363.007,285.767s-52.117-80.472-15.992-127.178S394.9,65.616,353.558,51.236c-45.04-15.672-75.835,54.245-126.77,48.828C177.22,94.787,97.291-12.162,26.006,64.86Z" transform="translate(-12 -37.069)" fill="#f3f0ea"/>
            <path id="Path_903858" data-name="Path 903858" d="M238.47,229.609C220.7,188.547,183.981,159.857,159.1,123.293c-16.062-24.735-16.95-49.544-12.013-74.514-8.405-3.419-16.865-7.426-25.665-8.879-15.892,19.87-25.742,43.116-16.811,70.457,10.066,31.5,30.794,58.5,46.2,87.752,10.661,21.94,17.174,45.567,9.479,69.752-6.513,19.687-23.1,30.378-39.092,43.879-10.066,9-20.728,20.252-21.323,34.311a28.465,28.465,0,0,0,.023,4.219c20.411.316,42.12-5.951,60.391-16.194,22.35-12.525,44.167-21.045,65.846-23.084,18.5-25.535,25.827-50.425,12.338-81.39Z" transform="translate(-31.971 -37.713)" fill="#f3f0ea" style="mix-blend-mode: multiply;isolation: isolate"/>
          </g>
          <g id="Group_1112762" data-name="Group 1112762" transform="translate(19.114 21.362)">
            <path id="Path_903859" data-name="Path 903859" d="M61.609,101.9a2.814,2.814,0,0,1-2.812,2.82H39.56a2.821,2.821,0,0,1-2.82-2.82h0a2.821,2.821,0,0,1,2.82-2.82H58.8a2.814,2.814,0,0,1,2.812,2.82Z" transform="translate(-36.74 -72.535)" fill="#fff"/>
            <path id="Path_903860" data-name="Path 903860" d="M452.118,97.809a6.9,6.9,0,1,0-6.9,6.9A6.9,6.9,0,0,0,452.118,97.809Z" transform="translate(-128.074 -70.677)" fill="#fff"/>
            <path id="Path_903861" data-name="Path 903861" d="M181.742,140.449H136.469a1.259,1.259,0,0,1,0-2.519h45.272a1.259,1.259,0,0,1,0,2.519Zm-45.272-2.132a.873.873,0,0,0,0,1.746h45.272a.873.873,0,1,0,0-1.746Z" transform="translate(-59.136 -81.371)" fill="#90b4fe"/>
            <path id="Path_903862" data-name="Path 903862" d="M91.748,89.919H57.739a1.259,1.259,0,0,1,0-2.519H91.748a1.259,1.259,0,1,1,0,2.519Zm-34.008-2.14a.873.873,0,1,0,0,1.746H91.748a.873.873,0,1,0,0-1.746Z" transform="translate(-41.23 -69.878)" fill="#90b4fe"/>
            <path id="Path_903863" data-name="Path 903863" d="M367.66,449.519h-34a1.259,1.259,0,0,1,0-2.519h34a1.259,1.259,0,0,1,0,2.519Zm-34-2.14a.873.873,0,0,0,0,1.746h34a.873.873,0,0,0,0-1.746Z" transform="translate(-103.984 -168.074)" fill="#90b4fe"/>
            <path id="Path_903864" data-name="Path 903864" d="M390.467,418.05a2.821,2.821,0,0,1-2.82,2.82H368.41a2.821,2.821,0,0,1-2.82-2.82h0a2.816,2.816,0,0,1,2.82-2.82h19.237a2.821,2.821,0,0,1,2.82,2.82Z" transform="translate(-111.532 -160.848)" fill="#fff"/>
            <path id="Path_903865" data-name="Path 903865" d="M429.593,443.082H410.356a3.206,3.206,0,1,1,0-6.412h19.237a3.206,3.206,0,1,1,0,6.412Zm-19.237-5.632a2.434,2.434,0,1,0,0,4.867h19.237a2.434,2.434,0,0,0,0-4.867Z" transform="translate(-120.985 -165.724)" fill="#90b4fe"/>
            <path id="Path_903866" data-name="Path 903866" d="M404.669,395.046h-1.846V393.2a.583.583,0,0,0-1.167,0v1.846h-1.846a.583.583,0,0,0,0,1.167h1.846v1.846a.579.579,0,0,0,.579.579.59.59,0,0,0,.587-.579v-1.846h1.846a.585.585,0,0,0,.587-.579A.592.592,0,0,0,404.669,395.046Z" transform="translate(-119.183 -155.706)" fill="#90b4fe"/>
            <path id="Path_903867" data-name="Path 903867" d="M111.779,191.916h-1.846v-1.846a.579.579,0,0,0-1.159,0v1.846h-1.846a.579.579,0,1,0,0,1.159h1.846v1.846a.579.579,0,1,0,1.159,0v-1.846h1.846a.579.579,0,1,0,0-1.159Z" transform="translate(-52.57 -98.517)" fill="#90b4fe"/>
            <path id="Path_903868" data-name="Path 903868" d="M341.551,414.766H339.7v-1.846a.579.579,0,0,0-1.159,0v1.846H336.7a.579.579,0,0,0,0,1.159h1.846v1.846a.579.579,0,0,0,1.159,0v-1.846h1.846a.579.579,0,0,0,0-1.159Z" transform="translate(-104.83 -160.191)" fill="#90b4fe"/>
            <path id="Path_903869" data-name="Path 903869" d="M84.751,105.416H82.9v-1.846a.579.579,0,0,0-1.159,0v1.846H79.9a.583.583,0,0,0,0,1.167h1.846v1.846a.579.579,0,0,0,1.159,0v-1.846h1.846a.585.585,0,0,0,.587-.579A.592.592,0,0,0,84.751,105.416Z" transform="translate(-46.424 -73.424)" fill="#90b4fe"/>
            <path id="Path_903870" data-name="Path 903870" d="M82.731,67.146H80.885V65.3a.579.579,0,0,0-1.159,0v1.846H77.879a.583.583,0,0,0,0,1.167h1.846v1.846a.579.579,0,0,0,1.159,0V68.312h1.846a.579.579,0,0,0,.579-.579A.59.59,0,0,0,82.731,67.146Z" transform="translate(-45.965 -64.72)" fill="#90b4fe"/>
            <path id="Path_903871" data-name="Path 903871" d="M443.586,401.581a3.106,3.106,0,1,1,3.106-3.106A3.106,3.106,0,0,1,443.586,401.581Zm0-5.825a2.719,2.719,0,1,0,2.719,2.719A2.723,2.723,0,0,0,443.586,395.756Z" transform="translate(-128.565 -156.331)" fill="#90b4fe"/>
            <path id="Path_903872" data-name="Path 903872" d="M135.856,191.8a3.106,3.106,0,1,1,3.106-3.106A3.106,3.106,0,0,1,135.856,191.8Zm0-5.825a2.719,2.719,0,1,0,2.719,2.719A2.723,2.723,0,0,0,135.856,185.976Z" transform="translate(-58.576 -97.464)" fill="#90b4fe"/>
            <path id="Path_903873" data-name="Path 903873" d="M301.616,432.011a3.106,3.106,0,1,1,3.106-3.106A3.106,3.106,0,0,1,301.616,432.011Zm0-5.825a2.719,2.719,0,1,0,2.719,2.719A2.723,2.723,0,0,0,301.616,426.186Z" transform="translate(-96.276 -163.252)" fill="#90b4fe"/>
            <path id="Path_903874" data-name="Path 903874" d="M85.173,170.165A12.241,12.241,0,1,1,72.927,157.92,12.237,12.237,0,0,1,85.173,170.165Z" transform="translate(-42.187 -90.239)" fill="#90b4fe"/>
            <path id="Path_903875" data-name="Path 903875" d="M441.448,429.869a6.9,6.9,0,1,1-6.9-6.9A6.9,6.9,0,0,1,441.448,429.869Z" transform="translate(-125.647 -162.609)" fill="#90b4fe"/>
            <path id="Path_903876" data-name="Path 903876" d="M241.387,178.87a2.821,2.821,0,0,1-2.82,2.82H219.33a2.821,2.821,0,0,1-2.82-2.82h0a2.816,2.816,0,0,1,2.82-2.82h19.237a2.821,2.821,0,0,1,2.82,2.82Z" transform="translate(-77.626 -94.87)" fill="#fff"/>
            <path id="Path_903877" data-name="Path 903877" d="M305.063,185.172H285.826a3.206,3.206,0,1,1,0-6.412h19.237a3.206,3.206,0,1,1,0,6.412Zm-19.237-5.632a2.434,2.434,0,0,0,0,4.867h19.237a2.434,2.434,0,1,0,0-4.867Z" transform="translate(-92.662 -95.617)" fill="#90b4fe"/>
            <path id="Path_903878" data-name="Path 903878" d="M249.309,155.876h-1.846v-1.846a.583.583,0,0,0-1.167,0v1.846h-1.846a.583.583,0,0,0,0,1.167H246.3v1.846a.579.579,0,0,0,.579.579.59.59,0,0,0,.587-.579v-1.846h1.846a.585.585,0,0,0,.587-.579A.592.592,0,0,0,249.309,155.876Z" transform="translate(-83.849 -88.755)" fill="#90b4fe"/>
            <path id="Path_903879" data-name="Path 903879" d="M316.918,171.949a6.9,6.9,0,1,1-6.9-6.9A6.9,6.9,0,0,1,316.918,171.949Z" transform="translate(-97.324 -92.016)" fill="#90b4fe"/>
            <path id="Path_903880" data-name="Path 903880" d="M368.67,126.7h-34a1.259,1.259,0,1,1,0-2.519h34a1.259,1.259,0,1,1,0,2.519Zm-34-2.14a.873.873,0,1,0,0,1.746h34a.873.873,0,1,0,0-1.746Z" transform="translate(-104.213 -78.243)" fill="#90b4fe"/>
            <path id="Path_903881" data-name="Path 903881" d="M439.929,102.66a2.821,2.821,0,0,0-2.82-2.82H417.872a2.814,2.814,0,0,0-2.812,2.82h0a2.819,2.819,0,0,0,2.812,2.82h19.237a2.821,2.821,0,0,0,2.82-2.82Z" transform="translate(-122.784 -72.708)" fill="#90b4fe"/>
            <path id="Path_903882" data-name="Path 903882" d="M443.439,145.435h-1.846v1.846a.583.583,0,0,1-1.167,0v-1.846h-1.846a.579.579,0,1,1,0-1.159h1.846v-1.846a.579.579,0,0,1,.579-.579.59.59,0,0,1,.587.579v1.846h1.846a.579.579,0,0,1,0,1.159Z" transform="translate(-128.001 -85.613)" fill="#90b4fe"/>
            <path id="Path_903883" data-name="Path 903883" d="M299.409,112.365h-1.846v1.846a.579.579,0,0,1-1.159,0v-1.846h-1.846a.579.579,0,1,1,0-1.159H296.4v-1.846a.579.579,0,0,1,1.159,0v1.846h1.846a.579.579,0,0,1,0,1.159Z" transform="translate(-95.243 -74.741)" fill="#90b4fe"/>
            <path id="Path_903884" data-name="Path 903884" d="M450.116,132.021a3.106,3.106,0,1,1,3.106-3.106A3.106,3.106,0,0,1,450.116,132.021Zm0-5.833a2.719,2.719,0,1,0,2.719,2.719A2.723,2.723,0,0,0,450.116,126.189Z" transform="translate(-130.05 -78.614)" fill="#90b4fe"/>
            <path id="Path_903885" data-name="Path 903885" d="M220.526,109.331a3.106,3.106,0,1,1,3.106-3.106A3.106,3.106,0,0,1,220.526,109.331Zm0-5.833a2.719,2.719,0,1,0,2.719,2.719A2.723,2.723,0,0,0,220.526,103.5Z" transform="translate(-77.833 -73.454)" fill="#90b4fe"/>
            <path id="Path_903886" data-name="Path 903886" d="M105.427,164.51a2.821,2.821,0,0,1-2.82,2.82H83.37a2.821,2.821,0,0,1-2.82-2.82h0a2.821,2.821,0,0,1,2.82-2.82h19.237a2.821,2.821,0,0,1,2.82,2.82Z" transform="translate(-46.704 -90.981)" fill="#fff"/>
          </g>
        </g>
        <g id="Group_1112790" data-name="Group 1112790" transform="translate(87.528 70.551)">
          <g id="Group_1112764" data-name="Group 1112764" transform="translate(0 36.952)">
            <path id="Path_903887" data-name="Path 903887" d="M306.166,412.759H242.46l7.733-45.489h48.239Z" transform="translate(-147.388 -236.081)" fill="#599bcd"/>
            <path id="Path_903888" data-name="Path 903888" d="M251.485,367.27l-3.345,19.7h54.937l-3.353-19.7Z" transform="translate(-148.68 -236.081)" fill="#a7baff" style="mix-blend-mode: multiply;isolation: isolate"/>
            <path id="Path_903889" data-name="Path 903889" d="M316.828,428.454a4.435,4.435,0,0,1-4.434,4.435H227.335a4.435,4.435,0,0,1-4.434-4.435h0a4.435,4.435,0,0,1,4.434-4.435h85.059a4.435,4.435,0,0,1,4.434,4.435Z" transform="translate(-142.94 -248.988)" fill="#599bcd"/>
            <path id="Path_903890" data-name="Path 903890" d="M127.126,197.46H365.531a7.728,7.728,0,0,1,7.726,7.726V335.548a7.728,7.728,0,0,1-7.726,7.726H127.126a7.728,7.728,0,0,1-7.726-7.726V205.186A7.728,7.728,0,0,1,127.126,197.46Z" transform="translate(-119.4 -197.46)" fill="#599bcd"/>
            <path id="Path_903891" data-name="Path 903891" d="M136.476,203.99H360.426a7.728,7.728,0,0,1,7.726,7.726v106.6a7.728,7.728,0,0,1-7.726,7.726H136.476a7.728,7.728,0,0,1-7.726-7.726v-106.6A7.728,7.728,0,0,1,136.476,203.99Z" transform="translate(-121.527 -198.945)" fill="#122c3f"/>
            <path id="Path_903892" data-name="Path 903892" d="M287.975,373.352a6.072,6.072,0,1,1-6.072-6.072A6.08,6.08,0,0,1,287.975,373.352Z" transform="translate(-154.978 -236.083)" fill="#122c3f"/>
          </g>
          <g id="Group_1112767" data-name="Group 1112767" transform="translate(178.006)">
            <path id="Path_903893" data-name="Path 903893" d="M353.673,149.63h83.9a3.864,3.864,0,0,1,3.863,3.863v83.568a3.864,3.864,0,0,1-3.863,3.863h-83.9a3.864,3.864,0,0,1-3.863-3.863V153.493a3.864,3.864,0,0,1,3.863-3.863Z" transform="translate(-349.81 -149.63)" fill="#bbd2fe"/>
            <path id="Path_903894" data-name="Path 903894" d="M439.506,173.04V240a3.864,3.864,0,0,1-3.863,3.863H357.213A3.864,3.864,0,0,1,353.35,240V173.04Z" transform="translate(-350.615 -154.954)" fill="#fff"/>
            <g id="Group_1112765" data-name="Group 1112765" transform="translate(2.743 6.791)">
              <path id="Path_903895" data-name="Path 903895" d="M357.393,160.436a2.016,2.016,0,1,1-2.016-2.016A2.018,2.018,0,0,1,357.393,160.436Z" transform="translate(-353.36 -158.42)" fill="none" stroke="#fff" stroke-miterlimit="10" stroke-width="1"/>
              <path id="Path_903896" data-name="Path 903896" d="M375.153,160.436a2.016,2.016,0,1,1-2.016-2.016A2.018,2.018,0,0,1,375.153,160.436Z" transform="translate(-357.399 -158.42)" fill="none" stroke="#fff" stroke-miterlimit="10" stroke-width="1"/>
              <path id="Path_903897" data-name="Path 903897" d="M451.565,160.436a2.018,2.018,0,0,1-2.016,2.016H408.386a2.018,2.018,0,0,1-2.016-2.016h0a2.018,2.018,0,0,1,2.016-2.016h41.162a2.018,2.018,0,0,1,2.016,2.016Z" transform="translate(-365.416 -158.42)" fill="#fff"/>
              <path id="Path_903898" data-name="Path 903898" d="M366.273,160.436a2.016,2.016,0,1,1-2.016-2.016A2.018,2.018,0,0,1,366.273,160.436Z" transform="translate(-355.38 -158.42)" fill="none" stroke="#fff" stroke-miterlimit="10" stroke-width="1"/>
            </g>
            <g id="Group_1112766" data-name="Group 1112766" transform="translate(5.98 30.879)">
              <path id="Path_903899" data-name="Path 903899" d="M436.552,243.5h-79v-44.84a.668.668,0,0,1,1.336,0v43.5h77.666a.668.668,0,1,1,0,1.337Z" transform="translate(-357.55 -191.51)" fill="#8fb3ff"/>
              <path id="Path_903900" data-name="Path 903900" d="M363.43,234.688s10.012-9.951,16.425-8.691,12.361,13.45,18.773,11.264,10.793-26.283,17.05-25.186,15.328,12.361,18.148,7.981,4.064-14.076,4.064-14.076v35.26H363.43V234.7Z" transform="translate(-358.887 -193.325)" fill="#e1e7ff"/>
              <path id="Path_903901" data-name="Path 903901" d="M363.558,223.732c2.92-4.6,6.829-9.271,12.415-10.476a13.793,13.793,0,0,1,7.432.68,22.214,22.214,0,0,1,3.909,1.885,28.508,28.508,0,0,0,3.654,2.155,6.052,6.052,0,0,0,5.168-.054,13.877,13.877,0,0,0,4.249-4.048,46.285,46.285,0,0,1,4.628-5.354,12.744,12.744,0,0,1,8.29-3.16c2.333-.085,4.659.147,6.992.039a13.317,13.317,0,0,0,5.786-1.993c4.025-2.318,7.27-5.972,11.8-7.4.286-.093.162-.541-.124-.448-5.068,1.592-8.606,5.895-13.311,8.189-5.076,2.48-10.831.031-16.008,2.109-4.674,1.877-6.938,6.4-10.244,9.866-1.491,1.568-3.33,2.665-5.562,2.295a9.287,9.287,0,0,1-3.507-1.576,31.7,31.7,0,0,0-4.041-2.31,14.316,14.316,0,0,0-11.619-.572c-4.519,1.924-7.741,5.91-10.314,9.951-.162.255.24.494.409.24h0Z" transform="translate(-358.815 -190.952)" fill="#90b4fe"/>
              <path id="Path_903902" data-name="Path 903902" d="M363.572,237.623l-.4-.247,19.8-32.355L403,221.321l7.532-8.081,13.226,3.268,9.781-26.908.44.162-9.927,27.3-13.365-3.3-7.641,8.2-19.955-16.239Z" transform="translate(-358.828 -189.6)" fill="#599bcd"/>
            </g>
          </g>
          <g id="Group_1112771" data-name="Group 1112771" transform="translate(145.512 96.903)">
            <rect id="Rectangle_404723" data-name="Rectangle 404723" width="80.733" height="82.633" rx="5" fill="#bbd2fe"/>
            <path id="Path_903903" data-name="Path 903903" d="M386.662,298.47v58.761a3.864,3.864,0,0,1-3.863,3.863H314.953a3.864,3.864,0,0,1-3.863-3.863V298.47Z" transform="translate(-308.51 -280.384)" fill="#fff"/>
            <g id="Group_1112768" data-name="Group 1112768" transform="translate(2.58 6.791)">
              <path id="Path_903904" data-name="Path 903904" d="M315.123,285.866a2.016,2.016,0,1,1-2.016-2.016A2.018,2.018,0,0,1,315.123,285.866Z" transform="translate(-311.09 -283.85)" fill="none" stroke="#fff" stroke-miterlimit="10" stroke-width="1"/>
              <path id="Path_903905" data-name="Path 903905" d="M332.883,285.866a2.016,2.016,0,1,1-2.016-2.016A2.018,2.018,0,0,1,332.883,285.866Z" transform="translate(-315.129 -283.85)" fill="none" stroke="#fff" stroke-miterlimit="10" stroke-width="1"/>
              <path id="Path_903906" data-name="Path 903906" d="M395.605,285.866a2.018,2.018,0,0,1-2.016,2.016H352.426a2.013,2.013,0,0,1-2.016-2.016h0a2.018,2.018,0,0,1,2.016-2.016h41.162a2.018,2.018,0,0,1,2.016,2.016Z" transform="translate(-320.033 -283.85)" fill="#fff"/>
              <path id="Path_903907" data-name="Path 903907" d="M324,285.866a2.016,2.016,0,1,1-2.016-2.016A2.018,2.018,0,0,1,324,285.866Z" transform="translate(-313.11 -283.85)" fill="none" stroke="#fff" stroke-miterlimit="10" stroke-width="1"/>
            </g>
            <g id="Group_1112770" data-name="Group 1112770" transform="translate(7.146 34.588)">
              <path id="Path_903908" data-name="Path 903908" d="M378.357,363.627H317V320.348a.518.518,0,1,1,1.035,0v42.244h60.322a.518.518,0,1,1,0,1.035Z" transform="translate(-317 -319.83)" fill="#8fb3ff"/>
              <path id="Path_903909" data-name="Path 903909" d="M383.642,331.925l-.023-.046a.138.138,0,0,0-.031-.07.335.335,0,0,0-.046-.054c-.015-.015-.023-.031-.039-.039H383.5a.2.2,0,0,0-.062-.023.164.164,0,0,1-.054-.023h-.139l-3.77.718a.349.349,0,0,0-.278.4.354.354,0,0,0,.4.278l2.882-.548-11.442,14.926-8.251-7.046a.341.341,0,0,0-.479.031L350.731,353.07l-14.741-8a.339.339,0,0,0-.386.039l-14.98,12.631a.344.344,0,0,0-.039.487.34.34,0,0,0,.263.124.368.368,0,0,0,.224-.085l14.8-12.477,14.771,8.019a.342.342,0,0,0,.417-.07l11.527-12.593,8.274,7.061a.36.36,0,0,0,.263.085.373.373,0,0,0,.239-.131l11.743-15.32.572,3.013a.347.347,0,0,0,.34.278h.07a.349.349,0,0,0,.278-.4l-.719-3.77Z" transform="translate(-317.797 -322.523)" fill="#599bcd"/>
              <g id="Group_1112769" data-name="Group 1112769" transform="translate(9.263 0.348)">
                <path id="Path_903910" data-name="Path 903910" d="M329.16,367.59a.171.171,0,0,1-.17-.17V350.54a.17.17,0,0,1,.34,0v16.881A.171.171,0,0,1,329.16,367.59Z" transform="translate(-328.99 -327.124)" fill="#bbd2fe"/>
                <path id="Path_903911" data-name="Path 903911" d="M340.61,363.283a.171.171,0,0,1-.17-.17V331.94a.17.17,0,0,1,.34,0v31.173A.171.171,0,0,1,340.61,363.283Z" transform="translate(-331.594 -322.893)" fill="#bbd2fe"/>
                <path id="Path_903912" data-name="Path 903912" d="M359.68,366.8a.171.171,0,0,1-.17-.17V347.41a.17.17,0,0,1,.34,0v19.221A.171.171,0,0,1,359.68,366.8Z" transform="translate(-335.931 -326.412)" fill="#bbd2fe"/>
                <path id="Path_903913" data-name="Path 903913" d="M374.89,360.67a.171.171,0,0,1-.17-.17V320.45a.17.17,0,1,1,.34,0V360.5A.172.172,0,0,1,374.89,360.67Z" transform="translate(-339.391 -320.28)" fill="#bbd2fe"/>
                <path id="Path_903914" data-name="Path 903914" d="M385.93,363.588a.171.171,0,0,1-.17-.17V332.94a.17.17,0,1,1,.34,0v30.478A.171.171,0,0,1,385.93,363.588Z" transform="translate(-341.902 -323.121)" fill="#bbd2fe"/>
              </g>
            </g>
          </g>
          <g id="Group_1112789" data-name="Group 1112789" transform="translate(15.521 52.867)">
            <rect id="Rectangle_404724" data-name="Rectangle 404724" width="119.346" height="108.383" rx="5" fill="#bbd2fe"/>
            <path id="Path_903915" data-name="Path 903915" d="M256.843,241.47v83.607a3.864,3.864,0,0,1-3.863,3.863H147.023a3.864,3.864,0,0,1-3.863-3.863V241.47Z" transform="translate(-140.325 -223.384)" fill="#fff"/>
            <g id="Group_1112772" data-name="Group 1112772" transform="translate(2.835 6.783)">
              <path id="Path_903916" data-name="Path 903916" d="M147.193,228.856a2.016,2.016,0,1,1-2.016-2.016A2.018,2.018,0,0,1,147.193,228.856Z" transform="translate(-143.16 -226.84)" fill="none" stroke="#fff" stroke-miterlimit="10" stroke-width="1"/>
              <path id="Path_903917" data-name="Path 903917" d="M164.953,228.856a2.016,2.016,0,1,1-2.016-2.016A2.018,2.018,0,0,1,164.953,228.856Z" transform="translate(-147.199 -226.84)" fill="none" stroke="#fff" stroke-miterlimit="10" stroke-width="1"/>
              <path id="Path_903918" data-name="Path 903918" d="M277.005,228.856a2.018,2.018,0,0,1-2.016,2.016H233.826a2.018,2.018,0,0,1-2.016-2.016h0a2.018,2.018,0,0,1,2.016-2.016h41.162a2.018,2.018,0,0,1,2.016,2.016Z" transform="translate(-163.322 -226.84)" fill="#fff"/>
              <path id="Path_903919" data-name="Path 903919" d="M156.073,228.856a2.016,2.016,0,1,1-2.016-2.016A2.018,2.018,0,0,1,156.073,228.856Z" transform="translate(-145.18 -226.84)" fill="none" stroke="#fff" stroke-miterlimit="10" stroke-width="1"/>
            </g>
            <g id="Group_1112773" data-name="Group 1112773" transform="translate(20.195 31.389)">
              <rect id="Rectangle_404725" data-name="Rectangle 404725" width="13.806" height="11.133" transform="translate(0 49.166)" fill="#bbd2fe"/>
              <rect id="Rectangle_404726" data-name="Rectangle 404726" width="13.798" height="33.792" transform="translate(15.822 26.499)" fill="#e1e7ff"/>
              <rect id="Rectangle_404727" data-name="Rectangle 404727" width="13.806" height="24.822" transform="translate(31.644 35.468)" fill="#bbd2fe"/>
              <rect id="Rectangle_404728" data-name="Rectangle 404728" width="13.806" height="45.38" transform="translate(47.459 14.918)" fill="#e1e7ff"/>
              <rect id="Rectangle_404729" data-name="Rectangle 404729" width="13.806" height="60.291" transform="translate(63.288)" fill="#bbd2fe"/>
            </g>
            <g id="Group_1112774" data-name="Group 1112774" transform="translate(6.158 24.154)">
              <path id="Path_903920" data-name="Path 903920" d="M148.14,308.291a.7.7,0,0,1-.494-.209.674.674,0,0,1,.031-.958l24-22.667a.679.679,0,0,1,.726-.131L189.58,291.5l17.329-19.716a.7.7,0,0,1,.827-.155l23.393,12.446,24.019-34.456a.677.677,0,0,1,1.113.773l-24.367,34.951a.677.677,0,0,1-.873.209l-23.455-12.469-17.29,19.677a.682.682,0,0,1-.765.178l-17.228-7.185-23.671,22.366a.681.681,0,0,1-.464.185Z" transform="translate(-147.461 -249.325)" fill="#90b4fe"/>
              <path id="Path_903921" data-name="Path 903921" d="M181.354,294.8a2.3,2.3,0,1,1-2.3-2.3A2.3,2.3,0,0,1,181.354,294.8Z" transform="translate(-154.122 -259.145)" fill="#90b4fe"/>
              <path id="Path_903922" data-name="Path 903922" d="M203.334,304.392a2.3,2.3,0,1,1-2.3-2.3A2.3,2.3,0,0,1,203.334,304.392Z" transform="translate(-159.121 -261.326)" fill="#90b4fe"/>
              <path id="Path_903923" data-name="Path 903923" d="M226.884,278.362a2.3,2.3,0,1,1-2.3-2.3A2.3,2.3,0,0,1,226.884,278.362Z" transform="translate(-164.477 -255.406)" fill="#90b4fe"/>
              <path id="Path_903924" data-name="Path 903924" d="M257.655,294.752a2.3,2.3,0,1,1-2.3-2.3A2.3,2.3,0,0,1,257.655,294.752Z" transform="translate(-171.476 -259.133)" fill="#90b4fe"/>
            </g>
            <g id="Group_1112788" data-name="Group 1112788" transform="translate(72.567 77.001)">
              <g id="Group_1112775" data-name="Group 1112775" transform="translate(12.346 16.881)">
                <path id="Path_903925" data-name="Path 903925" d="M270.707,341.241c0-.919-4.767-1.661-10.654-1.661s-10.654.742-10.654,1.661v1.3c0,.919,4.767,1.661,10.654,1.661s10.654-.742,10.654-1.661Z" transform="translate(-249.4 -339.58)" fill="#ff7268"/>
                <path id="Path_903926" data-name="Path 903926" d="M270.707,341.241c0,.919-4.767,1.661-10.654,1.661s-10.654-.742-10.654-1.661,4.767-1.661,10.654-1.661S270.707,340.322,270.707,341.241Z" transform="translate(-249.4 -339.58)" fill="#f99ea3"/>
                <path id="Path_903927" data-name="Path 903927" d="M260.832,342.566c-3.237,0-8.042-.317-8.042-1.182s4.813-1.174,8.042-1.174,8.042.317,8.042,1.174S264.062,342.566,260.832,342.566Zm0-2.132c-4.844,0-7.818.548-7.818.95s2.974.95,7.818.95,7.818-.556,7.818-.95S265.676,340.434,260.832,340.434Z" transform="translate(-250.171 -339.723)" fill="#ff7268"/>
              </g>
              <g id="Group_1112776" data-name="Group 1112776" transform="translate(11.774 15.343)">
                <path id="Path_903928" data-name="Path 903928" d="M269.967,339.251c0-.919-4.767-1.661-10.654-1.661s-10.654.742-10.654,1.661v1.3c0,.919,4.767,1.661,10.654,1.661s10.654-.742,10.654-1.661Z" transform="translate(-248.66 -337.59)" fill="#ff7268"/>
                <path id="Path_903929" data-name="Path 903929" d="M269.967,339.251c0,.919-4.767,1.661-10.654,1.661s-10.654-.742-10.654-1.661,4.767-1.661,10.654-1.661S269.967,338.332,269.967,339.251Z" transform="translate(-248.66 -337.59)" fill="#f99ea3"/>
                <path id="Path_903930" data-name="Path 903930" d="M260.082,340.576c-3.237,0-8.042-.317-8.042-1.174s4.813-1.182,8.042-1.182,8.042.317,8.042,1.182S263.312,340.576,260.082,340.576Zm0-2.132c-4.844,0-7.818.556-7.818.95s2.974.95,7.818.95,7.818-.549,7.818-.95S264.926,338.444,260.082,338.444Z" transform="translate(-249.429 -337.733)" fill="#ff7268"/>
              </g>
              <g id="Group_1112777" data-name="Group 1112777" transform="translate(11.99 13.922)">
                <path id="Path_903931" data-name="Path 903931" d="M270.247,337.411c0-.919-4.767-1.661-10.654-1.661s-10.654.742-10.654,1.661v1.3c0,.919,4.767,1.661,10.654,1.661s10.654-.742,10.654-1.661Z" transform="translate(-248.94 -335.75)" fill="#ff7268"/>
                <path id="Path_903932" data-name="Path 903932" d="M270.247,337.411c0,.919-4.767,1.661-10.654,1.661s-10.654-.742-10.654-1.661,4.767-1.661,10.654-1.661S270.247,336.492,270.247,337.411Z" transform="translate(-248.94 -335.75)" fill="#f99ea3"/>
                <path id="Path_903933" data-name="Path 903933" d="M260.372,338.726c-3.237,0-8.042-.317-8.042-1.182s4.813-1.174,8.042-1.174,8.042.317,8.042,1.174S263.6,338.726,260.372,338.726Zm0-2.125c-4.844,0-7.818.549-7.818.95s2.974.95,7.818.95,7.818-.548,7.818-.95S265.216,336.6,260.372,336.6Z" transform="translate(-249.711 -335.891)" fill="#ff7268"/>
              </g>
              <g id="Group_1112778" data-name="Group 1112778" transform="translate(12.871 12.384)">
                <path id="Path_903934" data-name="Path 903934" d="M271.387,335.421c0-.919-4.767-1.661-10.654-1.661s-10.654.742-10.654,1.661v1.3c0,.919,4.767,1.661,10.654,1.661s10.654-.742,10.654-1.661Z" transform="translate(-250.08 -333.76)" fill="#ff7268"/>
                <path id="Path_903935" data-name="Path 903935" d="M271.387,335.421c0,.919-4.767,1.661-10.654,1.661s-10.654-.742-10.654-1.661,4.767-1.661,10.654-1.661S271.387,334.5,271.387,335.421Z" transform="translate(-250.08 -333.76)" fill="#f99ea3"/>
                <path id="Path_903936" data-name="Path 903936" d="M261.5,336.736c-3.237,0-8.042-.317-8.042-1.182s4.813-1.174,8.042-1.174,8.042.317,8.042,1.174S264.732,336.736,261.5,336.736Zm0-2.125c-4.844,0-7.818.548-7.818.95s2.974.95,7.818.95,7.818-.556,7.818-.95S266.346,334.612,261.5,334.612Z" transform="translate(-250.849 -333.901)" fill="#ff7268"/>
              </g>
              <g id="Group_1112779" data-name="Group 1112779" transform="translate(12.825 10.955)">
                <path id="Path_903937" data-name="Path 903937" d="M271.327,333.571c0-.919-4.767-1.661-10.654-1.661s-10.654.742-10.654,1.661v1.3c0,.919,4.767,1.661,10.654,1.661s10.654-.742,10.654-1.661Z" transform="translate(-250.02 -331.91)" fill="#ff7268"/>
                <path id="Path_903938" data-name="Path 903938" d="M271.327,333.571c0,.919-4.767,1.661-10.654,1.661s-10.654-.742-10.654-1.661,4.767-1.661,10.654-1.661S271.327,332.652,271.327,333.571Z" transform="translate(-250.02 -331.91)" fill="#f99ea3"/>
                <path id="Path_903939" data-name="Path 903939" d="M261.452,334.9c-3.237,0-8.042-.317-8.042-1.174s4.813-1.174,8.042-1.174,8.042.309,8.042,1.174S264.682,334.9,261.452,334.9Zm0-2.125c-4.844,0-7.818.549-7.818.95s2.974.95,7.818.95,7.818-.549,7.818-.95S266.3,332.774,261.452,332.774Z" transform="translate(-250.791 -332.056)" fill="#ff7268"/>
              </g>
              <g id="Group_1112780" data-name="Group 1112780" transform="translate(12.346 9.657)">
                <path id="Path_903940" data-name="Path 903940" d="M270.707,331.891c0-.919-4.767-1.661-10.654-1.661s-10.654.742-10.654,1.661v1.3c0,.919,4.767,1.661,10.654,1.661s10.654-.742,10.654-1.661Z" transform="translate(-249.4 -330.23)" fill="#ff7268"/>
                <path id="Path_903941" data-name="Path 903941" d="M270.707,331.891c0,.919-4.767,1.661-10.654,1.661s-10.654-.742-10.654-1.661,4.767-1.661,10.654-1.661S270.707,330.972,270.707,331.891Z" transform="translate(-249.4 -330.23)" fill="#f99ea3"/>
                <path id="Path_903942" data-name="Path 903942" d="M260.832,333.216c-3.237,0-8.042-.317-8.042-1.182s4.813-1.174,8.042-1.174,8.042.317,8.042,1.174S264.062,333.216,260.832,333.216Zm0-2.132c-4.844,0-7.818.549-7.818.95s2.974.95,7.818.95,7.818-.548,7.818-.95S265.676,331.084,260.832,331.084Z" transform="translate(-250.171 -330.373)" fill="#ff7268"/>
              </g>
              <g id="Group_1112781" data-name="Group 1112781" transform="translate(12.099 7.996)">
                <path id="Path_903943" data-name="Path 903943" d="M270.387,329.741c0-.919-4.767-1.661-10.654-1.661s-10.654.742-10.654,1.661v1.3c0,.919,4.767,1.661,10.654,1.661s10.654-.742,10.654-1.661Z" transform="translate(-249.08 -328.08)" fill="#ff7268"/>
                <path id="Path_903944" data-name="Path 903944" d="M270.387,329.741c0,.919-4.767,1.661-10.654,1.661s-10.654-.742-10.654-1.661,4.767-1.661,10.654-1.661S270.387,328.822,270.387,329.741Z" transform="translate(-249.08 -328.08)" fill="#f99ea3"/>
                <path id="Path_903945" data-name="Path 903945" d="M260.512,331.056c-3.237,0-8.042-.317-8.042-1.182s4.813-1.174,8.042-1.174,8.042.317,8.042,1.174S263.742,331.056,260.512,331.056Zm0-2.125c-4.844,0-7.818.548-7.818.95s2.974.95,7.818.95,7.818-.556,7.818-.95S265.356,328.932,260.512,328.932Z" transform="translate(-249.851 -328.221)" fill="#ff7268"/>
              </g>
              <g id="Group_1112782" data-name="Group 1112782" transform="translate(12.099 6.459)">
                <path id="Path_903946" data-name="Path 903946" d="M270.387,327.751c0-.919-4.767-1.661-10.654-1.661s-10.654.742-10.654,1.661v1.3c0,.919,4.767,1.661,10.654,1.661s10.654-.742,10.654-1.661Z" transform="translate(-249.08 -326.09)" fill="#ff7268"/>
                <path id="Path_903947" data-name="Path 903947" d="M270.387,327.751c0,.919-4.767,1.661-10.654,1.661s-10.654-.742-10.654-1.661,4.767-1.661,10.654-1.661S270.387,326.832,270.387,327.751Z" transform="translate(-249.08 -326.09)" fill="#f99ea3"/>
                <path id="Path_903948" data-name="Path 903948" d="M260.512,329.066c-3.237,0-8.042-.317-8.042-1.174s4.813-1.182,8.042-1.182,8.042.317,8.042,1.182S263.742,329.066,260.512,329.066Zm0-2.132c-4.844,0-7.818.556-7.818.95s2.974.95,7.818.95,7.818-.556,7.818-.95S265.356,326.934,260.512,326.934Z" transform="translate(-249.851 -326.231)" fill="#ff7268"/>
              </g>
              <g id="Group_1112783" data-name="Group 1112783" transform="translate(11.99 4.921)">
                <path id="Path_903949" data-name="Path 903949" d="M270.247,325.761c0-.919-4.767-1.661-10.654-1.661s-10.654.742-10.654,1.661v1.3c0,.919,4.767,1.661,10.654,1.661s10.654-.742,10.654-1.661Z" transform="translate(-248.94 -324.1)" fill="#ff7268"/>
                <path id="Path_903950" data-name="Path 903950" d="M270.247,325.761c0,.919-4.767,1.661-10.654,1.661s-10.654-.742-10.654-1.661,4.767-1.661,10.654-1.661S270.247,324.842,270.247,325.761Z" transform="translate(-248.94 -324.1)" fill="#f99ea3"/>
                <path id="Path_903951" data-name="Path 903951" d="M260.372,327.079c-3.237,0-8.042-.317-8.042-1.174s4.813-1.174,8.042-1.174,8.042.309,8.042,1.174S263.6,327.079,260.372,327.079Zm0-2.125c-4.844,0-7.818.549-7.818.95s2.974.95,7.818.95,7.818-.548,7.818-.95S265.216,324.954,260.372,324.954Z" transform="translate(-249.711 -324.243)" fill="#ff7268"/>
              </g>
              <g id="Group_1112784" data-name="Group 1112784" transform="translate(12.871 3.245)">
                <path id="Path_903952" data-name="Path 903952" d="M271.387,323.591c0-.919-4.767-1.661-10.654-1.661s-10.654.742-10.654,1.661v1.3c0,.919,4.767,1.661,10.654,1.661s10.654-.742,10.654-1.661Z" transform="translate(-250.08 -321.93)" fill="#ff7268"/>
                <path id="Path_903953" data-name="Path 903953" d="M271.387,323.591c0,.919-4.767,1.661-10.654,1.661s-10.654-.742-10.654-1.661,4.767-1.661,10.654-1.661S271.387,322.672,271.387,323.591Z" transform="translate(-250.08 -321.93)" fill="#f99ea3"/>
                <path id="Path_903954" data-name="Path 903954" d="M261.5,324.906c-3.237,0-8.042-.317-8.042-1.182s4.813-1.174,8.042-1.174,8.042.317,8.042,1.174S264.732,324.906,261.5,324.906Zm0-2.125c-4.844,0-7.818.549-7.818.95s2.974.95,7.818.95,7.818-.556,7.818-.95S266.346,322.782,261.5,322.782Z" transform="translate(-250.849 -322.071)" fill="#ff7268"/>
              </g>
              <g id="Group_1112785" data-name="Group 1112785" transform="translate(13.366 1.831)">
                <path id="Path_903955" data-name="Path 903955" d="M272.027,321.761c0-.919-4.767-1.661-10.654-1.661s-10.654.742-10.654,1.661v1.3c0,.919,4.767,1.661,10.654,1.661s10.654-.742,10.654-1.661Z" transform="translate(-250.72 -320.1)" fill="#ff7268"/>
                <path id="Path_903956" data-name="Path 903956" d="M272.027,321.761c0,.919-4.767,1.661-10.654,1.661s-10.654-.742-10.654-1.661,4.767-1.661,10.654-1.661S272.027,320.842,272.027,321.761Z" transform="translate(-250.72 -320.1)" fill="#f99ea3"/>
                <path id="Path_903957" data-name="Path 903957" d="M262.142,323.076c-3.237,0-8.042-.317-8.042-1.182s4.813-1.174,8.042-1.174,8.042.309,8.042,1.174S265.372,323.076,262.142,323.076Zm0-2.125c-4.844,0-7.818.549-7.818.95s2.974.95,7.818.95,7.818-.548,7.818-.95S266.986,320.952,262.142,320.952Z" transform="translate(-251.489 -320.241)" fill="#ff7268"/>
              </g>
              <g id="Group_1112786" data-name="Group 1112786" transform="translate(12.099)">
                <path id="Path_903958" data-name="Path 903958" d="M270.387,319.391c0-.919-4.767-1.661-10.654-1.661s-10.654.742-10.654,1.661v1.3c0,.919,4.767,1.661,10.654,1.661s10.654-.742,10.654-1.661Z" transform="translate(-249.08 -317.73)" fill="#ff7268"/>
                <path id="Path_903959" data-name="Path 903959" d="M270.387,319.391c0,.919-4.767,1.661-10.654,1.661s-10.654-.742-10.654-1.661,4.767-1.661,10.654-1.661S270.387,318.472,270.387,319.391Z" transform="translate(-249.08 -317.73)" fill="#f99ea3"/>
                <path id="Path_903960" data-name="Path 903960" d="M260.512,320.716c-3.237,0-8.042-.317-8.042-1.182s4.813-1.174,8.042-1.174,8.042.317,8.042,1.174S263.742,320.716,260.512,320.716Zm0-2.132c-4.844,0-7.818.549-7.818.95s2.974.95,7.818.95,7.818-.556,7.818-.95S265.356,318.584,260.512,318.584Z" transform="translate(-249.851 -317.873)" fill="#ff7268"/>
              </g>
              <g id="Group_1112787" data-name="Group 1112787" transform="translate(0 1.544)">
                <path id="Path_903961" data-name="Path 903961" d="M244.468,319.768c-.788-.471-3.863,3.253-6.86,8.313s-4.79,9.541-4,10.012c.2.116.919.549,1.12.664.788.471,3.863-3.253,6.86-8.313s4.79-9.541,4-10.012C245.387,320.317,244.668,319.884,244.468,319.768Z" transform="translate(-233.42 -319.728)" fill="#ff7268"/>
                <path id="Path_903962" data-name="Path 903962" d="M244.468,319.768c.788.471-1,4.952-4,10.012s-6.072,8.784-6.86,8.313,1-4.952,4-10.012S243.68,319.3,244.468,319.768Z" transform="translate(-233.42 -319.728)" fill="#f99ea3"/>
                <path id="Path_903963" data-name="Path 903963" d="M240.451,330.195c-1.646,2.781-4.373,6.76-5.114,6.32s1.445-4.736,3.09-7.525,4.373-6.76,5.114-6.32-1.445,4.736-3.09,7.517Zm-1.831-1.089c-2.472,4.164-3.507,7.007-3.168,7.208s2.333-2.07,4.805-6.242,3.507-7.007,3.168-7.208-2.333,2.07-4.805,6.235Z" transform="translate(-233.822 -320.389)" fill="#ff7268"/>
              </g>
            </g>
          </g>
        </g>
        <g id="Group_1112795" data-name="Group 1112795" transform="translate(0 151.22)">
          <g id="Group_1112791" data-name="Group 1112791" transform="translate(151.017 70.112)">
            <path id="Path_903964" data-name="Path 903964" d="M218.476,344.8h-1.8a15.1,15.1,0,1,0,0,30.192h1.8a15.1,15.1,0,1,0,0-30.192Z" transform="translate(-201.58 -344.8)" fill="#f99ea3"/>
            <path id="Path_903965" data-name="Path 903965" d="M234.1,359.9a15.1,15.1,0,1,1-15.1-15.1A15.1,15.1,0,0,1,234.1,359.9Z" transform="translate(-202.11 -344.8)" fill="#ff7268"/>
            <path id="Path_903966" data-name="Path 903966" d="M219.75,373.209a12.57,12.57,0,1,1,12.57-12.57A12.585,12.585,0,0,1,219.75,373.209Zm0-24.382a11.813,11.813,0,1,0,11.813,11.813A11.827,11.827,0,0,0,219.75,348.827Z" transform="translate(-202.854 -345.544)" fill="#f99ea3"/>
          </g>
          <g id="Group_1112794" data-name="Group 1112794">
            <path id="Path_903967" data-name="Path 903967" d="M224.218,393.546s4.682,12.508-4.774,15.181L213.9,417.99l-14.795-8.977,4.774-8.019s-4.388-7.448-2.959-11.264,3.917-4.1,3.917-4.1-2.287-8.908,1.908-15.2,9.842-10.638,19.762-9.147c1.908.286,3.245,5.346-.958,5.725s-11.743,2.372-13.752,10.978c0,0,3.724-5.153,9.163-1.53,0,0,4.4-2.866,7.355,1.143,0,0,4.489-.572,6.011,6.111s-6.49,11.65-10.121,9.835Z" transform="translate(-50.001 -278.37)" fill="#f6a9a3"/>
            <g id="Group_1112792" data-name="Group 1112792" transform="translate(154.183 97.794)">
              <path id="Path_903968" data-name="Path 903968" d="M231.117,401.135a.3.3,0,0,1-.224-.108c-.085-.1-2.009-2.449-1.29-4.35.672-1.769,2.943-4.1,5.678-3.469a.29.29,0,0,1-.131.564c-2.295-.525-4.388,1.468-5.014,3.113-.6,1.584,1.174,3.755,1.19,3.77a.293.293,0,0,1-.039.409.277.277,0,0,1-.185.07Z" transform="translate(-211.083 -383.467)" fill="#f48b78"/>
              <path id="Path_903969" data-name="Path 903969" d="M226.464,389.944a.238.238,0,0,1-.085-.015.285.285,0,0,1-.193-.355,10.264,10.264,0,0,1,8.266-7.463.291.291,0,0,1,.054.579,9.507,9.507,0,0,0-7.772,7.054.3.3,0,0,1-.278.209Z" transform="translate(-210.34 -380.967)" fill="#f48b78"/>
              <path id="Path_903970" data-name="Path 903970" d="M218.065,388.364h-.031a.288.288,0,0,1-.255-.317c.394-3.932,7.038-7.247,7.316-7.386a.288.288,0,1,1,.255.518c-.07.031-6.636,3.314-7,6.93a.292.292,0,0,1-.286.263Z" transform="translate(-208.43 -380.631)" fill="#f48b78"/>
              <path id="Path_903971" data-name="Path 903971" d="M206.622,394.3a.288.288,0,0,1-.278-.224,36.277,36.277,0,0,1-.664-3.855.288.288,0,0,1,.572-.062,32.807,32.807,0,0,0,.649,3.778.286.286,0,0,1-.209.348c-.023,0-.046.008-.07.008Z" transform="translate(-205.678 -382.739)" fill="#f48b78"/>
            </g>
            <path id="Path_903972" data-name="Path 903972" d="M97.654,466.346s.61-91.255-1-97.961c0,0-16.911-17.375-40.915-16.309s-38.327,26.476-42.02,60.669-3.925,53.6-3.925,53.6H97.669Z" transform="translate(-6.943 -276.332)" fill="#21323f"/>
            <path id="Path_903973" data-name="Path 903973" d="M181.139,408.187s11.388-5.393,15.946,11.04c0,0-18.287,26.978-30.3,32.749s-26.229-2.31-55.833-32.115c0,0-8.166-37.663,8.236-46.671l45.28,50.132,16.664-15.142Z" transform="translate(-29.488 -281.145)" fill="#21323f"/>
            <path id="Path_903974" data-name="Path 903974" d="M98.424,334.537l-4.125,18.1s-17.02,8.792-31.528-4.96c0,0,7.533-11.419,11.279-20.218l24.374,7.084Z" transform="translate(-18.992 -270.744)" fill="#f6a9a3"/>
            <path id="Path_903975" data-name="Path 903975" d="M133.709,301.345c2.341,2.4,4.056,11.31,2.99,13.079s-5.431,1.221-6.5.533S132.172,299.769,133.709,301.345Z" transform="translate(-34.276 -264.777)" fill="#f48b78"/>
            <path id="Path_903976" data-name="Path 903976" d="M65.093,288.476C61.624,304,70.725,319.255,85.419,322.554s29.412-6.621,32.88-22.149-5.632-30.779-20.326-34.07S68.562,272.955,65.1,288.476Z" transform="translate(-19.353 -256.698)" fill="#f6a9a3"/>
            <path id="Path_903977" data-name="Path 903977" d="M118.266,268.6s-3.886,14.9-22.258,15.258c0,0-3.855,28.5-20.921,32.355,0,0-10.507-2.58-16.147-16.741-5.717-14.362,1.329-37.933,19.909-39.7,12.091-8.676,31.08-8.807,39.408,8.838Z" transform="translate(-17.681 -254.047)" fill="#21323f"/>
            <path id="Path_903978" data-name="Path 903978" d="M88.924,310.563a6.693,6.693,0,1,1,.008.008Z" transform="translate(-24.89 -265.258)" fill="#f6a9a3"/>
            <g id="Group_1112793" data-name="Group 1112793" transform="translate(67.518 42.268)">
              <path id="Path_903979" data-name="Path 903979" d="M102.639,318.108a.255.255,0,0,1-.139-.077.282.282,0,0,1-.008-.4,4.9,4.9,0,1,0-8.421-3.492.287.287,0,0,1-.294.286.276.276,0,0,1-.278-.294,5.467,5.467,0,1,1,9.41,3.9.275.275,0,0,1-.27.077Z" transform="translate(-93.5 -308.758)" fill="#f48b78"/>
              <path id="Path_903980" data-name="Path 903980" d="M100.563,320.408h0a3.34,3.34,0,0,1,.8-6.6,3.19,3.19,0,0,1,.664.077,3.341,3.341,0,0,1-1.46,6.52Zm1.337-5.956a3.223,3.223,0,0,0-.556-.07,2.765,2.765,0,0,0-.657,5.462h0a3.321,3.321,0,0,0,.556.07,2.765,2.765,0,0,0,.657-5.462Z" transform="translate(-94.514 -309.907)" fill="#f48b78"/>
            </g>
            <path id="Path_903981" data-name="Path 903981" d="M74.217,275.33c-1.53,3.3-4.914,4.991-7.548,3.77s-3.538-4.89-2.009-8.2,4.914-4.991,7.548-3.77,3.538,4.89,2,8.2Z" transform="translate(-19.253 -256.933)" fill="#5758ff"/>
            <path id="Path_903982" data-name="Path 903982" d="M128.527,301.543c-.541,1.723-1.769,3.7-3.855,2.789-1.924-.85-3.307-2.9-4.18-4.728-.3-.634.626-1.236.927-.595a11.643,11.643,0,0,0,2.611,3.616c1.638,1.491,2.828.564,3.415-1.321.209-.672,1.29-.44,1.074.239h0Z" transform="translate(-32.107 -264.211)" fill="#222221"/>
            <path id="Path_903983" data-name="Path 903983" d="M53.5,274.361s-6.938-3.677-8.344,6.042.734,30.1-9.526,38.667-26.684,1.638-28.894-7.625c-1.306-5.485-.888-11.117,4.21-14.6,4.373-3.106,8.884-2.256,13.08.564-2.689-10.422,1.414-35.252,11.341-40.073,7.849-3.816,18.008,3.1,21.678,7.494,0,0,1.985,2.449-.031,6.721-1.383,2.928-3.515,2.8-3.515,2.8Z" transform="translate(-6.104 -254.543)" fill="#21323f"/>
            <path id="Path_903984" data-name="Path 903984" d="M110.468,421.024a108.18,108.18,0,0,1-1.978-16.618c-.464-12.145,1.468-21.052,5.74-26.476l.6.471c-9.943,12.608-3.685,42.159-3.623,42.452l-.749.162Z" transform="translate(-29.375 -282.223)" fill="#5758ff"/>
          </g>
        </g>
      </g>
    </g>
  </g>
</svg>
