<svg xmlns="http://www.w3.org/2000/svg" width="113.438" height="81.442" viewBox="0 0 113.438 81.442">
  <g id="Group_1115042" data-name="Group 1115042" transform="translate(-241.051 -3220.193)">
    <rect id="Rectangle_406935" data-name="Rectangle 406935" width="113.438" height="67.711" rx="15" transform="translate(241.051 3227.058)" fill="#fd9826"/>
    <g id="_0" data-name="0" transform="translate(262.11 3220.193)">
      <path id="Path_900621" data-name="Path 900621" d="M272.209,111.56c-.221.194-.441.576-.733.828-2.129,1.847-4.317,3.634-6.427,5.508-1.62-.333-3-.711-4.21.73a3.3,3.3,0,0,0-.186,4.031c2.757,2.59,5.1,6.557,7.814,9.061,1.977,1.823,5.217,1.014,5.53-1.774.081-.715-.2-1.174-.1-1.838l4.065-3.323,8.015,9.237a3.119,3.119,0,0,0,4.8-3.879l-8.076-9.5c.767-.483,3.546-3.435,4.121-3.545.23-.044.571.292.9.328,1.808.211,3.683-.581,3.935-2.558.591.091,2.4,1.281,2.752,1.284l-.184,50.255c-12.249-5.447-26.051-5.329-38.7-1.284V115.784c2.122-.75,4.293-1.318,6.476-1.867.507-.142.382-.882.492-1.066.3-.493,8.578-1.223,9.72-1.284Zm8.627,32.458c-.064-.064-.157-1.353-.319-1.791a3.253,3.253,0,0,0-2.612-2.156c-1.833-.314-11.1-.328-12.783.074a3.549,3.549,0,0,0-2.634,3.879,3.615,3.615,0,0,0-3.651,3.043c-.132.98-.353,3.347.983,3.386l23.814-.049c1.622-.36.782-4.227-.162-5.261A4.85,4.85,0,0,0,280.836,144.018Z" transform="translate(-205.987 -95.775)" fill="#fefefe"/>
      <path id="Path_900622" data-name="Path 900622" d="M141.782,67.508c.172,0,.532-.3.826-.292a1.1,1.1,0,0,1,1.017,1.291l-.091,59.35c-.24.554-.466.76-1.083.718-1.348-.091-3.906-1.051-5.435-1.37a79.275,79.275,0,0,0-29.932-.764c-2.225.385-7.093,2.021-8.863,1.975-1.357-.037-4.195-1.1-5.743-1.426a78.357,78.357,0,0,0-33.269.363c-1.09.235-4,1.274-4.812,1.223a1.18,1.18,0,0,1-1.027-1.36l.012-59.428c.14-.74,1.941-1.465,2.624-1.779a56.3,56.3,0,0,1,6.89-2.372l.191-16.042a1.046,1.046,0,0,1,1.009-.456,41.851,41.851,0,0,1,5.638.8c11.93,2.132,22.6,8.127,28.959,18.641,1.933-.627,9.059-3.636,10.686-3.077.292.1.37.463.488.7-.113.184.015.924-.493,1.066-2.186.549-4.354,1.117-6.476,1.867-1.166.412-2.293.943-3.484,1.284v49.338a25.889,25.889,0,0,0,3.484-1.284c12.648-4.045,26.448-4.165,38.7,1.284l.184-50.255ZM97.4,115.746V68.15a35.968,35.968,0,0,0-2.757-4.031c-7.209-8.9-18.347-14-29.707-14.77V98.687c12.783.838,24.956,6.557,32.463,17.056ZM62.914,99.88V65.672l-7.52,2.752v49.338c12.9-5.65,27.244-5.444,40.348-.551.135-.125-.774-1.186-.921-1.37-6.371-7.985-14.535-12.418-24.534-14.349-1.958-.377-4.045-.47-5.952-.836-.488-.093-1.33-.213-1.424-.779Zm34.45,20.112a53.871,53.871,0,0,0-5.7-2.1c-10.46-3.183-22.165-3.369-32.466.463a38.756,38.756,0,0,0-3.776,1.634c-.176.279.061,1.546-.029,1.987,1.629-.38,3.161-1.1,4.768-1.558a59.994,59.994,0,0,1,30.229-.333c2.274.524,4.486,1.262,6.728,1.9.385.02.238,0,.277-.272a8.54,8.54,0,0,0-.032-1.718Zm44.2,0a39.286,39.286,0,0,0-3.776-1.634c-10.365-3.835-21.979-3.595-32.507-.5a51.445,51.445,0,0,0-5.785,2.1c-.25.37,0,1.527-.083,2.026,2.124-.448,4.156-1.2,6.268-1.71a64.053,64.053,0,0,1,24.054-1.379,52.745,52.745,0,0,1,11.587,3.09c.377.042.24-.02.274-.272a8.739,8.739,0,0,0-.029-1.718Zm-44.2,4.219c-.213-.345-6.1-1.9-6.971-2.107-9.362-2.178-19.465-2.583-28.8-.074a50.989,50.989,0,0,0-6.165,2.178c-.181.3.061,1.541-.029,1.987,13.812-3.4,28.256-4.17,42,0-.091-.446.147-1.7-.029-1.987Zm44.2,0a43.424,43.424,0,0,0-4.6-1.73c-11.016-3.376-24.255-2.6-35.171.875-1.767.564-2.757.372-2.384,2.659,1.835-.36,3.624-.885,5.466-1.228a87.5,87.5,0,0,1,32.532.365c1.406.3,2.776.755,4.183,1.044-.091-.446.147-1.7-.029-1.987Z" transform="translate(-53.367 -47.138)" fill="#404053"/>
      <path id="Path_900623" data-name="Path 900623" d="M305.621,86.153c-.252,1.977-2.124,2.769-3.935,2.558-.328-.039-.669-.372-.9-.328-.576.11-3.354,3.065-4.121,3.546l8.076,9.5a3.119,3.119,0,0,1-4.8,3.879l-8.015-9.237-4.065,3.323c-.093.662.184,1.122.1,1.838-.314,2.788-3.553,3.6-5.53,1.774-2.715-2.5-5.06-6.469-7.814-9.061a3.3,3.3,0,0,1,.186-4.031c1.208-1.441,2.59-1.066,4.21-.73,2.11-1.874,4.3-3.658,6.427-5.508.292-.252.512-.635.733-.828,1.835-1.612,3.847-3.055,5.6-4.773-.931-3.5,2.764-6.069,5.5-3.487,2.156,3.134,5.7,6,7.787,9.086a3.174,3.174,0,0,1,.551,2.475Zm-11.053-10.61c-1.3.238-.894,1.642-.314,2.443,2.078,2.872,5.168,5.567,7.329,8.446,1.22,1.2,2.776-.333,1.838-1.656-2.467-2.47-4.55-5.6-6.966-8.074C295.957,76.193,295.362,75.4,294.568,75.543Zm-1.453,3.989L280.182,90.7l6.39,7.4,12.932-11.166ZM276.96,90.767a1.261,1.261,0,0,0-.769,1.982l7.8,9.076A1.239,1.239,0,0,0,286,100.56a4.168,4.168,0,0,0-.742-1.105c-2.119-2.783-4.942-5.337-7.049-8.174a1.324,1.324,0,0,0-1.247-.515ZM295.1,93.322c-.377.282-1.767,1.142-1.509,1.632l7.633,8.887a1.158,1.158,0,0,0,1.8-1.431c-2.205-2.5-4.246-5.175-6.483-7.64a10.414,10.414,0,0,0-1.441-1.448Z" transform="translate(-219.957 -67.067)" fill="#404053"/>
      <path id="Path_900624" data-name="Path 900624" d="M244.784,178.108a26.013,26.013,0,0,1-3.484,1.284V130.054c1.191-.341,2.32-.872,3.484-1.284Z" transform="translate(-195.252 -108.768)" fill="#bac6e5"/>
      <path id="Path_900625" data-name="Path 900625" d="M290.744,231.15a4.891,4.891,0,0,1,2.636,1.125c.936,1.027,1.784,4.9.162,5.261l-23.814.049c-1.335-.039-1.117-2.406-.983-3.386a3.617,3.617,0,0,1,3.651-3.043,3.547,3.547,0,0,1,2.634-3.879c1.683-.4,10.95-.387,12.783-.074a3.264,3.264,0,0,1,2.612,2.156C290.587,229.8,290.68,231.086,290.744,231.15Zm-2.024,0c.069-.811-.257-1.877-1.2-2.007-3.715.24-7.9-.358-11.553-.02-1.279.118-1.72.73-1.551,2.026Zm3.668,4.4a2.337,2.337,0,0,0-.921-2.289l-19.519-.086c-1.22.23-1.3,1.311-1.2,2.374Z" transform="translate(-215.895 -182.906)" fill="#404053"/>
      <path id="Path_900626" data-name="Path 900626" d="M133.033,122.557c-7.508-10.5-19.68-16.221-32.463-17.056V56.16c11.359.774,22.5,5.866,29.707,14.77a35.971,35.971,0,0,1,2.757,4.031ZM108.864,66.206c.363.353,2.247.718,2.489-.088.517-1.713-2.529-2.191-2.722-1.059A1.858,1.858,0,0,0,108.864,66.206Zm7.059.811c-.532.159-.6.862-.463,1.306s1.593.9,2.107,1.2a48.566,48.566,0,0,1,9.465,7.049c1.272.314,1.715-.666.963-1.708-1.409-1.95-7.537-6.194-9.811-7.245a3.968,3.968,0,0,0-2.262-.6Zm-7.057,6.344c.164.162,3.719,1.11,4.406,1.372a43.284,43.284,0,0,1,11.413,6.929c.647.524,2.71,3.149,3.492,1.83.711-1.2-1.549-2.764-2.391-3.482a42.568,42.568,0,0,0-11.913-7.162c-.941-.35-4.048-1.48-4.82-1.161-.5.208-.527,1.34-.184,1.674Zm0,7.152c.189.184,2.757.745,3.354.956a43.637,43.637,0,0,1,14.7,9.338c1.061.478,1.708-.37,1.25-1.446a27.674,27.674,0,0,0-2.384-2.2,41.682,41.682,0,0,0-13.116-7.61c-.779-.255-3.668-1.355-4-.343a1.812,1.812,0,0,0,.2,1.3Zm.463,4.658a.772.772,0,0,0-.689.61l.088,8.532a16.442,16.442,0,0,0,2.73,1.122c.97.451,3.082,1.879,3.778,2.09,1.017.311,1.546-.1,1.664-1.105a46.719,46.719,0,0,0,0-6.978,1.624,1.624,0,0,0-.208-.711c-.529-.926-6.341-3.742-7.363-3.565Zm10.556,7.253c.255.306,2.45,1.534,3.048,1.992A42.191,42.191,0,0,1,126.8,97.88c.8.328,1.705.091,1.6-.889s-5.471-5.123-6.572-5.694c-.522-.272-1.206-.752-1.821-.385a1.15,1.15,0,0,0-.127,1.509Zm0,7.155c.218.265,2.543,1.61,3.149,2.078a40.411,40.411,0,0,1,3.771,3.381c.914.348,1.642-.061,1.465-1.088s-5.334-4.878-6.437-5.5a6.454,6.454,0,0,0-1.085-.578,1.02,1.02,0,0,0-.865,1.705Z" transform="translate(-89.004 -53.949)" fill="#fefefe"/>
      <path id="Path_900627" data-name="Path 900627" d="M69.167,157c.093.566.936.686,1.424.779,1.906.365,3.991.456,5.952.836,10,1.928,18.164,6.363,24.534,14.349.147.184,1.054,1.245.921,1.37-13.106-4.893-27.448-5.1-40.348.551V125.542l7.52-2.752V157Z" transform="translate(-59.62 -104.253)" fill="#bac6e5"/>
      <path id="Path_900628" data-name="Path 900628" d="M283.211,349.683c.176.287-.061,1.541.029,1.987-1.406-.287-2.776-.745-4.183-1.044a87.5,87.5,0,0,0-32.532-.365c-1.843.343-3.634.865-5.466,1.228-.372-2.288.617-2.1,2.384-2.659,10.916-3.477,24.155-4.251,35.171-.875a41.99,41.99,0,0,1,4.6,1.73Z" transform="translate(-195.012 -272.61)" fill="#7887b6"/>
      <path id="Path_900629" data-name="Path 900629" d="M103.494,349.661c.176.287-.061,1.541.029,1.987-13.743-4.17-28.185-3.4-42,0,.091-.446-.147-1.7.029-1.987a52.139,52.139,0,0,1,6.165-2.178c9.338-2.509,19.44-2.1,28.8.073.87.2,6.758,1.759,6.971,2.107Z" transform="translate(-59.497 -272.589)" fill="#7887b6"/>
      <path id="Path_900630" data-name="Path 900630" d="M283.35,330.653a8.543,8.543,0,0,1,.029,1.718c-.037.257.1.314-.274.272a52.843,52.843,0,0,0-11.587-3.09,64.053,64.053,0,0,0-24.054,1.379c-2.112.51-4.143,1.262-6.268,1.71.086-.5-.167-1.654.083-2.026a51.436,51.436,0,0,1,5.785-2.1c10.531-3.09,22.143-3.33,32.507.5a39.028,39.028,0,0,1,3.776,1.634Z" transform="translate(-195.15 -257.799)" fill="#7887b6"/>
      <path id="Path_900631" data-name="Path 900631" d="M103.494,330.6a8.543,8.543,0,0,1,.032,1.718c-.039.272.108.292-.277.272-2.242-.635-4.455-1.372-6.728-1.9a59.994,59.994,0,0,0-30.229.333c-1.607.461-3.139,1.179-4.768,1.558.091-.441-.147-1.708.029-1.987a39.92,39.92,0,0,1,3.776-1.634c10.3-3.832,22.006-3.646,32.466-.463a53.145,53.145,0,0,1,5.7,2.1Z" transform="translate(-59.497 -257.751)" fill="#7887b6"/>
      <rect id="Rectangle_404540" data-name="Rectangle 404540" width="17.086" height="9.776" transform="translate(60.225 23.629) rotate(-40.81)" fill="#e18582"/>
      <path id="Path_900632" data-name="Path 900632" d="M282.814,143.8a1.337,1.337,0,0,1,1.247.515c2.107,2.837,4.93,5.391,7.049,8.174a4.227,4.227,0,0,1,.742,1.105,1.24,1.24,0,0,1-2.009,1.264l-7.8-9.076a1.261,1.261,0,0,1,.769-1.982Z" transform="translate(-225.811 -120.096)" fill="#9f5959"/>
      <path id="Path_900633" data-name="Path 900633" d="M355.217,81.677c.794-.145,1.389.649,1.887,1.159,2.416,2.472,4.5,5.6,6.966,8.074.938,1.323-.617,2.857-1.838,1.656-2.161-2.877-5.251-5.574-7.329-8.446C354.325,83.321,353.918,81.914,355.217,81.677Z" transform="translate(-280.606 -73.201)" fill="#9f5959"/>
      <path id="Path_900634" data-name="Path 900634" d="M355.319,154.289a10.552,10.552,0,0,1,1.441,1.448c2.237,2.465,4.276,5.143,6.483,7.64a1.158,1.158,0,0,1-1.8,1.431l-7.633-8.887c-.257-.49,1.13-1.35,1.509-1.632Z" transform="translate(-280.172 -128.034)" fill="#9f5959"/>
      <path id="Path_900635" data-name="Path 900635" d="M298.776,254.694H277.133c-.093-1.063-.017-2.144,1.2-2.374l19.519.086A2.337,2.337,0,0,1,298.776,254.694Z" transform="translate(-222.284 -202.045)" fill="#9f5959"/>
      <path id="Path_900636" data-name="Path 900636" d="M306.39,237.479H292.083c-.169-1.3.272-1.909,1.551-2.026,3.656-.338,7.838.26,11.553.02C306.133,235.6,306.459,236.668,306.39,237.479Z" transform="translate(-233.566 -189.23)" fill="#e18582"/>
      <path id="Path_900637" data-name="Path 900637" d="M134.188,174.536c1.019-.176,6.834,2.641,7.363,3.565a1.624,1.624,0,0,1,.208.711,46.719,46.719,0,0,1,0,6.978c-.118,1-.647,1.414-1.664,1.105-.693-.211-2.808-1.639-3.778-2.09a16.745,16.745,0,0,1-2.73-1.122l-.088-8.532a.767.767,0,0,1,.689-.61Zm5.547,9.691v-5.043a15.832,15.832,0,0,0-4.4-2.293v5.5l4.4,1.835Z" transform="translate(-113.865 -143.314)" fill="#404053"/>
      <path id="Path_900638" data-name="Path 900638" d="M133.725,121.031c-.341-.333-.319-1.465.184-1.674.772-.319,3.876.811,4.82,1.161a42.568,42.568,0,0,1,11.913,7.162c.84.718,3.1,2.284,2.391,3.482-.782,1.316-2.845-1.306-3.492-1.83a43.31,43.31,0,0,0-11.413-6.929c-.686-.262-4.239-1.21-4.406-1.372Z" transform="translate(-113.862 -101.62)" fill="#404053"/>
      <path id="Path_900639" data-name="Path 900639" d="M133.677,150.242a1.812,1.812,0,0,1-.2-1.3c.333-1.014,3.222.088,4,.343a41.634,41.634,0,0,1,13.116,7.61,27.7,27.7,0,0,1,2.384,2.2c.458,1.076-.189,1.921-1.25,1.446a43.637,43.637,0,0,0-14.7-9.338c-.6-.211-3.163-.772-3.354-.956Z" transform="translate(-113.817 -123.679)" fill="#404053"/>
      <path id="Path_900640" data-name="Path 900640" d="M161.618,100.336a3.94,3.94,0,0,1,2.262.6c2.274,1.051,8.4,5.293,9.811,7.245.752,1.041.309,2.021-.963,1.708a48.542,48.542,0,0,0-9.465-7.049c-.515-.292-1.972-.762-2.107-1.2s-.069-1.144.463-1.306Z" transform="translate(-134.699 -87.268)" fill="#404053"/>
      <path id="Path_900641" data-name="Path 900641" d="M178.709,199.1a1.147,1.147,0,0,1,.127-1.509c.615-.368,1.3.113,1.821.385,1.1.571,6.464,4.707,6.572,5.694s-.806,1.218-1.6.889a41.829,41.829,0,0,0-3.871-3.465c-.6-.461-2.791-1.688-3.048-1.992Z" transform="translate(-147.83 -160.624)" fill="#404053"/>
      <path id="Path_900642" data-name="Path 900642" d="M178.611,228.042a1.02,1.02,0,0,1,.865-1.705,6.634,6.634,0,0,1,1.085.578c1.1.617,6.268,4.518,6.437,5.5s-.551,1.436-1.465,1.088a40.4,40.4,0,0,0-3.771-3.381c-.605-.468-2.928-1.811-3.149-2.078Z" transform="translate(-147.732 -182.413)" fill="#404053"/>
      <path id="Path_900643" data-name="Path 900643" d="M133.664,91.734a1.855,1.855,0,0,1-.233-1.147c.194-1.132,3.239-.654,2.722,1.059C135.911,92.452,134.025,92.086,133.664,91.734Z" transform="translate(-113.804 -79.477)" fill="#404053"/>
      <path id="Path_900644" data-name="Path 900644" d="M145.391,191.5l-4.4-1.835v-5.5a15.765,15.765,0,0,1,4.4,2.293V191.5Z" transform="translate(-119.52 -150.586)" fill="#bac6e5"/>
    </g>
  </g>
</svg>
