<svg xmlns="http://www.w3.org/2000/svg" width="610" height="381.969" viewBox="0 0 610 381.969">
  <g id="Group_1115153" data-name="Group 1115153" transform="translate(-810.051 -4584)">
    <rect id="Rectangle_407034" data-name="Rectangle 407034" width="610" height="357" rx="20" transform="translate(810.051 4584)" fill="#5ab4f9"/>
    <g id="Group_1113688" data-name="Group 1113688" transform="translate(0 -14)">
      <path id="Path_909445" data-name="Path 909445" d="M609.949,382h0Z" transform="translate(810.051 4597.968)" fill="#fff"/>
      <g id="_2" data-name="2" transform="translate(862.047 4600)">
        <path id="Path_900946" data-name="Path 900946" d="M470.353,556.876c.42-.041,1.652-1.231,2.847-.677a60.866,60.866,0,0,1-2.128,18.258,457.739,457.739,0,0,1,48.4,2.043l-1.217,1.2c-24.865,1.664-49.724,1.711-74.625,2.144-108.787,1.908-217.844,1.488-326.688,0-20.637-.284-41.373.142-61.989-.622-7.681-.284-17.234-.507-24.716-1.549-.619-.088-2.143-.3-1.943-1.177,9.98-1.414,20.188-.988,30.283-1.333,1.687-.054,3.239-.683,4.926-.731,9.19-.277,19.5,1.285,28.147-1.326A24.2,24.2,0,0,0,107,575.865c1.324-.162.925-1.279,1.5-1.4,1.046-.216,2.242.183,3.3-.014.6-.115.47-1.826,1.908-1.346-.014.494-.306,1.468.448,1.36,3.175-.3,6.514,1.116,9.518,1.346,6.521.5,10.906-1.1,15.661-1.353,19.576-1.021,44.5,2.314,63.043.054,1.431-.176.448-1.191,2.449-1.407,1.758-.19,3.851.054,5.695,0,.477-.014.947.007,1.424,0s.947.007,1.424,0,.947,0,1.424,0h1.424c1.424-.014,2.847.013,4.271,0,6.158-.054,12.351,0,18.508,0h19.932c.84,4.843,4.4,3.416,5.695-.677l29.186.677c.306,4.3,3.915,3.362,4.983,0,4.805-.406,10.386.866,14.949-.677,3.659.994,7.076.169,10.279.717,1.274.216,2.221,1.285,3.374,1.529a74.391,74.391,0,0,0,25.093.419,3.88,3.88,0,0,0,3.246-1.989c1.032.169,2.7-.25,3.559,0,.32.095.541,1.454,1.78,1.434,1.68-.027,2.584-1.333,3.2-1.434a39.076,39.076,0,0,1,7.119,0c.52.068,1.381,1.346,2.491,1.346s1.979-1.279,2.492-1.346a117.484,117.484,0,0,1,17.8,0c.164.02.918,1.163,1.858,1.231,1.281.088,2.235-1.1,3.125-1.231.349-.054,6.784-.122,7.119,0s.626,1.245,1.239,1.36c1.4.271,2.413-.67,3.033-.683,1.694-.047,8.393-.325,9.254,0,1.232.46,4.449,5.7,4.271-.676h29.9c.036.054.968-.19,1.253.149.534.643-.085,2.084.221,2.523.171.257,1.046-.068,1.374.034,2.563.8,9.268,1.529,11-.71,2.734-3.531,2.427-13.813,2.527-18.231Z" transform="translate(-28.275 -202.809)" fill="#d8dadd"/>
        <g id="Group_1111465" data-name="Group 1111465" transform="translate(280.392 173.309)">
          <path id="Path_900947" data-name="Path 900947" d="M487.216,430.261c.306,1.035-.982,2.584,1.046,2.713a47.746,47.746,0,0,0,5.738,0c2.029-.129.74-1.678,1.046-2.713,5.175.034,10.393-.108,15.568.088a78.682,78.682,0,0,1,2.228,8.03c-4.627,5.243-4.478,12.6-5.695,18.941-10.649,3.091-21.712,4.634-32.8,5.709a4.03,4.03,0,0,0-2.534,2.422,1.632,1.632,0,0,0,.448,2.016c-.876,16.053-.847,32.173-2.136,48.029-3.025,1.339-6.691.433-9.966.677-1.616-3.646-1.787-3.694-2.136-8.118-.256-3.328.854-7.2-1.068-10.154-.676.013-.278,8.882-.356,10.154-.192,3.227-1.082,3.714-1.424,5.412-2.933.352-6.841-.825-9.254.677-.164-.467-1.822-.934-2.157-3.707-1.986-16.743-4.271-42.015-3.538-58.528.043-.893-.078-1.82,0-2.706,6.065-11.98,23.556-11.933,35.451-16.7,1.26-.507,2.37-.474,2.278-2.239C481.037,430.254,484.141,430.248,487.216,430.261Z" transform="translate(-427.326 -335.414)" fill="#060c2a"/>
          <path id="Path_900948" data-name="Path 900948" d="M440.761,561.264c1.908.223,3.211,3.707,8.051,2.692.363-.074,1.523-2.5,3.339-2.016A6.9,6.9,0,0,0,455,563.97c2.776,1.583,9.062,5.439,9.966,0,4.236-.237,4.072,5.148,4.271,8.118v1.353c-.078.426.128,1.136,0,1.353a3.88,3.88,0,0,1-3.246,1.989,74.388,74.388,0,0,1-25.093-.419c-1.146-.244-2.093-1.312-3.374-1.529-3.211-.548-6.62.277-10.279-.717-2.264-.615-6.428-3.43-4.656-6.108,1.082-1.637,7.546-2.1,9.838-2.841,2.143-.69,6.969-4.072,8.343-3.91Z" transform="translate(-422.159 -377.8)" fill="#060c2a"/>
          <g id="Group_1111463" data-name="Group 1111463" transform="translate(40.669)">
            <path id="Path_900949" data-name="Path 900949" d="M521.79,352.755c6.086-.8,9.76-7.157,13.177-11.5,1.474-.331,2.036,2.07,3,2.726.683.467,4.6,2.537,5.41,2.875,2.392.981,1.1-.954,2.612,1.163,5.609,7.847,7.816,15.078,8.535,24.7.363,4.864,1.523,15.058-4.762,16.425-2.093.453-5.809-.947-5.9,2.171-.413-1.258-1.5-1.623-2.847-1.36-.164.758.221,3.173,0,3.389-.256.25-6.57.156-7.346-.02a41.171,41.171,0,0,0-12.593-1.339c.7-.961,2.62-.507,3.253-1.306.577-.724.548-6.061-.021-6.832-.114-.149-3.054-1.928-3.232-2-.676-3.7,2.164-6.656,4.271-9.471.683-.913,4.257-2.9,1.054-4.052-1.972-.71-2.712,1.975-3.189,2.7-.4.6-1.417,2.537-1.538,2.631s-.52-.6-.6-.6c-.384-7.678-1.246-12.691.712-20.294Zm17.8,29.095c.5.453,3.929-.047,3.524-1.637l-4.235-14.6c.42,2.063.093,15.674.7,16.235Z" transform="translate(-491.18 -306.614)" fill="#fefefe"/>
            <path id="Path_900950" data-name="Path 900950" d="M502.07,341.221c-.206,3.416.384,6.115,4.271,6.765a19.843,19.843,0,0,0-2.193,1.806c-.263,1.177.769,2.185.769,2.591V362.53c0,.243-.69,1.123-.74,2-.256,4.857-.605,9.714-.683,14.571-2.506.419-.206.6-1.424,2.706-5.873.7-3.431,5.5-4.271,9.471-2.84-.027-5.709.02-8.55,0,.214-2.76-.555-5.385-.7-8.124-.484-8.51.363-17.182,0-25.7-.876-1.1-1.288.014-1.424,1-.954,7.116,1.046,15.931-2.847,22.675-1.844-2.388-3.317-4.952-4.983-7.441,1.829-7.171,3.3-23.169,10.03-27.336,2.826-1.752,6.506-1.84,9.026-2.875C499.592,342.967,499.642,340.606,502.07,341.221Z" transform="translate(-479.29 -306.58)" fill="#f8f9fc"/>
            <path id="Path_900951" data-name="Path 900951" d="M523.311,309.82c-1.331-1.394.078-6.149-3.574-4.411-3.1,1.475-1.837,8.578-3.189,11.182-.662,1.272-6.457,4.553-8.186,4.735-4.819.514-3.538-.906-4.983-3.382,1.58-.663,3.118.345,5.161-.162,5.154-1.265,10.585-9.822,5.453-14.328-5.061-4.438-9.24-4.14-14.885-1.076-.192-1.827-.747-2.544-.249-4.586,2.762-11.311,28.368-11,26.51,6.2-.249,2.327-1.338,3.849-2.057,5.824Z" transform="translate(-484.87 -290.061)" fill="#060c2a"/>
            <path id="Path_900952" data-name="Path 900952" d="M517.561,351.252c2.6,2.611,3.04,1.218,2.136,4.735-1.958,7.6-1.1,12.616-.712,20.294-.484-.034-2.577,5.256-3.737,5.933-.69.406-1.381.054-1.958.156.078-4.857.427-9.714.683-14.571.05-.879.74-1.759.74-2V355.649c0-.406-1.039-1.414-.769-2.591a19.817,19.817,0,0,1,2.193-1.806C516.508,351.124,517.212,351.381,517.561,351.252Z" transform="translate(-489.087 -309.846)" fill="#060c2a"/>
            <path id="Path_900953" data-name="Path 900953" d="M516.68,401.151c.178.074,3.125,1.854,3.232,2,.569.771.6,6.109.021,6.832-.634.8-2.556.345-3.253,1.306-.235,0-.477-.007-.712,0-.47.014-.954-.027-1.424,0-.99-1.211-3.41-.609-4.983-.676s-2.826.013-4.271,0c.84-3.971-1.6-8.767,4.271-9.471,1.374-.162,6.051-.453,7.119,0Z" transform="translate(-486.781 -325.921)" fill="#d5945f"/>
            <path id="Path_900954" data-name="Path 900954" d="M520.544,385.249c1.182-.237,1.587.507,2.136,1.353-2.107,2.814-4.947,5.77-4.271,9.471-1.068-.453-5.745-.162-7.119,0,1.217-2.1-1.082-2.286,1.424-2.706.577-.095,1.267.25,1.958-.156,1.16-.676,3.26-5.966,3.737-5.933.078,0,.463.717.6.6C519.128,387.785,520.153,385.844,520.544,385.249Z" transform="translate(-488.51 -320.843)" fill="#6274b6"/>
            <path id="Path_900955" data-name="Path 900955" d="M547.015,393.515c-.619-.561-.292-14.172-.7-16.235l4.236,14.6c.4,1.583-3.033,2.083-3.524,1.637Z" transform="translate(-498.601 -318.279)" fill="#d8dadd"/>
            <path id="Path_900956" data-name="Path 900956" d="M524.29,383.923c.477-.717,1.217-3.409,3.189-2.7,3.2,1.157-.37,3.139-1.054,4.052C525.877,384.43,525.472,383.686,524.29,383.923Z" transform="translate(-492.256 -319.517)" fill="#d5945f"/>
            <path id="Path_900957" data-name="Path 900957" d="M485.714,388.729c3.887-6.744,1.894-15.559,2.847-22.675.135-.988.541-2.1,1.424-1,.363,8.523-.477,17.2,0,25.7-2.264.8-4.819,4.248-5.695,0,.94-.047,1.9.041,2.84,0C487.686,389.088,486.276,389.46,485.714,388.729Z" transform="translate(-480.731 -314.177)" fill="#d8dadd"/>
          </g>
          <path id="Path_900958" data-name="Path 900958" d="M464.092,545.27c.349,4.424.52,4.471,2.136,8.118.84,1.9,1.2,3.511,0,5.412a6.9,6.9,0,0,1-2.847-2.029c-1.417-1.617-2.627-3.687-2.136-6.088.342-1.7,1.232-2.185,1.424-5.412Z" transform="translate(-433.389 -372.629)" fill="#e2e8f6"/>
          <path id="Path_900959" data-name="Path 900959" d="M464.695,540.414h-1.424c.078-1.272-.32-10.14.356-10.154C465.549,533.209,464.439,537.086,464.695,540.414Z" transform="translate(-433.992 -367.773)" fill="#acbbf5"/>
          <path id="Path_900960" data-name="Path 900960" d="M488.29,578.623V577.27C488.34,577.987,488.511,577.371,488.29,578.623Z" transform="translate(-441.214 -382.982)" fill="#d8dadd"/>
          <g id="Group_1111464" data-name="Group 1111464" transform="translate(18.538 10.03)">
            <path id="Path_900961" data-name="Path 900961" d="M503.561,322.734c-2.634-4.519-3.716-10.33-4.271-15.559,5.652-3.071,9.831-3.369,14.885,1.076,5.133,4.505-.3,13.063-5.453,14.328-2.043.5-3.588-.5-5.161.162Z" transform="translate(-462.921 -304.888)" fill="#d5945f"/>
            <path id="Path_900962" data-name="Path 900962" d="M526.939,316.978c-1.765,4.884-3.965,4.918-.94,10,.4.676,1.509.778,1.637,1.3,1.609,6.69-5.823,8.564-10.657,10.35-.349.129-1.054-.129-1.424,0-3.887-.649-4.478-3.349-4.271-6.765.028-.446,1.4-2.172.712-3.382,1.73-.183,7.524-3.464,8.186-4.735,1.353-2.6.086-9.707,3.189-11.182,3.652-1.732,2.242,3.017,3.574,4.411Z" transform="translate(-466.367 -307.249)" fill="#d5945f"/>
            <path id="Path_900963" data-name="Path 900963" d="M457.518,553.217c-.491,2.4.719,4.471,2.136,6.088-1.815-.48-2.976,1.941-3.339,2.016-4.841,1.022-6.136-2.469-8.051-2.692-.256-1.3.37-3.694,0-4.735C450.677,552.392,454.586,553.569,457.518,553.217Z" transform="translate(-448.201 -385.195)" fill="#d5945f"/>
            <path id="Path_900964" data-name="Path 900964" d="M478.256,562.358c-.9,5.439-7.19,1.583-9.966,0,1.2-1.9.84-3.511,0-5.412,3.275-.243,6.941.663,9.966-.676C478.1,558.2,478.555,560.559,478.256,562.358Z" transform="translate(-453.989 -386.218)" fill="#d5945f"/>
          </g>
        </g>
        <g id="Group_1111486" data-name="Group 1111486" transform="translate(11.231 0)">
          <path id="Path_900965" data-name="Path 900965" d="M170.587,172.178c.214.108,3.445,2.6,3.709,2.889,2.47,2.591,3.417,7.461-.626,3.971-1.4-1.2-2.712-4.789-2.947-4.972-.335-.271-7.2-.731-8.443-.785v-2.023c3.04.041,5.538-.5,8.3.927Z" transform="translate(-78.117 -78.293)" fill="#d8dadd"/>
          <path id="Path_900966" data-name="Path 900966" d="M125.832,217.72c-1.039.954-8.834-2.983-8.535-4.384,1.125-1.5,1.31-.859,2.627-.487C122.294,213.52,126.344,214.785,125.832,217.72Z" transform="translate(-65.154 -91.623)" fill="#d8dadd"/>
          <path id="Path_900967" data-name="Path 900967" d="M154.636,220.907c-1.587,1.576-7.6-5.7-6.4-6.758C150.244,212.4,156.01,219.547,154.636,220.907Z" transform="translate(-74.025 -92.103)" fill="#ccd6f9"/>
          <path id="Path_900968" data-name="Path 900968" d="M650.273,455.876c.1-.8-.278-1.955.121-2.591.214-.345,7.183-3.795,7.7-1.793C658.445,453.069,652.152,456.634,650.273,455.876Z" transform="translate(-218.707 -168.779)" fill="#d8dadd"/>
          <path id="Path_900969" data-name="Path 900969" d="M542.249,143.194c1.217-1.164,7.4,3.66,7.112,5.06C547.3,151.65,541.174,144.222,542.249,143.194Z" transform="translate(-187.564 -69.178)" fill="#d8dadd"/>
          <path id="Path_900970" data-name="Path 900970" d="M736.065,350.236c.335.3.683,8.6-1.765,8.118-1.452-.291-1.4-7.827-1.075-8.118A14.229,14.229,0,0,1,736.065,350.236Z" transform="translate(-242.574 -136.197)" fill="#dee2fa"/>
          <path id="Path_900971" data-name="Path 900971" d="M133.419,221.267c1.011-.2,6.991,3.9,6.741,5.067-.612,2.943-7.076-2.293-7.5-3.01a1.357,1.357,0,0,1,.755-2.05Z" transform="translate(-69.523 -94.493)" fill="#d8dadd"/>
          <path id="Path_900972" data-name="Path 900972" d="M102.822,275.886c-1.417-.223-9.119.974-8.535-1.678C94.622,272.707,104.367,271.949,102.822,275.886Z" transform="translate(-58.517 -111.23)" fill="#d8dadd"/>
          <path id="Path_900973" data-name="Path 900973" d="M734.532,341.546a9.338,9.338,0,0,1-2.762-.074c-.306-.237-1.958-6.92-1.5-7.36C732.582,331.886,735.251,340.9,734.532,341.546Z" transform="translate(-241.753 -130.89)" fill="#d8dadd"/>
          <path id="Path_900974" data-name="Path 900974" d="M566.245,166.224c1.1-1.015,8.891,4.8,5.325,6.758C570,173.272,565.256,167.144,566.245,166.224Z" transform="translate(-194.476 -76.648)" fill="#d8dadd"/>
          <path id="Path_900975" data-name="Path 900975" d="M185.1,205.236c.384.352.448,10.052-2.84,8.124.214-1.285-.306-7.847,0-8.124A14.232,14.232,0,0,1,185.1,205.236Z" transform="translate(-83.846 -89.285)" fill="#dee2fa"/>
          <path id="Path_900976" data-name="Path 900976" d="M636.273,463.793c.1-.8-.278-1.955.121-2.591.221-.352,7.147-4.221,7.7-1.793C644.417,460.823,636.736,464.287,636.273,463.793Z" transform="translate(-214.673 -171.284)" fill="#ccd6f9"/>
          <path id="Path_900977" data-name="Path 900977" d="M86.707,271.341a5.779,5.779,0,0,1,.057,1.962c-.591.575-10.087-1.15-8.542-4.052.463-.453,8.243,1.739,8.478,2.09Z" transform="translate(-53.848 -109.999)" fill="#ccd6f9"/>
          <path id="Path_900978" data-name="Path 900978" d="M143.184,266.418c-1.552-1.7,3.666-5.121,4.976-5.757a1.436,1.436,0,0,1,2.136.7C150.979,263.78,143.5,266.77,143.184,266.418Z" transform="translate(-72.533 -107.173)" fill="#d8dadd"/>
          <path id="Path_900979" data-name="Path 900979" d="M692.236,428.433c-1.346-1.231,6.385-8.381,7.112-5.06C699.59,424.462,694.251,429.61,692.236,428.433Z" transform="translate(-230.772 -159.6)" fill="#d8dadd"/>
          <path id="Path_900980" data-name="Path 900980" d="M704.224,417.033c-1.224-1.164,3.865-7.042,5.325-6.758C712.837,410.925,705.776,418.5,704.224,417.033Z" transform="translate(-234.217 -155.642)" fill="#ccd6f9"/>
          <path id="Path_900981" data-name="Path 900981" d="M720.075,397.189c.32.318-.1,2.51-.655,3.091-.99.636-2.8,4.789-3.958,4.336-3.118-1.218,3.125-8.9,4.613-7.434Z" transform="translate(-237.261 -151.349)" fill="#d8dadd"/>
          <path id="Path_900982" data-name="Path 900982" d="M148.047,232.221c.356.183,5.182,6.108,2.634,6.609S142.067,229.137,148.047,232.221Z" transform="translate(-73.281 -97.851)" fill="#d8dadd"/>
          <path id="Path_900983" data-name="Path 900983" d="M70.184,210.108c-2.029-3.261,7.332-5.919,7.823-3.707C78.349,207.937,70.554,210.494,70.184,210.108Z" transform="translate(-51.498 -89.422)" fill="#dee2fa"/>
          <path id="Path_900984" data-name="Path 900984" d="M155.118,173.194c1.623,1.488-4.656,4.641-5.695,5.08s-1.965.061-2.128-.7C146.931,175.92,153.979,172.153,155.118,173.194Z" transform="translate(-73.796 -78.884)" fill="#d8dadd"/>
          <path id="Path_900985" data-name="Path 900985" d="M109.892,208.389c.384.6,0,1.82.1,2.6-.491.5-10.009-2.557-7.823-4.729C102.481,205.954,109.678,208.064,109.892,208.389Z" transform="translate(-60.703 -89.631)" fill="#ccd6f9"/>
          <path id="Path_900986" data-name="Path 900986" d="M175.278,228.711c-.569-.534,3.424-7.678,4.613-7.434C183.3,221.967,177.221,230.551,175.278,228.711Z" transform="translate(-81.847 -94.496)" fill="#d8dadd"/>
          <path id="Path_900987" data-name="Path 900987" d="M515.192,124.207c1.075-.988,8.094,3.058,7.823,4.384s-1.687.859-2.641.494-6.748-3.443-5.182-4.877Z" transform="translate(-179.727 -63.043)" fill="#d8dadd"/>
          <path id="Path_900988" data-name="Path 900988" d="M65.223,260.228c.876-.866,7.41,3.7,7.112,5.06C71.609,268.63,63.721,261.716,65.223,260.228Z" transform="translate(-50.097 -107.065)" fill="#d8dadd"/>
          <path id="Path_900989" data-name="Path 900989" d="M65.12,214.187c.911.866-3.054,6.379-3.908,7.428C56.848,220.187,63.561,212.7,65.12,214.187Z" transform="translate(-48.578 -92.141)" fill="#ccd6f9"/>
          <path id="Path_900990" data-name="Path 900990" d="M728.251,382.126c.99.954-2.911,9.362-4.976,7.434C722.727,389.046,726.038,380,728.251,382.126Z" transform="translate(-239.743 -146.434)" fill="#ccd6f9"/>
          <path id="Path_900991" data-name="Path 900991" d="M686.3,435.93c-.192.325-6.229,3.558-7.033,2.774a6.671,6.671,0,0,1,.114-2.6c.142-.162,1.68-.331,2.385-.737.762-.44,2.534-1.962,2.9-2.016,1.367-.2,2.207,1.6,1.623,2.584Z" transform="translate(-227.059 -163.107)" fill="#ccd6f9"/>
          <path id="Path_900992" data-name="Path 900992" d="M535.365,136.138a3.136,3.136,0,0,1,.947,2.483c-1.972,1.109-8.72-3.883-7.111-5.4C530.041,132.424,534.668,135.353,535.365,136.138Z" transform="translate(-183.77 -65.964)" fill="#d8dadd"/>
          <path id="Path_900993" data-name="Path 900993" d="M135.835,269.264c-.548,3.234-5.9,3.45-8.535,3.376C127.827,268.98,132.988,269.183,135.835,269.264Z" transform="translate(-68.038 -110.013)" fill="#ccd6f9"/>
          <path id="Path_900994" data-name="Path 900994" d="M629.1,468.961c-.256.331-7.845,4.147-7.8,1.718.014-.521,5.453-4.194,6.115-4.343,1.381-.3,2.221,1.908,1.68,2.618Z" transform="translate(-210.381 -173.773)" fill="#ccd6f9"/>
          <path id="Path_900995" data-name="Path 900995" d="M119.822,273.241c.392,3.3-8.137,3.484-8.535,1.678C110.7,272.267,118.406,273.464,119.822,273.241Z" transform="translate(-63.415 -111.284)" fill="#ccd6f9"/>
          <path id="Path_900996" data-name="Path 900996" d="M60.36,245.191c.448.271,4.428,10.553-.356,6.771C58.4,250.691,56.964,243.135,60.36,245.191Z" transform="translate(-48.152 -102.121)" fill="#ccd6f9"/>
          <path id="Path_900997" data-name="Path 900997" d="M501.29,117.585v-1.353c2.954-.534,5.182,1.766,7.83,3.051C507.868,123.4,503.233,118.424,501.29,117.585Z" transform="translate(-175.799 -60.487)" fill="#ccd6f9"/>
          <path id="Path_900998" data-name="Path 900998" d="M161.381,225.27c1.2.859,7.062,2.861,6.741,4.39C167.446,232.9,156.961,226.075,161.381,225.27Z" transform="translate(-77.546 -95.79)" fill="#ccd6f9"/>
          <path id="Path_900999" data-name="Path 900999" d="M143.338,200.183c.52.311,3.5,6.291,1.146,7.346-1.246.555-1.082-.8-1.4-1.333C141.971,204.309,139.587,197.93,143.338,200.183Z" transform="translate(-72.075 -87.52)" fill="#d8dadd"/>
          <path id="Path_901000" data-name="Path 901000" d="M94.114,206.9c-.3.291-8.336.636-7.823-1.678S96.883,204.225,94.114,206.9Z" transform="translate(-56.215 -88.917)" fill="#ccd6f9"/>
          <path id="Path_901001" data-name="Path 901001" d="M554.239,156.308c-.605-.7.69-2.347,2.356-1.921.776.2,4.926,4.167,4.755,4.965-.641,2.956-4.7-1.786-5.353-2.374A4.547,4.547,0,0,0,554.239,156.308Z" transform="translate(-191.012 -72.834)" fill="#d8dadd"/>
          <path id="Path_901002" data-name="Path 901002" d="M143.844,184.267c-.214,1.042-1.139,7.177-1.424,7.441-.142.129-1.552-.088-2.128,0C140.292,189.151,139.786,183.821,143.844,184.267Z" transform="translate(-71.776 -82.516)" fill="#d8dadd"/>
          <path id="Path_901003" data-name="Path 901003" d="M672.3,443.209c1.879,1.752-6.35,5.452-7.112,4.729C663.36,446.2,671.268,442.248,672.3,443.209Z" transform="translate(-222.945 -166.252)" fill="#d8dadd"/>
          <path id="Path_901004" data-name="Path 901004" d="M733.653,367.093c.384.352-.9,7.84-3.189,7.434-1.545-.271-.548-1.718-.42-2.4C730.244,371.071,731.539,365.145,733.653,367.093Z" transform="translate(-241.586 -141.548)" fill="#d8dadd"/>
          <path id="Path_901005" data-name="Path 901005" d="M157.127,253.646h-2.84c1.345-1.6-.285-7.177,0-7.441a2.231,2.231,0,0,1,2.734,1.116c.562,1.739-.142,4.424.107,6.325Z" transform="translate(-75.804 -102.512)" fill="#d8dadd"/>
          <path id="Path_901006" data-name="Path 901006" d="M726.938,327.259c-1.595,1.488-6.663-5.189-5.688-6.081C722.837,319.73,728.262,326.021,726.938,327.259Z" transform="translate(-239.141 -126.749)" fill="#d8dadd"/>
          <path id="Path_901007" data-name="Path 901007" d="M708.288,312.27c7.446,1.211,10.009,7.576,0,2.706C708.366,314.09,708.259,313.163,708.288,312.27Z" transform="translate(-235.441 -123.937)" fill="#ccd6f9"/>
          <path id="Path_901008" data-name="Path 901008" d="M183.4,189.164c.755.44,1.061,7.13.776,7.394h-2.128c.491-1.651-2.442-9.619,1.36-7.394Z" transform="translate(-83.635 -83.982)" fill="#d8dadd"/>
          <rect id="Rectangle_404568" data-name="Rectangle 404568" width="2.157" height="7.448" transform="translate(9.417 132.186)" fill="#d8dadd"/>
          <path id="Path_901009" data-name="Path 901009" d="M500.714,116.264v1.353c-.292-.129-1,.088-1.424,0,0-.453.014-.9,0-1.353C499.746,116.21,500.279,116.345,500.714,116.264Z" transform="translate(-175.222 -60.519)" fill="#ecf0fd"/>
          <g id="Group_1111466" data-name="Group 1111466" transform="translate(219.431 256.573)">
            <path id="Path_901010" data-name="Path 901010" d="M472.6,415.26a41.17,41.17,0,0,1,12.593,1.339c.776.176,7.09.271,7.347.02.221-.216-.164-2.632,0-3.389,1.338-.271,2.434.1,2.847,1.36.185.568-.477,1.847.392,2.07,2.029.514,9.582-.034,12.422-.041s5.937-.683,7.831-.677a19.417,19.417,0,0,0,3.154.7c2.9.014,20.06-.46,20.95.068,1.267.751,1.274,8.023-.968,8.023H528.842c2.4,10.844,4.805,21.728,7.446,32.531.221.9,1.018,1.644,1.1,1.969.861,3.5.954,7.36,2.136,10.823-2.669-.088-3.666,2.55-5.695,4.059-.007-.812-.6-1.847-.712-2.706L520.229,424.8a45.754,45.754,0,0,0-4.912-.068c-2.6-.061-5.232-.014-7.831,0-3.04.014-10-.568-12.337-.027-1.78.413-.641,3.267-.477,4.086.32,1.651,1.082,3.234,1.424,4.735,1.338,5.892,2.883,11.723,4.271,17.588.9,3.781,1.943,7.685,2.847,11.5,3.979,16.783,8.407,33.871,12.1,50.735a78.171,78.171,0,0,1,2.136,13.529c.178,6.372-3.04,1.137-4.271.677a33.5,33.5,0,0,0-1.63-8.26c-4.349-15.877-8.571-31.862-13.226-47.65-.413-1.4.6-2.219-1.516-.913,1.146-3.9-1.716-11.229-2.848-15.559-.769-2.936-2.121-5.594-2.847-8.118-.605-2.1.178-5.676-2.136-7.441.32-3.213-.8-4.241-1.424-6.765a78.712,78.712,0,0,0-2.228-8.03c-5.175-.2-10.386-.054-15.568-.088-2.605-.014-5.225.014-7.83,0-3.075-.014-6.179-.007-9.254,0-10.92.027-21.883-.264-32.8.291-1,6.19-4.4,12.623-4.933,18.65-.078.886.043,1.813,0,2.706l-2.506,5.4c-7.4,24.644-12.536,50.627-20.274,75.095-1.068,3.362-4.677,4.3-4.983,0l24.2-102.147H386.113c-2.477,4.4-3.609,9.951-4.99,14.876-7.944,28.33-14.365,58.853-23.128,86.595-1.3,4.093-4.855,5.52-5.695.676,8.471-33.932,16.779-68.046,24.2-102.147H358.351c-1.587,0-2.577-5.709-.726-7.461,1.73-1.637,5.538.318,7.489-1.333,13.091,1.224,26.631.67,39.864.676,11.966,0,23.641.21,35.593,0,5.987-.1,12.244.3,18.181-.041,2.072-.122,4.862-1.36,5.652-1.353.6,0,.05,1.387.733,1.4,2.015.041.883-1.231.349-2.036,1.573.068,3.994-.534,4.983.676-.7.041-1.431-.034-2.128.007v.663c1.1-.061,2.919.46,3.552-.67.235-.007.477,0,.712,0Z" transform="translate(-352.3 -413.147)" fill="#acbbf5"/>
            <path id="Path_901011" data-name="Path 901011" d="M514.07,430.268c-.306,1.035.982,2.584-1.046,2.713a47.744,47.744,0,0,1-5.738,0c-2.029-.129-.74-1.678-1.046-2.713,2.605.013,5.225-.014,7.831,0Z" transform="translate(-396.619 -418.685)" fill="#829cf4"/>
          </g>
          <path id="Path_901012" data-name="Path 901012" d="M517.426,416.265c.47-.027.954.013,1.424,0-.634,1.13-2.449.609-3.559.67v-.663c.7-.041,1.424.034,2.136-.007Z" transform="translate(-179.833 -157.58)" fill="#e2e8f6"/>
          <path id="Path_901013" data-name="Path 901013" d="M616.985,515.27a72.521,72.521,0,0,1,2.136,10.823c.249,2.76-.5,6.467.028,8.977.2.934,2.727,1.711,2.819,1.847.605.92,1.438,5.452,1.424,6.765a3.077,3.077,0,0,0-.74,1.637c.064,6.169.363,11.324,2.164,17.3-.335-.1-1.2.216-1.374-.034-.306-.446.313-1.887-.221-2.523-.278-.332-1.21-.095-1.253-.149-.271-.413-1.146-7.827-1.63-9.613-3.033-11.216-6.877-22.262-9.048-33.681,1.95-.507,3.218-.331,5.695-1.353Z" transform="translate(-207.494 -189.614)" fill="#acbbf5"/>
          <g id="Group_1111467" data-name="Group 1111467" transform="translate(400.18 306.524)">
            <path id="Path_901014" data-name="Path 901014" d="M636.877,500.708c.014-.108.747-.4.755-.927,0-.433-1.189-.413-1.424-.934-1.431-3.22-2.8-6.426-1.4-9.768,2.036-4.85,6.115.189,7.56.656,3.453,1.109,5.09-.913,6.421,4.039,1.6,5.953-.562,7.583-3.744,12.345l-6.03-4.052c-2.627,8.429-6.57,16.858-7.119,25.7l4.342-7.549c3.851-2.314,2.185-5.236,2.769-8.348.733-3.9,5.275-.3,6.77-.352,1.844-.068,1.95-2.428,5.6-.568,5.574,2.841,5.2,10.174,2.926,14.8-4.029-1.569-7.987-2.956-11.86-4.823-.8-.386-1-2.226-3.3-1.13-2.371,4.884-7.033,8.977-7.254,14.74-1.893.041-3.8,0-5.695,0-.228-1.157-1.139-7.807-1.452-8.084-.171-.149-5.09-.812-4.243,1.319-.092-.135-2.62-.913-2.819-1.847-.534-2.51.221-6.217-.029-8.977,6.343-2.09,1.972-7.779,1.4-12.149-2.128-.92-3.1,1.15-3.531,1.326-2.477,1.022-3.744.846-5.695,1.353-1.224.318-2.114,1.556-3.559,1.346.99-2.449-.014-4.526-.057-7.117-.021-1.346.776-2.733.762-3.707,2.029-1.509,3.025-4.147,5.695-4.059,4.164.135,3.168.095,6.941-.568,5.211-.913,3.588,3.288,3.737,6.656.441.487,11.625-2.983,12.806.676-.078,3.267-2.043,4.729-4,7.022-.47.548-.384,1.766-.94,2.131-1.4.92-10.45-.237-7.4,3.051s5.567-.135,7.724-.71c.271-.074.434,2.577,1.758,1.36.555-.507,3.324-11.162,3.566-12.853Zm-13.554,1.333c.114-.129.285-1.407-.32-1.326-2.022,1.475-2.94,2.868-2.492,5.4,2.556.514,1.018-2.259,1.41-3.619C622.106,501.858,623.259,502.115,623.323,502.041Z" transform="translate(-606.209 -486.987)" fill="#f8d5cd"/>
            <path id="Path_901015" data-name="Path 901015" d="M632.261,557.268c1.894,0,3.8.041,5.7,0,1.616-.034,3.431.156,4.983,0-.1,4.424.214,14.7-2.527,18.231-1.737,2.239-8.436,1.515-11,.71-1.8-5.98-2.1-11.128-2.164-17.3a3.077,3.077,0,0,1,.74-1.637Z" transform="translate(-612.272 -509.724)" fill="#e2e8f6"/>
            <path id="Path_901016" data-name="Path 901016" d="M643.768,507.27c-.242,1.691-3.011,12.346-3.566,12.853-1.324,1.218-1.488-1.434-1.758-1.36-2.164.575-4.769,3.9-7.724.71s6-2.131,7.4-3.051c.555-.365.477-1.583.94-2.131,1.958-2.293,3.922-3.754,4-7.022h.712Z" transform="translate(-613.101 -493.549)" fill="#f8f9fc"/>
            <path id="Path_901017" data-name="Path 901017" d="M619.29,514.524c.427-.176,1.4-2.246,3.531-1.326.577,4.37,4.947,10.059-1.4,12.149A72.54,72.54,0,0,0,619.29,514.524Z" transform="translate(-609.978 -495.391)" fill="#f8f9fc"/>
            <path id="Path_901018" data-name="Path 901018" d="M626.25,546.534c-.854-2.138,4.072-1.475,4.243-1.319.313.284,1.232,6.927,1.452,8.084h-4.271C627.688,551.986,626.855,547.454,626.25,546.534Z" transform="translate(-611.955 -505.755)" fill="#f8f9fc"/>
            <path id="Path_901019" data-name="Path 901019" d="M629.067,508.6c-.064.074-1.217-.183-1.4.46-.392,1.36,1.146,4.133-1.409,3.619-.449-2.537.47-3.93,2.491-5.405.605-.074.434,1.2.32,1.326Z" transform="translate(-611.953 -493.551)" fill="#fefefe"/>
          </g>
          <g id="Group_1111468" data-name="Group 1111468" transform="translate(370.123 97.678)">
            <path id="Path_901020" data-name="Path 901020" d="M597.66,194.5c.071,4.431.278,10.824-.747,15.058-.121.487-1.388.906-1.58,1.637-8.186-.453-19.334,1.38-27.172.183-.7-.108-3.1-1.211-3.253-1.793-.271-1.008-.641-6.379-.726-7.949a104.833,104.833,0,0,1,.028-13.218,6.112,6.112,0,0,1,.712-2.706l.712-.676c.107-.135-.171-.873.15-1.184,1.466-1.407,6.3-.663,8.386-.846.5-.419-3.082-4.16-.342-4.729,1.765-.365,2.741,4.093,4.378,4.62,3.794,1.224,12.714-.934,16.828.244,3.645,1.042,2.584,8.5,2.627,11.371Zm-15.825-7.231c-2.15-1.062-1.8.812-2.456,1.136-3.04,1.522-6.692,1.793-4.983,6.6.8,2.28,7.724,2.009,5.467,6.934l-5.688-1.346c-1.6,5.966,5.026,3.389,5.695,4.052.242.237-.249,2.476,0,2.719a10.172,10.172,0,0,0,2.128,0c.249-.25-.313-2.354.028-2.686.434-.433,5.5.48,5.745-3.748.313-5.324-7.218-3.666-5.766-9.126,3.78.622,4.77,1.766,4.983-2.706a13.726,13.726,0,0,1-4.015-.568c-1.039-.379-1.018-1.2-1.132-1.258Z" transform="translate(-563.986 -178.259)" fill="#dee2fa"/>
            <path id="Path_901021" data-name="Path 901021" d="M565.29,188.946c.085-.21.527-.433.712-.676Z" transform="translate(-564.362 -181.498)" fill="#ecf0fd"/>
            <path id="Path_901022" data-name="Path 901022" d="M585.856,191.421c.114.054.093.879,1.132,1.258a13.76,13.76,0,0,0,4.015.568c-.214,4.471-1.2,3.328-4.983,2.706-1.459,5.459,6.079,3.8,5.766,9.126-.249,4.235-5.311,3.315-5.745,3.748-.335.338.221,2.435-.028,2.686a10.177,10.177,0,0,1-2.129,0c-.249-.237.242-2.483,0-2.719-.669-.663-7.3,1.914-5.695-4.052l5.688,1.346c2.249-4.918-4.663-4.654-5.467-6.934-1.7-4.81,1.943-5.074,4.983-6.6.655-.331.306-2.205,2.456-1.136Z" transform="translate(-568.007 -182.409)" fill="#f8f9fc"/>
          </g>
          <g id="Group_1111469" data-name="Group 1111469" transform="translate(259.243 215.319)">
            <path id="Path_901023" data-name="Path 901023" d="M433.9,352.235c2.086.041,4.385-.183,6.407,0,.74.068,1.659-.372,2.185.447,5.574,8.111,10.863,16.411,16.323,24.583,1.666,2.489,3.139,5.053,4.983,7.441.569.737,1.979.359,1.417,2.023-.94.041-1.9-.041-2.84,0-10.208.507-20.608-.277-30.838-.122a28.007,28.007,0,0,1-5.773-6.724c-.755-1.211.206-2.205-1.829-3.3,3.146-2.131,0-7.577-2.847-8.794.235-1.766-.726-1.333-2.136-1.353h-1.424c-.071-1.224-4.556-6.372-5.695-8.118-.534-.812-4.072-5.655-3.552-6.081C416.807,352.364,425.378,352.052,433.9,352.235Z" transform="translate(-408.227 -352.162)" fill="#ccd6f9"/>
            <path id="Path_901024" data-name="Path 901024" d="M422.515,373.27c.292,1.306,1.388,1.028,2.136,1.353,2.847,1.218,5.994,6.663,2.847,8.794-2.378-1.279-3.673-.947-5.574-3.836-2.477-3.775-.691-3.917-.833-6.311Z" transform="translate(-411.792 -358.991)" fill="#d5945f"/>
            <path id="Path_901025" data-name="Path 901025" d="M423.29,373.254c1.409.02,2.371-.413,2.136,1.353C424.678,374.283,423.582,374.56,423.29,373.254Z" transform="translate(-412.567 -358.976)" fill="#e2e8f6"/>
          </g>
          <g id="Group_1111470" data-name="Group 1111470" transform="translate(313.497 214.643)">
            <path id="Path_901026" data-name="Path 901026" d="M579.832,351.235c2.442.9,2.342,6.318,2.164,8.483l-2.876,36.164c-1.894-.007-5.133.676-7.831.676,1.353-14.456,1.31-29.19,3.524-43.5l2.171-1.827a20.919,20.919,0,0,1,2.847,0Z" transform="translate(-509.465 -351.163)" fill="#829cf4"/>
            <path id="Path_901027" data-name="Path 901027" d="M569.635,351.246c.7.02,1.431-.054,2.136,0l-2.171,1.827c-2.214,14.307-2.171,29.047-3.524,43.5-2.833,0-10.393.555-12.422.041-.868-.223-.206-1.5-.392-2.07.093-3.112,3.809-1.711,5.9-2.171,6.286-1.366,5.125-11.561,4.762-16.425-.712-9.619-2.919-16.851-8.535-24.7,4.727.115,9.51-.156,14.237,0Z" transform="translate(-504.251 -351.174)" fill="#6274b6"/>
            <path id="Path_901028" data-name="Path 901028" d="M529.259,449.025c-.235,2.361-1.63,5.865-2.136,8.794-.3,1.711-1.424,3.788-.612,5.993,2.406,1.116,5.14.751,7.731.771,1.132,4.329,3.994,11.662,2.847,15.559-1.26,4.282-10.158.859-11.4,2.023-.313.291.313,5.818.007,6.095s-3.752-.616-4.677.629c-.527.71-.527,14.077-.278,15.9.128.913,1.018,1.549,1.2,2.246.384,1.481-.285,3.612.9,4.559l21.733,8.436c.392,5.439,1,11.649-.37,16.925-.619.014-1.623.954-3.033.683-.619-.122-.9-1.238-1.239-1.36-2.719-3.545,2.8-4.816,2.9-5.148s.619-6.3.541-6.629c-.4-1.678-7.631-2.32-9.489-2.442-1.488-.095-.918.014-1.068,1-.6,3.964.448,9.1,0,13.211-.89.135-1.844,1.319-3.125,1.231-.94-.068-1.694-1.211-1.858-1.231-2.719-3.389,1.943-4.4,2.15-5.209a43.84,43.84,0,0,0,.029-6.555c-.142-.494-6.805-2.165-7.866-3.118-.142.649.2,2.51,0,2.713a27.23,27.23,0,0,1-5.7,0c-.2-.2.135-2.063,0-2.713-1.4,1.055-8.635,2.036-9.147,2.8a38.9,38.9,0,0,0-.114,6.873c.164.622,4.349,1.975,2.862,5.209-.513.068-1.381,1.346-2.492,1.346s-1.972-1.279-2.492-1.346c-.456-4.093.626-9.281,0-13.211-.164-1.048.434-1.035-1.082-1.021-2.776.027-5.866,1.292-8.891.7.413,2.395-.57,6.19-.014,8.32.164.629,4.349,1.975,2.862,5.209-.619.095-1.523,1.4-3.2,1.434-1.239.02-1.459-1.339-1.78-1.434-1.509-5.073-.441-10.891-.626-16.161a197.764,197.764,0,0,0,18.9-7.4c1.288-.6,3.78-1.319,4.35-2.631a50.865,50.865,0,0,0,1.616-5.229c.342-2.462.406-12.643-.036-14.916-.577-2.956-4.449-1.2-4.99-1.684-.249-.23.185-5.026,0-6.095H497.567c-2.114,0-1.929-5.946-1.78-7.441,8.45.913,16.522.358,24.915,1.346-3.381-2.753-6.086-5.473-2.869-9.64,1.666-2.151,3.481-1.015,4.293-5.236,1.217-6.338,1.068-13.7,5.695-18.941.619,2.523,1.744,3.551,1.424,6.765Z" transform="translate(-486.655 -380.629)" fill="#829cf4"/>
            <path id="Path_901029" data-name="Path 901029" d="M572.934,430.256c-2.121,3.274,1.459,5.121,1.459,6.426,0,1.211-1.851,1.82-2.164,3.389-.292,1.454.192,3.193-.014,4.722-1.1,8.246-2.89,19.137-11.383,23.345-.9-3.815-1.951-7.718-2.847-11.5,5.937-4.086,6.941-11.026,6.414-17.595H553.714c-.342-1.495-1.1-3.078-1.424-4.729,3.865-1.509,8.571-.095,12.4-.663.9-.135.214-2.584.413-3.4C567.7,430.242,570.336,430.195,572.934,430.256Z" transform="translate(-503.991 -376.742)" fill="#829cf4"/>
            <path id="Path_901030" data-name="Path 901030" d="M554.29,443.27h10.685c.527,6.562-.47,13.5-6.414,17.588C557.173,454.993,555.628,449.162,554.29,443.27Z" transform="translate(-504.567 -380.963)" fill="#6274b6"/>
            <path id="Path_901031" data-name="Path 901031" d="M564.9,430.147c-.192.812.484,3.261-.413,3.4-3.83.568-8.535-.839-12.4.663-.164-.825-1.3-3.673.477-4.086C554.9,429.578,561.858,430.16,564.9,430.147Z" transform="translate(-503.784 -376.633)" fill="#6274b6"/>
            <path id="Path_901032" data-name="Path 901032" d="M548.044,471.388c-2.584-.02-5.318.345-7.731-.771-.812-2.205.313-4.275.612-5.993-.114,3.409,2.513-.453,4.271-1.353C545.923,465.793,547.275,468.452,548.044,471.388Z" transform="translate(-500.456 -387.433)" fill="#6274b6"/>
            <path id="Path_901033" data-name="Path 901033" d="M545.56,459.711c-1.758.9-4.385,4.762-4.271,1.353.505-2.929,1.9-6.433,2.136-8.794C545.738,454.036,544.955,457.607,545.56,459.711Z" transform="translate(-500.82 -383.875)" fill="#060c2a"/>
            <path id="Path_901034" data-name="Path 901034" d="M499.061,574.465c1.488-3.234-2.7-4.586-2.862-5.209-.555-2.138.427-5.926.014-8.321,3.025.589,6.122-.67,8.891-.7,1.509-.013.911-.027,1.082,1.022.626,3.93-.463,9.119,0,13.211a39.11,39.11,0,0,0-7.119,0Z" transform="translate(-487.778 -418.805)" fill="#bce0fc"/>
            <path id="Path_901035" data-name="Path 901035" d="M549.21,574.458c.441-4.12-.612-9.247,0-13.211.149-.988-.42-1.1,1.068-1,1.858.122,9.091.758,9.489,2.442.078.325-.448,6.311-.541,6.629s-5.617,1.6-2.9,5.148c-.335-.122-6.77-.054-7.119,0Z" transform="translate(-503.047 -418.798)" fill="#bce0fc"/>
            <path id="Path_901036" data-name="Path 901036" d="M519.927,470.27c-.812,4.221-2.627,3.085-4.293,5.236-3.218,4.16-.513,6.886,2.869,9.64-8.393-.988-16.465-.433-24.915-1.346-4.079-.44-5.894.954-8.542-3.382a1.632,1.632,0,0,1-.448-2.016,4.031,4.031,0,0,1,2.534-2.422C498.215,474.9,509.27,473.361,519.927,470.27Z" transform="translate(-484.441 -389.698)" fill="#6274b6"/>
          </g>
          <g id="Group_1111471" data-name="Group 1111471" transform="translate(215.824 222.833)">
            <path id="Path_901037" data-name="Path 901037" d="M403.511,395.74c-.427.169-3.1,4.864,0,4.059v.676c-13.234,0-26.773.548-39.864-.676-4.243-9.843-10.059-19.252-14.237-29.088-1.018-2.4-2.435-4.789-2.136-7.441h40.22Z" transform="translate(-347.233 -363.27)" fill="#1130ac"/>
            <path id="Path_901038" data-name="Path 901038" d="M439.1,417.27h22.78v.676c-11.952.21-23.627,0-35.593,0v-.676Z" transform="translate(-370.012 -380.741)" fill="#6274b6"/>
            <path id="Path_901039" data-name="Path 901039" d="M437.794,411.876l.712,3.382H425.692c-3.1.8-.427-3.89,0-4.059.769-.3,8.016-.054,9.646,0a13.288,13.288,0,0,1,2.456.683Z" transform="translate(-369.415 -378.729)" fill="#060c2a"/>
            <path id="Path_901040" data-name="Path 901040" d="M449.7,412.27l3.211,2.029c.52-2.165,5.14-1.488,7.467-1.353s6.25-.169,6.407,2.706H444l-.712-3.382C445.419,412.29,447.568,412.3,449.7,412.27Z" transform="translate(-374.911 -379.123)" fill="#d5945f"/>
            <path id="Path_901041" data-name="Path 901041" d="M462.968,412.53c-2.328-.135-6.948-.812-7.467,1.353l-3.21-2.029a3.77,3.77,0,0,1,1.723-.7C456.611,411.048,461.793,410.412,462.968,412.53Z" transform="translate(-377.504 -378.706)" fill="#060c2a"/>
          </g>
          <g id="Group_1111474" data-name="Group 1111474" transform="translate(11.499)">
            <path id="Path_901042" data-name="Path 901042" d="M158.5,281.263c-.021,18.082-1.488,39.533-.028,57.189.1,1.184.683,5.615,1.4,6.108l106.829-.386c4.179,9.836,9.995,19.245,14.237,29.088-1.951,1.651-5.759-.3-7.489,1.333-1.851,1.745-.861,7.461.726,7.461h18.152c-7.425,34.1-15.732,68.215-24.2,102.147H249.621c.826-5.358-2.484-9.748-1.466-15.18.171-.893,2.413.21,2.89-1.055.513-1.353-.356-5.026,0-6.771-.47-.034-.954.034-1.424,0s-.954.02-1.424,0v-7.441c.157-.02,2.684-.629,2.79-.724.263-.244.263-6.284.093-6.947-.249-.967-2.442-.7-2.783-1.218-.634-.927.313-4.769-.064-6.251-.214-.832-1.1-.291-1.452-.426a5.492,5.492,0,0,0-2.406-.724c-5.723-.379-22.773-.649-27.492.724-.37.108-.975-.074-1.424,0-.121-.575-.876-1.089-1.424-1.353,0-19.056-.036-38.132.043-57.2.114-2.516-2.527-3.044-4.634-3.037l-85.829.379a3.982,3.982,0,0,0-1.409,1.684c-.4.717-1.061,1.164-.762,2.293.733,22.418-.819,44.992.05,67.383a9.527,9.527,0,0,0,0,1.353c-5.2-2.361-13.234-2.9-18.508-.676a4.893,4.893,0,0,0-1.1-3.348C90.947,429.376,76.2,414.44,67.8,396.189l-3.267-8.733c2.869-.02,14.031.271,15.732-1.116a7.565,7.565,0,0,0,1.388-3.254c.5-3.91.562-17.223-.071-20.964-.114-.676-1.267-2.929-1.894-3.091-2.783-.71-15.547-.095-19.427.007-.776-10.161,5.951-20.686,13.9-27.038,13.7-10.945,31.785-14.24,47.225-22.77a181.083,181.083,0,0,0,28.581-20.193c2.968-2.611,4.947-6.42,8.535-7.786Zm-27.044,49.382c-.648-.589,1.217-7.272-1.167-8.03-5.994-1.914-2.791,5.588-4.136,7.407-1.025,1.387-7.211-.338-8.144,2.429-1.63,4.81,6,1.671,7.816,3.89,2.157,2.638-1.865,8.774,5.631,7.171.206-1.211-.292-7.177,0-7.448.69-.649,10.642,1.6,8.549-4.729-1.2.014-8.229-.406-8.542-.683Zm118.518,65.617c-2.976-.791-15.725,0-19.932,0-1.523,0-2.62,4.018-.577,5.452,2.776,1.948,6.663.507,9.859.589,3.6.095,6.236,1.556,9.995.088,3.417-1.333,3.061-5.493.662-6.136Z" transform="translate(-60.204 -113.901)" fill="#bce0fc"/>
            <g id="Group_1111472" data-name="Group 1111472" transform="translate(113.779)">
              <path id="Path_901043" data-name="Path 901043" d="M222.353,149.815c-.513-13.076-3.011-25.658-2.128-38.89,2.783-41.846,24.709-74.161,71.507-76.813,41.331-2.341,77.294,12.028,106.965,38.363.812.724,1.388,1.062,1.623,2.253a1.393,1.393,0,0,1-.911.453c-2.99.027-7.809-1.1-10.8-.5-.747.149-.114,1.563-.527,1.948-.377.359-1.644-.034-1.894.189-.925.825-.47,23.04.085,24.13a15.078,15.078,0,0,0,2.99,2.253c4.727-.805,26.5,1.3,28.859-1.069a22.591,22.591,0,0,0,1.417-3.044c4.172,1.617,6.521,7.211,9.254,10.485,8.115,9.741,21.164,22.844,31.685,30.1a19.606,19.606,0,0,0,4.62,2.036,104.816,104.816,0,0,0-.028,13.218c.093,1.569.456,6.941.726,7.949.157.582,2.548,1.684,3.253,1.793,7.845,1.2,18.992-.629,27.172-.183.185-.724,1.459-1.15,1.58-1.637,1.032-4.235.819-10.621.747-15.058,5.175,0,9.859-3.748,14.408-6.122,21.783-11.344,41,.047,45.908,22.2,2.968,13.408.819,25.34-.52,38.714-4.926-.156-15.191-.724-19.541.034-1.808.311-4.093,2.084-4.513,3.829-.648,2.733-.619,17.115-.185,20.179.157,1.089,1.246,3.538,2.178,4.018,1.637.846,11.4.325,14.23.345-1.516,5.283-3.146,10.722-4.969,15.911-7.119,20.26-17.042,44.478-27.158,63.487-3.3,6.2-8.215,11.311-11.888,17.115-1.915,3.024-3.054,9.782-7.247,9.011-.078-.325-.876-1.069-1.1-1.969-2.641-10.8-5.047-21.681-7.446-32.531h10.322c2.235,0,2.235-7.272.968-8.023-.89-.528-18.046-.054-20.95-.068a18.714,18.714,0,0,1-3.153-.7l2.876-36.164c.178-2.165.278-7.583-2.164-8.483-.9-1.116-4.086-1.116-4.983,0-4.727-.156-9.51.115-14.237,0-1.516-2.117-.221-.183-2.613-1.164-.811-.331-4.727-2.408-5.41-2.875-.968-.663-1.531-3.058-3-2.726-3.417,4.343-7.09,10.7-13.177,11.5.9-3.518.463-2.124-2.136-4.735,4.834-1.779,12.273-3.653,10.657-10.35-.128-.521-1.232-.629-1.637-1.3-3.025-5.08-.826-5.114.94-10,.712-1.975,1.8-3.5,2.057-5.824,1.858-17.2-23.748-17.507-26.51-6.2-.5,2.043.057,2.76.249,4.586.555,5.229,1.637,11.04,4.271,15.559,1.445,2.476.164,3.9,4.983,3.382.683,1.211-.683,2.936-.712,3.382-2.427-.622-2.477,1.745-3.723,2.259-2.52,1.035-6.2,1.123-9.026,2.875-6.727,4.167-8.2,20.172-10.03,27.336-5.46-8.172-10.749-16.472-16.323-24.583-.52-.819-1.445-.386-2.185-.446V149.8c-54.564.135-109.164-.183-163.729,0Zm91.773-55.4c-1.253-1.664-7.46-.805-7.788-1.028-1.687-1.13.9-8.983-3.858-8.537-4.25.4-1.844,7.509-2.527,8.151-1.16,1.1-9.119-2.523-8.557,3.017.413,4.039,7.859,1.725,8.557,2.388,1.125,1.069-2.791,9.775,4.506,8.145,1.915-.426.847-7.827,1.182-8.145.448-.419,6.692.528,7.731-.095.413-.25,1.139-3.389.755-3.9ZM432,155.226c-5.1-.771-14.294,0-19.932,0-1.288,0-1.986,4.478.854,5.276,1.481.413,17.441.419,18.936,0C434.2,159.847,434.944,155.673,432,155.226Zm79.337,75.129c-1.068-1.015-6.713.433-7.845-.325-1.566-1.042.292-9.274-4.506-7.773-2.769.866.819,7.414-2.919,8.063-4.186.731-7.638-2.09-6.77,4.735,2.691-.108,7.88-.189,8.528,3.058.235,1.164-.278,4.708.057,5.026a28.433,28.433,0,0,0,3.823.629c2.242-.487.534-7.5,1.132-8.03.527-.474,8.229-.4,8.542-.676a21.2,21.2,0,0,0-.043-4.7Z" transform="translate(-220.037 -33.864)" fill="#bce0fc"/>
              <path id="Path_901044" data-name="Path 901044" d="M343,118.79c.384.514-.342,3.653-.755,3.9-1.039.622-7.282-.331-7.731.095-.335.318.733,7.718-1.182,8.145-7.3,1.63-3.381-7.076-4.506-8.145-.7-.656-8.144,1.651-8.557-2.388-.569-5.547,7.4-1.921,8.557-3.017.683-.643-1.723-7.752,2.527-8.151,4.755-.446,2.171,7.407,3.858,8.537.327.216,6.542-.636,7.788,1.028Z" transform="translate(-248.909 -58.242)" fill="#f8f9fc"/>
              <path id="Path_901045" data-name="Path 901045" d="M620.265,320.367a20.772,20.772,0,0,1,.043,4.7c-.306.284-8.016.2-8.542.676-.591.534,1.111,7.543-1.132,8.03a28.624,28.624,0,0,1-3.823-.629c-.334-.318.178-3.863-.057-5.026-.648-3.24-5.837-3.166-8.528-3.058-.869-6.826,2.584-4,6.77-4.735,3.737-.649.149-7.2,2.919-8.063,4.8-1.5,2.94,6.731,4.506,7.773,1.132.751,6.777-.7,7.845.325Z" transform="translate(-328.968 -123.876)" fill="#f8f9fc"/>
              <path id="Path_901046" data-name="Path 901046" d="M509.268,213.106c2.947.446,2.193,4.62-.142,5.276-1.488.419-17.455.413-18.936,0-2.84-.791-2.143-5.276-.854-5.276C494.974,213.106,504.171,212.335,509.268,213.106Z" transform="translate(-297.309 -91.744)" fill="#f8f9fc"/>
              <path id="Path_901047" data-name="Path 901047" d="M581.273,350.87a20.909,20.909,0,0,0-2.847,0c-.7-.054-1.431.02-2.136,0C577.187,349.753,580.376,349.753,581.273,350.87Z" transform="translate(-322.687 -136.155)" fill="#fefefe"/>
            </g>
            <path id="Path_901048" data-name="Path 901048" d="M154.763,350.279c.313.284,7.339.7,8.542.683,2.093,6.325-7.859,4.086-8.55,4.728-.285.271.214,6.237,0,7.448-7.5,1.6-3.474-4.532-5.631-7.171-1.815-2.226-9.439.913-7.816-3.89.933-2.767,7.119-1.035,8.144-2.429,1.345-1.82-1.858-9.315,4.136-7.407,2.385.758.52,7.448,1.167,8.03Z" transform="translate(-83.509 -133.535)" fill="#f8f9fc"/>
            <path id="Path_901049" data-name="Path 901049" d="M318.033,451.1c2.4.643,2.755,4.8-.662,6.136-3.759,1.468-6.385,0-9.995-.088-3.2-.081-7.083,1.36-9.859-.589-2.043-1.434-.947-5.452.577-5.452,4.207,0,16.957-.791,19.932,0Z" transform="translate(-128.26 -168.743)" fill="#f8f9fc"/>
            <path id="Path_901050" data-name="Path 901050" d="M360.29,531.74c8.763-27.742,15.184-58.257,23.128-86.595,1.381-4.931,2.506-10.478,4.99-14.876H413.68l-24.2,102.147Z" transform="translate(-146.67 -162.114)" fill="#bce0fc"/>
            <path id="Path_901051" data-name="Path 901051" d="M576.392,430.255c1.63.041,3.289-.135,4.912.068l12.885,46.609c-3.331.372-3.424,4.417-4.342,6.223-4.15,8.138-8.229,17.182-10.108,26.382l-3.346,9.335c-3.695-16.864-8.122-33.952-12.1-50.735,8.493-4.208,10.286-15.092,11.383-23.345.206-1.529-.278-3.267.014-4.722.313-1.569,2.164-2.178,2.164-3.389,0-1.306-3.581-3.152-1.459-6.426Z" transform="translate(-205.45 -162.099)" fill="#bce0fc"/>
            <path id="Path_901052" data-name="Path 901052" d="M599.089,499.27c.114.859.7,1.894.712,2.706.007.974-.783,2.361-.762,3.707.036,2.591,1.046,4.668.057,7.117,1.438.21,2.328-1.028,3.559-1.346,2.171,11.419,6.015,22.466,9.048,33.681.484,1.786,1.36,9.2,1.63,9.613h-29.9a78.161,78.161,0,0,0-2.136-13.529l3.346-9.335c1.879-9.2,5.958-18.244,10.109-26.382.918-1.806,1.018-5.851,4.342-6.224Z" transform="translate(-210.351 -184.438)" fill="#fefefe"/>
            <path id="Path_901053" data-name="Path 901053" d="M431.07,462.27c-.726,16.513,1.559,41.785,3.538,58.528.327,2.774,1.993,3.24,2.157,3.707.37,1.042-.256,3.437,0,4.735-1.381-.162-6.2,3.213-8.343,3.91-2.292.744-8.756,1.2-9.838,2.841-1.765,2.672,2.4,5.493,4.656,6.109-4.563,1.542-10.144.271-14.949.676,7.745-24.468,12.87-50.451,20.274-75.095l2.506-5.4Z" transform="translate(-160.5 -172.467)" fill="#bce0fc"/>
            <path id="Path_901054" data-name="Path 901054" d="M564.983,554.783c-.861-.325-7.56-.047-9.254,0,1.36-5.276.762-11.486.37-16.925l-21.733-8.435c-1.182-.947-.513-3.078-.9-4.559-.178-.7-1.075-1.333-1.2-2.246-.256-1.833-.249-15.193.278-15.9.925-1.245,4.371-.345,4.677-.629s-.32-5.8-.007-6.095c1.231-1.17,10.13,2.259,11.4-2.023,2.114-1.306,1.1-.487,1.516.913,4.649,15.789,8.877,31.774,13.226,47.65a33.5,33.5,0,0,1,1.63,8.26Z" transform="translate(-196.177 -183.804)" fill="#bce0fc"/>
            <path id="Path_901055" data-name="Path 901055" d="M478.019,430.244c.093,1.759-1.011,1.732-2.278,2.239-11.9,4.776-29.386,4.729-35.451,16.7.534-6.021,3.937-12.461,4.933-18.65C456.136,429.973,467.1,430.271,478.019,430.244Z" transform="translate(-169.721 -162.088)" fill="#bce0fc"/>
            <path id="Path_901056" data-name="Path 901056" d="M492.957,488.652c-.149,1.495-.335,7.441,1.78,7.441H509.33c.185,1.069-.256,5.865,0,6.095.541.494,4.414-1.265,4.99,1.684.441,2.28.377,12.454.036,14.916a53.849,53.849,0,0,1-1.616,5.229c-.569,1.312-3.061,2.036-4.349,2.631a196.006,196.006,0,0,1-18.9,7.4c.185,5.263-.883,11.087.626,16.161-.861-.25-2.527.169-3.559,0,.128-.216-.078-.927,0-1.353.221-1.251.05-.636,0-1.353-.2-2.97-.036-8.354-4.271-8.118.3-1.8-.157-4.16,0-6.088,1.288-15.856,1.26-31.977,2.136-48.029,2.648,4.336,4.463,2.943,8.542,3.382Z" transform="translate(-181.812 -179.908)" fill="#bce0fc"/>
            <path id="Path_901057" data-name="Path 901057" d="M516.091,574.152c1.488-3.234-2.7-4.586-2.862-5.209a38.908,38.908,0,0,1,.114-6.873c.513-.764,7.752-1.745,9.147-2.8.142.649-.2,2.51,0,2.713a27.23,27.23,0,0,0,5.7,0c.2-.2-.135-2.063,0-2.713,1.061.954,7.731,2.631,7.866,3.118a44.844,44.844,0,0,1-.029,6.555c-.206.812-4.869,1.82-2.15,5.209a117.5,117.5,0,0,0-17.8,0Z" transform="translate(-190.708 -203.85)" fill="#bce0fc"/>
            <g id="Group_1111473" data-name="Group 1111473" transform="translate(97.624 115.892)">
              <path id="Path_901058" data-name="Path 901058" d="M379.542,304.711c-2.022-.183-4.321.041-6.407,0V230.976H205.492a6.723,6.723,0,0,0-1.068,1.015v79.147c0,.561,1.723,1.2,2.456,1.048,46.883,1.732,95.169-2.692,141.7-.007,1.331.074,2.912.561,2.492-1.38,1.139,1.745,5.624,6.893,5.695,8.118.142,2.395-1.644,2.537.833,6.311,1.894,2.888,3.2,2.557,5.574,3.836,2.036,1.1,1.075,2.1,1.829,3.3a28.138,28.138,0,0,0,5.773,6.724c10.229-.156,20.63.629,30.838.122.876,4.248,3.431.805,5.695,0,.157,2.733.918,5.364.7,8.124,2.84.014,5.709-.034,8.549,0,1.445.014,2.67-.068,4.271,0,.534.8,1.666,2.077-.349,2.036-.683-.014-.135-1.4-.733-1.4-.79,0-3.581,1.238-5.652,1.353-5.944.345-12.194-.068-18.181.041v-.677c-.157-2.875-4.079-2.571-6.407-2.706-1.175-2.117-6.357-1.481-8.955-1.38a3.729,3.729,0,0,0-1.723.7c-2.128.034-4.278.02-6.407,0a13.863,13.863,0,0,0-2.456-.683c-1.63-.054-8.877-.3-9.646,0L344.3,312.152h-40.22c-.3,2.652,1.118,5.04,2.136,7.441l-106.829.386c-.719-.494-1.3-4.925-1.4-6.108-1.459-17.656.007-39.1.028-57.189.014-11.263-.036-22.56,0-33.823H379.549v81.853Z" transform="translate(-197.343 -205.212)" fill="#e2e8f6"/>
              <path id="Path_901059" data-name="Path 901059" d="M216.085,205.242c54.564-.183,109.164.135,163.729,0v17.595H198.289c.021-5.851-.014-11.737,0-17.595,5.923-.007,11.874.02,17.8,0Zm4.67,8.03a3.329,3.329,0,1,0-3.324,3.159A3.244,3.244,0,0,0,220.755,213.272Zm3.275,2.7c3.125,1.867,8.08-1.515,4.883-4.986S220.954,214.131,224.03,215.971Zm-12.785-2.692a3.086,3.086,0,1,0-3.082,2.929A3.01,3.01,0,0,0,211.245,213.279Z" transform="translate(-197.614 -205.184)" fill="#acbbf5"/>
              <path id="Path_901060" data-name="Path 901060" d="M353.934,323.093c.42,1.941-1.16,1.454-2.492,1.38-46.527-2.679-94.82,1.739-141.7.007-.726.149-2.456-.487-2.456-1.049V244.285a6.725,6.725,0,0,1,1.068-1.015H376v73.735c-8.521-.176-17.1.129-25.62,0-.512.426,3.025,5.27,3.552,6.081Zm-138.1-69.676h-1.424v60.544l152.709,1.015,1.053-1.353H215.832V253.417Zm97.774,28.858c-2.164-2.381-3.9-5.331-6.642-7.211.954,4.228,6.385,7.1,8.891,10.817,1.488-2.165-1.438-2.713-2.25-3.612Zm-23.029-4.5c-1.58-.365-2.57,2.428-3.111,3.463a73.462,73.462,0,0,0-3.453,7.563c-.456,1.279-.961,1.461.52,2.5Zm56.949,4.059L339.7,289.27A16.607,16.607,0,0,0,347.527,281.835Zm-8.542,8.781c-.569-1.6-.776-1.076-1.886-.791-1.644.413-2.776,1.292-4.869,1.475-3.132.277-5.894-.934-8.905-.338,5.268,2.659,10.45,1.941,15.668-.345ZM277.053,301.44c-1.239-2.063-3.566-.074-6.378-1.042-2.563-.879-3.751-3.538-5.716-5.04.918,5.013,7.09,8.212,12.095,6.081Z" transform="translate(-200.209 -217.506)" fill="#f8f9fc"/>
              <ellipse id="Ellipse_12791" data-name="Ellipse 12791" cx="3.324" cy="3.159" rx="3.324" ry="3.159" transform="translate(16.492 4.929)" fill="#e2e8f6"/>
              <path id="Path_901061" data-name="Path 901061" d="M234.055,218.3c-3.075-1.84,1.829-8.307,4.883-4.986S237.18,220.166,234.055,218.3Z" transform="translate(-207.64 -207.512)" fill="#e2e8f6"/>
              <ellipse id="Ellipse_12792" data-name="Ellipse 12792" cx="3.082" cy="2.929" rx="3.082" ry="2.929" transform="translate(7.473 5.166)" fill="#e2e8f6"/>
              <path id="Path_901062" data-name="Path 901062" d="M218.714,258.27v60.206H371.052L370,319.835,217.29,318.814V258.27Z" transform="translate(-203.09 -222.359)" fill="#e2e8f6"/>
              <path id="Path_901063" data-name="Path 901063" d="M385.948,312.732c-5.218,2.293-10.4,3-15.668.345,3.018-.6,5.78.616,8.905.338,2.093-.183,3.225-1.062,4.869-1.475,1.11-.284,1.324-.805,1.886.791Z" transform="translate(-247.172 -239.622)" fill="#829cf4"/>
              <path id="Path_901064" data-name="Path 901064" d="M321.447,294.264,315.4,307.787c-1.474-1.035-.968-1.218-.52-2.5a73.455,73.455,0,0,1,3.453-7.563C318.877,296.693,319.866,293.9,321.447,294.264Z" transform="translate(-231.078 -233.994)" fill="#6274b6"/>
              <path id="Path_901065" data-name="Path 901065" d="M300.395,326.352c-5,2.131-11.176-1.069-12.095-6.081,1.965,1.5,3.154,4.16,5.716,5.04C296.828,326.277,299.149,324.288,300.395,326.352Z" transform="translate(-223.551 -242.418)" fill="#829cf4"/>
              <path id="Path_901066" data-name="Path 901066" d="M401.123,300.28a16.607,16.607,0,0,1-7.823,7.434Z" transform="translate(-253.805 -235.951)" fill="#6274b6"/>
              <path id="Path_901067" data-name="Path 901067" d="M353.952,297.484c.812.9,3.737,1.448,2.249,3.612-2.513-3.714-7.937-6.589-8.891-10.817,2.741,1.874,4.478,4.823,6.642,7.211Z" transform="translate(-240.554 -232.715)" fill="#6274b6"/>
            </g>
          </g>
          <g id="Group_1111475" data-name="Group 1111475" transform="translate(439.036 168.374)">
            <path id="Path_901068" data-name="Path 901068" d="M680.29,306.623c.249-.446.448-.893.712-1.353C680.867,305.662,680.667,306.508,680.29,306.623Z" transform="translate(-666.411 -290.047)" fill="#dee2fa"/>
            <path id="Path_901069" data-name="Path 901069" d="M685.35,283.107c3.716.115,7.339-.94,8.863,3.416,1.032,2.943.505,12.535.391,16.2-.028.893.078,1.82,0,2.706-.128,1.549-.783,5.621-2.641,6.1-2.335.6-11.233.013-14.444-.014-2.833-.02-12.593.5-14.23-.345-.933-.48-2.022-2.929-2.178-4.018-.434-3.064-.47-17.446.185-20.179.413-1.745,2.705-3.518,4.513-3.829,4.349-.751,14.615-.189,19.541-.034Zm-9.966,14.882c1.659-4.715.869-10.553-5.9-8.8-2.641.683-2.249,8.97-.391,10.039a24.971,24.971,0,0,0,5.574.115c-.534.967-2.605,5.04-2.833,5.77-.456,1.475,1.744,1.184,2.371,1.022.491-.128,3.78-6.44,5.439-8.145-1.858,12.4,12.329,9.707,7.816-.859a18.993,18.993,0,0,0-1.922-1.813c-3.317-.731-3.865.6-5.887,2.672.42-2.814,3.531-5.594,4.264-7.793.548-1.664-2.193-1.2-3.2-.332-.925.8-3.132,5.581-4.015,7.035-.377.622-1.224.927-1.317,1.089Z" transform="translate(-660.793 -282.766)" fill="#dee2fa"/>
            <path id="Path_901070" data-name="Path 901070" d="M677.43,302.262a25.366,25.366,0,0,1-5.574-.115c-1.858-1.069-2.25-9.356.392-10.039,6.77-1.752,7.56,4.086,5.9,8.8-.263.46-.463.906-.712,1.353Zm-2.136-8.111c-2.89-.108-2.826,4.038-1.054,5.4C676.483,299.59,674.8,295.314,675.295,294.151Z" transform="translate(-663.551 -285.685)" fill="#f8f9fc"/>
            <path id="Path_901071" data-name="Path 901071" d="M679.83,301.01c.093-.162.94-.474,1.317-1.089.89-1.454,3.1-6.237,4.015-7.035,1.011-.866,3.752-1.333,3.2.331-.726,2.2-3.837,4.979-4.264,7.793,2.022-2.07,2.57-3.4,5.887-2.672a18.271,18.271,0,0,1,1.922,1.813c4.513,10.566-9.674,13.259-7.816.859-1.666,1.7-4.955,8.016-5.439,8.145-.634.162-2.826.453-2.371-1.021.221-.724,2.3-4.8,2.833-5.77C679.5,302.247,679.695,301.4,679.83,301.01Zm9.247.007c-2.007-1.833-1.4,4.877-1.409,5.4C690.366,307.118,689.874,301.747,689.077,301.016Z" transform="translate(-665.239 -285.786)" fill="#f8f9fc"/>
            <path id="Path_901072" data-name="Path 901072" d="M693.678,305.128c.8.731,1.289,6.1-1.409,5.4C692.283,310.005,691.671,303.288,693.678,305.128Z" transform="translate(-669.84 -289.898)" fill="#dee2fa"/>
            <path id="Path_901073" data-name="Path 901073" d="M676.361,295.279c-.484,1.164,1.189,5.439-1.053,5.4C673.535,299.317,673.471,295.171,676.361,295.279Z" transform="translate(-664.618 -286.813)" fill="#e2e8f6"/>
          </g>
          <g id="Group_1111476" data-name="Group 1111476" transform="translate(290.898 40.632)">
            <path id="Path_901074" data-name="Path 901074" d="M467.356,94.159c3.609.014,14.437-.426,17.092,1.008,2.264,1.231,1.353,11.087,1.417,13.874.014.453,0,.9,0,1.353.007,2.523.868,6.4.712,8.118a22.215,22.215,0,0,1-1.417,3.044c-2.363,2.368-24.132.264-28.859,1.069a15.078,15.078,0,0,1-2.99-2.253c-.555-1.089-1.011-23.3-.085-24.13.249-.223,1.516.169,1.894-.189.413-.392-.214-1.8.527-1.948,2.99-.6,7.809.528,10.8.5a1.393,1.393,0,0,0,.911-.453Zm-10.671,23c4.421,1.441,10.649-6.325,13.333-6.677,1.253-.162,2.7,1.191,4.784,1.333,13.846.947,8.251-19.543-2.42-13.218-4.812,2.848-2.506,6.826-3.937,9.112-.619.981-9.14,5.121-10.706,6.738-.89.92-1.3,1.346-1.046,2.719Z" transform="translate(-452.695 -93.928)" fill="#dee2fa"/>
            <path id="Path_901075" data-name="Path 901075" d="M458.271,118.808c-.249-1.373.157-1.8,1.046-2.719,1.566-1.617,10.094-5.757,10.706-6.738,1.431-2.28-.876-6.264,3.937-9.112,10.678-6.325,16.266,14.165,2.42,13.218-2.086-.142-3.524-1.5-4.784-1.333-2.684.352-8.913,8.118-13.333,6.677Zm18.316-18.143c-6.891,1.339-5.973,12.454,1.929,11.405C485.179,111.185,484.453,99.143,476.587,100.665Z" transform="translate(-454.281 -95.577)" fill="#f8f9fc"/>
            <path id="Path_901076" data-name="Path 901076" d="M482.153,101.386c7.866-1.529,8.6,10.512,1.929,11.405C476.181,113.84,475.255,102.725,482.153,101.386Z" transform="translate(-459.847 -96.298)" fill="#dee2fa"/>
          </g>
          <g id="Group_1111477" data-name="Group 1111477" transform="translate(0 244.812)">
            <path id="Path_901077" data-name="Path 901077" d="M72.24,419.652c-3.033.156-.121,1.617-2.128,2.7a10.185,10.185,0,0,1,0-6.081c1.794.819,1.851,1.935,2.128,3.376,1.652-.081,3.332.061,4.983,0v4.735c-1.381-.115-2.933.162-4.271,0a47.044,47.044,0,0,1-.712-4.735Z" transform="translate(-51.427 -402.396)" fill="#dee2fa"/>
            <path id="Path_901078" data-name="Path 901078" d="M55.611,396.105c3.873-.1,16.643-.717,19.427-.007.626.162,1.773,2.415,1.894,3.091.634,3.741.57,17.054.071,20.964a7.565,7.565,0,0,1-1.388,3.254c-1.7,1.387-12.863,1.1-15.732,1.116-2.043.014-12.742.291-13.412-.108a32.523,32.523,0,0,1-2.221-4.309c-.335-1.664.043-3.917-.028-5.723-.028-.676.014-1.353,0-2.029-.064-2.706-.505-12.488.356-14.206,1.431-2.855,8.165-1.948,11.034-2.029Zm14.237,16.912c-2.812-4.275-.2-3.768-.014-4.512.74-2.916-.762-5.013-1.445-7.658-1.5.913-3.524-.183-4.456-.041s-3.794,4.039-2.634,5.439c-1.331.041-6.784-.8-7.4-.643-1.146.3-.819,2.009-1.331,2.489-.456.433-1.851.243-2.363.818-.384.433.491,5.52-.292,6.805.911.108,1.986-.135,2.847,0-.235-2.888-.911-7.286,3.2-7.509a4.171,4.171,0,0,1,3.239,7.2c-1.837,1.759-4.2.676-6.442.3.093,1.1-.342,2.936,1.16,3.328a41.55,41.55,0,0,0,5.289-.216c.783-.6.37-2.354,1.046-2.469,1.63-.271,3.282,1.143,5.325,1.387.157.6-.384,2.077.363,2.036,1.132-.507,2.691-.386,3.723-.886.356-.176.1-1.069.185-1.15.178-.176,1.239.622,1.481-.967.669-4.465-1.345-3.565-1.481-3.768Z" transform="translate(-44.051 -395.761)" fill="#dee2fa"/>
            <path id="Path_901079" data-name="Path 901079" d="M80.29,421.27c.135.2,2.15-.7,1.481,3.768-.242,1.59-1.3.791-1.481.967Z" transform="translate(-54.493 -404.014)" fill="#f8f9fc"/>
            <path id="Path_901080" data-name="Path 901080" d="M55.137,418.133c-.861-.142-1.936.108-2.847,0,.783-1.285-.085-6.372.292-6.805.505-.575,1.9-.386,2.363-.819.513-.48.185-2.192,1.331-2.489.612-.162,6.065.683,7.4.643-1.16-1.4,1.716-5.3,2.634-5.439s2.947.954,4.456.041c.683,2.645,2.185,4.742,1.445,7.658-.185.744-2.8.237.014,4.512-1.652.061-3.332-.081-4.983,0-.278-1.441-.335-2.557-2.128-3.375a10.185,10.185,0,0,0,0,6.081c2.007-1.082-.9-2.544,2.128-2.7a47.049,47.049,0,0,0,.712,4.735c-2.043-.244-3.695-1.657-5.325-1.387-.676.108-.263,1.867-1.046,2.469a41.533,41.533,0,0,1-5.289.216c-1.5-.392-1.068-2.226-1.16-3.328,2.242.372,4.606,1.454,6.442-.3a4.157,4.157,0,0,0-3.239-7.2c-4.2.223-3.445,4.613-3.2,7.509ZM71.119,408.4a3.015,3.015,0,1,0-3.011,2.861A2.94,2.94,0,0,0,71.119,408.4Zm-7.446,2.97c.513-.947-.448-1.806-.7-1.346C62.463,410.969,63.424,411.829,63.673,411.369Z" transform="translate(-46.425 -398.171)" fill="#f8f9fc"/>
            <path id="Path_901081" data-name="Path 901081" d="M78.543,428.256c-.085.081.171.974-.185,1.15-1.032.507-2.591.379-3.723.886-.747.034-.206-1.441-.363-2.036C75.61,428.419,77.162,428.141,78.543,428.256Z" transform="translate(-52.746 -406.265)" fill="#f8f9fc"/>
            <ellipse id="Ellipse_12793" data-name="Ellipse 12793" cx="3.011" cy="2.861" rx="3.011" ry="2.861" transform="translate(18.664 7.366)" fill="#dee2fa"/>
            <path id="Path_901082" data-name="Path 901082" d="M67.938,414.565c-.249.46-1.21-.4-.7-1.346C67.489,412.759,68.45,413.618,67.938,414.565Z" transform="translate(-50.69 -401.368)" fill="#dee2fa"/>
          </g>
          <g id="Group_1111485" data-name="Group 1111485" transform="translate(41.779 262.697)">
            <g id="Group_1111479" data-name="Group 1111479" transform="translate(30.728)">
              <path id="Path_901083" data-name="Path 901083" d="M238.819,482.453v47.353c-2,.216-1.018,1.231-2.449,1.407-18.544,2.259-43.466-1.069-63.043-.054l6.891-5.621c.064-1.928.968-2.354,1.652-3.849.954-.271,7.83.372,7.83,0V509.512c0-.3-5.538.216-6.407,0-.135-1.1.093-2.273,0-3.382,1.794.352,4.463-.25,6.414,0V494.623c-4.15.122-8.343-.149-12.493,0-1.367.054-2.855-.7-2.456,1.353-.3-.176-5.859-2.6-6.2-2.679a51.524,51.524,0,0,0-8.443-.081c-1.324.162-.94,1.285-1.5,1.394-1.26.25-2.691-.216-3.994.034-.349.068-5.261,3.781-5.5,4.032-.157-.731-1.153-1.015-1.424-1.353-.214-.264-.178-.927-.712-1.353-.228-.183-.384-.528-.712-.676a9.525,9.525,0,0,1,0-1.353l.712-69.676a3.972,3.972,0,0,1,1.409-1.684l85.829-.379c2.107,0,4.748.528,4.634,3.037-.071,19.063-.043,38.146-.043,57.2Zm-7.83-51.412H154.108v23h76.881Zm-61.932,33.147H154.108v11.5h14.949Zm20.644,0H174.752v11.5H189.7Zm20.644,0H195.4v11.5h14.949Zm20.644,0H216.04v11.5h14.949Zm-76.169,27.059c1.054,1,11.148.947,13.205.7.726-.088.8-.007,1.032-.7.861-2.51-.634-9.119,0-12.176H154.108C154.606,481.743,153.111,489.63,154.819,491.247Zm19.932,0c.349,1,.954.616,1.744.7,4.257.5,9.539-.419,13.917-.041.185-.541-.7-.609-.712-.67-.619-3.551.456-8.442,0-12.176H174.752c.634,3.037-.861,9.7,0,12.176Zm21.356,0c1.054,1,11.148.947,13.205.7.726-.088.8-.007,1.032-.7.861-2.51-.634-9.119,0-12.176H195.4C195.894,481.743,194.4,489.63,196.108,491.247Zm19.932,0c.235.683.306.609,1.032.7,4.478.541,10.023-.44,14.636-.014-.505-2.672.99-10.56-.719-12.183s-11.917-.169-14.956-.683c.641,3.058-.861,9.674,0,12.183ZM195.4,494.629v11.5h14.949v-11.5Zm35.593,0H216.04v11.5h14.949Zm-20.644,14.882H195.4v12.176h14.949Zm5.695,1.353c-.15,2.983-.15,6.487,0,9.471.021.446-.036.906,0,1.353h15.668c.057-2.1.463-11.655-1.908-12.2-3.431-.785-9.923.622-13.76.027-.036.446.028.9,0,1.353Z" transform="translate(-146.005 -422.2)" fill="#829cf4"/>
              <path id="Path_901084" data-name="Path 901084" d="M146.18,494.946c-.868-22.391.683-44.965-.05-67.383-.306-1.13.363-1.576.762-2.293Z" transform="translate(-145.907 -423.193)" fill="#acbbf5"/>
              <path id="Path_901085" data-name="Path 901085" d="M147,530.947a.988.988,0,0,1-.712-.677C146.617,530.419,146.774,530.764,147,530.947Z" transform="translate(-146.018 -457.164)" fill="#acbbf5"/>
              <rect id="Rectangle_404569" data-name="Rectangle 404569" width="14.949" height="11.5" transform="translate(70.035 41.988)" fill="#e2e8f6"/>
              <rect id="Rectangle_404570" data-name="Rectangle 404570" width="14.949" height="11.5" transform="translate(70.035 72.429)" fill="#e2e8f6"/>
              <path id="Path_901086" data-name="Path 901086" d="M259.128,506.886v11.507H244.179c-.861-2.51.634-9.119,0-12.183,3.04.514,13.212-.974,14.956.683ZM252,511.628c-5.6-3.4-.164.629-2.84,2.7h4.983c-2.036-1.143-.555-3.883-.712-4.045C252.721,509.545,251.525,510.607,252,511.628Z" transform="translate(-174.144 -449.339)" fill="#e2e8f6"/>
              <path id="Path_901087" data-name="Path 901087" d="M186.179,518.447c-.861-2.476.634-9.139,0-12.176h14.949c.456,3.734-.619,8.625,0,12.176Zm9.254-8.787c-4.478-.893-5.125,1.84-1.409,3.714l-2.143,1.684c3.752.5,5.232-2.124,1.409-3.714Z" transform="translate(-157.432 -449.399)" fill="#e2e8f6"/>
              <path id="Path_901088" data-name="Path 901088" d="M215.948,518.447c-1.708-1.617-.214-9.5-.712-12.176h14.949c-.634,3.058.861,9.667,0,12.176Zm8.542-8.787c-.8-.873-4.691,3.173-3.944,4.072l3.944,1.333v-5.405Z" transform="translate(-165.845 -449.399)" fill="#e2e8f6"/>
              <path id="Path_901089" data-name="Path 901089" d="M157.948,518.447c-1.708-1.617-.214-9.5-.712-12.176h14.949c-.634,3.058.861,9.667,0,12.176Zm8.542-8.787c-3.075-.846-4.855,3.809-2.89,5.114,3.36,2.232,5.012-3.4.747-3.423l2.143-1.684Z" transform="translate(-149.133 -449.399)" fill="#e2e8f6"/>
              <path id="Path_901090" data-name="Path 901090" d="M215.29,529.27h14.949v11.5H215.29Zm9.254,3.389h-3.552c-.52,2.672,1.73.257,2.128.677,1.317,1.373-1.488,1.279-1.424,1.691l1.424.338c.712,2.429-1.858.426-2.128,2.023C226.438,538.112,223.654,536.339,224.544,532.659Z" transform="translate(-165.899 -456.841)" fill="#e2e8f6"/>
              <path id="Path_901091" data-name="Path 901091" d="M172.239,484.27v11.5H157.29v-11.5Zm-5.688,3.389h-3.559l2.136,1.353-1.424,4.052C165.939,493.68,166.9,488,166.551,487.659Z" transform="translate(-149.187 -442.282)" fill="#e2e8f6"/>
              <path id="Path_901092" data-name="Path 901092" d="M230.239,484.27v11.5H215.29v-11.5Zm-9.247,8.794c3.1.846,4.841-3.836,2.883-5.114-3.4-2.219-4.677,3.463-.747,3.423l-2.143,1.684Z" transform="translate(-165.899 -442.282)" fill="#e2e8f6"/>
              <path id="Path_901093" data-name="Path 901093" d="M201.239,484.27v11.5H186.29v-11.5Zm-5.7,3.4c-.221-.223-2.755.122-3.552,0,.562,1.272-.534,4.965,1.082,5.412,3.445.94,3.082-4.783,2.47-5.4Z" transform="translate(-157.543 -442.282)" fill="#e2e8f6"/>
              <path id="Path_901094" data-name="Path 901094" d="M259.239,507.27c1.708,1.623.214,9.5.719,12.183-4.613-.426-10.158.555-14.636.013-.726-.088-.8-.007-1.032-.7h14.956v-11.5Z" transform="translate(-174.255 -449.723)" fill="#6274b6"/>
              <path id="Path_901095" data-name="Path 901095" d="M201.239,524.27c.014.061.9.129.712.67-4.385-.386-9.667.541-13.917.04-.79-.095-1.4.291-1.744-.7h14.949Z" transform="translate(-157.543 -455.223)" fill="#6274b6"/>
              <path id="Path_901096" data-name="Path 901096" d="M230.527,524.27c-.235.683-.306.609-1.032.7-2.057.25-12.152.311-13.205-.7Z" transform="translate(-166.187 -455.223)" fill="#6274b6"/>
              <path id="Path_901097" data-name="Path 901097" d="M172.527,524.27c-.235.683-.306.609-1.032.7-2.057.25-12.152.311-13.205-.7Z" transform="translate(-149.475 -455.223)" fill="#6274b6"/>
              <g id="Group_1111478" data-name="Group 1111478" transform="translate(8.103 8.841)">
                <path id="Path_901098" data-name="Path 901098" d="M234.171,435.27v23H157.29v-23Zm-19.22,14.206-.349-6.081C212.716,443.983,213.278,451.566,214.951,449.476Zm-14.237-5.4c-1.63-1.563-3.666,3.085-4.271,4.052a16.226,16.226,0,0,1,2.363,0c.427.088.826,2.713,1.9,1.36a26.38,26.38,0,0,0,0-5.4Z" transform="translate(-157.29 -435.27)" fill="#ecf0fd"/>
                <path id="Path_901099" data-name="Path 901099" d="M216.564,448.125a26.373,26.373,0,0,1,0,5.4c-1.075,1.346-1.474-1.272-1.9-1.36a18.368,18.368,0,0,0-2.363,0c.6-.967,2.641-5.615,4.271-4.052Z" transform="translate(-173.14 -439.324)" fill="#ecf0fd"/>
                <path id="Path_901100" data-name="Path 901100" d="M237.67,453.361c-1.673,2.09-2.235-5.493-.349-6.081Z" transform="translate(-180.01 -439.156)" fill="#ecf0fd"/>
              </g>
              <path id="Path_901101" data-name="Path 901101" d="M254.13,513.517c-.484-1.021.712-2.09,1.431-1.346.157.162-1.324,2.9.712,4.045H251.29c2.677-2.07-2.762-6.1,2.84-2.7Z" transform="translate(-176.272 -451.228)" fill="#829cf4"/>
              <path id="Path_901102" data-name="Path 901102" d="M197.744,511.2,195.6,512.88c3.823,1.6,2.335,4.221-1.409,3.714l2.143-1.684C192.625,513.029,193.273,510.3,197.744,511.2Z" transform="translate(-159.742 -450.936)" fill="#acbbf5"/>
              <path id="Path_901103" data-name="Path 901103" d="M226.655,511.221v5.4l-3.944-1.333c-.747-.9,3.132-4.945,3.944-4.072Z" transform="translate(-168.01 -450.962)" fill="#acbbf5"/>
              <path id="Path_901104" data-name="Path 901104" d="M168.786,511.228l-2.143,1.684c4.264.027,2.613,5.655-.747,3.423-1.965-1.306-.192-5.96,2.89-5.114Z" transform="translate(-151.429 -450.968)" fill="#acbbf5"/>
              <path id="Path_901105" data-name="Path 901105" d="M226.821,534.28c-.89,3.68,1.886,5.452-3.552,4.729.263-1.6,2.84.406,2.128-2.023l-1.424-.338c-.064-.413,2.741-.311,1.424-1.691-.4-.413-2.648,2-2.128-.677Z" transform="translate(-168.176 -458.461)" fill="#829cf4"/>
              <path id="Path_901106" data-name="Path 901106" d="M168.859,489.28c.349.338-.612,6.021-2.847,5.4l1.424-4.052L165.3,489.28Z" transform="translate(-151.495 -443.902)" fill="#829cf4"/>
              <path id="Path_901107" data-name="Path 901107" d="M223.185,494.581l2.143-1.684c-3.929.041-2.655-5.642.747-3.423,1.958,1.279.214,5.953-2.883,5.114Z" transform="translate(-168.092 -443.799)" fill="#829cf4"/>
              <path id="Path_901108" data-name="Path 901108" d="M197.842,489.252c.619.622.975,6.345-2.47,5.4-1.616-.44-.513-4.14-1.082-5.412.8.129,3.324-.216,3.552,0Z" transform="translate(-159.848 -443.868)" fill="#acbbf5"/>
            </g>
            <g id="Group_1111484" data-name="Group 1111484" transform="translate(0 60.239)">
              <path id="Path_901109" data-name="Path 901109" d="M244.285,552.493c.021-.446-.036-.906,0-1.353,3.837.6,10.329-.812,13.76-.027,2.37.541,1.965,10.1,1.908,12.2H244.285c-.036-.453.028-.906,0-1.36,2.157.379,1.367-1.035,1.424-2.334.064-1.576.057-3.22,0-4.8C245.659,553.528,246.435,552.114,244.285,552.493Z" transform="translate(-143.522 -524.068)" fill="#d5945f"/>
              <path id="Path_901110" data-name="Path 901110" d="M230.239,551.27v12.176H215.29V551.27Zm-7,5.331c-.463-.5.327-1.806-.463-1.942-1.837,2.834-3.695,1.515-1.046,4.7.755-.19,4.947-1.867,2.99-2.645-.3-.122-1.175.217-1.474-.115Z" transform="translate(-135.171 -524.198)" fill="#e2e8f6"/>
              <path id="Path_901111" data-name="Path 901111" d="M186.263,530.579c-.4-2.05,1.089-1.3,2.456-1.353,4.15-.156,8.343.115,12.493,0v11.507c-1.943-.25-4.62.345-6.414,0-2.193-.426-1.011-2.943-1.573-3.923-.157-.277-4.357-3.112-5.246-3.822a9.558,9.558,0,0,1-1.723-2.4Z" transform="translate(-126.788 -517.037)" fill="#e2e8f6"/>
              <path id="Path_901112" data-name="Path 901112" d="M197.714,551.223c.868.217,6.407-.3,6.407,0V563.4c0,.372-6.877-.271-7.831,0C198.191,559.259,198.3,556.033,197.714,551.223Z" transform="translate(-129.696 -524.151)" fill="#e2e8f6"/>
              <path id="Path_901113" data-name="Path 901113" d="M244.245,553.24c2.15-.379,1.374,1.035,1.424,2.334.057,1.576.064,3.22,0,4.8-.057,1.3.733,2.713-1.424,2.334-.149-2.983-.149-6.487,0-9.471Z" transform="translate(-143.481 -524.815)" fill="#fbb60a"/>
              <g id="Group_1111480" data-name="Group 1111480" transform="translate(123.536)">
                <path id="Path_901114" data-name="Path 901114" d="M277.711,512.617c.313,1.515-.078,4.011,0,5.757.043.907-.591,2.814,1.061,2.361.847-.23.128-6.812.363-8.124,4.72-1.373,21.769-1.1,27.492-.724a5.551,5.551,0,0,1,2.406.724H280.551c.534,2.449-1.573,7.042,1.872,7.2l26.609-.44V512.6c.356.135,1.239-.413,1.452.426.377,1.481-.57,5.317.064,6.251.349.514,2.534.243,2.783,1.218.171.663.171,6.7-.093,6.947-.107.095-2.627.7-2.791.724-3.524.426-21.505,1.022-24.723.487a1.811,1.811,0,0,1-1.616-1.164c2.484.081,1.965.419,2.136-1.657.071-.839.228-5.8-.363-5.791-4.9.426-.513,4.3-2.484,7.448-1.659-.2-.812,1.028-2.847,1.353-.327.054-1.338-.115-1.424,0a48.667,48.667,0,0,0-.505,5.784c.142.9,1.175.893,1.929.981,1.317.156,2.883-.054,4.271,0,.555,3.017-1.972,7.9,2.847,6.758l-.712-6.758c.712.02,1.424-.007,2.136,0,.228,1.252-.477,7.218.363,7.448,1.652.453,1.018-1.454,1.061-2.368.078-1.691-.05-3.4,0-5.08h1.424c.228,1.252-.477,7.218.363,7.448,1.652.453,1.018-1.454,1.061-2.368.078-1.691-.05-3.4,0-5.08,5.624.041,11.511-.277,17.085,0,.47.02.954-.027,1.424,0,.477,2.192-1.317,7.333,1.424,6.765-.477,1.265-2.719.162-2.89,1.055-1.018,5.432,2.292,9.822,1.466,15.18h-1.424c.4-2.043-1.089-1.312-2.456-1.353-5.325-.169-10.749.3-16.053,0,0-3.234,1.3-6.352-2.847-5.412v5.419c.94.047,1.9-.061,2.847,0v1.353c-1.424.014-2.847-.014-4.271,0-.228-1.177.477-6.542-.363-6.771-1.659-.453-1.011,1.468-1.061,2.374-.078,1.461.05,2.936,0,4.39-.477,0-.947-.007-1.424,0-.228-1.177.477-6.541-.363-6.771-1.659-.453-1.011,1.468-1.061,2.374-.078,1.461.05,2.936,0,4.39-.477.007-.947-.014-1.424,0,.626-2.476-3.566-.988-5.695-1.353v-46c.548.264,1.3.778,1.424,1.353Zm9.966,7.441v7.448H289.1v-7.448Zm4.983,7.448c.847-9.646-2.976-9.646-2.128,0Zm-14.949,16.228v7.448h1.424v-7.448Zm31.322,0H280.558v6.771c9.525-.216,18.95,1.028,28.482.676v-7.448Z" transform="translate(-276.28 -511.25)" fill="#f9c43c"/>
                <path id="Path_901115" data-name="Path 901115" d="M285.137,535.26a4.979,4.979,0,0,1,.712,0,1.811,1.811,0,0,0,1.616,1.164c3.218.534,21.2-.061,24.723-.487v7.441c-5.574-.277-11.461.041-17.085,0h-4.271c-.712-.007-1.424.02-2.136,0s-1.424.027-2.136,0c-1.388-.054-2.954.156-4.271,0v-6.765C284.326,536.288,283.479,535.063,285.137,535.26Z" transform="translate(-278.012 -519.011)" fill="#fbb60a"/>
                <path id="Path_901116" data-name="Path 901116" d="M279.679,513.264c-.235,1.306.484,7.888-.363,8.124-1.652.453-1.018-1.454-1.061-2.361-.078-1.745.313-4.242,0-5.757.448-.074,1.054.108,1.424,0Z" transform="translate(-276.825 -511.898)" fill="#f8d5cd"/>
                <path id="Path_901117" data-name="Path 901117" d="M326.232,547.264c.47.027.954-.041,1.424,0-.356,1.739.513,5.419,0,6.771-2.741.568-.947-4.573-1.424-6.765Z" transform="translate(-290.632 -522.897)" fill="#fbb60a"/>
                <path id="Path_901118" data-name="Path 901118" d="M298.29,579.225c5.3.3,10.728-.169,16.053,0,1.374.041,2.855-.69,2.456,1.353-6.158,0-12.351-.054-18.508,0Z" transform="translate(-282.622 -533.211)" fill="#fbb60a"/>
                <path id="Path_901119" data-name="Path 901119" d="M290.256,578c.05-1.454-.071-2.929,0-4.39.05-.913-.6-2.828,1.061-2.374.84.23.135,5.588.363,6.771h-1.424Z" transform="translate(-280.283 -530.636)" fill="#f8d5cd"/>
                <path id="Path_901120" data-name="Path 901120" d="M286.256,578c.05-1.454-.071-2.929,0-4.39.05-.913-.6-2.828,1.061-2.374.84.23.135,5.588.363,6.771-.477.007-.947-.007-1.424,0Z" transform="translate(-279.13 -530.636)" fill="#f8d5cd"/>
                <path id="Path_901121" data-name="Path 901121" d="M276.29,579.215c2.128.365,6.321-1.123,5.695,1.353-1.844.054-3.937-.189-5.695,0Z" transform="translate(-276.283 -533.201)" fill="#fbb60a"/>
                <path id="Path_901122" data-name="Path 901122" d="M310.762,559.27v7.448c-9.525.352-18.95-.893-28.482-.676V559.27Z" transform="translate(-278.009 -526.786)" fill="#fbb60a"/>
                <path id="Path_901123" data-name="Path 901123" d="M310.7,513.27v6.771l-26.6.44c-3.445-.162-1.338-4.756-1.872-7.211h28.482Z" transform="translate(-277.948 -511.904)" fill="#fbb60a"/>
                <path id="Path_901124" data-name="Path 901124" d="M286.29,531.708c1.972-3.152-2.413-7.022,2.484-7.448.591-.007.434,4.952.363,5.791-.171,2.077.349,1.739-2.136,1.657A4.98,4.98,0,0,0,286.29,531.708Z" transform="translate(-279.164 -515.459)" fill="#f8d5cd"/>
                <path id="Path_901125" data-name="Path 901125" d="M297.137,576.6c-.947-.054-1.908.047-2.847,0v-5.418c4.143-.94,2.847,2.178,2.847,5.412Z" transform="translate(-281.469 -530.584)" fill="#f8d5cd"/>
                <path id="Path_901126" data-name="Path 901126" d="M290.356,547.267l.712,6.758c-4.812,1.137-2.285-3.741-2.847-6.758C288.932,547.294,289.644,547.247,290.356,547.267Z" transform="translate(-279.671 -522.901)" fill="#f8d5cd"/>
                <path id="Path_901127" data-name="Path 901127" d="M298.379,531.82H296.25C295.4,522.173,299.226,522.173,298.379,531.82Z" transform="translate(-281.999 -515.564)" fill="#f8d5cd"/>
                <path id="Path_901128" data-name="Path 901128" d="M295.689,547.27c-.05,1.684.078,3.389,0,5.08-.043.913.591,2.821-1.061,2.368-.84-.23-.135-6.2-.363-7.448Z" transform="translate(-281.444 -522.904)" fill="#f8d5cd"/>
                <path id="Path_901129" data-name="Path 901129" d="M299.689,547.27c-.05,1.684.078,3.389,0,5.08-.043.913.591,2.821-1.061,2.368-.84-.23-.135-6.2-.363-7.448Z" transform="translate(-282.597 -522.904)" fill="#f8d5cd"/>
                <rect id="Rectangle_404571" data-name="Rectangle 404571" width="7.448" height="1.431" transform="translate(11.397 16.259) rotate(-89.98)" fill="#f8d5cd"/>
                <rect id="Rectangle_404572" data-name="Rectangle 404572" width="7.448" height="1.431" transform="translate(1.435 39.937) rotate(-89.98)" fill="#f8d5cd"/>
                <path id="Path_901130" data-name="Path 901130" d="M281.507,537.25v6.765c-.755-.088-1.787-.081-1.929-.981a48.539,48.539,0,0,1,.505-5.784C280.169,537.135,281.18,537.3,281.507,537.25Z" transform="translate(-277.229 -519.649)" fill="#f8d5cd"/>
              </g>
              <path id="Path_901131" data-name="Path 901131" d="M225.3,558.221c.306.331,1.175,0,1.474.115,1.958.778-2.228,2.462-2.99,2.645-2.648-3.193-.79-1.867,1.046-4.7.8.135,0,1.441.463,1.941Z" transform="translate(-137.239 -525.819)" fill="#829cf4"/>
              <g id="Group_1111483" data-name="Group 1111483" transform="translate(0 10.654)">
                <g id="Group_1111481" data-name="Group 1111481" transform="translate(0 0.127)">
                  <path id="Path_901132" data-name="Path 901132" d="M133.742,529.273a.988.988,0,0,0,.712.677c.534.426.5,1.089.712,1.353-1.858,3.213-2.869.3-3.061.23-1.246-.507-2.947-1.515-3.132-1.563-.883-.21-10.464-.345-10.892-.014-.278.217,1.559,2.544-.37,3.369-1.687.724-.826-1.813-1.061-2.023-.762-.683-3.232,1.346-4.264,1.367-.812,2.557,4.421.345,2.826,2.679-.2.3-5.5,3.842-5.659,4.559-.228.994.2,2.138-.036,3.1-.121.514-1.267.419-1.4.927-.363,1.434.2,3.4-.021,4.945-2.121,2.632-1.182-6.44-1.424-6.758-1.951.7-1.73,5.3-1.474,7.15.178,1.258,1.338.873,1.466,1.427.228,1-.221,2.253.05,3.22.534,1.881,5.9,7.272,7.816,8.118,1.032.453,2.178.162,3,.426.641.21.534,1.177,1.032,1.285a67.764,67.764,0,0,0,7.1.433c3.645-.041,5.581-3.335,9.5-1.766a7.609,7.609,0,0,0,0,1.353c-1.438-.48-1.31,1.231-1.908,1.346-1.054.2-2.249-.2-3.3.014-.584.122-.178,1.231-1.5,1.4a24.2,24.2,0,0,1-15.355-2.76c-9.8-4.9-12.009-14.47-9.254-24.353.064-.237-.093-.561,0-.676.043-.054,1.011.122,1.189-.2,2.691-4.85,4.556-7.576,10.2-9.951,5.275-2.219,13.312-1.684,18.508.676Z" transform="translate(-102.741 -527.187)" fill="#f9c43c"/>
                  <path id="Path_901133" data-name="Path 901133" d="M136.1,563.649c-3.915-1.563-5.844,1.725-9.5,1.766a67.659,67.659,0,0,1-7.1-.433c-.491-.108-.384-1.076-1.032-1.285-.819-.264-1.965.027-3-.426-1.915-.846-7.289-6.237-7.816-8.118-.271-.967.178-2.219-.05-3.22-.128-.555-1.288-.169-1.466-1.427-.263-1.84-.477-6.453,1.474-7.15.242.318-.7,9.4,1.424,6.758.221-1.542-.342-3.511.021-4.945.128-.507,1.274-.413,1.4-.927.228-.967-.192-2.117.036-3.1.164-.717,5.453-4.262,5.659-4.559,1.595-2.334-3.638-.122-2.826-2.679,1.032-.02,3.5-2.05,4.264-1.367.235.21-.626,2.747,1.061,2.023,1.929-.825.093-3.152.37-3.369.42-.331,10-.189,10.892.014.185.041,1.886,1.055,3.132,1.563.192.081,1.2,2.983,3.061-.23.271.338,1.267.622,1.424,1.353-7.788,8.381-8.258,20.186,0,28.412.541,1.684-1.31,1.231-1.424,1.353Zm-13.525-23.676c-.392.406-1.958.284-2.157,1.13a16.2,16.2,0,0,0,.057,4.465c.377,1.8,7.546,2.591,7.1,5.54a9.635,9.635,0,0,1-2.506,1.793c-2.285.095-2.741-1.211-4.627-1.427-1.068,3.673,1.908,2.51,2.705,3.558.726.954-1.018,2.435,2.983,1.854-.591-4.268,1.018-1.962,2.684-2.855,1.794-.961,1.908-4.268.562-5.987-2.677-3.423-5.581-.548-6.094-6.041,1.167-.02,6.414.419,6.393-1.015-.043-2.956-4.947-.088-3.545-4.4-2.007-.223-2.477,2.253-3.552,3.382Z" transform="translate(-103.673 -528.417)" fill="#fbb60a"/>
                  <path id="Path_901134" data-name="Path 901134" d="M129.048,546.3c.505,5.5,3.417,2.618,6.094,6.041,1.345,1.718,1.232,5.026-.562,5.987-1.666.893-3.275-1.414-2.684,2.855-4,.582-2.257-.9-2.983-1.853-.8-1.055-3.773.115-2.705-3.558,1.886.216,2.342,1.522,4.627,1.427a9.829,9.829,0,0,0,2.506-1.793c.441-2.949-6.72-3.741-7.1-5.54a16.2,16.2,0,0,1-.057-4.465c.214-.886,1.773-.724,2.157-1.13.961.318.648,1.306.712,2.029Z" transform="translate(-109.437 -532.714)" fill="#e2e8f6"/>
                  <path id="Path_901135" data-name="Path 901135" d="M129.287,542.646c1.075-1.13,1.552-3.606,3.552-3.382-1.4,4.309,3.5,1.441,3.545,4.4.021,1.434-5.218.994-6.393,1.015-.064-.724.249-1.711-.712-2.029Z" transform="translate(-110.388 -531.09)" fill="#f8d5cd"/>
                </g>
                <g id="Group_1111482" data-name="Group 1111482" transform="translate(27.837)">
                  <path id="Path_901136" data-name="Path 901136" d="M147.857,532.594c.235-.25,5.147-3.964,5.5-4.032,1.3-.257,2.734.217,3.994-.034.562-.115.178-1.231,1.5-1.393a50.782,50.782,0,0,1,8.443.081c.342.074,5.9,2.5,6.2,2.679a9.558,9.558,0,0,0,1.723,2.4c.89.71,5.09,3.545,5.246,3.822.562.981-.619,3.491,1.573,3.924.093,1.109-.135,2.28,0,3.382.591,4.81.477,8.036-1.424,12.176-.683,1.495-1.587,1.921-1.652,3.849l-6.891,5.621c-4.755.25-9.14,1.854-15.661,1.353l-8.542-5.412c-8.258-8.226-7.788-20.03,0-28.412Zm19.576-2.706c-3.282-.487-7.61.352-11.034,0-.662,3.091,4.926-.386,4.278,2.706-2.712-.467-4.741,1.191-7.119,2.036.434-6.46-8.307,3.389-7.119,4.728s2-2.334,2.84-2.023c.413,3.105-2.335,5.452-2.847,8.787-.826-.264-1.531-2.557-2.833-1.353a23.4,23.4,0,0,0,.014,4.945c.121.474,1.146.372,1.353.981,1.324,4.032,1.9,7.434,5.973,10.093.178.115,3,1.522,3.517,1.766,4.164,1.962,13.241,1.7,17.377-.447.349-.183,5.481-5.053,5.709-5.371.121-.169,1.6-2.855,1.858-3.342,1.3-2.483,1.872-8.266,1.2-10.857-.085-.318-2.748-5.222-3.054-5.676-1.36-2.016-7.717-6.623-10.094-6.974Z" transform="translate(-141.846 -527)" fill="#f9c43c"/>
                  <path id="Path_901137" data-name="Path 901137" d="M149.686,577.27l8.542,5.412c-3-.23-6.343-1.651-9.518-1.346-.755.108-.463-.866-.448-1.36a7.6,7.6,0,0,1,0-1.353C148.377,578.5,150.228,578.954,149.686,577.27Z" transform="translate(-143.675 -543.264)" fill="#829cf4"/>
                  <path id="Path_901138" data-name="Path 901138" d="M168.087,531.2c2.378.352,8.735,4.959,10.094,6.974.306.453,2.968,5.358,3.054,5.676.676,2.591.1,8.375-1.2,10.857-.256.487-1.737,3.179-1.858,3.342-.228.318-5.36,5.188-5.709,5.371-4.136,2.151-13.212,2.408-17.377.446-.513-.244-3.346-1.651-3.517-1.766-4.072-2.658-4.641-6.061-5.973-10.093-.2-.609-1.232-.507-1.353-.981a23.4,23.4,0,0,1-.014-4.945c1.3-1.211,2.015,1.089,2.833,1.353.513-3.335,3.26-5.682,2.847-8.787-.84-.311-1.652,3.362-2.84,2.023s7.553-11.189,7.119-4.728c2.378-.846,4.406-2.5,7.119-2.036.648-3.092-4.933.392-4.278-2.706,3.424.352,7.752-.487,11.034,0Zm-3.922,5.419c-1.623-1.387-1.374,2.023-1.623,2.523-.662,1.339-3.695,1.434-4.115,4.593-.448,3.382,2.136,3.037,4.086,3.937.235.108.206.879.8,1.1,1.5.548,3.068-1.028,2.292,2.395-1,4.424-5.866-.832-7.119.345a6.427,6.427,0,0,0,.121,2.6c.762.866,5.545.426,4.15,4.167,2.3.46,1-1.245,1.637-2.53s3.652-1.414,4.093-4.553c.669-4.769-1.1-3.971-4.058-5.337-.235-.108-.206-.873-.8-1.089-.662-.244-2.057.149-2.278-.047a11.679,11.679,0,0,1-.014-2.685c.349-.345,6.613.365,7.119,0,1.495-1.1-3.46-2.936-3.616-3.125-.463-.575-.47-2.124-.662-2.28Z" transform="translate(-142.5 -528.307)" fill="#fbb60a"/>
                  <path id="Path_901139" data-name="Path 901139" d="M169.932,539.119c.185.162.192,1.711.662,2.28.157.189,5.118,2.023,3.616,3.125-.505.372-6.77-.338-7.119,0a12.1,12.1,0,0,0,.014,2.685c.221.189,1.616-.2,2.278.047.6.216.562.981.8,1.089,2.961,1.36,4.727.562,4.058,5.337-.441,3.139-3.431,3.22-4.093,4.553s.662,2.99-1.637,2.53c1.4-3.741-3.388-3.3-4.15-4.167a6.423,6.423,0,0,1-.121-2.6c1.246-1.17,6.108,4.079,7.119-.345.776-3.423-.8-1.847-2.292-2.395-.591-.216-.562-.981-.8-1.1-1.951-.893-4.527-.548-4.086-3.937.42-3.159,3.453-3.261,4.115-4.593.249-.507,0-3.91,1.623-2.523Z" transform="translate(-148.267 -530.812)" fill="#e2e8f6"/>
                </g>
              </g>
            </g>
          </g>
        </g>
      </g>
    </g>
  </g>
</svg>
