<svg id="Group_1114806" data-name="Group 1114806" xmlns="http://www.w3.org/2000/svg" xmlns:xlink="http://www.w3.org/1999/xlink" width="400.234" height="394" viewBox="0 0 400.234 394">
  <defs>
    <clipPath id="clip-path">
      <rect id="Rectangle_406774" data-name="Rectangle 406774" width="373.893" height="393.385" fill="rgba(0,0,0,0)"/>
    </clipPath>
    <clipPath id="clip-path-3">
      <rect id="Rectangle_406746" data-name="Rectangle 406746" width="3.083" height="1.951" fill="rgba(0,0,0,0)"/>
    </clipPath>
    <clipPath id="clip-path-4">
      <rect id="Rectangle_406747" data-name="Rectangle 406747" width="0.045" height="1.673" fill="rgba(0,0,0,0)"/>
    </clipPath>
    <clipPath id="clip-path-5">
      <rect id="Rectangle_406748" data-name="Rectangle 406748" width="0.016" height="1.031" fill="rgba(0,0,0,0)"/>
    </clipPath>
    <clipPath id="clip-path-6">
      <rect id="Rectangle_406749" data-name="Rectangle 406749" width="0.146" height="8.635" fill="rgba(0,0,0,0)"/>
    </clipPath>
    <clipPath id="clip-path-7">
      <rect id="Rectangle_406750" data-name="Rectangle 406750" width="0.947" height="2.707" fill="rgba(0,0,0,0)"/>
    </clipPath>
    <clipPath id="clip-path-11">
      <rect id="Rectangle_406760" data-name="Rectangle 406760" width="36.667" height="72.649" fill="rgba(0,0,0,0)"/>
    </clipPath>
    <clipPath id="clip-path-12">
      <rect id="Rectangle_406761" data-name="Rectangle 406761" width="7.347" height="28.672" fill="rgba(0,0,0,0)"/>
    </clipPath>
    <clipPath id="clip-path-13">
      <rect id="Rectangle_406762" data-name="Rectangle 406762" width="3.329" height="3.39" fill="rgba(0,0,0,0)"/>
    </clipPath>
    <clipPath id="clip-path-14">
      <rect id="Rectangle_406763" data-name="Rectangle 406763" width="39.238" height="25.075" fill="rgba(0,0,0,0)"/>
    </clipPath>
    <clipPath id="clip-path-15">
      <rect id="Rectangle_406764" data-name="Rectangle 406764" width="20.624" height="14.52" fill="rgba(0,0,0,0)"/>
    </clipPath>
    <clipPath id="clip-path-16">
      <rect id="Rectangle_406765" data-name="Rectangle 406765" width="3.445" height="3.432" fill="rgba(0,0,0,0)"/>
    </clipPath>
    <clipPath id="clip-path-17">
      <rect id="Rectangle_406766" data-name="Rectangle 406766" width="44.348" height="3.774" fill="rgba(0,0,0,0)"/>
    </clipPath>
    <clipPath id="clip-path-18">
      <rect id="Rectangle_406767" data-name="Rectangle 406767" width="21.455" height="4.524" fill="rgba(0,0,0,0)"/>
    </clipPath>
    <clipPath id="clip-path-19">
      <rect id="Rectangle_406768" data-name="Rectangle 406768" width="39.395" height="14.171" fill="rgba(0,0,0,0)"/>
    </clipPath>
    <clipPath id="clip-path-20">
      <rect id="Rectangle_406769" data-name="Rectangle 406769" width="15.28" height="6.056" fill="rgba(0,0,0,0)"/>
    </clipPath>
    <clipPath id="clip-path-21">
      <rect id="Rectangle_406770" data-name="Rectangle 406770" width="16.319" height="5.181" fill="rgba(0,0,0,0)"/>
    </clipPath>
    <clipPath id="clip-path-22">
      <rect id="Rectangle_406771" data-name="Rectangle 406771" width="5.512" height="32.945" fill="rgba(0,0,0,0)"/>
    </clipPath>
  </defs>
  <rect id="Rectangle_406775" data-name="Rectangle 406775" width="400" height="394" transform="translate(0.234)" fill="none"/>
  <g id="Group_1114805" data-name="Group 1114805">
    <g id="Group_1114804" data-name="Group 1114804" clip-path="url(#clip-path)">
      <g id="Group_1114759" data-name="Group 1114759">
        <g id="Group_1114758" data-name="Group 1114758" clip-path="url(#clip-path)">
          <path id="Path_907917" data-name="Path 907917" d="M83.658,125.1A29.995,29.995,0,1,1,53.664,95.1,30,30,0,0,1,83.658,125.1" transform="translate(-3.277 -13.165)" fill="#fafafa"/>
          <path id="Path_907918" data-name="Path 907918" d="M83.774,124.816a8.576,8.576,0,0,1-.243-1.922,15.7,15.7,0,0,0-.287-2.309,22.677,22.677,0,0,0-.646-3.1,29.1,29.1,0,0,0-3.327-7.951,29.93,29.93,0,0,0-7.538-8.466,29.614,29.614,0,0,0-27.97-4.446,27.79,27.79,0,0,0-7.5,3.946,33.519,33.519,0,0,0-3.373,2.81,33.734,33.734,0,0,0-2.922,3.388,29.376,29.376,0,0,0-.409,34.829,33.477,33.477,0,0,0,2.842,3.457,33.381,33.381,0,0,0,3.307,2.888,27.732,27.732,0,0,0,7.407,4.122,29.835,29.835,0,0,0,35.8-12.078,29.118,29.118,0,0,0,3.511-7.87,22.7,22.7,0,0,0,.719-3.082,15.737,15.737,0,0,0,.34-2.3,8.571,8.571,0,0,1,.288-1.916,8.472,8.472,0,0,1,.047,1.941,13.644,13.644,0,0,1-.186,2.35,21.057,21.057,0,0,1-.582,3.172,28.5,28.5,0,0,1-3.343,8.191,30.7,30.7,0,0,1-20.857,14.48A30.973,30.973,0,0,1,42.576,153.5a29.1,29.1,0,0,1-7.829-4.29,34.808,34.808,0,0,1-3.5-3.029,34.917,34.917,0,0,1-3.014-3.632,30.866,30.866,0,0,1,.432-36.761,34.977,34.977,0,0,1,3.1-3.559,34.581,34.581,0,0,1,3.569-2.945,29.1,29.1,0,0,1,7.926-4.105,30.98,30.98,0,0,1,16.306-1.072,30.7,30.7,0,0,1,20.513,14.964,28.527,28.527,0,0,1,3.152,8.267,21.081,21.081,0,0,1,.507,3.186,13.5,13.5,0,0,1,.131,2.355,8.457,8.457,0,0,1-.092,1.939" transform="translate(-3.098 -12.942)" fill="#e0e0e0"/>
          <path id="Path_907919" data-name="Path 907919" d="M78.693,107.889c.068.093-.472.575-1.516,1.372l-1.932,1.423c-.383.269-.782.574-1.229.861l-1.482.8a34.174,34.174,0,0,1-17.744,4.707l-2.7-.086-2.591-.372c-.424-.065-.846-.117-1.26-.195l-1.211-.307c-.8-.21-1.585-.387-2.337-.617a39.006,39.006,0,0,1-7.6-3.385c-4.089-2.4-6.092-4.609-5.941-4.755.161-.19,2.391,1.652,6.5,3.722A45.6,45.6,0,0,0,45.138,114c.726.2,1.487.352,2.253.538l1.164.273,1.206.167,2.475.333,2.57.072A36.86,36.86,0,0,0,71.995,111.3l1.5-.675c.456-.246.87-.508,1.268-.735l2.052-1.165c1.142-.623,1.81-.926,1.878-.834" transform="translate(-4.313 -14.856)" fill="#e0e0e0"/>
          <path id="Path_907920" data-name="Path 907920" d="M30.645,149.944c-.068-.093.472-.575,1.516-1.372l1.931-1.423c.383-.269.783-.574,1.229-.861l1.482-.8a34.174,34.174,0,0,1,17.744-4.707l2.7.086,2.592.372c.425.065.846.116,1.259.195l1.212.306c.8.211,1.584.388,2.336.618a39.062,39.062,0,0,1,7.6,3.385c4.088,2.4,6.092,4.609,5.94,4.755-.162.19-2.391-1.652-6.5-3.722A45.565,45.565,0,0,0,64.2,143.83c-.727-.2-1.486-.352-2.252-.538l-1.165-.274-1.205-.166L57.1,142.52l-2.57-.072a36.86,36.86,0,0,0-17.188,4.087l-1.5.674c-.457.246-.87.509-1.268.736l-2.052,1.165c-1.142.623-1.81.926-1.878.834" transform="translate(-4.241 -19.488)" fill="#e0e0e0"/>
          <path id="Path_907921" data-name="Path 907921" d="M83.9,130.463c-.005.46-13.568.674-30.289.478s-30.278-.727-30.273-1.187,13.565-.673,30.293-.477S83.9,130,83.9,130.463" transform="translate(-3.23 -17.886)" fill="#e0e0e0"/>
          <path id="Path_907922" data-name="Path 907922" d="M57.206,154.834c-.46-.005-.674-13.564-.478-30.279s.726-30.269,1.186-30.263.674,13.56.478,30.282-.727,30.265-1.186,30.26" transform="translate(-7.843 -13.053)" fill="#e0e0e0"/>
          <path id="Path_907923" data-name="Path 907923" d="M54.814,154.786c-.112.177-3.476-2.042-7.391-7.115a40.735,40.735,0,0,1-5.535-9.757,36.508,36.508,0,0,1-2.513-13.536,34.72,34.72,0,0,1,2.887-13.468,42.065,42.065,0,0,1,5.794-9.6c4.015-4.978,7.35-7.2,7.465-7.03.165.187-2.849,2.7-6.529,7.744a45.369,45.369,0,0,0-5.315,9.476,34.905,34.905,0,0,0-2.638,12.887,36.85,36.85,0,0,0,2.283,12.981,43.661,43.661,0,0,0,5.052,9.609c3.569,5.117,6.6,7.622,6.438,7.808" transform="translate(-5.451 -13.05)" fill="#e0e0e0"/>
          <path id="Path_907924" data-name="Path 907924" d="M58.789,94.289c.112-.177,3.476,2.042,7.39,7.115a40.707,40.707,0,0,1,5.536,9.757A36.508,36.508,0,0,1,74.228,124.7a34.72,34.72,0,0,1-2.887,13.468,42.065,42.065,0,0,1-5.794,9.6c-4.015,4.978-7.35,7.2-7.465,7.03-.165-.187,2.849-2.7,6.53-7.745a45.378,45.378,0,0,0,5.314-9.475,34.905,34.905,0,0,0,2.638-12.887,36.869,36.869,0,0,0-2.283-12.981,43.66,43.66,0,0,0-5.052-9.609c-3.569-5.117-6.6-7.622-6.438-7.808" transform="translate(-8.039 -13.051)" fill="#e0e0e0"/>
          <path id="Path_907925" data-name="Path 907925" d="M58.031,163.489c.124,0,.224,4.368.224,9.756s-.1,9.757-.224,9.757-.224-4.367-.224-9.757.1-9.756.224-9.756" transform="translate(-8.002 -22.632)" fill="#ebebeb"/>
          <path id="Path_907926" data-name="Path 907926" d="M80.872,74.338a1.366,1.366,0,0,1-.4.046l-1.15.041-4.23.072c-3.573.041-8.508.065-13.958.065l-3.506,0,.221-.221c-.03,4.576-.056,8.606-.076,11.583-.028,1.4-.049,2.545-.066,3.416a7.28,7.28,0,0,1-.078,1.237,7.281,7.281,0,0,1-.078-1.237c-.017-.871-.039-2.019-.066-3.416-.02-2.977-.046-7.007-.076-11.583l0-.221h.222l3.506,0c5.45,0,10.385.025,13.958.065l4.23.072,1.15.042a1.389,1.389,0,0,1,.4.045" transform="translate(-7.947 -10.26)" fill="#ebebeb"/>
          <rect id="Rectangle_406742" data-name="Rectangle 406742" width="9.291" height="43.846" transform="translate(254.856 349.315)" fill="#ebebeb"/>
          <rect id="Rectangle_406743" data-name="Rectangle 406743" width="9.291" height="43.846" transform="translate(333.805 349.315)" fill="#ebebeb"/>
          <rect id="Rectangle_406744" data-name="Rectangle 406744" width="117.207" height="10.843" transform="translate(239.488 294.193)" fill="#ebebeb"/>
          <path id="Path_907927" data-name="Path 907927" d="M391.651,398.876l-105.4.228V354.046h105.4Z" transform="translate(-39.626 -49.011)" fill="#ebebeb"/>
          <path id="Path_907928" data-name="Path 907928" d="M395.175,354.013c0,.116-26.24.211-58.6.211s-58.606-.095-58.606-.211,26.234-.211,58.606-.211,58.6.095,58.6.211" transform="translate(-38.48 -48.978)" fill="#e0e0e0"/>
          <path id="Path_907929" data-name="Path 907929" d="M391.326,406.31c0,.116-23.423.211-52.312.211s-52.317-.095-52.317-.211,23.419-.211,52.317-.211,52.312.095,52.312.211" transform="translate(-39.688 -56.217)" fill="#e0e0e0"/>
          <path id="Path_907930" data-name="Path 907930" d="M384.322,391.015s-.009-.179-.014-.518-.009-.846-.015-1.5c-.009-1.324-.02-3.26-.034-5.766-.017-5.02-.043-12.311-.076-21.459l.139.139-88.015.072H296.3l.21-.211c0,10.158,0,20.013-.006,29.239l-.2-.2,62.954.095,18.4.057,4.942.027,1.283.013c.29,0,.445.013.445.013s-.137.009-.419.013l-1.259.013-4.9.026-18.35.058-63.094.095h-.2v-.2c0-9.227,0-19.081-.007-29.239v-.211h.216l88.015.072h.139v.139c-.033,9.184-.059,16.5-.076,21.542-.015,2.493-.027,4.417-.034,5.735-.006.639-.011,1.128-.015,1.472s-.014.49-.014.49" transform="translate(-40.989 -50.052)" fill="#e0e0e0"/>
          <path id="Path_907931" data-name="Path 907931" d="M299.843,391.294a14.565,14.565,0,0,1-3.365,3.611,14.564,14.564,0,0,1,3.365-3.611" transform="translate(-41.041 -54.167)" fill="#e0e0e0"/>
          <path id="Path_907932" data-name="Path 907932" d="M299.823,365.646a15.993,15.993,0,0,1-3.488-3.829,16,16,0,0,1,3.488,3.829" transform="translate(-41.021 -50.086)" fill="#e0e0e0"/>
          <path id="Path_907933" data-name="Path 907933" d="M398.019,361.915a7.678,7.678,0,0,1-1.916,2.03,12.007,12.007,0,0,1-2.194,1.713,7.678,7.678,0,0,1,1.916-2.03,12.056,12.056,0,0,1,2.194-1.713" transform="translate(-54.529 -50.1)" fill="#e0e0e0"/>
          <path id="Path_907934" data-name="Path 907934" d="M397.866,395.133a18.062,18.062,0,0,1-3.954-3.834,18.066,18.066,0,0,1,3.954,3.834" transform="translate(-54.529 -54.168)" fill="#e0e0e0"/>
          <path id="Path_907935" data-name="Path 907935" d="M380.929,387.8s-.009-.133-.013-.38-.008-.623-.014-1.1c-.007-.974-.017-2.392-.031-4.231-.016-3.694-.04-9.069-.071-15.863l.128.128-80.575.083h0l.211-.211c0,7.414,0,14.643-.005,21.57l-.206-.206,57.5.094,16.922.059,4.56.027,1.186.014c.268,0,.412.013.412.013s-.126.009-.385.013l-1.161.014-4.515.027-16.876.059L300.35,388h-.206V387.8c0-6.927,0-14.156-.005-21.57v-.211h.215l80.575.082h.129v.128c-.03,6.827-.054,12.229-.071,15.94-.014,1.827-.024,3.234-.031,4.2-.006.463-.01.818-.014,1.073s-.013.355-.013.355" transform="translate(-41.549 -50.668)" fill="#e0e0e0"/>
          <path id="Path_907936" data-name="Path 907936" d="M353.838,376.234a8.55,8.55,0,0,0-2.164-.984,6.954,6.954,0,0,0-2.139-.333H343.6a6.831,6.831,0,0,0-4.724,1.827,3.958,3.958,0,0,0-.708.856,2.437,2.437,0,0,0,.232,2.9c.762.714,2.319.366,2.448-.671a2.574,2.574,0,0,0,2.73,2.425,3.466,3.466,0,0,0,2.918-2.53,2.316,2.316,0,0,0,4.609.35c.731.954,1.814,1.845,3.064,1.439a2.206,2.206,0,0,0,1.42-1.585,3.557,3.557,0,0,0-1.753-3.693" transform="translate(-46.763 -51.901)" fill="#e0e0e0"/>
          <path id="Path_907937" data-name="Path 907937" d="M345.142,374.884a8.3,8.3,0,0,0-3.809,5.235c-.05,0-.088-.395.033-1.014a5.905,5.905,0,0,1,2.822-3.878c.552-.3.937-.389.955-.343" transform="translate(-47.245 -51.894)" fill="#ebebeb"/>
          <path id="Path_907938" data-name="Path 907938" d="M348.309,375.172a13.236,13.236,0,0,1-.49,4.671,13.124,13.124,0,0,1,.49-4.671" transform="translate(-48.138 -51.936)" fill="#ebebeb"/>
          <path id="Path_907939" data-name="Path 907939" d="M351.718,375.092c.027-.043.336.081.688.471a3.705,3.705,0,0,1,.833,1.825,6.6,6.6,0,0,1,.011,1.979c-.069.5-.15.8-.207.792s-.083-.315-.09-.809a12.192,12.192,0,0,0-.129-1.889,4.565,4.565,0,0,0-.654-1.716c-.259-.4-.491-.6-.452-.653" transform="translate(-48.689 -51.924)" fill="#ebebeb"/>
          <rect id="Rectangle_406745" data-name="Rectangle 406745" width="72.222" height="8.46" transform="translate(263.125 364.079)" fill="#ebebeb"/>
          <path id="Path_907940" data-name="Path 907940" d="M359.751,328.72v10.894H312.909a5.447,5.447,0,0,1,0-10.894" transform="translate(-42.563 -45.505)" fill="#e0e0e0"/>
          <path id="Path_907941" data-name="Path 907941" d="M365.165,337.7H349.4a2.821,2.821,0,0,1-2.822-2.822v-.683a2.821,2.821,0,0,1,2.822-2.822h15.766Z" transform="translate(-47.978 -45.872)" fill="#ebebeb"/>
          <path id="Path_907942" data-name="Path 907942" d="M359.751,316.077v10.894H312.909a5.447,5.447,0,0,1,0-10.894Z" transform="translate(-42.563 -43.755)" fill="#ebebeb"/>
          <path id="Path_907943" data-name="Path 907943" d="M365.165,325.053H349.4a2.821,2.821,0,0,1-2.822-2.822v-.683a2.821,2.821,0,0,1,2.822-2.822h15.766Z" transform="translate(-47.978 -44.122)" fill="#f5f5f5"/>
          <path id="Path_907944" data-name="Path 907944" d="M327.692,295.8l-7.44,17.473h4.789l3.3-9.333Z" transform="translate(-44.333 -40.948)" fill="#e0e0e0"/>
          <path id="Path_907945" data-name="Path 907945" d="M351.527,277.443l2.874,33.286H330.087l-2.672-33.286Z" transform="translate(-45.325 -38.407)" fill="#f5f5f5"/>
          <path id="Path_907946" data-name="Path 907946" d="M349.72,280.482l2.518,27.879-18.251.24-2.465-28.282Z" transform="translate(-45.893 -38.805)" fill="#fafafa"/>
          <path id="Path_907947" data-name="Path 907947" d="M346.539,284.987l1.432,19.185h-9.736l-1.717-19.185Z" transform="translate(-46.585 -39.451)" fill="#e0e0e0"/>
          <path id="Path_907948" data-name="Path 907948" d="M306.531,72.916c-.078-.8-.167-1.6-.279-2.387q-.163-1.255-.371-2.5.208,1.242.371,2.5c.112.792.2,1.584.279,2.387" transform="translate(-42.344 -9.418)" fill="#263238"/>
          <path id="Path_907949" data-name="Path 907949" d="M277.65,73.394a35.243,35.243,0,0,1-1.305-4.931,3.266,3.266,0,0,0-1.484-2.209,13.13,13.13,0,0,0-1.774-.4c-2.086-.625-2.654-3.537-4.629-4.441A6.734,6.734,0,0,0,266.472,61c-2.644-.312-5.377-1.227-7.039-3.3A12.988,12.988,0,0,0,257.8,55.69a1.95,1.95,0,0,0-2.387-.223c.558,1.116,1.1,2.231,1.652,3.336a8.778,8.778,0,0,0,1.851,2.778,2.989,2.989,0,0,0,3.112.669,2.06,2.06,0,0,1,1.049-.369,1.137,1.137,0,0,1,.681.435c1.439,1.6.97,4.24-.435,5.868s-3.47,2.466-5.467,3.258a4.242,4.242,0,0,1-2.231.435c-1.383-.257-2.119-1.763-2.521-3.113-.9-2.99-1.339-6.236-3.19-8.757a10.954,10.954,0,0,1-1.684-2.443c-.38-1-.29-2.175-.893-3.056-.625-.926-1.952-1.462-2.042-2.578a2.034,2.034,0,0,1,1.305-1.807c.714-.345,1.517-.446,2.254-.748.289-.122.613-.334.625-.647,0-.468-.647-.657-.814-1.092-.179-.491.323-.949.535-1.428.457-1.093-.681-2.2-1.785-2.644s-2.421-.769-2.934-1.84a6.349,6.349,0,0,1-.357-1.6,3.491,3.491,0,0,0-2.611-2.878A2.3,2.3,0,0,0,238.85,39.6a9.687,9.687,0,0,0,.993,2.019c.313.692.224,1.718-.49,1.941-1.172.358-2.3-1.784-3.28-1.049.4,1.372.792,2.745,1.194,4.128-1.54.781-3.381-.636-4.039-2.243s-.681-3.425-1.461-4.964-2.89-2.7-4.228-1.606c-.067,1.986,2.555,2.789,3.714,4.4a2.694,2.694,0,0,1-.524,3.781c-1.228.737-3.179-.546-2.711-1.9.168-.469.558-.859.6-1.361.045-.625-.479-1.127-.959-1.528-.748-.636-1.495-1.26-2.242-1.885a4.734,4.734,0,0,0-1.6-1c-1.54-.445-3.079.8-3.893,2.175s-1.272,3-2.4,4.15a4.386,4.386,0,0,1-6.2.022c-1.528-1.752-.748-5.032,1.495-5.667.848-.233,1.919-.212,2.365-.959.781-1.328-1.451-3.023-.681-4.362.591-1.026,2.153-.557,3.291-.9s1.763-1.484,2.431-2.465,1.7-1.952,2.856-1.7a3.571,3.571,0,0,1,.123-2.031,1.242,1.242,0,0,1,1.707-.625,2.061,2.061,0,0,0,1.1,2.71,6.017,6.017,0,0,0,3.246.234c1.093-.134,2.466-.535,2.555-1.628.034-.358-.1-.737.034-1.071.479-1.305,2.889.49,3.815-.558.535-.546-.056-1.517-.8-1.7a8.173,8.173,0,0,0-2.264.112c-.758.033-1.684-.369-1.718-1.127s.8-1.283.893-2.02c.145-1.249-1.975-1.572-2.723-.557s-.479,2.41-.256,3.648.345,2.7-.57,3.569c-.39.592-1.405.279-1.74-.345a5.04,5.04,0,0,1-.323-2.086,1.8,1.8,0,0,0-1.06-1.707,3.768,3.768,0,0,0-1.484.167c-1.941.234-3.291-2.275-2.678-4.128s2.365-3.057,4.072-4c1.249-.692,2.8-1.339,4.038-.636.581.323.982.881,1.551,1.216.982.58,2.2.368,3.325.39a7.748,7.748,0,0,1,4.852,1.885c.5.457.971,1.217.581,1.763-.424.58-1.64.7-1.428,1.384a2.419,2.419,0,0,0,3.034-1.952,2.029,2.029,0,0,1,1.172,1.651,3.612,3.612,0,0,1,5.3.435,4.563,4.563,0,0,0,.982,1.26c.446.29,1.227.146,1.283-.379a1.064,1.064,0,0,0-.09-.491c-.268-.758-.546-1.506-.814-2.253,1.037-.558,2.265.312,2.967,1.249,2.611,3.492,4.474,1.394,8.155,1.964,2.488.379,3.582,1.975,4.987,3.9,4.306,5.934,10,10.8,13.912,17,.413.647.792,1.305,1.148,1.974-.066-.167-.122-.334-.19-.5a68.771,68.771,0,0,0-5.689-11.568q-.72-1.172-1.473-2.31c-.312-.468-.636-.948-.959-1.405-.413-.6-.848-1.183-1.283-1.763-.346-.469-.692-.925-1.049-1.372-.246-.312-.5-.625-.759-.937-.267-.357-.557-.7-.87-1.049l-.937-1.082a4.224,4.224,0,0,0-.3-.335c-.323-.379-.669-.747-1.015-1.116a.323.323,0,0,0-.1-.111c-.089-.1-.19-.2-.289-.3-.279-.312-.581-.613-.871-.914-.479-.491-.97-.982-1.472-1.451-.413-.413-.837-.8-1.272-1.193-.379-.345-.758-.692-1.148-1.026s-.759-.658-1.149-.982c-.469-.4-.948-.792-1.44-1.182h-.011c-1.349-1.082-2.744-2.108-4.172-3.068-.357-.246-.7-.48-1.06-.714s-.725-.469-1.082-.692-.725-.457-1.093-.669c-.368-.234-.737-.446-1.1-.659-.3-.178-.591-.345-.893-.5a4.6,4.6,0,0,0-.457-.257c-.636-.357-1.283-.7-1.93-1.026-.323-.167-.647-.335-.981-.491-.413-.212-.837-.413-1.26-.6a1.011,1.011,0,0,0-.19-.09c-.38-.178-.759-.357-1.149-.524-.547-.234-1.093-.469-1.64-.692-.625-.257-1.25-.513-1.886-.748-.7-.267-1.405-.524-2.119-.758s-1.439-.48-2.164-.7-1.45-.424-2.187-.625c-1.45-.39-2.922-.737-4.406-1.037-.022-.011-.056-.011-.078-.022-.569-.111-1.138-.223-1.707-.312a.5.5,0,0,0-.111-.022c-.246-.045-.5-.09-.759-.123-1.06-.178-2.131-.323-3.213-.446-.122-.022-.257-.034-.39-.045-.313-.044-.625-.066-.949-.1C220,.257,219.283.2,218.557.157c-.747-.056-1.506-.09-2.264-.112C215.5.011,214.709,0,213.917,0q-3.146,0-6.225.279c-.491.034-.971.078-1.451.134-.5.055-1,.111-1.506.178s-1,.134-1.495.212-.993.156-1.495.246c-.424.066-.859.145-1.283.234q-1.573.3-3.112.669-.72.168-1.44.369c-.479.122-.959.256-1.428.39-.792.223-1.562.469-2.331.714h-.011c-.625.211-1.26.424-1.874.636a.083.083,0,0,0-.045.022c-.637.223-1.249.457-1.875.7l-.1.034c-.57.223-1.138.457-1.7.692-.7.289-1.395.6-2.076.915-.58.267-1.148.535-1.707.814-.6.3-1.2.6-1.8.915l-.067.033c-.57.3-1.138.614-1.7.937-.58.323-1.149.658-1.718,1.015h-.011c-.536.324-1.06.647-1.584.982-.2.122-.39.257-.591.39-.558.357-1.093.725-1.64,1.1-.669.457-1.316.937-1.963,1.416-.569.424-1.127.859-1.674,1.294a70.21,70.21,0,0,0-8.768,8.312c-.948,1.049-1.84,2.119-2.711,3.213-.737.937-1.451,1.885-2.132,2.867q-.92,1.279-1.775,2.607Q155.5,31,156.419,29.72c.179-.022.358-.045.536-.056a8.247,8.247,0,0,0,2.967-.48,17.725,17.725,0,0,0,2.187-1.7c1.941-1.384,5.12-1.64,5.645-3.961a16.6,16.6,0,0,1,.257-2.376c.546-1.394,2.41-1.595,3.9-1.572.636,0,1.383.089,1.673.646a1.6,1.6,0,0,1-.067,1.295,12.127,12.127,0,0,1-5.12,6.291c-1.941,1.183-4.474,2.1-5.009,4.306.268.748,1.628.692,1.74,1.472.078.625-.725.949-1.015,1.507-.424.814.546,1.807,1.472,1.762a4.073,4.073,0,0,0,2.376-1.338c2.03-1.886,4.161-3.916,4.9-6.594.313-1.1.424-2.4,1.316-3.134a2.181,2.181,0,0,1,3.314,1.06c.881-.491,2.253-.859,2.71.056a4.671,4.671,0,0,1,.19,1.049c.29,1.428,2.243,2.075,2.443,3.513.234,1.663-1.9,2.522-3.559,2.779-1.506.233-3.012.468-4.518.713a4.184,4.184,0,0,0-1.874.6,1.462,1.462,0,0,0-.557,1.752,4.41,4.41,0,0,0,.781.8A2.4,2.4,0,0,1,171.569,42c-.6.022-1.193-.2-1.8-.223-1.784-.078-3.2,1.495-4.049,3.067s-1.484,3.37-2.911,4.441c-2.3,1.729-6.258,1.328-7.374,3.982a6.368,6.368,0,0,0-.034,3.425,4.575,4.575,0,0,1-.413,3.358c-.658.937-2.376,1.137-2.867.089a2.576,2.576,0,0,1-.066-1.484c.267-1.651.524-3.3.781-4.953.19-1.227.357-2.6-.368-3.6-1.016-1.406-3.291-1.272-4.608-.145a8.128,8.128,0,0,0-2.219,4.573,19.853,19.853,0,0,1-1.273,4.44h0c-.234,1.383-.424,2.789-.569,4.205-.145,1.451-.246,2.89-.3,4.362a6.032,6.032,0,0,0,.569-.535c.7-.725,2.119-3.793,3.391-2.287a1.14,1.14,0,0,1,.022,1.395c-.39.5-1.172.613-1.472,1.16-.368.647.145,1.451.747,1.875a6.507,6.507,0,0,1,1.763,1.316c.814,1.172.034,2.946.825,4.139.681,1.027,2.131,1.093,3.37,1.228.145.022.278.045.424.066a5.631,5.631,0,0,1,4.841-5.21c4.619-1.049,10.688,2.779,13.286,6.259,2.9,3.893,4.273,9.4,8.713,11.356,3.179,1.394,7.7.893,9.248,4,1.384,2.789-1.026,5.924-1.394,9.014-.234,2.042.435,4.073.591,6.114s-.457,4.441-2.32,5.3c-1.037.468-2.343.413-3.179,1.193-1.484,1.405-.268,4.306-1.752,5.712a7.648,7.648,0,0,1-1.886.993c-3.335,1.684-3.246,6.593-1.7,10,.056.123.112.234.167.358a70.5,70.5,0,0,0,36.157,9.985,70.163,70.163,0,0,0,33.076-8.233H247a70.5,70.5,0,0,0,6.236-3.76A69.456,69.456,0,0,0,262,122.011a68.319,68.319,0,0,0,5.355-5.589c1.183-1.36,2.3-2.778,3.369-4.228.547-.747,1.082-1.495,1.584-2.265a69.257,69.257,0,0,0,8.768-18.039,68.5,68.5,0,0,0,2.689-11.948c.212-1.584.379-3.19.49-4.808a4.057,4.057,0,0,1-2.833,1.26c-1.7-.022-3.09-1.439-3.771-3" transform="translate(-19.865)" fill="#f5f5f5"/>
          <path id="Path_907950" data-name="Path 907950" d="M152.633,100.668c-.223-2.02.446-4.038.48-6.08.022-1.405-.078-2.89-.1-4.306a19.365,19.365,0,0,1-3.581-.5,1.068,1.068,0,0,1-.658-.334,1.312,1.312,0,0,1-.145-.748c-.09-1.584-1.618-2.632-2.99-3.425a11.962,11.962,0,0,0-2.175-1.071c0,.167,0,.324.011.491a70.219,70.219,0,0,0,4.484,22.367,67.506,67.506,0,0,0,4.306,9.238c.692,1.282,1.45,2.543,2.243,3.781.981,1.528,2.007,3.023,3.112,4.462,1.026,1.384,2.119,2.734,3.269,4.027a69.9,69.9,0,0,0,4.987,5.132q2.326,2.175,4.852,4.128c-3.849-10.33-7.474-20.873-14.056-29.664-1.729-2.3-3.714-4.64-4.038-7.5" transform="translate(-19.86 -11.656)" fill="#f5f5f5"/>
          <path id="Path_907951" data-name="Path 907951" d="M143.445,80.331c-.007.426-.022.848-.022,1.272,0,.346.011.688.017,1.032-.006-.345-.017-.686-.017-1.032,0-.424.015-.846.022-1.272" transform="translate(-19.854 -11.12)" fill="#263238"/>
          <g id="Group_1114745" data-name="Group 1114745" transform="translate(154.813 129.029)" opacity="0.6">
            <g id="Group_1114744" data-name="Group 1114744">
              <g id="Group_1114743" data-name="Group 1114743" clip-path="url(#clip-path-3)">
                <path id="Path_907952" data-name="Path 907952" d="M179.687,149.761q.889.6,1.8,1.17c.424.268.849.524,1.283.781-.434-.257-.859-.513-1.283-.781q-.911-.569-1.8-1.17" transform="translate(-179.687 -149.761)" fill="#263238"/>
              </g>
            </g>
          </g>
          <path id="Path_907953" data-name="Path 907953" d="M243.521,131.894a6.111,6.111,0,0,1-1.316-.14,4.294,4.294,0,0,1-3.11-2.356,8.089,8.089,0,0,1-.542-3.07,11.656,11.656,0,0,0-.221-2.1,11.169,11.169,0,0,0-1.657-3.37,15.614,15.614,0,0,1-1.433-2.6,15.594,15.594,0,0,1-.773-5.344l-.012-.433c-.372-12.4-3.83-22.465-10-29.106a6.715,6.715,0,0,0-3.027-2.141,3.762,3.762,0,0,0-3.881,1.339,7.73,7.73,0,0,0-.585.956,5.375,5.375,0,0,1-1.021,1.453,2.916,2.916,0,0,1-2.481.671,4.488,4.488,0,0,1-3.095-2.135c-1.094-1.929-.9-4.305-.739-6.214l.637-7.694a6.774,6.774,0,0,1,1.2-3.927,6.546,6.546,0,0,1,2.86-1.64,8.586,8.586,0,0,0,2.206-1.056,8.1,8.1,0,0,0,2.362-3.93,16.58,16.58,0,0,1,1.122-2.544,4.753,4.753,0,0,1,4.417-2.173,2.065,2.065,0,0,1,1.621,1.083,4.838,4.838,0,0,1,2.872-2.63c2.549-.731,5.654,1.286,8.659,3.236,2.742,1.779,5.331,3.461,7.366,3.091.511-.093,1.032-.24,1.536-.382a8.069,8.069,0,0,1,3.308-.454c2.962.414,4.473,3.627,5.459,6.38l4.819,13.465c.6,1.676,1.372,3.515,2.966,4.133a6.139,6.139,0,0,0,2.014.294,6.819,6.819,0,0,1,2.094.3,3.369,3.369,0,0,1,2.214,2.717,7.86,7.86,0,0,1-2.593,6.767,30.9,30.9,0,0,1-2.824,2.083c-2.178,1.484-4.235,2.885-5.123,5.188a12.418,12.418,0,0,0-.59,3.94,12.19,12.19,0,0,1-.687,4.239,12.145,12.145,0,0,1-2.1,3.054,19.5,19.5,0,0,0-1.4,1.785c-1.543,2.324-1.97,5.207-2.384,8-.053.357-.106.713-.161,1.067-.482,3.106-1.316,6.571-3.837,8.732a6.466,6.466,0,0,1-4.141,1.472" transform="translate(-29.002 -7.287)" fill="#e0e0e0"/>
          <g id="Group_1114748" data-name="Group 1114748" transform="translate(123.591 67.537)" opacity="0.6">
            <g id="Group_1114747" data-name="Group 1114747">
              <g id="Group_1114746" data-name="Group 1114746" clip-path="url(#clip-path-4)">
                <path id="Path_907954" data-name="Path 907954" d="M143.494,78.4v0c-.011.134-.022.257-.022.39-.017.419-.016.847-.022,1.272.007-.425.005-.853.022-1.272,0-.134.011-.257.022-.39" transform="translate(-143.449 -78.389)" fill="#263238"/>
              </g>
            </g>
          </g>
          <g id="Group_1114751" data-name="Group 1114751" transform="translate(123.586 71.514)" opacity="0.6">
            <g id="Group_1114750" data-name="Group 1114750">
              <g id="Group_1114749" data-name="Group 1114749" clip-path="url(#clip-path-5)">
                <path id="Path_907955" data-name="Path 907955" d="M143.443,83c.005.345.005.692.016,1.032-.011-.34-.011-.688-.016-1.032" transform="translate(-143.443 -83.005)" fill="#263238"/>
              </g>
            </g>
          </g>
          <path id="Path_907956" data-name="Path 907956" d="M153.129,86.225l-.424-.067c-1.238-.134-2.689-.2-3.37-1.227-.792-1.193-.011-2.967-.826-4.139a6.5,6.5,0,0,0-1.761-1.316c-.6-.424-1.116-1.227-.748-1.874.3-.547,1.082-.658,1.472-1.161a1.139,1.139,0,0,0-.022-1.394c-1.272-1.506-2.689,1.561-3.392,2.287a6.167,6.167,0,0,1-.569.536v.011c-.011.134-.022.256-.022.39-.016.418-.015.846-.022,1.272s-.022.848-.022,1.272c0,.345.011.688.017,1.032s.005.691.016,1.031a12,12,0,0,1,2.176,1.071c1.371.793,2.9,1.841,2.99,3.425a1.312,1.312,0,0,0,.145.748,1.071,1.071,0,0,0,.657.335,19.446,19.446,0,0,0,3.582.5" transform="translate(-19.854 -10.332)" fill="#e0e0e0"/>
          <path id="Path_907957" data-name="Path 907957" d="M154.478,89.954c.022,1.416.123,2.9.1,4.306-.034,2.042-.7,4.061-.48,6.08.323,2.856,2.309,5.2,4.038,7.5,6.582,8.791,10.208,19.333,14.056,29.663h.011c.714.57,1.439,1.1,2.175,1.629q.87.627,1.758,1.229t1.8,1.17c.424.268.848.524,1.283.781-.055-.122-.111-.234-.167-.357-1.551-3.4-1.64-8.312,1.7-10a7.649,7.649,0,0,0,1.886-.993c1.484-1.406.267-4.306,1.751-5.712.837-.781,2.143-.725,3.18-1.193,1.863-.859,2.465-3.246,2.32-5.3s-.825-4.072-.591-6.113c.368-3.09,2.778-6.225,1.394-9.014-1.551-3.113-6.069-2.611-9.248-4.005-4.44-1.952-5.812-7.463-8.713-11.356-2.6-3.481-8.668-7.307-13.286-6.258a5.629,5.629,0,0,0-4.841,5.21" transform="translate(-21.326 -11.329)" fill="#e0e0e0"/>
          <path id="Path_907958" data-name="Path 907958" d="M148,53.1c1.316-1.127,3.592-1.26,4.608.145.725,1,.557,2.376.368,3.6-.257,1.651-.514,3.3-.781,4.952a2.579,2.579,0,0,0,.066,1.484c.491,1.049,2.209.848,2.867-.09a4.573,4.573,0,0,0,.413-3.358,6.368,6.368,0,0,1,.034-3.425c1.116-2.655,5.076-2.254,7.374-3.983,1.428-1.071,2.063-2.867,2.911-4.44s2.265-3.146,4.049-3.068c.6.022,1.194.246,1.8.223a2.4,2.4,0,0,0,1.54-3.882,4.41,4.41,0,0,1-.781-.8,1.461,1.461,0,0,1,.557-1.751,4.173,4.173,0,0,1,1.874-.6c1.506-.246,3.012-.48,4.518-.714,1.663-.257,3.793-1.116,3.559-2.778-.2-1.44-2.153-2.087-2.443-3.514a4.68,4.68,0,0,0-.19-1.049c-.457-.915-1.829-.546-2.71-.056a2.181,2.181,0,0,0-3.314-1.06c-.893.737-1,2.031-1.316,3.135-.736,2.677-2.867,4.708-4.9,6.593A4.079,4.079,0,0,1,165.73,40c-.926.045-1.9-.949-1.472-1.763.29-.558,1.093-.881,1.015-1.506-.112-.781-1.472-.725-1.74-1.472.535-2.209,3.068-3.124,5.009-4.306a12.129,12.129,0,0,0,5.12-6.292,1.6,1.6,0,0,0,.067-1.294c-.29-.558-1.037-.647-1.673-.647-1.495-.022-3.358.178-3.9,1.573a16.568,16.568,0,0,0-.257,2.376c-.525,2.32-3.7,2.577-5.645,3.96a17.642,17.642,0,0,1-2.187,1.7,8.229,8.229,0,0,1-2.967.48c-.178.011-.357.034-.536.056q-.92,1.279-1.775,2.608t-1.65,2.691A69.735,69.735,0,0,0,147.022,51.8q-.821,2.5-1.447,5.084t-1.063,5.235a19.865,19.865,0,0,0,1.273-4.44A8.131,8.131,0,0,1,148,53.1" transform="translate(-20.005 -3.145)" fill="#e0e0e0"/>
          <path id="Path_907959" data-name="Path 907959" d="M214.237,17.818c.666-.874.471-2.132.9-3.141.718-1.679,2.948-2.28,3.722-3.934.3-.636.37-1.413.89-1.886.433-.395,1.074-.474,1.54-.83,1.039-.8.608-2.607-.5-3.312-2.765-1.766-7.854.276-10.243,2-3.071,2.222-6.076,4.9-10.162,4.637a8.052,8.052,0,0,0-3.354.018c-1.055.4-1.706,1.982-.8,2.652.506.372,1.223.269,1.793.532,1.053.489,1.158,2.013.644,3.054s-1.441,1.82-2.048,2.809a5.315,5.315,0,0,0-.759,3.229,2.938,2.938,0,0,0,.956,2.075c1.272,1.015,3.205.146,4.282-1.074s1.82-2.8,3.217-3.631a8.015,8.015,0,0,1,2.29-.8l5.329-1.267a3.861,3.861,0,0,0,2.293-1.139" transform="translate(-27.106 -0.559)" fill="#e0e0e0"/>
          <g id="Group_1114754" data-name="Group 1114754" transform="translate(264.388 66.488)" opacity="0.6">
            <g id="Group_1114753" data-name="Group 1114753">
              <g id="Group_1114752" data-name="Group 1114752" clip-path="url(#clip-path-6)">
                <path id="Path_907960" data-name="Path 907960" d="M306.992,80.2q-.009-1.522-.09-3.023.081,1.5.09,3.023c.022.323.022.647.022.97,0,1.562-.056,3.1-.145,4.641.089-1.54.145-3.079.145-4.641,0-.323,0-.647-.022-.97" transform="translate(-306.869 -77.171)" fill="#263238"/>
              </g>
            </g>
          </g>
          <g id="Group_1114757" data-name="Group 1114757" transform="translate(260.105 45.85)" opacity="0.6">
            <g id="Group_1114756" data-name="Group 1114756">
              <g id="Group_1114755" data-name="Group 1114755" clip-path="url(#clip-path-7)">
                <path id="Path_907961" data-name="Path 907961" d="M301.9,53.228q.5,1.339.947,2.7-.446-1.358-.947-2.7s.011-.011,0-.011Z" transform="translate(-301.897 -53.217)" fill="#263238"/>
              </g>
            </g>
          </g>
          <path id="Path_907962" data-name="Path 907962" d="M295.148,71.849q-.009-1.522-.09-3.023t-.233-2.99c-.078-.8-.168-1.6-.279-2.387q-.164-1.255-.372-2.5a68.416,68.416,0,0,0-1.647-7.321q-.393-1.38-.838-2.737t-.947-2.695v-.011h0c-.357-.669-.736-1.327-1.148-1.974-3.916-6.2-9.606-11.067-13.912-17-1.405-1.93-2.5-3.526-4.987-3.9-3.681-.569-5.544,1.528-8.155-1.964-.7-.937-1.93-1.808-2.967-1.249.268.747.546,1.495.814,2.253a1.064,1.064,0,0,1,.09.491c-.056.525-.837.669-1.283.379a4.563,4.563,0,0,1-.982-1.26,3.612,3.612,0,0,0-5.3-.435,2.029,2.029,0,0,0-1.172-1.651,2.419,2.419,0,0,1-3.034,1.952c-.211-.681,1-.8,1.428-1.384.39-.546-.078-1.305-.581-1.763a7.746,7.746,0,0,0-4.852-1.885c-1.127-.022-2.343.19-3.325-.39-.569-.335-.97-.893-1.55-1.216-1.239-.7-2.79-.056-4.039.636-1.707.948-3.47,2.142-4.072,4s.737,4.362,2.678,4.128a3.768,3.768,0,0,1,1.484-.167,1.8,1.8,0,0,1,1.06,1.707,5.04,5.04,0,0,0,.323,2.086c.335.625,1.35.937,1.74.345.915-.869.8-2.331.57-3.569s-.48-2.633.257-3.648,2.866-.692,2.722.557c-.09.737-.926,1.272-.893,2.02s.96,1.161,1.718,1.127a8.18,8.18,0,0,1,2.265-.112c.747.178,1.338,1.149.8,1.7-.926,1.049-3.336-.747-3.815.558-.134.334,0,.714-.034,1.071-.09,1.093-1.461,1.495-2.555,1.628a6.02,6.02,0,0,1-3.246-.234,2.061,2.061,0,0,1-1.1-2.71,1.242,1.242,0,0,0-1.707.625,3.578,3.578,0,0,0-.123,2.031c-1.16-.257-2.2.725-2.856,1.7s-1.3,2.119-2.431,2.465-2.7-.122-3.291.9c-.769,1.339,1.461,3.034.681,4.362-.446.747-1.517.725-2.365.959-2.243.636-3.023,3.916-1.495,5.667a4.386,4.386,0,0,0,6.2-.022c1.127-1.148,1.584-2.766,2.4-4.149s2.354-2.622,3.893-2.175a4.71,4.71,0,0,1,1.6,1c.747.625,1.494,1.249,2.242,1.885.48.4,1,.9.96,1.528-.045.5-.435.893-.6,1.361-.468,1.35,1.484,2.633,2.711,1.9a2.693,2.693,0,0,0,.524-3.781c-1.16-1.607-3.781-2.41-3.714-4.4,1.338-1.093,3.447.056,4.228,1.606s.8,3.37,1.461,4.964,2.5,3.023,4.039,2.243c-.4-1.383-.793-2.755-1.194-4.128.981-.736,2.108,1.406,3.28,1.049.714-.223.8-1.249.49-1.941a9.73,9.73,0,0,1-.993-2.019,2.3,2.3,0,0,1,2.667-2.354,3.491,3.491,0,0,1,2.611,2.878,6.349,6.349,0,0,0,.357,1.6c.513,1.071,1.84,1.395,2.934,1.84s2.243,1.551,1.785,2.644c-.212.48-.714.937-.535,1.428.167.435.814.625.814,1.093-.011.312-.335.524-.625.646-.737.3-1.54.4-2.254.748a2.035,2.035,0,0,0-1.305,1.808c.09,1.115,1.416,1.651,2.042,2.577.6.881.513,2.052.893,3.057a10.968,10.968,0,0,0,1.684,2.443c1.851,2.521,2.287,5.767,3.19,8.758.4,1.349,1.138,2.855,2.521,3.112a4.242,4.242,0,0,0,2.231-.435c2-.792,4.072-1.64,5.467-3.258s1.874-4.273.435-5.868a1.137,1.137,0,0,0-.681-.435,2.054,2.054,0,0,0-1.049.369,2.99,2.99,0,0,1-3.113-.669,8.778,8.778,0,0,1-1.851-2.778c-.547-1.1-1.093-2.22-1.652-3.336a1.951,1.951,0,0,1,2.387.223,12.988,12.988,0,0,1,1.629,2.008c1.662,2.075,4.395,2.99,7.039,3.3a6.734,6.734,0,0,1,1.986.413c1.975.9,2.543,3.816,4.63,4.441a13.147,13.147,0,0,1,1.773.4,3.266,3.266,0,0,1,1.484,2.209,35.243,35.243,0,0,0,1.305,4.931c.681,1.562,2.076,2.978,3.771,3a4.06,4.06,0,0,0,2.834-1.26v-.011c.089-1.54.145-3.079.145-4.641,0-.323,0-.647-.022-.97" transform="translate(-30.636 -2.337)" fill="#e0e0e0"/>
          <path id="Path_907963" data-name="Path 907963" d="M272.728,114.633c-1.05.207-1.26.825-1.831,1.6-.743,1.012-1.807,2.026-2.483,3.025-1.147,1.695-.114,4.337-1.622,5.762a12.44,12.44,0,0,0-.98.8,1.778,1.778,0,0,0,.361,2.462,2.419,2.419,0,0,0,2.628.048,3.848,3.848,0,0,0,1.609-2.2,3.7,3.7,0,0,1,.816-1.8c.863-.756,2.2-.195,3.34-.354,4.834-.677,2.757-10.249-1.838-9.345" transform="translate(-36.749 -15.861)" fill="#e0e0e0"/>
          <rect id="Rectangle_406751" data-name="Rectangle 406751" width="92.528" height="69.085" transform="translate(273.98 114.796)" fill="#f5f5f5"/>
          <rect id="Rectangle_406752" data-name="Rectangle 406752" width="92.528" height="6.974" transform="translate(273.98 114.796)" fill="#e0e0e0"/>
          <path id="Path_907964" data-name="Path 907964" d="M322.826,137.138a.933.933,0,1,1-.932-.932.932.932,0,0,1,.932.932" transform="translate(-44.431 -18.855)" fill="#f5f5f5"/>
          <path id="Path_907965" data-name="Path 907965" d="M326.2,137.138a.933.933,0,1,1-.932-.932.932.932,0,0,1,.932.932" transform="translate(-44.898 -18.855)" fill="#f5f5f5"/>
          <path id="Path_907966" data-name="Path 907966" d="M329.568,137.138a.933.933,0,1,1-.932-.932.932.932,0,0,1,.932.932" transform="translate(-45.365 -18.855)" fill="#f5f5f5"/>
          <rect id="Rectangle_406753" data-name="Rectangle 406753" width="92.528" height="69.085" transform="translate(263.758 126.904)" fill="#ebebeb"/>
          <rect id="Rectangle_406754" data-name="Rectangle 406754" width="92.528" height="6.974" transform="translate(263.758 126.904)" fill="#e0e0e0"/>
          <path id="Path_907967" data-name="Path 907967" d="M310.961,151.192a.933.933,0,1,1-.932-.932.932.932,0,0,1,.932.932" transform="translate(-42.789 -20.801)" fill="#f5f5f5"/>
          <path id="Path_907968" data-name="Path 907968" d="M314.332,151.192a.933.933,0,1,1-.932-.932.932.932,0,0,1,.932.932" transform="translate(-43.256 -20.801)" fill="#f5f5f5"/>
          <path id="Path_907969" data-name="Path 907969" d="M317.7,151.192a.933.933,0,1,1-.932-.932.932.932,0,0,1,.932.932" transform="translate(-43.722 -20.801)" fill="#f5f5f5"/>
          <rect id="Rectangle_406755" data-name="Rectangle 406755" width="92.528" height="69.085" transform="translate(248.279 139.112)" fill="#f5f5f5"/>
          <rect id="Rectangle_406756" data-name="Rectangle 406756" width="92.528" height="6.974" transform="translate(248.279 139.112)" fill="#e0e0e0"/>
          <path id="Path_907970" data-name="Path 907970" d="M292.994,165.361a.933.933,0,1,1-.932-.932.932.932,0,0,1,.932.932" transform="translate(-40.302 -22.762)" fill="#f5f5f5"/>
          <path id="Path_907971" data-name="Path 907971" d="M296.365,165.361a.933.933,0,1,1-.932-.932.932.932,0,0,1,.932.932" transform="translate(-40.768 -22.762)" fill="#f5f5f5"/>
          <path id="Path_907972" data-name="Path 907972" d="M299.736,165.361a.933.933,0,1,1-.932-.932.932.932,0,0,1,.932.932" transform="translate(-41.235 -22.762)" fill="#f5f5f5"/>
          <path id="Path_907973" data-name="Path 907973" d="M334.509,241.649a1.321,1.321,0,0,1,.022.277c.005.206.012.474.021.812.01.744.023,1.794.041,3.138.016,2.759.04,6.716.069,11.633v.154h-.154l-42.211.071-41.068-.065-12.445-.072-3.383-.042-.881-.022a1.494,1.494,0,0,1-.3-.023,1.644,1.644,0,0,1,.3-.022l.881-.022,3.383-.042,12.445-.072,41.068-.065,42.211.071-.153.153c.029-4.917.053-8.874.069-11.633.018-1.344.031-2.394.041-3.138.009-.339.016-.607.021-.812a1.326,1.326,0,0,1,.022-.277" transform="translate(-32.424 -33.452)" fill="#ebebeb"/>
          <path id="Path_907974" data-name="Path 907974" d="M349.562,127.443c-.124,0-.224-7.9-.224-17.654s.1-17.654.224-17.654.224,7.9.224,17.654-.1,17.654-.224,17.654" transform="translate(-48.36 -12.754)" fill="#ebebeb"/>
        </g>
      </g>
      <g id="Group_1114761" data-name="Group 1114761">
        <g id="Group_1114760" data-name="Group 1114760" clip-path="url(#clip-path)">
          <path id="Path_907975" data-name="Path 907975" d="M391.692,336.1a29.52,29.52,0,0,1,2.3-34.445c2.5-2.9,6.005-5.422,9.824-5.1,3.91.335,7.06,3.688,8.25,7.428s.777,7.791.078,11.652c-.979,5.407-2.617,10.939-6.367,14.954s-9.262,8.142-14.083,5.507" transform="translate(-53.603 -41.05)" fill="#ff725e"/>
          <path id="Path_907976" data-name="Path 907976" d="M396.566,397.076a15.445,15.445,0,0,1,4.305-17.539c1.553-1.267,3.586-2.249,5.524-1.734a5.364,5.364,0,0,1,3.577,4.574,12.717,12.717,0,0,1-1.016,6.01c-.994,2.7-2.339,5.4-4.635,7.128s-5.51,3.356-7.755,1.561" transform="translate(-54.74 -52.281)" fill="#ff725e"/>
          <path id="Path_907977" data-name="Path 907977" d="M374.086,392.048a22.351,22.351,0,0,0-11.265-23.585c-2.574-1.339-5.743-2.132-8.337-.832-2.657,1.33-3.933,4.572-3.723,7.535s1.636,5.7,3.209,8.219c2.2,3.529,4.9,6.961,8.667,8.735s8.795,3.133,11.448-.071" transform="translate(-48.553 -50.8)" fill="#ff725e"/>
          <path id="Path_907978" data-name="Path 907978" d="M374.985,362.261c3.235-10.44-2.25-23.1-11.392-29.087-2.838-1.859-6.431-3.152-9.6-1.945-3.246,1.236-5.111,4.857-5.213,8.329s1.235,6.819,2.769,9.936c2.149,4.363,4.889,8.672,9.059,11.176s10.916,5.007,14.378,1.591" transform="translate(-48.282 -45.788)" fill="#ff725e"/>
          <path id="Path_907979" data-name="Path 907979" d="M382.988,419.561a2.243,2.243,0,0,1-.106-.506c-.057-.38-.128-.862-.217-1.456q-.067-.482-.146-1.053l-.239-1.242c-.17-.891-.345-1.908-.638-3.012q-.2-.834-.421-1.74-.262-.9-.545-1.863c-.348-1.3-.863-2.636-1.345-4.063a71.146,71.146,0,0,0-9.251-17.236c-.924-1.192-1.756-2.361-2.643-3.368l-1.25-1.484q-.635-.682-1.218-1.313c-.758-.853-1.509-1.562-2.157-2.2l-.9-.886-.8-.7-1.093-.986a2.363,2.363,0,0,1-.363-.367,2.182,2.182,0,0,1,.42.3l1.149.924.825.677.931.862c.668.619,1.437,1.316,2.214,2.16l1.246,1.3,1.277,1.476c.9,1,1.753,2.169,2.692,3.362a68.165,68.165,0,0,1,9.3,17.337c.475,1.441.979,2.792,1.314,4.1l.525,1.88q.205.914.4,1.756c.274,1.115.429,2.141.576,3.04q.109.668.2,1.252.058.575.109,1.061c.054.6.1,1.086.134,1.47a2.239,2.239,0,0,1,.017.514" transform="translate(-49.788 -52.063)" fill="#263238"/>
          <path id="Path_907980" data-name="Path 907980" d="M382.913,416.761a.715.715,0,0,1,0-.208c.012-.162.027-.361.045-.6.053-.567.124-1.341.214-2.319.05-.507.105-1.066.165-1.674s.063-1.282.1-2c.053-1.435.19-3.065.14-4.872q-.006-1.356-.014-2.835c-.009-.985-.1-2.008-.153-3.068-.071-2.125-.359-4.376-.615-6.75A96.665,96.665,0,0,0,374,362.774c-1.08-2.129-2.065-4.175-3.164-5.994-.536-.917-1.015-1.825-1.544-2.657l-1.534-2.384c-.943-1.543-1.946-2.835-2.773-4.008-.422-.581-.8-1.132-1.173-1.621l-1.051-1.313-1.443-1.828-.367-.482a.71.71,0,0,1-.114-.175.788.788,0,0,1,.148.146l.4.454,1.509,1.777,1.084,1.292c.383.482.773,1.027,1.205,1.6.848,1.162,1.872,2.446,2.835,3.983l1.564,2.377c.538.83,1.027,1.737,1.572,2.653,1.116,1.819,2.118,3.867,3.212,6a94.458,94.458,0,0,1,8.832,29.783c.246,2.384.521,4.646.577,6.78.042,1.065.127,2.092.128,3.082s-.009,1.938-.015,2.845c.031,1.814-.128,3.448-.206,4.885-.049.718-.078,1.387-.137,2q-.111.914-.2,1.674l-.3,2.313c-.036.242-.065.439-.089.6a.724.724,0,0,1-.045.2" transform="translate(-49.951 -47.387)" fill="#263238"/>
          <path id="Path_907981" data-name="Path 907981" d="M404.044,311.051a.764.764,0,0,1-.086.193l-.291.542-1.155,2.062c-.247.449-.545.936-.832,1.49s-.581,1.167-.9,1.818l-1.043,2.087c-.352.747-.687,1.554-1.06,2.391s-.768,1.713-1.142,2.64l-1.122,2.91-.59,1.534q-.268.791-.544,1.607l-1.131,3.356c-1.432,4.631-2.789,9.789-3.936,15.265-1.109,5.486-1.888,10.764-2.462,15.579-.493,4.824-.857,9.179-.956,12.847-.093,1.832-.112,3.491-.118,4.948-.023,1.458-.029,2.713.005,3.738.014,1,.025,1.787.034,2.363,0,.248,0,.451,0,.615a.769.769,0,0,1-.016.211.757.757,0,0,1-.029-.209c-.01-.165-.024-.366-.041-.613-.028-.576-.067-1.366-.116-2.363-.06-1.026-.08-2.283-.08-3.743-.018-1.46-.021-3.122.053-4.958.059-3.676.392-8.044.864-12.881.553-4.828,1.322-10.122,2.434-15.623,1.149-5.492,2.523-10.662,3.98-15.3q.591-1.725,1.152-3.361l.556-1.609q.306-.779.6-1.534.594-1.508,1.148-2.91c.383-.927.8-1.8,1.173-2.637s.728-1.64,1.092-2.385q.57-1.1,1.075-2.078l.939-1.8c.3-.55.608-1.031.868-1.475l1.229-2.023.328-.52a.774.774,0,0,1,.125-.169" transform="translate(-53.492 -43.059)" fill="#263238"/>
          <path id="Path_907982" data-name="Path 907982" d="M402.479,384.655a9.208,9.208,0,0,1-.719,1.261c-.494.79-1.173,1.957-1.968,3.418s-1.675,3.24-2.56,5.252c-.863,2.023-1.726,4.283-2.483,6.7a71.182,71.182,0,0,0-1.732,6.939c-.4,2.162-.689,4.124-.85,5.781s-.266,3-.3,3.932a9.244,9.244,0,0,1-.118,1.447,9.019,9.019,0,0,1-.054-1.451c-.016-.935.035-2.289.164-3.956a58.448,58.448,0,0,1,.761-5.828,60.093,60.093,0,0,1,4.242-13.733,58.734,58.734,0,0,1,2.66-5.24c.834-1.45,1.556-2.6,2.1-3.359a9.119,9.119,0,0,1,.863-1.168" transform="translate(-54.223 -53.249)" fill="#263238"/>
          <path id="Path_907983" data-name="Path 907983" d="M371.334,421.147h29.681l-3.592,30.314H375.031Z" transform="translate(-51.405 -58.3)" fill="#455a64"/>
          <path id="Path_907984" data-name="Path 907984" d="M372.591,452.534l2.521,3.272H397.6l2.593-3.168Z" transform="translate(-51.579 -62.645)" fill="#263238"/>
          <path id="Path_907985" data-name="Path 907985" d="M400.02,431.459c0,.122-6.159.221-13.756.221s-13.757-.1-13.757-.221,6.159-.221,13.757-.221,13.756.1,13.756.221" transform="translate(-51.567 -59.697)" fill="#fafafa"/>
          <path id="Path_907986" data-name="Path 907986" d="M400.02,433.8c0,.122-6.159.221-13.756.221s-13.757-.1-13.757-.221,6.159-.221,13.757-.221,13.756.1,13.756.221" transform="translate(-51.567 -60.021)" fill="#fafafa"/>
          <path id="Path_907987" data-name="Path 907987" d="M399.746,436.069c0,.122-5.944.221-13.274.221s-13.275-.1-13.275-.221,5.942-.221,13.275-.221,13.274.1,13.274.221" transform="translate(-51.662 -60.335)" fill="#fafafa"/>
        </g>
      </g>
      <g id="Group_1114763" data-name="Group 1114763">
        <g id="Group_1114762" data-name="Group 1114762" clip-path="url(#clip-path)">
          <path id="Path_907988" data-name="Path 907988" d="M315.909,52.558H93.549a16.42,16.42,0,1,0,0,32.84h222.36a16.42,16.42,0,1,0,0-32.84" transform="translate(-10.677 -7.276)" fill="#fff"/>
          <path id="Path_907989" data-name="Path 907989" d="M349.625,85.4h-32.14V52.559h32.14A15.977,15.977,0,0,1,365.6,68.536v.887A15.977,15.977,0,0,1,349.625,85.4" transform="translate(-43.95 -7.276)" fill="#ff725e"/>
          <path id="Path_907990" data-name="Path 907990" d="M341.356,74.545a7.158,7.158,0,1,1,7.159-7.159,7.167,7.167,0,0,1-7.159,7.159m0-13.269a6.111,6.111,0,1,0,6.11,6.11,6.118,6.118,0,0,0-6.11-6.11" transform="translate(-46.264 -8.337)" fill="#fff"/>
          <path id="Path_907991" data-name="Path 907991" d="M353.858,80.959a.521.521,0,0,1-.37-.153l-6.282-6.281a.524.524,0,0,1,.741-.741l6.282,6.281a.524.524,0,0,1-.37.894" transform="translate(-48.043 -10.193)" fill="#fff"/>
          <path id="Path_907992" data-name="Path 907992" d="M108.708,69.6a2.678,2.678,0,0,1-.076-.6,4.836,4.836,0,0,0-.089-.717,7.019,7.019,0,0,0-.2-.962,9.057,9.057,0,0,0-1.033-2.469,9.314,9.314,0,0,0-2.341-2.63,9.2,9.2,0,0,0-8.687-1.38,8.6,8.6,0,0,0-2.33,1.225A8.373,8.373,0,0,0,92,64a9.125,9.125,0,0,0-.128,10.817,8.378,8.378,0,0,0,1.91,1.97,8.614,8.614,0,0,0,2.3,1.28A9.265,9.265,0,0,0,107.2,74.313a9.045,9.045,0,0,0,1.09-2.444,6.877,6.877,0,0,0,.223-.957,4.881,4.881,0,0,0,.106-.714,2.658,2.658,0,0,1,.09-.6,2.6,2.6,0,0,1,.015.6,4.221,4.221,0,0,1-.058.73,6.494,6.494,0,0,1-.181.986,8.834,8.834,0,0,1-1.038,2.543,9.534,9.534,0,0,1-6.477,4.5,9.623,9.623,0,0,1-5.056-.451,9.053,9.053,0,0,1-2.432-1.333,8.83,8.83,0,0,1-2.022-2.069,9.585,9.585,0,0,1,.134-11.417,10.963,10.963,0,0,1,.962-1.105,10.844,10.844,0,0,1,1.108-.914A9.024,9.024,0,0,1,96.125,60.4a9.608,9.608,0,0,1,5.064-.333,9.533,9.533,0,0,1,6.37,4.646,8.831,8.831,0,0,1,.979,2.568,6.462,6.462,0,0,1,.158.989,4.19,4.19,0,0,1,.04.731,2.571,2.571,0,0,1-.028.6" transform="translate(-12.409 -8.288)" fill="#e0e0e0"/>
          <path id="Path_907993" data-name="Path 907993" d="M107.131,64.345c.02.028-.147.178-.472.426l-.6.442c-.119.084-.242.177-.382.267l-.459.247a10.612,10.612,0,0,1-5.512,1.462l-.837-.027-.8-.115c-.131-.021-.263-.036-.39-.06l-.376-.1c-.248-.065-.492-.12-.726-.191a12.183,12.183,0,0,1-2.359-1.051,5.349,5.349,0,0,1-1.845-1.478c.049-.059.742.514,2.02,1.156a14.2,14.2,0,0,0,2.321.916c.226.063.461.109.7.167l.361.084.376.052.769.1.8.022A11.46,11.46,0,0,0,105.05,65.4l.466-.209c.14-.077.27-.159.393-.228.237-.134.448-.255.638-.362.353-.194.562-.288.583-.259" transform="translate(-12.786 -8.883)" fill="#e0e0e0"/>
          <path id="Path_907994" data-name="Path 907994" d="M92.208,77.406c-.022-.028.146-.178.471-.426l.6-.442c.119-.083.243-.177.382-.267l.46-.247a10.606,10.606,0,0,1,5.511-1.462l.837.027.8.115c.132.021.263.036.391.06l.377.1c.247.065.492.12.725.191a12.136,12.136,0,0,1,2.359,1.051,5.387,5.387,0,0,1,1.845,1.477c-.05.059-.743-.513-2.02-1.155a14.2,14.2,0,0,0-2.321-.916c-.226-.062-.462-.109-.7-.167l-.362-.084-.374-.052-.769-.1-.8-.022a11.443,11.443,0,0,0-5.338,1.27l-.466.208c-.141.077-.271.159-.394.228l-.638.362c-.354.194-.563.288-.583.259" transform="translate(-12.764 -10.321)" fill="#e0e0e0"/>
          <path id="Path_907995" data-name="Path 907995" d="M108.747,71.355a85.619,85.619,0,0,1-9.407.148,85.909,85.909,0,0,1-9.4-.368,85.717,85.717,0,0,1,9.407-.149,85.782,85.782,0,0,1,9.4.369" transform="translate(-12.45 -9.824)" fill="#e0e0e0"/>
          <path id="Path_907996" data-name="Path 907996" d="M100.457,78.925a85.556,85.556,0,0,1-.148-9.4,85.851,85.851,0,0,1,.368-9.4,85.673,85.673,0,0,1,.149,9.4,85.716,85.716,0,0,1-.369,9.4" transform="translate(-13.883 -8.323)" fill="#e0e0e0"/>
          <path id="Path_907997" data-name="Path 907997" d="M99.714,78.909a7.548,7.548,0,0,1-2.3-2.21,12.623,12.623,0,0,1-1.719-3.03,11.328,11.328,0,0,1-.781-4.2,10.792,10.792,0,0,1,.9-4.183,13.08,13.08,0,0,1,1.8-2.98,8.009,8.009,0,0,1,2.318-2.184c.052.059-.885.84-2.027,2.405a14.077,14.077,0,0,0-1.651,2.942,10.844,10.844,0,0,0-.819,4,11.438,11.438,0,0,0,.709,4.031,13.564,13.564,0,0,0,1.569,2.985c1.109,1.589,2.051,2.367,2,2.424" transform="translate(-13.14 -8.322)" fill="#e0e0e0"/>
          <path id="Path_907998" data-name="Path 907998" d="M100.948,60.121a7.548,7.548,0,0,1,2.3,2.21,12.624,12.624,0,0,1,1.719,3.03,11.328,11.328,0,0,1,.781,4.2,10.792,10.792,0,0,1-.9,4.183,13.08,13.08,0,0,1-1.8,2.98,8.022,8.022,0,0,1-2.318,2.184c-.052-.059.885-.84,2.027-2.405a14.077,14.077,0,0,0,1.651-2.942,10.844,10.844,0,0,0,.819-4,11.441,11.441,0,0,0-.709-4.031,13.564,13.564,0,0,0-1.569-2.985c-1.109-1.589-2.051-2.367-2-2.424" transform="translate(-13.944 -8.322)" fill="#e0e0e0"/>
          <path id="Path_907999" data-name="Path 907999" d="M122.19,81.7c-.124,0-.224-5-.224-11.176s.1-11.177.224-11.177.224,5,.224,11.177-.1,11.176-.224,11.176" transform="translate(-16.884 -8.215)" fill="#e0e0e0"/>
          <path id="Path_908000" data-name="Path 908000" d="M137.7,72.471V76.5h-.937V72.563a1.939,1.939,0,0,0-2.085-2.218,2.276,2.276,0,0,0-2.429,2.508V76.5h-.937V66.7h.937v4.065a2.934,2.934,0,0,1,2.6-1.267,2.658,2.658,0,0,1,2.851,2.97" transform="translate(-18.178 -9.234)" fill="#263238"/>
          <path id="Path_908001" data-name="Path 908001" d="M145.166,76.288a2.232,2.232,0,0,1-1.466.489,1.839,1.839,0,0,1-2.032-2.02v-4.2h-1.241v-.792h1.241V68.25h.937v1.518h2.112v.792h-2.112V74.7a1.112,1.112,0,0,0,1.2,1.267,1.549,1.549,0,0,0,1.03-.356Z" transform="translate(-19.44 -9.448)" fill="#263238"/>
          <path id="Path_908002" data-name="Path 908002" d="M151.172,76.288a2.232,2.232,0,0,1-1.466.489,1.839,1.839,0,0,1-2.032-2.02v-4.2h-1.241v-.792h1.241V68.25h.937v1.518h2.112v.792h-2.112V74.7a1.112,1.112,0,0,0,1.2,1.267,1.549,1.549,0,0,0,1.03-.356Z" transform="translate(-20.271 -9.448)" fill="#263238"/>
          <path id="Path_908003" data-name="Path 908003" d="M160.946,73.475a3.363,3.363,0,0,1-3.458,3.538,3.033,3.033,0,0,1-2.64-1.372v3.867h-.937V70h.9v1.373a3.023,3.023,0,0,1,2.679-1.426,3.359,3.359,0,0,1,3.458,3.524m-.937,0a2.589,2.589,0,1,0-2.587,2.706,2.557,2.557,0,0,0,2.587-2.706" transform="translate(-21.306 -9.683)" fill="#263238"/>
          <path id="Path_908004" data-name="Path 908004" d="M163.593,70.663a.7.7,0,0,1,.7-.713.71.71,0,0,1,.713.713.721.721,0,0,1-.713.725.71.71,0,0,1-.7-.725m0,5.623a.7.7,0,0,1,.7-.713.709.709,0,0,1,.713.713.721.721,0,0,1-.713.726.711.711,0,0,1-.7-.726" transform="translate(-22.647 -9.683)" fill="#263238"/>
          <path id="Path_908005" data-name="Path 908005" d="M170.691,65.171h.858L167.193,77.6h-.857Z" transform="translate(-23.026 -9.022)" fill="#263238"/>
          <path id="Path_908006" data-name="Path 908006" d="M182.905,70.012l-2.627,6.943h-.884L177.2,71.266l-2.192,5.689h-.884l-2.613-6.943h.9l2.177,5.9,2.231-5.9h.8l2.218,5.9,2.2-5.9Z" transform="translate(-23.743 -9.692)" fill="#263238"/>
          <path id="Path_908007" data-name="Path 908007" d="M196.3,70.012l-2.627,6.943h-.884l-2.191-5.689L188.4,76.955h-.884l-2.613-6.943h.9l2.178,5.9,2.231-5.9h.8l2.218,5.9,2.2-5.9Z" transform="translate(-25.597 -9.692)" fill="#263238"/>
          <path id="Path_908008" data-name="Path 908008" d="M209.688,70.012l-2.627,6.943h-.884l-2.191-5.689-2.192,5.689h-.884L198.3,70.012h.9l2.178,5.9,2.231-5.9h.8l2.218,5.9,2.2-5.9Z" transform="translate(-27.451 -9.692)" fill="#263238"/>
          <path id="Path_908009" data-name="Path 908009" d="M211.933,77.19a.7.7,0,0,1,.7-.713.709.709,0,0,1,.713.713.721.721,0,0,1-.713.726.711.711,0,0,1-.7-.726" transform="translate(-29.338 -10.587)" fill="#263238"/>
          <path id="Path_908010" data-name="Path 908010" d="M219.888,80.261a44.46,44.46,0,0,1-.287-7.123,44.452,44.452,0,0,1,.287-7.123,44.637,44.637,0,0,1,.286,7.123,44.646,44.646,0,0,1-.286,7.123" transform="translate(-30.4 -9.138)" fill="#ff725e"/>
          <path id="Path_908011" data-name="Path 908011" d="M315.875,52.522s.479.009,1.415.048c.469.014,1.041.136,1.729.226.344.05.7.166,1.094.258a8.121,8.121,0,0,1,1.234.374,16.3,16.3,0,0,1,5.758,3.467,17.831,17.831,0,0,1,1.446,1.5c.228.279.44.579.667.875l.339.451.3.489a15.651,15.651,0,0,1,1.959,4.5,16.448,16.448,0,0,1-1.024,11.312,16.367,16.367,0,0,1-13.877,9.415c-1.285.1-2.571.037-3.888.057l-8.132.009-17.68.016-193.685.065a16.648,16.648,0,0,1-9.418-30.37A16.356,16.356,0,0,1,90.4,52.6a37.748,37.748,0,0,1,6.74-.3l51.426.013,87.076.048,58.7.072,15.96.042,4.151.022c.935.008,1.414.023,1.414.023s-.479.016-1.414.023l-4.151.022-15.96.042-58.7.072-87.076.048-51.426.013a37.477,37.477,0,0,0-6.657.294,15.914,15.914,0,0,0-6.126,2.547A16.279,16.279,0,0,0,77.48,66.767a16.109,16.109,0,0,0,3.791,12.756,16.276,16.276,0,0,0,12.257,5.615l193.685.065,17.68.016,8.132.009c1.311-.017,2.617.047,3.872-.047a16.567,16.567,0,0,0,3.663-.635,16.325,16.325,0,0,0,11.087-19.789,15.5,15.5,0,0,0-1.921-4.463l-.294-.487-.334-.449c-.223-.295-.433-.593-.656-.87a17.73,17.73,0,0,0-1.427-1.5,16.3,16.3,0,0,0-5.7-3.479,8.085,8.085,0,0,0-1.223-.383c-.389-.094-.746-.214-1.087-.267-.684-.1-1.254-.227-1.721-.247-.932-.054-1.41-.094-1.41-.094" transform="translate(-10.643 -7.24)" fill="#263238"/>
        </g>
      </g>
      <path id="Path_908012" data-name="Path 908012" d="M18.345,451.108l9.675.087,13.738-32.572L22.609,418.6Z" transform="translate(-2.539 -57.947)" fill="#263238"/>
      <path id="Path_908013" data-name="Path 908013" d="M79.621,451.08l9.675.087,13.556-32.421-19-.039Z" transform="translate(-11.022 -57.963)" fill="#263238"/>
      <g id="Group_1114801" data-name="Group 1114801">
        <g id="Group_1114800" data-name="Group 1114800" clip-path="url(#clip-path)">
          <path id="Path_908014" data-name="Path 908014" d="M18.989,190.876c5.31-7.964,110.145-9.132,114.63-.834l38.3,72.794,57.605-2.648c0-.021,7.742-.368,15.323,6.88,3.739,3.575,3.55,26.125,2.5,34.836-.7,5.8-9.534,84.69-9.534,84.69l-217.034-.439s-7.1-187.313-1.785-195.277" transform="translate(-2.356 -25.518)" fill="#455a64"/>
          <path id="Path_908015" data-name="Path 908015" d="M92.809,414.682s.022-.235.039-.694q.022-.713.063-2.033c.044-1.8.108-4.428.19-7.793.14-6.77.344-16.508.593-28.446l-.18.176,65.913.47,68.293.376-.171-.145a111.728,111.728,0,0,1,1.208,26.628c-.231,3.156-.535,5.6-.75,7.256l-.264,1.883c-.058.425-.075.644-.075.644a85.979,85.979,0,0,0,1.285-9.769,109.64,109.64,0,0,0-1.059-26.7l-.023-.144-.147,0-68.292-.489-65.913-.366h-.177l0,.177c-.184,11.94-.333,21.678-.437,28.449-.04,3.364-.072,5.991-.093,7.795,0,.881-.008,1.558-.01,2.034,0,.459.014.694.014.694" transform="translate(-12.846 -51.986)" fill="#263238"/>
          <path id="Path_908016" data-name="Path 908016" d="M97.709,279.187s-.148-.009-.441-.008a8.861,8.861,0,0,0-1.3.066,13.287,13.287,0,0,0-4.813,1.507A18.079,18.079,0,0,0,85.1,286.1a24.315,24.315,0,0,0-4.117,10.05,70.1,70.1,0,0,0-.881,13.415c.006,4.876.169,10.131.494,15.713.645,11.168,2.029,23.622,3.521,37.056l.022.19.19,0,54.879.372,99.535.584h.161l.009-.157a88.088,88.088,0,0,0-.977-19.782c-1.014-5.746-2.744-10.605-5.15-13.977a14.343,14.343,0,0,0-3.864-3.852l-.482-.333-.5-.26-.936-.483c-.635-.216-1.2-.46-1.721-.591l-1.4-.3c-.408-.05-.756-.061-1.032-.085-.554-.039-.838-.047-.838-.047s.283.04.834.1c.275.032.619.052,1.024.109l1.388.317c.52.138,1.074.387,1.7.607l.921.489.49.262.472.333a14.273,14.273,0,0,1,3.792,3.841c2.359,3.356,4.054,8.19,5.038,13.915a88.331,88.331,0,0,1,.9,19.708l.17-.156-99.534-.706-54.879-.339.211.19c-1.509-13.435-2.916-25.878-3.588-37.031-.339-5.575-.516-10.823-.538-15.693a70.252,70.252,0,0,1,.824-13.365,24.175,24.175,0,0,1,4.024-9.98,18.046,18.046,0,0,1,5.959-5.341,13.52,13.52,0,0,1,4.756-1.559c1.135-.144,1.736-.093,1.734-.129" transform="translate(-11.088 -38.647)" fill="#263238"/>
          <path id="Path_908017" data-name="Path 908017" d="M266.591,419.077l3.146,32.093-9.674-.087-12.114-32.043Z" transform="translate(-34.324 -58.008)" fill="#263238"/>
          <path id="Path_908018" data-name="Path 908018" d="M244.7,330.839a4.063,4.063,0,0,1-.962-.1l-2.591-.432c-2.186-.369-5.2-.9-8.556-1.267a77.7,77.7,0,0,0-8.629-.407l-2.624.034a4.037,4.037,0,0,1-.967-.034,4.019,4.019,0,0,1,.957-.14c.619-.065,1.515-.125,2.626-.177a59.591,59.591,0,0,1,8.684.277c3.377.365,6.395.952,8.567,1.4,1.086.228,1.964.424,2.567.572a4.053,4.053,0,0,1,.928.273" transform="translate(-30.506 -45.442)" fill="#263238"/>
          <path id="Path_908019" data-name="Path 908019" d="M263.424,272.531c.019.042-.7.354-1.927,1.033a24.793,24.793,0,0,0-4.78,3.5,30.156,30.156,0,0,0-5.458,6.862,38.343,38.343,0,0,0-4.047,9.95c-1.833,7.46-1.717,14.5-1.6,19.512.072,2.517.171,4.554.229,5.962.024.667.043,1.205.059,1.622a2.739,2.739,0,0,1-.01.568,2.716,2.716,0,0,1-.08-.562c-.037-.416-.084-.953-.142-1.617-.112-1.406-.258-3.441-.372-5.962s-.182-5.529-.023-8.868a55.868,55.868,0,0,1,1.506-10.764,37.87,37.87,0,0,1,4.127-10.053,29.6,29.6,0,0,1,5.6-6.884,23.1,23.1,0,0,1,4.911-3.42,15.234,15.234,0,0,1,1.478-.681,2.648,2.648,0,0,1,.532-.2" transform="translate(-33.941 -37.727)" fill="#263238"/>
          <g id="Group_1114766" data-name="Group 1114766" transform="translate(114.951 288.642)" opacity="0.3">
            <g id="Group_1114765" data-name="Group 1114765">
              <g id="Group_1114764" data-name="Group 1114764" clip-path="url(#clip-path-11)">
                <path id="Path_908020" data-name="Path 908020" d="M134.488,341.516a77.394,77.394,0,0,0,19.97,1.993,500.108,500.108,0,0,0,5.421,62.61,14.133,14.133,0,0,0,5.244,1.547,4.813,4.813,0,0,0,4.572-2.46,7.05,7.05,0,0,0,.366-3.216,526.748,526.748,0,0,0-6.428-62.306c-.25-1.526-.611-3.221-1.891-4.088-1.222-.826-2.844-.6-4.293-.329q-12.133,2.264-24.029,5.611" transform="translate(-133.421 -335.019)"/>
              </g>
            </g>
          </g>
          <g id="Group_1114769" data-name="Group 1114769" transform="translate(106.463 293.39)" opacity="0.3">
            <g id="Group_1114768" data-name="Group 1114768">
              <g id="Group_1114767" data-name="Group 1114767" clip-path="url(#clip-path-12)">
                <path id="Path_908021" data-name="Path 908021" d="M123.569,340.53,125.59,369.2s6.778-15.507,5.041-21.444a10.537,10.537,0,0,0-7.062-7.229" transform="translate(-123.569 -340.53)"/>
              </g>
            </g>
          </g>
          <path id="Path_908022" data-name="Path 908022" d="M116.561,196.459l-2.016-67.817-2.194-3.9c-1.926-1.7-5.053-1.409-7.14.094a12.664,12.664,0,0,0-4.147,6.358c-4.024,11.669-.839,24.484-1.691,36.8-.185,2.671-.607,5.446-2.16,7.627-2.107,2.959-6.016,4.421-7.63,7.675a6.989,6.989,0,0,0,2.379,8.667,15.927,15.927,0,0,0-5.33,4.234c-1.312,1.874-1.679,4.617-.225,6.383,1.573,1.911,4.446,1.937,6.911,1.715a97.164,97.164,0,0,0,20.569-4.054,4.017,4.017,0,0,0,2.224-1.308,4.1,4.1,0,0,0,.449-2.472" transform="translate(-11.832 -17.108)" fill="#263238"/>
          <path id="Path_908023" data-name="Path 908023" d="M104.852,185.785a5.18,5.18,0,0,0,1.883-1.279,10.158,10.158,0,0,0,2.008-5.827,142.64,142.64,0,0,0-.1-20.863c-.312-4.068-.8-7.924-1.348-11.417-.573-3.478-.867-6.765-.113-9.4a9.257,9.257,0,0,1,3.513-5.228,6.579,6.579,0,0,1,1.557-.77,2.946,2.946,0,0,1,.589-.134,8.753,8.753,0,0,0-2.046,1.048,9.259,9.259,0,0,0-3.307,5.167c-.694,2.573-.381,5.787.215,9.258.572,3.5,1.074,7.367,1.387,11.447a130.289,130.289,0,0,1-.03,20.93c-.271,2.677-1.1,4.823-2.2,5.915a4.49,4.49,0,0,1-1.428.992,2.824,2.824,0,0,1-.582.168" transform="translate(-14.515 -18.115)" fill="#455a64"/>
          <path id="Path_908024" data-name="Path 908024" d="M122.748,129.059c-.2.955.464-.8,0,0" transform="translate(-16.987 -17.836)" fill="#ff725e"/>
          <path id="Path_908025" data-name="Path 908025" d="M120.623,124.611c-.782-.822-1.99-.475-2.888.168a10.7,10.7,0,0,0-3.47,4.927,25.72,25.72,0,0,0-1.384,6.407c-.135,1.268-.138,2.791.685,3.522a1.639,1.639,0,0,0,2.057-.031,6.152,6.152,0,0,0,1.551-1.91,45.089,45.089,0,0,0,4.2-9.289,6.055,6.055,0,0,0-.755-3.8" transform="translate(-15.617 -17.183)" fill="#ff725e"/>
          <path id="Path_908026" data-name="Path 908026" d="M114.237,140.444c1.73-7.353,4.825-14.865,10.918-19.329,5.428-3.979,13.346-5.494,20.057-4.994a23.817,23.817,0,0,1,9.822,3.62c3.88,2.366,5.405,6.958,7.179,11.141,3.551,8.382,2.7,19.548.016,22.572l-35.1,17.1c-6-3.377-12.512-7.927-13.91-14.673-.953-4.594-.055-10.87,1.019-15.438" transform="translate(-15.617 -16.062)" fill="#263238"/>
          <path id="Path_908027" data-name="Path 908027" d="M129.3,128.3l21.925-5.7c7.029-.792,11.764,7.837,12.258,14.893.547,7.839.906,17.431.017,23.289-1.789,11.779-10.8,14.575-10.8,14.575,0-.04-.021,10.229-.064,13.725L142.41,220.239l-14.546-31.153-2.238-56.558A4.139,4.139,0,0,1,129.3,128.3" transform="translate(-17.391 -16.965)" fill="#ffbe9d"/>
          <path id="Path_908028" data-name="Path 908028" d="M164.536,150.7a1.51,1.51,0,0,1-1.445,1.533,1.443,1.443,0,0,1-1.565-1.35,1.51,1.51,0,0,1,1.443-1.534,1.445,1.445,0,0,1,1.566,1.351" transform="translate(-22.36 -20.675)" fill="#263238"/>
          <path id="Path_908029" data-name="Path 908029" d="M166.232,145.456c-.186.2-1.335-.64-2.959-.625-1.622-.008-2.809.836-2.987.638-.087-.087.1-.444.618-.825a4.146,4.146,0,0,1,2.388-.754,3.979,3.979,0,0,1,2.356.743c.5.38.674.735.583.824" transform="translate(-22.186 -19.919)" fill="#263238"/>
          <path id="Path_908030" data-name="Path 908030" d="M147.434,150.7a1.51,1.51,0,0,1-1.445,1.533,1.443,1.443,0,0,1-1.565-1.35,1.51,1.51,0,0,1,1.443-1.534,1.445,1.445,0,0,1,1.566,1.351" transform="translate(-19.993 -20.675)" fill="#263238"/>
          <path id="Path_908031" data-name="Path 908031" d="M147.709,145.934c-.186.2-1.336-.64-2.96-.625-1.621-.008-2.808.836-2.985.638-.087-.087.1-.444.618-.825a4.142,4.142,0,0,1,2.388-.754,3.983,3.983,0,0,1,2.356.743c.5.38.673.735.582.824" transform="translate(-19.622 -19.985)" fill="#263238"/>
          <path id="Path_908032" data-name="Path 908032" d="M155.465,157.943a10.734,10.734,0,0,1,2.634-.494c.414-.046.806-.131.874-.414a2.1,2.1,0,0,0-.285-1.227q-.594-1.5-1.248-3.149c-1.733-4.484-2.991-8.172-2.81-8.24s1.733,3.511,3.467,7.994q.626,1.658,1.2,3.168a2.4,2.4,0,0,1,.226,1.627,1.039,1.039,0,0,1-.677.61,2.8,2.8,0,0,1-.7.1,10.6,10.6,0,0,1-2.673.022" transform="translate(-21.403 -19.992)" fill="#263238"/>
          <path id="Path_908033" data-name="Path 908033" d="M154.545,183.291l-.065,2.93c-11.77,1.181-15.721-7.026-15.721-7.026a29.934,29.934,0,0,0,15.787,4.1" transform="translate(-19.209 -24.806)" fill="#eb996e"/>
          <path id="Path_908034" data-name="Path 908034" d="M149.344,163.484a2.608,2.608,0,0,1,2.161-1.2,3.392,3.392,0,0,1,3.1,1.51,2.11,2.11,0,0,1,.148,1.522c-.112.258-.025.131-.224.31a5.94,5.94,0,0,1-2.417,1.522,2.546,2.546,0,0,1-2.7-.972,2.6,2.6,0,0,1-.074-2.7" transform="translate(-20.627 -22.465)" fill="#eb996e"/>
          <path id="Path_908035" data-name="Path 908035" d="M150.023,161.458c.264-.017.279,1.746,1.8,2.986s3.392,1.034,3.408,1.28c.026.11-.416.345-1.209.372a4.382,4.382,0,0,1-2.843-.969,3.822,3.822,0,0,1-1.394-2.5c-.072-.736.121-1.174.242-1.165" transform="translate(-20.732 -22.351)" fill="#263238"/>
          <path id="Path_908036" data-name="Path 908036" d="M148.321,139.954c-.157.443-1.78.245-3.683.487-1.908.205-3.441.773-3.7.378-.115-.189.151-.606.769-1.037a6.456,6.456,0,0,1,5.623-.659c.7.277,1.055.621.988.831" transform="translate(-19.507 -19.209)" fill="#263238"/>
          <path id="Path_908037" data-name="Path 908037" d="M165.571,138.931c-.283.37-1.4,0-2.749-.014-1.345-.055-2.483.265-2.748-.119-.116-.186.06-.557.556-.91a3.982,3.982,0,0,1,4.429.107c.478.376.637.755.512.936" transform="translate(-22.155 -19.002)" fill="#263238"/>
          <path id="Path_908038" data-name="Path 908038" d="M128.26,150.7c-.162-.075-6.551-2.1-6.493,4.465s6.64,5.155,6.65,4.967-.157-9.432-.157-9.432" transform="translate(-16.856 -20.812)" fill="#ffbe9d"/>
          <path id="Path_908039" data-name="Path 908039" d="M126.656,158c-.029-.021-.114.081-.307.171a1.14,1.14,0,0,1-.855.025,2.831,2.831,0,0,1-1.333-2.529,3.784,3.784,0,0,1,.306-1.64,1.32,1.32,0,0,1,.853-.886.582.582,0,0,1,.678.308c.09.183.049.314.084.325.018.016.14-.111.084-.382a.733.733,0,0,0-.262-.409.864.864,0,0,0-.634-.162,1.609,1.609,0,0,0-1.186,1.029,3.9,3.9,0,0,0-.381,1.834A2.972,2.972,0,0,0,125.4,158.5a1.226,1.226,0,0,0,1.045-.183c.2-.164.236-.311.213-.323" transform="translate(-17.124 -21.154)" fill="#eb996e"/>
          <path id="Path_908040" data-name="Path 908040" d="M124.572,161.279c-.03-.03-.283.277-.246.864a1.223,1.223,0,0,0,.464.921,1.36,1.36,0,0,0,1.26.09,1.329,1.329,0,0,0,.873-.911,1.366,1.366,0,0,0-.18-1.01c-.326-.507-.739-.556-.735-.52-.028.049.308.177.529.633a1.207,1.207,0,0,1,.089.822,1.066,1.066,0,0,1-.694.673,1.1,1.1,0,0,1-.968-.031,1.038,1.038,0,0,1-.406-.7,3.626,3.626,0,0,1,.013-.836" transform="translate(-17.21 -22.247)" fill="#e0e0e0"/>
          <path id="Path_908041" data-name="Path 908041" d="M167.147,138.946a10.265,10.265,0,0,0-4.432-4.332c-1.825-1.038-3.8-1.794-5.617-2.848a19.739,19.739,0,0,1-8.825-11.04,11.849,11.849,0,0,1,10.516.136,16.059,16.059,0,0,1,7.267,7.852,25.169,25.169,0,0,1,2,10.638" transform="translate(-20.526 -16.551)" fill="#263238"/>
          <path id="Path_908042" data-name="Path 908042" d="M126.639,126.262c4.856-4.615,14.032-7.161,20.365-5-.941,5.529-5.113,11.739-8.784,15.979-3.694,4.266-5.923,11.744-13.959,9.2-.554-.175-1.186.329-1.687.035a2.054,2.054,0,0,1-.775-1.217,18.834,18.834,0,0,1,4.84-19" transform="translate(-16.744 -16.679)" fill="#263238"/>
          <path id="Path_908043" data-name="Path 908043" d="M124.346,125.756c-.009.006.039.082.138.221s.238.349.453.591a11.882,11.882,0,0,0,1.995,1.881,12.929,12.929,0,0,0,16.7-.918,11.855,11.855,0,0,0,1.776-2.088,7.217,7.217,0,0,0,.386-.637.855.855,0,0,0,.113-.235,18,18,0,0,1-2.422,2.8,13.463,13.463,0,0,1-3.333,2.2,12.556,12.556,0,0,1-9.538.524,13.46,13.46,0,0,1-3.553-1.824,17.972,17.972,0,0,1-2.714-2.518" transform="translate(-17.213 -17.245)" fill="#fff"/>
          <path id="Path_908044" data-name="Path 908044" d="M120.688,134.762a1.2,1.2,0,0,0,.22.224,6.794,6.794,0,0,0,.688.581,10.276,10.276,0,0,0,2.928,1.535,13.057,13.057,0,0,0,4.862.657,15.048,15.048,0,0,0,5.815-1.5,19.05,19.05,0,0,0,4.866-3.523,25.02,25.02,0,0,0,3.125-3.781,29.721,29.721,0,0,0,1.708-2.827c.186-.342.313-.618.4-.8a1.187,1.187,0,0,0,.12-.289,1.229,1.229,0,0,0-.175.261l-.453.772c-.393.669-.98,1.629-1.781,2.761a26.266,26.266,0,0,1-3.145,3.7,19.285,19.285,0,0,1-4.8,3.451,15.057,15.057,0,0,1-5.694,1.489,13.205,13.205,0,0,1-4.777-.579,11.007,11.007,0,0,1-2.928-1.427c-.633-.444-.956-.731-.977-.707" transform="translate(-16.707 -17.31)" fill="#455a64"/>
          <path id="Path_908045" data-name="Path 908045" d="M125.324,172.816a1.257,1.257,0,0,1-.348-.16c-.219-.122-.55-.291-.951-.545a26.138,26.138,0,0,1-3.271-2.365,23.292,23.292,0,0,1-4.05-4.421,22.665,22.665,0,0,1-3.139-6.636,26.078,26.078,0,0,1-.319-13.222,23.628,23.628,0,0,1,1.254-3.837c.179-.441.357-.768.465-.993a1.26,1.26,0,0,1,.193-.331,11.407,11.407,0,0,1-.5,1.389,28.482,28.482,0,0,0-1.107,3.843,26.857,26.857,0,0,0,.44,13.027,22.951,22.951,0,0,0,3.048,6.527,24.235,24.235,0,0,0,3.918,4.416,32.068,32.068,0,0,0,3.159,2.458,11.013,11.013,0,0,1,1.2.852" transform="translate(-15.58 -19.423)" fill="#455a64"/>
          <path id="Path_908046" data-name="Path 908046" d="M235.364,370.209l10.973,19.938s23.08-5.865,25.467-2.377L234.78,411.842l-18.372-30.365Z" transform="translate(-29.958 -51.249)" fill="#ff725e"/>
          <g id="Group_1114772" data-name="Group 1114772" transform="translate(203.212 343.773)" opacity="0.6">
            <g id="Group_1114771" data-name="Group 1114771">
              <g id="Group_1114770" data-name="Group 1114770" clip-path="url(#clip-path-13)">
                <path id="Path_908047" data-name="Path 908047" d="M236.331,399.5a1.8,1.8,0,0,0-.015,2.406,1.735,1.735,0,0,0,2.386.034,1.9,1.9,0,0,0,0-2.548,1.8,1.8,0,0,0-2.484.24" transform="translate(-235.863 -399.009)" fill="#fff"/>
              </g>
            </g>
          </g>
          <g id="Group_1114775" data-name="Group 1114775" transform="translate(202.971 335.517)" opacity="0.6">
            <g id="Group_1114774" data-name="Group 1114774">
              <g id="Group_1114773" data-name="Group 1114773" clip-path="url(#clip-path-14)">
                <path id="Path_908048" data-name="Path 908048" d="M237.435,414.5l-1.852-3.061,36.56-22a3.054,3.054,0,0,1,2.678,1.135Z" transform="translate(-235.583 -389.426)" fill="#fff"/>
              </g>
            </g>
          </g>
          <path id="Path_908049" data-name="Path 908049" d="M251.34,392.693c.1.189-.77.826-1.325,1.965-.585,1.125-.575,2.208-.788,2.236-.192.066-.578-1.2.118-2.573s1.934-1.822,2-1.628" transform="translate(-34.462 -54.355)" fill="#263238"/>
          <path id="Path_908050" data-name="Path 908050" d="M257.254,391.846c.15.153-.464.948-.624,2.107-.195,1.154.152,2.094-.036,2.2-.157.133-.933-.875-.706-2.311s1.256-2.167,1.366-1.993" transform="translate(-35.417 -54.241)" fill="#263238"/>
          <path id="Path_908051" data-name="Path 908051" d="M263.224,395.154c-.145.14-.955-.631-1.086-1.928s.493-2.219.663-2.111c.2.09-.041.969.083,2.032.1,1.067.513,1.878.339,2.007" transform="translate(-36.286 -54.142)" fill="#263238"/>
          <path id="Path_908052" data-name="Path 908052" d="M247.621,387.728c.022.215-.979.468-1.982,1.164-1.018.676-1.622,1.514-1.814,1.413-.186-.07.2-1.229,1.392-2.033s2.406-.744,2.4-.544" transform="translate(-33.747 -53.656)" fill="#263238"/>
          <g id="Group_1114778" data-name="Group 1114778" transform="translate(188.911 322.911)" opacity="0.3">
            <g id="Group_1114777" data-name="Group 1114777">
              <g id="Group_1114776" data-name="Group 1114776" clip-path="url(#clip-path-15)">
                <path id="Path_908053" data-name="Path 908053" d="M237.928,374.8l1.96,3.551-18.726,10.97-1.9-3.121Z" transform="translate(-219.264 -374.795)"/>
              </g>
            </g>
          </g>
          <path id="Path_908054" data-name="Path 908054" d="M244.424,382.991c.048.075-.615.627-1.9,1.125a9.931,9.931,0,0,1-2.35.578,10.44,10.44,0,0,1-1.435.073,2.726,2.726,0,0,1-.84-.1.941.941,0,0,1-.674-.934,1.181,1.181,0,0,1,.558-.908,2.859,2.859,0,0,1,.77-.327,7.961,7.961,0,0,1,1.422-.3,7.8,7.8,0,0,1,2.437.1,3.691,3.691,0,0,1,2.038.874c-.047.111-.821-.212-2.118-.349a8.849,8.849,0,0,0-2.263.059,8.266,8.266,0,0,0-1.291.315c-.464.135-.807.336-.8.576,0,.09.015.121.169.188a2.225,2.225,0,0,0,.616.074,11.723,11.723,0,0,0,1.346-.027,12.264,12.264,0,0,0,2.256-.394,15.2,15.2,0,0,1,2.068-.621" transform="translate(-32.838 -52.901)" fill="#263238"/>
          <path id="Path_908055" data-name="Path 908055" d="M245.039,382.473c-.048.068-.812-.376-1.6-1.534a7.168,7.168,0,0,1-1.189-3.675,1.827,1.827,0,0,1,.638-1.682,1.032,1.032,0,0,1,1.109.055,2.96,2.96,0,0,1,.611.579,4.9,4.9,0,0,1,.766,1.278,5.089,5.089,0,0,1,.362,2.445c-.153,1.425-.794,2.108-.846,2.055a17.952,17.952,0,0,0,.316-2.082,5.091,5.091,0,0,0-.466-2.143,4.532,4.532,0,0,0-.691-1.075c-.3-.368-.645-.6-.771-.471a1.265,1.265,0,0,0-.292,1.019,7.322,7.322,0,0,0,.145,1.31,7.951,7.951,0,0,0,.765,2.113c.613,1.143,1.225,1.718,1.142,1.807" transform="translate(-33.536 -51.974)" fill="#263238"/>
          <path id="Path_908056" data-name="Path 908056" d="M195.911,415.07l-1.129,22.73s23.538,7.024,23.153,12.594l-44.29-.057.216-35.629Z" transform="translate(-24.038 -57.409)" fill="#ff725e"/>
          <g id="Group_1114781" data-name="Group 1114781" transform="translate(155.809 378.221)" opacity="0.6">
            <g id="Group_1114780" data-name="Group 1114780">
              <g id="Group_1114779" data-name="Group 1114779" clip-path="url(#clip-path-16)">
                <path id="Path_908057" data-name="Path 908057" d="M182.152,439.061a1.8,1.8,0,0,0-1.275,2.04,1.734,1.734,0,0,0,2.012,1.282,1.9,1.9,0,0,0,1.339-2.168,1.8,1.8,0,0,0-2.24-1.1" transform="translate(-180.843 -438.991)" fill="#fff"/>
              </g>
            </g>
          </g>
          <g id="Group_1114784" data-name="Group 1114784" transform="translate(149.548 389.21)" opacity="0.6">
            <g id="Group_1114783" data-name="Group 1114783">
              <g id="Group_1114782" data-name="Group 1114782" clip-path="url(#clip-path-17)">
                <path id="Path_908058" data-name="Path 908058" d="M173.636,455.464l-.058-3.717,42.262.468s2.09,1.477,2.085,3.306Z" transform="translate(-173.577 -451.746)" fill="#fff"/>
              </g>
            </g>
          </g>
          <path id="Path_908059" data-name="Path 908059" d="M198.36,441.227c-.01.215-1.089.3-2.16.977-1.088.651-1.647,1.578-1.845,1.489-.2-.044.141-1.329,1.452-2.128s2.6-.535,2.553-.338" transform="translate(-26.898 -61.051)" fill="#263238"/>
          <path id="Path_908060" data-name="Path 908060" d="M203.879,443.543c.047.209-.893.563-1.637,1.466-.771.88-.969,1.863-1.184,1.851-.2.031-.335-1.234.612-2.337s2.207-1.185,2.209-.979" transform="translate(-27.813 -61.388)" fill="#263238"/>
          <path id="Path_908061" data-name="Path 908061" d="M207.281,449.439c-.2.043-.482-1.038.089-2.211s1.584-1.629,1.672-1.448c.12.178-.544.8-1,1.773-.476.96-.55,1.868-.764,1.886" transform="translate(-28.66 -61.705)" fill="#263238"/>
          <path id="Path_908062" data-name="Path 908062" d="M197.9,435.086c-.093.2-1.078-.115-2.3-.05-1.221.041-2.175.438-2.285.251-.122-.157.814-.943,2.252-1s2.439.632,2.331.8" transform="translate(-26.761 -60.119)" fill="#263238"/>
          <g id="Group_1114787" data-name="Group 1114787" transform="translate(149.649 373.758)" opacity="0.3">
            <g id="Group_1114786" data-name="Group 1114786">
              <g id="Group_1114785" data-name="Group 1114785" clip-path="url(#clip-path-18)">
                <path id="Path_908063" data-name="Path 908063" d="M195.149,433.811l-.256,4.524-21.2-.557.022-3.652Z" transform="translate(-173.694 -433.811)"/>
              </g>
            </g>
          </g>
          <path id="Path_908064" data-name="Path 908064" d="M197.737,429.3a4.135,4.135,0,0,1-2.211-.041,9.925,9.925,0,0,1-2.3-.743,10.451,10.451,0,0,1-1.26-.691,2.726,2.726,0,0,1-.661-.529.94.94,0,0,1-.083-1.148,1.182,1.182,0,0,1,.951-.48,2.857,2.857,0,0,1,.828.126,7.95,7.95,0,0,1,1.368.49,7.806,7.806,0,0,1,2.02,1.366c1.011.962,1.35,1.773,1.276,1.814-.1.07-.588-.612-1.62-1.41a8.869,8.869,0,0,0-1.957-1.138,8.206,8.206,0,0,0-1.265-.409c-.466-.128-.863-.138-.986.069-.045.078-.051.11.046.248a2.188,2.188,0,0,0,.485.386,11.63,11.63,0,0,0,1.16.684,12.215,12.215,0,0,0,2.126.849,15.373,15.373,0,0,1,2.086.557" transform="translate(-26.449 -58.927)" fill="#263238"/>
          <path id="Path_908065" data-name="Path 908065" d="M198.389,429.118a3.527,3.527,0,0,1-.554-2.144,7.165,7.165,0,0,1,.917-3.752,1.827,1.827,0,0,1,1.426-1.1,1.034,1.034,0,0,1,.915.629,2.977,2.977,0,0,1,.215.814,4.885,4.885,0,0,1-.019,1.49,5.085,5.085,0,0,1-.975,2.271c-.879,1.132-1.782,1.378-1.8,1.3-.071-.109.687-.515,1.362-1.606a5.1,5.1,0,0,0,.728-2.068,4.56,4.56,0,0,0-.023-1.279c-.063-.47-.233-.851-.41-.806-.219-.007-.6.342-.783.713a7.307,7.307,0,0,0-.563,1.192,7.965,7.965,0,0,0-.459,2.2c-.078,1.295.141,2.106.023,2.137" transform="translate(-27.386 -58.436)" fill="#263238"/>
          <path id="Path_908066" data-name="Path 908066" d="M123.824,189.634l2.48-1.051c-.756-1.209,5.16,10.341,13.217,10.416,11.012.1,12.115-10.869,12.115-10.869l.576.071,18.108,18.761,2.387,52.522-1.966,6.741L131.855,280.35l-13.565-27L117.1,236.709Z" transform="translate(-16.21 -26.043)" fill="#f5f5f5"/>
          <path id="Path_908067" data-name="Path 908067" d="M121.4,189.194s-22.083,5.027-25.683,14.453c-1.59,4.161-2.1,71.283-2.1,71.283s-2.748,6.143-2.568,18.815c.172,12.149,8.209,20.006,18.232,22.276,0,0,2.638-19.087,13.208-28.653,10.014-9.064,10.935-7.968,10.935-7.968l-2.417-21.887-2.5-19.059c-2.509-13.617.313-28.383-4.325-41.429Z" transform="translate(-12.603 -26.191)" fill="#ff725e"/>
          <path id="Path_908068" data-name="Path 908068" d="M177.241,202.394l15.063,66.25-16.194-3.681-5.153-39.749L157.669,188.14s2.238.292,5.116.741a17.622,17.622,0,0,1,14.456,13.513" transform="translate(-21.826 -26.045)" fill="#ff725e"/>
          <g id="Group_1114790" data-name="Group 1114790" transform="translate(81.111 249.039)" opacity="0.3">
            <g id="Group_1114789" data-name="Group 1114789">
              <g id="Group_1114788" data-name="Group 1114788" clip-path="url(#clip-path-19)">
                <path id="Path_908069" data-name="Path 908069" d="M94.208,300.126a2.382,2.382,0,0,0,1.074,2.036,5.432,5.432,0,0,0,2.244.812,23.452,23.452,0,0,0,11.16-1.212,89.253,89.253,0,0,0,11.949-5.194,111.163,111.163,0,0,0,12.9-7.516c-5.605,2.3-7.46,2.583-13.365,3.936-8.814,2.02-18.05,3.024-26.031,7.274" transform="translate(-94.144 -289.053)"/>
              </g>
            </g>
          </g>
          <path id="Path_908070" data-name="Path 908070" d="M131.821,271.508l9.855-2.127s11.316-6.31,13.856-6.3c2.288.01,11.327,4.094,13.1,4.906a1.031,1.031,0,0,1,.468.429,1.771,1.771,0,0,1-.61,2.381l-.157.1.113.232a2.927,2.927,0,0,1,.282.953,1.191,1.191,0,0,1-2.1.864l.4.5a1.358,1.358,0,0,1,.289.7l.053.5a1.355,1.355,0,0,1-2.185,1.211c-1.221-.968-3.826-2.882-5.379-2.887a35.946,35.946,0,0,0-4.976.559,1.7,1.7,0,0,0-1.378,1.322c.907-.082,7.689,2.156,10.09,2.96a2.4,2.4,0,0,1,1.577,1.57c.194.679-.037,1.461-1.459,1.365a61.265,61.265,0,0,1-8.735-1.772s-2.854-.334-4.417,1.2c-2.2,2.159-3.233,2.988-5.482,2.63a18.3,18.3,0,0,1-3.989-1.117l-3.569.675Z" transform="translate(-18.248 -36.419)" fill="#ffbe9d"/>
          <path id="Path_908071" data-name="Path 908071" d="M155.889,270.556c.018.044.817-.364,2.208-.682a11.817,11.817,0,0,1,10.4,2.56c1.085.928,1.6,1.66,1.639,1.629a2.845,2.845,0,0,0-.358-.513,10.278,10.278,0,0,0-1.173-1.239,11.458,11.458,0,0,0-10.543-2.6,10.345,10.345,0,0,0-1.614.553,2.809,2.809,0,0,0-.556.288" transform="translate(-21.58 -37.288)" fill="#eb996e"/>
          <path id="Path_908072" data-name="Path 908072" d="M156.814,266.932a9.96,9.96,0,0,1,2.284-.794,10.4,10.4,0,0,1,5.723.655,22.319,22.319,0,0,1,5.017,3.009l1.418,1.086a3.759,3.759,0,0,0,.535.381,3.563,3.563,0,0,0-.479-.45c-.319-.277-.783-.674-1.374-1.146a20.516,20.516,0,0,0-5.032-3.093,10.136,10.136,0,0,0-5.84-.6,6.747,6.747,0,0,0-1.694.6,3.905,3.905,0,0,0-.421.246c-.095.06-.141.1-.137.1" transform="translate(-21.708 -36.793)" fill="#eb996e"/>
          <path id="Path_908073" data-name="Path 908073" d="M107.314,207.565,102.4,260.475H101l22.3.441,8.072,16.206s-29.242,14.227-41.74,10.306c-14.814-4.646-10.587-21.174-10.477-27.016.019-1.029,8.33-50.179,16.386-57.543,0,0,10.627.706,11.77,4.7" transform="translate(-10.869 -28.084)" fill="#ff725e"/>
          <path id="Path_908074" data-name="Path 908074" d="M111.9,225.461a8.534,8.534,0,0,1-.128,1.428c-.134.993-.311,2.3-.524,3.868-.5,3.334-1.172,7.8-1.914,12.728-.759,4.969-1.417,9.47-1.878,12.731-.225,1.569-.412,2.87-.554,3.862a8.653,8.653,0,0,1-.258,1.41,8.492,8.492,0,0,1,.079-1.431c.079-.918.219-2.244.409-3.881.378-3.275.986-7.788,1.746-12.76s1.5-9.46,2.047-12.709c.272-1.562.5-2.857.669-3.843a8.508,8.508,0,0,1,.306-1.4" transform="translate(-14.762 -31.211)" fill="#263238"/>
          <path id="Path_908075" data-name="Path 908075" d="M110.784,199.007c.027-.017.179.181.433.556a12.689,12.689,0,0,1,.94,1.672,17.691,17.691,0,0,1,1.017,2.663,22.172,22.172,0,0,1,.672,3.424,31.375,31.375,0,0,1,.028,6.313,12.373,12.373,0,0,1-.383,2.582,17.811,17.811,0,0,1,.059-2.6,41.221,41.221,0,0,0-.161-6.238,25.327,25.327,0,0,0-.624-3.364,21.14,21.14,0,0,0-.9-2.644c-.621-1.469-1.145-2.318-1.076-2.361" transform="translate(-15.335 -27.549)" fill="#263238"/>
          <path id="Path_908076" data-name="Path 908076" d="M91.422,296.669a.822.822,0,0,1,.22.039l.63.159a16.688,16.688,0,0,0,2.46.363,34.583,34.583,0,0,0,9.093-.887c1.89-.4,3.989-.842,6.2-1.35,2.19-.585,4.485-1.423,6.888-2.312,4.8-1.8,10.029-3.932,15.482-6.239l.681-.29-.115.314-8.05-16.216.186.115c-3.587-.028-6.869-.225-9.794-.319-2.923-.109-5.484-.164-7.6-.148s-3.778.1-4.909.217-1.731.232-1.738.195a2.256,2.256,0,0,1,.436-.108c.289-.06.719-.152,1.287-.217a44.038,44.038,0,0,1,4.92-.333c2.118-.052,4.683-.029,7.61.052s6.22.239,9.782.248h.129l.057.115c2.424,4.852,5.177,10.361,8.094,16.2l.109.219-.225.1-.682.29c-5.46,2.309-10.695,4.428-15.514,6.213-2.415.881-4.715,1.706-6.942,2.284-2.246.5-4.315.916-6.227,1.3a33.152,33.152,0,0,1-9.171.747,11.014,11.014,0,0,1-3.294-.739" transform="translate(-12.656 -37.324)" fill="#263238"/>
          <path id="Path_908077" data-name="Path 908077" d="M107.252,269.357c-.058.054-.555-.513-1.56-1.142a11.279,11.279,0,0,0-4.328-1.521,25.627,25.627,0,0,0-4.657-.146,9.142,9.142,0,0,1-1.956.009,7.585,7.585,0,0,1,1.933-.334,19.168,19.168,0,0,1,4.747.015,10.106,10.106,0,0,1,4.442,1.706,4.067,4.067,0,0,1,1.379,1.412" transform="translate(-13.117 -36.834)" fill="#263238"/>
          <g id="Group_1114793" data-name="Group 1114793" transform="translate(79.1 232.217)" opacity="0.3">
            <g id="Group_1114792" data-name="Group 1114792">
              <g id="Group_1114791" data-name="Group 1114791" clip-path="url(#clip-path-20)">
                <path id="Path_908078" data-name="Path 908078" d="M106.472,269.77a21.623,21.623,0,0,0-9.482.684,8.373,8.373,0,0,0-4.827,3.136c-.339.535-.548,1.309-.091,1.747a1.452,1.452,0,0,0,1.559.04,14.521,14.521,0,0,0,2.963-1.988,19.707,19.707,0,0,1,4.9-2.866,11.039,11.039,0,0,1,5.592-.7" transform="translate(-91.809 -269.528)"/>
              </g>
            </g>
          </g>
          <g id="Group_1114796" data-name="Group 1114796" transform="translate(76.463 226.141)" opacity="0.3">
            <g id="Group_1114795" data-name="Group 1114795">
              <g id="Group_1114794" data-name="Group 1114794" clip-path="url(#clip-path-21)">
                <path id="Path_908079" data-name="Path 908079" d="M105.067,267.657c-.669-1.858-3.114-3.6-4.691-4.137-3.59-1.225-7.727-1.683-10.907.383a1.312,1.312,0,0,0-.719.935c-.022.569.612.918,1.161,1.068,2.269.623,4.672.246,7.013.019s4.848-.262,6.874.936" transform="translate(-88.748 -262.476)"/>
              </g>
            </g>
          </g>
          <g id="Group_1114799" data-name="Group 1114799" transform="translate(92.035 196.05)" opacity="0.3">
            <g id="Group_1114798" data-name="Group 1114798">
              <g id="Group_1114797" data-name="Group 1114797" clip-path="url(#clip-path-22)">
                <path id="Path_908080" data-name="Path 908080" d="M106.823,260.5a56.843,56.843,0,0,0,4.83-32.945Z" transform="translate(-106.823 -227.55)"/>
              </g>
            </g>
          </g>
          <path id="Path_908081" data-name="Path 908081" d="M112.165,328.541s7.976,5.294,23.828,5.294,19.479-1.1,19.479-1.1l14.843-13.482,32.565,57.03s25.844-16.023,26.017-15.507c.31.309-24.112-54.027-29.454-63.425a70.323,70.323,0,0,0-6.059-8.78,23.058,23.058,0,0,0-23.133-8.405,105.868,105.868,0,0,0-13.536,3.787c-11.821,4.327-21.842,7.237-30.394,14.819-9.882,8.759-15.868,25.773-14.154,29.767" transform="translate(-15.487 -38.711)" fill="#263238"/>
          <path id="Path_908082" data-name="Path 908082" d="M173.57,318s-11.714,8.1-11.4,14.6c.264,5.444,7.507,85.582,7.507,85.582l28.84-.49,1.977-52.473Z" transform="translate(-22.449 -44.021)" fill="#263238"/>
          <path id="Path_908083" data-name="Path 908083" d="M202.83,369.329a.909.909,0,0,1-.132-.193l-.345-.589-1.291-2.287c-1.121-2.028-2.712-4.907-4.67-8.451-3.92-7.185-9.306-17.057-15.255-27.963l-6.065-11.194.22.114a14.654,14.654,0,0,0-10.436,6.624,14.068,14.068,0,0,0-1.948,5.039,23.368,23.368,0,0,0-.321,4.676c.081,2.859.341,5.135.412,6.7.041.783.065,1.388.065,1.8a3.888,3.888,0,0,1-.015.621,3.739,3.739,0,0,1-.062-.619c-.034-.44-.079-1.036-.137-1.789-.117-1.561-.42-3.827-.541-6.706a23.257,23.257,0,0,1,.272-4.742,14.331,14.331,0,0,1,1.955-5.181,14.994,14.994,0,0,1,10.7-6.861l.148-.019.072.133,6.081,11.184c5.9,10.931,11.247,20.827,15.136,28.029l4.541,8.521,1.215,2.328.305.611a.916.916,0,0,1,.09.215" transform="translate(-22.466 -44.064)" fill="#455a64"/>
          <path id="Path_908084" data-name="Path 908084" d="M180.718,305.345a15.393,15.393,0,0,0-3.647,11.926,5.147,5.147,0,0,1-.391-1.877,12.517,12.517,0,0,1,2.664-8.71,5.134,5.134,0,0,1,1.374-1.338" transform="translate(-24.453 -42.269)" fill="#455a64"/>
          <path id="Path_908085" data-name="Path 908085" d="M174.194,302.777c.076.023-.16.825-.333,2.147a16.465,16.465,0,0,0,1.884,10.038c.64,1.168,1.151,1.83,1.089,1.879a6.386,6.386,0,0,1-1.37-1.715,14.562,14.562,0,0,1-1.926-10.253,6.393,6.393,0,0,1,.655-2.1" transform="translate(-23.991 -41.914)" fill="#455a64"/>
          <path id="Path_908086" data-name="Path 908086" d="M148.244,256.475c-.066-.055.816-1.061,1.938-2.882a26.207,26.207,0,0,0,1.721-3.329,25.926,25.926,0,0,0,2.066-8.895,26.255,26.255,0,0,0-.078-3.748c-.2-2.13-.553-3.42-.469-3.44a3.816,3.816,0,0,1,.295.892,9.167,9.167,0,0,1,.251,1.073c.078.422.188.9.239,1.441a23.15,23.15,0,0,1,.176,3.8,24.3,24.3,0,0,1-2.1,9.042,23.248,23.248,0,0,1-1.833,3.334c-.283.462-.594.843-.849,1.188a9.358,9.358,0,0,1-.7.853,3.766,3.766,0,0,1-.658.67" transform="translate(-20.521 -32.418)" fill="#263238"/>
          <path id="Path_908087" data-name="Path 908087" d="M179.009,200.661s31.269,53.709,31.968,57.834c.52,3.067-.473,11.813-3.275,12.946-7.839,3.17-16.9-.513-25.183-6.242l-1.241-.858Z" transform="translate(-24.781 -27.778)" fill="#ff725e"/>
          <path id="Path_908088" data-name="Path 908088" d="M18.981,191.847s4.9-2.848,6.065,5.087,9.213,66.118,9.213,66.118l50.012-.473s10.565-.4,17.737,21.133c5.017,15.065,10.135,66.325,10.135,66.325l-.947,37.1-90.43-.015S17.973,309.36,17.506,274.78s-1.459-72.3,1.476-82.933" transform="translate(-2.348 -26.489)" fill="#455a64"/>
          <path id="Path_908089" data-name="Path 908089" d="M24.546,191.324a2.465,2.465,0,0,0,.271.24,7.289,7.289,0,0,1,.74.759,6.649,6.649,0,0,1,1.52,3.751l1.85,15.339c1.611,13.032,3.852,31.159,6.382,51.634l.026.2.2,0,10.434-.22c11.279-.181,22.029-.258,31.794.022,2.44.076,4.82.175,7.123.358l1.713.146c.566.054,1.119.151,1.673.223a5.773,5.773,0,0,1,2.986,1.144,19.711,19.711,0,0,1,4.24,4.637,51.458,51.458,0,0,1,3.059,5.026,93.088,93.088,0,0,1,6.823,16.477,36.11,36.11,0,0,1,1.152,4.725,10.684,10.684,0,0,1,.132,1.257c0,.284.008.432.008.432s.021-.145.039-.432a8.989,8.989,0,0,0-.089-1.271,33.348,33.348,0,0,0-1.074-4.763c-.581-2.038-1.4-4.5-2.489-7.3a88.34,88.34,0,0,0-4.223-9.282,51.389,51.389,0,0,0-3.054-5.077,20.02,20.02,0,0,0-4.309-4.743l-.71-.454c-.244-.142-.511-.249-.767-.376a8.15,8.15,0,0,0-.826-.258c-.278-.062-.557-.087-.837-.132-.559-.076-1.123-.175-1.692-.232L84.919,263c-2.313-.19-4.7-.3-7.142-.379-9.778-.3-20.53-.238-31.814-.057l-10.438.223.226.2c-2.589-20.467-4.881-38.587-6.529-51.614-.84-6.486-1.516-11.7-1.985-15.321a6.629,6.629,0,0,0-1.617-3.787,4.759,4.759,0,0,0-1.074-.943" transform="translate(-3.398 -26.485)" fill="#263238"/>
          <path id="Path_908090" data-name="Path 908090" d="M97.677,279.188a2.647,2.647,0,0,1-.328.058c-.216.034-.538.085-.956.179a19.329,19.329,0,0,0-8.537,4.248,20.664,20.664,0,0,0-2.551,2.642l-1.14,1.655c-.1.142-.2.282-.291.429l-.24.469c-.161.314-.323.632-.489.954l-.5.977c-.153.336-.259.7-.394,1.051-.247.716-.539,1.434-.765,2.19a33.456,33.456,0,0,0-.917,4.836c-.084.848-.215,1.707-.265,2.585q-.013,1.322-.026,2.686c-.064,1.814.1,3.694.155,5.617.341,7.693.9,16.142,1.578,25,.782,9.991,1.638,19.44,2.482,27.734l-.2-.181,26.4.223,7.482.1,1.98.041.509.019a.728.728,0,0,1,.172.017.658.658,0,0,1-.172.016l-.509.013-1.981.021-7.483.017-26.4-.061h-.181l-.019-.181c-.874-8.3-1.745-17.746-2.527-27.742-.677-8.866-1.224-17.321-1.543-25.021-.051-1.927-.207-3.8-.137-5.634q.019-1.374.037-2.708c.053-.887.19-1.754.278-2.61a33.664,33.664,0,0,1,.954-4.886c.233-.763.533-1.491.788-2.214.138-.358.249-.723.406-1.062l.514-.988q.253-.488.5-.964l.246-.473c.094-.149.2-.29.3-.434l1.17-1.669a20.789,20.789,0,0,1,2.612-2.657,17.907,17.907,0,0,1,5.079-3.083,16.916,16.916,0,0,1,3.6-1.063c.423-.08.749-.116.968-.136a1.943,1.943,0,0,1,.333-.012" transform="translate(-11.056 -38.648)" fill="#263238"/>
          <path id="Path_908091" data-name="Path 908091" d="M99.863,413.379c-.124,0-.224-8.07-.224-18.022s.1-18.024.224-18.024.224,8.069.224,18.024-.1,18.022-.224,18.022" transform="translate(-13.793 -52.235)" fill="#263238"/>
          <path id="Path_908092" data-name="Path 908092" d="M216.829,237.069l-50.893,4.6a1.168,1.168,0,0,0-1.011.819l-11.313,36.327a1.165,1.165,0,0,1-.729.758l-19.545,5.319a1.166,1.166,0,0,0,.657,2.234l21.03-4.456,47.3-5.9a1.165,1.165,0,0,0,.953-.731l14.738-37.378a1.166,1.166,0,0,0-1.19-1.589" transform="translate(-18.35 -32.817)" fill="#e0e0e0"/>
          <path id="Path_908093" data-name="Path 908093" d="M216.793,237.068a.953.953,0,0,1,.455.027,1.2,1.2,0,0,1,.846.984,1.843,1.843,0,0,1-.213.971l-.429,1.113q-.469,1.211-1.078,2.784l-6.987,17.9c-1.492,3.806-3.132,7.991-4.9,12.506l-.67,1.709-.339.866a1.463,1.463,0,0,1-.616.824,1.333,1.333,0,0,1-.507.184l-.476.061-.947.119-1.917.242-7.969,1-36.028,4.522.019,0L144.092,285.2l-5.6,1.187-2.828.6-1.42.3a1.917,1.917,0,0,1-.809.064,1.39,1.39,0,0,1-.21-2.679l.009,0,.007,0,19.546-5.314-.015,0a.983.983,0,0,0,.631-.741l.363-1.163.721-2.311,1.424-4.564,2.772-8.878,5.2-16.63q.309-.987.613-1.962a5.973,5.973,0,0,1,.358-1,1.357,1.357,0,0,1,.949-.625l3.958-.355,7.518-.668,13.4-1.183,19.171-1.665,5.155-.428,1.335-.1c.3-.021.455-.021.455-.021s-.152.028-.451.061l-1.331.14-5.149.5-19.16,1.8L177.308,240.8l-7.515.691-3.935.363a.983.983,0,0,0-.684.453,6.229,6.229,0,0,0-.316.913q-.3.974-.608,1.964c-1.637,5.272-3.364,10.835-5.165,16.639q-1.352,4.354-2.76,8.882-.7,2.263-1.419,4.565l-.719,2.312-.362,1.163a1.431,1.431,0,0,1-.9,1.027l-.014,0h0L133.361,285.1l.016-.005a.941.941,0,0,0,.142,1.814,1.464,1.464,0,0,0,.629-.06l1.421-.3,2.829-.6,5.6-1.186,10.947-2.317.009,0h.009L191,277.981,198.97,277l1.918-.237.948-.116a2.031,2.031,0,0,0,.84-.192,1.1,1.1,0,0,0,.475-.652l.343-.864q.341-.862.676-1.707l4.951-12.486,7.11-17.853q.628-1.564,1.112-2.771.242-.6.446-1.106a1.784,1.784,0,0,0,.227-.925,1.159,1.159,0,0,0-.78-.955,1.925,1.925,0,0,0-.443-.065" transform="translate(-18.314 -32.816)" fill="#263238"/>
          <path id="Path_908094" data-name="Path 908094" d="M171.443,242.2a1.644,1.644,0,0,1-.082.432c-.085.328-.19.73-.318,1.217-.283,1.054-.719,2.573-1.272,4.444-1.1,3.743-2.708,8.891-4.519,14.561-1.8,5.641-3.437,10.745-4.644,14.52-.579,1.809-1.055,3.3-1.409,4.4-.159.477-.29.871-.4,1.192a1.647,1.647,0,0,1-.168.407,1.613,1.613,0,0,1,.081-.432c.086-.328.191-.73.318-1.217.284-1.054.719-2.572,1.273-4.443,1.1-3.744,2.708-8.891,4.52-14.564,1.8-5.639,3.435-10.743,4.643-14.517l1.408-4.4c.159-.477.291-.87.4-1.192a1.647,1.647,0,0,1,.168-.408" transform="translate(-21.96 -33.529)" fill="#263238"/>
          <path id="Path_908095" data-name="Path 908095" d="M195.749,259.418a2.366,2.366,0,0,0-1.989.934,1.852,1.852,0,0,0-.555,1.988,1.581,1.581,0,0,0,1.295.825,2.646,2.646,0,0,0,1.529-.4,2.242,2.242,0,0,0,1.231-1.74,1.625,1.625,0,0,0-1.511-1.606" transform="translate(-26.729 -35.911)" fill="#fff"/>
          <path id="Path_908096" data-name="Path 908096" d="M187.272,236.126a5.619,5.619,0,0,1-.408-1.073c-.259-.783-.588-1.775-.981-2.959-.829-2.5-2.012-5.935-3.44-9.687s-2.835-7.1-3.879-9.521l-1.237-2.861a5.543,5.543,0,0,1-.409-1.072,5.621,5.621,0,0,1,.567,1c.341.655.81,1.613,1.369,2.807,1.119,2.387,2.574,5.729,4.009,9.491s2.571,7.224,3.323,9.75c.377,1.264.665,2.291.846,3.006a5.545,5.545,0,0,1,.24,1.122" transform="translate(-24.491 -28.926)" fill="#263238"/>
        </g>
      </g>
      <g id="Group_1114803" data-name="Group 1114803">
        <g id="Group_1114802" data-name="Group 1114802" clip-path="url(#clip-path)">
          <path id="Path_908097" data-name="Path 908097" d="M373.893,456.3c0,.124-83.706.224-186.938.224C83.688,456.52,0,456.42,0,456.3s83.688-.224,186.955-.224c103.232,0,186.938.1,186.938.224" transform="translate(0 -63.135)" fill="#263238"/>
        </g>
      </g>
    </g>
  </g>
</svg>
