<svg xmlns="http://www.w3.org/2000/svg" width="86.21" height="85" viewBox="0 0 86.21 85">
  <g id="circulos-06" transform="translate(0)">
    <ellipse id="Ellipse_12815" data-name="Ellipse 12815" cx="43.105" cy="42.5" rx="43.105" ry="42.5" transform="translate(0)" fill="#62a0ae"/>
    <path id="Path_903827" data-name="Path 903827" d="M62.933,20.04s-3.608,11.654,0,19.256S73.275,58.716,73.107,64.374a51.866,51.866,0,0,1-1.153,9.71L31.741,65.511s3.283-9.059,1.479-13.589a62.724,62.724,0,0,0-2.79-6.309l.818-14.726L62.924,20.049Z" transform="translate(-8.333 -7.597)" fill="none" stroke="#fff" stroke-linecap="round" stroke-linejoin="round" stroke-width="2"/>
    <g id="Group_1112741" data-name="Group 1112741" transform="translate(29.536 22.551)">
      <path id="Path_903828" data-name="Path 903828" d="M44.14,38.779l.242,1.284-4.873.889-.158-.853c.363-.44.716-.871,1.051-1.293a11.927,11.927,0,0,0,.893-1.229,5.626,5.626,0,0,0,.567-1.174,2.074,2.074,0,0,0,.084-1.109.89.89,0,0,0-.456-.688,1.146,1.146,0,0,0-.781-.11,1.158,1.158,0,0,0-.4.147.975.975,0,0,0-.316.266,1.056,1.056,0,0,0-.186.367.914.914,0,0,0-.009.449l-1.311.238a2.469,2.469,0,0,1,0-1.045,2.251,2.251,0,0,1,.381-.825,2.094,2.094,0,0,1,.688-.578,2.982,2.982,0,0,1,.911-.321,3.208,3.208,0,0,1,.976-.037,2.333,2.333,0,0,1,.846.257,1.957,1.957,0,0,1,.642.559,2.105,2.105,0,0,1,.363.88,3.312,3.312,0,0,1,0,1.284,4.612,4.612,0,0,1-.4,1.174,5.875,5.875,0,0,1-.651,1.054c-.251.33-.5.633-.744.9l2.641-.486Z" transform="translate(-38.43 -31.236)" fill="#fff"/>
      <path id="Path_903829" data-name="Path 903829" d="M46.81,32.189l1.348,7.18-1.367.248-.976-5.227-1.162.211-.232-1.229.614-.11q.474-.083.586-.275a.9.9,0,0,0,.046-.6l1.144-.211Z" transform="translate(-38.849 -31.157)" fill="#fff"/>
      <path id="Path_903830" data-name="Path 903830" d="M51.622,31.115a3.088,3.088,0,0,1,1.33.046,3.121,3.121,0,0,1,1.181.6,3.942,3.942,0,0,1,.911,1.064,4.527,4.527,0,0,1,.53,1.44,4.256,4.256,0,0,1,.028,1.531,3.74,3.74,0,0,1-.465,1.311,3.182,3.182,0,0,1-.883.972,3.038,3.038,0,0,1-1.228.513,3.088,3.088,0,0,1-1.33-.046,3.259,3.259,0,0,1-1.181-.6,3.808,3.808,0,0,1-.911-1.064,4.527,4.527,0,0,1-.53-1.44,4.255,4.255,0,0,1-.028-1.531,3.739,3.739,0,0,1,.465-1.311,3.182,3.182,0,0,1,.883-.972A3.039,3.039,0,0,1,51.622,31.115Zm1.144,6.125a1.507,1.507,0,0,0,.753-.348,2.008,2.008,0,0,0,.474-.651,2.248,2.248,0,0,0,.2-.825,4.079,4.079,0,0,0-.046-.889,3,3,0,0,0-.279-.844,2.56,2.56,0,0,0-.493-.7,2.054,2.054,0,0,0-.679-.44,1.5,1.5,0,0,0-.837-.064,1.545,1.545,0,0,0-.753.348,1.77,1.77,0,0,0-.474.651,2.45,2.45,0,0,0-.2.825,4.079,4.079,0,0,0,.047.889,3,3,0,0,0,.279.844,2.56,2.56,0,0,0,.493.7,2.054,2.054,0,0,0,.679.44,1.473,1.473,0,0,0,.828.064Z" transform="translate(-39.169 -31.064)" fill="#fff"/>
    </g>
    <line id="Line_568" data-name="Line 568" y1="4.878" x2="17.121" transform="translate(31.378 32.267)" fill="none" stroke="#fff" stroke-linecap="round" stroke-linejoin="round" stroke-width="2"/>
    <line id="Line_569" data-name="Line 569" y1="2.833" x2="17.586" transform="translate(31.648 39.667)" fill="none" stroke="#fff" stroke-linecap="round" stroke-linejoin="round" stroke-width="2"/>
    <line id="Line_570" data-name="Line 570" y1="0.825" x2="17.8" transform="translate(32.801 46.727)" fill="none" stroke="#fff" stroke-linecap="round" stroke-linejoin="round" stroke-width="2"/>
    <line id="Line_571" data-name="Line 571" x2="19.102" y2="1.137" transform="translate(33.554 53.375)" fill="none" stroke="#fff" stroke-linecap="round" stroke-linejoin="round" stroke-width="2"/>
  </g>
</svg>
